<svg version="1.1" xmlns="http://www.w3.org/2000/svg" xmlns:xlink="http://www.w3.org/1999/xlink" width="480" height="464.98635" viewBox="0,0,480,464.98635"><g transform="translate(0,104.98635)"><g data-paper-data="{&quot;isPaintingLayer&quot;:true}" fill-rule="nonzero" stroke-linejoin="miter" stroke-miterlimit="10" stroke-dasharray="" stroke-dashoffset="0" style="mix-blend-mode: normal"><path d="M0,360v-360h480v360z" fill="#ffffff" stroke="none" stroke-width="0" stroke-linecap="butt"/><path d="M305.56737,127.46038l0.86413,60.0781" data-paper-data="{&quot;index&quot;:null}" fill="none" stroke="#000000" stroke-width="3.5" stroke-linecap="round"/><g data-paper-data="{&quot;index&quot;:null}" stroke="#2c0050" stroke-width="3.5" stroke-linecap="butt"><path d="M294.34328,222.75409c0,0 -1.06889,-5.35231 -1.24099,-8.21166c-0.15657,-2.60165 7.80474,-2.67305 7.68165,-4.71849c-0.25841,-4.29346 -1.83922,-14.01563 -1.83922,-14.01563l16.07225,-1.79292l0.90003,27.36277z" fill="#500190"/><path d="M297.88444,195.08882c-0.13252,-2.20185 3.63322,-5.13472 8.48671,-5.58304c2.46202,-0.22741 6.47413,-3.83674 8.11413,-3.24405c1.59301,0.57568 0.92239,6.5609 0.98767,7.64582c0.13252,2.20185 -3.69457,4.35021 -8.54806,4.79853c-4.85347,0.44829 -8.89542,-0.97323 -9.02793,-3.17507z" fill="#979025"/></g><path d="M335.92945,172.63892c0,0 -7.67487,-18.43278 -7.53798,-27.26325c0.14035,-9.05404 13.08645,-17.89062 13.08645,-17.89062" data-paper-data="{&quot;index&quot;:null}" fill="none" stroke="#000000" stroke-width="3.5" stroke-linecap="round"/><g data-paper-data="{&quot;index&quot;:null}" stroke="#2c0050" stroke-width="3.5" stroke-linecap="butt"><path d="M336.69637,205.97062c0,0 -2.68474,-3.92848 -3.75234,-6.20114c-0.97136,-2.06784 6.32318,-5.5981 5.55949,-7.22385c-1.60305,-3.41253 -6.14815,-10.7057 -6.14815,-10.7057l14.20179,-8.4806l9.53004,22.07409z" fill="#500190"/><path d="M331.152,181.71151c-0.8221,-1.75007 1.70619,-5.80025 6.02445,-8.28476c2.19052,-1.2603 4.7301,-5.97334 6.42593,-6.20184c1.64723,-0.22198 2.93448,4.9847 3.33955,5.84702c0.8221,1.75007 -2.01209,5.18286 -6.33036,7.66738c-4.31825,2.48449 -8.48533,3.07987 -9.30744,1.3298z" fill="#979025"/></g><g data-paper-data="{&quot;index&quot;:null}"><path d="M295.99656,46.6106l-21.43224,-41.61653" data-paper-data="{&quot;index&quot;:null}" fill="none" stroke="#000000" stroke-width="3.5" stroke-linecap="round"/><g data-paper-data="{&quot;index&quot;:null}" fill="#500190" stroke="#2c0050" stroke-width="2.5" stroke-linecap="butt"><path d=""/><path d=""/><path d=""/><path d="" data-paper-data="{&quot;index&quot;:null}"/></g></g><g data-paper-data="{&quot;index&quot;:null}"><path d="M348.39082,49.77769l21.06189,-47.40329" fill="none" stroke="#000000" stroke-width="3.5" stroke-linecap="round"/><g fill="#500190" stroke="#2c0050" stroke-width="2.5" stroke-linecap="butt"><path d=""/><path d=""/><path d=""/><path d="" data-paper-data="{&quot;index&quot;:null}"/></g></g><g stroke="none" stroke-linecap="butt"><path d="M296.93827,127.56694l-1.1,-89.21722h54.11557l-0.4,89.32789z" fill="#b78000" stroke-width="0"/><path d="M312.73733,67.89536c-0.56376,-0.67152 0.21225,-1.15938 0.21225,-1.15938l0.10473,-0.06282c3.82966,-2.81561 6.29253,-5.6824 7.54161,-9.54226c-0.81208,0.34555 -1.74867,0.61457 -2.80184,0.80224c-2.39871,0.61862 -8.30139,0.17156 -6.79406,-3.15493c1.46228,-3.22707 6.18147,-5.88134 10.16422,-7.01347c0.02024,-0.07158 0.05298,-0.14737 0.10095,-0.22734c0.44196,-0.73667 1.29324,-0.35421 1.29324,-0.35421l0.33222,0.15202c0.01809,0.00665 0.03616,0.01331 0.0542,0.01998c0.17451,-0.01687 0.68426,-0.02903 0.94619,0.35942c1.76366,0.69167 3.3327,1.44405 4.92482,2.52268c1.28386,1.02449 2.97865,1.99717 3.2099,3.6649c0.29433,2.1226 -2.54225,6.09705 -5.30048,5.32888c1.5159,3.02794 3.14705,5.9657 5.43327,8.71315l0.68685,0.54283c0,0 0.705,0.5628 0.05462,1.17288c-0.65037,0.61007 -1.35537,0.04727 -1.35537,0.04727l-0.81946,-0.65968c-3.38833,-4.00572 -5.39999,-8.43026 -7.61991,-12.95217c0,0 -0.16593,-0.33821 -0.01694,-0.66013c-0.03605,0.0401 -0.07286,0.0798 -0.11043,0.1191c-1.09207,5.21868 -3.9368,8.88474 -8.68038,12.3831l-0.22044,0.14161c0,0 -0.776,0.48785 -1.33976,-0.18367zM321.18712,54.76448c0,0 0.09703,-0.52999 0.62749,-0.67019c0.2994,-0.44898 0.47571,-0.95842 0.53884,-1.53045c-0.19931,-0.83472 -0.65807,-1.81854 -0.2319,-2.28558c-0.01774,-0.06756 -0.03637,-0.13568 -0.05589,-0.20437l0.11354,-0.1534l-0.10272,-0.01409l0.12779,-0.69802c-2.92652,0.70087 -4.68519,1.9978 -7.03479,3.88292c-0.67142,0.53869 -2.65792,1.7611 -2.63863,2.71073c0.01862,0.91647 4.22626,0.68807 4.78099,0.52438c1.7763,-0.31186 3.0444,-0.81464 3.86791,-1.522c0.00246,-0.01329 0.00491,-0.02659 0.00735,-0.03992zM324.3289,52.06373c0.26386,1.1194 0.56837,2.23336 1.11946,3.3257c0.26526,0.52577 1.32743,2.31636 2.13702,2.40152c0.75862,0.07979 1.03335,-1.00961 1.27032,-1.38518c1.58124,-2.50607 1.10868,-2.99408 -1.28249,-4.9038c-1.15079,-0.77962 -2.28347,-1.36162 -3.5022,-1.88094l-0.07656,0.41822c0.21685,0.71568 0.32682,1.39143 0.33443,2.02448z" fill="#09b800" stroke-width="0.5"/><path d="M295.92715,127.94813v-89.50005h19.6581c-0.3298,7.96717 0.02504,15.93076 -0.4611,24.02345c-1.27895,21.29044 1.3108,43.73632 0.03185,65.59957z" fill="#6900b8" stroke-width="0"/><path d="M330.65094,127.94813c2.49883,-21.49435 2.19968,-42.21868 1.25407,-65.35362c-0.33117,-8.10228 -1.35352,-16.17925 -1.68331,-24.14641h19.6581c0,0 0,38.50655 0,54.68595c0,12.90929 0,34.8141 0,34.8141z" data-paper-data="{&quot;index&quot;:null}" fill="#6900b8" stroke-width="0"/><path d="M330.72675,41.36498l8.88889,-17.4613l7.77778,3.44307c0,0 4.10418,8.91135 3.95115,9.30506c-0.846,2.17653 -20.61782,4.71317 -20.61782,4.71317z" fill="#6900b8" stroke-width="0"/><path d="M294.5087,36.2829c-0.15303,-0.39371 3.95116,-9.30506 3.95116,-9.30506l7.77778,-3.44307l8.88889,17.46129c0,0 -19.77183,-2.53664 -20.61783,-4.71317z" data-paper-data="{&quot;index&quot;:null}" fill="#6900b8" stroke-width="0"/><path d="M302.61564,38.90564l14.77778,-0.49187l-2.11111,89.15101z" fill="#510191" stroke-width="0"/><path d="M330.83786,127.68774l-1.77778,-89.151l14.77778,0.49187z" data-paper-data="{&quot;index&quot;:null}" fill="#510090" stroke-width="0"/><path d="M303.21756,52.12457c0.0758,-0.36963 0.37449,-0.64556 0.73141,-0.64556c0.00349,0 0.00697,0.00002 0.01045,0.00008l-0.07903,-0.48106c-0.00967,-0.0532 -0.01475,-0.10824 -0.01475,-0.16459c0,-0.45842 0.33578,-0.83003 0.75,-0.83003c0.1178,0 0.22927,0.03006 0.32847,0.08362l0.0372,-0.32935c0.04137,-0.4151 0.35933,-0.738 0.74544,-0.738c0.22956,0 0.43505,0.11415 0.57262,0.29395l0.66349,0.85668l-0.18901,0.1793c0.14286,0.19286 0.2715,0.38937 0.3895,0.59079l0.03852,-0.42635c0.03359,-0.42401 0.35526,-0.75656 0.7471,-0.75656c0.41422,0 0.75,0.37161 0.75,0.83003v0.39401c0.03366,0.0369 0.06418,0.07729 0.09107,0.12066c0.11169,-0.07309 0.242,-0.11503 0.38116,-0.11503c0.3861,0 0.70407,0.32289 0.74544,0.73799l0.10987,0.97281l-0.28139,0.03893c0.00063,0.01417 0.00117,0.02824 0.00162,0.04228l0.6904,-0.16979c0.05721,-0.01546 0.11698,-0.02365 0.17849,-0.02365c0.41422,0 0.75,0.37161 0.75,0.83003c0,0.02565 -0.00105,0.05103 -0.00311,0.0761l0.84877,0.37574c0.28485,0.11771 0.48768,0.42155 0.48768,0.77783c0,0.42274 -0.28556,0.77167 -0.65485,0.82341l-0.76686,0.12124c-0.27159,0.04293 -0.52943,0.08164 -0.77737,0.11526c0.12688,0.16126 0.23728,0.31963 0.34024,0.49557l0.12945,-0.11939l0.55241,0.73361c0.11042,0.14456 0.17698,0.33146 0.17698,0.53556c0,0.16595 -0.044,0.32051 -0.1198,0.4502c0.51858,1.14175 0.66881,2.3211 -0.0277,2.6609c-0.4326,0.21106 -1.06097,-0.34138 -1.66021,-1.10986c0.04492,0.27774 0.08758,0.55597 0.13362,0.83347l-0.00649,0.03504l0.01019,-0.00113l0.11011,1.21857c0.00312,0.03076 0.00473,0.06202 0.00473,0.09369c0,0.45842 -0.33578,0.83003 -0.75,0.83003c-0.27799,0 -0.52065,-0.16737 -0.65019,-0.41602l-0.65959,-1.21662l0.17168,-0.114c-0.27084,-0.40857 -0.50878,-0.82531 -0.72625,-1.26019l-0.07662,0.29677c-0.08416,0.35654 -0.37716,0.61964 -0.7257,0.61964c-0.23037,0 -0.43649,-0.11495 -0.57407,-0.29584c-0.91381,1.25414 -2.13227,2.45951 -2.60149,2.93251l-0.0195,0.0077l0.00457,0.00618l-0.66369,0.60108c-0.12995,0.11956 -0.29697,0.19146 -0.47916,0.19146c-0.41422,0 -0.75,-0.37161 -0.75,-0.83003c0,-0.12646 0.02555,-0.24632 0.07126,-0.35359l0.43782,-1.09021l0.04131,0.02031c0.08723,-0.59352 0.18755,-1.18134 0.30427,-1.76433l-1.08909,0.60264c-0.10422,0.06072 -0.22293,0.0951 -0.3489,0.0951c-0.41422,0 -0.75,-0.37161 -0.75,-0.83003c0,-0.18341 0.05375,-0.35293 0.14477,-0.4903l0.55048,-0.8529l0.21885,0.173c0.45515,-0.73732 1.00886,-1.24387 1.65671,-1.78657c-0.12336,-0.14046 -0.24386,-0.28691 -0.3608,-0.43708c-0.17494,0.00307 -0.34854,0.01414 -0.51795,0.04093l-0.05317,-0.02459v0.02667h-0.88889c-0.41422,0 -0.75,-0.37161 -0.75,-0.83003c0,-0.43084 0.29661,-0.78502 0.67617,-0.82605l0.09626,-0.01183l-0.26211,-0.34809c-0.11042,-0.14456 -0.17699,-0.33146 -0.17699,-0.53556c0,-0.13251 0.02806,-0.25777 0.07796,-0.3689c-0.0499,-0.11112 -0.07796,-0.23639 -0.07796,-0.36891c0,-0.45842 0.33578,-0.83003 0.75,-0.83003c0.16573,0 0.31889,0.05949 0.44303,0.16022l0.72087,0.56985c0.0837,0.03906 0.18986,0.08726 0.31336,0.14379c0.05471,-0.03983 0.11442,-0.07195 0.17786,-0.09496zM302.50421,59.66598l-0.00834,0.0018l0.00552,0.01223c0.00094,-0.00468 0.00188,-0.00935 0.00282,-0.01404zM304.28909,59.4795c0.048,-0.07221 0.09563,-0.1446 0.14297,-0.21715c-0.02879,-0.00802 -0.05692,-0.01787 -0.08427,-0.02945c-0.01927,0.08258 -0.03883,0.16485 -0.0587,0.2466z" fill="#a455b8" stroke-width="0.5"/><path d="M301.86564,54.52243c0,-0.83003 0.75,-0.83003 0.75,-0.83003h0.22222c0.27238,0 0.80228,-0.03558 1.35529,-0.03653c0.00401,-0.20962 0.00727,-0.4313 0.0077,-0.66789l0.02643,-0.05526l-0.02078,-0.00329l0.10956,-0.84869c0.04676,-0.40869 0.36204,-0.72472 0.74402,-0.72472c0.3277,0 0.60631,0.23258 0.70839,0.55673l0.00945,0.02789c0.1332,-0.13403 0.31017,-0.21572 0.50438,-0.21572c0.00331,0 0.00662,0.00002 0.00993,0.00007c0.32526,-0.13865 0.71801,-0.04941 1.19504,0.39368c0.11418,0.10606 0.21287,0.21315 0.29731,0.32036c0.13619,-0.20909 0.35814,-0.3452 0.60883,-0.3452c0.41422,0 0.75,0.37161 0.75,0.83003c0,0.03509 -0.00197,0.06969 -0.00579,0.10364l-0.10991,1.09472l-0.06221,-0.00765c-0.00421,0.1142 -0.01708,0.22789 -0.0411,0.34088c0.68698,0.09301 1.2899,0.3894 1.39519,0.88732c0.23785,1.12482 -0.01291,1.61438 -0.40184,1.75118c0.14853,0.05776 0.29669,0.12499 0.44457,0.20258l0.14428,-0.31936l0.87436,0.48382c0.25369,0.13309 0.42912,0.4191 0.42912,0.75044c0,0.45842 -0.33578,0.83003 -0.75,0.83003h-0.77778v-0.0425l-0.09164,0.03628c-0.43764,-0.12353 -1.01374,-0.2372 -1.51053,-0.47967c-0.13502,0.21909 -0.36236,0.36292 -0.62006,0.36292c-0.28758,0 -0.53737,-0.17913 -0.66321,-0.44208c-1.43228,0.23017 -2.75002,0.84149 -4.16769,1.15864l-0.85976,0.23787c-0.06314,0.0191 -0.1296,0.02929 -0.19822,0.02929c-0.41422,0 -0.75,-0.37161 -0.75,-0.83003c0,-0.275 0.12085,-0.51878 0.30698,-0.66981l0.8819,-0.73201l0.14159,0.20893c0.23368,-0.22756 0.47228,-0.43319 0.71947,-0.62949c-0.10086,-0.14135 -0.16106,-0.31989 -0.16106,-0.51399c0,-0.17441 0.04861,-0.33626 0.13165,-0.46985l0.28483,-0.47283l-0.27519,-0.19034c-0.08375,-0.05583 -0.15682,-0.12926 -0.21506,-0.21567c-0.17518,-0.01749 -0.31929,-0.03467 -0.39845,-0.03467h-0.22222c0,0 -0.75,0 -0.75,-0.83003z" fill="#af5ac4" stroke-width="0.5"/><path d="M308.52723,56.07907c-0.15227,0.39321 -0.40918,0.49691 -0.62242,0.50507c-0.11003,0.18077 -0.28263,0.31101 -0.48346,0.35266c-0.01709,0.21372 -0.03776,0.42705 -0.06149,0.6398c0,0 -0.09303,0.82362 -0.83724,0.72066c-0.56259,-0.07782 -0.64672,-0.56748 -0.65428,-0.80185c-0.20556,-0.10053 -0.36264,-0.30027 -0.42169,-0.54438h-0.60879c-0.41422,0 -0.75,-0.37161 -0.75,-0.83003c0,-0.31427 0.15782,-0.58775 0.39053,-0.72866l0.76514,-0.48387l0.18934,0.36669c0.01298,-0.00716 0.02589,-0.01423 0.03875,-0.02119l0.06525,-0.57763c0.00707,-0.07098 0.02224,-0.13927 0.04444,-0.20371l-0.13364,-0.59161c-0.01726,-0.06988 -0.02648,-0.14343 -0.02648,-0.21937c0,-0.45842 0.33578,-0.83003 0.75,-0.83003c0.20711,0 0.39461,0.0929 0.53033,0.24311l0.66667,0.73779l-0.01899,0.02102l0.06867,0.03968c0.11705,0.34165 0.38175,0.68245 0.51085,1.02402l0.20459,0.09193c0,0 0.68935,0.32695 0.39391,1.08987z" fill="#be62d5" stroke-width="0.5"/></g><g stroke="#000000" stroke-width="0.5" stroke-linecap="butt"><path d="M323.2419,23.63653c-14.11774,0 -26.53255,-8.04143 -33.68433,-20.19782c5.33851,-0.50813 10.68018,-0.91732 16.04425,-1.06783c2.87956,-0.95985 5.91131,-1.50159 8.98112,-1.87087c2.80569,0 5.61137,0 8.41706,0c9.41758,0 19.41723,-1.00409 28.77817,-0.07492c2.07436,0.2059 4.0969,0.76604 6.12923,1.25762c-6.9598,13.13199 -19.87854,21.95384 -34.6655,21.95384z" fill="#e0e0e0"/><path d="M327.14838,-104.28741l1.44961,7.22124c-1.7597,-0.10879 -3.51953,-0.21563 -5.27947,-0.3207c1.97546,-3.68694 3.82986,-6.90054 3.82986,-6.90054z" fill="#00cc24"/><path d="M317.10456,-101.69579c0,0 0.31295,1.73495 0.68472,3.98446c-0.89056,-0.05139 -1.78115,-0.10237 -2.67177,-0.15296c1.1481,-2.24025 1.98705,-3.83149 1.98705,-3.83149z" fill="#00cc24"/><path d="M287.38086,4.06832c-0.12592,0.7759 -0.739,1.36465 -1.47632,1.36465c-0.63081,0 -1.17066,-0.43093 -1.39234,-1.0413l-0.16686,-0.43089c1.03751,-0.10798 2.07491,-0.21419 3.11232,-0.31745z" fill="#00cc24"/><path d="M362.90457,2.77689c-0.33504,0 -0.64442,-0.12156 -0.8941,-0.32701c0.05487,0.0056 0.10978,0.01095 0.16473,0.01605c0.48705,0.04519 0.97867,0.07498 1.47399,0.09231c-0.21941,0.13912 -0.47362,0.21866 -0.74462,0.21866z" fill="#00cc24"/><path d="M361.52995,2.75701c0.01246,-0.03654 0.02437,-0.07316 0.03574,-0.10987c0.00618,0.04096 0.01234,0.08189 0.01847,0.1228c-0.01807,-0.00432 -0.03614,-0.00862 -0.05421,-0.01293z" fill="#00cc24"/><path d="M359.81425,2.10991c-0.12647,-0.00831 -0.24873,-0.03397 -0.36485,-0.07485c0.12152,0.0256 0.24314,0.05058 0.36485,0.07485z" fill="#00cc24"/><path d="M361.52994,2.75702v-0.00001v0z" fill="#00cc24"/><path d="" fill="#dca922"/><path d="" data-paper-data="{&quot;index&quot;:null}" fill="#dca922"/><path d="" fill="#000000"/><path d="" data-paper-data="{&quot;index&quot;:null}" fill="#000000"/></g><g fill="#6a5210" stroke="none" stroke-width="0" stroke-linecap="butt"><path d=""/><path d=""/></g><path d="M313.83538,1.69301c1.15114,-0.28375 2.48005,-0.34988 3.78706,-0.34195c0.74799,-0.23264 1.48836,-0.52838 2.22595,-0.85106c1.05054,0 2.10107,0 3.15161,0c6.23569,0 12.72658,-0.44022 19.11827,-0.46795c-1.00303,2.33095 -4.20521,4.09226 -5.92231,5.28139c-0.37021,0.25638 -0.74415,0.50614 -1.12153,0.74961c0.00888,0.08989 0.01344,0.18121 0.01344,0.27371c0,1.27554 -0.8666,2.32706 -1.98374,2.47283l-2.46889,0.3643l-0.00905,-0.07511l-0.1393,0.09149c-0.14216,0.00027 -0.28447,0.00046 -0.42689,0.0006c-0.53331,0.31846 -1.20593,0.40454 -1.83608,0.53999c-2.58351,1.15625 -5.23826,2.14128 -7.89102,3.04376c-1.62907,0.55423 -3.15354,1.73705 -4.85764,1.76552c-2.98334,0.04985 -3.81889,-1.06162 -6.0179,-2.6022c-3.76873,-2.6403 -6.89578,-5.45552 -10.17554,-8.78275l-0.02002,-0.05435l-0.01491,0.01651l-0.39032,-0.43197c2.24542,-0.14255 4.49336,-0.25132 6.74526,-0.31451c1.95805,-0.65268 3.98647,-1.11204 6.04937,-1.45531c0.71479,0.32292 1.46054,0.61206 2.18419,0.77744zM313.05132,8.07919c-0.32306,-0.0587 -0.64546,-0.12046 -0.9671,-0.18543c0.28184,0.21821 0.59661,0.48678 0.93257,0.74469z" fill="#ffffff" stroke="none" stroke-width="0.5" stroke-linecap="butt"/><path d="M337.94064,8.57436c-4.47609,4.3053 -20.90276,10.34193 -20.90276,10.34193c0,0 -12.33039,-6.362 -16.18312,-10.68015c-1.23352,-1.38252 -2.50724,-3.32381 -3.71509,-5.43534c1.47811,-0.10472 2.95716,-0.1961 4.43756,-0.27076c1.25802,1.39914 2.71138,2.84364 4.27593,4.1846c3.47753,2.98056 8.93179,5.22389 9.64305,6.01104c2.82901,3.13087 19.20706,-6.66267 23.94708,-12.66035c1.44828,-0.02848 2.89402,-0.04197 4.33314,-0.03065c-1.716,3.29003 -3.73281,6.51695 -5.83579,8.53969z" fill="#8a0000" stroke="none" stroke-width="0" stroke-linecap="butt"/><path d="M312.70453,3.88358c-0.15324,0.04239 -1.94952,-0.97069 -4.27009,-2.31987c2.00842,-0.48451 4.06973,-0.81365 6.1485,-1.06372c2.80569,0 5.61137,0 8.41706,0c0.36427,0 0.72941,-0.0015 1.09535,-0.00434z" fill="#8a0000" stroke="none" stroke-width="0" stroke-linecap="butt"/><path d="" fill="#878787" stroke="none" stroke-width="0.5" stroke-linecap="butt"/><g><path d="M196.65316,167.8264l-46.31455,39.03717" data-paper-data="{&quot;index&quot;:null}" fill="none" stroke="#383838" stroke-width="3.5" stroke-linecap="round"/><g data-paper-data="{&quot;index&quot;:null}" fill="#393839" stroke="#131313" stroke-width="2.5" stroke-linecap="butt"><path d="M196.3626,168.17382c-1.50727,-3.97376 -1.2224,-7.76666 0.63629,-8.47166c1.85869,-0.70501 4.58735,1.94482 6.09463,5.91858c1.50727,3.97376 1.2224,7.76666 -0.63629,8.47166c-1.85869,0.70501 -4.58735,-1.94482 -6.09463,-5.91858z"/><path d="M200.61789,167.39396c-1.50727,-3.97376 -1.2224,-7.76666 0.63629,-8.47166c1.85869,-0.70501 4.58735,1.94482 6.09463,5.91858c1.50727,3.97376 1.22239,7.76665 -0.63629,8.47166c-1.85869,0.70501 -4.58735,-1.94482 -6.09463,-5.91857z"/><path d="M204.2009,165.54162c-1.50727,-3.97376 -1.2224,-7.76666 0.63629,-8.47166c1.85869,-0.70501 4.58736,1.94483 6.09463,5.91858c1.50727,3.97376 1.22239,7.76665 -0.63629,8.47166c-1.85869,0.70501 -4.58735,-1.94482 -6.09463,-5.91858z"/><path d="M194.54193,163.60351c-1.09327,-1.66029 0.89796,-4.901 4.44755,-7.23832c3.54958,-2.33732 7.31335,-2.88618 8.40663,-1.22589c1.09327,1.66029 -0.89798,4.90099 -4.44755,7.23832c-3.54958,2.33732 -7.31335,2.88618 -8.40662,1.22589z" data-paper-data="{&quot;index&quot;:null}"/></g></g><path d="M148.11525,270.8563c0,0 22.81651,13.97503 19.962,21.40196c-2.93219,7.62907 -14.22338,24.04731 -14.22338,24.04731" fill="none" stroke="#000000" stroke-width="3.5" stroke-linecap="round"/><path d="M107.98177,271.52241c0,0 12.80669,9.16506 12.76528,17.24146c-0.04133,8.05894 -12.02289,28.85324 -12.02289,28.85324" fill="none" stroke="#000000" stroke-width="3.5" stroke-linecap="round"/><g data-paper-data="{&quot;index&quot;:null}" stroke="#121312" stroke-width="3.5" stroke-linecap="butt"><path d="M91.93498,339.71004l7.11521,-20.92921l15.00527,5.93745c0,0 -3.73753,7.07933 -4.96637,10.33015c-0.34341,0.90852 2.44808,2.18864 4.40687,3.39843c1.38026,0.85248 2.19031,1.61466 1.88251,2.42894c-0.81838,2.16496 -3.06649,6.0061 -3.06649,6.0061z" fill="#383838"/><path d="M115.12374,324.80017c-0.63019,1.66714 -4.83163,1.62356 -9.38417,-0.09733c-4.55257,-1.72089 -7.73226,-4.46742 -7.10208,-6.13458c0.31051,-0.82145 1.03484,-5.64497 2.69423,-5.63974c1.70835,0.00537 4.73168,3.93535 7.04106,4.80829c4.55257,1.72089 7.38116,5.39622 6.75098,7.06337z" fill="#979025"/></g><g stroke="#121312" stroke-width="3.5" stroke-linecap="butt"><path d="M143.65738,336.97922l3.67106,-21.79865l15.76257,3.45735c0,0 -2.55537,7.58658 -3.24763,10.99226c-0.3298,1.62247 7.56104,2.68107 7.14156,4.74474c-0.46104,2.26809 -2.06486,6.41973 -2.06486,6.41973z" fill="#383838"/><path d="M164.15862,318.54763c-0.35502,1.74655 -4.50918,2.37649 -9.2786,1.40701c-4.76941,-0.96947 -8.34801,-3.17125 -7.99298,-4.91779c0.17493,-0.86058 0.1173,-5.73784 1.75611,-5.99848c1.68715,-0.26832 5.30093,3.12662 7.72029,3.61841c4.76941,0.96947 8.1502,4.1443 7.7952,5.89084z" fill="#979025"/></g><g stroke="none" stroke-width="0" stroke-linecap="butt"><path d="M99.39379,271.07497v-75.71215h54.11557v75.71215z" fill="#000000"/><path d="M99.31048,262.47486v-7.94357h54.11557v7.94357z" fill="#a17f00"/><g fill="#ca9e00"><path d="M120.9487,262.47291v-13.15654h3.55972v13.15654z"/><path d="M121.68553,262.58367v-7.4471h10.35556v7.4471z"/><path d="M129.20076,259.99054v-11.17064h2.9125v11.17064z"/><path d="M129.56559,258.29812v-2.99056h15.66664l-1.94931,6.42416c0,0 -0.76046,-4.3794 -3.0715,-3.63567c-2.49998,0.80454 -2.79143,2.86034 -4.29254,2.86034c-0.54892,0 -0.41234,-2.12841 -1.26289,-2.47016c-0.8012,-0.32192 -1.08222,2.35813 -1.98558,2.36495c-1.29357,0.00976 -3.10482,-2.55307 -3.10482,-2.55307z"/><path d="M121.09239,260.81155c-0.90336,-0.00682 -1.18438,-2.68686 -1.98558,-2.36495c-0.85055,0.34175 -0.71397,2.47015 -1.26289,2.47015c-1.50111,0 -1.79256,-2.0558 -4.29255,-2.86034c-2.31104,-0.74373 -3.0715,3.63567 -3.0715,3.63567l-1.9493,-6.42416h15.66664v2.99056c0,0 -1.81125,2.56284 -3.10482,2.55307z" data-paper-data="{&quot;index&quot;:null}"/></g><g fill="#ca9e00"><path d="M119.70781,221.22479l0.11076,-21.46363h4.02574l0.11076,21.46363z"/><path d="M120.58695,221.39616v-11.52228h12.35568v11.52228z"/><path d="M129.55372,217.38403v-17.28342h3.47503v17.28342z"/><path d="M129.98899,214.7655v-4.62705h18.69257l-2.3258,9.93957c0,0 -0.90734,-6.77588 -3.66474,-5.62516c-2.98284,1.24479 -3.33059,4.42557 -5.12163,4.42557c-0.65494,0 -0.49198,-3.29312 -1.50681,-3.82187c-0.95594,-0.49807 -1.29124,3.64855 -2.36908,3.6591c-1.54342,0.01511 -3.70451,-3.95015 -3.70451,-3.95015z"/><path d="M119.87924,218.65431c-1.07784,-0.01055 -1.41314,-4.15716 -2.36908,-3.65909c-1.01483,0.52875 -0.85187,3.82187 -1.50681,3.82187c-1.79104,0 -2.13878,-3.18077 -5.12163,-4.42556c-2.7574,-1.15071 -3.66474,5.62516 -3.66474,5.62516l-2.3258,-9.93957h18.69257v4.62704c0,0 -2.16109,3.96526 -3.70451,3.95015z" data-paper-data="{&quot;index&quot;:null}"/></g></g><g stroke="none" stroke-linecap="butt"><path d="M168.56377,153.63151c0,21.62627 -17.96444,39.15784 -40.12469,39.15784c-22.16026,0 -40.12469,-17.53156 -40.12469,-39.15784c0,-21.62627 17.96444,-39.15783 40.12469,-39.15783c22.16026,0 40.12469,17.53155 40.12469,39.15783z" fill="#000000" stroke-width="0"/><path d="M149.54881,146.38006l0.64458,-38.02983l10.31318,-23.52693v61.55676z" fill="#000000" stroke-width="0"/><path d="M95.45047,148.03727v-61.55675l10.31318,23.52693l0.64457,38.02982z" data-paper-data="{&quot;index&quot;:null}" fill="#000000" stroke-width="0"/><path d="M111.51899,184.73217l-7.09031,-21.27092h51.24359l-8.37945,20.30406z" fill="#d9b796" stroke-width="0"/><path d="M111.84128,154.27608c0,2.7589 -4.32878,4.99544 -9.6686,4.99544c-5.33982,0 -9.6686,-2.23654 -9.6686,-4.99544c0,-2.7589 4.32878,-4.99544 9.6686,-4.99544c5.33982,0 9.6686,2.23654 9.6686,4.99544z" fill="#ffffff" stroke-width="0"/><path d="M163.13065,155.28873c0,2.7589 -4.32878,4.99544 -9.6686,4.99544c-5.33982,0 -9.6686,-2.23654 -9.6686,-4.99544c0,-2.7589 4.32878,-4.99545 9.6686,-4.99545c5.33982,0 9.6686,2.23654 9.6686,4.99545z" fill="#ffffff" stroke-width="0"/><path d="M143.5887,173.76624c0,1.25 -1.25,1.25 -1.25,1.25h-1.24118c-8.05477,0 -16.04077,0.49648 -24.07895,0.49648c0,0 -1.25,0 -1.25,-1.25c0,-1.25 1.25,-1.25 1.25,-1.25c8.03765,0 16.02432,-0.49648 24.07895,-0.49648h1.24118c0,0 1.25,0 1.25,1.25z" fill="#000000" stroke-width="0.5"/><path d="M143.41222,177.70579c-0.46424,-1.1606 0.69636,-1.62484 0.69636,-1.62484l1.07607,-0.41588c1.73066,-1.40051 3.14702,-3.4221 0.90224,-5.34532c-0.51696,-0.44291 -2.43233,0.08592 -3.00658,0.20396c0,0 -1.22573,0.24515 -1.47087,-0.98058c-0.24515,-1.22573 0.98058,-1.47087 0.98058,-1.47087c1.41538,-0.27663 3.63322,-0.72468 4.93699,0.20396c1.66902,1.18879 2.86113,4.65217 1.89704,6.52577c-0.72393,1.40686 -1.80953,2.0934 -2.9807,3.0231l-1.40629,0.57707c0,0 -1.1606,0.46424 -1.62484,-0.69636z" fill="#000000" stroke-width="0.5"/><path d="M118.51682,178.2345c0,1.25 -1.25,1.25 -1.25,1.25l-1.23809,-0.02427c-6.01717,-1.22719 -7.03908,-9.42784 -0.49648,-10.8915c0,0 1.22573,-0.24515 1.47087,0.98058c0.24514,1.22573 -0.98058,1.47087 -0.98058,1.47087c-4.067,0.66005 -2.77793,5.34918 0.49648,5.9886l0.7478,-0.02427c0,0 1.25,0 1.25,1.25z" fill="#000000" stroke-width="0.5"/><path d="M136.02371,168.44421c-2.48264,2.33632 -5.88291,1.61028 -9.03295,1.09382c0,0 -1.23299,-0.2055 -1.02749,-1.43849c0.2055,-1.23299 1.43849,-1.02749 1.43849,-1.02749c2.02027,0.343 5.35568,1.26555 6.85419,-0.3956l0.56579,-0.77323c-0.49478,-2.21682 -1.52111,-4.2585 -1.90785,-6.57743c0,0 -0.20549,-1.23299 1.0275,-1.43849c1.23299,-0.2055 1.43849,1.02749 1.43849,1.02749c0.40843,2.45227 1.48298,4.52858 1.97863,6.91098l0.02427,0.49338c0,0 0.00001,0.72744 -0.55493,1.07245z" fill="#000000" stroke-width="0.5"/></g><g><path d="M141.67064,241.92233l-40.35655,-45.16952" fill="none" stroke="#383838" stroke-width="3.5" stroke-linecap="round"/><g fill="#393839" stroke="#131313" stroke-width="2.5" stroke-linecap="butt"><path d="M148.29913,236.536c1.7409,0.9597 1.4889,4.75492 -0.56289,8.47687c-2.05179,3.72193 -5.12637,5.96117 -6.86726,5.00147c-1.7409,-0.9597 -1.4889,-4.75492 0.56289,-8.47687c2.05179,-3.72193 5.12637,-5.96117 6.86726,-5.00147z"/><path d="M152.40222,237.90726c1.7409,0.9597 1.4889,4.75493 -0.56289,8.47687c-2.05179,3.72193 -5.12637,5.96118 -6.86727,5.00148c-1.7409,-0.9597 -1.48889,-4.75494 0.56289,-8.47688c2.05179,-3.72193 5.12637,-5.96116 6.86726,-5.00147z"/><path d="M155.68874,240.24565c1.7409,0.9597 1.4889,4.75493 -0.56289,8.47687c-2.05179,3.72193 -5.12637,5.96117 -6.86726,5.00147c-1.7409,-0.9597 -1.4889,-4.75492 0.56289,-8.47687c2.05179,-3.72193 5.12637,-5.96116 6.86726,-5.00147z"/><path d="M147.13606,248.20325c3.18511,2.81384 4.7002,6.30264 3.38405,7.79244c-1.31615,1.4898 -4.96514,0.41647 -8.15026,-2.39737c-3.18511,-2.81384 -4.70019,-6.30263 -3.38405,-7.79244c1.31615,-1.4898 4.96515,-0.41648 8.15026,2.39736z" data-paper-data="{&quot;index&quot;:null}"/></g></g><path d="M109.33178,347.43129c0,-0.69036 0.55965,-1.25 1.25,-1.25c0.69035,0 1.25,0.55964 1.25,1.25c0,0.69036 -0.55965,1.25 -1.25,1.25c-0.69035,0 -1.25,-0.55964 -1.25,-1.25z" fill="#9966ff" stroke="none" stroke-width="0.5" stroke-linecap="butt"/></g></g></svg>