<svg version="1.1" xmlns="http://www.w3.org/2000/svg" xmlns:xlink="http://www.w3.org/1999/xlink" width="488.16667" height="368.16667" viewBox="0,0,488.16667,368.16667"><g transform="translate(4.08331,4.08331)"><g data-paper-data="{&quot;isPaintingLayer&quot;:true}" fill-rule="nonzero" stroke-linejoin="miter" stroke-miterlimit="10" stroke-dasharray="" stroke-dashoffset="0" style="mix-blend-mode: normal"><path d="M-0.33331,360.33335v-360.66666h480.66667v360.66667z" fill="#ffffff" stroke="#ffffff" stroke-width="7.5" stroke-linecap="butt"/><g data-paper-data="{&quot;index&quot;:null}"><path d="M175.09345,43.34028l-6.39688,180.17899" fill="none" stroke="#000000" stroke-width="50" stroke-linecap="round"/><path d="M181.75689,257.10294c-26.93838,0 -48.77626,-23.3892 -48.77626,-52.24125c0,-28.85204 21.83788,-52.24124 48.77626,-52.24124c26.93838,0 48.77626,23.38919 48.77626,52.24124c0,28.85205 -21.83787,52.24125 -48.77626,52.24125z" fill="#000000" stroke="#000000" stroke-width="50" stroke-linecap="butt"/><path d="M178.2919,119.56986l149.79378,64.50195" fill="none" stroke="#000000" stroke-width="50" stroke-linecap="round"/><path d="M164.96505,118.5037l-103.94941,83.69261" fill="none" stroke="#000000" stroke-width="50" stroke-linecap="round"/><path d="M181.2238,317.34029c-31.35451,0 -56.77237,-20.52522 -56.77237,-45.84436c0,-25.31914 25.41786,-45.84436 56.77237,-45.84436c31.35452,0 56.77238,20.52522 56.77238,45.84436c0,25.31914 -25.41787,45.84436 -56.77238,45.84436z" fill="#ff0000" stroke="#000000" stroke-width="0" stroke-linecap="butt"/><path d="M250.52342,263.49982c-29.58807,0 -53.57393,-6.80196 -53.57393,-15.19261c0,-8.39064 23.98587,-15.1926 53.57393,-15.1926c29.58807,0 53.57393,6.80195 53.57393,15.1926c0,8.39065 -23.98586,15.19261 -53.57393,15.19261z" fill="#ff0000" stroke="none" stroke-width="0" stroke-linecap="butt"/><path d="M133.40562,224.51185c1.88085,-1.10454 4.54379,-1.16732 6.4757,-1.87563c4.02258,-1.47483 8.4008,-3.05917 12.6776,-3.64012c2.95659,-0.40161 6.22099,-0.00795 9.20767,-0.00795c1.77692,0 3.55409,-0.03086 5.33074,0c2.00937,0.0349 4.22816,-0.59199 5.02855,2.09265c0.22806,0.76494 -0.37721,1.55123 -0.56581,2.32684c-0.68826,2.03746 -0.75072,4.01716 -1.66634,6.0279c-0.26552,0.58307 -0.77739,1.02731 -1.06615,1.59922c-0.55219,1.09362 -0.4553,2.24579 -1.12968,3.31356c-0.14725,0.23315 -3.26653,3.3012 -3.2991,3.33982c-1.56853,1.8594 -3.16514,3.59395 -4.84657,5.38741c-0.94791,1.01108 -1.73941,2.15968 -2.66159,3.19429c-4.30654,4.83156 -9.16299,9.05744 -12.83929,14.44083c-0.89096,0.48334 -1.65971,1.47966 -2.67289,1.45c-0.84968,-0.02487 -1.43316,-0.95001 -1.9964,-1.58667c-1.58395,-1.79043 -2.09472,-4.82721 -2.8548,-7.01535c-1.46877,-4.22834 -2.32641,-8.50154 -3.23164,-12.87681c-0.53978,-2.60891 -1.33707,-5.31916 -1.64077,-7.96457c-0.06384,-0.55605 -0.1174,-1.11236 -0.16697,-1.66842c-0.26774,-1.06965 -0.43565,-2.15272 -0.28642,-3.20405c-0.19228,-1.85347 -0.47515,-3.69392 -1.08437,-5.50329c0,0 -0.42143,-1.2643 0.84287,-1.68573c1.2643,-0.42143 1.68573,0.84286 1.68573,0.84286c0.32992,0.99857 0.57257,2.0034 0.75995,3.01323z" fill="#000000" stroke="none" stroke-width="0.5" stroke-linecap="butt"/><path d="M191.88528,179.27413v1.06615c-0.00094,4.97578 -0.53387,9.92714 -0.53328,14.90269c0.54457,15.47401 1.59943,30.92024 1.59943,46.40081c0,0 0,1.33268 -1.33268,1.33268c-1.33268,0 -1.33268,-1.33268 -1.33268,-1.33268c0,-15.46493 -1.05791,-30.89544 -1.59902,-46.35406c0.00056,-4.99148 0.53385,-9.95828 0.53287,-14.94944v-1.06615c0,0 0,-1.33268 1.33268,-1.33268c1.33268,0 1.33268,1.33268 1.33268,1.33268z" fill="#ff0000" stroke="none" stroke-width="0.5" stroke-linecap="butt"/><path d="M186.35092,168.73849l-1.66215,0.67377c-1.47061,0 -2.97406,-0.36795 -4.41147,-0.05719c-0.80437,0.1739 -2.1188,1.99286 -2.4374,2.36576c-0.88489,1.03572 -1.75694,2.09849 -2.44809,3.27239c-1.78994,3.04014 -3.60831,6.08767 -5.26738,9.20182c-0.24523,0.46029 -2.34911,4.76436 -2.56108,5.02331c-0.47813,0.58411 -1.23938,0.86203 -1.85907,1.29304c0,0 -1.10886,0.73924 -1.8481,-0.36962c-0.73924,-1.10886 0.36962,-1.8481 0.36962,-1.8481c2.05032,-1.28474 2.42304,-3.24353 3.54626,-5.35186c2.36667,-4.44234 4.75833,-9.13311 8.04413,-12.95557c0.99149,-1.15342 2.08134,-2.74463 3.68873,-3.18216c0.25899,-0.0705 4.48164,-0.05718 5.18385,-0.05718l0.47016,-0.39238c0,0 1.19199,-0.596 1.78798,0.59599c0.596,1.19199 -0.59599,1.78798 -0.59599,1.78798z" fill="#ff0000" stroke="none" stroke-width="0.5" stroke-linecap="butt"/><path d="M216.67324,197.13212c1.33268,0 1.33268,1.33268 1.33268,1.33268v1.06615c-0.00369,3.42825 0.78192,6.62585 1.06161,10.01848c0.33357,4.04627 0.1279,8.24922 0.3048,12.31777c0.28706,6.60232 0.76687,13.45584 -0.3184,19.99568c0,0 -0.21909,1.31455 -1.53364,1.09546c-1.31455,-0.21909 -1.09546,-1.53365 -1.09546,-1.53365c1.06291,-6.3486 0.56333,-13.03186 0.28464,-19.44172c-0.17535,-4.03289 0.03502,-8.20385 -0.29824,-12.2137c-0.28803,-3.46578 -1.06714,-6.73328 -1.07068,-10.23833v-1.06615c0,0 0,-1.33268 1.33268,-1.33268z" fill="#ff0000" stroke="none" stroke-width="0.5" stroke-linecap="butt"/><path d="M230.1499,191.06506c-0.25964,-2.7346 -0.31261,-5.63068 -0.90528,-8.25234c-0.29637,-1.31098 -0.91947,-2.54785 -1.63387,-3.68632c-1.1821,-1.88378 -3.13637,-4.00041 -5.11264,-5.04546c-1.73433,-0.91712 -4.45848,-0.07876 -6.27671,0.1294c-2.33761,0.26762 -5.41762,0.23926 -7.64736,0.99448c-0.78331,0.26531 -1.37346,0.96393 -2.15909,1.22228c-0.92232,0.3033 -1.92005,0.28987 -2.88008,0.43481c0,0 -1.31929,0.18847 -1.50776,-1.13082c-0.18847,-1.31929 1.13082,-1.50776 1.13082,-1.50776c0.79902,-0.10635 1.63352,-0.06075 2.39708,-0.31907c0.7834,-0.26503 1.37337,-0.96417 2.15908,-1.22228c0.42032,-0.13808 4.99017,-0.70641 5.5421,-0.7774c2.56576,-0.33002 5.66868,-1.07061 8.25024,-0.87675c3.45184,0.25922 6.66054,3.97042 8.36199,6.68184c0.85662,1.36512 1.58808,2.85307 1.95329,4.42278c0.72254,3.10562 0.70346,6.59411 1.10001,9.77036l-1.85549,1.49778c0,0 -1.33269,0 -1.33269,-1.33268c0,-0.49597 0.18458,-0.80736 0.41635,-1.00286z" fill="#ff0000" stroke="none" stroke-width="0.5" stroke-linecap="butt"/></g><text transform="translate(373.01565,166.09029) scale(0.86836,0.86836)" font-size="40" xml:space="preserve" fill="#000000" fill-rule="nonzero" stroke="none" stroke-width="1" stroke-linecap="butt" stroke-linejoin="miter" stroke-miterlimit="10" stroke-dasharray="" stroke-dashoffset="0" font-family="Sans Serif" font-weight="normal" text-anchor="start" style="mix-blend-mode: normal"><tspan x="0" dy="0">S</tspan></text></g></g></svg>