<svg version="1.1" xmlns="http://www.w3.org/2000/svg" xmlns:xlink="http://www.w3.org/1999/xlink" width="480" height="642.94639" viewBox="0,0,480,642.94639"><g transform="translate(0,282.94639)"><g data-paper-data="{&quot;isPaintingLayer&quot;:true}" fill-rule="nonzero" stroke-linejoin="miter" stroke-miterlimit="10" stroke-dasharray="" stroke-dashoffset="0" style="mix-blend-mode: normal"><path d="M0,360v-360h480v360z" fill="#ffffff" stroke="none" stroke-width="0" stroke-linecap="butt"/><g data-paper-data="{&quot;index&quot;:null}" stroke="#2c0050" stroke-width="3.5" stroke-linecap="butt"><path d="M316.86578,13.20571c0,0 -1.06889,-4.83627 -1.24099,-7.41994c-0.07663,-1.1505 1.79114,-1.7534 3.70402,-2.28577c6.26755,0 12.53509,0 18.80264,0l0.30805,8.46243z" fill="#500190"/><path d="" fill="#979025"/></g><g data-paper-data="{&quot;index&quot;:null}" stroke="#2c0050" stroke-width="3.5" stroke-linecap="butt"><path d="" fill="#500190"/><path d="" fill="#979025"/></g><path d="M145.73073,270.08204c0,0 28.85679,-3.34883 28.89759,4.60767c0.04191,8.17305 -14.10401,23.87386 -14.10401,23.87386" fill="none" stroke="#000000" stroke-width="3.5" stroke-linecap="round"/><path d="M106.99116,271.52243c0,0 9.50464,12.79732 9.46323,20.87372c-0.04133,8.05894 -9.38125,26.872 -9.38125,26.872" fill="none" stroke="#000000" stroke-width="3.5" stroke-linecap="round"/><g data-paper-data="{&quot;index&quot;:null}" stroke="#121312" stroke-width="3.5" stroke-linecap="butt"><path d="M95.03484,343.91532l2.63387,-21.94813l15.9087,2.70646c0,0 -2.19295,7.69916 -2.72305,11.13381c-0.25253,1.63629 7.6796,2.31972 7.3584,4.40096c-0.35304,2.28739 -1.75832,6.51037 -1.75832,6.51037z" fill="#383838"/><path d="M114.63953,324.53288c-0.27185,1.76141 -4.39151,2.58751 -9.2015,1.84516c-4.81001,-0.74236 -8.4889,-2.77207 -8.21705,-4.53348c0.13394,-0.86791 -0.15474,-5.73696 1.46987,-6.07496c1.67254,-0.34799 5.44315,2.87191 7.88312,3.24848c4.81001,0.74236 8.33744,3.75339 8.06559,5.5148z" fill="#979025"/></g><g stroke="#121312" stroke-width="3.5" stroke-linecap="butt"><path d="M152.44664,325.29654l1.306,-22.06699l16.04292,1.74253c0,0 -1.72485,7.81736 -2.04692,11.27772c-0.15344,1.64852 7.80548,1.85257 7.61031,3.94938c-0.2145,2.30452 -1.36265,6.60453 -1.36265,6.60453z" fill="#383838"/><path d="M170.84727,304.76756c-0.16517,1.77459 -4.22753,2.84753 -9.07354,2.39648c-4.846,-0.45105 -8.64058,-2.25529 -8.4754,-4.02988c0.08139,-0.8744 -0.50031,-5.71719 1.10098,-6.15252c1.64852,-0.44817 5.60637,2.53854 8.06459,2.76735c4.846,0.45105 8.54855,3.24397 8.38338,5.01856z" fill="#979025"/></g><g><path d="M199.38721,176.58613l-54.28765,27.43504" data-paper-data="{&quot;index&quot;:null}" fill="none" stroke="#383838" stroke-width="3.5" stroke-linecap="round"/><g data-paper-data="{&quot;index&quot;:null}" fill="#393839" stroke="#131313" stroke-width="2.5" stroke-linecap="butt"><path d="M199.02218,176.85991c-0.51615,-4.30789 0.66501,-7.99998 2.6382,-8.24651c1.97319,-0.24653 3.99121,3.04583 4.50737,7.35372c0.51615,4.30789 -0.66501,7.99998 -2.6382,8.24651c-1.97319,0.24653 -3.99121,-3.04583 -4.50737,-7.35372z"/><path d="M203.34069,177.12277c-0.51615,-4.30789 0.66501,-7.99998 2.6382,-8.24651c1.97319,-0.24653 3.99121,3.04583 4.50737,7.35372c0.51615,4.30789 -0.66501,7.99997 -2.6382,8.24651c-1.97319,0.24653 -3.99121,-3.04583 -4.50737,-7.35371z"/><path d="M207.26207,176.15833c-0.51615,-4.30789 0.66501,-7.99998 2.6382,-8.24651c1.97319,-0.24653 3.99122,3.04584 4.50737,7.35372c0.51615,4.30789 -0.66501,7.99997 -2.6382,8.24651c-1.97319,0.24653 -3.99121,-3.04583 -4.50737,-7.35372z"/><path d="M198.34393,171.88409c-0.66579,-1.91276 2.04081,-4.64171 6.04538,-6.09526c4.00456,-1.45355 7.79063,-1.08129 8.45643,0.83147c0.66579,1.91276 -2.04083,4.6417 -6.04538,6.09526c-4.00456,1.45355 -7.79063,1.08129 -8.45642,-0.83147z" data-paper-data="{&quot;index&quot;:null}"/></g></g><g stroke="none" stroke-width="0" stroke-linecap="butt"><path d="M99.39379,271.07499v-77.31539h54.11557v77.31539z" fill="#000000"/><path d="M99.31049,262.29276v-8.11178h54.11557v8.11178z" fill="#a17f00"/><g fill="#ca9e00"><path d="M120.94871,262.29079v-13.43514h3.55972v13.43514z"/><path d="M121.68554,262.40388v-7.6048h10.35556v7.6048z"/><path d="M129.20076,259.75585v-11.40718h2.9125v11.40718z"/><path d="M129.56559,258.02759v-3.05389h15.66664l-1.94931,6.56019c0,0 -0.76046,-4.47214 -3.0715,-3.71266c-2.49998,0.82158 -2.79143,2.92091 -4.29254,2.92091c-0.54892,0 -0.41234,-2.17348 -1.26289,-2.52247c-0.8012,-0.32874 -1.08222,2.40806 -1.98558,2.41503c-1.29357,0.00997 -3.10482,-2.60713 -3.10482,-2.60713z"/><path d="M121.09239,260.59424c-0.90336,-0.00696 -1.18438,-2.74376 -1.98558,-2.41503c-0.85055,0.34899 -0.71397,2.52246 -1.26289,2.52246c-1.50111,0 -1.79256,-2.09933 -4.29255,-2.92091c-2.31104,-0.75948 -3.0715,3.71266 -3.0715,3.71266l-1.9493,-6.56019h15.66664v3.05389c0,0 -1.81125,2.61711 -3.10482,2.60713z" data-paper-data="{&quot;index&quot;:null}"/></g><g fill="#ca9e00"><path d="M119.70782,220.16921l0.11076,-21.91813h4.02574l0.11076,21.91813z"/><path d="M120.58696,220.34422v-11.76627h12.35568v11.76627z"/><path d="M129.55372,216.24713v-17.6494h3.47503v17.6494z"/><path d="M129.98899,213.57314v-4.72503h18.69257l-2.3258,10.15004c0,0 -0.90734,-6.91936 -3.66474,-5.74428c-2.98284,1.27115 -3.33059,4.51928 -5.12163,4.51928c-0.65494,0 -0.49198,-3.36285 -1.50681,-3.9028c-0.95594,-0.50862 -1.29124,3.72581 -2.36908,3.73658c-1.54342,0.01543 -3.70451,-4.0338 -3.70451,-4.0338z"/><path d="M119.87925,217.5443c-1.07784,-0.01077 -1.41314,-4.24519 -2.36908,-3.73657c-1.01483,0.53995 -0.85187,3.9028 -1.50681,3.9028c-1.79104,0 -2.13878,-3.24812 -5.12163,-4.51927c-2.7574,-1.17508 -3.66474,5.74428 -3.66474,5.74428l-2.3258,-10.15004h18.69257v4.72502c0,0 -2.16109,4.04923 -3.70451,4.0338z" data-paper-data="{&quot;index&quot;:null}"/></g></g><g stroke="none" stroke-linecap="butt"><path d="M168.56374,151.14461c0,22.08422 -17.96444,39.98703 -40.12469,39.98703c-22.16026,0 -40.12469,-17.9028 -40.12469,-39.98703c0,-22.08422 17.96444,-39.98702 40.12469,-39.98702c22.16026,0 40.12469,17.90279 40.12469,39.98702z" fill="#000000" stroke-width="0"/><path d="M149.54881,143.73961l0.64458,-38.83513l10.31318,-24.02512v62.86025z" fill="#000000" stroke-width="0"/><path d="M95.45046,145.43192v-62.86024l10.31318,24.02512l0.64457,38.83512z" data-paper-data="{&quot;index&quot;:null}" fill="#000000" stroke-width="0"/><path d="M111.519,182.90385l-7.09031,-21.72134h51.24359l-8.37945,20.73401z" fill="#d9b796" stroke-width="0"/><path d="M111.84129,151.80283c0,2.81732 -4.32878,5.10122 -9.6686,5.10122c-5.33982,0 -9.6686,-2.2839 -9.6686,-5.10122c0,-2.81732 4.32878,-5.10122 9.6686,-5.10122c5.33982,0 9.6686,2.2839 9.6686,5.10122z" fill="#ffffff" stroke-width="0"/><path d="M163.13065,152.83692c0,2.81732 -4.32878,5.10122 -9.6686,5.10122c-5.33982,0 -9.6686,-2.2839 -9.6686,-5.10122c0,-2.81732 4.32878,-5.10123 9.6686,-5.10123c5.33982,0 9.6686,2.2839 9.6686,5.10123z" fill="#ffffff" stroke-width="0"/><path d="M143.58871,171.70571c0,1.27647 -1.25,1.27647 -1.25,1.27647h-1.24118c-8.05477,0 -16.04077,0.50699 -24.07895,0.50699c0,0 -1.25,0 -1.25,-1.27647c0,-1.27647 1.25,-1.27647 1.25,-1.27647c8.03765,0 16.02432,-0.50699 24.07895,-0.50699h1.24118c0,0 1.25,0 1.25,1.27647z" fill="#000000" stroke-width="0.5"/><path d="M143.41224,175.72867c-0.46424,-1.18518 0.69636,-1.65925 0.69636,-1.65925l1.07607,-0.42469c1.73066,-1.43017 3.14702,-3.49456 0.90224,-5.45851c-0.51696,-0.45229 -2.43233,0.08774 -3.00658,0.20828c0,0 -1.22573,0.25034 -1.47087,-1.00134c-0.24515,-1.25169 0.98058,-1.50202 0.98058,-1.50202c1.41538,-0.28249 3.63322,-0.74003 4.93699,0.20828c1.66902,1.21396 2.86113,4.75068 1.89704,6.66396c-0.72393,1.43665 -1.80953,2.13773 -2.9807,3.08712l-1.40629,0.58929c0,0 -1.1606,0.47407 -1.62484,-0.71111z" fill="#000000" stroke-width="0.5"/><path d="M118.51682,176.26859c0,1.27647 -1.25,1.27647 -1.25,1.27647l-1.23809,-0.02478c-6.01717,-1.25318 -7.03908,-9.62748 -0.49648,-11.12213c0,0 1.22573,-0.25034 1.47087,1.00134c0.24514,1.25169 -0.98058,1.50202 -0.98058,1.50202c-4.067,0.67403 -2.77793,5.46245 0.49648,6.11541l0.7478,-0.02478c0,0 1.25,0 1.25,1.27647z" fill="#000000" stroke-width="0.5"/><path d="M136.02373,166.27096c-2.48264,2.38579 -5.88291,1.64438 -9.03295,1.11698c0,0 -1.23299,-0.20985 -1.02749,-1.46895c0.2055,-1.2591 1.43849,-1.04925 1.43849,-1.04925c2.02027,0.35026 5.35568,1.29235 6.85419,-0.40398l0.56579,-0.7896c-0.49478,-2.26376 -1.52111,-4.34868 -1.90785,-6.71671c0,0 -0.20549,-1.2591 1.0275,-1.46895c1.23299,-0.20985 1.43849,1.04925 1.43849,1.04925c0.40843,2.5042 1.48298,4.62447 1.97863,7.05732l0.02427,0.50383c0,0 0.00001,0.74284 -0.55493,1.09516z" fill="#000000" stroke-width="0.5"/></g><g><path d="M149.54373,233.60789l-49.49207,-35.6604" fill="none" stroke="#383838" stroke-width="3.5" stroke-linecap="round"/><g fill="#393839" stroke="#131313" stroke-width="2.5" stroke-linecap="butt"><path d="M154.78895,226.72445c1.91231,0.5545 2.52146,4.38848 1.36056,8.56345c-1.1609,4.17496 -3.65223,7.10993 -5.56453,6.55544c-1.91231,-0.5545 -2.52146,-4.38848 -1.36056,-8.56345c1.1609,-4.17496 3.65223,-7.10993 5.56453,-6.55544z"/><path d="M159.09546,227.14518c1.91231,0.5545 2.52146,4.38849 1.36056,8.56345c-1.1609,4.17496 -3.65223,7.10994 -5.56453,6.55545c-1.91231,-0.5545 -2.52146,-4.3885 -1.36056,-8.56347c1.1609,-4.17496 3.65223,-7.10992 5.56453,-6.55544z"/><path d="M162.82414,228.71595c1.91231,0.5545 2.52146,4.38849 1.36056,8.56345c-1.1609,4.17496 -3.65223,7.10993 -5.56453,6.55544c-1.91231,-0.5545 -2.52146,-4.38848 -1.36056,-8.56345c1.1609,-4.17496 3.65223,-7.10992 5.56453,-6.55544z"/><path d="M156.28323,238.60018c3.73697,2.06713 5.99882,5.18988 5.05198,6.97481c-0.94684,1.78494 -4.74381,1.55619 -8.48079,-0.51095c-3.73697,-2.06713 -5.99881,-5.18987 -5.05198,-6.97481c0.94684,-1.78494 4.74382,-1.5562 8.48079,0.51093z" data-paper-data="{&quot;index&quot;:null}"/></g></g><path d="M107.68076,347.43132c0,-0.69036 0.55965,-1.25 1.25,-1.25c0.69035,0 1.25,0.55964 1.25,1.25c0,0.69036 -0.55965,1.25 -1.25,1.25c-0.69035,0 -1.25,-0.55964 -1.25,-1.25z" fill="#9966ff" stroke="none" stroke-width="0.5" stroke-linecap="butt"/><g data-paper-data="{&quot;index&quot;:null}"><path d="M318.51907,-145.955l-30.11911,-52.84571" data-paper-data="{&quot;index&quot;:null}" fill="none" stroke="#000000" stroke-width="3.5" stroke-linecap="round"/><g data-paper-data="{&quot;index&quot;:null}" fill="#500190" stroke="#2c0050" stroke-width="2.5" stroke-linecap="butt"><path d="M280.73519,-194.72775c-1.50914,-1.29489 -0.45572,-5.02543 2.35289,-8.3324c2.80862,-3.30697 6.30884,-4.93806 7.81798,-3.64317c1.50914,1.29489 0.45572,5.02543 -2.35288,8.3324c-2.80862,3.30697 -6.30884,4.93805 -7.81799,3.64317z"/><path d="M284.80726,-200.53584c-2.80861,3.30696 -6.30883,4.93805 -7.81798,3.64316c-1.50914,-1.2949 -0.45572,-5.02543 2.35288,-8.3324c2.80862,-3.30697 6.30884,-4.93806 7.81798,-3.64317c1.50914,1.29489 0.45572,5.02543 -2.35288,8.3324z"/><path d="M274.25208,-199.86169c-1.50914,-1.2949 -0.45572,-5.02543 2.35289,-8.3324c2.8086,-3.30696 6.30884,-4.93806 7.81798,-3.64317c1.50914,1.29489 0.45572,5.02543 -2.35288,8.3324c-2.80862,3.30697 -6.30884,4.93805 -7.81799,3.64317z"/><path d="M291.86566,-202.14532c-1.61111,1.2273 -4.97345,-0.55247 -7.50999,-3.97522c-2.53654,-3.42276 -3.28676,-7.19238 -1.67566,-8.41968c1.61111,-1.22729 4.97346,0.55248 7.51,3.97523c2.53656,3.42276 3.28676,7.19238 1.67565,8.41968z" data-paper-data="{&quot;index&quot;:null}"/></g></g><g data-paper-data="{&quot;index&quot;:null}"><path d="M370.9133,-143.09327l26.91738,-54.74106" fill="none" stroke="#000000" stroke-width="3.5" stroke-linecap="round"/><g fill="#500190" stroke="#2c0050" stroke-width="2.5" stroke-linecap="butt"><path d="M397.70308,-197.39474c-2.98734,-3.13909 -4.25212,-6.80935 -2.82498,-8.19776c1.42713,-1.3884 5.00577,0.0308 7.9931,3.16989c2.98734,3.13909 4.25212,6.80935 2.82498,8.19776c-1.42713,1.3884 -5.00577,-0.0308 -7.9931,-3.16989z"/><path d="M409.29933,-196.62074c-1.42714,1.38839 -5.00576,-0.0308 -7.9931,-3.16989c-2.98734,-3.13909 -4.25212,-6.80936 -2.82499,-8.19777c1.42713,-1.3884 5.00577,0.03081 7.9931,3.16989c2.98733,3.13908 4.25212,6.80935 2.82498,8.19776z"/><path d="M403.85873,-202.92993c-2.98734,-3.13909 -4.25211,-6.80934 -2.82498,-8.19776c1.42713,-1.3884 5.00576,0.0308 7.99309,3.16988c2.98733,3.13908 4.25212,6.80935 2.82498,8.19776c-1.42714,1.38839 -5.00577,-0.0308 -7.9931,-3.16989z"/><path d="M401.43204,-205.40889c-2.32648,3.58127 -5.57017,5.56818 -7.24498,4.4379c-1.67481,-1.13028 -1.14655,-4.94974 1.17993,-8.53101c2.32648,-3.58128 5.57016,-5.5682 7.24498,-4.43793c1.67481,1.13026 1.14655,4.94975 -1.17993,8.53102z" data-paper-data="{&quot;index&quot;:null}"/></g></g><g stroke="none" stroke-linecap="butt"><path d="M318.36076,-153.41941h54.11557l-0.24309,49.05352l-0.01237,0.09898l-0.32281,-0.19269c-17.61403,-0.98052 -35.24679,-1.22759 -52.88645,-1.26115z" fill="#b78000" stroke-width="0"/><path d="M335.25984,-126.7224c-0.56376,-0.60678 0.21225,-1.0476 0.21225,-1.0476l0.10473,-0.05676c3.82966,-2.54414 6.29253,-5.13453 7.54161,-8.62225c-0.81208,0.31223 -1.74867,0.55532 -2.80184,0.72489c-2.39871,0.55898 -8.30139,0.15502 -6.79406,-2.85075c1.46228,-2.91593 6.18147,-5.31429 10.16422,-6.33727c0.02024,-0.06468 0.05298,-0.13316 0.10095,-0.20542c0.44196,-0.66564 1.29324,-0.32006 1.29324,-0.32006l0.33222,0.13736c0.01809,0.00601 0.03616,0.01203 0.0542,0.01805c0.17451,-0.01524 0.68426,-0.02623 0.94619,0.32477c1.76366,0.62498 3.3327,1.30482 4.92482,2.27946c1.28386,0.92571 2.97865,1.80461 3.2099,3.31155c0.29433,1.91795 -2.54225,5.50921 -5.30048,4.8151c1.5159,2.736 3.14705,5.39052 5.43327,7.87308l0.68685,0.49049c0,0 0.705,0.50854 0.05462,1.0598c-0.65037,0.55125 -1.35537,0.04271 -1.35537,0.04271l-0.81946,-0.59608c-3.38833,-3.61951 -5.39999,-7.61746 -7.61991,-11.70339c0,0 -0.16593,-0.3056 -0.01694,-0.59648c-0.03605,0.03623 -0.07286,0.07211 -0.11043,0.10762c-1.09207,4.71552 -3.9368,8.02812 -8.68038,11.18919l-0.22044,0.12796c0,0 -0.776,0.44081 -1.33976,-0.16596zM343.70962,-138.58727c0,0 0.09703,-0.47889 0.62749,-0.60557c0.2994,-0.40569 0.47571,-0.86601 0.53884,-1.38289c-0.19931,-0.75424 -0.65807,-1.64321 -0.2319,-2.06522c-0.01774,-0.06105 -0.03637,-0.1226 -0.05589,-0.18467l0.11354,-0.13861l-0.10272,-0.01273l0.12779,-0.63072c-2.92652,0.6333 -4.68519,1.80518 -7.03479,3.50855c-0.67142,0.48675 -2.65792,1.5913 -2.63863,2.44938c0.01862,0.82811 4.22626,0.62173 4.78099,0.47382c1.7763,-0.28179 3.0444,-0.7361 3.86791,-1.37526c0.00246,-0.01201 0.00491,-0.02403 0.00735,-0.03607zM346.85139,-141.02763c0.26386,1.01147 0.56837,2.01803 1.11946,3.00505c0.26526,0.47508 1.32743,2.09303 2.13702,2.16998c0.75862,0.0721 1.03335,-0.91227 1.27032,-1.25163c1.58124,-2.26445 1.10868,-2.70541 -1.28249,-4.431c-1.15079,-0.70445 -2.28347,-1.23034 -3.5022,-1.69959l-0.07656,0.3779c0.21685,0.64668 0.32682,1.25728 0.33443,1.82929z" fill="#09b800" stroke-width="0.5"/><path d="M318.44966,-153.33053h19.6581c-0.3298,7.19902 0.02504,14.3948 -0.4611,21.70724c-0.56644,8.5203 -0.37401,17.24539 -0.09491,26.03884c-6.36611,-0.08918 -12.73366,-0.12679 -19.10209,-0.1373z" fill="#6900b8" stroke-width="0"/><path d="M354.42751,-131.51217c-0.33117,-7.3211 -1.35352,-14.61934 -1.68331,-21.81835h19.6581c0,0 0,34.03917 0,48.92798l-0.16195,-0.02024l-0.01948,0.15587l-0.32281,-0.19269c-5.59179,-0.31128 -11.18547,-0.54864 -16.78066,-0.72871c0.01145,-8.51956 -0.27785,-17.21492 -0.68989,-26.32386z" data-paper-data="{&quot;index&quot;:null}" fill="#6900b8" stroke-width="0"/><path d="M353.24926,-150.69487l8.88889,-15.77778l7.77778,3.11111c0,0 4.10418,8.05217 3.95115,8.40792c-0.846,1.96668 -20.61782,4.25875 -20.61782,4.25875z" fill="#6900b8" stroke-width="0"/><path d="M317.03121,-155.28696c-0.15303,-0.35575 3.95116,-8.40792 3.95116,-8.40792l7.77778,-3.11111l8.88889,15.77777c0,0 -19.77183,-2.29207 -20.61783,-4.25875z" data-paper-data="{&quot;index&quot;:null}" fill="#6900b8" stroke-width="0"/><path d="M325.13815,-152.91709l14.77778,-0.44445l-1.25251,47.79319c-2.01676,-0.03018 -4.03366,-0.05505 -6.0507,-0.07537z" fill="#510191" stroke-width="0"/><path d="M351.58259,-153.25042l14.77778,0.44445l-7.74663,47.7378c-1.99052,-0.07282 -3.98124,-0.13795 -5.97214,-0.19613z" data-paper-data="{&quot;index&quot;:null}" fill="#510090" stroke-width="0"/><path d="M325.74007,-140.97266c0.0758,-0.33399 0.37449,-0.58332 0.73141,-0.58332c0.00349,0 0.00697,0.00002 0.01045,0.00007l-0.07903,-0.43468c-0.00967,-0.04807 -0.01475,-0.0978 -0.01475,-0.14872c0,-0.41422 0.33578,-0.75 0.75,-0.75c0.1178,0 0.22927,0.02716 0.32847,0.07556l0.0372,-0.2976c0.04137,-0.37508 0.35933,-0.66685 0.74544,-0.66685c0.22956,0 0.43505,0.10314 0.57262,0.26561l0.66349,0.77408l-0.18901,0.16201c0.14286,0.17427 0.2715,0.35183 0.3895,0.53383l0.03852,-0.38524c0.03359,-0.38313 0.35526,-0.68362 0.7471,-0.68362c0.41422,0 0.75,0.33578 0.75,0.75v0.35602c0.03366,0.03334 0.06418,0.06984 0.09107,0.10903c0.11169,-0.06604 0.242,-0.10394 0.38116,-0.10394c0.3861,0 0.70407,0.29176 0.74544,0.66684l0.10987,0.87902l-0.28139,0.03518c0.00063,0.0128 0.00117,0.02552 0.00162,0.0382l0.6904,-0.15342c0.05721,-0.01397 0.11698,-0.02137 0.17849,-0.02137c0.41422,0 0.75,0.33578 0.75,0.75c0,0.02318 -0.00105,0.04611 -0.00311,0.06876l0.84877,0.33951c0.28485,0.10636 0.48768,0.38091 0.48768,0.70284c0,0.38198 -0.28556,0.69727 -0.65485,0.74402l-0.76686,0.10955c-0.27159,0.03879 -0.52943,0.07377 -0.77737,0.10415c0.12688,0.14571 0.23728,0.28881 0.34024,0.44779l0.12945,-0.10788l0.55241,0.66288c0.11042,0.13062 0.17698,0.2995 0.17698,0.48392c0,0.14995 -0.044,0.28961 -0.1198,0.40679c0.51858,1.03167 0.66881,2.09731 -0.0277,2.40435c-0.4326,0.19071 -1.06097,-0.30847 -1.66021,-1.00285c0.04492,0.25096 0.08758,0.50237 0.13362,0.75311l-0.00649,0.03166l0.01019,-0.00102l0.11011,1.10108c0.00312,0.02779 0.00473,0.05604 0.00473,0.08466c0,0.41422 -0.33578,0.75 -0.75,0.75c-0.27799,0 -0.52065,-0.15123 -0.65019,-0.37591l-0.65959,-1.09932l0.17168,-0.10301c-0.27084,-0.36918 -0.50878,-0.74574 -0.72625,-1.13869l-0.07662,0.26816c-0.08416,0.32216 -0.37716,0.5599 -0.7257,0.5599c-0.23037,0 -0.43649,-0.10387 -0.57407,-0.26732c-0.91381,1.13322 -2.13227,2.22238 -2.60149,2.64977l-0.0195,0.00696l0.00457,0.00558l-0.66369,0.54313c-0.12995,0.10803 -0.29697,0.173 -0.47916,0.173c-0.41422,0 -0.75,-0.33578 -0.75,-0.75c0,-0.11427 0.02555,-0.22257 0.07126,-0.3195l0.43782,-0.9851l0.04131,0.01835c0.08723,-0.5363 0.18755,-1.06744 0.30427,-1.59422l-1.08909,0.54454c-0.10422,0.05487 -0.22293,0.08593 -0.3489,0.08593c-0.41422,0 -0.75,-0.33578 -0.75,-0.75c0,-0.16573 0.05375,-0.3189 0.14477,-0.44303l0.55048,-0.77067l0.21885,0.15632c0.45515,-0.66623 1.00886,-1.12394 1.65671,-1.61432c-0.12336,-0.12692 -0.24386,-0.25925 -0.3608,-0.39494c-0.17494,0.00277 -0.34854,0.01278 -0.51795,0.03698l-0.05317,-0.02222v0.0241h-0.88889c-0.41422,0 -0.75,-0.33578 -0.75,-0.75c0,-0.3893 0.29661,-0.70933 0.67617,-0.74641l0.09626,-0.01069l-0.26211,-0.31453c-0.11042,-0.13062 -0.17699,-0.2995 -0.17699,-0.48392c0,-0.11973 0.02806,-0.23292 0.07796,-0.33333c-0.0499,-0.10041 -0.07796,-0.2136 -0.07796,-0.33334c0,-0.41422 0.33578,-0.75 0.75,-0.75c0.16573,0 0.31889,0.05375 0.44303,0.14477l0.72087,0.51491c0.0837,0.03529 0.18986,0.07885 0.31336,0.12993c0.05471,-0.03599 0.11442,-0.06501 0.17786,-0.0858zM325.02669,-134.15835l-0.00834,0.00163l0.00552,0.01105c0.00094,-0.00423 0.00188,-0.00845 0.00282,-0.01269zM326.8116,-134.32685c0.048,-0.06525 0.09563,-0.13066 0.14297,-0.19621c-0.02879,-0.00725 -0.05692,-0.01615 -0.08427,-0.02661c-0.01927,0.07462 -0.03883,0.14896 -0.0587,0.22282z" fill="#a455b8" stroke-width="0.5"/><path d="M324.38815,-138.80598c0,-0.75 0.75,-0.75 0.75,-0.75h0.22222c0.27238,0 0.80228,-0.03215 1.35529,-0.03301c0.00401,-0.18941 0.00727,-0.38972 0.0077,-0.6035l0.02643,-0.04993l-0.02078,-0.00297l0.10956,-0.76686c0.04676,-0.36929 0.36204,-0.65485 0.74402,-0.65485c0.3277,0 0.60631,0.21016 0.70839,0.50305l0.00945,0.0252c0.1332,-0.12111 0.31017,-0.19492 0.50438,-0.19492c0.00331,0 0.00662,0.00002 0.00993,0.00006c0.32526,-0.12528 0.71801,-0.04465 1.19504,0.35572c0.11418,0.09583 0.21287,0.1926 0.29731,0.28947c0.13619,-0.18893 0.35814,-0.31192 0.60883,-0.31192c0.41422,0 0.75,0.33578 0.75,0.75c0,0.03171 -0.00197,0.06297 -0.00579,0.09365l-0.10991,0.98917l-0.06221,-0.00691c-0.00421,0.10319 -0.01708,0.20592 -0.0411,0.30801c0.68698,0.08404 1.2899,0.35186 1.39519,0.80177c0.23785,1.01637 -0.01291,1.45873 -0.40184,1.58234c0.14853,0.05219 0.29669,0.11294 0.44457,0.18305l0.14428,-0.28857l0.87436,0.43717c0.25369,0.12026 0.42912,0.37869 0.42912,0.67809c0,0.41422 -0.33578,0.75 -0.75,0.75h-0.77778v-0.0384l-0.09164,0.03278c-0.43764,-0.11162 -1.01374,-0.21433 -1.51053,-0.43342c-0.13502,0.19797 -0.36236,0.32793 -0.62006,0.32793c-0.28758,0 -0.53737,-0.16186 -0.66321,-0.39946c-1.43228,0.20798 -2.75002,0.76036 -4.16769,1.04693l-0.85976,0.21494c-0.06314,0.01726 -0.1296,0.02647 -0.19822,0.02647c-0.41422,0 -0.75,-0.33578 -0.75,-0.75c0,-0.24849 0.12085,-0.46876 0.30698,-0.60523l0.8819,-0.66143l0.14159,0.18879c0.23368,-0.20562 0.47228,-0.39142 0.71947,-0.5688c-0.10086,-0.12772 -0.16106,-0.28905 -0.16106,-0.46443c0,-0.15759 0.04861,-0.30384 0.13165,-0.42455l0.28483,-0.42724l-0.27519,-0.17199c-0.08375,-0.05045 -0.15682,-0.1168 -0.21506,-0.19488c-0.17518,-0.0158 -0.31929,-0.03133 -0.39845,-0.03133h-0.22222c0,0 -0.75,0 -0.75,-0.75z" fill="#af5ac4" stroke-width="0.5"/><path d="M331.04972,-137.39943c-0.15227,0.3553 -0.40918,0.449 -0.62242,0.45637c-0.11003,0.16334 -0.28263,0.28102 -0.48346,0.31866c-0.01709,0.19311 -0.03776,0.38588 -0.06149,0.57811c0,0 -0.09303,0.74421 -0.83724,0.65118c-0.56259,-0.07032 -0.64672,-0.51277 -0.65428,-0.72454c-0.20556,-0.09084 -0.36264,-0.27132 -0.42169,-0.49189h-0.60879c-0.41422,0 -0.75,-0.33578 -0.75,-0.75c0,-0.28397 0.15782,-0.53108 0.39053,-0.65841l0.76514,-0.43722l0.18934,0.33134c0.01298,-0.00647 0.02589,-0.01286 0.03875,-0.01915l0.06525,-0.52194c0.00707,-0.06414 0.02224,-0.12584 0.04444,-0.18407l-0.13364,-0.53457c-0.01726,-0.06314 -0.02648,-0.1296 -0.02648,-0.19822c0,-0.41422 0.33578,-0.75 0.75,-0.75c0.20711,0 0.39461,0.08394 0.53033,0.21967l0.66667,0.66666l-0.01899,0.01899l0.06867,0.03585c0.11705,0.30871 0.38175,0.61665 0.51085,0.92529l0.20459,0.08307c0,0 0.68935,0.29543 0.39391,0.98479z" fill="#be62d5" stroke-width="0.5"/></g><g stroke="#000000" stroke-width="0.5" stroke-linecap="butt"><path d="M345.76441,-246.68809c22.16025,0 40.12469,17.9028 40.12469,39.98702c0,22.08423 -17.96443,39.98703 -40.12469,39.98703c-22.16025,0 -40.12469,-17.90281 -40.12469,-39.98703c0,-22.08423 17.96443,-39.98702 40.12469,-39.98702z" fill="#e0e0e0"/><path d="M308.65943,-192.09798c0.20009,0.42087 0.38824,0.84795 0.56197,1.28249c0.06304,0.15769 1.18343,3.78475 1.10522,4.11729c-0.02526,0.10742 -0.05451,0.21341 -0.08722,0.31815l0.05852,0.01171l-0.39455,1.97275c-0.12592,0.70109 -0.739,1.23308 -1.47632,1.23308c-0.63081,0 -1.17066,-0.38938 -1.39234,-0.9409l-0.58638,-1.36822l0.05547,-0.02377l-0.10924,-0.12219c-0.33486,-1.64479 -0.53478,-3.28887 -0.63684,-4.93312c-1.0511,0.14841 -1.50939,-0.92092 -1.50939,-0.92092c-0.16825,-0.396 -0.35078,-0.78489 -0.54433,-1.1683c-0.14983,0.05021 -0.31021,0.07742 -0.47695,0.07742c-0.69036,0 -1.27179,-0.46637 -1.44642,-1.10126l-0.59032,-1.96772l0.011,-0.0033l-0.02062,-0.0302c-0.19881,-0.79671 -0.38694,-1.48993 -0.55582,-2.12975c-0.39162,-0.64209 -0.76995,-1.29071 -1.11741,-1.95455c-4.04649,-7.73106 -7.04963,-18.1317 -5.96882,-26.89927l0.2,-1.6l0.45459,0.05683l0.54702,-1.28959c0.3827,0.25512 0.79118,0.4805 1.19914,0.70648l0.34833,-0.34833l1.6,1.6l-0.02923,0.02923c0.0888,0.08356 0.17441,0.17078 0.25635,0.26224c0.55124,0.6153 0.52511,1.56703 0.75544,2.36038c0.01072,0.03691 0.02147,0.0738 0.03227,0.11067c0.33368,0.01654 0.63867,0.14212 0.88007,0.34184c0.1307,-0.45409 0.26572,-0.92278 0.39072,-1.41341c1.33752,-5.25022 3.76925,-9.77788 5.91255,-14.70204l0.06602,-0.05692l-0.0272,-0.01554l0.78555,-1.37472c0.18925,-0.34589 0.5108,-0.60905 0.8966,-0.72142c0.08333,-0.18362 0.16328,-0.36491 0.23852,-0.54357c1.92605,-4.57366 3.8079,-9.11279 6.22568,-13.45995l0.56367,-1.31525c0.22167,-0.55151 0.76153,-0.94089 1.39234,-0.94089c0.48134,0 0.90972,0.22671 1.18419,0.57918c1.25099,-3.4499 10.55679,-13.82665 10.55679,-13.82665c0,0 1.91899,9.09772 2.265,10.61424c0.32036,-1.22663 0.92297,-2.39191 1.46824,-3.66562c1.79649,-4.1965 7.92578,-14.70115 7.92578,-14.70115c0,0 1.87062,9.37052 1.89799,11.99661c1.58976,-4.07234 8.14583,-14.33836 8.14583,-14.33836l4.61453,20.77094l4.94164,-11.82918l0.43574,7.44558c1.69427,6.63569 -0.08434,6.12164 1.32617,12.90881c0.05779,0.27806 0.59409,1.74539 0.98755,3.21172c0.13151,-1.31271 0.37478,-4.26226 1.51979,-4.46907c4.1641,-0.75211 6.52209,6.96115 7.70891,9.61079c1.57796,3.83227 2.88412,7.77747 4.51495,11.58723c0.43706,1.02102 1.46139,2.52295 2.0089,3.96385c-0.0005,-0.053 -0.00113,-0.10598 -0.00201,-0.15892c-0.02844,-1.71324 0.08452,-3.42714 0.20621,-5.13629l0.01313,-0.02823l-0.01016,-0.00113l0.198,-1.78202c0.07418,-0.75912 0.71422,-1.35234 1.49283,-1.35234c0.6236,0 1.15833,0.38055 1.38462,0.92209l0.78609,1.76871l-0.38981,0.17325c3.69871,6.51773 4.07762,15.88302 5.48597,22.92222l0.39039,1.75676c0.02793,0.11441 0.04274,0.23396 0.04274,0.35698c0,0.82843 -0.67158,1.5 -1.5,1.5c-0.25194,0 -0.48937,-0.06211 -0.69781,-0.17185l-0.90599,-0.453c-0.41551,0.83413 0.05752,4.07732 0.09154,4.33352c0.67042,5.04735 1.46949,10.08506 2.18926,15.1278l0.3878,1.93899c0.02305,0.10451 0.0352,0.21311 0.0352,0.32455c0,0.82843 -0.67158,1.5 -1.5,1.5c-0.45913,0 -0.87008,-0.20628 -1.14523,-0.53122l-0.61753,-0.72045c-0.27038,0.39357 -0.72367,0.65167 -1.23724,0.65167c-0.7529,0 -1.37624,-0.55471 -1.48364,-1.27773l-0.39594,-2.37568l0.00652,-0.00109c-0.00376,-0.00971 -0.00751,-0.01942 -0.01125,-0.02914c-0.62794,-1.63404 -0.22564,-3.43066 -1.19871,-5.0393c-1.95512,-3.23209 -3.23113,-6.48168 -3.939,-10.30749c-1.19252,-6.44523 -1.78915,-13.44837 -4.08265,-19.75528c-2.90173,-1.66971 -5.58801,-3.68862 -8.8436,-4.91809c-4.46798,-1.68734 -9.36881,-3.14193 -14.37639,-4.22686c-3.66542,0.98771 -7.50051,1.42929 -11.2896,1.91911c-5.1519,0.666 -10.27558,1.55785 -15.40643,2.3888c-1.31108,2.31721 -2.90128,4.48161 -4.25469,7.02658c-2.28178,4.29071 -3.23455,9.28377 -3.22462,14.09617v1.6c0,0.82843 -0.67158,1.5 -1.5,1.5c-0.7529,0 -1.37624,-0.55471 -1.48364,-1.27773l-0.39594,-2.37568l0.26865,-0.04477c-0.24572,-0.63956 -0.46382,-1.27605 -0.6626,-1.91735c-0.18046,1.18037 -0.3744,2.26131 -0.43057,3.02652c-0.39226,5.34409 -1.22681,10.71574 -1.06351,16.05354zM297.11104,-217.43751c0.00034,0.01866 0.0007,0.03732 0.00108,0.05599c0.00503,-0.00273 0.01008,-0.00543 0.01515,-0.00811c-0.00543,-0.01596 -0.01084,-0.03193 -0.01623,-0.04789zM384.05243,-185.58047c0.01807,0.00389 0.03614,0.00778 0.05421,0.01168c-0.00613,-0.03697 -0.01229,-0.07395 -0.01847,-0.11096c-0.01137,0.03317 -0.02328,0.06627 -0.03574,0.09929z" fill="#00cc24"/><path d="M336.19371,-211.19585c0,5.01658 -3.38511,8.91667 -9,8.91667c-5.61489,0 -10.16667,-4.06675 -10.16667,-9.08333c0,-1.65747 0.71965,-9.93399 3.6922,-10.49621c6.02434,-1.13943 15.47447,7.30376 15.47447,10.66287z" fill="#dca922"/><path d="M355.83484,-222.39206c2.97256,0.56222 3.6922,8.83873 3.6922,10.4962c0,5.01658 -4.55178,9.08334 -10.16667,9.08334c-5.61489,0 -9,-3.90008 -9,-8.91667c0,-3.35912 9.45013,-11.8023 15.47447,-10.66287z" data-paper-data="{&quot;index&quot;:null}" fill="#dca922"/><path d="M304.9735,-232.40054l5.43041,-0.5624l15.43697,10.87677l-9.07347,-12.67223l3.28832,0.1467l14.69153,20.12054z" fill="#000000"/><path d="M341.30683,-214.5245l14.69153,-20.12054l3.28832,-0.1467l-9.07347,12.67224l15.43697,-10.87677l5.43041,0.5624z" data-paper-data="{&quot;index&quot;:null}" fill="#000000"/></g><g fill="#6a5210" stroke="none" stroke-width="0" stroke-linecap="butt"><path d="M328.58232,-209.45997c0,3.58985 -2.05203,6.5 -4.58334,6.5c-2.5313,0 -4.58333,-2.91015 -4.58333,-6.5c0,-3.58985 2.05203,-6.5 4.58333,-6.5c2.5313,0 4.58334,2.91015 4.58334,6.5z"/><path d="M350.91567,-208.7933c0,3.58985 -2.05203,6.5 -4.58333,6.5c-2.5313,0 -4.58333,-2.91015 -4.58333,-6.5c0,-3.58985 2.05203,-6.5 4.58333,-6.5c2.5313,0 4.58333,2.91015 4.58333,6.5z"/></g><path d="M319.41749,-189.13628c0,0 -2.0429,-0.94288 -1.10002,-2.98579c0.94288,-2.04291 2.98579,-1.10002 2.98579,-1.10002c3.58013,1.65426 7.04126,3.38633 10.63847,4.98722c1.22953,0.54719 2.87309,1.37433 4.41616,1.69298c1.15114,-0.25639 2.48005,-0.31615 3.78706,-0.30898c3.07944,-0.86544 6.02963,-2.69713 9.18835,-3.21593c3.81324,-0.6263 7.86799,-0.20701 10.91051,-2.79391l0.18009,-0.0429l-0.03057,-0.05241l1.96677,-1.14728c0.34024,-0.20679 0.73969,-0.32588 1.16694,-0.32588c1.24264,0 2.25,1.00736 2.25,2.25c0,0.21843 -0.03112,0.42959 -0.08918,0.62929l-0.65346,2.45045l-0.07432,-0.01982c-0.02609,0.15592 -0.0581,0.31111 -0.09692,0.46542c-0.60671,2.41181 -4.26527,4.20726 -6.1447,5.38332c-0.37021,0.23166 -0.74415,0.45734 -1.12153,0.67734c0.00888,0.08122 0.01344,0.16374 0.01344,0.24732c0,1.15256 -0.8666,2.1027 -1.98374,2.23441l-2.46889,0.32918l-0.00905,-0.06787l-0.1393,0.08267c-0.14216,0.00024 -0.28447,0.00042 -0.42689,0.00054c-0.53331,0.28776 -1.20593,0.36554 -1.83608,0.48793c-2.58351,1.04477 -5.23826,1.93483 -7.89102,2.7503c-1.62907,0.50079 -3.15354,1.56957 -4.85764,1.5953c-2.98334,0.04504 -3.81889,-0.95926 -6.0179,-2.35131c-3.76873,-2.38574 -6.89578,-4.92953 -10.17554,-7.93597l-0.02002,-0.04911l-0.01491,0.01492l-1.66667,-1.66666c-0.40717,-0.40717 -0.65901,-0.96967 -0.65901,-1.59099c0,-0.19948 0.02596,-0.39289 0.07468,-0.57704c-0.0337,-0.01567 -0.06734,-0.03125 -0.1009,-0.04672zM335.57383,-180.77142c-0.32306,-0.05304 -0.64546,-0.10885 -0.9671,-0.16755c0.28184,0.19717 0.59661,0.43985 0.93257,0.67289z" fill="#ffffff" stroke="none" stroke-width="0.5" stroke-linecap="butt"/><path d="M313.39371,-197.47918l21.83333,8.33333l36.16667,-9.5c0,0 -5.13849,13.2879 -10.93057,18.32186c-4.47609,3.89021 -20.90276,9.34482 -20.90276,9.34482c0,0 -12.33039,-5.74861 -16.18312,-9.65043c-4.69997,-4.75984 -9.98355,-16.84957 -9.98355,-16.84957zM335.22704,-184.56252c-0.45179,0.11294 -15.18587,-8.06436 -15.53001,-7.87252c-1.06852,0.59562 3.09763,6.10839 8.67863,10.43062c3.47753,2.69319 8.93179,4.72023 9.64305,5.43149c3.772,3.772 31.63095,-13.21726 23.875,-15.15625z" fill="#8a0000" stroke="none" stroke-width="0" stroke-linecap="butt"/><path d="M339.80283,-194.32621c0.54885,1.25861 -0.54885,1.88791 -0.54885,1.88791l-0.7239,0.32531c-2.4769,0.3501 -4.88714,0.2784 -7.36775,0.75108c-1.94717,0.16765 -4.22812,0.59772 -5.85887,-1.08194c-2.68751,-2.76812 -3.84927,-8.09141 0.1502,-10.04915c2.32671,-1.13892 5.57761,-1.08085 8.04055,-0.66204c0.7593,0.12912 1.53049,0.91421 2.24442,0.59085c0.2204,-0.09983 1.1321,-5.03011 1.28497,-5.7333c0,0 0.29766,-1.36515 1.48829,-1.02387c1.19063,0.34129 0.89297,1.70644 0.89297,1.70644c-0.37291,1.70562 -0.92226,6.48448 -2.31502,7.40025c-1.28556,0.84528 -2.71784,0.05892 -3.97374,-0.15964c-1.84383,-0.32088 -3.49671,-0.14768 -5.33099,0.18422c-0.58954,0.10667 -2.43014,0.42851 -2.63385,1.46465c-0.14058,0.71502 0.66245,2.23095 0.86288,2.61984c1.27936,2.48233 2.49982,2.16315 4.85203,1.94991c2.47517,-0.4744 4.89258,-0.39086 7.35948,-0.74991l-0.06936,-0.04993c0,0 1.0977,-0.62931 1.64655,0.6293z" fill="#878787" stroke="none" stroke-width="0.5" stroke-linecap="butt"/></g></g></svg>