<svg version="1.1" xmlns="http://www.w3.org/2000/svg" xmlns:xlink="http://www.w3.org/1999/xlink" width="488.16667" height="368.16667" viewBox="0,0,488.16667,368.16667"><g transform="translate(4.08334,4.08334)"><g data-paper-data="{&quot;isPaintingLayer&quot;:true}" stroke-linecap="butt" stroke-linejoin="miter" stroke-miterlimit="10" stroke-dasharray="" stroke-dashoffset="0" style="mix-blend-mode: normal"><path d="M-0.33334,360.33332v-360.66666h480.66667v360.66667z" fill="#ffffff" fill-rule="nonzero" stroke="#ffffff" stroke-width="7.5"/><g fill-rule="evenodd" stroke="none" stroke-width="1"><g><path d="M343.6132,293.20903c-55.54918,1.14551 -95.34977,-25.19754 -113.38904,-60.13055c-22.04787,-42.95024 -11.16688,-126.84661 43.80955,-133.71866c0.28621,-4.86758 2.57689,-25.19752 5.72654,-38.94162l18.03925,-7.73102c10.02171,9.73549 13.74412,32.64233 -3.14964,52.39953c6.58551,2.5769 15.17582,14.60307 12.02583,28.34717c-6.01275,25.77029 -14.03031,48.39059 -2.00414,75.59259c9.73549,21.76134 37.50992,32.92854 54.11746,51.54023c20.32961,22.62063 6.58551,31.78338 -15.17582,32.64234z" fill="#272525"/><path d="M290.3547,57.55476c5.72687,3.4362 12.31239,11.45343 11.73964,18.03927c-1.43139,1.71793 -15.46203,30.92439 -10.59412,33.50129c12.31238,6.29929 -6.01309,54.11746 0.85896,84.75533c9.44895,42.37748 46.0999,51.82677 60.70297,75.87879c8.01756,13.17168 -6.58552,16.60753 -10.88067,16.60753c-66.71606,-1.14518 -93.34529,-37.2237 -104.2263,-59.55779c-14.31652,-29.20614 -5.44033,-65.28432 6.87205,-93.63183c2.57724,-5.72654 9.16275,-16.32101 13.74411,-20.61616c7.4448,-6.29929 9.16272,-6.87205 18.89822,-7.73102c1.43173,-0.28621 12.88514,-47.24541 12.88514,-47.24541z" fill="#fff63b"/><path d="M278.90129,114.82186c0.57275,-2.00414 3.43619,-1.14517 2.86344,0.57276c-17.46651,58.12607 -10.0217,112.81628 29.7789,141.44967c8.30378,6.01309 24.91097,13.17168 28.63338,14.6034c4.00894,1.43139 0.85896,3.72207 -2.86311,2.57689c-3.4362,-1.14551 -6.29963,-2.29067 -11.45341,-4.58136c-42.95058,-19.47098 -79.02878,-51.25403 -46.9592,-154.62137z" fill="#272525"/></g><g><path d="M288.80687,116.29746c5.72654,4.29482 9.73549,18.89825 1.71793,30.92408c-14.88928,22.33442 -30.35167,40.94611 -28.91994,70.4388c1.14551,23.47927 23.19339,43.23645 32.35613,66.1433c10.88067,28.06096 -5.44066,32.06959 -26.34302,25.19754c-52.39953,-17.17997 -80.46018,-54.97643 -85.04154,-93.63152c-5.44033,-47.53196 34.64648,-122.55177 89.05014,-111.09835c3.14965,-6.87205 22.90685,-45.24093 28.91994,-44.38197c16.60755,2.29069 25.19753,41.23231 -11.73963,56.40814z" fill="#272525"/><path d="M301.97821,70.19723c6.29929,2.86344 10.88067,9.16275 4.58138,20.90271c-4.00861,7.4448 -25.7703,24.05202 -22.04789,28.06096c9.44928,10.02171 -24.91099,48.96333 -29.49235,79.8874c-6.01309,42.95024 24.91098,63.85296 30.0651,91.05462c2.86344,14.88962 -12.02618,13.45789 -16.03479,12.02617c-62.13469,-22.90685 -74.44739,-65.57088 -76.73808,-90.19566c-2.86311,-32.35579 18.03925,-62.99363 39.80092,-85.90048c4.29482,-4.58136 14.31653,-12.59893 20.32962,-14.88962c9.16274,-3.72241 8.87652,-9.44896 18.32547,-6.87205c1.43173,0.57275 31.21062,-34.07406 31.21062,-34.07406z" fill="#fff63b"/><path d="M270.7676,120.59229c1.43173,-1.71793 3.72242,-0.00002 2.57724,1.43171c-37.2237,48.96333 -49.53608,102.50837 -22.62063,142.88139c5.72654,8.59032 18.61167,20.61616 21.76133,22.90685c3.14999,2.57724 -1.71792,6.29964 -4.58136,4.00895c-2.86311,-2.29069 -7.15827,-5.44034 -10.88067,-9.16274c-33.50131,-32.92855 -53.25849,-75.59259 13.7441,-162.06616z" fill="#272525"/></g><g><path d="M263.72547,93.9195c2.00448,6.87205 -2.00415,20.04341 -14.03032,26.62925c-24.05236,13.45789 -43.23681,24.62478 -56.40815,51.54023c-10.30825,21.47546 -4.29515,46.67298 -7.4448,71.01121c-4.00861,29.7789 -27.77442,22.62063 -42.95024,7.15859c-38.08267,-38.65543 -36.93716,-81.31945 -21.76167,-117.39764c18.61202,-44.38197 90.76842,-92.77254 133.14623,-58.12607c6.01309,-4.58136 42.09129,-29.77891 47.24541,-26.34304c13.45756,9.44928 0.85897,47.81817 -37.79646,45.52748z" fill="#272525"/><path d="M297.51296,58.41405c1.43173,6.29929 -0.57243,16.32101 -6.2993,20.61616c-5.15412,3.72207 -22.62028,10.88067 -32.64232,11.73964c3.4362,13.17134 -46.38612,35.21922 -65.57055,60.41675c-26.34303,34.93301 -9.44927,67.57536 -18.32547,93.91806c-4.86791,14.31686 -17.18031,6.58586 -20.04375,3.14965c-43.523,-48.10438 -33.5013,-91.62737 -23.47926,-114.24767c13.17134,-29.7789 46.95886,-47.53195 77.02396,-57.83987c6.01309,-2.00448 18.89825,-4.58136 25.19754,-4.00861c10.02204,0.85896 11.73997,2.00414 18.61202,8.30343c1.43173,1.14551 44.38195,-27.4882 45.52713,-22.04754z" fill="#fff63b"/><path d="M245.11376,88.76537c2.00414,-0.85896 3.14966,1.71825 1.71794,2.29067c-56.69435,26.34303 -94.20426,68.14812 -89.90944,115.96595c0.85896,10.02171 6.29963,26.34303 8.01756,30.06544c1.71793,3.72207 -2.57722,3.14965 -3.7224,-0.28655c-1.43173,-3.43587 -2.5769,-6.01308 -4.00863,-11.16687c-13.7441,-43.80954 -13.45789,-90.76841 87.90497,-136.86864z" fill="#272525"/></g></g></g></g></svg>