<svg version="1.1" xmlns="http://www.w3.org/2000/svg" xmlns:xlink="http://www.w3.org/1999/xlink" width="488.16667" height="368.16667" viewBox="0,0,488.16667,368.16667"><g transform="translate(4.08333,4.08333)"><g data-paper-data="{&quot;isPaintingLayer&quot;:true}" fill-rule="nonzero" stroke-linecap="butt" stroke-linejoin="miter" stroke-miterlimit="10" stroke-dasharray="" stroke-dashoffset="0" style="mix-blend-mode: normal"><path d="M-0.33333,360.33333v-360.66666h480.66667v360.66667z" fill="#ffffff" stroke="#ffffff" stroke-width="7.5"/><path d="M129.01565,360.17362v-107h39v107z" fill="#00fbc1" stroke="none" stroke-width="0"/><g><path d="M229.89924,220.81365c-8.45672,41.95832 -46.84201,69.61743 -85.73597,61.77834c-38.89395,-7.83909 -63.56821,-48.20787 -55.11149,-90.1662c8.45672,-41.95832 46.84203,-69.61742 85.73598,-61.77833c38.89395,7.83909 63.56821,48.20788 55.11149,90.1662z" fill="#000000" stroke="#ffffff" stroke-width="0"/><path d="M245.65457,124.01845c-5.5105,27.34059 -38.50548,43.75471 -73.69633,36.66198c-35.19085,-7.09273 -59.25152,-35.00645 -53.74102,-62.34704c5.5105,-27.34059 38.50547,-43.75471 73.69633,-36.66198c35.19086,7.09273 59.25153,35.00645 53.74102,62.34704z" fill="#ff0000" stroke="#ffffff" stroke-width="0"/><path d="M104.56114,159.08871c-0.27006,-2.48537 2.21531,-2.75543 2.21531,-2.75543l0.41378,0.23722c2.44931,-1.60658 5.20024,-2.98124 8.10938,-4.11771c0.43743,-8.04421 1.24577,-16.14382 2.4595,-23.99408c0.13458,-0.87042 2.09139,-10.45593 2.37253,-10.82327c1.15158,-1.50469 3.25711,-3.17508 5.05958,-2.59088c2.08676,0.67633 2.38529,3.68713 3.71223,5.4339c3.7533,4.94077 7.28379,9.96224 10.7394,15.16243c1.36171,2.04918 2.49524,4.26805 4.07498,6.15426c2.42618,2.89684 5.5801,4.16144 4.12022,9.33183c-1.23117,4.36038 -7.38507,3.07756 -9.91685,2.88996c-5.6037,-0.41521 -11.88954,0.23303 -17.69473,1.98271c-0.14154,2.35781 -0.24417,4.72135 -0.29247,7.09567c-0.03139,1.54243 -0.22219,3.09758 -0.02869,4.62815c0.19712,1.55922 1.12947,2.99167 1.19054,4.56212c0.05926,1.52381 -0.55883,2.99828 -0.83823,4.49742c0,0 -0.49394,2.45072 -2.94466,1.95677c-2.45072,-0.49394 -1.95678,-2.94466 -1.95678,-2.94466c0.98859,-4.45413 -0.49076,-8.117 -0.4214,-12.78721c0.02508,-1.68853 0.06625,-3.38564 0.12386,-5.0884c-1.80878,0.81316 -3.52369,1.75115 -5.10108,2.81539l-2.64096,0.56915c0,0 -2.48537,0.27006 -2.75543,-2.21531z" fill="#000000" stroke="none" stroke-width="0.5"/><path d="M305.89284,169.31304c-2.18238,10.82795 -32.47937,13.85595 -67.67022,6.76322c-35.19085,-7.09273 -61.94951,-21.62032 -59.76713,-32.44827c2.18238,-10.82795 32.47937,-13.85595 67.67022,-6.76322c35.19085,7.09273 61.94951,21.62032 59.76713,32.44827z" fill="#ff0000" stroke="#ffffff" stroke-width="0"/><path d="M213.10751,250.07276c-2.45072,-0.49395 -1.95677,-2.94466 -1.95677,-2.94466l0.39515,-1.96057c0.32313,-1.49034 0.32613,-3.08833 0.96936,-4.47099c0.62877,-1.35162 2.1044,-2.18275 2.75088,-3.52599c0.52144,-1.08344 0.34565,-2.38517 0.65347,-3.54751c1.30005,-4.90893 3.59097,-9.40215 4.86375,-14.29857c-1.16735,-0.76018 -2.32376,-1.52308 -3.45182,-2.30116c-6.40911,-4.42069 -12.68101,-9.06963 -18.8782,-13.78341c-4.86849,-3.70314 -9.84427,-7.24925 -14.73374,-10.92419c-4.11223,-3.09075 -7.19515,-5.78162 -11.974,-7.75508c0,0 -2.30625,-0.96499 -1.34128,-3.27123c0.96498,-2.30625 3.27123,-1.34128 3.27123,-1.34128c5.15365,2.18112 8.60964,5.03468 13.04814,8.37068c4.89712,3.68069 9.88069,7.23244 14.75672,10.94155c7.37722,5.61173 14.89117,11.02132 22.5169,16.28635c0.04727,0.00754 0.09533,0.01621 0.14415,0.02605c0.98374,0.19827 1.493,0.71184 1.75021,1.25563c3.06893,2.03064 6.29625,3.99787 9.1066,6.31273c2.53311,2.08648 4.98537,4.28398 7.66368,6.18047c3.61259,2.56327 7.22518,5.12652 10.83776,7.68979l1.00785,-0.01666c0,0 2.45072,0.49394 1.95678,2.94466c-0.49395,2.45072 -2.94466,1.95677 -2.94466,1.95677l-2.91331,-0.80697c-3.61259,-2.56327 -7.22518,-5.12651 -10.83776,-7.68977c-2.74868,-1.95403 -5.28322,-4.19376 -7.8813,-6.34397c-2.109,-1.74544 -4.39963,-3.34046 -6.733,-4.88451c-1.32542,4.31751 -3.21759,8.39566 -4.41767,12.79245c-0.38564,1.41289 -0.30386,2.96946 -0.92715,4.29479c-0.63441,1.34897 -2.0977,2.186 -2.75089,3.52599c-0.50043,1.02661 -0.40751,2.24753 -0.61126,3.37131l-0.39516,1.96057c0,0 -0.49394,2.45072 -2.94466,1.95677z" fill="#ff0000" stroke="none" stroke-width="0.5"/></g><g><path d="M200.70617,318.09508c0.59417,-0.19295 1.18474,-0.39184 1.77519,-0.5864c-0.33424,-0.43384 -0.49159,-1.02412 -0.58202,-1.66596c-0.0372,-0.0242 -0.07387,-0.04906 -0.11003,-0.07459c-0.03799,0.12164 -0.07836,0.24252 -0.1212,0.36256c-0.24591,0.68915 -0.58521,1.33538 -0.96196,1.9644zM184.21178,315.99685c0.6392,-0.52104 1.13572,-1.26093 1.83947,-1.69969c1.54217,-0.96148 3.59765,-2.04128 5.723,-3.00021c4.71293,-8.14325 7.58507,-17.12682 11.40508,-25.71823c0.62814,-1.4107 1.25628,-2.8214 1.88443,-4.2321l0.06592,-0.07413l-0.02163,-0.0117l1.69677,-3.13733c0.37976,-0.72732 1.10943,-1.25301 1.98721,-1.33419c1.11982,-0.10357 2.13532,0.54824 2.54225,1.53652l1.98807,4.52487c3.58722,6.09769 4.50657,13.41165 5.98933,20.22692c0.25731,-0.11587 0.56376,-0.19815 0.92865,-0.2319c2.48938,-0.23023 2.71961,2.25914 2.71961,2.25914l-1.93407,3.45914c0.76035,1.62093 1.20426,2.93133 -0.91012,5.53379c-1.22254,1.50474 -3.28258,2.214 -5.17084,3.05698c-0.11745,0.38036 -0.27957,0.78129 -0.49099,1.20307c-0.27653,0.55168 -2.4367,1.39762 -4.80026,2.18494c-1.45458,1.00566 -2.95303,1.93277 -4.59476,2.55528c-7.62036,2.88948 -16.52825,3.16506 -24.9,3.63793c-3.26071,0.38141 -6.64848,0.51697 -9.85573,0.8136c-3.31917,0.30698 -6.63307,0.67744 -9.9575,0.92094c-1.64903,0.12079 -3.47075,0.99932 -4.95317,0.26699c-7.73764,-3.82246 -3.14758,-5.67704 0.89582,-7.65992c0.91849,-0.45042 3.00649,-1.1312 5.06976,-1.76055c-5.01323,-2.58347 -9.15296,-6.46178 -14.13921,-9.13522c0,0 -2.199,-1.18929 -1.00971,-3.38829c1.18929,-2.199 3.38829,-1.00971 3.38829,-1.00971c5.00658,2.7282 9.44208,6.90427 14.62125,9.45024c0.27426,-0.13972 0.5791,-0.23079 0.90426,-0.26087c0.68743,-0.06358 1.33554,0.1575 1.82768,0.56633l1.59543,1.3253c0.41071,0.10559 0.82716,0.19832 1.24985,0.27701c2.36837,0.14257 6.23088,-0.25955 7.53209,-0.35203c2.48572,-0.17668 4.68472,-0.38174 6.88378,-0.79294zM205.88958,306.64394c0.19649,-0.20014 0.35415,-0.44759 0.47795,-0.75707c-0.05249,-0.3826 -0.10858,-0.76632 -0.16686,-1.15014c-0.10177,0.46843 -0.19012,0.93917 -0.26198,1.41285c-0.02498,0.16461 -0.04089,0.32941 -0.04911,0.49435zM211.82878,304.79151c-0.06091,0.50209 -0.15648,0.98836 -0.28647,1.45586c0.30651,-0.11937 0.61378,-0.23626 0.92186,-0.35028c-0.2303,-0.35985 -0.44096,-0.72873 -0.63538,-1.10558zM192.87196,319.15456c-0.08197,0.11835 -0.16526,0.23537 -0.25012,0.35092c0.18106,-0.00826 0.36214,-0.01631 0.54316,-0.02459l0.11086,-0.47446c-0.13402,0.05032 -0.26866,0.09968 -0.40389,0.14813zM209.10836,284.70214l-0.0849,0.0373c-0.1864,0.41955 -0.3728,0.83912 -0.5592,1.25867c0.4383,0.10921 0.83444,0.33505 1.14989,0.64552c-0.20579,-0.63118 -0.38062,-1.27236 -0.50579,-1.94148z" fill="#00fbc1" stroke="none" stroke-width="0.5"/><path d="M254.94825,296.12072c1.67845,18.14795 -10.59825,34.12104 -27.42079,35.6769c-16.82253,1.55586 -31.82054,-11.89467 -33.49899,-30.04262c-1.67845,-18.14795 10.59826,-34.12104 27.4208,-35.6769c16.82253,-1.55586 31.82053,11.89468 33.49898,30.04262z" fill="#000000" stroke="#ffffff" stroke-width="0"/></g><text transform="translate(152.01564,38.17362) scale(0.5,0.5)" font-size="40" xml:space="preserve" fill="#000000" fill-rule="nonzero" stroke="none" stroke-width="1" stroke-linecap="butt" stroke-linejoin="miter" stroke-miterlimit="10" stroke-dasharray="" stroke-dashoffset="0" font-family="Sans Serif" font-weight="normal" text-anchor="start" style="mix-blend-mode: normal"><tspan x="0" dy="0">I'm The Real Gabe!</tspan></text></g></g></svg>