<svg version="1.1" xmlns="http://www.w3.org/2000/svg" xmlns:xlink="http://www.w3.org/1999/xlink" width="488.16667" height="368.16667" viewBox="0,0,488.16667,368.16667"><g transform="translate(4.08333,4.08333)"><g data-paper-data="{&quot;isPaintingLayer&quot;:true}" stroke-linecap="butt" stroke-linejoin="miter" stroke-miterlimit="10" stroke-dasharray="" stroke-dashoffset="0" style="mix-blend-mode: normal"><path d="M-0.33332,360.33334v-360.66666h480.66667v360.66667z" fill="#ffffff" fill-rule="nonzero" stroke="#ffffff" stroke-width="7.5"/><g fill-rule="evenodd" stroke="none" stroke-width="1"><g><path d="M298.94312,244.40198c-31.60063,0.65165 -54.24226,-14.33429 -64.50438,-34.20686c-12.54252,-24.43339 -6.35257,-72.16007 24.92223,-76.06942c0.16282,-2.76905 1.46593,-14.33428 3.25769,-22.15298l10.26211,-4.398c5.70111,5.5383 7.81871,18.56946 -1.79176,29.80887c3.74634,1.46594 8.63317,8.30735 6.84122,16.12604c-3.42051,14.66011 -7.98152,27.52827 -1.14011,43.00285c5.5383,12.37951 21.33851,18.73227 30.78616,29.32003c11.56504,12.86835 3.74634,18.08082 -8.63317,18.56946z" fill="#272525"/><path d="M268.6456,110.34377c3.25789,1.95477 7.00423,6.51559 6.67841,10.26212c-0.81428,0.97729 -8.79599,17.59216 -6.02675,19.0581c7.00423,3.58352 -3.4207,30.78616 0.48865,48.21532c5.37529,24.10756 26.22515,29.48304 34.5325,43.16567c4.561,7.49306 -3.74635,9.44764 -6.18976,9.44764c-37.9532,-0.65146 -53.10196,-21.17569 -59.29191,-33.88104c-8.14434,-16.61469 -3.09488,-37.13873 3.90935,-53.26496c1.46613,-3.25769 5.21248,-9.28464 7.81871,-11.72805c4.23518,-3.58352 5.21246,-3.90935 10.75076,-4.398c0.81447,-0.16282 7.33005,-26.87681 7.33005,-26.87681z" fill="#fff63b"/><path d="M262.13002,142.92169c0.32583,-1.14011 1.95477,-0.65146 1.62895,0.32583c-9.93629,33.06656 -5.70111,64.17855 16.94052,80.46741c4.72382,3.4207 14.17127,7.49306 16.28886,8.30754c2.28059,0.81428 0.48865,2.1174 -1.62876,1.46594c-1.95477,-0.65165 -3.58371,-1.30311 -6.51558,-2.60623c-24.43358,-11.07658 -44.95763,-29.15722 -26.71399,-87.96048z" fill="#272525"/></g><g><path d="M267.76508,143.76112c3.25769,2.44322 5.5383,10.75076 0.97729,17.59198c-8.47016,12.70553 -17.26635,23.29329 -16.45188,40.07099c0.65165,13.35681 13.19418,24.59621 18.40665,37.62738c6.18976,15.96323 -3.09507,18.24364 -14.98593,14.33429c-29.80887,-9.77328 -45.77191,-31.2748 -48.37814,-53.26478c-3.09488,-27.03982 19.70957,-69.71684 50.65854,-63.20126c1.79177,-3.90935 13.03117,-25.73651 16.45187,-25.24786c9.44765,1.30312 14.33429,23.4561 -6.6784,32.08927z" fill="#272525"/><path d="M275.25795,117.53578c3.58352,1.62895 6.18976,5.21248 2.60624,11.89107c-2.2804,4.23518 -14.66012,13.68263 -12.54253,15.96323c5.37548,5.70111 -14.17128,27.85409 -16.77751,45.44608c-3.4207,24.43339 14.17128,36.32445 17.10334,51.79884c1.62895,8.47035 -6.84142,7.65588 -9.12182,6.84141c-35.34697,-13.03117 -42.35138,-37.30174 -43.6545,-51.3102c-1.62876,-18.40646 10.26211,-35.83561 22.64181,-48.86678c2.44322,-2.60623 8.14434,-7.16723 11.56505,-8.47035c5.21247,-2.11759 5.04964,-5.37529 10.42493,-3.90935c0.81447,0.32583 17.75499,-19.38394 17.75499,-19.38394z" fill="#fff63b"/><path d="M257.50296,146.20435c0.81447,-0.97729 2.11759,-0.00001 1.46613,0.81447c-21.17569,27.85409 -28.17992,58.31461 -12.86835,81.28188c3.25769,4.88683 10.58775,11.72805 12.37951,13.03117c1.79196,1.46613 -0.97728,3.58372 -2.60623,2.2806c-1.62876,-1.30312 -4.07217,-3.09488 -6.18976,-5.21247c-19.05811,-18.73228 -30.29751,-43.00285 7.8187,-92.19565z" fill="#272525"/></g><g><path d="M253.49685,131.03082c1.1403,3.90935 -1.14011,11.40223 -7.98152,15.14876c-13.68282,7.65588 -24.59641,14.00846 -32.08928,29.32003c-5.86412,12.21688 -2.44341,26.55116 -4.23518,40.39662c-2.2804,16.94052 -15.80022,12.86835 -24.43339,4.07236c-21.66434,-21.99017 -21.01269,-46.26074 -12.3797,-66.78478c10.58795,-25.24786 51.63603,-52.77613 75.74378,-33.06656c3.4207,-2.60623 23.94475,-16.94053 26.87681,-14.98594c7.65569,5.37548 0.48865,27.20264 -21.50152,25.89952z" fill="#272525"/><path d="M272.71777,110.83261c0.81447,3.58352 -0.32564,9.28464 -3.58352,11.72805c-2.93206,2.1174 -12.86815,6.18976 -18.56946,6.67841c1.95477,7.49287 -26.38798,20.03539 -37.30156,34.36967c-14.98593,19.87258 -5.37547,38.44205 -10.42493,53.42779c-2.76924,8.14453 -9.77347,3.74654 -11.40242,1.79177c-24.75922,-27.36546 -19.0581,-52.12467 -13.3568,-64.99283c7.49287,-16.94052 26.71379,-27.03982 43.81713,-32.90375c3.4207,-1.1403 10.75076,-2.60623 14.33429,-2.2804c5.7013,0.48865 6.6786,1.14011 10.58795,4.72363c0.81447,0.65165 25.24785,-15.6374 25.89932,-12.54233z" fill="#fff63b"/><path d="M242.9091,128.09876c1.14011,-0.48865 1.79177,0.97747 0.97729,1.30311c-32.25209,14.98593 -53.5906,38.76787 -51.14738,65.97031c0.48865,5.70111 3.58371,14.98593 4.561,17.10353c0.97729,2.1174 -1.46612,1.79177 -2.11758,-0.16301c-0.81447,-1.95458 -1.46594,-3.4207 -2.28041,-6.35257c-7.8187,-24.92223 -7.65588,-51.63603 50.00708,-77.86137z" fill="#272525"/></g></g></g></g></svg>