<svg version="1.1" xmlns="http://www.w3.org/2000/svg" xmlns:xlink="http://www.w3.org/1999/xlink" width="488.16667" height="368.16667" viewBox="0,0,488.16667,368.16667"><g transform="translate(4.08334,4.08334)"><g data-paper-data="{&quot;isPaintingLayer&quot;:true}" fill-rule="nonzero" stroke-linecap="butt" stroke-linejoin="miter" stroke-miterlimit="10" stroke-dasharray="" stroke-dashoffset="0" style="mix-blend-mode: normal"><path d="M-0.33333,360.33333v-360.66666h480.66667v360.66667z" fill="#ffffff" stroke="#ffffff" stroke-width="7.5"/><path d="M129.01565,360.17362v-107h39v107z" fill="#00fbc1" stroke="none" stroke-width="0"/><g><path d="M225.70653,199.37747c-0.99731,42.79045 -33.96085,76.72953 -73.62616,75.80506c-39.6653,-0.92447 -71.01192,-36.3624 -70.01461,-79.15286c0.99731,-42.79045 33.96088,-76.72953 73.62618,-75.80506c39.6653,0.92447 71.01191,36.36241 70.0146,79.15286z" fill="#000000" stroke="#ffffff" stroke-width="0"/><path d="M224.31118,101.31833c-0.64985,27.88281 -30.27026,49.80821 -66.15902,48.97176c-35.88876,-0.83645 -64.45553,-24.11801 -63.80568,-52.00082c0.64985,-27.88281 30.27025,-49.80821 66.15902,-48.97176c35.88877,0.83645 64.45554,24.11801 63.80568,52.00082z" fill="#ff0000" stroke="#ffffff" stroke-width="0"/><path d="M91.51326,160.49594c-0.70006,-2.39998 1.69992,-3.10004 1.69992,-3.10004l0.44886,0.16129c2.13101,-2.00973 4.59951,-3.8438 7.2654,-5.47097c-0.97448,-7.99694 -1.59343,-16.11322 -1.76966,-24.0548c-0.01954,-0.88055 0.23276,-10.6605 0.44541,-11.0713c0.87103,-1.68272 2.6524,-3.69522 4.52921,-3.43486c2.17282,0.30141 2.9927,3.21377 4.60436,4.70189c4.55866,4.20917 8.91203,8.53672 13.22289,13.05332c1.69873,1.77981 3.20243,3.76655 5.08737,5.34781c2.89491,2.42849 6.22124,3.12271 5.68698,8.46862c-0.45056,4.5084 -6.73393,4.32028 -9.25955,4.57783c-5.59007,0.57004 -11.66603,2.30635 -17.07633,5.04319c0.2725,2.34629 0.58433,4.69141 0.95152,7.03766c0.23853,1.5242 0.32232,3.08877 0.7802,4.562c0.46646,1.50081 1.6347,2.74838 1.96916,4.28401c0.32453,1.49003 -0.02649,3.0498 -0.03972,4.5747c0,0 -0.05824,2.49932 -2.55757,2.44106c-2.49932,-0.05825 -2.44108,-2.55757 -2.44108,-2.55757c0.19533,-4.55834 -1.90111,-7.90647 -2.64862,-12.51699c-0.27026,-1.66695 -0.52619,-3.34516 -0.7669,-5.0318c-1.63893,1.11662 -3.16361,2.33975 -4.53085,3.66317l-2.50094,1.02173c0,0 -2.39998,0.70006 -3.10004,-1.69992z" fill="#000000" stroke="none" stroke-width="0.5"/><path d="M291.53545,135.39393c-0.25737,11.04269 -29.5596,19.31649 -65.44836,18.48004c-35.88876,-0.83645 -64.77372,-10.4664 -64.51635,-21.50909c0.25737,-11.04269 29.5596,-19.31649 65.44836,-18.48004c35.88876,0.83645 64.77372,10.4664 64.51635,21.50909z" fill="#ff0000" stroke="#ffffff" stroke-width="0"/><path d="M214.28403,231.11993c-2.49932,-0.05826 -2.44106,-2.55757 -2.44106,-2.55757l0.04659,-1.99945c0.05782,-1.52387 -0.21836,-3.09782 0.17345,-4.57158c0.383,-1.44067 1.69076,-2.51679 2.09266,-3.9523c0.32416,-1.15787 -0.07631,-2.40888 0.02373,-3.60712c0.42256,-5.06055 1.89337,-9.88487 2.29126,-14.92834c-1.28219,-0.54458 -2.55409,-1.09375 -3.80072,-1.66281c-7.08279,-3.23316 -14.07034,-6.71503 -20.99566,-10.2738c-5.44051,-2.79576 -10.95924,-5.41817 -16.41547,-8.1825c-4.58891,-2.32489 -8.09447,-4.43586 -13.14457,-5.54419c0,0 -2.43936,-0.54729 -1.89209,-2.98664c0.54728,-2.43936 2.98664,-1.89209 2.98664,-1.89209c5.45542,1.24733 9.35673,3.45332 14.30973,5.9627c5.46478,2.76866 10.99216,5.39526 16.44113,8.19558c8.24407,4.23678 16.58745,8.25063 25.01564,12.10263c0.04786,-0.00083 0.09669,-0.00069 0.14648,0.00047c1.00325,0.02338 1.59439,0.4401 1.94264,0.9306c3.37646,1.46333 6.8978,2.83656 10.06931,4.62491c2.85864,1.61191 5.65705,3.34726 8.62547,4.74673c4.0048,1.8928 8.00961,3.78559 12.0144,5.67839l0.98944,-0.19246c0,0 2.49932,0.05825 2.44107,2.55757c-0.05826,2.49932 -2.55757,2.44106 -2.55757,2.44106l-3.00948,-0.28566c-4.0048,-1.8928 -8.0096,-3.78558 -12.0144,-5.67837c-3.04775,-1.44384 -5.93457,-3.20639 -8.86831,-4.8697c-2.38147,-1.3502 -4.91551,-2.52056 -7.48272,-3.63327c-0.55085,4.48266 -1.70154,8.82863 -2.11513,13.36745c-0.1329,1.45853 0.21952,2.97688 -0.16267,4.39072c-0.38901,1.43905 -1.6836,2.51882 -2.09267,3.95231c-0.3134,1.09824 -0.00864,2.28416 -0.01295,3.42625l-0.04661,1.99945c0,0 -0.05824,2.49932 -2.55757,2.44106z" fill="#ff0000" stroke="none" stroke-width="0.5"/></g><g><path d="M202.90677,304.09165c0.59212,-0.19916 1.18057,-0.40423 1.76895,-0.60496c-0.33876,-0.43032 -0.50229,-1.01892 -0.59943,-1.65977c-0.03745,-0.02381 -0.07438,-0.04828 -0.11081,-0.07343c-0.03671,0.12203 -0.07582,0.24333 -0.1174,0.36381c-0.23868,0.69169 -0.57119,1.34144 -0.94134,1.97437zM186.39131,302.16626c0.63371,-0.52771 1.12245,-1.27275 1.82157,-1.71886c1.53202,-0.97758 3.57608,-2.07884 5.69127,-3.05998c4.6274,-8.19216 7.4053,-17.20531 11.13514,-25.83625c0.61333,-1.4172 1.22667,-2.8344 1.84001,-4.2516l0.06514,-0.07482l-0.02175,-0.01147l1.66382,-3.15493c0.37212,-0.73126 1.09625,-1.26456 1.97313,-1.35493c1.11867,-0.11529 2.14094,0.52585 2.5582,1.50981l2.03535,4.5038c3.65088,6.05979 4.64677,13.36372 6.20082,20.16309c0.25608,-0.11856 0.56165,-0.20404 0.92617,-0.24161c2.48683,-0.25629 2.74312,2.23054 2.74312,2.23054l-1.89774,3.4792c0.77728,1.61288 1.23489,2.91856 -0.85212,5.54302c-1.20672,1.51746 -3.25922,2.24825 -5.13854,3.11096c-0.11346,0.38157 -0.27137,0.78417 -0.47836,1.20815c-0.27074,0.55455 -2.42193,1.42306 -4.77712,2.23509c-1.44397,1.02084 -2.93263,1.96359 -4.56775,2.60326c-7.58968,2.96912 -16.4942,3.33797 -24.86054,3.89848c-3.25654,0.41553 -6.6427,0.58656 -9.84667,0.91676c-3.31577,0.34172 -6.62561,0.74686 -9.94731,1.02516c-1.64767,0.13805 -3.46009,1.03561 -4.9501,0.31884c-7.77724,-3.74122 -3.20686,-5.64377 0.81556,-7.66888c0.91372,-0.46001 2.99448,-1.16262 5.05105,-1.81354c-5.04001,-2.53083 -9.22013,-6.36558 -14.2341,-8.98665c0,0 -2.21133,-1.1662 -1.04514,-3.37753c1.1662,-2.21133 3.37753,-1.04514 3.37753,-1.04514c5.03487,2.67562 9.51386,6.80501 14.71941,9.29661c0.27278,-0.14258 0.57665,-0.23684 0.90148,-0.27033c0.68673,-0.07078 1.33712,0.14351 1.83351,0.54716l1.60922,1.30852c0.41179,0.10128 0.82919,0.18965 1.25268,0.26391c2.36973,0.11776 6.22782,-0.32479 7.52799,-0.43089c2.48373,-0.2027 4.68047,-0.43078 6.8751,-0.86498zM207.96998,292.58685c0.19438,-0.20219 0.34944,-0.45127 0.47,-0.76203c-0.05649,-0.38203 -0.1166,-0.76514 -0.1789,-1.14833c-0.09686,0.46947 -0.18027,0.94111 -0.24717,1.41552c-0.02325,0.16486 -0.03744,0.32982 -0.04393,0.49484zM213.88945,290.67233c-0.05565,0.5027 -0.14612,0.98994 -0.27121,1.45878c0.30524,-0.12257 0.61127,-0.24267 0.91814,-0.35991c-0.23406,-0.35742 -0.44857,-0.72407 -0.64692,-1.09887zM195.08408,305.23311c-0.08073,0.1192 -0.16279,0.23709 -0.24643,0.35352c0.18096,-0.01016 0.36195,-0.0201 0.54287,-0.03028l0.10589,-0.47559c-0.13349,0.05172 -0.2676,0.10249 -0.40232,0.15235zM210.95881,270.61255l-0.0845,0.03819c-0.182,0.42148 -0.36399,0.84298 -0.54599,1.26446c0.43942,0.10461 0.8379,0.32629 1.15659,0.63344c-0.21239,-0.62899 -0.39392,-1.2683 -0.52609,-1.93608z" fill="#00fbc1" stroke="none" stroke-width="0.5"/><path d="M256.91576,281.55047c1.8684,18.12938 -10.24036,34.23015 -27.04568,35.96209c-16.80531,1.73194 -31.94336,-11.5608 -33.81176,-29.69017c-1.8684,-18.12938 10.24037,-34.23015 27.04569,-35.96209c16.80531,-1.73194 31.94335,11.56081 33.81175,29.69017z" fill="#000000" stroke="#ffffff" stroke-width="0"/></g><text transform="translate(152.01564,38.17362) scale(0.5,0.5)" font-size="40" xml:space="preserve" fill="#000000" fill-rule="nonzero" stroke="none" stroke-width="1" stroke-linecap="butt" stroke-linejoin="miter" stroke-miterlimit="10" stroke-dasharray="" stroke-dashoffset="0" font-family="Sans Serif" font-weight="normal" text-anchor="start" style="mix-blend-mode: normal"><tspan x="0" dy="0">I'm The Real Gabe!</tspan></text></g></g></svg>