<svg version="1.1" xmlns="http://www.w3.org/2000/svg" xmlns:xlink="http://www.w3.org/1999/xlink" width="480" height="360" viewBox="0,0,480,360"><g data-paper-data="{&quot;isPaintingLayer&quot;:true}" fill-rule="nonzero" stroke-linejoin="miter" stroke-miterlimit="10" stroke-dasharray="" stroke-dashoffset="0" style="mix-blend-mode: normal"><path d="M0,360v-360h480v360z" fill="#ffffff" stroke="none" stroke-width="0" stroke-linecap="butt"/><path d="M145.7307,270.08202c0,0 28.85679,-3.34883 28.89759,4.60767c0.04191,8.17305 -14.10401,23.87386 -14.10401,23.87386" fill="none" stroke="#000000" stroke-width="3.5" stroke-linecap="round"/><path d="M106.99112,271.52241c0,0 9.50464,12.79732 9.46323,20.87372c-0.04133,8.05894 -9.38125,26.872 -9.38125,26.872" fill="none" stroke="#000000" stroke-width="3.5" stroke-linecap="round"/><g data-paper-data="{&quot;index&quot;:null}" stroke="#121312" stroke-width="3.5" stroke-linecap="butt"><path d="M95.0348,343.91529l2.63387,-21.94813l15.9087,2.70646c0,0 -2.19295,7.69916 -2.72305,11.13381c-0.25253,1.63629 7.6796,2.31972 7.3584,4.40096c-0.35304,2.28739 -1.75832,6.51037 -1.75832,6.51037z" fill="#383838"/><path d="M114.63949,324.53285c-0.27185,1.76141 -4.39151,2.58751 -9.2015,1.84516c-4.81001,-0.74236 -8.4889,-2.77207 -8.21705,-4.53348c0.13394,-0.86791 -0.15474,-5.73696 1.46987,-6.07496c1.67254,-0.34799 5.44315,2.87191 7.88312,3.24848c4.81001,0.74236 8.33744,3.75339 8.06559,5.5148z" fill="#979025"/></g><g stroke="#121312" stroke-width="3.5" stroke-linecap="butt"><path d="M152.44662,325.29654l1.306,-22.06699l16.04292,1.74253c0,0 -1.72485,7.81736 -2.04692,11.27772c-0.15344,1.64852 7.80548,1.85257 7.61031,3.94938c-0.2145,2.30452 -1.36265,6.60453 -1.36265,6.60453z" fill="#383838"/><path d="M170.84723,304.76753c-0.16517,1.77459 -4.22753,2.84753 -9.07354,2.39648c-4.846,-0.45105 -8.64058,-2.25529 -8.4754,-4.02988c0.08139,-0.8744 -0.50031,-5.71719 1.10098,-6.15252c1.64852,-0.44817 5.60637,2.53854 8.06459,2.76735c4.846,0.45105 8.54855,3.24397 8.38338,5.01856z" fill="#979025"/></g><g><path d="M145.09952,204.02114l54.28765,-27.43504" data-paper-data="{&quot;index&quot;:null}" fill="none" stroke="#383838" stroke-width="3.5" stroke-linecap="round"/><g data-paper-data="{&quot;index&quot;:null}" fill="#393839" stroke="#131313" stroke-width="2.5" stroke-linecap="butt"><path d="M199.02214,176.85988c-0.51615,-4.30789 0.66501,-7.99998 2.6382,-8.24651c1.97319,-0.24653 3.99121,3.04583 4.50737,7.35372c0.51615,4.30789 -0.66501,7.99998 -2.6382,8.24651c-1.97319,0.24653 -3.99121,-3.04583 -4.50737,-7.35372z"/><path d="M203.34065,177.12274c-0.51615,-4.30789 0.66501,-7.99998 2.6382,-8.24651c1.97319,-0.24653 3.99121,3.04583 4.50737,7.35372c0.51615,4.30789 -0.66501,7.99997 -2.6382,8.24651c-1.97319,0.24653 -3.99121,-3.04583 -4.50737,-7.35371z"/><path d="M207.26203,176.1583c-0.51615,-4.30789 0.66501,-7.99998 2.6382,-8.24651c1.97319,-0.24653 3.99122,3.04584 4.50737,7.35372c0.51615,4.30789 -0.66501,7.99997 -2.6382,8.24651c-1.97319,0.24653 -3.99121,-3.04583 -4.50737,-7.35372z"/><path d="M198.34389,171.88406c-0.66579,-1.91276 2.04081,-4.64171 6.04538,-6.09526c4.00456,-1.45355 7.79063,-1.08129 8.45643,0.83147c0.66579,1.91276 -2.04083,4.6417 -6.04538,6.09526c-4.00456,1.45355 -7.79063,1.08129 -8.45642,-0.83147z" data-paper-data="{&quot;index&quot;:null}"/></g></g><g stroke="none" stroke-width="0" stroke-linecap="butt"><path d="M99.39375,271.07497v-77.31539h54.11557v77.31539z" fill="#000000"/><path d="M99.31045,262.29275v-8.11178h54.11557v8.11178z" fill="#a17f00"/><g fill="#ca9e00"><path d="M120.94867,262.29076v-13.43514h3.55972v13.43514z"/><path d="M121.6855,262.40386v-7.6048h10.35556v7.6048z"/><path d="M129.20075,259.75582v-11.40718h2.9125v11.40718z"/><path d="M129.56556,258.02756v-3.05389h15.66664l-1.94931,6.56019c0,0 -0.76046,-4.47214 -3.0715,-3.71266c-2.49998,0.82158 -2.79143,2.92091 -4.29254,2.92091c-0.54892,0 -0.41234,-2.17348 -1.26289,-2.52247c-0.8012,-0.32874 -1.08222,2.40806 -1.98558,2.41503c-1.29357,0.00997 -3.10482,-2.60713 -3.10482,-2.60713z"/><path d="M121.09235,260.59422c-0.90336,-0.00696 -1.18438,-2.74376 -1.98558,-2.41503c-0.85055,0.34899 -0.71397,2.52246 -1.26289,2.52246c-1.50111,0 -1.79256,-2.09933 -4.29255,-2.92091c-2.31104,-0.75948 -3.0715,3.71266 -3.0715,3.71266l-1.9493,-6.56019h15.66664v3.05389c0,0 -1.81125,2.61711 -3.10482,2.60713z" data-paper-data="{&quot;index&quot;:null}"/></g><g fill="#ca9e00"><path d="M119.70778,220.16919l0.11076,-21.91813h4.02574l0.11076,21.91813z"/><path d="M120.58692,220.34419v-11.76627h12.35568v11.76627z"/><path d="M129.55371,216.2471v-17.6494h3.47503v17.6494z"/><path d="M129.98897,213.57312v-4.72503h18.69257l-2.3258,10.15004c0,0 -0.90734,-6.91936 -3.66474,-5.74428c-2.98284,1.27115 -3.33059,4.51928 -5.12163,4.51928c-0.65494,0 -0.49198,-3.36285 -1.50681,-3.9028c-0.95594,-0.50862 -1.29124,3.72581 -2.36908,3.73658c-1.54342,0.01543 -3.70451,-4.0338 -3.70451,-4.0338z"/><path d="M119.87921,217.54428c-1.07784,-0.01077 -1.41314,-4.24519 -2.36908,-3.73657c-1.01483,0.53995 -0.85187,3.9028 -1.50681,3.9028c-1.79104,0 -2.13878,-3.24812 -5.12163,-4.51927c-2.7574,-1.17508 -3.66474,5.74428 -3.66474,5.74428l-2.3258,-10.15004h18.69257v4.72502c0,0 -2.16109,4.04923 -3.70451,4.0338z" data-paper-data="{&quot;index&quot;:null}"/></g></g><g stroke="none" stroke-linecap="butt"><path d="M168.56371,151.14459c0,22.08422 -17.96444,39.98703 -40.12469,39.98703c-22.16026,0 -40.12469,-17.9028 -40.12469,-39.98703c0,-22.08422 17.96444,-39.98702 40.12469,-39.98702c22.16026,0 40.12469,17.90279 40.12469,39.98702z" fill="#000000" stroke-width="0"/><path d="M149.54879,143.73959l0.64458,-38.83513l10.31318,-24.02512v62.86025z" fill="#000000" stroke-width="0"/><path d="M95.45042,145.43189v-62.86024l10.31318,24.02512l0.64457,38.83512z" data-paper-data="{&quot;index&quot;:null}" fill="#000000" stroke-width="0"/><path d="M111.51896,182.90382l-7.09031,-21.72134h51.24359l-8.37945,20.73401z" fill="#d9b796" stroke-width="0"/><path d="M111.84125,151.80281c0,2.81732 -4.32878,5.10122 -9.6686,5.10122c-5.33982,0 -9.6686,-2.2839 -9.6686,-5.10122c0,-2.81732 4.32878,-5.10122 9.6686,-5.10122c5.33982,0 9.6686,2.2839 9.6686,5.10122z" fill="#ffffff" stroke-width="0"/><path d="M163.13062,152.8369c0,2.81732 -4.32878,5.10122 -9.6686,5.10122c-5.33982,0 -9.6686,-2.2839 -9.6686,-5.10122c0,-2.81732 4.32878,-5.10123 9.6686,-5.10123c5.33982,0 9.6686,2.2839 9.6686,5.10123z" fill="#ffffff" stroke-width="0"/><path d="M143.58867,171.70568c0,1.27647 -1.25,1.27647 -1.25,1.27647h-1.24118c-8.05477,0 -16.04077,0.50699 -24.07895,0.50699c0,0 -1.25,0 -1.25,-1.27647c0,-1.27647 1.25,-1.27647 1.25,-1.27647c8.03765,0 16.02432,-0.50699 24.07895,-0.50699h1.24118c0,0 1.25,0 1.25,1.27647z" fill="#000000" stroke-width="0.5"/><path d="M143.4122,175.72865c-0.46424,-1.18518 0.69636,-1.65925 0.69636,-1.65925l1.07607,-0.42469c1.73066,-1.43017 3.14702,-3.49456 0.90224,-5.45851c-0.51696,-0.45229 -2.43233,0.08774 -3.00658,0.20828c0,0 -1.22573,0.25034 -1.47087,-1.00134c-0.24515,-1.25169 0.98058,-1.50202 0.98058,-1.50202c1.41538,-0.28249 3.63322,-0.74003 4.93699,0.20828c1.66902,1.21396 2.86113,4.75068 1.89704,6.66396c-0.72393,1.43665 -1.80953,2.13773 -2.9807,3.08712l-1.40629,0.58929c0,0 -1.1606,0.47407 -1.62484,-0.71111z" fill="#000000" stroke-width="0.5"/><path d="M118.51678,176.26856c0,1.27647 -1.25,1.27647 -1.25,1.27647l-1.23809,-0.02478c-6.01717,-1.25318 -7.03908,-9.62748 -0.49648,-11.12213c0,0 1.22573,-0.25034 1.47087,1.00134c0.24514,1.25169 -0.98058,1.50202 -0.98058,1.50202c-4.067,0.67403 -2.77793,5.46245 0.49648,6.11541l0.7478,-0.02478c0,0 1.25,0 1.25,1.27647z" fill="#000000" stroke-width="0.5"/><path d="M136.02369,166.27095c-2.48264,2.38579 -5.88291,1.64438 -9.03295,1.11698c0,0 -1.23299,-0.20985 -1.02749,-1.46895c0.2055,-1.2591 1.43849,-1.04925 1.43849,-1.04925c2.02027,0.35026 5.35568,1.29235 6.85419,-0.40398l0.56579,-0.7896c-0.49478,-2.26376 -1.52111,-4.34868 -1.90785,-6.71671c0,0 -0.20549,-1.2591 1.0275,-1.46895c1.23299,-0.20985 1.43849,1.04925 1.43849,1.04925c0.40843,2.5042 1.48298,4.62447 1.97863,7.05732l0.02427,0.50383c0,0 0.00001,0.74284 -0.55493,1.09516z" fill="#000000" stroke-width="0.5"/></g><g><path d="M149.5437,233.60786l-49.49207,-35.6604" fill="none" stroke="#383838" stroke-width="3.5" stroke-linecap="round"/><g fill="#393839" stroke="#131313" stroke-width="2.5" stroke-linecap="butt"><path d="M154.78894,226.72442c1.91231,0.5545 2.52146,4.38848 1.36056,8.56345c-1.1609,4.17496 -3.65223,7.10993 -5.56453,6.55544c-1.91231,-0.5545 -2.52146,-4.38848 -1.36056,-8.56345c1.1609,-4.17496 3.65223,-7.10993 5.56453,-6.55544z"/><path d="M159.09545,227.14515c1.91231,0.5545 2.52146,4.38849 1.36056,8.56345c-1.1609,4.17496 -3.65223,7.10994 -5.56453,6.55545c-1.91231,-0.5545 -2.52146,-4.3885 -1.36056,-8.56347c1.1609,-4.17496 3.65223,-7.10992 5.56453,-6.55544z"/><path d="M162.82414,228.71593c1.91231,0.5545 2.52146,4.38849 1.36056,8.56345c-1.1609,4.17496 -3.65223,7.10993 -5.56453,6.55544c-1.91231,-0.5545 -2.52146,-4.38848 -1.36056,-8.56345c1.1609,-4.17496 3.65223,-7.10992 5.56453,-6.55544z"/><path d="M156.28321,238.60015c3.73697,2.06713 5.99882,5.18988 5.05198,6.97481c-0.94684,1.78494 -4.74381,1.55619 -8.48079,-0.51095c-3.73697,-2.06713 -5.99881,-5.18987 -5.05198,-6.97481c0.94684,-1.78494 4.74382,-1.5562 8.48079,0.51093z" data-paper-data="{&quot;index&quot;:null}"/></g></g></g></svg>