<svg version="1.1" xmlns="http://www.w3.org/2000/svg" xmlns:xlink="http://www.w3.org/1999/xlink" width="480" height="360" viewBox="0,0,480,360"><g data-paper-data="{&quot;isPaintingLayer&quot;:true}" fill-rule="nonzero" stroke-linejoin="miter" stroke-miterlimit="10" stroke-dasharray="" stroke-dashoffset="0" style="mix-blend-mode: normal"><path d="M0,360v-360h480v360z" fill="#ffffff" stroke="none" stroke-width="0" stroke-linecap="butt"/><path d="M386.74892,201.70842l-15.25329,11.92742c0,0 -19.82884,-16.15921 -23.69802,-18.19345c-3.86139,-2.03014 -8.98383,0.57426 -8.98383,0.57426" data-paper-data="{&quot;index&quot;:null}" fill="none" stroke="#000000" stroke-width="3.5" stroke-linecap="round"/><g data-paper-data="{&quot;index&quot;:null}" fill="#500190" stroke="#2c0050" stroke-width="2.5" stroke-linecap="butt"><path d="M400.1775,200.93396c0.42798,1.60485 -2.45,3.59749 -6.4282,4.45068c-3.97819,0.85318 -7.55009,0.24383 -7.97809,-1.36102c-0.42799,-1.60485 2.45,-3.59748 6.4282,-4.45067c3.9782,-0.8532 7.5501,-0.24385 7.9781,1.361z"/><path d="M393.56327,201.79273c-3.97819,0.85318 -7.55009,0.24383 -7.97809,-1.36102c-0.42799,-1.60485 2.45,-3.59748 6.4282,-4.45067c3.97819,-0.85318 7.55009,-0.24384 7.97809,1.36101c0.42797,1.60484 -2.45001,3.59747 -6.42819,4.45067z"/><path d="M398.69702,194.19973c0.42797,1.60486 -2.45,3.59749 -6.4282,4.45068c-3.97819,0.85319 -7.55009,0.24384 -7.97809,-1.36101c-0.42799,-1.60485 2.45002,-3.5975 6.4282,-4.45067c3.97819,-0.8532 7.5501,-0.24385 7.97809,1.361z"/><path d="M389.16259,206.43785c-1.72272,0.73935 -4.54626,-1.22504 -6.30653,-4.38758c-1.76028,-3.16253 -1.79074,-6.32564 -0.06805,-7.06498c1.72271,-0.73933 4.54623,1.22506 6.30652,4.38759c1.76028,3.16253 1.79075,6.32564 0.06805,7.06498z" data-paper-data="{&quot;index&quot;:null}"/></g><path d="M300.3524,272.51921l0.83312,50.98183" data-paper-data="{&quot;index&quot;:null}" fill="none" stroke="#000000" stroke-width="3.5" stroke-linecap="round"/><g data-paper-data="{&quot;index&quot;:null}" stroke="#2c0050" stroke-width="3.5" stroke-linecap="butt"><path d="M289.53103,353.38474c0,0 -1.03053,-4.54193 -1.19645,-6.96836c-0.15095,-2.20774 7.52463,-2.26834 7.40596,-4.00407c-0.24914,-3.6434 -1.77321,-11.89356 -1.77321,-11.89356l15.49542,-1.52146l0.86773,23.21983z" fill="#500190"/><path d="M292.94507,329.90819c-0.12776,-1.86847 3.50283,-4.35729 8.18213,-4.73772c2.37366,-0.19297 6.24178,-3.25583 7.82292,-2.75288c1.53584,0.48853 0.88929,5.56753 0.95222,6.48818c0.12776,1.86847 -3.56197,3.69155 -8.24127,4.072c-4.67928,0.38042 -8.57617,-0.82587 -8.70392,-2.69435z" fill="#979025"/></g><path d="M298.09586,201.19882c0,0 -5.27667,-2.36489 -9.00654,-0.15739c-3.73741,2.21196 -22.5351,19.2774 -22.5351,19.2774l-15.97141,-11.21092" data-paper-data="{&quot;index&quot;:null}" fill="none" stroke="#000000" stroke-width="3.5" stroke-linecap="round"/><g data-paper-data="{&quot;index&quot;:null}" fill="#500190" stroke="#2c0050" stroke-width="2.5" stroke-linecap="butt"><path d="M237.12547,208.95647c0.32781,-1.62341 3.85676,-2.39783 7.88218,-1.72971c4.02541,0.66812 7.0229,2.52577 6.6951,4.14917c-0.32781,1.62341 -3.85676,2.39783 -7.88217,1.72973c-4.02541,-0.66812 -7.02289,-2.52577 -6.6951,-4.14918z"/><path d="M243.78347,209.50798c-4.0254,-0.66812 -7.02288,-2.52577 -6.69509,-4.14917c0.32781,-1.62341 3.85676,-2.39783 7.88217,-1.72972c4.02541,0.66812 7.0229,2.52577 6.6951,4.14917c-0.32781,1.62341 -3.85676,2.39783 -7.88217,1.72973z"/><path d="M238.186,202.159c0.32781,-1.62341 3.85676,-2.39783 7.88217,-1.72971c4.0254,0.6681 7.0229,2.52577 6.6951,4.14917c-0.32781,1.62341 -3.85676,2.39783 -7.88217,1.72972c-4.02541,-0.66812 -7.02288,-2.52577 -6.6951,-4.14918z"/><path d="M248.46606,213.94546c-1.76609,-0.6589 -1.93193,-3.82091 -0.3704,-7.06251c1.56154,-3.24161 4.25911,-5.33531 6.02522,-4.67641c1.76608,0.6589 1.93193,3.82091 0.3704,7.06251c-1.56151,3.24162 -4.25911,5.33531 -6.02522,4.6764z" data-paper-data="{&quot;index&quot;:null}"/></g><g stroke="none" stroke-linecap="butt"><path d="M292.03283,272.60964l-1.06052,-75.70907h52.17338l-0.38564,75.80298z" fill="#b78000" stroke-width="0"/><path d="M307.26491,221.97277c-0.54353,-0.56986 0.20463,-0.98384 0.20463,-0.98384l0.10097,-0.05331c3.69221,-2.38929 6.06669,-4.82204 7.27094,-8.09749c-0.78293,0.29323 -1.68591,0.52152 -2.70128,0.68077c-2.31262,0.52496 -8.00346,0.14558 -6.55022,-2.67724c1.4098,-2.73846 5.95962,-4.99086 9.79943,-5.95158c0.01951,-0.06075 0.05108,-0.12506 0.09733,-0.19292c0.4261,-0.62513 1.24683,-0.30058 1.24683,-0.30058l0.3203,0.129c0.01744,0.00564 0.03486,0.0113 0.05225,0.01696c0.16825,-0.01432 0.6597,-0.02463 0.91223,0.305c1.70036,0.58694 3.21309,1.22541 4.74807,2.14073c1.23778,0.86937 2.87175,1.69478 3.0947,3.11c0.28377,1.80123 -2.45101,5.17391 -5.11025,4.52205c1.46149,2.56949 3.0341,5.06245 5.23827,7.39391l0.6622,0.46064c0,0 0.6797,0.47759 0.05266,0.99529c-0.62703,0.5177 -1.30673,0.04011 -1.30673,0.04011l-0.79005,-0.5598c-3.26672,-3.39922 -5.20619,-7.15385 -7.34643,-10.99111c0,0 -0.15997,-0.28699 -0.01633,-0.56018c-0.03476,0.03402 -0.07025,0.06773 -0.10647,0.10106c-1.05288,4.42853 -3.79551,7.53952 -8.36884,10.50821l-0.21253,0.12017c0,0 -0.74815,0.41398 -1.29168,-0.15586zM315.4116,210.83001c0,0 0.09355,-0.44974 0.60497,-0.56871c0.28865,-0.381 0.45864,-0.8133 0.5195,-1.29873c-0.19216,-0.70833 -0.63445,-1.5432 -0.22358,-1.93952c-0.0171,-0.05733 -0.03506,-0.11514 -0.05388,-0.17342l0.10947,-0.13017l-0.09903,-0.01195l0.1232,-0.59233c-2.82149,0.59476 -4.51704,1.69531 -6.78231,3.29502c-0.64732,0.45712 -2.56253,1.49445 -2.54393,2.3003c0.01795,0.77771 4.07458,0.58389 4.6094,0.44498c1.71255,-0.26464 2.93514,-0.6913 3.72909,-1.29156c0.00237,-0.01129 0.00473,-0.02257 0.00709,-0.03387zM318.44043,208.53818c0.25439,0.94991 0.54797,1.89521 1.07928,2.82216c0.25574,0.44617 1.27979,1.96564 2.06032,2.03792c0.73139,0.06772 0.99626,-0.85675 1.22473,-1.17546c1.52449,-2.12664 1.06889,-2.54075 -1.23646,-4.16132c-1.10949,-0.66157 -2.20152,-1.15546 -3.37651,-1.59615l-0.07381,0.3549c0.20907,0.60732 0.31509,1.18075 0.32243,1.71795z" fill="#09b800" stroke-width="0.5"/><path d="M291.05809,272.93309v-75.94908h18.95258c-0.31796,6.76089 0.02414,13.51872 -0.44455,20.38611c-1.23305,18.06691 1.26376,37.11432 0.03071,55.66731z" fill="#6900b8" stroke-width="0"/><path d="M324.5357,272.93309c2.40915,-18.23994 2.12073,-35.82646 1.20906,-55.4586c-0.31928,-6.87553 -1.30494,-13.72959 -1.6229,-20.49047h18.95258c0,0 0,32.67637 0,46.40609c0,10.95473 0,29.543 0,29.543z" data-paper-data="{&quot;index&quot;:null}" fill="#6900b8" stroke-width="0"/><path d="M324.60875,199.45929l8.56987,-14.81753l7.49864,2.92177c0,0 3.95688,7.5621 3.80934,7.89621c-0.81564,1.84699 -19.87785,3.99956 -19.87785,3.99956z" fill="#6900b8" stroke-width="0"/><path d="M289.69052,195.14667c-0.14754,-0.33409 3.80935,-7.89621 3.80935,-7.89621l7.49864,-2.92177l8.56987,14.81752c0,0 -19.06223,-2.15257 -19.87786,-3.99956z" data-paper-data="{&quot;index&quot;:null}" fill="#6900b8" stroke-width="0"/><path d="M297.50649,197.37232l14.24741,-0.41739l-2.03534,75.65287z" fill="#510191" stroke-width="0"/><path d="M324.71595,272.71214l-1.71398,-75.65286l14.24741,0.41739z" data-paper-data="{&quot;index&quot;:null}" fill="#510090" stroke-width="0"/><path d="M298.08682,208.5898c0.07308,-0.31366 0.36105,-0.54782 0.70516,-0.54782c0.00336,0 0.00672,0.00002 0.01007,0.00006l-0.07619,-0.40823c-0.00932,-0.04514 -0.01422,-0.09184 -0.01422,-0.13966c0,-0.389 0.32373,-0.70436 0.72308,-0.70436c0.11357,0 0.22104,0.02551 0.31668,0.07096l0.03586,-0.27949c0.03989,-0.35225 0.34643,-0.62625 0.71869,-0.62625c0.22132,0 0.41944,0.09686 0.55207,0.24945l0.63968,0.72698l-0.18223,0.15216c0.13773,0.16366 0.26176,0.33041 0.37552,0.50135l0.03714,-0.3618c0.03238,-0.35982 0.34251,-0.64201 0.72029,-0.64201c0.39935,0 0.72308,0.31533 0.72308,0.70436v0.33434c0.03245,0.03131 0.06188,0.06558 0.0878,0.10239c0.10768,-0.06202 0.23331,-0.09761 0.36748,-0.09761c0.37224,0 0.6788,0.27401 0.71869,0.62625l0.10593,0.82553l-0.27129,0.03304c0.00061,0.01203 0.00113,0.02397 0.00156,0.03587l0.66562,-0.14409c0.05516,-0.01312 0.11278,-0.02007 0.17208,-0.02007c0.39935,0 0.72308,0.31533 0.72308,0.70436c0,0.02177 -0.00101,0.0433 -0.003,0.06457l0.81831,0.31886c0.27463,0.09988 0.47018,0.35772 0.47018,0.66006c0,0.35873 -0.27531,0.65483 -0.63135,0.69873l-0.73934,0.10289c-0.26184,0.03643 -0.51043,0.06927 -0.74947,0.09781c0.12233,0.13684 0.22876,0.27124 0.32803,0.42054l0.1248,-0.10131l0.53258,0.62254c0.10646,0.12267 0.17063,0.28127 0.17063,0.45447c0,0.14082 -0.04242,0.27198 -0.1155,0.38202c0.49997,0.96888 0.64481,1.96967 -0.02671,2.25802c-0.41707,0.1791 -1.02289,-0.2897 -1.60063,-0.94181c0.04331,0.23569 0.08444,0.47179 0.12882,0.70728l-0.00626,0.02973l0.00982,-0.00097l0.10616,1.03407c0.00301,0.0261 0.00456,0.05262 0.00456,0.07951c0,0.389 -0.32373,0.70436 -0.72308,0.70436c-0.26801,0 -0.50196,-0.14203 -0.62685,-0.35303l-0.63592,-1.03242l0.16552,-0.09674c-0.26112,-0.34671 -0.49052,-0.70035 -0.70019,-1.06939l-0.07387,0.25183c-0.08114,0.30254 -0.36362,0.52582 -0.69965,0.52582c-0.2221,0 -0.42082,-0.09755 -0.55347,-0.25104c-0.88101,1.06425 -2.05574,2.08712 -2.50812,2.4885l-0.0188,0.00653l0.00441,0.00525l-0.63987,0.51008c-0.12529,0.10146 -0.28631,0.16247 -0.46196,0.16247c-0.39935,0 -0.72308,-0.31533 -0.72308,-0.70436c0,-0.10732 0.02463,-0.20903 0.0687,-0.30005l0.42211,-0.92515l0.03983,0.01723c0.0841,-0.50365 0.18082,-1.00248 0.29335,-1.49719l-1.05,0.51139c-0.10048,0.05153 -0.21493,0.0807 -0.33638,0.0807c-0.39935,0 -0.72308,-0.31533 -0.72308,-0.70436c0,-0.15564 0.05182,-0.2995 0.13957,-0.41607l0.53072,-0.72377l0.211,0.1468c0.43881,-0.62569 0.97265,-1.05554 1.59725,-1.51608c-0.11893,-0.11919 -0.23511,-0.24348 -0.34785,-0.37091c-0.16866,0.0026 -0.33603,0.01199 -0.49936,0.03473l-0.05126,-0.02087v0.02264h-0.85699c-0.39935,0 -0.72308,-0.31533 -0.72308,-0.70436c0,-0.36561 0.28596,-0.66616 0.6519,-0.70098l0.09281,-0.01004l-0.2527,-0.29539c-0.10646,-0.12267 -0.17064,-0.28127 -0.17064,-0.45447c0,-0.11245 0.02705,-0.21874 0.07516,-0.31305c-0.04811,-0.0943 -0.07516,-0.20061 -0.07516,-0.31306c0,-0.389 0.32373,-0.70436 0.72308,-0.70436c0.15978,0 0.30745,0.05049 0.42713,0.13595l0.695,0.48357c0.0807,0.03314 0.18305,0.07405 0.30211,0.12202c0.05275,-0.0338 0.11031,-0.06105 0.17148,-0.08058zM297.39905,214.98937l-0.00804,0.00152l0.00532,0.01038c0.00091,-0.00397 0.00181,-0.00794 0.00272,-0.01192zM299.11987,214.83113c0.04628,-0.06127 0.0922,-0.12272 0.13784,-0.18426c-0.02776,-0.0068 -0.05488,-0.01517 -0.08125,-0.025c-0.01858,0.07008 -0.03744,0.13989 -0.05659,0.20926z" fill="#a455b8" stroke-width="0.5"/><path d="M296.78346,210.62461c0,-0.70436 0.72308,-0.70436 0.72308,-0.70436h0.21424c0.2626,0 0.77349,-0.03019 1.30665,-0.031c0.00387,-0.17789 0.00701,-0.366 0.00742,-0.56678l0.02548,-0.04689l-0.02003,-0.0028l0.10563,-0.72019c0.04508,-0.34682 0.34905,-0.615 0.71732,-0.615c0.31594,0 0.58455,0.19737 0.68297,0.47243l0.00911,0.02367c0.12842,-0.11374 0.29904,-0.18305 0.48628,-0.18305c0.00319,0 0.00638,0.00002 0.00957,0.00005c0.31359,-0.11766 0.69224,-0.04192 1.15215,0.33408c0.11008,0.08999 0.20523,0.18088 0.28664,0.27185c0.1313,-0.17743 0.34529,-0.29293 0.58698,-0.29293c0.39935,0 0.72308,0.31533 0.72308,0.70436c0,0.02978 -0.0019,0.05914 -0.00558,0.08795l-0.10597,0.92897l-0.05998,-0.0065c-0.00406,0.09691 -0.01647,0.19338 -0.03962,0.28927c0.66232,0.07893 1.24361,0.33045 1.34512,0.75298c0.22931,0.95451 -0.01245,1.36995 -0.38742,1.48604c0.1432,0.04902 0.28604,0.10607 0.42861,0.17191l0.1391,-0.27101l0.84298,0.41056c0.24459,0.11295 0.41372,0.35564 0.41372,0.63682c0,0.389 -0.32373,0.70436 -0.72308,0.70436h-0.74987v-0.03607l-0.08835,0.03079c-0.42193,-0.10483 -0.97736,-0.20129 -1.45632,-0.40704c-0.13017,0.18592 -0.34936,0.30797 -0.59781,0.30797c-0.27726,0 -0.51808,-0.15201 -0.63941,-0.37515c-1.38088,0.19532 -2.65132,0.71408 -4.01811,0.98322l-0.8289,0.20186c-0.06087,0.01621 -0.12495,0.02486 -0.19111,0.02486c-0.39935,0 -0.72308,-0.31533 -0.72308,-0.70436c0,-0.23336 0.11651,-0.44023 0.29596,-0.5684l0.85025,-0.62118l0.13651,0.1773c0.22529,-0.1931 0.45533,-0.3676 0.69365,-0.53418c-0.09724,-0.11994 -0.15528,-0.27146 -0.15528,-0.43617c0,-0.148 0.04687,-0.28535 0.12693,-0.39871l0.27461,-0.40124l-0.26531,-0.16153c-0.08074,-0.04739 -0.15119,-0.10969 -0.20734,-0.18302c-0.16889,-0.01484 -0.30783,-0.02942 -0.38415,-0.02942h-0.21424c0,0 -0.72308,0 -0.72308,-0.70436z" fill="#af5ac4" stroke-width="0.5"/><path d="M303.20592,211.94555c-0.14681,0.33368 -0.39449,0.42167 -0.60008,0.4286c-0.10608,0.1534 -0.27249,0.26392 -0.46611,0.29926c-0.01648,0.18136 -0.0364,0.3624 -0.05928,0.54293c0,0 -0.08969,0.69891 -0.80719,0.61155c-0.5424,-0.06605 -0.62351,-0.48156 -0.6308,-0.68044c-0.19818,-0.08531 -0.34962,-0.25481 -0.40656,-0.46195h-0.58694c-0.39935,0 -0.72308,-0.31533 -0.72308,-0.70436c0,-0.26669 0.15216,-0.49876 0.37651,-0.61833l0.73768,-0.41061l0.18254,0.31117c0.01251,-0.00608 0.02496,-0.01208 0.03736,-0.01799l0.06291,-0.49017c0.00682,-0.06024 0.02144,-0.11818 0.04285,-0.17287l-0.12884,-0.50203c-0.01664,-0.0593 -0.02553,-0.12172 -0.02553,-0.18615c0,-0.389 0.32373,-0.70436 0.72308,-0.70436c0.19968,0 0.38045,0.07884 0.5113,0.2063l0.64274,0.62609l-0.01831,0.01784l0.06621,0.03367c0.11285,0.28993 0.36805,0.57912 0.49252,0.86897l0.19725,0.07801c0,0 0.66461,0.27745 0.37977,0.92486z" fill="#be62d5" stroke-width="0.5"/></g><path d="M317.39252,109.30829c21.36493,0 38.68463,16.81323 38.68463,37.55337c0,20.74016 -17.31969,37.55338 -38.68463,37.55338c-21.36493,0 -38.68463,-16.81324 -38.68463,-37.55338c0,-20.74016 17.31969,-37.55337 38.68463,-37.55337z" fill="#e0e0e0" stroke="#000000" stroke-width="0.5" stroke-linecap="butt"/><path d="M281.61915,160.57601c0.19291,0.39526 0.37431,0.79635 0.5418,1.20444c0.06078,0.14809 1.14096,3.5544 1.06555,3.86671c-0.02435,0.10088 -0.05255,0.20043 -0.08409,0.29879l0.05642,0.011l-0.38039,1.85268c-0.1214,0.65842 -0.71248,1.15804 -1.42334,1.15804c-0.60817,0 -1.12865,-0.36569 -1.34237,-0.88364l-0.56534,-1.28495l0.05348,-0.02233l-0.10532,-0.11475c-0.32284,-1.54469 -0.51559,-3.08871 -0.61398,-4.63288c-1.01338,0.13938 -1.45522,-0.86487 -1.45522,-0.86487c-0.16221,-0.3719 -0.33819,-0.73712 -0.52479,-1.09719c-0.14445,0.04716 -0.29908,0.0727 -0.45983,0.0727c-0.66558,0 -1.22615,-0.43799 -1.39451,-1.03423l-0.56913,-1.84796l0.01061,-0.0031l-0.01988,-0.02836c-0.19167,-0.74822 -0.37305,-1.39925 -0.53587,-2.00013c-0.37756,-0.60302 -0.74232,-1.21215 -1.07731,-1.83559c-3.90126,-7.26054 -6.79662,-17.02819 -5.7546,-25.26216l0.19282,-1.50263l0.43827,0.05337l0.52739,-1.21111c0.36897,0.23959 0.76278,0.45125 1.1561,0.66348l0.33583,-0.32713l1.54258,1.50263l-0.02818,0.02746c0.08561,0.07848 0.16815,0.16039 0.24715,0.24628c0.53146,0.57786 0.50626,1.47166 0.72833,2.21672c0.01034,0.03466 0.0207,0.0693 0.03111,0.10393c0.3217,0.01553 0.61575,0.13347 0.84848,0.32103c0.12601,-0.42646 0.25618,-0.86662 0.3767,-1.32738c1.28952,-4.93069 3.63397,-9.18279 5.70035,-13.80726l0.06365,-0.05345l-0.02622,-0.01459l0.75736,-1.29106c0.18246,-0.32484 0.49247,-0.57199 0.86442,-0.67751c0.08034,-0.17244 0.15742,-0.3427 0.22996,-0.51049c1.85692,-4.2953 3.67124,-8.55817 6.00224,-12.64077l0.54344,-1.2352c0.21371,-0.51794 0.7342,-0.88363 1.34237,-0.88363c0.46406,0 0.87707,0.21291 1.14169,0.54393c1.20609,-3.23994 10.17791,-12.98515 10.17791,-12.98515c0,0 1.85012,8.54403 2.18371,9.96824c0.30886,-1.15197 0.88984,-2.24633 1.41555,-3.44253c1.73201,-3.94109 7.64133,-13.80643 7.64133,-13.80643c0,0 1.80348,8.80022 1.82987,11.26648c1.5327,-3.8245 7.85348,-13.46572 7.85348,-13.46572l4.44892,19.5068l4.76429,-11.10924l0.4201,6.99243c1.63346,6.23183 -0.08131,5.74908 1.27857,12.12317c0.05572,0.26114 0.57277,1.63917 0.95211,3.01625c0.12679,-1.23282 0.36133,-4.00286 1.46525,-4.19707c4.01465,-0.70633 6.28801,6.53749 7.43224,9.02587c1.52133,3.59904 2.78061,7.30413 4.35291,10.88203c0.42137,0.95888 1.40894,2.3694 1.9368,3.7226c-0.00048,-0.04977 -0.00109,-0.09953 -0.00194,-0.14925c-0.02742,-1.60898 0.08149,-3.21856 0.19881,-4.82369l0.01266,-0.02651l-0.0098,-0.00106l0.19089,-1.67357c0.07152,-0.71292 0.68859,-1.27003 1.43925,-1.27003c0.60122,0 1.11676,0.35738 1.33493,0.86598l0.75788,1.66106l-0.37582,0.1627c3.56596,6.12105 3.93128,14.91637 5.28908,21.52715l0.37638,1.64984c0.02693,0.10744 0.04121,0.21972 0.04121,0.33526c0,0.77801 -0.64748,1.4087 -1.44617,1.4087c-0.2429,0 -0.47181,-0.05832 -0.67277,-0.1614l-0.87347,-0.42544c-0.4006,0.78335 0.05546,3.82917 0.08825,4.06978c0.64636,4.74017 1.41675,9.47127 2.11069,14.20712l0.37388,1.82098c0.02222,0.09816 0.03394,0.20014 0.03394,0.3048c0,0.77801 -0.64748,1.4087 -1.44617,1.4087c-0.44265,0 -0.83885,-0.19372 -1.10413,-0.49889l-0.59537,-0.67661c-0.26068,0.36962 -0.6977,0.61201 -1.19284,0.61201c-0.72588,0 -1.32685,-0.52095 -1.43039,-1.19996l-0.38173,-2.23109l0.00629,-0.00102c-0.00363,-0.00912 -0.00724,-0.01824 -0.01085,-0.02737c-0.6054,-1.53459 -0.21754,-3.22186 -1.15569,-4.7326c-1.88495,-3.03539 -3.11517,-6.0872 -3.79763,-9.68017c-1.14972,-6.05297 -1.72494,-12.62989 -3.93613,-18.55295c-2.79759,-1.5681 -5.38746,-3.46413 -8.52621,-4.61877c-4.30763,-1.58464 -9.03257,-2.95071 -13.86043,-3.9696c-3.53387,0.9276 -7.23132,1.3423 -10.88442,1.80231c-4.967,0.62547 -9.90679,1.46303 -14.8535,2.24341c-1.26403,2.17618 -2.79715,4.20885 -4.10199,6.59894c-2.19989,4.02957 -3.11846,8.71875 -3.10889,13.23826v1.50263c0,0.77801 -0.64748,1.4087 -1.44617,1.4087c-0.72588,0 -1.32685,-0.52095 -1.43039,-1.19996l-0.38173,-2.23109l0.25901,-0.04205c-0.2369,-0.60064 -0.44717,-1.19839 -0.63882,-1.80066c-0.17398,1.10853 -0.36096,2.12369 -0.41512,2.84232c-0.37818,5.01884 -1.18278,10.06358 -1.02534,15.07651zM270.48528,136.77865c0.00033,0.01752 0.00067,0.03505 0.00104,0.05259c0.00485,-0.00257 0.00972,-0.00509 0.01461,-0.00761c-0.00524,-0.01499 -0.01045,-0.02998 -0.01565,-0.04497zM354.30654,166.69686c0.01742,0.00366 0.03484,0.00731 0.05226,0.01097c-0.00591,-0.03472 -0.01185,-0.06945 -0.01781,-0.10421c-0.01096,0.03116 -0.02244,0.06224 -0.03446,0.09325z" fill="#00cc24" stroke="#000000" stroke-width="0.5" stroke-linecap="butt"/><path d="M308.16526,142.64045c0,4.71127 -3.26362,8.37399 -8.67699,8.37399c-5.41337,0 -9.80179,-3.81924 -9.80179,-8.53051c0,-1.55661 0.69382,-9.32941 3.55969,-9.8574c5.80813,-1.07009 14.9191,6.85925 14.9191,10.01392z" fill="#dca922" stroke="#000000" stroke-width="0.5" stroke-linecap="butt"/><path d="M327.1015,132.12563c2.86588,0.52801 3.55969,8.3008 3.55969,9.8574c0,4.71127 -4.38842,8.53052 -9.80179,8.53052c-5.41337,0 -8.67699,-3.66272 -8.67699,-8.37399c0,-3.15468 9.11097,-11.084 14.9191,-10.01392z" data-paper-data="{&quot;index&quot;:null}" fill="#dca922" stroke="#000000" stroke-width="0.5" stroke-linecap="butt"/><path d="M276.21241,138.18929l3.49467,-3.93406l17.86835,-2.56239l-14.49594,-2.83294l2.42603,-2.04552l23.21833,4.31199z" fill="#000000" stroke="#000000" stroke-width="0.5" stroke-linecap="butt"/><path d="M312.02675,127.15899l22.97657,-5.45544l2.52426,1.92298l-14.33803,3.54667l17.97325,1.67522l3.68503,3.75634z" data-paper-data="{&quot;index&quot;:null}" fill="#000000" stroke="#000000" stroke-width="0.5" stroke-linecap="butt"/><g fill="#6a5210" stroke="none" stroke-width="0" stroke-linecap="butt"><path d="M305.02711,141.53733c0,3.37137 -1.97838,6.1044 -4.41885,6.1044c-2.44045,0 -4.41884,-2.73304 -4.41884,-6.1044c0,-3.37137 1.97838,-6.1044 4.41884,-6.1044c2.44045,0 4.41885,2.73304 4.41885,6.1044z"/><path d="M326.55898,142.16341c0,3.37137 -1.97838,6.1044 -4.41884,6.1044c-2.44045,0 -4.41884,-2.73304 -4.41884,-6.1044c0,-3.37137 1.97838,-6.1044 4.41884,-6.1044c2.44045,0 4.41884,2.73304 4.41884,6.1044z"/></g><path d="M311.64494,158.48338c0.52915,1.18202 -0.52915,1.77301 -0.52915,1.77301l-0.69792,0.30551c-2.38801,0.32879 -4.71174,0.26146 -7.10332,0.70537c-1.87729,0.15745 -4.07637,0.56134 -5.6486,-1.0161c-2.59106,-2.59964 -3.71112,-7.59896 0.14481,-9.43755c2.24321,-1.0696 5.37743,-1.01507 7.75198,-0.62175c0.73205,0.12126 1.47556,0.85858 2.16387,0.55489c0.21249,-0.09376 1.09147,-4.72397 1.23885,-5.38436c0,0 0.28698,-1.28207 1.43488,-0.96156c1.1479,0.32052 0.86092,1.60258 0.86092,1.60258c-0.35953,1.60182 -0.88916,6.08983 -2.23193,6.94986c-1.23942,0.79383 -2.6203,0.05533 -3.83112,-0.14992c-1.77766,-0.30135 -3.37121,-0.13869 -5.13966,0.17301c-0.56838,0.10018 -2.34292,0.40244 -2.53932,1.37551c-0.13553,0.67151 0.63867,2.09517 0.83191,2.46039c1.23344,2.33125 2.4101,2.0315 4.67789,1.83123c2.38634,-0.44552 4.71699,-0.36707 7.09535,-0.70427l-0.06687,-0.04689c0,0 1.0583,-0.591 1.58746,0.591z" fill="#878787" stroke="none" stroke-width="0.5" stroke-linecap="butt"/><path d="M332.16804,272.51921l0.83312,50.98183" data-paper-data="{&quot;index&quot;:null}" fill="none" stroke="#000000" stroke-width="3.5" stroke-linecap="round"/><g data-paper-data="{&quot;index&quot;:null}" stroke="#2c0050" stroke-width="3.5" stroke-linecap="butt"><path d="M321.34668,353.38474c0,0 -1.03053,-4.54193 -1.19645,-6.96836c-0.15095,-2.20774 7.52463,-2.26834 7.40596,-4.00407c-0.24914,-3.6434 -1.77321,-11.89356 -1.77321,-11.89356l15.49542,-1.52146l0.86773,23.21983z" fill="#500190"/><path d="M324.76072,329.90819c-0.12776,-1.86847 3.50283,-4.35729 8.18213,-4.73772c2.37366,-0.19297 6.24178,-3.25583 7.82292,-2.75288c1.53584,0.48853 0.88929,5.56753 0.95222,6.48818c0.12776,1.86847 -3.56197,3.69155 -8.24127,4.072c-4.67928,0.38042 -8.57617,-0.82587 -8.70392,-2.69435z" fill="#979025"/></g><path d="M338.17636,171.6961c-0.31623,-0.94868 0.63246,-1.26491 0.63246,-1.26491l-0.01588,0.11658c2.41644,-2.02124 -0.97035,-5.29805 -2.62413,-6.47916c0,0 -0.81373,-0.58124 -0.2325,-1.39497c0.58124,-0.81373 1.39497,-0.2325 1.39497,-0.2325c2.97418,2.12469 5.92611,6.16984 2.87587,9.52084l-0.76588,0.36658c0,0 -0.94868,0.31623 -1.26491,-0.63246z" fill="#878686" stroke="none" stroke-width="0.5" stroke-linecap="butt"/><path d="M300.98641,174.29427c-0.1644,0.98639 -1.15079,0.82199 -1.15079,0.82199l-0.84872,-0.14663c-5.40338,-1.47866 -6.49311,-3.65836 -5.07665,-8.85288c0,0 0.26312,-0.96476 1.22788,-0.70165c0.96476,0.26312 0.70165,1.22788 0.70165,1.22788c-1.14627,4.20233 -0.7674,5.19042 3.67335,6.39712l0.65128,0.10337c0,0 0.98639,0.1644 0.82199,1.15079z" fill="#878686" stroke="none" stroke-width="0.5" stroke-linecap="butt"/><path d="M333.11141,166.46547c0.1644,0.98639 -0.82199,1.15079 -0.82199,1.15079l-0.9144,0.13861c-3.25358,0 -6.56358,0.95526 -9.81638,1.358c-7.21557,1.79787 -15.30129,0.93891 -22.69819,1.76089c0,0 -0.99388,0.11043 -1.10432,-0.88345c-0.11043,-0.99388 0.88345,-1.10432 0.88345,-1.10432c7.33682,-0.8151 15.39895,0.05522 22.55181,-1.73911c3.37213,-0.42534 6.80514,-1.392 10.18362,-1.392l0.5856,-0.11139c0,0 0.98639,-0.1644 1.15079,0.82199z" fill="#8a0000" stroke="none" stroke-width="0.5" stroke-linecap="butt"/><path d="M145.73071,270.08203c0,0 28.85679,-3.34883 28.89759,4.60767c0.04191,8.17305 -14.10401,23.87386 -14.10401,23.87386" fill="none" stroke="#000000" stroke-width="3.5" stroke-linecap="round"/><path d="M106.99114,271.52242c0,0 9.50464,12.79732 9.46323,20.87372c-0.04133,8.05894 -9.38125,26.872 -9.38125,26.872" fill="none" stroke="#000000" stroke-width="3.5" stroke-linecap="round"/><g data-paper-data="{&quot;index&quot;:null}" stroke="#121312" stroke-width="3.5" stroke-linecap="butt"><path d="M95.03482,343.9153l2.63387,-21.94813l15.9087,2.70646c0,0 -2.19295,7.69916 -2.72305,11.13381c-0.25253,1.63629 7.6796,2.31972 7.3584,4.40096c-0.35304,2.28739 -1.75832,6.51037 -1.75832,6.51037z" fill="#383838"/><path d="M114.63951,324.53286c-0.27185,1.76141 -4.39151,2.58751 -9.2015,1.84516c-4.81001,-0.74236 -8.4889,-2.77207 -8.21705,-4.53348c0.13394,-0.86791 -0.15474,-5.73696 1.46987,-6.07496c1.67254,-0.34799 5.44315,2.87191 7.88312,3.24848c4.81001,0.74236 8.33744,3.75339 8.06559,5.5148z" fill="#979025"/></g><g stroke="#121312" stroke-width="3.5" stroke-linecap="butt"><path d="M152.44664,325.29654l1.306,-22.06699l16.04292,1.74253c0,0 -1.72485,7.81736 -2.04692,11.27772c-0.15344,1.64852 7.80548,1.85257 7.61031,3.94938c-0.2145,2.30452 -1.36265,6.60453 -1.36265,6.60453z" fill="#383838"/><path d="M170.84725,304.76754c-0.16517,1.77459 -4.22753,2.84753 -9.07354,2.39648c-4.846,-0.45105 -8.64058,-2.25529 -8.4754,-4.02988c0.08139,-0.8744 -0.50031,-5.71719 1.10098,-6.15252c1.64852,-0.44817 5.60637,2.53854 8.06459,2.76735c4.846,0.45105 8.54855,3.24397 8.38338,5.01856z" fill="#979025"/></g><g><path d="M145.09954,204.02115l54.28765,-27.43504" data-paper-data="{&quot;index&quot;:null}" fill="none" stroke="#383838" stroke-width="3.5" stroke-linecap="round"/><g data-paper-data="{&quot;index&quot;:null}" fill="#393839" stroke="#131313" stroke-width="2.5" stroke-linecap="butt"><path d="M199.02216,176.85989c-0.51615,-4.30789 0.66501,-7.99998 2.6382,-8.24651c1.97319,-0.24653 3.99121,3.04583 4.50737,7.35372c0.51615,4.30789 -0.66501,7.99998 -2.6382,8.24651c-1.97319,0.24653 -3.99121,-3.04583 -4.50737,-7.35372z"/><path d="M203.34067,177.12275c-0.51615,-4.30789 0.66501,-7.99998 2.6382,-8.24651c1.97319,-0.24653 3.99121,3.04583 4.50737,7.35372c0.51615,4.30789 -0.66501,7.99997 -2.6382,8.24651c-1.97319,0.24653 -3.99121,-3.04583 -4.50737,-7.35371z"/><path d="M207.26205,176.15831c-0.51615,-4.30789 0.66501,-7.99998 2.6382,-8.24651c1.97319,-0.24653 3.99122,3.04584 4.50737,7.35372c0.51615,4.30789 -0.66501,7.99997 -2.6382,8.24651c-1.97319,0.24653 -3.99121,-3.04583 -4.50737,-7.35372z"/><path d="M198.34391,171.88407c-0.66579,-1.91276 2.04081,-4.64171 6.04538,-6.09526c4.00456,-1.45355 7.79063,-1.08129 8.45643,0.83147c0.66579,1.91276 -2.04083,4.6417 -6.04538,6.09526c-4.00456,1.45355 -7.79063,1.08129 -8.45642,-0.83147z" data-paper-data="{&quot;index&quot;:null}"/></g></g><g stroke="none" stroke-width="0" stroke-linecap="butt"><path d="M99.39377,271.07498v-77.31539h54.11557v77.31539z" fill="#000000"/><path d="M99.31047,262.29276v-8.11178h54.11557v8.11178z" fill="#a17f00"/><g fill="#ca9e00"><path d="M120.94869,262.29077v-13.43514h3.55972v13.43514z"/><path d="M121.68552,262.40387v-7.6048h10.35556v7.6048z"/><path d="M129.20076,259.75583v-11.40718h2.9125v11.40718z"/><path d="M129.56558,258.02757v-3.05389h15.66664l-1.94931,6.56019c0,0 -0.76046,-4.47214 -3.0715,-3.71266c-2.49998,0.82158 -2.79143,2.92091 -4.29254,2.92091c-0.54892,0 -0.41234,-2.17348 -1.26289,-2.52247c-0.8012,-0.32874 -1.08222,2.40806 -1.98558,2.41503c-1.29357,0.00997 -3.10482,-2.60713 -3.10482,-2.60713z"/><path d="M121.09237,260.59423c-0.90336,-0.00696 -1.18438,-2.74376 -1.98558,-2.41503c-0.85055,0.34899 -0.71397,2.52246 -1.26289,2.52246c-1.50111,0 -1.79256,-2.09933 -4.29255,-2.92091c-2.31104,-0.75948 -3.0715,3.71266 -3.0715,3.71266l-1.9493,-6.56019h15.66664v3.05389c0,0 -1.81125,2.61711 -3.10482,2.60713z" data-paper-data="{&quot;index&quot;:null}"/></g><g fill="#ca9e00"><path d="M119.7078,220.1692l0.11076,-21.91813h4.02574l0.11076,21.91813z"/><path d="M120.58694,220.3442v-11.76627h12.35568v11.76627z"/><path d="M129.55372,216.24711v-17.6494h3.47503v17.6494z"/><path d="M129.98899,213.57313v-4.72503h18.69257l-2.3258,10.15004c0,0 -0.90734,-6.91936 -3.66474,-5.74428c-2.98284,1.27115 -3.33059,4.51928 -5.12163,4.51928c-0.65494,0 -0.49198,-3.36285 -1.50681,-3.9028c-0.95594,-0.50862 -1.29124,3.72581 -2.36908,3.73658c-1.54342,0.01543 -3.70451,-4.0338 -3.70451,-4.0338z"/><path d="M119.87923,217.54429c-1.07784,-0.01077 -1.41314,-4.24519 -2.36908,-3.73657c-1.01483,0.53995 -0.85187,3.9028 -1.50681,3.9028c-1.79104,0 -2.13878,-3.24812 -5.12163,-4.51927c-2.7574,-1.17508 -3.66474,5.74428 -3.66474,5.74428l-2.3258,-10.15004h18.69257v4.72502c0,0 -2.16109,4.04923 -3.70451,4.0338z" data-paper-data="{&quot;index&quot;:null}"/></g></g><g stroke="none" stroke-linecap="butt"><path d="M168.56372,151.1446c0,22.08422 -17.96444,39.98703 -40.12469,39.98703c-22.16026,0 -40.12469,-17.9028 -40.12469,-39.98703c0,-22.08422 17.96444,-39.98702 40.12469,-39.98702c22.16026,0 40.12469,17.90279 40.12469,39.98702z" fill="#000000" stroke-width="0"/><path d="M149.54881,143.7396l0.64458,-38.83513l10.31318,-24.02512v62.86025z" fill="#000000" stroke-width="0"/><path d="M95.45044,145.4319v-62.86024l10.31318,24.02512l0.64457,38.83512z" data-paper-data="{&quot;index&quot;:null}" fill="#000000" stroke-width="0"/><path d="M111.51898,182.90383l-7.09031,-21.72134h51.24359l-8.37945,20.73401z" fill="#d9b796" stroke-width="0"/><path d="M111.84127,151.80282c0,2.81732 -4.32878,5.10122 -9.6686,5.10122c-5.33982,0 -9.6686,-2.2839 -9.6686,-5.10122c0,-2.81732 4.32878,-5.10122 9.6686,-5.10122c5.33982,0 9.6686,2.2839 9.6686,5.10122z" fill="#ffffff" stroke-width="0"/><path d="M163.13063,152.83691c0,2.81732 -4.32878,5.10122 -9.6686,5.10122c-5.33982,0 -9.6686,-2.2839 -9.6686,-5.10122c0,-2.81732 4.32878,-5.10123 9.6686,-5.10123c5.33982,0 9.6686,2.2839 9.6686,5.10123z" fill="#ffffff" stroke-width="0"/><path d="M143.58869,171.70569c0,1.27647 -1.25,1.27647 -1.25,1.27647h-1.24118c-8.05477,0 -16.04077,0.50699 -24.07895,0.50699c0,0 -1.25,0 -1.25,-1.27647c0,-1.27647 1.25,-1.27647 1.25,-1.27647c8.03765,0 16.02432,-0.50699 24.07895,-0.50699h1.24118c0,0 1.25,0 1.25,1.27647z" fill="#000000" stroke-width="0.5"/><path d="M143.41222,175.72866c-0.46424,-1.18518 0.69636,-1.65925 0.69636,-1.65925l1.07607,-0.42469c1.73066,-1.43017 3.14702,-3.49456 0.90224,-5.45851c-0.51696,-0.45229 -2.43233,0.08774 -3.00658,0.20828c0,0 -1.22573,0.25034 -1.47087,-1.00134c-0.24515,-1.25169 0.98058,-1.50202 0.98058,-1.50202c1.41538,-0.28249 3.63322,-0.74003 4.93699,0.20828c1.66902,1.21396 2.86113,4.75068 1.89704,6.66396c-0.72393,1.43665 -1.80953,2.13773 -2.9807,3.08712l-1.40629,0.58929c0,0 -1.1606,0.47407 -1.62484,-0.71111z" fill="#000000" stroke-width="0.5"/><path d="M118.5168,176.26857c0,1.27647 -1.25,1.27647 -1.25,1.27647l-1.23809,-0.02478c-6.01717,-1.25318 -7.03908,-9.62748 -0.49648,-11.12213c0,0 1.22573,-0.25034 1.47087,1.00134c0.24514,1.25169 -0.98058,1.50202 -0.98058,1.50202c-4.067,0.67403 -2.77793,5.46245 0.49648,6.11541l0.7478,-0.02478c0,0 1.25,0 1.25,1.27647z" fill="#000000" stroke-width="0.5"/><path d="M136.02371,166.27095c-2.48264,2.38579 -5.88291,1.64438 -9.03295,1.11698c0,0 -1.23299,-0.20985 -1.02749,-1.46895c0.2055,-1.2591 1.43849,-1.04925 1.43849,-1.04925c2.02027,0.35026 5.35568,1.29235 6.85419,-0.40398l0.56579,-0.7896c-0.49478,-2.26376 -1.52111,-4.34868 -1.90785,-6.71671c0,0 -0.20549,-1.2591 1.0275,-1.46895c1.23299,-0.20985 1.43849,1.04925 1.43849,1.04925c0.40843,2.5042 1.48298,4.62447 1.97863,7.05732l0.02427,0.50383c0,0 0.00001,0.74284 -0.55493,1.09516z" fill="#000000" stroke-width="0.5"/></g><g><path d="M149.54372,233.60787l-49.49207,-35.6604" fill="none" stroke="#383838" stroke-width="3.5" stroke-linecap="round"/><g fill="#393839" stroke="#131313" stroke-width="2.5" stroke-linecap="butt"><path d="M154.78895,226.72443c1.91231,0.5545 2.52146,4.38848 1.36056,8.56345c-1.1609,4.17496 -3.65223,7.10993 -5.56453,6.55544c-1.91231,-0.5545 -2.52146,-4.38848 -1.36056,-8.56345c1.1609,-4.17496 3.65223,-7.10993 5.56453,-6.55544z"/><path d="M159.09546,227.14516c1.91231,0.5545 2.52146,4.38849 1.36056,8.56345c-1.1609,4.17496 -3.65223,7.10994 -5.56453,6.55545c-1.91231,-0.5545 -2.52146,-4.3885 -1.36056,-8.56347c1.1609,-4.17496 3.65223,-7.10992 5.56453,-6.55544z"/><path d="M162.82414,228.71594c1.91231,0.5545 2.52146,4.38849 1.36056,8.56345c-1.1609,4.17496 -3.65223,7.10993 -5.56453,6.55544c-1.91231,-0.5545 -2.52146,-4.38848 -1.36056,-8.56345c1.1609,-4.17496 3.65223,-7.10992 5.56453,-6.55544z"/><path d="M156.28323,238.60016c3.73697,2.06713 5.99882,5.18988 5.05198,6.97481c-0.94684,1.78494 -4.74381,1.55619 -8.48079,-0.51095c-3.73697,-2.06713 -5.99881,-5.18987 -5.05198,-6.97481c0.94684,-1.78494 4.74382,-1.5562 8.48079,0.51093z" data-paper-data="{&quot;index&quot;:null}"/></g></g></g></svg>