<svg version="1.1" xmlns="http://www.w3.org/2000/svg" xmlns:xlink="http://www.w3.org/1999/xlink" width="480" height="360" viewBox="0,0,480,360"><g data-paper-data="{&quot;isPaintingLayer&quot;:true}" fill-rule="nonzero" stroke-linejoin="miter" stroke-miterlimit="10" stroke-dasharray="" stroke-dashoffset="0" style="mix-blend-mode: normal"><path d="M0,360v-360h480v360z" fill="#ffffff" stroke="none" stroke-width="0" stroke-linecap="butt"/><g><path d="M150.33857,206.86357l46.31455,-39.03717" data-paper-data="{&quot;index&quot;:null}" fill="none" stroke="#383838" stroke-width="3.5" stroke-linecap="round"/><g data-paper-data="{&quot;index&quot;:null}" fill="#393839" stroke="#131313" stroke-width="2.5" stroke-linecap="butt"><path d="M196.36256,168.17382c-1.50727,-3.97376 -1.2224,-7.76666 0.63629,-8.47166c1.85869,-0.70501 4.58735,1.94482 6.09463,5.91858c1.50727,3.97376 1.2224,7.76666 -0.63629,8.47166c-1.85869,0.70501 -4.58735,-1.94482 -6.09463,-5.91858z"/><path d="M200.61786,167.39396c-1.50727,-3.97376 -1.2224,-7.76666 0.63629,-8.47166c1.85869,-0.70501 4.58735,1.94482 6.09463,5.91858c1.50727,3.97376 1.22239,7.76665 -0.63629,8.47166c-1.85869,0.70501 -4.58735,-1.94482 -6.09463,-5.91857z"/><path d="M204.20088,165.54162c-1.50727,-3.97376 -1.2224,-7.76666 0.63629,-8.47166c1.85869,-0.70501 4.58736,1.94483 6.09463,5.91858c1.50727,3.97376 1.22239,7.76665 -0.63629,8.47166c-1.85869,0.70501 -4.58735,-1.94482 -6.09463,-5.91858z"/><path d="M194.54188,163.60351c-1.09327,-1.66029 0.89796,-4.901 4.44755,-7.23832c3.54958,-2.33732 7.31335,-2.88618 8.40663,-1.22589c1.09327,1.66029 -0.89798,4.90099 -4.44755,7.23832c-3.54958,2.33732 -7.31335,2.88618 -8.40662,1.22589z" data-paper-data="{&quot;index&quot;:null}"/></g></g><path d="M148.14829,270.2063c0,0 27.65003,-8.91095 29.24137,-1.11511c1.63466,8.00802 -9.17849,26.16562 -9.17849,26.16562" fill="none" stroke="#000000" stroke-width="3.5" stroke-linecap="round"/><path d="M107.32133,271.52241c0,0 6.86299,13.45773 6.82158,21.53413c-0.04133,8.05894 -6.7396,26.21159 -6.7396,26.21159" fill="none" stroke="#000000" stroke-width="3.5" stroke-linecap="round"/><g data-paper-data="{&quot;index&quot;:null}" stroke="#121312" stroke-width="3.5" stroke-linecap="butt"><path d="M98.37264,345.42786l-0.26411,-22.10403l16.12615,0.59905c0,0 -1.16544,7.92009 -1.24102,11.39459c-0.02111,0.97103 3.03739,1.24799 5.28733,1.73607c1.58542,0.34393 2.60312,0.79269 2.58419,1.66299c-0.05034,2.31393 -0.89029,6.68461 -0.89029,6.68461z" fill="#383838"/><path d="M115.26921,323.64417c-0.03876,1.78185 -4.01469,3.14052 -8.88048,3.03468c-4.86581,-0.10583 -8.77889,-1.6361 -8.74014,-3.41796c0.01909,-0.87797 -0.90497,-5.66724 0.66136,-6.21516c1.61254,-0.56409 5.77247,2.1341 8.24074,2.18777c4.86581,0.10583 8.75729,2.62881 8.71854,4.41066z" fill="#979025"/></g><g stroke="#121312" stroke-width="3.5" stroke-linecap="butt"><path d="M165.50084,323.05169l-3.0216,-21.89812l16.07478,-1.4189c0,0 -0.16755,8.00363 0.19125,11.46038c0.17093,1.6468 8.01688,0.29513 8.23429,2.38975c0.23894,2.30211 -0.04877,6.74346 -0.04877,6.74346z" fill="#383838"/><path d="M179.54563,299.32899c0.184,1.77274 -3.59119,3.61715 -8.43214,4.11961c-4.84094,0.50246 -8.91448,-0.5273 -9.09847,-2.30004c-0.09066,-0.87349 -1.60542,-5.50992 -0.11975,-6.24911c1.5295,-0.76099 5.99373,1.39671 8.44938,1.14184c4.84094,-0.50246 9.01698,1.51495 9.20099,3.28768z" fill="#979025"/></g><g stroke="none" stroke-width="0" stroke-linecap="butt"><path d="M99.39375,271.07497v-75.71215h54.11557v75.71215z" fill="#000000"/><path d="M99.31045,262.47486v-7.94357h54.11557v7.94357z" fill="#a17f00"/><g fill="#ca9e00"><path d="M120.94867,262.47291v-13.15654h3.55972v13.15654z"/><path d="M121.6855,262.58367v-7.4471h10.35556v7.4471z"/><path d="M129.20075,259.99054v-11.17064h2.9125v11.17064z"/><path d="M129.56556,258.29812v-2.99056h15.66664l-1.94931,6.42416c0,0 -0.76046,-4.3794 -3.0715,-3.63567c-2.49998,0.80454 -2.79143,2.86034 -4.29254,2.86034c-0.54892,0 -0.41234,-2.12841 -1.26289,-2.47016c-0.8012,-0.32192 -1.08222,2.35813 -1.98558,2.36495c-1.29357,0.00976 -3.10482,-2.55307 -3.10482,-2.55307z"/><path d="M121.09235,260.81155c-0.90336,-0.00682 -1.18438,-2.68686 -1.98558,-2.36495c-0.85055,0.34175 -0.71397,2.47015 -1.26289,2.47015c-1.50111,0 -1.79256,-2.0558 -4.29255,-2.86034c-2.31104,-0.74373 -3.0715,3.63567 -3.0715,3.63567l-1.9493,-6.42416h15.66664v2.99056c0,0 -1.81125,2.56284 -3.10482,2.55307z" data-paper-data="{&quot;index&quot;:null}"/></g><g fill="#ca9e00"><path d="M119.70778,221.22479l0.11076,-21.46363h4.02574l0.11076,21.46363z"/><path d="M120.58692,221.39616v-11.52228h12.35568v11.52228z"/><path d="M129.55371,217.38403v-17.28342h3.47503v17.28342z"/><path d="M129.98897,214.7655v-4.62705h18.69257l-2.3258,9.93957c0,0 -0.90734,-6.77588 -3.66474,-5.62516c-2.98284,1.24479 -3.33059,4.42557 -5.12163,4.42557c-0.65494,0 -0.49198,-3.29312 -1.50681,-3.82187c-0.95594,-0.49807 -1.29124,3.64855 -2.36908,3.6591c-1.54342,0.01511 -3.70451,-3.95015 -3.70451,-3.95015z"/><path d="M119.87921,218.65431c-1.07784,-0.01055 -1.41314,-4.15716 -2.36908,-3.65909c-1.01483,0.52875 -0.85187,3.82187 -1.50681,3.82187c-1.79104,0 -2.13878,-3.18077 -5.12163,-4.42556c-2.7574,-1.15071 -3.66474,5.62516 -3.66474,5.62516l-2.3258,-9.93957h18.69257v4.62704c0,0 -2.16109,3.96526 -3.70451,3.95015z" data-paper-data="{&quot;index&quot;:null}"/></g></g><g stroke="none" stroke-linecap="butt"><path d="M168.56371,153.63151c0,21.62627 -17.96444,39.15784 -40.12469,39.15784c-22.16026,0 -40.12469,-17.53156 -40.12469,-39.15784c0,-21.62627 17.96444,-39.15783 40.12469,-39.15783c22.16026,0 40.12469,17.53155 40.12469,39.15783z" fill="#000000" stroke-width="0"/><path d="M149.54879,146.38006l0.64458,-38.02983l10.31318,-23.52693v61.55676z" fill="#000000" stroke-width="0"/><path d="M95.45042,148.03727v-61.55675l10.31318,23.52693l0.64457,38.02982z" data-paper-data="{&quot;index&quot;:null}" fill="#000000" stroke-width="0"/><path d="M111.51896,184.73217l-7.09031,-21.27092h51.24359l-8.37945,20.30406z" fill="#d9b796" stroke-width="0"/><path d="M111.84125,154.27608c0,2.7589 -4.32878,4.99544 -9.6686,4.99544c-5.33982,0 -9.6686,-2.23654 -9.6686,-4.99544c0,-2.7589 4.32878,-4.99544 9.6686,-4.99544c5.33982,0 9.6686,2.23654 9.6686,4.99544z" fill="#ffffff" stroke-width="0"/><path d="M163.13062,155.28873c0,2.7589 -4.32878,4.99544 -9.6686,4.99544c-5.33982,0 -9.6686,-2.23654 -9.6686,-4.99544c0,-2.7589 4.32878,-4.99545 9.6686,-4.99545c5.33982,0 9.6686,2.23654 9.6686,4.99545z" fill="#ffffff" stroke-width="0"/><path d="M143.58867,173.76624c0,1.25 -1.25,1.25 -1.25,1.25h-1.24118c-8.05477,0 -16.04077,0.49648 -24.07895,0.49648c0,0 -1.25,0 -1.25,-1.25c0,-1.25 1.25,-1.25 1.25,-1.25c8.03765,0 16.02432,-0.49648 24.07895,-0.49648h1.24118c0,0 1.25,0 1.25,1.25z" fill="#000000" stroke-width="0.5"/><path d="M143.4122,177.70579c-0.46424,-1.1606 0.69636,-1.62484 0.69636,-1.62484l1.07607,-0.41588c1.73066,-1.40051 3.14702,-3.4221 0.90224,-5.34532c-0.51696,-0.44291 -2.43233,0.08592 -3.00658,0.20396c0,0 -1.22573,0.24515 -1.47087,-0.98058c-0.24515,-1.22573 0.98058,-1.47087 0.98058,-1.47087c1.41538,-0.27663 3.63322,-0.72468 4.93699,0.20396c1.66902,1.18879 2.86113,4.65217 1.89704,6.52577c-0.72393,1.40686 -1.80953,2.0934 -2.9807,3.0231l-1.40629,0.57707c0,0 -1.1606,0.46424 -1.62484,-0.69636z" fill="#000000" stroke-width="0.5"/><path d="M118.51678,178.2345c0,1.25 -1.25,1.25 -1.25,1.25l-1.23809,-0.02427c-6.01717,-1.22719 -7.03908,-9.42784 -0.49648,-10.8915c0,0 1.22573,-0.24515 1.47087,0.98058c0.24514,1.22573 -0.98058,1.47087 -0.98058,1.47087c-4.067,0.66005 -2.77793,5.34918 0.49648,5.9886l0.7478,-0.02427c0,0 1.25,0 1.25,1.25z" fill="#000000" stroke-width="0.5"/><path d="M136.02369,168.44421c-2.48264,2.33632 -5.88291,1.61028 -9.03295,1.09382c0,0 -1.23299,-0.2055 -1.02749,-1.43849c0.2055,-1.23299 1.43849,-1.02749 1.43849,-1.02749c2.02027,0.343 5.35568,1.26555 6.85419,-0.3956l0.56579,-0.77323c-0.49478,-2.21682 -1.52111,-4.2585 -1.90785,-6.57743c0,0 -0.20549,-1.23299 1.0275,-1.43849c1.23299,-0.2055 1.43849,1.02749 1.43849,1.02749c0.40843,2.45227 1.48298,4.52858 1.97863,6.91098l0.02427,0.49338c0,0 0.00001,0.72744 -0.55493,1.07245z" fill="#000000" stroke-width="0.5"/></g><g><path d="M141.6706,241.92233l-40.35655,-45.16952" fill="none" stroke="#383838" stroke-width="3.5" stroke-linecap="round"/><g fill="#393839" stroke="#131313" stroke-width="2.5" stroke-linecap="butt"><path d="M148.2991,236.536c1.7409,0.9597 1.4889,4.75492 -0.56289,8.47687c-2.05179,3.72193 -5.12637,5.96117 -6.86726,5.00147c-1.7409,-0.9597 -1.4889,-4.75492 0.56289,-8.47687c2.05179,-3.72193 5.12637,-5.96117 6.86726,-5.00147z"/><path d="M152.40221,237.90726c1.7409,0.9597 1.4889,4.75493 -0.56289,8.47687c-2.05179,3.72193 -5.12637,5.96118 -6.86727,5.00148c-1.7409,-0.9597 -1.48889,-4.75494 0.56289,-8.47688c2.05179,-3.72193 5.12637,-5.96116 6.86726,-5.00147z"/><path d="M155.68871,240.24565c1.7409,0.9597 1.4889,4.75493 -0.56289,8.47687c-2.05179,3.72193 -5.12637,5.96117 -6.86726,5.00147c-1.7409,-0.9597 -1.4889,-4.75492 0.56289,-8.47687c2.05179,-3.72193 5.12637,-5.96116 6.86726,-5.00147z"/><path d="M147.13603,248.20325c3.18511,2.81384 4.7002,6.30264 3.38405,7.79244c-1.31615,1.4898 -4.96514,0.41647 -8.15026,-2.39737c-3.18511,-2.81384 -4.70019,-6.30263 -3.38405,-7.79244c1.31615,-1.4898 4.96515,-0.41648 8.15026,2.39736z" data-paper-data="{&quot;index&quot;:null}"/></g></g></g></svg>