<svg version="1.1" xmlns="http://www.w3.org/2000/svg" xmlns:xlink="http://www.w3.org/1999/xlink" width="56.33703" height="56.33702" viewBox="0,0,56.33703,56.33702"><g transform="translate(-24.96523,-264.49816)"><g data-paper-data="{&quot;isPaintingLayer&quot;:true}" fill-rule="nonzero" stroke-linejoin="miter" stroke-miterlimit="10" stroke-dasharray="" stroke-dashoffset="0" style="mix-blend-mode: normal"><g><path d="M24.96523,292.66667c0,-15.55704 12.61147,-28.16851 28.16851,-28.16851c15.55704,0 28.16852,12.61147 28.16852,28.16851c0,15.55704 -12.61147,28.16851 -28.16851,28.16851c-15.55704,0 -28.16851,-12.61147 -28.16851,-28.16851z" fill="#333333" stroke="none" stroke-width="0" stroke-linecap="butt"/><path d="M41.10176,293.37239c0,-6.69882 5.43047,-12.12929 12.12929,-12.12929c6.69882,0 12.12929,5.43047 12.12929,12.12929c0,6.69882 -5.43046,12.12929 -12.12929,12.12929c-6.69882,0 -12.12929,-5.43047 -12.12929,-12.12929z" fill="none" stroke="#ffffff" stroke-width="5" stroke-linecap="butt"/><path d="M52.53172,288.07749l-9.19026,-2.578l1.78401,-8.29949" fill="none" stroke="#ffffff" stroke-width="5" stroke-linecap="round"/><path d="M47.93888,289.75894l-0.24207,-0.06338c-0.00516,-0.00086 -0.01032,-0.00173 -0.01548,-0.00259c-0.24638,0.16958 -0.53916,0.16958 -0.53916,0.16958l-0.30716,-0.03075c-0.35854,-0.09892 -0.74027,-0.1779 -1.13367,-0.24807c0.01424,0.14237 -0.01197,0.30722 -0.10564,0.49455c-0.39025,0.78048 -1.17073,0.39024 -1.17073,0.39024l0.03889,-0.00779c-1.59051,-0.36773 -3.20994,-0.59287 -4.82309,-0.84103c0,0 -0.86246,-0.13268 -0.72978,-0.99515c0.07946,-0.5165 0.42066,-0.6761 0.6816,-0.72103c-0.16394,-0.03965 -0.80521,-0.24412 -0.67987,-0.99618c0.08872,-0.53226 0.4517,-0.68053 0.71584,-0.71618c-0.01933,-0.07217 -0.02962,-0.14802 -0.02962,-0.22628c0,-0.14407 0.03492,-0.27999 0.09675,-0.39976c0.04929,-0.25335 0.22525,-0.70556 0.85342,-0.70556c0.87261,0 0.87261,0.87261 0.87261,0.87261c-0.00088,0.05142 -0.00502,0.10485 -0.01097,0.15951c0.02249,0.0459 0.04106,0.09406 0.0553,0.14405c0.13779,0.13331 0.25831,0.51125 0.25831,0.51125c0,0 0.94303,0.93257 1.42252,1.23566c0.56315,0.35597 1.74594,0.76715 1.74594,0.76715c0,0 3.1644,-0.06025 2.95276,0.78631z" fill="#333333" stroke="none" stroke-width="0.5" stroke-linecap="butt"/></g></g></g></svg>