<svg version="1.1" xmlns="http://www.w3.org/2000/svg" xmlns:xlink="http://www.w3.org/1999/xlink" width="94.98041" height="38.09554" viewBox="0,0,94.98041,38.09554"><g transform="translate(-4.71189,-100.19768)"><g data-paper-data="{&quot;isPaintingLayer&quot;:true}" fill-rule="nonzero" stroke-linecap="butt" stroke-linejoin="miter" stroke-miterlimit="10" stroke-dasharray="" stroke-dashoffset="0" style="mix-blend-mode: normal"><path d="M4.71189,125.40503c0,-22.27079 0,0.59886 0,-11.92083c0,-6.42027 4.98632,-13.28652 13.17664,-13.28652c33.51063,0 49.65892,0 68.36369,0c6.90919,0 13.44008,6.91833 13.44008,13.37433c0,12.48907 0,-10.76098 0,11.56958c0,7.9608 -5.09337,13.15163 -13.44008,13.15163c-33.70155,0 -49.44428,-0.00001 -68.10024,-0.00001c-6.90919,0 -13.44008,-5.07614 -13.44008,-12.88819z" fill="#333333" stroke="none" stroke-width="0"/><text transform="translate(43.66147,124.34166) scale(0.33586,0.33586)" font-size="40" xml:space="preserve" fill="#ffffff" fill-rule="nonzero" stroke="none" stroke-width="1" stroke-linecap="butt" stroke-linejoin="miter" stroke-miterlimit="10" stroke-dasharray="" stroke-dashoffset="0" font-family="Sans Serif" font-weight="normal" text-anchor="start" style="mix-blend-mode: normal"><tspan x="0" dy="0">About</tspan></text><g><path d="M16.2046,119.74545c0,-5.70238 4.62269,-10.32508 10.32508,-10.32508c5.70238,0 10.32508,4.62269 10.32508,10.32508c0,5.70238 -4.62269,10.32508 -10.32508,10.32508c-5.70238,0 -10.32508,-4.62269 -10.32508,-10.32508z" fill="none" stroke="#ffffff" stroke-width="2.5"/><text transform="translate(23.92389,125.37285) scale(0.46895,0.46895)" font-size="40" xml:space="preserve" fill="#ffffff" fill-rule="nonzero" stroke="none" stroke-width="1" stroke-linecap="butt" stroke-linejoin="miter" stroke-miterlimit="10" stroke-dasharray="" stroke-dashoffset="0" font-family="Serif" font-weight="normal" text-anchor="start" style="mix-blend-mode: normal"><tspan x="0" dy="0">i</tspan></text></g></g></g></svg>