<svg version="1.1" xmlns="http://www.w3.org/2000/svg" xmlns:xlink="http://www.w3.org/1999/xlink" width="488.16667" height="368.16667" viewBox="0,0,488.16667,368.16667"><g transform="translate(4.08334,4.08332)"><g data-paper-data="{&quot;isPaintingLayer&quot;:true}" fill-rule="nonzero" stroke-linecap="butt" stroke-linejoin="miter" stroke-miterlimit="10" stroke-dasharray="" stroke-dashoffset="0" style="mix-blend-mode: normal"><path d="M-0.33334,360.33334v-360.66666h480.66667v360.66667z" fill="#ffffff" stroke="#ffffff" stroke-width="7.5"/><path d="M129.01565,360.17363v-107h39v107z" fill="#00fbc1" stroke="none" stroke-width="0"/><g><path d="M226.89923,234.81366c-8.45672,41.95833 -46.84202,69.61743 -85.73598,61.77833c-38.89395,-7.83909 -63.56821,-48.20787 -55.11149,-90.1662c8.45672,-41.95833 46.84203,-69.61742 85.73598,-61.77833c38.89395,7.83909 63.56821,48.20787 55.11149,90.1662z" fill="#000000" stroke="#ffffff" stroke-width="0"/><path d="M242.65458,138.01845c-5.51051,27.34059 -38.50548,43.75471 -73.69633,36.66198c-35.19085,-7.09273 -59.25153,-35.00645 -53.74102,-62.34704c5.51051,-27.34059 38.50548,-43.75471 73.69633,-36.66198c35.19085,7.09273 59.25153,35.00645 53.74102,62.34704z" fill="#ff0000" stroke="#ffffff" stroke-width="0"/><path d="M101.56114,173.0887c-0.27006,-2.48537 2.21531,-2.75543 2.21531,-2.75543l0.41378,0.23722c2.44932,-1.60658 5.20025,-2.98124 8.10937,-4.11771c0.43744,-8.04421 1.24577,-16.14382 2.4595,-23.99409c0.13458,-0.87042 2.09139,-10.45592 2.37253,-10.82327c1.15158,-1.50469 3.25711,-3.17508 5.05959,-2.59087c2.08676,0.67633 2.38529,3.68713 3.71223,5.4339c3.75329,4.94077 7.28379,9.96224 10.7394,15.16243c1.36171,2.04918 2.49524,4.26805 4.07499,6.15425c2.42618,2.89684 5.58009,4.16144 4.12021,9.33183c-1.23117,4.36037 -7.38508,3.07756 -9.91685,2.88996c-5.6037,-0.41521 -11.88955,0.23303 -17.69474,1.98271c-0.14154,2.35781 -0.24416,4.72135 -0.29247,7.09567c-0.03139,1.54242 -0.22219,3.09758 -0.02869,4.62815c0.19712,1.55922 1.12947,2.99167 1.19054,4.56211c0.05926,1.52381 -0.55883,2.99828 -0.83823,4.49742c0,0 -0.49394,2.45072 -2.94466,1.95677c-2.45072,-0.49394 -1.95677,-2.94466 -1.95677,-2.94466c0.98858,-4.45413 -0.49076,-8.117 -0.4214,-12.78721c0.02508,-1.68853 0.06625,-3.38565 0.12386,-5.0884c-1.80878,0.81317 -3.52369,1.75115 -5.10108,2.81539l-2.64096,0.56915c0,0 -2.48537,0.27006 -2.75543,-2.21531z" fill="#000000" stroke="none" stroke-width="0.5"/><path d="M302.89284,183.31305c-2.18238,10.82795 -32.47937,13.85595 -67.67022,6.76322c-35.19085,-7.09273 -61.94951,-21.62032 -59.76713,-32.44827c2.18238,-10.82795 32.47937,-13.85595 67.67022,-6.76322c35.19085,7.09273 61.94951,21.62032 59.76713,32.44827z" fill="#ff0000" stroke="#ffffff" stroke-width="0"/><path d="M210.10751,264.07277c-2.45072,-0.49394 -1.95677,-2.94466 -1.95677,-2.94466l0.39515,-1.96057c0.32313,-1.49034 0.32613,-3.08833 0.96936,-4.47099c0.62877,-1.35162 2.10441,-2.18275 2.75088,-3.52599c0.52144,-1.08344 0.34565,-2.38518 0.65347,-3.54751c1.30005,-4.90893 3.59097,-9.40215 4.86375,-14.29857c-1.16735,-0.76018 -2.32376,-1.52308 -3.45183,-2.30116c-6.40911,-4.42069 -12.681,-9.06963 -18.8782,-13.78341c-4.8685,-3.70313 -9.84427,-7.24925 -14.73374,-10.92419c-4.11223,-3.09075 -7.19515,-5.78162 -11.974,-7.75508c0,0 -2.30625,-0.96499 -1.34128,-3.27123c0.96498,-2.30626 3.27123,-1.34128 3.27123,-1.34128c5.15364,2.18112 8.60964,5.03469 13.04814,8.37067c4.89713,3.68069 9.88069,7.23244 14.75672,10.94155c7.37722,5.61172 14.89117,11.02132 22.5169,16.28635c0.04727,0.00754 0.09533,0.01621 0.14414,0.02605c0.98374,0.19827 1.493,0.71183 1.75021,1.25562c3.06893,2.03064 6.29625,3.99787 9.1066,6.31273c2.5331,2.08647 4.98537,4.28398 7.66368,6.18047c3.61259,2.56326 7.22518,5.12652 10.83776,7.68978l1.00785,-0.01666c0,0 2.45072,0.49394 1.95677,2.94466c-0.49394,2.45072 -2.94466,1.95677 -2.94466,1.95677l-2.91331,-0.80697c-3.61259,-2.56326 -7.22519,-5.12651 -10.83777,-7.68977c-2.74868,-1.95403 -5.28321,-4.19376 -7.8813,-6.34397c-2.10901,-1.74544 -4.39964,-3.34047 -6.73301,-4.88452c-1.32542,4.31752 -3.2176,8.39566 -4.41767,12.79245c-0.38564,1.41289 -0.30386,2.96946 -0.92715,4.29479c-0.63441,1.34898 -2.0977,2.186 -2.75088,3.52599c-0.50043,1.02661 -0.40751,2.24753 -0.61126,3.37131l-0.39515,1.96057c0,0 -0.49394,2.45072 -2.94466,1.95677z" fill="#ff0000" stroke="none" stroke-width="0.5"/></g><g><path d="M203.16016,325.05925c0.60941,-0.13741 1.21579,-0.28107 1.82165,-0.42042c-0.29287,-0.46278 -0.39519,-1.06504 -0.42612,-1.71248c-0.03481,-0.02752 -0.06904,-0.05565 -0.10269,-0.08441c-0.04903,0.11762 -0.10036,0.23427 -0.15407,0.34986c-0.30833,0.66357 -0.7057,1.27581 -1.13878,1.86746zM186.92911,321.4509c0.68447,-0.45996 1.24702,-1.15098 1.98818,-1.52306c1.62416,-0.81537 3.77035,-1.70128 5.97498,-2.46041c5.44284,-7.67461 9.13011,-16.3555 13.7251,-24.5586c0.75539,-1.34686 1.51077,-2.69371 2.26617,-4.04057l0.07247,-0.06774l-0.02046,-0.01364l1.97849,-2.96774c0.44513,-0.68926 1.22011,-1.14551 2.10164,-1.14551c1.1246,0 2.07576,0.74256 2.38994,1.76412l1.56291,4.68873c3.01042,6.40214 3.25229,13.76968 4.1011,20.69254c0.26689,-0.09168 0.57961,-0.14539 0.94606,-0.14539c2.5,0 2.5,2.5 2.5,2.5l-2.24442,3.26632c0.60784,1.68407 0.92918,3.02978 -1.41588,5.42646c-1.35592,1.38576 -3.47253,1.90229 -5.43039,2.56779c-0.15198,0.36793 -0.35033,0.75222 -0.5997,1.15274c-0.32616,0.52387 -2.55506,1.16728 -4.98108,1.73358c-1.54101,0.86743 -3.11848,1.6526 -4.81056,2.12127c-7.85408,2.17541 -16.74949,1.62946 -25.12921,1.32934c-3.28198,0.0795 -6.66784,-0.09751 -9.88877,-0.09751c-3.33334,0 -6.66727,0.0637 -10,0c-1.65315,-0.03159 -3.54803,0.67544 -4.95671,-0.1903c-7.35273,-4.5188 -2.61138,-5.94279 1.59744,-7.54487c0.95607,-0.36392 3.09789,-0.84951 5.21035,-1.28617c-4.754,-3.03418 -8.51897,-7.27725 -13.23783,-10.39853c0,0 -2.08013,-1.38675 -0.69338,-3.46688c1.38675,-2.08013 3.46688,-0.69338 3.46688,-0.69338c4.73405,3.17768 8.76611,7.74449 13.68881,10.75661c0.28596,-0.11387 0.59789,-0.17648 0.92444,-0.17648c0.69036,0 1.31536,0.27983 1.76776,0.73224l1.4666,1.4666c0.39924,0.14297 0.80538,0.27365 1.21903,0.39094c2.34518,0.36008 6.2283,0.31538 7.5325,0.34312c2.49143,0.05299 4.69997,0.05132 6.92755,-0.15562zM209.37612,314.13413c0.21409,-0.18119 0.39386,-0.41307 0.54564,-0.70984c-0.01703,-0.38581 -0.03755,-0.77306 -0.06023,-1.16062c-0.14448,0.45707 -0.2758,0.91767 -0.39098,1.38272c-0.04003,0.16161 -0.07105,0.32424 -0.09443,0.48773zM215.46069,312.83654c-0.10689,0.49435 -0.24684,0.96975 -0.41933,1.42329c0.3162,-0.09064 0.63293,-0.17873 0.9502,-0.26389c-0.19618,-0.37953 -0.37197,-0.76624 -0.53086,-1.1594zM195.26168,325.39274c-0.09252,0.1103 -0.18623,0.21915 -0.28137,0.32639c0.18105,0.00845 0.3621,0.01711 0.54312,0.02554l0.15408,-0.46223c-0.13808,0.03776 -0.2767,0.07451 -0.41582,0.1103zM214.60193,292.582l-0.08797,0.02932c-0.22425,0.4006 -0.44849,0.80122 -0.67274,1.20182c0.42638,0.14911 0.80004,0.41047 1.08556,0.74867c-0.14679,-0.64745 -0.26183,-1.30201 -0.32484,-1.97981z" fill="#00fbc1" stroke="none" stroke-width="0.5"/><path d="M259.19543,308.17363c0,18.2254 -13.69555,33 -30.58988,33c-16.89433,0 -30.58989,-14.7746 -30.58989,-33c0,-18.2254 13.69556,-33 30.58989,-33c16.89433,0 30.58988,14.7746 30.58988,33z" fill="#000000" stroke="#ffffff" stroke-width="0"/></g><text transform="translate(152.01564,38.17362) scale(0.5,0.5)" font-size="40" xml:space="preserve" fill="#000000" fill-rule="nonzero" stroke="none" stroke-width="1" stroke-linecap="butt" stroke-linejoin="miter" stroke-miterlimit="10" stroke-dasharray="" stroke-dashoffset="0" font-family="Sans Serif" font-weight="normal" text-anchor="start" style="mix-blend-mode: normal"><tspan x="0" dy="0">I'm The Real Gabe!</tspan></text></g></g></svg>