<svg version="1.1" xmlns="http://www.w3.org/2000/svg" xmlns:xlink="http://www.w3.org/1999/xlink" width="56.33702" height="48.94858" viewBox="0,0,56.33702,48.94858"><g transform="translate(-25.6319,-82.97123)"><g data-paper-data="{&quot;isPaintingLayer&quot;:true}" fill="#0021ff" fill-rule="nonzero" stroke="none" stroke-width="0" stroke-linecap="butt" stroke-linejoin="miter" stroke-miterlimit="10" stroke-dasharray="" stroke-dashoffset="0" style="mix-blend-mode: normal"><g><path d="M25.6319,102.92279c0,-2.68147 2.17376,-4.85523 4.85523,-4.85523c2.68147,0 4.85523,2.17376 4.85523,4.85523c0,2.68147 -2.17376,4.85523 -4.85523,4.85523c-2.68147,0 -4.85523,-2.17376 -4.85523,-4.85523z"/><path d="M28.62596,102.92279c0,-1.64293 -0.80238,-3.33803 0.44647,-4.21657c0.78943,-0.55535 3.37022,-0.63866 4.40876,-0.63866c2.68147,0 4.85523,2.17376 4.85523,4.85523c0,2.68147 -2.17376,4.85523 -4.85523,4.85523c-2.68147,0 -4.85523,-2.17376 -4.85523,-4.85523z"/><path d="M25.6319,126.87526c0,-2.68147 2.17376,-4.85523 4.85523,-4.85523c2.68147,0 4.85523,2.17376 4.85523,4.85523c0,1.76771 0.75465,3.55753 -0.65741,4.40665c-0.72992,0.43892 -3.28406,0.44859 -4.19782,0.44859c-2.68147,0 -4.85523,-2.17376 -4.85523,-4.85523z"/><path d="M28.62596,126.87526c0,-2.68147 2.17376,-4.85523 4.85523,-4.85523c2.68147,0 4.85523,2.17376 4.85523,4.85523c0,2.68147 -2.17376,4.85523 -4.85523,4.85523c-2.68147,0 -4.85523,-2.17376 -4.85523,-4.85523z"/><path d="M25.71282,127.44171v-24.92352h12.46176v24.92352z"/></g><path d="M41.4114,130.51669l0.08092,-31.0035c0,0 1.00792,-2.96371 2.44247,-3.04513c0.37322,-0.53886 3.27092,-2.31975 9.80116,-11.51115c1.45614,-2.04953 8.44667,-2.67021 8.7982,-1.11203c0.65068,2.28266 -1.33435,4.45916 -1.90805,6.54529c-1.17988,4.29039 -2.2591,7.53255 -1.83656,7.69539c0.79044,0.30462 16.24142,-0.03927 18.45948,0.22819c0.6221,0.07502 3.30403,0.34565 4.18558,1.58039c1.04046,1.45733 0.2408,3.90784 0.2408,3.90784c0,0 -2.36384,15.75431 -3.20667,21.65613c-0.40456,2.83287 -4.80446,6.35331 -4.80446,6.35331c0,0 -25.83309,0.19885 -30.55526,0.05791c-1.05699,-0.03155 -1.6976,-1.35264 -1.6976,-1.35264z"/></g></g></svg>