<svg version="1.1" xmlns="http://www.w3.org/2000/svg" xmlns:xlink="http://www.w3.org/1999/xlink" width="480" height="361.22699" viewBox="0,0,480,361.22699"><g transform="translate(0,0.6135)"><g data-paper-data="{&quot;isPaintingLayer&quot;:true}" stroke-miterlimit="10" stroke-dasharray="" stroke-dashoffset="0" style="mix-blend-mode: normal"><path d="M0,360.6135v-361.22699h480v361.22699z" fill="#ffffff" fill-rule="nonzero" stroke="none" stroke-width="0" stroke-linecap="butt" stroke-linejoin="miter"/><g data-paper-data="{&quot;index&quot;:null}" fill-rule="evenodd"><path d="M372.92103,200.8c2.4,-0.5 5.3,-1.3 7.7,-3.5c5.5,-4.9 7.2,-13 11,-10.9c3.9,2.1 3.8,15.2 -8.4,19.2c-4.2,1.4 -8,1.4 -11.1,1.3c-0.8,0 -7.7,-0.7 -10.1,-4.1c-2.4,-3.4 -0.7,-4.3 0.1,-4.7c0.9,-0.5 7.4,3.3 10.8,2.7z" fill="#ffab19" stroke="#001026" stroke-width="1.2" stroke-linecap="round" stroke-linejoin="round"/><path d="M391.02103,186.6c2,0.6 3,4.8 2,8.3c-1,3.5 -2.6,5.3 -3.9,6.6c0.2,-0.7 0.6,-2.9 -1.1,-4.2c-2.1,-1.7 -5.8,-0.8 -5.8,-0.8c0,0 3.1,-3.8 4.7,-6.5c1.6,-2.3 2.1,-3.8 4.1,-3.4z" fill="#ffffff" stroke="none" stroke-width="1" stroke-linecap="butt" stroke-linejoin="miter"/></g><path d="M356.82103,201.6c3.7,-3.2 8.3,0.5 10.3,2c2,1.5 3,2.4 7.3,4.6c1.7,0.9 3.9,1.7 5.1,2.1c0.5,0.1 1,0.1 1.5,-0.1c0.9,-0.4 2.6,-1.1 4.5,0.3c4.2,3.7 -5.7,17.8 -11,16.1c-5.5,-1.7 -2.4,-6.5 -0.7,-8.9c0.2,-0.4 0,-0.9 -0.4,-1l-0.4,-0.1c-7.9,-2.5 -14.1,-6.9 -15.9,-8.1c-1.7,-1.2 -3.5,-4.2 -0.3,-6.9z" data-paper-data="{&quot;index&quot;:null}" fill="#ffab19" fill-rule="evenodd" stroke="#001026" stroke-width="1.2" stroke-linecap="round" stroke-linejoin="round"/><path d="M346.42103,189.7c0,2.6 -2.1,5.3 -3.3,6.9c-1.2,1.6 -6.8,7.5 -13.7,4.4c-2.9,-1.5 -9.7,-7.1 -6.1,-10.4c3.6,-3.3 6.9,0.8 9.3,2.9c2,1.8 8.1,-5.4 8.6,-5.8c1.7,-1.5 5.1,-0.8 5.2,2z" data-paper-data="{&quot;index&quot;:null}" fill="#ffab19" fill-rule="evenodd" stroke="#001026" stroke-width="1.2" stroke-linecap="round" stroke-linejoin="round"/><g data-paper-data="{&quot;index&quot;:null}" fill-rule="evenodd"><path d="M348.62103,203.7c-1.2,-0.9 -2.4,-2.4 -4,-4.7c-1.3,-1.9 -2.7,-5.6 -2.7,-5.6c-0.9,-2.5 -1.5,-7.3 1.8,-7.2c2.2,0.1 4.2,-0.2 7.6,-0.7c6,-1.2 7.1,-2 9.6,2.1c2.7,4.8 9.6,8.3 1.1,16.6c0,0 -4.9,3.8 -10.8,9.6c-4,3.9 -10.3,9.5 -12.5,11.4c-0.5,0.4 -1.1,0.6 -1.7,0.7c-9.7,0.9 -16.9,-0.1 -16.9,-4.4c0,-7.2 14.3,-4.7 14.3,-4.7c0,0 4.6,-3.9 6.7,-5.8z" fill="#ffab19" stroke="#001026" stroke-width="1.2" stroke-linecap="round" stroke-linejoin="round"/><path d="M344.22103,197c0,0 -1.9,-2.5 2.4,-5.2c4.5,-2.9 6.2,0.3 8,2.7c2,3.1 0,4.6 -2,6.4c-1.6,1.5 -3.1,2.7 -3.1,2.7c0,0 -3.1,-2.1 -5.3,-6.6z" fill="#ffffff" stroke="none" stroke-width="1" stroke-linecap="butt" stroke-linejoin="miter"/></g><path d="M364.52103,193.8c-1.1,-0.7 -2.6,-1.9 -4.1,-3c-2.5,-1.8 -6.1,-5.8 -1.1,-7.6c4,-1.5 7.6,1.3 11.9,4.4c2.2,1.7 4.8,3.7 3.9,6.8c-1,3.5 -5.9,13.5 -11.8,10.2c-4.3,-2.9 -0.9,-6.4 1.3,-9.2c0.3,-0.5 0.2,-1.1 -0.1,-1.6z" data-paper-data="{&quot;index&quot;:null}" fill="#ffab19" fill-rule="evenodd" stroke="#001026" stroke-width="1.2" stroke-linecap="round" stroke-linejoin="round"/><path d="M341.72103,136c2.3,-0.4 4.7,-0.6 7.5,-0.4c4.7,0.2 9.2,1.9 9.2,1.9l12.1,-7.9c0.4,-0.2 0.9,0.1 0.8,0.5l-2.1,17.9c-0.6,-0.8 10.6,12.8 3.5,24.2c-7.1,11.4 -22.2,16.5 -41,12.8c-18.8,-3.7 -23.2,-14.5 -22,-20.2c1.2,-5.7 8.3,-7.8 8.3,-7.8c0,0 0.1,-4.5 3.3,-10c1.9,-3.3 8.3,-8 8.3,-8l2.6,-10.7c0.1,-0.4 0.6,-0.5 0.9,-0.3z" fill="#ffab19" fill-rule="evenodd" stroke="#001026" stroke-width="1.2" stroke-linecap="butt" stroke-linejoin="miter"/><path d="M334.82102,162.3c8.4,0.6 19.9,-8.5 26.6,2.2c6.7,10.6 -4.8,25 -29,20c-18.6,-3.6 -23.4,-13.9 -22.2,-19.6c1.2,-5.7 8.1,-7.5 8.1,-7.5c8.5,-1.9 9.3,4.4 16.5,4.9z" fill="#ffffff" fill-rule="evenodd" stroke="none" stroke-width="1" stroke-linecap="butt" stroke-linejoin="miter"/><path d="M334.61547,167.51464c10.5,-0.6 14.3,6.9 15.2,9.6c0.2,0.5 -0.2,1 -0.7,0.9c-1.5,-0.3 -4.7,-0.6 -10.1,-0.3c-6,0.4 -11.4,2 -13.3,2.7c-0.4,0.1 -0.8,-0.2 -0.8,-0.6c-0.3,-4.9 0.6,-11.3 9.7,-12.3z" fill="#ffffff" fill-rule="evenodd" stroke="#001026" stroke-width="1.2" stroke-linecap="round" stroke-linejoin="round"/><path d="M311.82102,162.4c0,0 -7.2,-0.1 -11.9,-3.9" fill="none" fill-rule="evenodd" stroke="#001026" stroke-width="1.2" stroke-linecap="round" stroke-linejoin="round"/><path d="M311.42103,168.3c0,0 -3.9,1.9 -10.2,1.4" fill="none" fill-rule="evenodd" stroke="#001026" stroke-width="1.2" stroke-linecap="round" stroke-linejoin="round"/><path d="M339.82103,161c0,1.6 -4.2,4.1 -6,3.9c-1.6,-0.1 -3.1,-2.9 -3,-4.3c0.1,-0.7 2.3,-0.9 4.4,-0.9c2,0 4.7,0.1 4.6,1.3z" fill="#001026" fill-rule="evenodd" stroke="#001026" stroke-width="1.2" stroke-linecap="round" stroke-linejoin="round"/><path d="M368.12103,164.1c3.5,-3.1 12.1,-5.9 12.1,-5.9" fill="none" fill-rule="evenodd" stroke="#001026" stroke-width="1.2" stroke-linecap="round" stroke-linejoin="round"/><path d="M379.52103,168.2c0,0 -7.4,1.1 -11.7,-0.6" fill="none" fill-rule="evenodd" stroke="#001026" stroke-width="1.2" stroke-linecap="round" stroke-linejoin="round"/><path d="M333.82102,143.2c2.8,1.8 2.7,6.9 -0.2,11.4c-3,4.5 -7.6,6.6 -10.4,4.8c-2.8,-1.8 -2.7,-6.9 0.2,-11.4c2.9,-4.5 7.6,-6.7 10.4,-4.8z" fill="#ffffff" fill-rule="evenodd" stroke="#001026" stroke-width="1.2" stroke-linecap="round" stroke-linejoin="round"/><path d="M323.82102,153.7c0,-1.1 0.8,-2 1.8,-2c1,0 1.8,0.9 1.8,2c0,1.1 -0.8,2 -1.8,2c-1,0 -1.8,-0.9 -1.8,-2" fill="#001026" fill-rule="evenodd" stroke="none" stroke-width="1" stroke-linecap="butt" stroke-linejoin="miter"/><path d="M359.02103,146.3c3.1,2.2 2.9,7.9 -0.2,12.3c-3,4.4 -7.4,5.8 -10.7,3.9c-2.7,-1.9 -2.9,-7.3 0.1,-11.7c3,-4.4 7.7,-6.8 10.8,-4.5z" fill="#ffffff" fill-rule="evenodd" stroke="#001026" stroke-width="1.2" stroke-linecap="round" stroke-linejoin="round"/><path d="M348.82103,156.6c0,-1.1 0.8,-1.9 1.8,-2c1,0 1.8,0.9 1.8,2c0,1.1 -0.8,2 -1.8,2c-1,0 -1.8,-0.9 -1.8,-2" fill="#001026" fill-rule="evenodd" stroke="none" stroke-width="1" stroke-linecap="butt" stroke-linejoin="miter"/><g data-paper-data="{&quot;index&quot;:null}" fill-rule="nonzero" stroke-linecap="butt" stroke-linejoin="miter"><path d="M312.36242,206.5692v-24.86113h17.45569v24.86113z" fill="#ffffff" stroke="#000000" stroke-width="0.5"/><path d="M312.36242,205.08364v-23.27425h17.5465v23.27425z" fill="#5e3400" stroke="#000000" stroke-width="0.5"/><text transform="translate(315.55557,192.16465) scale(0.07392,0.07392)" font-size="40" xml:space="preserve" fill="#eaff00" fill-rule="nonzero" stroke="none" stroke-width="1" stroke-linecap="butt" stroke-linejoin="miter" stroke-miterlimit="10" stroke-dasharray="" stroke-dashoffset="0" font-family="Serif" font-weight="normal" text-anchor="start" style="mix-blend-mode: normal"><tspan x="0" dy="0">BIBBLE</tspan></text><text transform="translate(317.39237,188.86467) scale(0.08471,0.08471)" font-size="40" xml:space="preserve" fill="#eaff00" fill-rule="nonzero" stroke="none" stroke-width="1" stroke-linecap="butt" stroke-linejoin="miter" stroke-miterlimit="10" stroke-dasharray="" stroke-dashoffset="0" font-family="Serif" font-weight="normal" text-anchor="start" style="mix-blend-mode: normal"><tspan x="0" dy="0">THE</tspan></text></g><path d="M111.3923,221.7985v0v0v0v0v0v0c2.1993,4.0857 -2.2816,10.1913 -2.6534,10.7281c-0.6417,0.6261 0,0 -0.0108,0.0153c0,0 -3.2201,3.4768 -5.35,2.2977c-0.9071,-0.5006 -1.3168,-1.3883 -1.3376,-2.5512c-0.398,-0.1272 -0.9485,-0.3969 -1.1949,-0.9797c-0.4106,-0.9689 1.657,-1.7176 1.657,-1.7176v0.0144c0.0948,-0.2995 0.1968,-0.6071 0.3204,-0.9265c0.6986,-1.8078 2.4205,-5.3424 2.4205,-5.3424c0,0 3.9214,-5.6762 6.1488,-1.5381z" fill="#9a8479" fill-rule="nonzero" stroke="#000000" stroke-width="0.90231" stroke-linecap="round" stroke-linejoin="round"/><path d="M135.51285,219.46178v0v0v0v0v0v0c0,0 0.95725,-1.98052 1.87812,-1.47069c0.55934,0.30313 0.77051,0.87993 0.85849,1.28721c1.14927,0.13855 1.9943,0.63599 2.39995,1.59016c0.62076,1.45699 -0.68175,3.07285 -1.67002,4.02768c-0.38153,0.45803 -0.79797,0.9734 -1.12978,1.4338c-0.83805,1.1617 -5.96246,3.60468 -8.61615,2.766c-2.65369,-0.83868 0.66518,-6.49834 0.66518,-6.49834c1.46969,-1.24571 3.38064,-2.55975 4.67083,-2.9112c0.33095,-0.08866 0.6503,-0.16031 0.96138,-0.22276z" fill="#9a8479" fill-rule="nonzero" stroke="#000000" stroke-width="0.90231" stroke-linecap="round" stroke-linejoin="round"/><path d="M117.1529,218.1792v0v0v0v0v0v0c8.1063,-0.627 11.2027,4.074 11.2009,4.0731c0.6598,1.2142 1.4792,2.9274 1.8195,4.4917c0.0938,0.4321 0.1516,0.9183 0.166,1.4398c0,0 -0.0478,1.8114 -0.2238,2.3644c-0.7382,2.3167 -1.9404,4.8526 -4.8157,5.9992c-4.5143,1.8078 -9.3192,1.5859 -14.3119,-0.7894c-1.6849,-0.7993 -2.6831,-2.1615 -3.2219,-3.7122c-0.3845,-1.116 -0.5487,-2.5711 -0.5487,-2.5711c-0.2365,-2.4204 0.1868,-4.7831 0.4124,-5.8106c0,0 1.4179,-4.858 9.5232,-5.4849z" fill="#9a8479" fill-rule="nonzero" stroke="#000000" stroke-width="0.90231" stroke-linecap="butt" stroke-linejoin="miter"/><path d="M75.2074,204.3811v0v0v0v0v0v0c-0.0478,-0.083 -1.444,-2.4149 -1.444,-2.4159c-3.8726,-6.2165 -4.7309,-20.2761 -4.3943,-24.6641l0.0298,-0.2102c1.1002,-18.5991 9.7497,-28.5261 14.8579,-33.7801c11.5944,-11.9333 29.1688,-12.4187 29.1688,-12.4187l0.6227,12.0732c0,0 -0.0334,-3.4723 7.0368,-9.5427c7.0684,-6.0704 17.5211,-5.1836 17.5211,-5.1836l-5.5467,15.1295c0,0 3.2697,-4.7127 5.9493,-6.4349c4.7507,-3.0482 8.7677,-1.7383 8.7677,-1.7383l-1.1073,9.3839c0,0 7.0702,9.1656 12.4815,17.7782c1.158,1.8376 2.5,3.6978 3.351,5.8376c3.0947,7.7746 3.5414,21.6312 0.0722,28.4946c-0.5992,1.2143 -1.2517,2.3934 -1.9286,3.5526c-0.176,0.2977 -0.3529,0.5936 -0.5325,0.8859c-0.62,1.0194 -1.2671,2.0189 -1.9476,2.9878c-0.092,0.129 -0.176,0.2661 -0.268,0.3952c-0.7717,1.078 -1.5857,2.1163 -2.4323,3.1258c-0.2021,0.2436 -0.4151,0.479 -0.6218,0.7208c-0.7256,0.8336 -1.4774,1.6437 -2.249,2.4231c-0.1778,0.1823 -0.3511,0.3672 -0.5307,0.5431c-0.9287,0.9076 -1.8961,1.7727 -2.8925,2.599c-0.222,0.1814 -0.4494,0.3546 -0.6733,0.5323c-0.8366,0.6676 -1.7012,1.3054 -2.5856,1.9134c-0.2554,0.1732 -0.5045,0.3554 -0.7617,0.525c-1.0803,0.71 -2.1868,1.3767 -3.3294,1.9928c-0.2039,0.111 -0.4205,0.2084 -0.6272,0.3158c-0.9765,0.5079 -1.9756,0.9752 -2.9963,1.4082c-4.3176,1.8304 -9.006,3.0221 -14.0402,3.3848c-5.7534,0.4141 -10.9618,0.2399 -15.6665,-0.3735c-1.1633,-0.1516 -2.295,-0.3329 -3.397,-0.5359c-0.2094,-0.0424 -0.4179,-0.083 -0.6254,-0.1236c-1.1173,-0.2201 -2.2139,-0.4564 -3.2662,-0.7262c-0.0063,-0.0018 -0.0144,-0.0036 -0.0216,-0.0054c-1.0542,-0.267 -2.0677,-0.5665 -3.0577,-0.8841c-0.1733,-0.055 -0.3511,-0.11 -0.5235,-0.166c-0.9512,-0.3112 -1.8781,-0.6441 -2.7715,-0.9968c-0.1571,-0.0595 -0.3087,-0.1272 -0.4648,-0.1885c-0.8818,-0.3555 -1.7418,-0.7254 -2.5667,-1.1169c-0.0316,-0.018 -0.0668,-0.0298 -0.0975,-0.046c-0.8447,-0.4041 -1.6516,-0.8263 -2.4358,-1.2585c-0.1463,-0.0811 -0.2916,-0.1605 -0.4341,-0.2417c-0.7545,-0.4285 -1.4856,-0.8661 -2.1823,-1.3171c-0.1065,-0.0677 -0.2076,-0.1381 -0.3132,-0.2066c-0.6615,-0.4366 -1.3014,-0.8823 -1.9133,-1.337c-0.0631,-0.0433 -0.1326,-0.0893 -0.1931,-0.1371c-0.6381,-0.479 -1.2409,-0.9689 -1.8221,-1.4623c-0.1129,-0.0948 -0.2239,-0.1904 -0.3322,-0.2851c-0.5667,-0.4935 -1.1118,-0.9878 -1.6245,-1.4939c-0.0586,-0.0551 -0.1119,-0.1137 -0.1696,-0.1696c-0.4829,-0.4809 -0.9413,-0.9653 -1.3745,-1.4498c-0.0605,-0.0703 -0.1291,-0.1389 -0.1905,-0.2074c-0.444,-0.5097 -1.4034,-1.7186 -1.4774,-1.8151c-0.3862,-0.5106 -0.7545,-1.0203 -1.0875,-1.5273c-0.0207,-0.0316 -0.0406,-0.0632 -0.0595,-0.0947c-0.3195,-0.4881 -0.6101,-0.9689 -0.8818,-1.448z" fill="#9a8479" fill-rule="nonzero" stroke="#000000" stroke-width="0.90231" stroke-linecap="butt" stroke-linejoin="miter"/><path d="M143.4608,177.247v0v0v0v0v0v0c0,0 10.5141,11.8864 7.2651,24.2167c-3.2472,12.3266 -22.6527,17.549 -37.5629,16.6117c-19.7106,-1.2404 -28.8485,-12.9789 -25.6049,-24.1815c3.2481,-11.2026 29.343,-16.4394 29.343,-16.4394l-4.2851,8.0487c0,0 3.3754,-0.5214 6.1018,-2.0803c2.7256,-1.5561 5.7147,-3.6319 5.7147,-3.6319l-6.2435,8.8453c0,0 8.2461,-0.0884 15.3867,-2.9463c7.1406,-2.8543 9.8851,-8.443 9.8851,-8.443z" fill="#e6e7e8" fill-rule="nonzero" stroke="#000000" stroke-width="0.90231" stroke-linecap="butt" stroke-linejoin="miter"/><g fill-rule="nonzero" stroke="#000000" stroke-width="0.90231" stroke-linejoin="miter"><path d="M156.9144,170.8202c0,0 16.9236,-9.5057 20.7917,-1.4226c3.8682,8.083 -3.0513,17.5554 -17.4913,26.1256c0,0 0.3186,-14.0723 -3.3004,-24.703v0zM156.9144,170.8202c-0.3024,-1.244 -1.3015,-3.6229 -1.3015,-3.6229M159.8394,197.7144l0.1814,-2.276" fill="#9a8479" stroke-linecap="round"/><path d="M160.0208,195.4375c0.0938,-2.6063 0.0902,-6.8977 -0.4973,-12.2563c-0.3385,-3.1187 -0.9928,-6.3357 -1.6642,-9.1142l0.0018,0.0036c9.913,-2.5233 18.7359,6.6387 18.7359,6.6387h0.0036c-4.9547,8.2247 -16.5004,14.5008 -16.5004,14.5008l-0.0794,0.2274v0z" fill="#ee4036" stroke-linecap="butt"/></g><g fill-rule="nonzero" stroke="#000000" stroke-width="0.90231" stroke-linejoin="miter"><path d="M77.4862,201.7226c-14.0564,-5.5932 -21.641,-13.1566 -19.5165,-21.1017c2.1254,-7.9459 18.5148,-1.88 18.5148,-1.88c-1.5027,10.2247 1.0017,22.9817 1.0017,22.9817v0zM77.0575,175.2461c0,0 -0.5036,2.3157 -0.5721,3.4948M77.6433,201.6143l0.5198,2.0442" fill="#9a8479" stroke-linecap="round"/><path d="M77.5377,201.4204c0,0 -11.1486,-3.9486 -16.8073,-10.6749l0.0027,-0.0009c0,0 6.313,-9.6834 15.4319,-8.9013l0.0009,-0.0027c-0.1516,2.6297 -0.2184,5.6572 -0.0226,8.5459c0.3303,4.9662 1.0054,8.8715 1.5,11.2278l-0.1056,-0.1939v0z" fill="#ee4036" stroke-linecap="butt"/></g><path d="M131.9765,196.6445c-0.6543,0 -1.2265,-0.4736 -1.3348,-1.1403c-0.1183,-0.7379 0.3844,-1.4326 1.1227,-1.5507c0.6714,-0.1056 6.6225,-1.0339 8.8156,-0.7614c0.7419,0.0938 1.2689,0.7704 1.1796,1.5083c-0.0939,0.7434 -0.7807,1.2594 -1.5108,1.1791c-1.3799,-0.1678 -5.6686,0.3663 -8.0575,0.7452c-0.0722,0.0144 -0.1444,0.0198 -0.2148,0.0198v0v0z" fill="#231f20" fill-rule="nonzero" stroke="none" stroke-width="0.90231" stroke-linecap="butt" stroke-linejoin="miter"/><path d="M110.0394,196.9332c-0.0848,0 -0.1706,-0.009 -0.259,-0.0244c-3.1254,-0.6044 -8.6216,0.0109 -8.6757,0.0163c-0.7302,0.0812 -1.4116,-0.4457 -1.4982,-1.189c-0.0848,-0.7416 0.4476,-1.4128 1.1913,-1.4976c0.2437,-0.0243 5.961,-0.6657 9.497,0.0163c0.7328,0.1407 1.2148,0.8507 1.0722,1.5877c-0.1255,0.6414 -0.6931,1.0907 -1.3276,1.0907v0v0z" fill="#231f20" fill-rule="nonzero" stroke="none" stroke-width="0.90231" stroke-linecap="butt" stroke-linejoin="miter"/><path d="M123.8522,232.64791v0v0v0v0v0v0c2.9331,-0.75716 4.7164,-0.88272 5.4682,0.00102c0,0 1.4702,1.55318 2.2102,3.17111c0.7383,1.61698 1.2671,3.47676 1.2671,3.47676c0,0 0.1237,1.44554 -4.3256,1.51647c-4.4476,0.06781 -5.7887,-1.13939 -5.7887,-1.13939c0,0 0.0614,-0.41277 0,-1.41133c-0.0604,-0.9985 -0.7933,-2.83741 -0.7933,-2.83741c0,0 -0.9711,-2.02002 1.9621,-2.77723z" fill="#9a8479" fill-rule="nonzero" stroke="#000000" stroke-width="0.90231" stroke-linecap="butt" stroke-linejoin="miter"/><path d="M113.7803,232.01278v0v0v0v0v0v0c3.9006,0.90772 5.4402,1.40209 4.8906,3.30074c-0.4124,1.42359 1.5767,4.54966 1.5767,4.54966c0,0 -2.092,1.44565 -5.1966,1.34478c-3.1037,-0.10031 -5.6,-1.19761 -5.6,-1.19761c0,0 0.12,-1.0742 0.1236,-2.2288c0,-1.15466 -0.3005,-4.31378 -0.3005,-4.31378c0,0 0.6056,-2.36271 4.5062,-1.45499z" fill="#9a8479" fill-rule="nonzero" stroke="#000000" stroke-width="0.90231" stroke-linecap="butt" stroke-linejoin="miter"/><path d="M108.316,203.7617c0,0 2.9153,-0.3256 11.0766,-0.3256c8.1605,0 11.0767,-1.3622 11.0767,-1.3622c0,0 3.91892,5.58902 1.11703,9.29964c-1.55934,2.06508 -7.40918,3.27226 -11.88033,3.27226c-3.54262,0 -9.39215,0.3266 -11.08362,-0.92537c-4.27961,-3.16764 -0.30638,-9.95873 -0.30638,-9.95873v0v0v0v0v0v0v0v0v0v0v0v0v0v0v0z" fill="#6d6e70" fill-rule="nonzero" stroke="#231f20" stroke-width="0.90137" stroke-linecap="round" stroke-linejoin="miter"/><path d="M333.82102,143.45c2.8,1.8 2.7,6.9 -0.2,11.4c-3,4.5 -5.23334,-4.36666 -5.23334,-4.36666c0,0 -2.40626,-3.42668 -1.96701,-5.12965c0.08793,-0.34089 4.60035,-3.80368 7.40035,-1.90368z" fill="#ffab19" fill-rule="evenodd" stroke="#001026" stroke-width="1.2" stroke-linecap="round" stroke-linejoin="round"/><path d="M349.55641,149.79083c1.76409,-3.15037 1.42921,-4.77822 9.74218,-3.04394c1.58263,0.34701 -9.57196,7.95446 -12.45842,7.9371c-0.5778,-0.00347 0.79282,-1.71878 2.71624,-4.89316z" data-paper-data="{&quot;index&quot;:null}" fill="#ffab19" fill-rule="evenodd" stroke="#001026" stroke-width="1.2" stroke-linecap="round" stroke-linejoin="round"/></g></g></svg>