<svg version="1.1" xmlns="http://www.w3.org/2000/svg" xmlns:xlink="http://www.w3.org/1999/xlink" width="483" height="365" viewBox="0,0,483,365"><g transform="translate(1.5,2.5)"><g data-paper-data="{&quot;isPaintingLayer&quot;:true}" fill-rule="nonzero" stroke-linejoin="miter" stroke-miterlimit="10" stroke-dasharray="" stroke-dashoffset="0" style="mix-blend-mode: normal"><path d="M-1.5,362.5v-365h483v365z" fill="#59ff00" stroke="none" stroke-width="0" stroke-linecap="butt"/><path d="M148.04177,240.10707v-35.67627l19.39893,-9.42353l-7.90372,-4.08276l-0.0419,-90.25595l24.23436,-11.16671l10.31326,5.09252l64.36831,-13.99987l51.76813,23.3694l1.53455,1.50316l-0.25186,46.22486l-4.33381,3.59434c0,0 0.0584,31.58893 0.17191,31.58329c2.05463,-0.10227 -18.38178,10.54931 -18.38178,10.54931l32.09974,16.41425l0.14466,35.31259l-77.07877,36.87674z" fill="#c0c7c8" stroke="#000000" stroke-width="0" stroke-linecap="butt"/><path d="M241.01157,230.41655l21.45978,-9.53768v-22.22894l44.93145,-43.4919l-0.08675,31.5892l-18.32044,10.77473l29.9527,15.27421l-62.5204,30.61161h-14.13845l-81.32841,-40.46964l10.76598,-6.22607z" fill="#87888f" stroke="#000000" stroke-width="0" stroke-linecap="round"/><path d="M167.47877,194.76186l-19.48719,9.22091" fill="none" stroke="#ffffff" stroke-width="1.5" stroke-linecap="round"/><path d="M262.09972,130.11202l47.69116,-26.13243l1.57017,1.39022l0.49071,45.85853l-49.8733,47.09931l0.12126,22.48548l-21.38557,9.5049l-2.34808,-1.29433l-78.2179,-38.68835v-2.69667l80.87349,39.08603l-0.57836,-85.07107z" fill="#87888f" stroke="#ff0000" stroke-width="0" stroke-linecap="round"/><path d="M243.25609,286.3672v-33.97107l77.9221,-38.02983v33.97105z" fill="#87888f" stroke="none" stroke-width="0" stroke-linecap="butt"/><path d="M171.41043,178.73576l-0.12052,-56.15231l58.50161,28.19145l0.1607,56.41779z" fill="#000000" stroke="#000000" stroke-width="0" stroke-linecap="butt"/><path d="M310.16317,103.75252l1.50215,1.50214v46.2661l-4.20601,3.60514v31.84548l-18.62659,10.51501l32.44636,16.22319v34.84977l-77.51074,37.85408l-95.70791,-46.38211" fill="none" stroke="#000000" stroke-width="1.5" stroke-linecap="round"/><path d="M306.8585,155.42633l-44.46351,43.56222v-69.69957" fill="none" stroke="#000000" stroke-width="1.5" stroke-linecap="round"/><path d="M262.37481,197.18597v23.73389l-21.6309,9.61372l-81.19958,-39.77132" fill="none" stroke="#000000" stroke-width="1.5" stroke-linecap="round"/><path d="M148.07093,239.98563v-35.47399l94.33475,47.1674" fill="none" stroke="#ffffff" stroke-width="1.5" stroke-linecap="round"/><path d="M159.4844,190.72126v-89.35482l80.63084,40.20555" fill="none" stroke="#ffffff" stroke-width="1.5" stroke-linecap="round"/><path d="M159.51343,100.6287l24.13819,-11.12621l78.81186,39.77711" fill="none" stroke="#ffffff" stroke-width="1.5" stroke-linecap="round"/><path d="M193.84413,94.43133l64.9458,-14.15644l51.16358,23.28847" fill="none" stroke="#ffffff" stroke-width="1.5" stroke-linecap="round"/><path d="M230.14794,257.75733l-26.04291,-12.05926z" fill="none" stroke="#ffffff" stroke-width="1.5" stroke-linecap="round"/><path d="M230.10598,256.26745l-26.04291,-12.05926z" fill="none" stroke="#87888f" stroke-width="1.5" stroke-linecap="round"/><path d="M229.91359,150.92418v56.30865l-58.72326,-28.54035" fill="none" stroke="#ffffff" stroke-width="1.5" stroke-linecap="round"/><path d="M171.22038,178.72774v-56.24962l58.69319,28.25156" fill="none" stroke="#87888f" stroke-width="1.5" stroke-linecap="round"/><g stroke="none" stroke-width="0" stroke-linecap="butt"><path d="M219.34399,211.73822v-6.54604l5.17594,2.74021v6.54604z" data-paper-data="{&quot;origPos&quot;:null}" fill="#000000"/><path d="M219.34295,208.85796v-3.67643l5.17595,2.74021v3.67643z" data-paper-data="{&quot;origPos&quot;:null}" fill="#414141"/></g><g fill="#ff0000" stroke="none" stroke-width="0" stroke-linecap="butt"><path d="M157.39093,230.97333v-6.8093l5.3841,2.85041v6.8093z" data-paper-data="{&quot;origPos&quot;:null}"/><path d="M157.3899,227.97724v-3.8243l5.3841,2.85041v3.8243z" data-paper-data="{&quot;origPos&quot;:null}"/></g><path d="M201.80766,249.22511v-7.42203h2.71104v7.42203z" fill="#c0c7c8" stroke="none" stroke-width="0" stroke-linecap="butt"/><path d="M229.54023,259.8915v-5.37764h2.57771v5.37764z" fill="#c0c7c8" stroke="none" stroke-width="0" stroke-linecap="butt"/><g><g><path d="M195.15568,168.97206v-20.45637l18.95432,8.79767v20.31333z" data-paper-data="{&quot;origPos&quot;:null}" fill="#000000" stroke="none" stroke-width="0" stroke-linecap="butt"/><path d="M195.39337,169.07526v-20.75986l18.65957,9.0287" data-paper-data="{&quot;origPos&quot;:null}" fill="none" stroke="#000000" stroke-width="1.5" stroke-linecap="round"/><path d="M214.06461,157.37688v20.37215l-18.6635,-8.6746" data-paper-data="{&quot;origPos&quot;:null}" fill="none" stroke="#000000" stroke-width="1.5" stroke-linecap="round"/></g><path d="M184.58127,173.13063v-20.45637l18.95432,8.79768v20.31332z" data-paper-data="{&quot;origPos&quot;:null}" fill="#000000" stroke="none" stroke-width="0" stroke-linecap="butt"/><path d="M184.66579,157.40516v-4.86323l18.95553,8.92025v4.67737z" data-paper-data="{&quot;origPos&quot;:null}" fill="#000000" stroke="none" stroke-width="0" stroke-linecap="butt"/><path d="M184.81897,173.23384v-20.75988l18.65956,9.0287" data-paper-data="{&quot;origPos&quot;:null}" fill="none" stroke="#000000" stroke-width="1.5" stroke-linecap="round"/><path d="M203.4902,161.53546v20.37215l-18.6635,-8.6746" data-paper-data="{&quot;origPos&quot;:null}" fill="none" stroke="#000000" stroke-width="1.5" stroke-linecap="round"/><path d="M188.2503,168.61466v-2.00338h2.00337v2.00338z" data-paper-data="{&quot;origPos&quot;:null}" fill="#000000" stroke="none" stroke-width="0" stroke-linecap="butt"/><path d="M190.24855,170.68745v-4.0791h2.09709v4.0791z" data-paper-data="{&quot;origPos&quot;:null}" fill="#000000" stroke="none" stroke-width="0" stroke-linecap="butt"/><path d="M196.44853,172.72042v-4.0791h2.09711v4.0791z" data-paper-data="{&quot;origPos&quot;:null}" fill="#000000" stroke="none" stroke-width="0" stroke-linecap="butt"/></g></g></g></svg>