<svg version="1.1" xmlns="http://www.w3.org/2000/svg" xmlns:xlink="http://www.w3.org/1999/xlink" width="480" height="360" viewBox="0,0,480,360"><g data-paper-data="{&quot;isPaintingLayer&quot;:true}" fill-rule="nonzero" stroke-linejoin="miter" stroke-miterlimit="10" stroke-dasharray="" stroke-dashoffset="0" style="mix-blend-mode: normal"><path d="M0,360v-360h480v360z" fill="#ffffff" stroke="none" stroke-width="0" stroke-linecap="butt"/><path d="M147.12464,270.19589c0,0 5.7795,15.8539 5.85798,24.59804c0.07289,8.12052 -4.74223,20.85123 -4.74223,20.85123" fill="none" stroke="#000000" stroke-width="3.5" stroke-linecap="round"/><path d="M104.21118,269.20017c0,0 13.99376,11.36614 19.05944,17.47c0.25433,0.68237 -7.71273,24.81971 -7.71273,24.81971" fill="none" stroke="#000000" stroke-width="3.5" stroke-linecap="round"/><g data-paper-data="{&quot;index&quot;:null}" stroke="#121312" stroke-width="3.5" stroke-linecap="butt"><path d="M99.31009,333.33769l7.63057,-20.74686l14.85386,6.30668c0,0 -3.91145,6.98475 -5.22029,10.20419c-0.36578,0.89975 2.39321,2.24851 4.32149,3.50637c1.35876,0.88634 2.14971,1.66833 1.82187,2.47474c-0.87167,2.14406 -3.21408,5.92843 -3.21408,5.92843z" fill="#383838"/><path d="M122.86044,319.00579c-0.67122,1.65105 -4.8703,1.50359 -9.3789,-0.32934c-4.50862,-1.83294 -7.61942,-4.65726 -6.94821,-6.30832c0.33073,-0.81353 1.17411,-5.61764 2.83286,-5.5714c1.7077,0.04761 4.63291,4.05115 6.92001,4.98094c4.50862,1.83294 7.24546,5.57708 6.57426,7.22814z" fill="#979025"/></g><g stroke="#121312" stroke-width="3.5" stroke-linecap="butt"><path d="M130.78873,339.5148l7.5395,-20.78012l14.88139,6.24148c0,0 -3.88078,7.00181 -5.17547,10.22699c-0.6168,1.53647 6.95405,3.99982 6.16952,5.95411c-0.86225,2.14786 -3.18801,5.94249 -3.18801,5.94249z" fill="#383838"/><path d="M154.27596,325.07972c-0.66397,1.65396 -4.86363,1.52492 -9.38025,-0.28822c-4.5166,-1.81313 -7.6398,-4.6238 -6.97582,-6.27776c0.32715,-0.81497 1.14946,-5.62274 2.8084,-5.58377c1.70788,0.04013 4.65066,4.03076 6.94178,4.95052c4.5166,1.81313 7.26986,5.54526 6.6059,7.19923z" fill="#979025"/></g><g><path d="M151.23846,202.15292l55.44946,25.02346" data-paper-data="{&quot;index&quot;:null}" fill="none" stroke="#383838" stroke-width="3.5" stroke-linecap="round"/><g data-paper-data="{&quot;index&quot;:null}" fill="#393839" stroke="#131313" stroke-width="2.5" stroke-linecap="butt"><path d="M206.24803,227.06576c2.90322,-3.18601 6.43366,-4.63881 7.88546,-3.24491c1.4518,1.3939 0.27521,5.10665 -2.62801,8.29268c-2.90322,3.18601 -6.43366,4.63881 -7.88546,3.24491c-1.4518,-1.3939 -0.27521,-5.10665 2.62801,-8.29268z"/><path d="M208.82291,230.63423c2.90322,-3.18601 6.43366,-4.63881 7.88546,-3.24491c1.4518,1.3939 0.27521,5.10665 -2.62801,8.29268c-2.90322,3.18601 -6.43366,4.63881 -7.88546,3.24491c-1.4518,-1.3939 -0.27521,-5.10665 2.62801,-8.29267z"/><path d="M212.0644,233.09818c2.90322,-3.18601 6.43366,-4.63881 7.88546,-3.24491c1.4518,1.3939 0.2752,5.10667 -2.62801,8.29268c-2.90322,3.18601 -6.43366,4.63881 -7.88546,3.24491c-1.4518,-1.3939 -0.27521,-5.10665 2.62801,-8.29268z"/><path d="M209.54868,223.32115c1.0088,-1.75827 4.79531,-1.38899 8.45744,0.82484c3.66211,2.21382 5.81308,5.43382 4.80429,7.19211c-1.0088,1.75827 -4.79531,1.38897 -8.45744,-0.82484c-3.66211,-2.21382 -5.81308,-5.43382 -4.80429,-7.19208z" data-paper-data="{&quot;index&quot;:null}"/></g></g><g stroke="none" stroke-width="0" stroke-linecap="butt"><path d="M99.39381,271.07497v-77.7162h54.11557v77.7162z" fill="#000000"/><path d="M99.3105,262.24722v-8.15383h54.11557v8.15383z" fill="#a17f00"/><g fill="#ca9e00"><path d="M120.94873,262.24522v-13.50478h3.55972v13.50478z"/><path d="M121.68555,262.35891v-7.64422h10.35556v7.64422z"/><path d="M129.20079,259.69714v-11.46632h2.9125v11.46632z"/><path d="M129.56561,257.95993v-3.06972h15.66664l-1.94931,6.5942c0,0 -0.76046,-4.49532 -3.0715,-3.7319c-2.49998,0.82584 -2.79143,2.93605 -4.29254,2.93605c-0.54892,0 -0.41234,-2.18475 -1.26289,-2.53554c-0.8012,-0.33044 -1.08222,2.42055 -1.98558,2.42755c-1.29357,0.01002 -3.10482,-2.62065 -3.10482,-2.62065z"/><path d="M121.09241,260.53988c-0.90336,-0.007 -1.18438,-2.75798 -1.98558,-2.42755c-0.85055,0.3508 -0.71397,2.53553 -1.26289,2.53553c-1.50111,0 -1.79256,-2.11022 -4.29255,-2.93605c-2.31104,-0.76342 -3.0715,3.7319 -3.0715,3.7319l-1.9493,-6.5942h15.66664v3.06972c0,0 -1.81125,2.63068 -3.10482,2.62065z" data-paper-data="{&quot;index&quot;:null}"/></g><g fill="#ca9e00"><path d="M119.70783,219.90529l0.11076,-22.03176h4.02574l0.11076,22.03176z"/><path d="M120.58698,220.0812v-11.82727h12.35568v11.82727z"/><path d="M129.55375,215.96287v-17.7409h3.47503v17.7409z"/><path d="M129.98902,213.27503v-4.74952h18.69257l-2.3258,10.20266c0,0 -0.90734,-6.95523 -3.66474,-5.77405c-2.98284,1.27774 -3.33059,4.54271 -5.12163,4.54271c-0.65494,0 -0.49198,-3.38029 -1.50681,-3.92303c-0.95594,-0.51125 -1.29124,3.74512 -2.36908,3.75595c-1.54342,0.01551 -3.70451,-4.05471 -3.70451,-4.05471z"/><path d="M119.87926,217.26677c-1.07784,-0.01083 -1.41314,-4.2672 -2.36908,-3.75594c-1.01483,0.54275 -0.85187,3.92303 -1.50681,3.92303c-1.79104,0 -2.13878,-3.26496 -5.12163,-4.5427c-2.7574,-1.18117 -3.66474,5.77405 -3.66474,5.77405l-2.3258,-10.20266h18.69257v4.74951c0,0 -2.16109,4.07022 -3.70451,4.05471z" data-paper-data="{&quot;index&quot;:null}"/></g></g><g stroke="none" stroke-linecap="butt"><path d="M168.56379,150.52286c0,22.1987 -17.96444,40.19432 -40.12469,40.19432c-22.16026,0 -40.12469,-17.99561 -40.12469,-40.19432c0,-22.1987 17.96444,-40.19431 40.12469,-40.19431c22.16026,0 40.12469,17.9956 40.12469,40.19431z" fill="#000000" stroke-width="0"/><path d="M149.54884,143.07947l0.64458,-39.03645l10.31318,-24.14967v63.18613z" fill="#000000" stroke-width="0"/><path d="M95.45049,144.78055v-63.18612l10.31318,24.14967l0.64457,39.03644z" data-paper-data="{&quot;index&quot;:null}" fill="#000000" stroke-width="0"/><path d="M111.51902,182.44673l-7.09031,-21.83395h51.24359l-8.37945,20.84149z" fill="#d9b796" stroke-width="0"/><path d="M111.8413,151.18449c0,2.83193 -4.32878,5.12767 -9.6686,5.12767c-5.33982,0 -9.6686,-2.29574 -9.6686,-5.12767c0,-2.83193 4.32878,-5.12767 9.6686,-5.12767c5.33982,0 9.6686,2.29574 9.6686,5.12767z" fill="#ffffff" stroke-width="0"/><path d="M163.13068,152.22395c0,2.83193 -4.32878,5.12767 -9.6686,5.12767c-5.33982,0 -9.6686,-2.29574 -9.6686,-5.12767c0,-2.83193 4.32878,-5.12768 9.6686,-5.12768c5.33982,0 9.6686,2.29574 9.6686,5.12768z" fill="#ffffff" stroke-width="0"/><path d="M143.58871,171.19054c0,1.28309 -1.25,1.28309 -1.25,1.28309h-1.24118c-8.05477,0 -16.04077,0.50962 -24.07895,0.50962c0,0 -1.25,0 -1.25,-1.28309c0,-1.28309 1.25,-1.28309 1.25,-1.28309c8.03765,0 16.02432,-0.50962 24.07895,-0.50962h1.24118c0,0 1.25,0 1.25,1.28309z" fill="#000000" stroke-width="0.5"/><path d="M143.41224,175.23437c-0.46424,-1.19132 0.69636,-1.66785 0.69636,-1.66785l1.07607,-0.42689c1.73066,-1.43758 3.14702,-3.51268 0.90224,-5.48681c-0.51696,-0.45463 -2.43233,0.08819 -3.00658,0.20936c0,0 -1.22573,0.25164 -1.47087,-1.00654c-0.24515,-1.25817 0.98058,-1.5098 0.98058,-1.5098c1.41538,-0.28395 3.63322,-0.74386 4.93699,0.20936c1.66902,1.22026 2.86113,4.77531 1.89704,6.6985c-0.72393,1.4441 -1.80953,2.14881 -2.9807,3.10312l-1.40629,0.59234c0,0 -1.1606,0.47653 -1.62484,-0.71479z" fill="#000000" stroke-width="0.5"/><path d="M118.51684,175.77708c0,1.28309 -1.25,1.28309 -1.25,1.28309l-1.23809,-0.02491c-6.01717,-1.25967 -7.03908,-9.67739 -0.49648,-11.17979c0,0 1.22573,-0.25164 1.47087,1.00654c0.24514,1.25817 -0.98058,1.5098 -0.98058,1.5098c-4.067,0.67752 -2.77793,5.49077 0.49648,6.14711l0.7478,-0.02491c0,0 1.25,0 1.25,1.28309z" fill="#000000" stroke-width="0.5"/><path d="M136.02373,165.72764c-2.48264,2.39816 -5.88291,1.6529 -9.03295,1.12277c0,0 -1.23299,-0.21094 -1.02749,-1.47657c0.2055,-1.26563 1.43849,-1.05469 1.43849,-1.05469c2.02027,0.35208 5.35568,1.29905 6.85419,-0.40607l0.56579,-0.7937c-0.49478,-2.2755 -1.52111,-4.37122 -1.90785,-6.75153c0,0 -0.20549,-1.26563 1.0275,-1.47657c1.23299,-0.21094 1.43849,1.05469 1.43849,1.05469c0.40843,2.51718 1.48298,4.64845 1.97863,7.09391l0.02427,0.50644c0,0 0.00001,0.74669 -0.55493,1.10084z" fill="#000000" stroke-width="0.5"/></g><g><path d="M160.61564,186.55064l-58.95444,14.27166" fill="none" stroke="#383838" stroke-width="3.5" stroke-linecap="round"/><g fill="#393839" stroke="#131313" stroke-width="2.5" stroke-linecap="butt"><path d="M159.0462,177.93277c1.67426,-1.10011 4.889,0.9866 7.18031,4.66081c2.2913,3.67422 2.79153,7.54456 1.11726,8.64465c-1.67426,1.10011 -4.889,-0.9866 -7.18031,-4.66081c-2.2913,-3.67422 -2.79153,-7.54456 -1.11726,-8.64465z"/><path d="M162.20959,174.9036c1.67426,-1.10011 4.889,0.9866 7.18031,4.66081c2.2913,3.67422 2.79152,7.54457 1.11728,8.64468c-1.67426,1.10011 -4.88901,-0.98662 -7.18032,-4.66082c-2.2913,-3.67422 -2.7915,-7.54456 -1.11726,-8.64465z"/><path d="M165.83308,173.08482c1.67426,-1.10011 4.889,0.9866 7.18031,4.66081c2.2913,3.67422 2.79153,7.54456 1.11726,8.64465c-1.67426,1.10011 -4.889,-0.9866 -7.18031,-4.66081c-2.2913,-3.67422 -2.7915,-7.54456 -1.11726,-8.64465z"/><path d="M168.74359,184.69804c3.99289,-1.49439 7.78178,-1.15173 8.46274,0.76535c0.68095,1.91708 -2.00388,4.6826 -5.99677,6.17699c-3.99289,1.49439 -7.78178,1.15172 -8.46274,-0.76535c-0.68095,-1.91708 2.00388,-4.68262 5.99677,-6.17699z" data-paper-data="{&quot;index&quot;:null}"/></g></g></g></svg>