<svg version="1.1" xmlns="http://www.w3.org/2000/svg" xmlns:xlink="http://www.w3.org/1999/xlink" width="488.16667" height="368.16667" viewBox="0,0,488.16667,368.16667"><g transform="translate(4.08333,4.08333)"><g data-paper-data="{&quot;isPaintingLayer&quot;:true}" fill-rule="nonzero" stroke-linejoin="miter" stroke-miterlimit="10" stroke-dasharray="" stroke-dashoffset="0" style="mix-blend-mode: normal"><path d="M-0.33332,360.33334v-360.66666h480.66667v360.66667z" fill="#ffffff" stroke="#ffffff" stroke-width="7.5" stroke-linecap="butt"/><g><path d="M126.15221,224.45542l179.91227,-11.70312" fill="none" stroke="#000000" stroke-width="50" stroke-linecap="round"/><path d="M142.97967,162.09594c28.83952,-0.85013 52.86202,20.2891 53.65576,47.21578c0.79375,26.92668 -21.94184,49.44425 -50.78135,50.29438c-28.83952,0.85013 -52.86203,-20.2891 -53.65577,-47.21578c-0.79375,-26.92669 21.94184,-49.44425 50.78136,-50.29438z" fill="#000000" stroke="#000000" stroke-width="50" stroke-linecap="butt"/><path d="M229.77377,211.80136l-68.88765,-147.82817" fill="none" stroke="#000000" stroke-width="50" stroke-linecap="round"/><path d="M150.63876,331.46131l80.59338,-106.3703" fill="none" stroke="#000000" stroke-width="50" stroke-linecap="round"/><path d="M76.15446,156.59954c25.30815,-0.74603 46.5734,24.05601 47.49727,55.39691c0.92387,31.3409 -18.8435,57.3525 -44.15164,58.09854c-25.30815,0.74603 -46.5734,-24.05601 -47.49727,-55.3969c-0.92387,-31.3409 18.8435,-57.35251 44.15164,-58.09855z" fill="#ff0000" stroke="#000000" stroke-width="0" stroke-linecap="butt"/><path d="M97.38543,89.84381c8.38701,-0.24723 15.89275,23.52779 16.76457,53.10301c0.87182,29.57521 -5.22044,53.75109 -13.60743,53.99832c-8.38701,0.24723 -15.89276,-23.52779 -16.76458,-53.10301c-0.87182,-29.57522 5.22044,-53.75109 13.60744,-53.99832z" fill="#ff0000" stroke="none" stroke-width="0" stroke-linecap="butt"/><path d="M126.19992,259.76027c1.01491,0.15754 2.02646,0.37048 3.03431,0.67083c0,0 1.27616,0.38399 0.89216,1.66016c-0.38399,1.27617 -1.66016,0.89217 -1.66016,0.89217c-1.82654,-0.55564 -3.67452,-0.78416 -5.53285,-0.92174c-1.04648,0.18014 -2.13402,0.04422 -3.2111,-0.19189c-0.55728,-0.03316 -1.11493,-0.07031 -1.67262,-0.11774c-2.65321,-0.22562 -5.38578,-0.94271 -8.00946,-1.40538c-4.40004,-0.77592 -8.69666,-1.50728 -12.96644,-2.85082c-2.20959,-0.69528 -5.2601,-1.11634 -7.09642,-2.64685c-0.65298,-0.54424 -1.59491,-1.1002 -1.64481,-1.94878c-0.0595,-1.01187 0.91374,-1.80964 1.37061,-2.71445c5.27273,-3.83333 9.35368,-8.81218 14.05625,-13.25922c1.00699,-0.95226 2.13177,-1.77726 3.11448,-2.75455c1.74314,-1.73354 3.42989,-3.38057 5.24227,-5.00321c0.03764,-0.03369 3.01245,-3.24202 3.24116,-3.39608c1.04744,-0.70555 2.20196,-0.64265 3.27883,-1.22682c0.56315,-0.30549 0.99212,-0.83022 1.56711,-1.11281c1.98289,-0.97447 3.95989,-1.09523 5.97618,-1.84323c0.76972,-0.21137 1.53783,-0.83955 2.30916,-0.63413c2.70706,0.72094 2.14582,2.95724 2.23991,4.96471c0.0832,1.77497 0.10471,3.55228 0.15707,5.32843c0.088,2.98538 0.57768,6.23677 0.26336,9.20391c-0.45468,4.29206 -1.90933,8.71506 -3.26499,12.77935c-0.65108,1.95194 -0.63537,4.61558 -1.68401,6.52815z" fill="#000000" stroke="none" stroke-width="0.5" stroke-linecap="butt"/><path d="M171.06626,201.26592c0.03927,1.3321 -1.29283,1.37137 -1.29283,1.37137l-1.06569,0.03141c-4.98902,0.14609 -9.93795,0.82549 -14.92725,0.97313c-15.46785,-0.08538 -30.92283,-0.68817 -46.38105,-0.23249c0,0 -1.3321,0.03927 -1.37137,-1.29283c-0.03927,-1.3321 1.29283,-1.37137 1.29283,-1.37137c15.47385,-0.45614 30.94445,0.14314 46.42779,0.23152c4.97341,-0.14602 9.90691,-0.82461 14.88051,-0.97216l1.06569,-0.03141c0,0 1.3321,-0.03927 1.37137,1.29283z" fill="#ff0000" stroke="none" stroke-width="0.5" stroke-linecap="butt"/><path d="M182.15866,204.54618c1.20903,0.56061 0.64841,1.76964 0.64841,1.76964l-0.37836,0.48152c0.02069,0.70191 0.15843,4.92233 0.09559,5.18328c-0.38998,1.61958 -1.94838,2.75585 -3.07209,3.78089c-3.72398,3.397 -8.34225,5.92584 -12.71292,8.42238c-2.07432,1.18485 -4.02128,1.61513 -5.24504,3.70241c0,0 -0.70625,1.13016 -1.83641,0.42391c-1.13016,-0.70625 -0.42391,-1.83641 -0.42391,-1.83641c0.41256,-0.63212 0.66793,-1.40123 1.2377,-1.89636c0.25259,-0.21951 4.4928,-2.44929 4.94567,-2.70798c3.06391,-1.75011 6.05654,-3.65749 9.04262,-5.53623c1.15303,-0.72544 2.18964,-1.62843 3.19884,-2.54345c0.36335,-0.32945 2.14279,-1.6969 2.29291,-2.50605c0.26827,-1.44594 -0.14382,-2.9379 -0.18715,-4.40787l0.6245,-1.68128c0,0 0.56061,-1.20903 1.76964,-0.64841z" fill="#ff0000" stroke="none" stroke-width="0.5" stroke-linecap="butt"/><path d="M151.11427,175.72209c0.03927,1.3321 -1.29283,1.37137 -1.29283,1.37137l-1.06569,0.03141c-3.50363,0.09974 -6.79267,-0.58276 -10.26543,-0.76854c-4.01793,-0.21496 -8.18088,0.11821 -12.21718,0.06177c-6.41529,-0.0897 -13.11037,-0.39214 -19.42489,0.85737c0,0 -1.30753,0.25773 -1.56526,-1.04979c-0.25773,-1.30752 1.0498,-1.56525 1.0498,-1.56525c6.50502,-1.2775 13.3697,-0.99984 19.97762,-0.90744c4.072,0.05694 8.26706,-0.27248 12.3214,-0.05828c3.3994,0.1796 6.61876,0.87065 10.04541,0.76595l1.06569,-0.03141c0,0 1.3321,-0.03927 1.37137,1.29283z" fill="#ff0000" stroke="none" stroke-width="0.5" stroke-linecap="butt"/><path d="M156.7816,162.07252c-0.18859,0.23743 -0.4944,0.4311 -0.99016,0.44572c-1.3321,0.03927 -1.37137,-1.29284 -1.37137,-1.29284l1.44246,-1.89882c3.18656,0.30279 6.67297,0.18093 9.79853,0.81165c1.57979,0.3188 3.08865,1.0061 4.47841,1.82212c2.76038,1.62082 6.56451,4.71877 6.92533,8.16148c0.26984,2.57473 -0.379,5.69812 -0.63327,8.27249c-0.0547,0.55378 -0.48813,5.13839 -0.61376,5.5626c-0.23485,0.79297 -0.9163,1.40329 -1.15813,2.19416c-0.23571,0.77084 -0.16554,1.60363 -0.2483,2.40544c0,0 -0.14951,1.32427 -1.47379,1.17476c-1.32427,-0.14951 -1.17476,-1.47379 -1.17476,-1.47379c0.11659,-0.96388 0.07377,-1.96078 0.34976,-2.89164c0.23509,-0.7929 0.91602,-1.40338 1.15813,-2.19417c0.68919,-2.25102 0.57009,-5.32886 0.76872,-7.67334c0.1545,-1.82357 0.91222,-4.57124 -0.0556,-6.2778c-1.10283,-1.94462 -3.27612,-3.83567 -5.19391,-4.96175c-1.15903,-0.68054 -2.41372,-1.26693 -3.73286,-1.52454c-2.63798,-0.51516 -5.53437,-0.48278 -8.27543,-0.66173z" fill="#ff0000" stroke="none" stroke-width="0.5" stroke-linecap="butt"/></g><text transform="translate(281.01563,92.09028) scale(0.86836,0.86836)" font-size="40" xml:space="preserve" fill="#000000" fill-rule="nonzero" stroke="none" stroke-width="1" stroke-linecap="butt" stroke-linejoin="miter" stroke-miterlimit="10" stroke-dasharray="" stroke-dashoffset="0" font-family="Sans Serif" font-weight="normal" text-anchor="start" style="mix-blend-mode: normal"><tspan x="0" dy="0">DED</tspan></text></g></g></svg>