<svg version="1.1" xmlns="http://www.w3.org/2000/svg" xmlns:xlink="http://www.w3.org/1999/xlink" width="480" height="360" viewBox="0,0,480,360"><g data-paper-data="{&quot;isPaintingLayer&quot;:true}" fill-rule="nonzero" stroke-linejoin="miter" stroke-miterlimit="10" stroke-dasharray="" stroke-dashoffset="0" style="mix-blend-mode: normal"><path d="M0,360v-360h480v360z" fill="#ffffff" stroke="none" stroke-width="0" stroke-linecap="butt"/><g><path d="M206.31184,196.54528l-59.99177,8.36216" data-paper-data="{&quot;index&quot;:null}" fill="none" stroke="#383838" stroke-width="3.5" stroke-linecap="round"/><g data-paper-data="{&quot;index&quot;:null}" fill="#393839" stroke="#131313" stroke-width="2.5" stroke-linecap="butt"><path d="M205.88087,196.6845c0.84145,-4.16588 3.10319,-7.22395 5.05174,-6.83036c1.94855,0.39358 2.84606,4.08975 2.00462,8.25564c-0.84145,4.16588 -3.10319,7.22395 -5.05174,6.83036c-1.94855,-0.39358 -2.84606,-4.08975 -2.00462,-8.25564z"/><path d="M209.89749,198.29153c0.84145,-4.16588 3.10319,-7.22395 5.05174,-6.83036c1.94855,0.39358 2.84606,4.08975 2.00462,8.25564c-0.84145,4.16588 -3.10319,7.22394 -5.05174,6.83036c-1.94855,-0.39358 -2.84606,-4.08975 -2.00462,-8.25563z"/><path d="M213.91652,198.63278c0.84145,-4.16588 3.10319,-7.22395 5.05174,-6.83036c1.94855,0.39358 2.84606,4.08977 2.00462,8.25564c-0.84145,4.16588 -3.10319,7.22394 -5.05174,6.83036c-1.94855,-0.39358 -2.84606,-4.08975 -2.00462,-8.25564z"/><path d="M206.7749,191.8468c-0.04069,-1.9875 3.37092,-3.6692 7.62005,-3.75618c4.24912,-0.08698 7.7267,1.45367 7.7674,3.44118c0.04069,1.9875 -3.37093,3.66918 -7.62005,3.75618c-4.24912,0.08698 -7.7267,-1.45367 -7.76739,-3.44117z" data-paper-data="{&quot;index&quot;:null}"/></g></g><path d="M144.81318,270.8563c0,0 8.61767,17.27709 10.05583,27.01546c-3.92281,8.61969 -7.28906,23.05669 -7.28906,23.05669" fill="none" stroke="#000000" stroke-width="3.5" stroke-linecap="round"/><path d="M107.98177,271.52241c0,0 26.34512,4.54218 26.30371,12.61858c-0.00374,0.72821 -21.59885,19.60748 -21.59885,19.60748" fill="none" stroke="#000000" stroke-width="3.5" stroke-linecap="round"/><g data-paper-data="{&quot;index&quot;:null}" stroke="#121312" stroke-width="3.5" stroke-linecap="butt"><path d="M91.41693,318.70417l14.48185,-16.70132l11.65877,11.15726c0,0 -6.13107,5.14743 -8.495,7.69492c-0.66064,0.71196 1.44209,2.95019 2.80011,4.80929c0.95693,1.31001 1.41978,2.32138 0.82766,2.95949c-1.57432,1.69656 -5.10488,4.40645 -5.10488,4.40645z" fill="#383838"/><path d="M118.5161,313.63878c-1.21231,1.30645 -5.08718,-0.31817 -8.65476,-3.62867c-3.56761,-3.31052 -5.47694,-7.05328 -4.26463,-8.35975c0.59734,-0.64373 3.08702,-4.83806 4.62195,-4.20751c1.58022,0.64915 2.89848,5.42905 4.70823,7.10836c3.56761,3.31052 4.80153,7.78113 3.58923,9.08759z" fill="#979025"/></g><g stroke="#121312" stroke-width="3.5" stroke-linecap="butt"><path d="M137.70657,344.06751l1.39226,-22.06172l16.03599,1.80524c0,0 -1.7554,7.81054 -2.09099,11.26963c-0.15989,1.64791 7.79817,1.88307 7.59481,3.9791c-0.22351,2.30365 -1.38845,6.59915 -1.38845,6.59915z" fill="#383838"/><path d="M156.18728,323.61058c-0.17211,1.77393 -4.23862,2.83098 -9.08283,2.36099c-4.8442,-0.46999 -8.63171,-2.28905 -8.45959,-4.06298c0.0848,-0.87408 -0.47795,-5.7191 1.12502,-6.14817c1.65026,-0.44172 5.59641,2.56044 8.05371,2.79886c4.8442,0.46999 8.53579,3.27736 8.3637,5.05129z" fill="#979025"/></g><g stroke="none" stroke-width="0" stroke-linecap="butt"><path d="M99.39379,271.07497v-75.71215h54.11557v75.71215z" fill="#000000"/><path d="M99.31048,262.47486v-7.94357h54.11557v7.94357z" fill="#a17f00"/><g fill="#ca9e00"><path d="M120.9487,262.47291v-13.15654h3.55972v13.15654z"/><path d="M121.68553,262.58367v-7.4471h10.35556v7.4471z"/><path d="M129.20076,259.99054v-11.17064h2.9125v11.17064z"/><path d="M129.56559,258.29812v-2.99056h15.66664l-1.94931,6.42416c0,0 -0.76046,-4.3794 -3.0715,-3.63567c-2.49998,0.80454 -2.79143,2.86034 -4.29254,2.86034c-0.54892,0 -0.41234,-2.12841 -1.26289,-2.47016c-0.8012,-0.32192 -1.08222,2.35813 -1.98558,2.36495c-1.29357,0.00976 -3.10482,-2.55307 -3.10482,-2.55307z"/><path d="M121.09239,260.81155c-0.90336,-0.00682 -1.18438,-2.68686 -1.98558,-2.36495c-0.85055,0.34175 -0.71397,2.47015 -1.26289,2.47015c-1.50111,0 -1.79256,-2.0558 -4.29255,-2.86034c-2.31104,-0.74373 -3.0715,3.63567 -3.0715,3.63567l-1.9493,-6.42416h15.66664v2.99056c0,0 -1.81125,2.56284 -3.10482,2.55307z" data-paper-data="{&quot;index&quot;:null}"/></g><g fill="#ca9e00"><path d="M119.70781,221.22479l0.11076,-21.46363h4.02574l0.11076,21.46363z"/><path d="M120.58695,221.39616v-11.52228h12.35568v11.52228z"/><path d="M129.55372,217.38403v-17.28342h3.47503v17.28342z"/><path d="M129.98899,214.7655v-4.62705h18.69257l-2.3258,9.93957c0,0 -0.90734,-6.77588 -3.66474,-5.62516c-2.98284,1.24479 -3.33059,4.42557 -5.12163,4.42557c-0.65494,0 -0.49198,-3.29312 -1.50681,-3.82187c-0.95594,-0.49807 -1.29124,3.64855 -2.36908,3.6591c-1.54342,0.01511 -3.70451,-3.95015 -3.70451,-3.95015z"/><path d="M119.87924,218.65431c-1.07784,-0.01055 -1.41314,-4.15716 -2.36908,-3.65909c-1.01483,0.52875 -0.85187,3.82187 -1.50681,3.82187c-1.79104,0 -2.13878,-3.18077 -5.12163,-4.42556c-2.7574,-1.15071 -3.66474,5.62516 -3.66474,5.62516l-2.3258,-9.93957h18.69257v4.62704c0,0 -2.16109,3.96526 -3.70451,3.95015z" data-paper-data="{&quot;index&quot;:null}"/></g></g><g stroke="none" stroke-linecap="butt"><path d="M168.56376,153.63151c0,21.62627 -17.96444,39.15784 -40.12469,39.15784c-22.16026,0 -40.12469,-17.53156 -40.12469,-39.15784c0,-21.62627 17.96444,-39.15783 40.12469,-39.15783c22.16026,0 40.12469,17.53155 40.12469,39.15783z" fill="#000000" stroke-width="0"/><path d="M149.54881,146.38006l0.64458,-38.02983l10.31318,-23.52693v61.55676z" fill="#000000" stroke-width="0"/><path d="M95.45046,148.03727v-61.55675l10.31318,23.52693l0.64457,38.02982z" data-paper-data="{&quot;index&quot;:null}" fill="#000000" stroke-width="0"/><path d="M111.51899,184.73217l-7.09031,-21.27092h51.24359l-8.37945,20.30406z" fill="#d9b796" stroke-width="0"/><path d="M111.84128,154.27608c0,2.7589 -4.32878,4.99544 -9.6686,4.99544c-5.33982,0 -9.6686,-2.23654 -9.6686,-4.99544c0,-2.7589 4.32878,-4.99544 9.6686,-4.99544c5.33982,0 9.6686,2.23654 9.6686,4.99544z" fill="#ffffff" stroke-width="0"/><path d="M163.13065,155.28873c0,2.7589 -4.32878,4.99544 -9.6686,4.99544c-5.33982,0 -9.6686,-2.23654 -9.6686,-4.99544c0,-2.7589 4.32878,-4.99545 9.6686,-4.99545c5.33982,0 9.6686,2.23654 9.6686,4.99545z" fill="#ffffff" stroke-width="0"/><path d="M143.5887,173.76624c0,1.25 -1.25,1.25 -1.25,1.25h-1.24118c-8.05477,0 -16.04077,0.49648 -24.07895,0.49648c0,0 -1.25,0 -1.25,-1.25c0,-1.25 1.25,-1.25 1.25,-1.25c8.03765,0 16.02432,-0.49648 24.07895,-0.49648h1.24118c0,0 1.25,0 1.25,1.25z" fill="#000000" stroke-width="0.5"/><path d="M143.41222,177.70579c-0.46424,-1.1606 0.69636,-1.62484 0.69636,-1.62484l1.07607,-0.41588c1.73066,-1.40051 3.14702,-3.4221 0.90224,-5.34532c-0.51696,-0.44291 -2.43233,0.08592 -3.00658,0.20396c0,0 -1.22573,0.24515 -1.47087,-0.98058c-0.24515,-1.22573 0.98058,-1.47087 0.98058,-1.47087c1.41538,-0.27663 3.63322,-0.72468 4.93699,0.20396c1.66902,1.18879 2.86113,4.65217 1.89704,6.52577c-0.72393,1.40686 -1.80953,2.0934 -2.9807,3.0231l-1.40629,0.57707c0,0 -1.1606,0.46424 -1.62484,-0.69636z" fill="#000000" stroke-width="0.5"/><path d="M118.51682,178.2345c0,1.25 -1.25,1.25 -1.25,1.25l-1.23809,-0.02427c-6.01717,-1.22719 -7.03908,-9.42784 -0.49648,-10.8915c0,0 1.22573,-0.24515 1.47087,0.98058c0.24514,1.22573 -0.98058,1.47087 -0.98058,1.47087c-4.067,0.66005 -2.77793,5.34918 0.49648,5.9886l0.7478,-0.02427c0,0 1.25,0 1.25,1.25z" fill="#000000" stroke-width="0.5"/><path d="M136.02371,168.44421c-2.48264,2.33632 -5.88291,1.61028 -9.03295,1.09382c0,0 -1.23299,-0.2055 -1.02749,-1.43849c0.2055,-1.23299 1.43849,-1.02749 1.43849,-1.02749c2.02027,0.343 5.35568,1.26555 6.85419,-0.3956l0.56579,-0.77323c-0.49478,-2.21682 -1.52111,-4.2585 -1.90785,-6.57743c0,0 -0.20549,-1.23299 1.0275,-1.43849c1.23299,-0.2055 1.43849,1.02749 1.43849,1.02749c0.40843,2.45227 1.48298,4.52858 1.97863,6.91098l0.02427,0.49338c0,0 0.00001,0.72744 -0.55493,1.07245z" fill="#000000" stroke-width="0.5"/></g><g><path d="M100.44594,199.25899l58.33356,16.31357" fill="none" stroke="#383838" stroke-width="3.5" stroke-linecap="round"/><g fill="#393839" stroke="#131313" stroke-width="2.5" stroke-linecap="butt"><path d="M161.46217,207.46374c1.98369,-0.12933 3.81596,3.20384 4.09246,7.44486c0.27649,4.24101 -1.10746,7.78388 -3.09115,7.9132c-1.98369,0.12933 -3.81596,-3.20384 -4.09246,-7.44486c-0.27649,-4.24101 1.10746,-7.78388 3.09115,-7.9132z"/><path d="M165.65767,206.40857c1.98369,-0.12933 3.81596,3.20384 4.09246,7.44486c0.27649,4.24101 -1.10746,7.78389 -3.09115,7.91322c-1.98369,0.12933 -3.81596,-3.20386 -4.09246,-7.44487c-0.27649,-4.24101 1.10747,-7.78387 3.09115,-7.9132z"/><path d="M169.68626,206.60811c1.98369,-0.12933 3.81596,3.20384 4.09246,7.44486c0.27649,4.24101 -1.10746,7.78388 -3.09115,7.9132c-1.98369,0.12933 -3.81596,-3.20384 -4.09246,-7.44486c-0.27649,-4.24101 1.10747,-7.78387 3.09115,-7.9132z"/><path d="M166.76769,217.91978c4.19928,0.65472 7.35521,2.77776 7.04897,4.74193c-0.30625,1.96417 -3.95868,3.0257 -8.15797,2.37099c-4.19928,-0.65472 -7.3552,-2.77776 -7.04897,-4.74193c0.30625,-1.96417 3.95869,-3.02572 8.15797,-2.37099z" data-paper-data="{&quot;index&quot;:null}"/></g></g></g></svg>