<svg version="1.1" xmlns="http://www.w3.org/2000/svg" xmlns:xlink="http://www.w3.org/1999/xlink" width="60.1" height="60.1" viewBox="0,0,60.1,60.1"><g transform="translate(-23.33626,-75.01959)"><g data-paper-data="{&quot;isPaintingLayer&quot;:true}" fill-rule="nonzero" stroke="none" stroke-width="0" stroke-linecap="butt" stroke-linejoin="miter" stroke-miterlimit="10" stroke-dasharray="" stroke-dashoffset="0" style="mix-blend-mode: normal"><g><path d="M23.33626,105.06959c0,-16.59615 13.45384,-30.05 30.05,-30.05c16.59616,0 30.05,13.45385 30.05,30.05c0,16.59616 -13.45384,30.05 -30.05,30.05c-16.59616,0 -30.05,-13.45384 -30.05,-30.05z" fill="#333333"/><g fill="#ffffff"><g><path d="M36.8819,101.38889c0,-1.57484 1.27666,-2.8515 2.8515,-2.8515c1.57484,0 2.8515,1.27666 2.8515,2.8515c0,1.57484 -1.27666,2.85151 -2.8515,2.85151c-1.57484,0 -2.8515,-1.27667 -2.8515,-2.85151z"/><path d="M38.64032,101.38889c0,-0.9649 -0.47124,-1.96044 0.26222,-2.47641c0.46363,-0.32616 1.97935,-0.37509 2.58929,-0.37509c1.57484,0 2.8515,1.27666 2.8515,2.8515c0,1.57484 -1.27666,2.85151 -2.8515,2.85151c-1.57484,0 -2.85151,-1.27667 -2.85151,-2.85151z"/><path d="M36.8819,115.4563c0,-1.57484 1.27666,-2.8515 2.8515,-2.8515c1.57484,0 2.8515,1.27666 2.8515,2.8515c0,1.03818 0.44321,2.08936 -0.3861,2.58805c-0.42869,0.25778 -1.92875,0.26346 -2.4654,0.26346c-1.57484,0 -2.8515,-1.27667 -2.8515,-2.85151z"/><path d="M38.64032,115.4563c0,-1.57484 1.27667,-2.8515 2.85151,-2.8515c1.57484,0 2.8515,1.27666 2.8515,2.8515c0,1.57484 -1.27666,2.8515 -2.8515,2.8515c-1.57484,0 -2.85151,-1.27666 -2.85151,-2.8515z"/><path d="M36.92943,115.78898v-14.63771h7.31885v14.63771z"/></g><path d="M46.14928,117.59493l0.04753,-18.20852c0,0 0.59195,-1.7406 1.43447,-1.78842c0.21919,-0.31647 1.92103,-1.3624 5.75628,-6.76055c0.8552,-1.2037 4.96077,-1.56822 5.16723,-0.6531c0.38215,1.34062 -0.78367,2.61888 -1.1206,3.84408c-0.69295,2.51977 -1.32679,4.42391 -1.07863,4.51954c0.46423,0.17891 9.53867,-0.02306 10.84135,0.13402c0.36536,0.04406 1.94047,0.203 2.45821,0.92817c0.61106,0.8559 0.14143,2.2951 0.14143,2.2951c0,0 -1.38829,9.25258 -1.8833,12.71875c-0.2376,1.66376 -2.82169,3.73134 -2.82169,3.73134c0,0 -15.1719,0.11679 -17.94526,0.03401c-0.62078,-0.01853 -0.99701,-0.79442 -0.99701,-0.79442z"/></g><g fill="#333333"><g><path d="M37.32565,101.73713c0,-1.49687 1.12592,-2.71032 2.51483,-2.71032c1.3889,0 2.51483,1.21345 2.51483,2.71032c0,1.49687 -1.12593,2.71033 -2.51483,2.71033c-1.38891,0 -2.51483,-1.21346 -2.51483,-2.71033z"/><path d="M38.87646,101.73713c0,-0.91713 -0.4156,-1.86337 0.23125,-2.3538c0.4089,-0.31002 1.74565,-0.35652 2.28358,-0.35652c1.3889,0 2.51483,1.21345 2.51483,2.71032c0,1.49687 -1.12592,2.71033 -2.51483,2.71033c-1.38891,0 -2.51483,-1.21346 -2.51483,-2.71033z"/><path d="M37.32565,115.10806c0,-1.49687 1.12592,-2.71032 2.51483,-2.71032c1.3889,0 2.51483,1.21345 2.51483,2.71032c0,0.98678 0.39088,1.98591 -0.34051,2.45991c-0.37807,0.24502 -1.70103,0.25042 -2.17432,0.25042c-1.38891,0 -2.51483,-1.21346 -2.51483,-2.71033z"/><path d="M38.87646,115.10806c0,-1.49687 1.12593,-2.71032 2.51483,-2.71032c1.3889,0 2.51483,1.21345 2.51483,2.71032c0,1.49687 -1.12592,2.71033 -2.51483,2.71033c-1.38891,0 -2.51483,-1.21346 -2.51483,-2.71033z"/><path d="M37.36756,115.42427v-13.91299h6.45473v13.91299z"/></g><path d="M46.7529,117.13497l0.04528,-17.55752c0,0 0.56398,-1.67837 1.36668,-1.72448c0.20884,-0.30516 1.83025,-1.31369 5.48425,-6.51886c0.81478,-1.16066 3.94326,-1.51216 4.13996,-0.62975c0.36409,1.29269 -0.84452,2.52526 -1.16553,3.70665c-0.6602,2.42968 -1.26408,4.55939 -1.02765,4.65161c0.44229,0.17251 9.96885,-0.02224 11.20997,0.12923c0.3481,0.04248 1.84878,0.19574 2.34204,0.89498c0.58219,0.8253 0.13473,2.21304 0.13473,2.21304c0,0 -1.32269,8.62813 -1.79429,11.97038c-0.22637,1.60428 -2.68834,3.59793 -2.68834,3.59793c0,0 -14.45491,0.11261 -17.0972,0.0328c-0.59144,-0.01787 -0.94989,-0.76601 -0.94989,-0.76601z"/></g></g></g></g></svg>