<svg version="1.1" xmlns="http://www.w3.org/2000/svg" xmlns:xlink="http://www.w3.org/1999/xlink" width="488.16667" height="368.16667" viewBox="0,0,488.16667,368.16667"><g transform="translate(4.08333,4.08333)"><g data-paper-data="{&quot;isPaintingLayer&quot;:true}" stroke-linecap="butt" stroke-linejoin="miter" stroke-miterlimit="10" stroke-dasharray="" stroke-dashoffset="0" style="mix-blend-mode: normal"><path d="M-0.33332,360.33334v-360.66666h480.66667v360.66667z" fill="#ffffff" fill-rule="nonzero" stroke="#ffffff" stroke-width="7.5"/><g fill-rule="evenodd" stroke="none" stroke-width="1"><g><path d="M338.50552,99.42445c-0.29151,55.56022 -27.65509,94.66621 -63.04296,111.79599c-43.50609,20.9297 -127.09299,7.88258 -132.54091,-47.25319c-4.85855,-0.412 -25.12244,-3.2277 -38.78049,-6.73175l-7.26189,-18.23316c9.99142,-9.76658 32.98687,-12.89531 52.30055,4.50377c2.74636,-6.51666 14.99066,-14.79308 28.6487,-11.28868c25.60617,6.67722 48.01155,15.27712 75.51547,3.95848c22.00585,-9.16943 33.88762,-36.64576 52.9226,-52.7664c23.13884,-19.73778 31.94307,-5.7613 32.23894,16.01496z" fill="#272525"/><path d="M101.55267,146.57052c3.58316,-5.63609 11.76803,-12.01206 18.33686,-11.26918c1.68034,1.47534 30.51416,16.25664 33.21609,11.457c6.61561,-12.14534 53.94384,7.41069 84.7492,1.33331c42.60768,-8.3498 53.00169,-44.74411 77.42334,-58.72025c13.37463,-7.67422 16.43166,7.01283 16.32057,11.30654c-2.87024,66.66413 -39.62539,92.35137 -62.23342,102.65113c-29.56664,13.55639 -65.40318,3.7501 -93.42278,-9.2913c-5.65797,-2.72448 -16.07858,-9.58179 -20.25381,-14.2727c-6.10464,-7.60522 -6.63278,-9.33739 -7.23968,-19.09185c-0.24908,-1.43866 -46.89637,-14.10271 -46.89637,-14.10271z" fill="#fff63b"/><path d="M158.5044,159.50118c-1.98866,-0.62439 -1.05592,-3.46466 0.64662,-2.84767c57.6549,18.96395 112.51936,12.93606 142.17252,-26.1107c6.22583,-8.14549 13.81153,-24.56199 15.33904,-28.24612c1.53459,-3.97058 3.74304,-0.76242 2.50198,2.92879c-1.234,3.40542 -2.45282,6.23829 -4.87604,11.3311c-20.57528,42.43265 -53.28077,77.67679 -155.78414,42.9446z" fill="#272525"/></g><g><path d="M160.23569,149.63707c4.44149,-5.61355 19.14371,-9.24348 30.95817,-0.91758c21.94187,15.46192 40.14744,31.40049 69.6673,30.73199c23.50104,-0.53789 43.82182,-22.06743 66.95798,-30.63468c28.33297,-10.15131 31.91816,6.26824 24.50781,26.98588c-18.5294,51.93769 -57.03894,79.01144 -95.79959,82.59155c-47.65676,4.20921 -121.61473,-37.80439 -108.75813,-91.89363c-6.78829,-3.32633 -44.63337,-24.06923 -43.61918,-30.0581c2.71944,-16.54275 41.87019,-24.12273 56.08566,13.19456z" fill="#272525"/><path d="M114.49154,135.27786c3.02539,-6.22313 9.44108,-10.64006 21.0142,-4.03925c7.33864,4.19981 23.37749,26.38372 27.48136,22.76624c10.26274,-9.18693 48.3027,26.16897 79.09794,31.54857c42.78036,7.12188 64.47586,-23.25125 91.80172,-27.70014c14.95869,-2.4774 13.14236,12.37021 11.60745,16.34045c-24.50614,61.52148 -67.47435,72.72666 -92.15013,74.37973c-32.41902,2.02535 -62.50602,-19.66239 -84.8424,-42.00921c-4.46875,-4.41187 -12.22445,-14.63759 -14.35886,-20.70791c-3.48419,-9.25595 -9.21623,-9.11792 -6.39581,-18.49707c0.60959,-1.41644 -33.25548,-32.08142 -33.25548,-32.08142z" fill="#fff63b"/><path d="M164.06255,167.78138c-1.68033,-1.47568 0.09625,-3.72117 1.49788,-2.53935c47.98425,38.47756 101.19295,52.17064 142.24857,26.30833c8.73555,-5.50246 21.09061,-18.07226 23.46199,-21.16163c2.65784,-3.08228 6.2531,1.88027 3.88912,4.68351c-2.36397,2.80291 -5.62365,7.01517 -9.44108,10.64006c-33.78396,32.63849 -76.9447,51.28566 -161.65649,-17.93094z" fill="#272525"/></g><g><path d="M137.21655,174.13133c6.92159,-1.82608 19.98487,2.52186 26.25748,14.71433c12.83134,24.39237 23.49833,43.85921 50.06413,57.72224c21.20168,10.86021 46.54628,5.50079 70.79491,9.27883c29.66526,4.77742 21.89475,28.35016 6.0454,43.12101c-39.62742,37.0702 -82.24754,34.82168 -117.92119,18.71819c-43.88577,-19.75362 -90.394,-93.13739 -54.66313,-134.60498c-4.42431,-6.12957 -28.68036,-42.84737 -25.11234,-47.91091c9.79417,-13.20868 47.82438,0.37802 44.53474,38.96128z" fill="#272525"/><path d="M102.59681,139.43689c6.33421,-1.26834 16.30074,0.99434 20.44635,6.83038c3.58752,5.24866 10.29201,22.89411 10.8915,32.93502c13.2558,-3.09441 34.00778,47.28146 58.70073,67.11115c34.24003,27.23767 67.30837,11.19378 93.4127,20.74829c14.18618,5.23655 6.13933,17.34489 2.63021,20.1185c-49.2139,42.26434 -92.46315,31.12039 -114.81669,20.51668c-29.42829,-13.93709 -46.30157,-48.17245 -55.82849,-78.49408c-1.84829,-6.06292 -4.09107,-19.01042 -3.3556,-25.29279c1.11787,-9.99648 2.3071,-11.6842 8.78201,-18.39104c1.18215,-1.40162 -26.33118,-45.07802 -20.86272,-46.08211z" fill="#fff63b"/><path d="M131.5828,192.60352c-0.80684,-2.02569 1.79913,-3.10417 2.33433,-1.65812c24.86796,57.35668 65.68897,95.93523 113.60188,92.87853c10.04057,-0.59948 26.49714,-5.61623 30.26274,-7.23731c3.76525,-1.62109 3.08194,2.65782 -0.38273,3.71375c-3.47175,1.34239 -6.07771,2.42053 -11.2668,3.71849c-44.15034,12.60648 -91.0861,11.10589 -134.54942,-91.41533z" fill="#272525"/></g></g></g></g></svg>