<svg version="1.1" xmlns="http://www.w3.org/2000/svg" xmlns:xlink="http://www.w3.org/1999/xlink" width="182.33334" height="127.81198" viewBox="0,0,182.33334,127.81198"><defs><radialGradient cx="182.83333" cy="197.5" r="34.33334" gradientUnits="userSpaceOnUse" id="color-1"><stop offset="0" stop-color="#1f1f1f"/><stop offset="1" stop-color="#1f1f1f" stop-opacity="0"/></radialGradient><radialGradient cx="296.5" cy="197.5" r="34.33333" gradientUnits="userSpaceOnUse" id="color-2"><stop offset="0" stop-color="#1f1f1f"/><stop offset="1" stop-color="#1f1f1f" stop-opacity="0"/></radialGradient><radialGradient cx="213.83334" cy="197.5" r="34.33333" gradientUnits="userSpaceOnUse" id="color-3"><stop offset="0" stop-color="#1f1f1f"/><stop offset="1" stop-color="#1f1f1f" stop-opacity="0"/></radialGradient><radialGradient cx="267.5" cy="197.5" r="34.33334" gradientUnits="userSpaceOnUse" id="color-4"><stop offset="0" stop-color="#1f1f1f"/><stop offset="1" stop-color="#1f1f1f" stop-opacity="0"/></radialGradient><radialGradient cx="239.5" cy="197.5" r="34.33334" gradientUnits="userSpaceOnUse" id="color-5"><stop offset="0" stop-color="#1f1f1f"/><stop offset="1" stop-color="#1f1f1f" stop-opacity="0"/></radialGradient></defs><g transform="translate(-148.5,-108.33901)"><g data-paper-data="{&quot;isPaintingLayer&quot;:true}" stroke-miterlimit="10" stroke-dasharray="" stroke-dashoffset="0" style="mix-blend-mode: normal"><g fill-rule="nonzero" stroke="none" stroke-width="0" stroke-linecap="butt" stroke-linejoin="miter"><path d="M148.5,197.5c0,-18.96177 15.37156,-34.33334 34.33334,-34.33334c18.96177,0 34.33334,15.37156 34.33334,34.33334c0,18.96177 -15.37156,34.33334 -34.33334,34.33334c-18.96177,0 -34.33334,-15.37156 -34.33334,-34.33334z" fill="url(#color-1)"/><path d="M262.16667,197.5c0,-18.96177 15.37156,-34.33334 34.33334,-34.33334c18.96177,0 34.33333,15.37156 34.33333,34.33334c0,18.96177 -15.37156,34.33334 -34.33333,34.33334c-18.96177,0 -34.33334,-15.37156 -34.33334,-34.33334z" fill="url(#color-2)"/><path d="M179.5,197.5c0,-18.96177 15.37156,-34.33334 34.33334,-34.33334c18.96177,0 34.33333,15.37156 34.33333,34.33334c0,18.96177 -15.37156,34.33334 -34.33333,34.33334c-18.96177,0 -34.33334,-15.37156 -34.33334,-34.33334z" fill="url(#color-3)"/><path d="M233.16667,197.5c0,-18.96177 15.37156,-34.33334 34.33334,-34.33334c18.96177,0 34.33334,15.37156 34.33334,34.33334c0,18.96177 -15.37156,34.33334 -34.33334,34.33334c-18.96178,0 -34.33334,-15.37156 -34.33334,-34.33334z" fill="url(#color-4)"/><path d="M205.16667,197.5c0,-18.96177 15.37156,-34.33334 34.33334,-34.33334c18.96178,0 34.33334,15.37156 34.33334,34.33334c0,18.96177 -15.37156,34.33334 -34.33334,34.33334c-18.96177,0 -34.33334,-15.37156 -34.33334,-34.33334z" fill="url(#color-5)"/></g><path d="M154.0863,204.18464c0,-23.05559 0,-69.13003 0,-82.09091c0,-6.64651 5.16204,-13.75472 13.64097,-13.75472c34.6915,0 124.90883,0 144.27273,0c7.15266,0 13.9137,7.16213 13.9137,13.84562c0,12.92917 0,58.60982 0,81.72728c0,8.24133 -5.27286,13.61508 -13.9137,13.61508c-34.88915,0 -124.68663,-0.00001 -144,-0.00001c-7.15266,0 -13.9137,-5.25502 -13.9137,-13.34235z" fill="#ffffff" fill-rule="nonzero" stroke="none" stroke-width="0" stroke-linecap="butt" stroke-linejoin="miter"/><text transform="translate(154.39156,231.95274) scale(0.33586,0.33586)" font-size="40" xml:space="preserve" fill="#ffffff" fill-rule="nonzero" stroke="none" stroke-width="1" stroke-linecap="butt" stroke-linejoin="miter" stroke-miterlimit="10" stroke-dasharray="" stroke-dashoffset="0" font-family="Sans Serif" font-weight="normal" text-anchor="start" style="mix-blend-mode: normal"><tspan x="0" dy="0">The Bibble</tspan></text><g><g data-paper-data="{&quot;index&quot;:null}" fill-rule="evenodd"><path d="M293.14677,178.78231c1.62009,-0.33752 3.57769,-0.87755 5.19777,-2.36262c3.7127,-3.30767 4.86026,-8.77546 7.42539,-7.35789c2.63264,1.41757 2.56514,10.26054 -5.6703,12.96068c-2.83515,0.94505 -5.40029,0.94505 -7.4929,0.87755c-0.54003,0 -5.19777,-0.47252 -6.81786,-2.76765c-1.62009,-2.29512 -0.47252,-2.90265 0.0675,-3.17267c0.60753,-0.33752 4.99526,2.22762 7.29039,1.8226z" fill="#ffab19" stroke="#001026" stroke-width="1.2" stroke-linecap="round" stroke-linejoin="round"/><path d="M305.36491,169.1968c1.35007,0.40502 2.02511,3.24017 1.35007,5.6028c-0.67504,2.36262 -1.75509,3.57769 -2.63264,4.45524c0.13501,-0.47252 0.40502,-1.9576 -0.74254,-2.83515c-1.41757,-1.14756 -3.91521,-0.54003 -3.91521,-0.54003c0,0 2.09261,-2.56514 3.17267,-4.38773c1.08006,-1.55258 1.41757,-2.56514 2.76765,-2.29512z" fill="#ffffff" stroke="none" stroke-width="1" stroke-linecap="butt" stroke-linejoin="miter"/></g><path d="M282.2787,179.32234c2.49763,-2.16011 5.6028,0.33752 6.95287,1.35007c1.35007,1.01255 2.02511,1.62009 4.92776,3.10516c1.14756,0.60753 2.63264,1.14756 3.44268,1.41757c0.33752,0.0675 0.67504,0.0675 1.01255,-0.0675c0.60753,-0.27001 1.75509,-0.74254 3.03766,0.20251c2.83515,2.49763 -3.8477,12.01563 -7.42539,10.86807c-3.7127,-1.14756 -1.62009,-4.38773 -0.47252,-6.00782c0.13501,-0.27001 0,-0.60753 -0.27001,-0.67504l-0.27001,-0.0675c-5.33278,-1.68759 -9.518,-4.65775 -10.73307,-5.46779c-1.14756,-0.81004 -2.36262,-2.83515 -0.20251,-4.65775z" data-paper-data="{&quot;index&quot;:null}" fill="#ffab19" fill-rule="evenodd" stroke="#001026" stroke-width="1.2" stroke-linecap="round" stroke-linejoin="round"/><path d="M275.25832,171.28941c0,1.75509 -1.41757,3.57769 -2.22762,4.65775c-0.81004,1.08006 -4.59024,5.06277 -9.24799,2.97016c-1.9576,-1.01255 -6.54785,-4.79275 -4.11772,-7.02037c2.43013,-2.22762 4.65775,0.54003 6.27783,1.9576c1.35007,1.21506 5.46779,-3.64519 5.80531,-3.91521c1.14756,-1.01255 3.44268,-0.54003 3.51019,1.35007z" data-paper-data="{&quot;index&quot;:null}" fill="#ffab19" fill-rule="evenodd" stroke="#001026" stroke-width="1.2" stroke-linecap="round" stroke-linejoin="round"/><g data-paper-data="{&quot;index&quot;:null}" fill-rule="evenodd"><path d="M276.7434,180.73991c-0.81004,-0.60753 -1.62009,-1.62009 -2.70014,-3.17267c-0.87755,-1.28257 -1.8226,-3.7802 -1.8226,-3.7802c-0.60753,-1.68759 -1.01255,-4.92776 1.21506,-4.86026c1.48508,0.0675 2.83515,-0.13501 5.13027,-0.47252c4.05021,-0.81004 4.79275,-1.35007 6.48034,1.41757c1.8226,3.24017 6.48034,5.6028 0.74254,11.20559c0,0 -3.30767,2.56514 -7.29039,6.48034c-2.70014,2.63264 -6.95287,6.41284 -8.43795,7.69541c-0.33752,0.27001 -0.74254,0.40502 -1.14756,0.47252c-6.54785,0.60753 -11.4081,-0.0675 -11.4081,-2.97016c0,-4.86026 9.65301,-3.17267 9.65301,-3.17267c0,0 3.10516,-2.63264 4.52274,-3.91521z" fill="#ffab19" stroke="#001026" stroke-width="1.2" stroke-linecap="round" stroke-linejoin="round"/><path d="M273.77325,176.21717c0,0 -1.28257,-1.68759 1.62009,-3.51019c3.03766,-1.9576 4.18522,0.20251 5.40029,1.8226c1.35007,2.09261 0,3.10516 -1.35007,4.32023c-1.08006,1.01255 -2.09261,1.8226 -2.09261,1.8226c0,0 -2.09261,-1.41757 -3.57769,-4.45524z" fill="#ffffff" stroke="none" stroke-width="1" stroke-linecap="butt" stroke-linejoin="miter"/></g><path d="M287.47647,174.05706c-0.74254,-0.47252 -1.75509,-1.28257 -2.76765,-2.02511c-1.68759,-1.21506 -4.11772,-3.91521 -0.74254,-5.13027c2.70014,-1.01255 5.13027,0.87755 8.03292,2.97016c1.48508,1.14756 3.24017,2.49763 2.63264,4.59024c-0.67504,2.36262 -3.98271,9.11298 -7.96542,6.88536c-2.90265,-1.9576 -0.60753,-4.32023 0.87755,-6.21033c0.20251,-0.33752 0.13501,-0.74254 -0.0675,-1.08006z" data-paper-data="{&quot;index&quot;:null}" fill="#ffab19" fill-rule="evenodd" stroke="#001026" stroke-width="1.2" stroke-linecap="round" stroke-linejoin="round"/><g data-paper-data="{&quot;index&quot;:null}" fill-rule="evenodd"><path d="M272.08566,135.04c1.55258,-0.27001 3.17267,-0.40502 5.06277,-0.27001c3.17267,0.13501 6.21033,1.28257 6.21033,1.28257l8.16793,-5.33278c0.27001,-0.13501 0.60753,0.0675 0.54003,0.33752l-1.41757,12.08314c-0.40502,-0.54003 7.15538,8.64046 2.36262,16.33586c-4.79275,7.69541 -14.98579,11.13809 -27.67646,8.64046c-12.69067,-2.49763 -15.66083,-9.78802 -14.85078,-13.63572c0.81004,-3.8477 5.6028,-5.26528 5.6028,-5.26528c0,0 0.0675,-3.03766 2.22762,-6.75036c1.28257,-2.22762 5.6028,-5.40029 5.6028,-5.40029l1.75509,-7.22288c0.0675,-0.27001 0.40502,-0.33752 0.60753,-0.20251z" fill="#ffab19" stroke="#001026" stroke-width="1.2" stroke-linecap="butt" stroke-linejoin="miter"/><path d="M267.4279,152.79344c5.6703,0.40502 13.43321,-5.7378 17.95595,1.48508c4.52274,7.15538 -3.24017,16.87589 -19.57603,13.50071c-12.55566,-2.43013 -15.79583,-9.383 -14.98579,-13.2307c0.81004,-3.8477 5.46779,-5.06277 5.46779,-5.06277c5.7378,-1.28257 6.27783,2.97016 11.13809,3.30767z" fill="#ffffff" stroke="none" stroke-width="1" stroke-linecap="butt" stroke-linejoin="miter"/><path d="M271.0056,165.01158c-7.08787,0.40502 -9.65301,-4.65775 -10.26054,-6.48034c-0.13501,-0.33752 0.13501,-0.67504 0.47252,-0.60753c1.01255,0.20251 3.17267,0.40502 6.81786,0.20251c4.05021,-0.27001 7.69541,-1.35007 8.97797,-1.8226c0.27001,-0.0675 0.54003,0.13501 0.54003,0.40502c0.20251,3.30767 -0.40502,7.6279 -6.54785,8.30294z" fill="#ffffff" stroke="#001026" stroke-width="1.2" stroke-linecap="round" stroke-linejoin="round"/><path d="M251.90208,152.86094c0,0 -4.86026,-0.0675 -8.03292,-2.63264" fill="none" stroke="#001026" stroke-width="1.2" stroke-linecap="round" stroke-linejoin="round"/><path d="M251.63208,156.84365c0,0 -2.63264,1.28257 -6.88536,0.94505" fill="none" stroke="#001026" stroke-width="1.2" stroke-linecap="round" stroke-linejoin="round"/><path d="M270.80309,151.91589c0,1.08006 -2.83515,2.76765 -4.05021,2.63264c-1.08006,-0.0675 -2.09261,-1.9576 -2.02511,-2.90265c0.0675,-0.47252 1.55258,-0.60753 2.97016,-0.60753c1.35007,0 3.17267,0.0675 3.10516,0.87755z" fill="#001026" stroke="#001026" stroke-width="1.2" stroke-linecap="round" stroke-linejoin="round"/><path d="M289.9066,154.0085c2.36262,-2.09261 8.16793,-3.98271 8.16793,-3.98271" fill="none" stroke="#001026" stroke-width="1.2" stroke-linecap="round" stroke-linejoin="round"/><path d="M297.602,156.77615c0,0 -4.99526,0.74254 -7.89792,-0.40502" fill="none" stroke="#001026" stroke-width="1.2" stroke-linecap="round" stroke-linejoin="round"/><g><path d="M266.75287,139.90026c1.8901,1.21506 1.8226,4.65775 -0.13501,7.69541c-2.02511,3.03766 -5.13027,4.45524 -7.02037,3.24017c-1.8901,-1.21506 -1.8226,-4.65775 0.13501,-7.69541c1.9576,-3.03766 5.13027,-4.52274 7.02037,-3.24017z" fill="#ffffff" stroke="#001026" stroke-width="1.2" stroke-linecap="round" stroke-linejoin="round"/><path d="M260.00251,146.98813c0,-0.74254 0.54003,-1.35007 1.21506,-1.35007c0.67504,0 1.21506,0.60753 1.21506,1.35007c0,0.74254 -0.54003,1.35007 -1.21506,1.35007c-0.67504,0 -1.21506,-0.60753 -1.21506,-1.35007" fill="#001026" stroke="none" stroke-width="1" stroke-linecap="butt" stroke-linejoin="miter"/></g><g><path d="M283.76377,141.99287c2.09261,1.48508 1.9576,5.33278 -0.13501,8.30294c-2.02511,2.97016 -4.99526,3.91521 -7.22288,2.63264c-1.8226,-1.28257 -1.9576,-4.92776 0.0675,-7.89792c2.02511,-2.97016 5.19777,-4.59024 7.29039,-3.03766z" fill="#ffffff" stroke="#001026" stroke-width="1.2" stroke-linecap="round" stroke-linejoin="round"/><path d="M276.87841,148.94573c0,-0.74254 0.54003,-1.28257 1.21506,-1.35007c0.67504,0 1.21506,0.60753 1.21506,1.35007c0,0.74254 -0.54003,1.35007 -1.21506,1.35007c-0.67504,0 -1.21506,-0.60753 -1.21506,-1.35007" fill="#001026" stroke="none" stroke-width="1" stroke-linecap="butt" stroke-linejoin="miter"/></g></g><g data-paper-data="{&quot;index&quot;:null}" fill-rule="nonzero" stroke-linecap="butt" stroke-linejoin="miter"><path d="M252.26755,182.67673v-16.78215h11.78321v16.78215z" fill="#ffffff" stroke="#000000" stroke-width="0.5"/><path d="M252.26755,181.67392v-15.71095h11.84451v15.71095z" fill="#5e3400" stroke="#000000" stroke-width="0.5"/><text transform="translate(254.42304,172.95314) scale(0.0499,0.0499)" font-size="40" xml:space="preserve" fill="#eaff00" fill-rule="nonzero" stroke="none" stroke-width="1" stroke-linecap="butt" stroke-linejoin="miter" stroke-miterlimit="10" stroke-dasharray="" stroke-dashoffset="0" font-family="Serif" font-weight="normal" text-anchor="start" style="mix-blend-mode: normal"><tspan x="0" dy="0">BIBBLE</tspan></text><text transform="translate(255.66294,170.72554) scale(0.05718,0.05718)" font-size="40" xml:space="preserve" fill="#eaff00" fill-rule="nonzero" stroke="none" stroke-width="1" stroke-linecap="butt" stroke-linejoin="miter" stroke-miterlimit="10" stroke-dasharray="" stroke-dashoffset="0" font-family="Serif" font-weight="normal" text-anchor="start" style="mix-blend-mode: normal"><tspan x="0" dy="0">THE</tspan></text></g><path d="M203.59056,183.35654v0v0v0v0v0v0c1.26369,2.3476 -1.31098,5.85581 -1.52461,6.16425c-0.36871,0.35975 0,0 -0.00621,0.00879c0,0 -1.85023,1.99773 -3.07405,1.32023c-0.52121,-0.28764 -0.75662,-0.7977 -0.76857,-1.46589c-0.22869,-0.07309 -0.545,-0.22805 -0.68658,-0.56293c-0.23593,-0.55672 0.95209,-0.98691 0.95209,-0.98691v0.00827c0.05447,-0.17209 0.11308,-0.34883 0.1841,-0.53236c0.40141,-1.03874 1.39079,-3.06969 1.39079,-3.06969c0,0 2.25319,-3.26148 3.53303,-0.88378z" fill="#9a8479" fill-rule="nonzero" stroke="#000000" stroke-width="0.90231" stroke-linecap="round" stroke-linejoin="round"/><path d="M217.85577,186.82482v0v0v0v0v0v0c0,0 1.18808,0.43129 0.95054,0.98749c-0.14054,0.33746 -0.45789,0.49191 -0.68554,0.56603c-0.01195,0.66503 -0.24684,1.17716 -0.76851,1.46486c-0.7965,0.44008 -1.79634,-0.2099 -2.39994,-0.71893c-0.28413,-0.19128 -0.60309,-0.39917 -0.88567,-0.56189c-0.71307,-0.41106 -2.40931,-3.19724 -2.08518,-4.76317c0.32413,-1.56593 3.75339,0 3.75339,0c0.79805,0.76719 1.66096,1.78261 1.93734,2.49952c0.07004,0.18398 0.12968,0.36234 0.18358,0.53649z" fill="#9a8479" fill-rule="nonzero" stroke="#000000" stroke-width="0.90231" stroke-linecap="round" stroke-linejoin="round"/><path d="M206.90053,181.27693v0v0v0v0v0v0c4.65779,-0.36027 6.43695,2.34088 6.43592,2.34036c0.37911,0.69767 0.84993,1.68205 1.04546,2.58088c0.0539,0.24828 0.08711,0.52765 0.09538,0.82729c0,0 -0.02747,1.04081 -0.12859,1.35856c-0.42416,1.33115 -1.11493,2.78825 -2.76705,3.44708c-2.59387,1.03874 -5.35471,0.91124 -8.22346,-0.45358c-0.96813,-0.45927 -1.54168,-1.24197 -1.85127,-2.13299c-0.22093,-0.64124 -0.31528,-1.47733 -0.31528,-1.47733c-0.13589,-1.39074 0.10733,-2.74832 0.23696,-3.33871c0,0 0.81471,-2.79135 5.47193,-3.15156z" fill="#9a8479" fill-rule="nonzero" stroke="#000000" stroke-width="0.90231" stroke-linecap="butt" stroke-linejoin="miter"/><path d="M182.7991,173.34869v0v0v0v0v0v0c-0.02747,-0.04769 -0.82971,-1.38758 -0.82971,-1.38815c-2.22515,-3.57193 -2.71832,-11.65043 -2.52492,-14.17172l0.01712,-0.12078c0.63216,-10.68684 5.60207,-16.39079 8.53719,-19.40968c6.66202,-6.85674 16.76008,-7.13565 16.76008,-7.13565l0.3578,6.93713c0,0 -0.01919,-1.99515 4.04327,-5.48313c4.06143,-3.48799 10.06743,-2.97844 10.06743,-2.97844l-3.18707,8.69325c0,0 1.87873,-2.70787 3.4184,-3.69742c2.7297,-1.75146 5.03783,-0.99881 5.03783,-0.99881l-0.63624,5.39189c0,0 4.06246,5.26645 7.17173,10.21516c0.66537,1.05587 1.43647,2.12472 1.92545,3.35422c1.77818,4.4672 2.03485,12.42905 0.04149,16.37269c-0.34429,0.69772 -0.71921,1.37522 -1.10815,2.04129c-0.10113,0.17106 -0.20277,0.34108 -0.30597,0.50903c-0.35625,0.58574 -0.72806,1.16004 -1.11907,1.71676c-0.05286,0.07412 -0.10113,0.1529 -0.15399,0.22708c-0.44341,0.61941 -0.91113,1.216 -1.39757,1.79605c-0.11612,0.13997 -0.23851,0.27523 -0.35728,0.41416c-0.41692,0.47898 -0.8489,0.94445 -1.29225,1.39229c-0.10216,0.10475 -0.20174,0.21099 -0.30493,0.31206c-0.53362,0.5215 -1.08948,1.01857 -1.662,1.49336c-0.12756,0.10423 -0.25822,0.20375 -0.38687,0.30585c-0.4807,0.3836 -0.97749,0.75007 -1.48566,1.09942c-0.14675,0.09952 -0.28988,0.20421 -0.43766,0.30166c-0.62073,0.40796 -1.25651,0.79104 -1.91304,1.14504c-0.11716,0.06378 -0.24161,0.11974 -0.36038,0.18146c-0.56109,0.29183 -1.13516,0.56034 -1.72164,0.80914c-2.48085,1.05173 -5.17475,1.73647 -8.06735,1.94487c-3.30584,0.23794 -6.29853,0.13784 -9.0018,-0.21461c-0.66842,-0.08711 -1.31868,-0.19128 -1.95188,-0.30792c-0.12032,-0.02436 -0.24012,-0.04769 -0.35935,-0.07102c-0.64199,-0.12647 -1.27208,-0.26224 -1.87672,-0.41727c-0.00362,-0.00103 -0.00827,-0.00207 -0.01241,-0.0031c-0.60573,-0.15342 -1.18808,-0.3255 -1.75692,-0.50799c-0.09958,-0.0316 -0.20174,-0.0632 -0.3008,-0.09538c-0.54655,-0.17881 -1.07914,-0.37009 -1.59247,-0.57275c-0.09027,-0.03419 -0.17738,-0.07309 -0.26707,-0.10831c-0.50667,-0.20427 -1.00082,-0.41681 -1.4748,-0.64176c-0.01816,-0.01034 -0.03838,-0.01712 -0.05602,-0.02643c-0.48536,-0.23219 -0.94899,-0.47478 -1.39958,-0.72312c-0.08406,-0.0466 -0.16755,-0.09222 -0.24943,-0.13888c-0.43353,-0.24621 -0.85361,-0.49765 -1.25393,-0.75679c-0.06119,-0.0389 -0.11928,-0.07935 -0.17996,-0.11871c-0.38009,-0.25087 -0.74777,-0.50696 -1.09936,-0.76823c-0.03626,-0.02488 -0.07619,-0.05131 -0.11095,-0.07878c-0.36665,-0.27523 -0.71301,-0.55672 -1.04696,-0.84022c-0.06487,-0.05447 -0.12865,-0.1094 -0.19088,-0.16382c-0.32562,-0.28356 -0.63883,-0.56758 -0.93342,-0.85838c-0.03367,-0.03166 -0.0643,-0.06533 -0.09745,-0.09745c-0.27747,-0.27632 -0.54086,-0.55465 -0.78977,-0.83304c-0.03476,-0.04039 -0.07418,-0.07981 -0.10946,-0.11917c-0.25512,-0.29287 -0.80638,-0.98749 -0.8489,-1.04294c-0.22191,-0.29339 -0.43353,-0.58625 -0.62487,-0.87757c-0.01189,-0.01816 -0.02333,-0.03631 -0.03419,-0.05441c-0.18358,-0.28046 -0.35056,-0.55672 -0.50667,-0.83201z" fill="#9a8479" fill-rule="nonzero" stroke="#000000" stroke-width="0.90231" stroke-linecap="butt" stroke-linejoin="miter"/><path d="M222.01677,157.75773v0v0v0v0v0v0c0,0 6.04129,6.8298 4.17445,13.91465c-1.86581,7.08273 -13.016,10.08347 -21.58324,9.5449c-11.3255,-0.71272 -16.57604,-7.45754 -14.7123,-13.89443c1.86632,-6.43689 16.86017,-9.4459 16.86017,-9.4459l-2.46217,4.6247c0,0 1.93947,-0.29959 3.50603,-1.19532c1.5661,-0.89412 3.2836,-2.08685 3.2836,-2.08685l-3.58745,5.08241c0,0 4.73812,-0.05079 8.84103,-1.69291c4.10291,-1.64005 5.67987,-4.85126 5.67987,-4.85126z" fill="#e6e7e8" fill-rule="nonzero" stroke="#000000" stroke-width="0.90231" stroke-linecap="butt" stroke-linejoin="miter"/><g fill-rule="nonzero" stroke="#000000" stroke-width="0.90231" stroke-linejoin="miter"><path d="M229.74706,154.06496c0,0 9.72412,-5.46187 11.94669,-0.81741c2.22263,4.6444 -1.75324,10.08714 -10.05031,15.01149c0,0 0.18306,-8.08579 -1.89637,-14.19408v0v0v0zM229.74706,154.06496c-0.17376,-0.71479 -0.74783,-2.08168 -0.74783,-2.08168M231.42773,169.51808l0.10423,-1.30776" fill="#9a8479" stroke-linecap="round"/><path d="M231.53196,168.2098c0.0539,-1.49755 0.05183,-3.96334 -0.28574,-7.04234c-0.1945,-1.79197 -0.57045,-3.64042 -0.95623,-5.23692l0.00103,0.00207c5.6959,-1.44986 10.76545,3.81453 10.76545,3.81453h0.00207c-2.84692,4.72582 -9.48095,8.332 -9.48095,8.332l-0.04562,0.13066v0v0v0z" fill="#ee4036" stroke-linecap="butt"/></g><g fill-rule="nonzero" stroke="#000000" stroke-width="0.90231" stroke-linejoin="miter"><path d="M184.10848,171.82115c-8.07666,-3.21379 -12.43468,-7.55964 -11.21397,-12.12481c1.22123,-4.56563 10.6384,-1.08023 10.6384,-1.08023c-0.86344,5.875 0.57557,13.20504 0.57557,13.20504v0v0v0zM183.86215,156.60804c0,0 -0.28936,1.33058 -0.32872,2.00807M184.19875,171.75892l0.29867,1.17458" fill="#9a8479" stroke-linecap="round"/><path d="M184.13807,171.64751c0,0 -6.40586,-2.26882 -9.65729,-6.13368l0.00155,-0.00052c0,0 3.62738,-5.56398 8.867,-5.11459l0.00052,-0.00155c-0.08711,1.511 -0.12549,3.25057 -0.01299,4.91038c0.18979,2.85352 0.57769,5.09747 0.86188,6.45137l-0.06068,-0.11141v0v0v0z" fill="#ee4036" stroke-linecap="butt"/></g><path d="M215.41801,168.90333c-0.37595,0 -0.70473,-0.27213 -0.76696,-0.6552c-0.06797,-0.42399 0.22087,-0.82316 0.64509,-0.89102c0.38578,-0.06068 3.80522,-0.59407 5.06535,-0.43749c0.42629,0.0539 0.7291,0.44266 0.67779,0.86665c-0.05395,0.42715 -0.44858,0.72364 -0.86809,0.6775c-0.79288,-0.09642 -3.25712,0.21047 -4.62975,0.42818c-0.04149,0.00827 -0.08297,0.01138 -0.12342,0.01138v0v0v0v0z" fill="#231f20" fill-rule="nonzero" stroke="none" stroke-width="0.90231" stroke-linecap="butt" stroke-linejoin="miter"/><path d="M202.81319,169.06921c-0.04873,0 -0.09802,-0.00517 -0.14882,-0.01402c-1.79582,-0.34728 -4.95388,0.00626 -4.98496,0.00937c-0.41957,0.04666 -0.81109,-0.25609 -0.86085,-0.68319c-0.04873,-0.42612 0.25719,-0.81178 0.68451,-0.8605c0.14003,-0.01396 3.42513,-0.3825 5.45687,0.00937c0.42106,0.08084 0.69801,0.4888 0.61607,0.91228c-0.07211,0.36854 -0.39825,0.6267 -0.76282,0.6267v0v0v0v0z" fill="#231f20" fill-rule="nonzero" stroke="none" stroke-width="0.90231" stroke-linecap="butt" stroke-linejoin="miter"/><path d="M215.07832,174.69478c0,0 -1.23675,0.67497 -5.93602,0.67497c-4.69819,0 -6.0999,0.29488 -6.0999,0.29488" fill="none" fill-rule="nonzero" stroke="#231f20" stroke-width="0.90231" stroke-linecap="round" stroke-linejoin="miter"/><path d="M210.74988,189.59049v0v0v0v0v0v0c1.68533,-0.43506 2.70999,-0.5072 3.14197,0.00059c0,0 0.84476,0.89244 1.26996,1.82209c0.42422,0.9291 0.72806,1.99771 0.72806,1.99771c0,0 0.07108,0.83059 -2.48544,0.87135c-2.55554,0.03896 -3.32612,-0.65468 -3.32612,-0.65468c0,0 0.03528,-0.23717 0,-0.81093c-0.03471,-0.57373 -0.45582,-1.63035 -0.45582,-1.63035c0,0 -0.55798,-1.16068 1.1274,-1.59577z" fill="#9a8479" fill-rule="nonzero" stroke="#000000" stroke-width="0.90231" stroke-linecap="butt" stroke-linejoin="miter"/><path d="M204.96267,189.22556v0v0v0v0v0v0c2.24124,0.52157 3.12588,0.80563 2.81009,1.89657c-0.23696,0.81798 0.90595,2.61419 0.90595,2.61419c0,0 -1.20204,0.83065 -2.98591,0.7727c-1.78335,-0.05764 -3.2177,-0.68813 -3.2177,-0.68813c0,0 0.06895,-0.61722 0.07102,-1.28064c0,-0.66346 -0.17266,-2.47865 -0.17266,-2.47865c0,0 0.34797,-1.35759 2.58921,-0.83602z" fill="#9a8479" fill-rule="nonzero" stroke="#000000" stroke-width="0.90231" stroke-linecap="butt" stroke-linejoin="miter"/></g></g></g></svg>