<svg version="1.1" xmlns="http://www.w3.org/2000/svg" xmlns:xlink="http://www.w3.org/1999/xlink" width="480" height="360" viewBox="0,0,480,360"><g data-paper-data="{&quot;isPaintingLayer&quot;:true}" fill-rule="nonzero" stroke-linejoin="miter" stroke-miterlimit="10" stroke-dasharray="" stroke-dashoffset="0" style="mix-blend-mode: normal"><path d="M0,360v-360h480v360z" fill="#ffffff" stroke="none" stroke-width="0" stroke-linecap="butt"/><g><path d="M206.68791,228.30839l-55.44946,-24.37819" data-paper-data="{&quot;index&quot;:null}" fill="none" stroke="#383838" stroke-width="3.5" stroke-linecap="round"/><g data-paper-data="{&quot;index&quot;:null}" fill="#393839" stroke="#131313" stroke-width="2.5" stroke-linecap="butt"><path d="M206.24803,228.20062c2.90322,-3.10385 6.43366,-4.51919 7.88546,-3.16123c1.4518,1.35796 0.27521,4.97497 -2.62801,8.07884c-2.90322,3.10385 -6.43366,4.51919 -7.88546,3.16123c-1.4518,-1.35796 -0.27521,-4.97497 2.62801,-8.07884z"/><path d="M208.82291,231.67707c2.90322,-3.10385 6.43366,-4.51919 7.88546,-3.16123c1.4518,1.35796 0.27521,4.97497 -2.62801,8.07884c-2.90322,3.10385 -6.43366,4.51919 -7.88546,3.16123c-1.4518,-1.35796 -0.27521,-4.97497 2.62801,-8.07883z"/><path d="M212.0644,234.07748c2.90322,-3.10385 6.43366,-4.51919 7.88546,-3.16123c1.4518,1.35796 0.2752,4.97499 -2.62801,8.07884c-2.90322,3.10385 -6.43366,4.51919 -7.88546,3.16123c-1.4518,-1.35796 -0.27521,-4.97497 2.62801,-8.07884z"/><path d="M209.54868,224.55257c1.0088,-1.71293 4.79531,-1.35317 8.45744,0.80357c3.66211,2.15673 5.81308,5.2937 4.80429,7.00665c-1.0088,1.71293 -4.79531,1.35315 -8.45744,-0.80357c-3.66211,-2.15673 -5.81308,-5.2937 -4.80429,-7.00662z" data-paper-data="{&quot;index&quot;:null}"/></g></g><path d="M142.83196,271.84692c0,0 19.64814,9.24979 19.72662,17.99393c0.07289,8.12052 -6.72346,20.19082 -6.72346,20.19082" fill="none" stroke="#000000" stroke-width="3.5" stroke-linecap="round"/><path d="M104.21118,269.20017c0,0 4.90752,19.97582 6.16376,29.64204c1.20286,9.25553 0.89028,20.2424 0.89028,20.2424" fill="none" stroke="#000000" stroke-width="3.5" stroke-linecap="round"/><g data-paper-data="{&quot;index&quot;:null}" stroke="#121312" stroke-width="3.5" stroke-linecap="butt"><path d="M98.42771,341.8351l5.32348,-21.45503l15.45283,4.64988c0,0 -3.12673,7.36951 -4.07682,10.71244c-0.26552,0.93426 2.62406,1.97423 4.67797,3.01439c1.44728,0.73294 2.31876,1.42405 2.08078,2.26139c-0.63275,2.2263 -2.54867,6.24347 -2.54867,6.24347z" fill="#383838"/><path d="M120.2754,325.02139c-0.48724,1.71438 -4.67737,2.02554 -9.35891,0.69502c-4.68156,-1.33053 -8.0817,-3.79891 -7.59447,-5.5133c0.24008,-0.84473 0.55473,-5.71215 2.20864,-5.84701c1.70271,-0.13883 5.04692,3.52197 7.42174,4.19691c4.68156,1.33053 7.81024,4.75402 7.32302,6.46841z" fill="#979025"/></g><g stroke="#121312" stroke-width="3.5" stroke-linecap="butt"><path d="M131.78317,327.32765l13.2557,-17.69022l12.42374,10.29867c0,0 -5.74893,5.57096 -7.92542,8.28037c-1.03689,1.29075 5.49065,5.84894 4.17179,7.4907c-1.4495,1.80436 -4.77809,4.75883 -4.77809,4.75883z" fill="#383838"/><path d="M158.45277,320.34524c-1.11618,1.38945 -5.09689,0.04492 -8.8912,-3.00312c-3.7943,-3.04802 -5.96535,-6.64535 -4.84916,-8.0348c0.54997,-0.68464 2.73464,-5.04561 4.31058,-4.52598c1.62243,0.53497 3.27778,5.20882 5.20249,6.755c3.7943,3.04802 5.34347,7.41944 4.2273,8.8089z" fill="#979025"/></g><g stroke="none" stroke-width="0" stroke-linecap="butt"><path d="M99.39381,271.07497v-75.71215h54.11557v75.71215z" fill="#000000"/><path d="M99.3105,262.47486v-7.94357h54.11557v7.94357z" fill="#a17f00"/><g fill="#ca9e00"><path d="M120.94873,262.47291v-13.15654h3.55972v13.15654z"/><path d="M121.68555,262.58367v-7.4471h10.35556v7.4471z"/><path d="M129.20079,259.99054v-11.17064h2.9125v11.17064z"/><path d="M129.56561,258.29812v-2.99056h15.66664l-1.94931,6.42416c0,0 -0.76046,-4.3794 -3.0715,-3.63567c-2.49998,0.80454 -2.79143,2.86034 -4.29254,2.86034c-0.54892,0 -0.41234,-2.12841 -1.26289,-2.47016c-0.8012,-0.32192 -1.08222,2.35813 -1.98558,2.36495c-1.29357,0.00976 -3.10482,-2.55307 -3.10482,-2.55307z"/><path d="M121.09241,260.81155c-0.90336,-0.00682 -1.18438,-2.68686 -1.98558,-2.36495c-0.85055,0.34175 -0.71397,2.47015 -1.26289,2.47015c-1.50111,0 -1.79256,-2.0558 -4.29255,-2.86034c-2.31104,-0.74373 -3.0715,3.63567 -3.0715,3.63567l-1.9493,-6.42416h15.66664v2.99056c0,0 -1.81125,2.56284 -3.10482,2.55307z" data-paper-data="{&quot;index&quot;:null}"/></g><g fill="#ca9e00"><path d="M119.70783,221.22479l0.11076,-21.46363h4.02574l0.11076,21.46363z"/><path d="M120.58698,221.39616v-11.52228h12.35568v11.52228z"/><path d="M129.55375,217.38403v-17.28342h3.47503v17.28342z"/><path d="M129.98902,214.7655v-4.62705h18.69257l-2.3258,9.93957c0,0 -0.90734,-6.77588 -3.66474,-5.62516c-2.98284,1.24479 -3.33059,4.42557 -5.12163,4.42557c-0.65494,0 -0.49198,-3.29312 -1.50681,-3.82187c-0.95594,-0.49807 -1.29124,3.64855 -2.36908,3.6591c-1.54342,0.01511 -3.70451,-3.95015 -3.70451,-3.95015z"/><path d="M119.87926,218.65431c-1.07784,-0.01055 -1.41314,-4.15716 -2.36908,-3.65909c-1.01483,0.52875 -0.85187,3.82187 -1.50681,3.82187c-1.79104,0 -2.13878,-3.18077 -5.12163,-4.42556c-2.7574,-1.15071 -3.66474,5.62516 -3.66474,5.62516l-2.3258,-9.93957h18.69257v4.62704c0,0 -2.16109,3.96526 -3.70451,3.95015z" data-paper-data="{&quot;index&quot;:null}"/></g></g><g stroke="none" stroke-linecap="butt"><path d="M168.56379,153.63151c0,21.62627 -17.96444,39.15784 -40.12469,39.15784c-22.16026,0 -40.12469,-17.53156 -40.12469,-39.15784c0,-21.62627 17.96444,-39.15783 40.12469,-39.15783c22.16026,0 40.12469,17.53155 40.12469,39.15783z" fill="#000000" stroke-width="0"/><path d="M149.54884,146.38006l0.64458,-38.02983l10.31318,-23.52693v61.55676z" fill="#000000" stroke-width="0"/><path d="M95.45049,148.03727v-61.55675l10.31318,23.52693l0.64457,38.02982z" data-paper-data="{&quot;index&quot;:null}" fill="#000000" stroke-width="0"/><path d="M111.51902,184.73217l-7.09031,-21.27092h51.24359l-8.37945,20.30406z" fill="#d9b796" stroke-width="0"/><path d="M111.8413,154.27608c0,2.7589 -4.32878,4.99544 -9.6686,4.99544c-5.33982,0 -9.6686,-2.23654 -9.6686,-4.99544c0,-2.7589 4.32878,-4.99544 9.6686,-4.99544c5.33982,0 9.6686,2.23654 9.6686,4.99544z" fill="#ffffff" stroke-width="0"/><path d="M163.13068,155.28873c0,2.7589 -4.32878,4.99544 -9.6686,4.99544c-5.33982,0 -9.6686,-2.23654 -9.6686,-4.99544c0,-2.7589 4.32878,-4.99545 9.6686,-4.99545c5.33982,0 9.6686,2.23654 9.6686,4.99545z" fill="#ffffff" stroke-width="0"/><path d="M143.58871,173.76624c0,1.25 -1.25,1.25 -1.25,1.25h-1.24118c-8.05477,0 -16.04077,0.49648 -24.07895,0.49648c0,0 -1.25,0 -1.25,-1.25c0,-1.25 1.25,-1.25 1.25,-1.25c8.03765,0 16.02432,-0.49648 24.07895,-0.49648h1.24118c0,0 1.25,0 1.25,1.25z" fill="#000000" stroke-width="0.5"/><path d="M143.41224,177.70579c-0.46424,-1.1606 0.69636,-1.62484 0.69636,-1.62484l1.07607,-0.41588c1.73066,-1.40051 3.14702,-3.4221 0.90224,-5.34532c-0.51696,-0.44291 -2.43233,0.08592 -3.00658,0.20396c0,0 -1.22573,0.24515 -1.47087,-0.98058c-0.24515,-1.22573 0.98058,-1.47087 0.98058,-1.47087c1.41538,-0.27663 3.63322,-0.72468 4.93699,0.20396c1.66902,1.18879 2.86113,4.65217 1.89704,6.52577c-0.72393,1.40686 -1.80953,2.0934 -2.9807,3.0231l-1.40629,0.57707c0,0 -1.1606,0.46424 -1.62484,-0.69636z" fill="#000000" stroke-width="0.5"/><path d="M118.51684,178.2345c0,1.25 -1.25,1.25 -1.25,1.25l-1.23809,-0.02427c-6.01717,-1.22719 -7.03908,-9.42784 -0.49648,-10.8915c0,0 1.22573,-0.24515 1.47087,0.98058c0.24514,1.22573 -0.98058,1.47087 -0.98058,1.47087c-4.067,0.66005 -2.77793,5.34918 0.49648,5.9886l0.7478,-0.02427c0,0 1.25,0 1.25,1.25z" fill="#000000" stroke-width="0.5"/><path d="M136.02373,168.44421c-2.48264,2.33632 -5.88291,1.61028 -9.03295,1.09382c0,0 -1.23299,-0.2055 -1.02749,-1.43849c0.2055,-1.23299 1.43849,-1.02749 1.43849,-1.02749c2.02027,0.343 5.35568,1.26555 6.85419,-0.3956l0.56579,-0.77323c-0.49478,-2.21682 -1.52111,-4.2585 -1.90785,-6.57743c0,0 -0.20549,-1.23299 1.0275,-1.43849c1.23299,-0.2055 1.43849,1.02749 1.43849,1.02749c0.40843,2.45227 1.48298,4.52858 1.97863,6.91098l0.02427,0.49338c0,0 0.00001,0.72744 -0.55493,1.07245z" fill="#000000" stroke-width="0.5"/></g><g><path d="M101.6612,202.63389l58.95444,-13.90364" fill="none" stroke="#383838" stroke-width="3.5" stroke-linecap="round"/><g fill="#393839" stroke="#131313" stroke-width="2.5" stroke-linecap="butt"><path d="M159.0462,180.33461c1.67426,-1.07174 4.889,0.96116 7.18031,4.54062c2.2913,3.57947 2.79153,7.35001 1.11726,8.42173c-1.67426,1.07174 -4.889,-0.96116 -7.18031,-4.54062c-2.2913,-3.57947 -2.79153,-7.35001 -1.11726,-8.42173z"/><path d="M162.20959,177.38355c1.67426,-1.07174 4.889,0.96116 7.18031,4.54062c2.2913,3.57947 2.79152,7.35002 1.11728,8.42176c-1.67426,1.07174 -4.88901,-0.96118 -7.18032,-4.54063c-2.2913,-3.57947 -2.7915,-7.35001 -1.11726,-8.42173z"/><path d="M165.83308,175.61167c1.67426,-1.07174 4.889,0.96116 7.18031,4.54062c2.2913,3.57947 2.79153,7.35001 1.11726,8.42173c-1.67426,1.07174 -4.889,-0.96116 -7.18031,-4.54062c-2.2913,-3.57947 -2.7915,-7.35001 -1.11726,-8.42173z"/><path d="M168.74359,186.92542c3.99289,-1.45585 7.78178,-1.12203 8.46274,0.74561c0.68095,1.86764 -2.00388,4.56185 -5.99677,6.01771c-3.99289,1.45585 -7.78178,1.12202 -8.46274,-0.74561c-0.68095,-1.86764 2.00388,-4.56187 5.99677,-6.01771z" data-paper-data="{&quot;index&quot;:null}"/></g></g></g></svg>