<svg version="1.1" xmlns="http://www.w3.org/2000/svg" xmlns:xlink="http://www.w3.org/1999/xlink" width="488.16667" height="368.16667" viewBox="0,0,488.16667,368.16667"><g transform="translate(4.08333,4.08333)"><g data-paper-data="{&quot;isPaintingLayer&quot;:true}" stroke-linecap="butt" stroke-linejoin="miter" stroke-miterlimit="10" stroke-dasharray="" stroke-dashoffset="0" style="mix-blend-mode: normal"><path d="M-0.33332,360.33334v-360.66666h480.66667v360.66667z" fill="#ffffff" fill-rule="nonzero" stroke="#ffffff" stroke-width="7.5"/><g fill-rule="evenodd" stroke="none" stroke-width="1"><g><path d="M272.89851,217.78044c-19.94998,0.4114 -34.24401,-9.04946 -40.72264,-21.59534c-7.9183,-15.42519 -4.01048,-45.55581 15.7338,-48.02384c0.10279,-1.74815 0.92547,-9.04946 2.05664,-13.98553l6.47864,-2.77652c3.5992,3.49641 4.93607,11.7232 -1.13117,18.81882c2.36513,0.92547 5.45026,5.24456 4.31897,10.18063c-2.15943,9.25516 -5.03886,17.37904 -0.71977,27.14839c3.49641,7.81539 13.47135,11.82599 19.43579,18.51021c7.3012,8.12399 2.36513,11.41471 -5.45026,11.7232z" fill="#272525"/><path d="M253.7712,133.14734c2.05676,1.23408 4.42188,4.11339 4.21618,6.47864c-0.51407,0.61698 -5.55305,11.10622 -3.80478,12.03169c4.42188,2.26234 -2.15955,19.43579 0.30849,30.4391c3.3935,15.21949 16.55636,18.61312 21.80092,27.25118c2.87943,4.73049 -2.36513,5.96445 -3.90769,5.96445c-23.96047,-0.41128 -33.52412,-13.36856 -37.43193,-21.38964c-5.14165,-10.48912 -1.95385,-23.44628 2.46804,-33.62703c0.92559,-2.05664 3.29071,-5.86154 4.93607,-7.40411c2.67374,-2.26234 3.29071,-2.46804 6.78713,-2.77652c0.51419,-0.10279 4.62758,-16.96776 4.62758,-16.96776z" fill="#fff63b"/><path d="M249.65781,153.71431c0.2057,-0.71977 1.23408,-0.41128 1.02838,0.2057c-6.27294,20.87545 -3.5992,40.51694 10.69482,50.80037c2.98222,2.15955 8.94655,4.73049 10.28342,5.24468c1.43978,0.51407 0.30849,1.33675 -1.02826,0.92547c-1.23408,-0.4114 -2.26246,-0.82268 -4.11339,-1.64536c-15.42531,-6.99283 -28.38247,-18.40742 -16.86497,-55.53086z" fill="#272525"/></g><g><path d="M253.21531,154.24426c2.05664,1.54245 3.49641,6.78713 0.61698,11.1061c-5.34735,8.02121 -10.90052,14.70542 -10.38633,25.29745c0.4114,8.43236 8.32969,15.52798 11.62041,23.75477c3.90769,10.07784 -1.95397,11.5175 -9.46086,9.04946c-18.81882,-6.17003 -28.89654,-19.74428 -30.54189,-33.62691c-1.95385,-17.07067 12.44297,-44.01336 31.98155,-39.89997c1.13117,-2.46804 8.22678,-16.24787 10.38633,-15.93938c5.96445,0.82268 9.04946,14.80821 -4.21618,20.25847z" fill="#272525"/><path d="M257.94568,137.68778c2.26234,1.02838 3.90769,3.29071 1.64536,7.50702c-1.43966,2.67374 -9.25516,8.63806 -7.9183,10.07784c3.39362,3.5992 -8.94655,17.58474 -10.59191,28.69084c-2.15955,15.42519 8.94655,22.93221 10.79761,32.70144c1.02838,5.34747 -4.31909,4.83328 -5.75875,4.31909c-22.31511,-8.22678 -26.73711,-23.54919 -27.55979,-32.39295c-1.02826,-11.62029 6.47864,-22.6236 14.29414,-30.85038c1.54245,-1.64536 5.14165,-4.52479 7.3012,-5.34747c3.29071,-1.33687 3.18792,-3.3935 6.58143,-2.46804c0.51419,0.2057 11.20901,-12.23739 11.20901,-12.23739z" fill="#fff63b"/><path d="M246.73667,155.7867c0.51419,-0.61698 1.33687,0 0.92559,0.51419c-13.36856,17.58474 -17.79044,36.81495 -8.12399,51.31455c2.05664,3.08513 6.68422,7.40411 7.81539,8.22678c1.13129,0.92559 -0.61698,2.26246 -1.64536,1.43978c-1.02826,-0.82268 -2.57083,-1.95385 -3.90769,-3.29071c-12.03169,-11.82599 -19.1273,-27.14839 4.93607,-58.20459z" fill="#272525"/></g><g><path d="M244.20755,146.20741c0.71989,2.46804 -0.71977,7.19841 -5.03886,9.56365c-8.63818,4.83328 -15.5281,8.84376 -20.25847,18.51021c-3.70211,7.71272 -1.54257,16.76218 -2.67374,25.50303c-1.43966,10.69482 -9.97493,8.12399 -15.42519,2.57095c-13.67704,-13.88274 -13.26565,-29.20515 -7.81551,-42.1623c6.68434,-15.93938 32.59865,-33.31842 47.81826,-20.87545c2.15955,-1.64536 15.1167,-10.69482 16.96776,-9.46086c4.83316,3.39362 0.30849,17.17346 -13.57425,16.35078z" fill="#272525"/><path d="M256.34203,133.45595c0.51419,2.26234 -0.20558,5.86154 -2.26234,7.40411c-1.85106,1.33675 -8.12387,3.90769 -11.7232,4.21618c1.23408,4.73037 -16.65915,12.64867 -23.54907,21.69813c-9.46086,12.54588 -3.39362,24.26907 -6.58143,33.72982c-1.74827,5.14177 -6.17015,2.36525 -7.19853,1.13117c-15.63089,-17.27625 -12.03169,-32.90714 -8.43236,-41.03101c4.73037,-10.69482 16.86485,-17.07067 27.66246,-20.77266c2.15955,-0.71989 6.78713,-1.64536 9.04946,-1.43966c3.59932,0.30849 4.2163,0.71977 6.68434,2.9821c0.51419,0.4114 15.93938,-9.87214 16.35066,-7.91818z" fill="#fff63b"/><path d="M237.52333,144.35635c0.71977,-0.30849 1.13117,0.6171 0.61698,0.82268c-20.36126,9.46086 -33.83261,24.47477 -32.29016,41.64811c0.30849,3.5992 2.26246,9.46086 2.87943,10.79773c0.61698,1.33675 -0.92559,1.13117 -1.33687,-0.10291c-0.51419,-1.23396 -0.92547,-2.15955 -1.43966,-4.01048c-4.93607,-15.7338 -4.83328,-32.59865 31.57027,-49.15513z" fill="#272525"/></g></g></g></g></svg>