<svg version="1.1" xmlns="http://www.w3.org/2000/svg" xmlns:xlink="http://www.w3.org/1999/xlink" width="488.16667" height="457.37709" viewBox="0,0,488.16667,457.37709"><g transform="translate(4.08334,59.07789)"><g data-paper-data="{&quot;isPaintingLayer&quot;:true}" fill-rule="nonzero" stroke-linecap="butt" stroke-linejoin="miter" stroke-miterlimit="10" stroke-dasharray="" stroke-dashoffset="0" style="mix-blend-mode: normal"><path d="M-0.33333,360.33333v-360.66666h480.66667v360.66667z" fill="#ffffff" stroke="#ffffff" stroke-width="7.5"/><text transform="translate(76.01563,297.93288) scale(8.24929,8.24929)" font-size="40" xml:space="preserve" fill="#67ff00" fill-rule="nonzero" stroke="none" stroke-width="1" stroke-linecap="butt" stroke-linejoin="miter" stroke-miterlimit="10" stroke-dasharray="" stroke-dashoffset="0" font-family="Sans Serif" font-weight="normal" text-anchor="start" style="mix-blend-mode: normal"><tspan x="0" dy="0">S</tspan></text><path d="M362.78339,170.10804c-1.76777,1.76777 -3.53553,0 -3.53553,0l-1.5301,-1.78297c-8.16633,-19.05478 -15.98,-37.8923 -27.14944,-55.4695c-3.39434,-5.34163 -6.45106,-11.59974 -10.84015,-16.20914c-1.66515,-1.74873 -3.56603,-3.25188 -5.41658,-4.8083c-1.66814,0.50251 -3.74168,1.76828 -4.75774,0.53025c-1.36869,-1.6677 -2.17127,-2.96129 -2.55079,-3.95762c-3.28271,0.59108 -6.4818,0.43099 -9.98744,0.42952c-9.3478,-0.00391 -18.16774,-2.12133 -27.39839,-3.14176c-6.76889,-0.74829 -13.4029,-0.52987 -20.10868,-1.9102c-6.25809,-1.28818 -13.15972,-4.02668 -19.49293,-3.94804c0,0 -2.5,0 -2.5,-2.5c0,-2.5 2.5,-2.5 2.5,-2.5c8.43577,0.08008 16.79961,3.91407 25.22321,5.00118c8.31923,1.07365 16.59901,1.15409 24.92424,2.50396c5.62013,0.91126 11.16218,1.49731 16.85256,1.49485c3.90451,-0.00169 7.49228,0.41581 11.20943,-0.87171c4.43549,-1.4785 8.57117,-3.36612 12.90875,-4.96761c6.07377,-2.24251 13.00374,-3.64199 19.31831,-5.09635c13.3532,-3.07548 27.69127,-6.54042 39.40149,-13.90774l2.80262,-1.75505c0.39131,-0.25402 0.85813,-0.40155 1.35941,-0.40155c1.38071,0 2.5,1.11929 2.5,2.5c0,0.79812 -0.374,1.50888 -0.9563,1.9666l-3.88631,3.10905l-0.02138,-0.02672c-0.04638,0.04899 -0.0932,0.09762 -0.14048,0.14587c-2.31349,2.36079 -5.67519,3.4048 -8.36074,5.33182c-9.93297,7.12745 -21.54845,12.87676 -33.51434,15.89517c-0.63451,0.16005 -9.13771,1.63413 -9.91601,1.80736c-3.22549,0.71791 -6.41163,1.81686 -9.60903,2.77477c1.59633,1.38058 3.02184,2.62577 3.24357,2.86003c4.61593,4.87664 7.85174,11.33277 11.43375,16.96973c11.31355,17.80397 19.25392,36.88208 27.52512,56.18154l0.4699,0.21703c0,0 1.76777,1.76777 0,3.53553zM315.25854,86.17116c1.09033,-0.35841 2.38171,-0.58128 3.61152,-0.90622c7.81914,-2.066 15.96643,-3.16304 23.61158,-5.71523c5.10612,-1.70458 10.50121,-3.60169 15.5145,-5.93656c-5.46479,1.5965 -11.0018,2.91681 -16.417,4.16279c-6.09585,1.40259 -12.82372,2.72659 -18.68169,4.90365c-2.83736,1.05448 -5.59993,2.22291 -8.41208,3.32178c0.37236,0.08581 0.64507,0.15044 0.77309,0.16972c0.00003,0.00002 0.00006,0.00005 0.00008,0.00007z" fill="#ff0000" stroke="none" stroke-width="0.5"/><path d="M213.01563,92.84027c-2.5,0 -2.5,-2.5 -2.5,-2.5l0.15918,-1.87781c1.29419,-3.45117 3.23045,-7.0597 3.90019,-10.69052c0.25717,-1.39417 0.4498,-2.83081 0.59149,-4.28307c-2.94876,1.68581 -6.05317,3.11381 -9.36028,4.22311c0,0 -0.9682,0.32273 -1.87358,-0.06281c0.33733,0.36937 0.58301,0.9074 0.58301,1.69111c0,2.5 -2.5,2.5 -2.5,2.5l-2.85752,-0.15167c-1.98502,-0.72486 -3.97357,-1.42757 -5.96285,-2.12209c-0.58217,1.11605 -1.16434,2.2321 -1.7465,3.34814l0.06688,2.42562c0,0 0,2.5 -2.5,2.5c-2.5,0 -2.5,-2.5 -2.5,-2.5l0.06688,-3.57438c0.62049,-1.28322 1.24099,-2.56645 1.86148,-3.84967c-4.80761,-1.66885 -9.60642,-3.35474 -14.35684,-5.25475c0,0 -2.32119,-0.92848 -1.39272,-3.24967c0.92848,-2.32119 3.24967,-1.39272 3.24967,-1.39272c8.23282,3.29339 16.61156,5.93562 24.92905,8.97286l1.14248,-0.15167c0,0 0.57749,0 1.17736,0.27755c-0.21816,-0.24392 -0.40858,-0.56552 -0.54907,-0.98698c-0.79057,-2.37171 1.58114,-3.16228 1.58114,-3.16228c4.12495,-1.36533 7.79786,-3.31331 11.27433,-5.60597c0.01202,-0.67992 0.01696,-1.35497 0.01624,-2.02232c0,0 0,-2.5 2.5,-2.5c1.20613,0 1.83036,0.5819 2.15343,1.18423c1.2164,-0.92878 2.42231,-1.88865 3.62996,-2.86823l3.42604,-1.18771c0,0 2.37171,-0.79057 3.16228,1.58114c0.79057,2.37171 -1.58114,3.16228 -1.58114,3.16228l-2.57396,0.81229c-1.88611,1.63172 -3.82049,3.1717 -5.82073,4.59715c-0.13374,2.93162 -0.41469,5.88963 -0.94532,8.68792c-0.73681,3.88561 -2.72501,7.71614 -4.10974,11.40873l0.15918,0.12219c0,0 0,2.5 -2.5,2.5z" fill="#ff0000" stroke="none" stroke-width="0.5"/></g></g></svg>