<svg version="1.1" xmlns="http://www.w3.org/2000/svg" xmlns:xlink="http://www.w3.org/1999/xlink" width="480" height="360" viewBox="0,0,480,360"><g data-paper-data="{&quot;isPaintingLayer&quot;:true}" fill-rule="nonzero" stroke-linejoin="miter" stroke-miterlimit="10" stroke-dasharray="" stroke-dashoffset="0" style="mix-blend-mode: normal"><path d="M0,360v-360h480v360z" fill="#ffffff" stroke="none" stroke-width="0" stroke-linecap="butt"/><path d="M300.42551,228.44875l-0.86413,-62.0089" data-paper-data="{&quot;index&quot;:null}" fill="none" stroke="#000000" stroke-width="3.5" stroke-linecap="round"/><g data-paper-data="{&quot;index&quot;:null}" stroke="#2c0050" stroke-width="3.5" stroke-linecap="butt"><path d="M288.33732,264.79613c0,0 -1.06889,-5.52432 -1.24099,-8.47557c-0.15657,-2.68526 7.80474,-2.75896 7.68165,-4.87013c-0.25841,-4.43145 -1.83922,-14.46607 -1.83922,-14.46607l16.07225,-1.85055l0.90003,28.24216z" fill="#500190"/><path d="M291.87843,236.24175c-0.13252,-2.27261 3.63322,-5.29974 8.48671,-5.76246c2.46202,-0.23471 6.47413,-3.96004 8.11413,-3.34831c1.59301,0.59419 0.92239,6.77175 0.98767,7.89154c0.13252,2.27261 -3.69457,4.49002 -8.54806,4.95274c-4.85347,0.4627 -8.89542,-1.00451 -9.02793,-3.27711z" fill="#979025"/></g><path d="M329.92346,213.07035c0,0 -7.67487,-19.02517 -7.53798,-28.13944c0.14035,-9.34502 13.08645,-18.4656 13.08645,-18.4656" data-paper-data="{&quot;index&quot;:null}" fill="none" stroke="#000000" stroke-width="3.5" stroke-linecap="round"/><g data-paper-data="{&quot;index&quot;:null}" stroke="#2c0050" stroke-width="3.5" stroke-linecap="butt"><path d="M330.69034,247.47327c0,0 -2.68474,-4.05474 -3.75234,-6.40043c-0.97136,-2.1343 6.32318,-5.77801 5.55949,-7.45602c-1.60305,-3.5222 -6.14815,-11.04977 -6.14815,-11.04977l14.20179,-8.75315l9.53004,22.78351z" fill="#500190"/><path d="M325.14599,222.43452c-0.8221,-1.80632 1.70619,-5.98666 6.02445,-8.55102c2.19052,-1.30081 4.7301,-6.16531 6.42593,-6.40115c1.64723,-0.22912 2.93448,5.1449 3.33955,6.03493c0.8221,1.80632 -2.01209,5.34943 -6.33036,7.91379c-4.31825,2.56434 -8.48533,3.17886 -9.30744,1.37254z" fill="#979025"/></g><g data-paper-data="{&quot;index&quot;:null}"><path d="M289.9906,82.99171l-30.11911,-60.36404" data-paper-data="{&quot;index&quot;:null}" fill="none" stroke="#000000" stroke-width="3.5" stroke-linecap="round"/><g data-paper-data="{&quot;index&quot;:null}" fill="#500190" stroke="#2c0050" stroke-width="2.5" stroke-linecap="butt"><path d="M252.20671,27.28009c-1.50914,-1.47911 -0.45572,-5.7404 2.35289,-9.51785c2.80862,-3.77745 6.30884,-5.6406 7.81798,-4.16148c1.50914,1.47911 0.45572,5.7404 -2.35288,9.51785c-2.80862,3.77745 -6.30884,5.64058 -7.81799,4.16148z"/><path d="M256.27878,20.64569c-2.80861,3.77744 -6.30883,5.64058 -7.81798,4.16147c-1.50914,-1.47912 -0.45572,-5.7404 2.35288,-9.51785c2.80862,-3.77745 6.30884,-5.6406 7.81798,-4.16148c1.50914,1.47911 0.45572,5.7404 -2.35288,9.51785z"/><path d="M245.72362,21.41575c-1.50914,-1.47912 -0.45572,-5.7404 2.35289,-9.51785c2.8086,-3.77744 6.30884,-5.6406 7.81798,-4.16148c1.50914,1.47911 0.45572,5.7404 -2.35288,9.51785c-2.80862,3.77745 -6.30884,5.64058 -7.81799,4.16148z"/><path d="M263.33718,18.80723c-1.61111,1.40191 -4.97345,-0.63107 -7.50999,-4.54077c-2.53654,-3.90971 -3.28676,-8.21564 -1.67566,-9.61754c1.61111,-1.4019 4.97346,0.63108 7.51,4.54078c2.53656,3.90971 3.28676,8.21564 1.67565,9.61754z" data-paper-data="{&quot;index&quot;:null}"/></g></g><g data-paper-data="{&quot;index&quot;:null}"><path d="M342.38484,86.26058l26.91738,-62.52904" fill="none" stroke="#000000" stroke-width="3.5" stroke-linecap="round"/><g fill="#500190" stroke="#2c0050" stroke-width="2.5" stroke-linecap="butt"><path d="M369.17461,24.23367c-2.98734,-3.58569 -4.25212,-7.77811 -2.82498,-9.36405c1.42713,-1.58593 5.00577,0.03518 7.9931,3.62087c2.98734,3.58569 4.25212,7.77811 2.82498,9.36405c-1.42713,1.58593 -5.00577,-0.03518 -7.9931,-3.62087z"/><path d="M380.77087,25.11779c-1.42714,1.58592 -5.00576,-0.03518 -7.9931,-3.62087c-2.98734,-3.58569 -4.25212,-7.77812 -2.82499,-9.36406c1.42713,-1.58593 5.00577,0.03519 7.9931,3.62087c2.98733,3.58568 4.25212,7.77811 2.82498,9.36405z"/><path d="M375.33026,17.91099c-2.98734,-3.58569 -4.25211,-7.7781 -2.82498,-9.36405c1.42713,-1.58593 5.00576,0.03518 7.99309,3.62086c2.98733,3.58568 4.25212,7.77811 2.82498,9.36405c-1.42714,1.58592 -5.00577,-0.03518 -7.9931,-3.62087z"/><path d="M372.90359,15.07935c-2.32648,4.09078 -5.57017,6.36036 -7.24498,5.06928c-1.67481,-1.29108 -1.14655,-5.65394 1.17993,-9.74471c2.32648,-4.09079 5.57016,-6.36038 7.24498,-5.06931c1.67481,1.29106 1.14655,5.65395 -1.17993,9.74472z" data-paper-data="{&quot;index&quot;:null}"/></g></g><g stroke="none" stroke-linecap="butt"><path d="M290.93228,166.54984l-1.1,-92.0845h54.11557l-0.4,92.19872z" fill="#b78000" stroke-width="0"/><path d="M306.73132,104.96052c-0.56376,-0.69311 0.21225,-1.19664 0.21225,-1.19664l0.10473,-0.06484c3.82966,-2.90609 6.29253,-5.86502 7.54161,-9.84893c-0.81208,0.35665 -1.74867,0.63433 -2.80184,0.82802c-2.39871,0.63851 -8.30139,0.17707 -6.79406,-3.25632c1.46228,-3.33078 6.18147,-6.07035 10.16422,-7.23887c0.02024,-0.07388 0.05298,-0.1521 0.10095,-0.23464c0.44196,-0.76034 1.29324,-0.36559 1.29324,-0.36559l0.33222,0.1569c0.01809,0.00687 0.03616,0.01374 0.0542,0.02062c0.17451,-0.01741 0.68426,-0.02996 0.94619,0.37097c1.76366,0.7139 3.3327,1.49046 4.92482,2.60376c1.28386,1.05741 2.97865,2.06135 3.2099,3.78268c0.29433,2.19082 -2.54225,6.293 -5.30048,5.50014c1.5159,3.12525 3.14705,6.15743 5.43327,8.99318l0.68685,0.56027c0,0 0.705,0.58089 0.05462,1.21058c-0.65037,0.62968 -1.35537,0.04879 -1.35537,0.04879l-0.81946,-0.68088c-3.38833,-4.13446 -5.39999,-8.70119 -7.61991,-13.36842c0,0 -0.16593,-0.34908 -0.01694,-0.68134c-0.03605,0.04138 -0.07286,0.08237 -0.11043,0.12293c-1.09207,5.38639 -3.9368,9.17028 -8.68038,12.78107l-0.22044,0.14616c0,0 -0.776,0.50352 -1.33976,-0.18957zM315.18116,91.40765c0,0 0.09703,-0.54702 0.62749,-0.69172c0.2994,-0.46341 0.47571,-0.98922 0.53884,-1.57963c-0.19931,-0.86155 -0.65807,-1.87699 -0.2319,-2.35904c-0.01774,-0.06974 -0.03637,-0.14004 -0.05589,-0.21094l0.11354,-0.15833l-0.10272,-0.01454l0.12779,-0.72045c-2.92652,0.7234 -4.68519,2.062 -7.03479,4.00771c-0.67142,0.556 -2.65792,1.81769 -2.63863,2.79785c0.01862,0.94592 4.22626,0.71018 4.78099,0.54123c1.7763,-0.32188 3.0444,-0.84082 3.86791,-1.57092c0.00246,-0.01372 0.00491,-0.02745 0.00735,-0.0412zM318.32291,88.6201c0.26386,1.15537 0.56837,2.30513 1.11946,3.43258c0.26526,0.54267 1.32743,2.3908 2.13702,2.4787c0.75862,0.08236 1.03335,-1.04206 1.27032,-1.4297c1.58124,-2.58661 1.10868,-3.09031 -1.28249,-5.0614c-1.15079,-0.80467 -2.28347,-1.40538 -3.5022,-1.94139l-0.07656,0.43166c0.21685,0.73868 0.32682,1.43615 0.33443,2.08954z" fill="#09b800" stroke-width="0.5"/><path d="M289.92116,166.94329v-92.37642h19.6581c-0.3298,8.22322 0.02504,16.44274 -0.4611,24.79552c-1.27895,21.97467 1.3108,45.14193 0.03185,67.70782z" fill="#6900b8" stroke-width="0"/><path d="M324.64498,166.94329c2.49883,-22.18513 2.19968,-43.57551 1.25407,-67.45397c-0.33117,-8.36267 -1.35352,-16.69923 -1.68331,-24.92243h19.6581c0,0 0,39.74408 0,56.44345c0,13.32417 0,35.93296 0,35.93296z" data-paper-data="{&quot;index&quot;:null}" fill="#6900b8" stroke-width="0"/><path d="M324.72078,77.5775l8.88889,-18.02248l7.77778,3.55373c0,0 4.10418,9.19775 3.95115,9.60411c-0.846,2.24648 -20.61782,4.86464 -20.61782,4.86464z" fill="#6900b8" stroke-width="0"/><path d="M288.50271,72.3321c-0.15303,-0.40636 3.95116,-9.60411 3.95116,-9.60411l7.77778,-3.55373l8.88889,18.02246c0,0 -19.77183,-2.61816 -20.61783,-4.86464z" data-paper-data="{&quot;index&quot;:null}" fill="#6900b8" stroke-width="0"/><path d="M296.60965,75.03913l14.77778,-0.50768l-2.11111,92.01616z" fill="#510191" stroke-width="0"/><path d="M324.83187,166.67452l-1.77778,-92.01614l14.77778,0.50768z" data-paper-data="{&quot;index&quot;:null}" fill="#510090" stroke-width="0"/><path d="M297.2116,88.68289c0.0758,-0.38151 0.37449,-0.66631 0.73141,-0.66631c0.00349,0 0.00697,0.00002 0.01045,0.00008l-0.07903,-0.49652c-0.00967,-0.05491 -0.01475,-0.11171 -0.01475,-0.16988c0,-0.47315 0.33578,-0.8567 0.75,-0.8567c0.1178,0 0.22927,0.03102 0.32847,0.08631l0.0372,-0.33994c0.04137,-0.42844 0.35933,-0.76172 0.74544,-0.76172c0.22956,0 0.43505,0.11781 0.57262,0.3034l0.66349,0.88421l-0.18901,0.18506c0.14286,0.19906 0.2715,0.40188 0.3895,0.60978l0.03852,-0.44005c0.03359,-0.43764 0.35526,-0.78088 0.7471,-0.78088c0.41422,0 0.75,0.38355 0.75,0.8567v0.40667c0.03366,0.03808 0.06418,0.07978 0.09107,0.12454c0.11169,-0.07544 0.242,-0.11873 0.38116,-0.11873c0.3861,0 0.70407,0.33327 0.74544,0.76171l0.10987,1.00408l-0.28139,0.04019c0.00063,0.01462 0.00117,0.02915 0.00162,0.04363l0.6904,-0.17525c0.05721,-0.01596 0.11698,-0.02441 0.17849,-0.02441c0.41422,0 0.75,0.38355 0.75,0.8567c0,0.02648 -0.00105,0.05267 -0.00311,0.07854l0.84877,0.38781c0.28485,0.12149 0.48768,0.4351 0.48768,0.80283c0,0.43632 -0.28556,0.79647 -0.65485,0.84987l-0.76686,0.12514c-0.27159,0.04431 -0.52943,0.08427 -0.77737,0.11897c0.12688,0.16644 0.23728,0.3299 0.34024,0.5115l0.12945,-0.12323l0.55241,0.75719c0.11042,0.1492 0.17698,0.34211 0.17698,0.55277c0,0.17128 -0.044,0.33081 -0.1198,0.46466c0.51858,1.17845 0.66881,2.39569 -0.0277,2.74642c-0.4326,0.21784 -1.06097,-0.35236 -1.66021,-1.14552c0.04492,0.28666 0.08758,0.57384 0.13362,0.86025l-0.00649,0.03616l0.01019,-0.00117l0.11011,1.25773c0.00312,0.03174 0.00473,0.06401 0.00473,0.0967c0,0.47315 -0.33578,0.8567 -0.75,0.8567c-0.27799,0 -0.52065,-0.17275 -0.65019,-0.42939l-0.65959,-1.25572l0.17168,-0.11767c-0.27084,-0.4217 -0.50878,-0.85184 -0.72625,-1.30069l-0.07662,0.30631c-0.08416,0.36799 -0.37716,0.63956 -0.7257,0.63956c-0.23037,0 -0.43649,-0.11865 -0.57407,-0.30535c-0.91381,1.29444 -2.13227,2.53856 -2.60149,3.02675l-0.0195,0.00795l0.00457,0.00637l-0.66369,0.6204c-0.12995,0.1234 -0.29697,0.19761 -0.47916,0.19761c-0.41422,0 -0.75,-0.38355 -0.75,-0.8567c0,-0.13053 0.02555,-0.25423 0.07126,-0.36496l0.43782,-1.12525l0.04131,0.02096c0.08723,-0.6126 0.18755,-1.2193 0.30427,-1.82103l-1.08909,0.62201c-0.10422,0.06268 -0.22293,0.09816 -0.3489,0.09816c-0.41422,0 -0.75,-0.38355 -0.75,-0.8567c0,-0.18931 0.05375,-0.36427 0.14477,-0.50606l0.55048,-0.88031l0.21885,0.17856c0.45515,-0.76101 1.00886,-1.28384 1.65671,-1.84399c-0.12336,-0.14498 -0.24386,-0.29613 -0.3608,-0.45113c-0.17494,0.00316 -0.34854,0.0146 -0.51795,0.04224l-0.05317,-0.02538v0.02753h-0.88889c-0.41422,0 -0.75,-0.38355 -0.75,-0.8567c0,-0.44469 0.29661,-0.81025 0.67617,-0.8526l0.09626,-0.01221l-0.26211,-0.35928c-0.11042,-0.1492 -0.17699,-0.34211 -0.17699,-0.55277c0,-0.13676 0.02806,-0.26606 0.07796,-0.38075c-0.0499,-0.1147 -0.07796,-0.24399 -0.07796,-0.38076c0,-0.47315 0.33578,-0.8567 0.75,-0.8567c0.16573,0 0.31889,0.0614 0.44303,0.16537l0.72087,0.58817c0.0837,0.04031 0.18986,0.09007 0.31336,0.14842c0.05471,-0.04111 0.11442,-0.07426 0.17786,-0.09801zM296.49821,96.46667l-0.00834,0.00186l0.00552,0.01262c0.00094,-0.00483 0.00188,-0.00965 0.00282,-0.0145zM298.2831,96.27419c0.048,-0.07453 0.09563,-0.14925 0.14297,-0.22412c-0.02879,-0.00828 -0.05692,-0.01845 -0.08427,-0.0304c-0.01927,0.08524 -0.03883,0.17015 -0.0587,0.25452z" fill="#a455b8" stroke-width="0.5"/><path d="M295.85965,91.15782c0,-0.8567 0.75,-0.8567 0.75,-0.8567h0.22222c0.27238,0 0.80228,-0.03672 1.35529,-0.03771c0.00401,-0.21636 0.00727,-0.44517 0.0077,-0.68936l0.02643,-0.05703l-0.02078,-0.00339l0.10956,-0.87596c0.04676,-0.42183 0.36204,-0.74802 0.74402,-0.74802c0.3277,0 0.60631,0.24006 0.70839,0.57462l0.00945,0.02879c0.1332,-0.13834 0.31017,-0.22265 0.50438,-0.22265c0.00331,0 0.00662,0.00002 0.00993,0.00007c0.32526,-0.1431 0.71801,-0.051 1.19504,0.40633c0.11418,0.10946 0.21287,0.22 0.29731,0.33065c0.13619,-0.21581 0.35814,-0.3563 0.60883,-0.3563c0.41422,0 0.75,0.38355 0.75,0.8567c0,0.03622 -0.00197,0.07193 -0.00579,0.10697l-0.10991,1.1299l-0.06221,-0.00789c-0.00421,0.11787 -0.01708,0.23522 -0.0411,0.35183c0.68698,0.096 1.2899,0.40192 1.39519,0.91584c0.23785,1.16097 -0.01291,1.66626 -0.40184,1.80746c0.14853,0.05962 0.29669,0.12901 0.44457,0.20909l0.14428,-0.32962l0.87436,0.49937c0.25369,0.13737 0.42912,0.43257 0.42912,0.77456c0,0.47315 -0.33578,0.8567 -0.75,0.8567h-0.77778v-0.04386l-0.09164,0.03744c-0.43764,-0.1275 -1.01374,-0.24482 -1.51053,-0.49508c-0.13502,0.22614 -0.36236,0.37458 -0.62006,0.37458c-0.28758,0 -0.53737,-0.18489 -0.66321,-0.45629c-1.43228,0.23757 -2.75002,0.86854 -4.16769,1.19588l-0.85976,0.24552c-0.06314,0.01972 -0.1296,0.03024 -0.19822,0.03024c-0.41422,0 -0.75,-0.38355 -0.75,-0.8567c0,-0.28384 0.12085,-0.53545 0.30698,-0.69134l0.8819,-0.75553l0.14159,0.21565c0.23368,-0.23487 0.47228,-0.44711 0.71947,-0.64972c-0.10086,-0.14589 -0.16106,-0.33017 -0.16106,-0.5305c0,-0.18001 0.04861,-0.34707 0.13165,-0.48495l0.28483,-0.48802l-0.27519,-0.19646c-0.08375,-0.05763 -0.15682,-0.13342 -0.21506,-0.22261c-0.17518,-0.01805 -0.31929,-0.03579 -0.39845,-0.03579h-0.22222c0,0 -0.75,0 -0.75,-0.8567z" fill="#af5ac4" stroke-width="0.5"/><path d="M302.52126,92.76448c-0.15227,0.40585 -0.40918,0.51288 -0.62242,0.5213c-0.11003,0.18658 -0.28263,0.321 -0.48346,0.364c-0.01709,0.22058 -0.03776,0.44078 -0.06149,0.66036c0,0 -0.09303,0.85009 -0.83724,0.74382c-0.56259,-0.08032 -0.64672,-0.58572 -0.65428,-0.82762c-0.20556,-0.10376 -0.36264,-0.30992 -0.42169,-0.56187h-0.60879c-0.41422,0 -0.75,-0.38355 -0.75,-0.8567c0,-0.32437 0.15782,-0.60664 0.39053,-0.75208l0.76514,-0.49942l0.18934,0.37848c0.01298,-0.00739 0.02589,-0.01469 0.03875,-0.02187l0.06525,-0.5962c0.00707,-0.07327 0.02224,-0.14374 0.04444,-0.21026l-0.13364,-0.61062c-0.01726,-0.07212 -0.02648,-0.14804 -0.02648,-0.22642c0,-0.47315 0.33578,-0.8567 0.75,-0.8567c0.20711,0 0.39461,0.09588 0.53033,0.25092l0.66667,0.76151l-0.01899,0.02169l0.06867,0.04095c0.11705,0.35263 0.38175,0.70438 0.51085,1.05693l0.20459,0.09489c0,0 0.68935,0.33746 0.39391,1.1249z" fill="#be62d5" stroke-width="0.5"/></g><g stroke="#000000" stroke-width="0.5" stroke-linecap="butt"><path d="M357.36061,13.60333c0,25.22614 -17.96443,45.67596 -40.12469,45.67596c-22.16025,0 -40.12469,-20.44983 -40.12469,-45.67596c0,-3.48422 0.34271,-6.87732 0.99184,-10.13801c1.37275,-0.01047 2.74561,-0.02371 4.11877,-0.04025c4.71017,-1.1187 8.88465,-2.1587 13.57581,-2.93112c0.13088,0.00604 0.20236,0.00604 0.20236,0.00604l3.447,-0.0153c5.64707,0.63767 11.26105,1.62116 16.93163,1.99598c13.1263,0.86762 26.53922,0.3834 39.81371,0.13633c0.76331,3.51908 1.16827,7.19887 1.16827,10.98633z" fill="#e0e0e0"/><path d="M280.13091,30.284c0.20009,0.48075 0.38824,0.96859 0.56197,1.46495c0.06304,0.18012 1.18343,4.3232 1.10522,4.70305c-0.02526,0.1227 -0.05451,0.24377 -0.08722,0.36341l0.05852,0.01338l-0.39455,2.25341c-0.12592,0.80083 -0.739,1.40851 -1.47632,1.40851c-0.63081,0 -1.17066,-0.44478 -1.39234,-1.07476l-0.58638,-1.56288l0.05547,-0.02715l-0.10924,-0.13957c-0.33486,-1.87879 -0.53478,-3.75678 -0.63684,-5.63495c-1.0511,0.16952 -1.50939,-1.05194 -1.50939,-1.05194c-0.16825,-0.45234 -0.35078,-0.89656 -0.54433,-1.33451c-0.14983,0.05735 -0.31021,0.08843 -0.47695,0.08843c-0.69036,0 -1.27179,-0.53272 -1.44642,-1.25794l-0.59032,-2.24767l0.011,-0.00377l-0.02062,-0.0345c-0.19881,-0.91006 -0.38694,-1.7019 -0.55582,-2.43275c-0.39162,-0.73344 -0.76995,-1.47434 -1.11741,-2.23262c-2.41741,-5.27569 -4.46245,-11.6397 -5.48683,-18.04413h2.50788c4.74183,0 9.4801,-0.01782 14.22183,-0.07492c1.38938,-0.32999 2.73216,-0.65313 4.05533,-0.96458c-0.61015,2.92227 -0.88396,5.9422 -0.87861,8.90228v1.82763c0,0.94629 -0.67158,1.7134 -1.5,1.7134c-0.7529,0 -1.37624,-0.63363 -1.48364,-1.45951l-0.39594,-2.71367l0.26865,-0.05114c-0.24572,-0.73055 -0.46382,-1.45759 -0.6626,-2.19013c-0.18046,1.3483 -0.3744,2.58303 -0.43057,3.4571c-0.39226,6.10439 -1.22681,12.24026 -1.06351,18.33747z" fill="#00cc24"/><path d="M358.36542,7.80607l0.39039,2.00669c0.02793,0.13069 0.04274,0.26725 0.04274,0.40777c0,0.94629 -0.67158,1.7134 -1.5,1.7134c-0.25194,0 -0.48937,-0.07095 -0.69781,-0.1963l-0.90599,-0.51745c-0.41551,0.9528 0.05752,4.6574 0.09154,4.95005c0.67042,5.76543 1.46949,11.51986 2.18926,17.28002l0.3878,2.21485c0.02305,0.11938 0.0352,0.24343 0.0352,0.37072c0,0.94629 -0.67158,1.7134 -1.5,1.7134c-0.45913,0 -0.87008,-0.23563 -1.14523,-0.6068l-0.61753,-0.82295c-0.27038,0.44956 -0.72367,0.74438 -1.23724,0.74438c-0.7529,0 -1.37624,-0.63363 -1.48364,-1.45951l-0.39594,-2.71367l0.00652,-0.00125c-0.00376,-0.01109 -0.00751,-0.02218 -0.01125,-0.03329c-0.62794,-1.86651 -0.22564,-3.91874 -1.19871,-5.75624c-1.95512,-3.69192 -3.23113,-7.40383 -3.939,-11.77393c-0.65557,-4.04724 -1.13105,-8.28707 -1.80736,-12.48149c4.18115,-0.08031 8.36033,-0.1809 12.52439,-0.25261c0.23904,1.81546 0.48393,3.57036 0.77186,5.21421z" fill="#00cc24"/><path d="M355.52397,37.72875c0.01246,-0.03772 0.02437,-0.07552 0.03574,-0.11341c0.00618,0.04228 0.01234,0.08452 0.01847,0.12675c-0.01807,-0.00445 -0.03614,-0.0089 -0.05421,-0.01334z" fill="#00cc24"/><path d="M355.52397,37.72875v0v0.00001z" fill="#00cc24"/><path d="M307.66522,8.46908c0,5.73029 -3.38511,10.18524 -9,10.18524c-5.61489,0 -10.16667,-4.64532 -10.16667,-10.37561c0,-0.95067 0.18145,-3.80768 0.73846,-6.49816c2.14539,-0.47718 4.29262,-0.91316 6.56062,-1.28659c0.13088,0.00604 0.20236,0.00604 0.20236,0.00604l3.447,-0.0153c1.07296,0.12116 2.14472,0.2548 3.2159,0.39438c2.87718,2.6449 5.00233,5.77043 5.00233,7.59z" fill="#dca922"/><path d="M330.99855,7.66949c0,5.73029 -4.55178,10.37562 -10.16667,10.37562c-5.61489,0 -9,-4.45494 -9,-10.18524c0,-1.35474 1.17805,-3.43342 2.96742,-5.49868c0.526,0.04457 1.05242,0.08466 1.57933,0.11948c4.70276,0.31084 9.44232,0.44817 14.19911,0.48504c0.311,2.07101 0.42081,3.96422 0.42081,4.70377z" data-paper-data="{&quot;index&quot;:null}" fill="#dca922"/><path d="M306.21879,4.70495l-6.01487,-4.13277c1.22496,0.14468 2.44854,0.30365 3.67167,0.46714z" fill="#000000"/><path d="M312.77833,4.66687l1.50285,-2.35102c0.5718,0.0516 1.14407,0.09818 1.71689,0.13876z" data-paper-data="{&quot;index&quot;:null}" fill="#000000"/></g><g fill="#6a5210" stroke="none" stroke-width="0" stroke-linecap="butt"><path d="M303.05382,6.1186c0,4.10058 -2.05203,7.42475 -4.58334,7.42475c-2.5313,0 -4.58333,-3.32418 -4.58333,-7.42475c0,-2.21531 0.59891,-4.20401 1.54874,-5.56439c0.12025,-0.02026 0.24082,-0.04035 0.36174,-0.06026c0.13088,0.00604 0.20236,0.00604 0.20236,0.00604l3.447,-0.0153c0.72973,0.0824 1.45891,0.17058 2.18773,0.26247c0.87436,1.35206 1.4191,3.2587 1.4191,5.37144z"/><path d="M325.3872,6.88011c0,4.10058 -2.05203,7.42475 -4.58333,7.42475c-2.5313,0 -4.58333,-3.32418 -4.58333,-7.42475c0,-1.62635 0.32279,-3.13056 0.87025,-4.3537c2.51348,0.15675 5.03717,0.26507 7.56809,0.33608c0.46088,1.1581 0.72832,2.53727 0.72832,4.01762z"/></g><path d="M290.88897,33.66706c0,0 -2.0429,-1.07702 -1.10002,-3.41058c0.94288,-2.33355 2.98579,-1.25652 2.98579,-1.25652c3.58013,1.88961 7.04126,3.8681 10.63847,5.69675c1.22953,0.62504 2.87309,1.56986 4.41616,1.93384c1.15114,-0.29287 2.48005,-0.36113 3.78706,-0.35294c3.07944,-0.98857 6.02963,-3.08085 9.18835,-3.67346c3.81324,-0.7154 7.86799,-0.23646 10.91051,-3.1914l0.18009,-0.049l-0.03057,-0.05987l1.96677,-1.3105c0.34024,-0.23621 0.73969,-0.37224 1.16694,-0.37224c1.24264,0 2.25,1.15068 2.25,2.57011c0,0.24951 -0.03112,0.49071 -0.08918,0.71882l-0.65346,2.79907l-0.07432,-0.02264c-0.02609,0.1781 -0.0581,0.35537 -0.09692,0.53164c-0.60671,2.75494 -4.26527,4.80582 -6.1447,6.1492c-0.37021,0.26462 -0.74415,0.52241 -1.12153,0.7737c0.00888,0.09278 0.01344,0.18704 0.01344,0.28251c0,1.31653 -0.8666,2.40185 -1.98374,2.5523l-2.46889,0.37601l-0.00905,-0.07753l-0.1393,0.09443c-0.14216,0.00027 -0.28447,0.00048 -0.42689,0.00062c-0.53331,0.3287 -1.20593,0.41755 -1.83608,0.55735c-2.58351,1.19341 -5.23826,2.2101 -7.89102,3.14158c-1.62907,0.57204 -3.15354,1.79287 -4.85764,1.82226c-2.98334,0.05145 -3.81889,-1.09573 -6.0179,-2.68583c-3.76873,-2.72516 -6.89578,-5.63085 -10.17554,-9.06502l-0.02002,-0.0561l-0.01491,0.01704l-1.66667,-1.90377c-0.40717,-0.4651 -0.65901,-1.10762 -0.65901,-1.81734c0,-0.22786 0.02596,-0.44879 0.07468,-0.65914c-0.0337,-0.0179 -0.06734,-0.0357 -0.1009,-0.05337zM307.04531,43.22198c-0.32306,-0.06059 -0.64546,-0.12434 -0.9671,-0.19139c0.28184,0.22522 0.59661,0.50243 0.93257,0.76862z" fill="#ffffff" stroke="none" stroke-width="0.5" stroke-linecap="butt"/><path d="M284.86524,24.13722l21.83333,9.51891l36.16667,-10.85156c0,0 -5.13849,15.17836 -10.93057,20.9285c-4.47609,4.44367 -20.90276,10.6743 -20.90276,10.6743c0,0 -12.33039,-6.56646 -16.18312,-11.02339c-4.69997,-5.43702 -9.98355,-19.24675 -9.98355,-19.24675zM306.69854,38.89152c-0.45179,0.12901 -15.18587,-9.21167 -15.53001,-8.99254c-1.06852,0.68036 3.09763,6.97743 8.67863,11.91458c3.47753,3.07635 8.93179,5.39177 9.64305,6.20423c3.772,4.30864 31.63095,-15.09767 23.875,-17.31252z" fill="#8a0000" stroke="none" stroke-width="0" stroke-linecap="butt"/><path d="M311.27432,27.73876c0.54885,1.43767 -0.54885,2.1565 -0.54885,2.1565l-0.7239,0.37159c-2.4769,0.39991 -4.88714,0.31801 -7.36775,0.85794c-1.94717,0.1915 -4.22812,0.68276 -5.85887,-1.23587c-2.68751,-3.16194 -3.84927,-9.24257 0.1502,-11.47884c2.32671,-1.30095 5.57761,-1.23462 8.04055,-0.75623c0.7593,0.14749 1.53049,1.04427 2.24442,0.67491c0.2204,-0.11403 1.1321,-5.74574 1.28497,-6.54897c0,0 0.29766,-1.55937 1.48829,-1.16954c1.19063,0.38985 0.89297,1.94921 0.89297,1.94921c-0.37291,1.94828 -0.92226,7.40702 -2.31502,8.45308c-1.28556,0.96554 -2.71784,0.0673 -3.97374,-0.18235c-1.84383,-0.36653 -3.49671,-0.16869 -5.33099,0.21043c-0.58954,0.12185 -2.43014,0.48947 -2.63385,1.67302c-0.14058,0.81675 0.66245,2.54835 0.86288,2.99256c1.27936,2.83549 2.49982,2.4709 4.85203,2.22732c2.47517,-0.54189 4.89258,-0.44647 7.35948,-0.8566l-0.06936,-0.05703c0,0 1.0977,-0.71884 1.64655,0.71883z" fill="#878787" stroke="none" stroke-width="0.5" stroke-linecap="butt"/><g><path d="M146.32011,204.90744l59.99177,-8.36216" data-paper-data="{&quot;index&quot;:null}" fill="none" stroke="#383838" stroke-width="3.5" stroke-linecap="round"/><g data-paper-data="{&quot;index&quot;:null}" fill="#393839" stroke="#131313" stroke-width="2.5" stroke-linecap="butt"><path d="M205.8809,196.6845c0.84145,-4.16588 3.10319,-7.22395 5.05174,-6.83036c1.94855,0.39358 2.84606,4.08975 2.00462,8.25564c-0.84145,4.16588 -3.10319,7.22395 -5.05174,6.83036c-1.94855,-0.39358 -2.84606,-4.08975 -2.00462,-8.25564z"/><path d="M209.89752,198.29153c0.84145,-4.16588 3.10319,-7.22395 5.05174,-6.83036c1.94855,0.39358 2.84606,4.08975 2.00462,8.25564c-0.84145,4.16588 -3.10319,7.22394 -5.05174,6.83036c-1.94855,-0.39358 -2.84606,-4.08975 -2.00462,-8.25563z"/><path d="M213.91658,198.63278c0.84145,-4.16588 3.10319,-7.22395 5.05174,-6.83036c1.94855,0.39358 2.84606,4.08977 2.00462,8.25564c-0.84145,4.16588 -3.10319,7.22394 -5.05174,6.83036c-1.94855,-0.39358 -2.84606,-4.08975 -2.00462,-8.25564z"/><path d="M206.77493,191.8468c-0.04069,-1.9875 3.37092,-3.6692 7.62005,-3.75618c4.24912,-0.08698 7.7267,1.45367 7.7674,3.44118c0.04069,1.9875 -3.37093,3.66918 -7.62005,3.75618c-4.24912,0.08698 -7.7267,-1.45367 -7.76739,-3.44117z" data-paper-data="{&quot;index&quot;:null}"/></g></g><path d="M144.81322,270.8563c0,0 8.61767,17.27709 10.05583,27.01546c-3.92281,8.61969 -7.28906,23.05669 -7.28906,23.05669" fill="none" stroke="#000000" stroke-width="3.5" stroke-linecap="round"/><path d="M107.98182,271.52241c0,0 26.34512,4.54218 26.30371,12.61858c-0.00374,0.72821 -21.59885,19.60748 -21.59885,19.60748" fill="none" stroke="#000000" stroke-width="3.5" stroke-linecap="round"/><g data-paper-data="{&quot;index&quot;:null}" stroke="#121312" stroke-width="3.5" stroke-linecap="butt"><path d="M91.41697,318.70417l14.48185,-16.70132l11.65877,11.15726c0,0 -6.13107,5.14743 -8.495,7.69492c-0.66064,0.71196 1.44209,2.95019 2.80011,4.80929c0.95693,1.31001 1.41978,2.32138 0.82766,2.95949c-1.57432,1.69656 -5.10488,4.40645 -5.10488,4.40645z" fill="#383838"/><path d="M118.51613,313.63878c-1.21231,1.30645 -5.08718,-0.31817 -8.65476,-3.62867c-3.56761,-3.31052 -5.47694,-7.05328 -4.26463,-8.35975c0.59734,-0.64373 3.08702,-4.83806 4.62195,-4.20751c1.58022,0.64915 2.89848,5.42905 4.70823,7.10836c3.56761,3.31052 4.80153,7.78113 3.58923,9.08759z" fill="#979025"/></g><g stroke="#121312" stroke-width="3.5" stroke-linecap="butt"><path d="M137.70661,344.06751l1.39226,-22.06172l16.03599,1.80524c0,0 -1.7554,7.81054 -2.09099,11.26963c-0.15989,1.64791 7.79817,1.88307 7.59481,3.9791c-0.22351,2.30365 -1.38845,6.59915 -1.38845,6.59915z" fill="#383838"/><path d="M156.18732,323.61058c-0.17211,1.77393 -4.23862,2.83098 -9.08283,2.36099c-4.8442,-0.46999 -8.63171,-2.28905 -8.45959,-4.06298c0.0848,-0.87408 -0.47795,-5.7191 1.12502,-6.14817c1.65026,-0.44172 5.59641,2.56044 8.05371,2.79886c4.8442,0.46999 8.53579,3.27736 8.3637,5.05129z" fill="#979025"/></g><g stroke="none" stroke-width="0" stroke-linecap="butt"><path d="M99.39382,271.07497v-75.71215h54.11557v75.71215z" fill="#000000"/><path d="M99.31053,262.47486v-7.94357h54.11557v7.94357z" fill="#a17f00"/><g fill="#ca9e00"><path d="M120.94874,262.47291v-13.15654h3.55972v13.15654z"/><path d="M121.68558,262.58367v-7.4471h10.35556v7.4471z"/><path d="M129.20081,259.99054v-11.17064h2.9125v11.17064z"/><path d="M129.56563,258.29812v-2.99056h15.66664l-1.94931,6.42416c0,0 -0.76046,-4.3794 -3.0715,-3.63567c-2.49998,0.80454 -2.79143,2.86034 -4.29254,2.86034c-0.54892,0 -0.41234,-2.12841 -1.26289,-2.47016c-0.8012,-0.32192 -1.08222,2.35813 -1.98558,2.36495c-1.29357,0.00976 -3.10482,-2.55307 -3.10482,-2.55307z"/><path d="M121.09242,260.81155c-0.90336,-0.00682 -1.18438,-2.68686 -1.98558,-2.36495c-0.85055,0.34175 -0.71397,2.47015 -1.26289,2.47015c-1.50111,0 -1.79256,-2.0558 -4.29255,-2.86034c-2.31104,-0.74373 -3.0715,3.63567 -3.0715,3.63567l-1.9493,-6.42416h15.66664v2.99056c0,0 -1.81125,2.56284 -3.10482,2.55307z" data-paper-data="{&quot;index&quot;:null}"/></g><g fill="#ca9e00"><path d="M119.70786,221.22479l0.11076,-21.46363h4.02574l0.11076,21.46363z"/><path d="M120.58699,221.39616v-11.52228h12.35568v11.52228z"/><path d="M129.55376,217.38403v-17.28342h3.47503v17.28342z"/><path d="M129.98904,214.7655v-4.62705h18.69257l-2.3258,9.93957c0,0 -0.90734,-6.77588 -3.66474,-5.62516c-2.98284,1.24479 -3.33059,4.42557 -5.12163,4.42557c-0.65494,0 -0.49198,-3.29312 -1.50681,-3.82187c-0.95594,-0.49807 -1.29124,3.64855 -2.36908,3.6591c-1.54342,0.01511 -3.70451,-3.95015 -3.70451,-3.95015z"/><path d="M119.87929,218.65431c-1.07784,-0.01055 -1.41314,-4.15716 -2.36908,-3.65909c-1.01483,0.52875 -0.85187,3.82187 -1.50681,3.82187c-1.79104,0 -2.13878,-3.18077 -5.12163,-4.42556c-2.7574,-1.15071 -3.66474,5.62516 -3.66474,5.62516l-2.3258,-9.93957h18.69257v4.62704c0,0 -2.16109,3.96526 -3.70451,3.95015z" data-paper-data="{&quot;index&quot;:null}"/></g></g><g stroke="none" stroke-linecap="butt"><path d="M168.56379,153.63151c0,21.62627 -17.96444,39.15784 -40.12469,39.15784c-22.16026,0 -40.12469,-17.53156 -40.12469,-39.15784c0,-21.62627 17.96444,-39.15783 40.12469,-39.15783c22.16026,0 40.12469,17.53155 40.12469,39.15783z" fill="#000000" stroke-width="0"/><path d="M149.54886,146.38006l0.64458,-38.02983l10.31318,-23.52693v61.55676z" fill="#000000" stroke-width="0"/><path d="M95.45049,148.03727v-61.55675l10.31318,23.52693l0.64457,38.02982z" data-paper-data="{&quot;index&quot;:null}" fill="#000000" stroke-width="0"/><path d="M111.51903,184.73217l-7.09031,-21.27092h51.24359l-8.37945,20.30406z" fill="#d9b796" stroke-width="0"/><path d="M111.84133,154.27608c0,2.7589 -4.32878,4.99544 -9.6686,4.99544c-5.33982,0 -9.6686,-2.23654 -9.6686,-4.99544c0,-2.7589 4.32878,-4.99544 9.6686,-4.99544c5.33982,0 9.6686,2.23654 9.6686,4.99544z" fill="#ffffff" stroke-width="0"/><path d="M163.1307,155.28873c0,2.7589 -4.32878,4.99544 -9.6686,4.99544c-5.33982,0 -9.6686,-2.23654 -9.6686,-4.99544c0,-2.7589 4.32878,-4.99545 9.6686,-4.99545c5.33982,0 9.6686,2.23654 9.6686,4.99545z" fill="#ffffff" stroke-width="0"/><path d="M143.58873,173.76624c0,1.25 -1.25,1.25 -1.25,1.25h-1.24118c-8.05477,0 -16.04077,0.49648 -24.07895,0.49648c0,0 -1.25,0 -1.25,-1.25c0,-1.25 1.25,-1.25 1.25,-1.25c8.03765,0 16.02432,-0.49648 24.07895,-0.49648h1.24118c0,0 1.25,0 1.25,1.25z" fill="#000000" stroke-width="0.5"/><path d="M143.41226,177.70579c-0.46424,-1.1606 0.69636,-1.62484 0.69636,-1.62484l1.07607,-0.41588c1.73066,-1.40051 3.14702,-3.4221 0.90224,-5.34532c-0.51696,-0.44291 -2.43233,0.08592 -3.00658,0.20396c0,0 -1.22573,0.24515 -1.47087,-0.98058c-0.24515,-1.22573 0.98058,-1.47087 0.98058,-1.47087c1.41538,-0.27663 3.63322,-0.72468 4.93699,0.20396c1.66902,1.18879 2.86113,4.65217 1.89704,6.52577c-0.72393,1.40686 -1.80953,2.0934 -2.9807,3.0231l-1.40629,0.57707c0,0 -1.1606,0.46424 -1.62484,-0.69636z" fill="#000000" stroke-width="0.5"/><path d="M118.51685,178.2345c0,1.25 -1.25,1.25 -1.25,1.25l-1.23809,-0.02427c-6.01717,-1.22719 -7.03908,-9.42784 -0.49648,-10.8915c0,0 1.22573,-0.24515 1.47087,0.98058c0.24514,1.22573 -0.98058,1.47087 -0.98058,1.47087c-4.067,0.66005 -2.77793,5.34918 0.49648,5.9886l0.7478,-0.02427c0,0 1.25,0 1.25,1.25z" fill="#000000" stroke-width="0.5"/><path d="M136.02376,168.44421c-2.48264,2.33632 -5.88291,1.61028 -9.03295,1.09382c0,0 -1.23299,-0.2055 -1.02749,-1.43849c0.2055,-1.23299 1.43849,-1.02749 1.43849,-1.02749c2.02027,0.343 5.35568,1.26555 6.85419,-0.3956l0.56579,-0.77323c-0.49478,-2.21682 -1.52111,-4.2585 -1.90785,-6.57743c0,0 -0.20549,-1.23299 1.0275,-1.43849c1.23299,-0.2055 1.43849,1.02749 1.43849,1.02749c0.40843,2.45227 1.48298,4.52858 1.97863,6.91098l0.02427,0.49338c0,0 0.00001,0.72744 -0.55493,1.07245z" fill="#000000" stroke-width="0.5"/></g><g><path d="M100.44597,199.25899l58.33356,16.31357" fill="none" stroke="#383838" stroke-width="3.5" stroke-linecap="round"/><g fill="#393839" stroke="#131313" stroke-width="2.5" stroke-linecap="butt"><path d="M161.46218,207.46374c1.98369,-0.12933 3.81596,3.20384 4.09246,7.44486c0.27649,4.24101 -1.10746,7.78388 -3.09115,7.9132c-1.98369,0.12933 -3.81596,-3.20384 -4.09246,-7.44486c-0.27649,-4.24101 1.10746,-7.78388 3.09115,-7.9132z"/><path d="M165.65772,206.40857c1.98369,-0.12933 3.81596,3.20384 4.09246,7.44486c0.27649,4.24101 -1.10746,7.78389 -3.09115,7.91322c-1.98369,0.12933 -3.81596,-3.20386 -4.09246,-7.44487c-0.27649,-4.24101 1.10747,-7.78387 3.09115,-7.9132z"/><path d="M169.68629,206.60811c1.98369,-0.12933 3.81596,3.20384 4.09246,7.44486c0.27649,4.24101 -1.10746,7.78388 -3.09115,7.9132c-1.98369,0.12933 -3.81596,-3.20384 -4.09246,-7.44486c-0.27649,-4.24101 1.10747,-7.78387 3.09115,-7.9132z"/><path d="M166.76772,217.91978c4.19928,0.65472 7.35521,2.77776 7.04897,4.74193c-0.30625,1.96417 -3.95868,3.0257 -8.15797,2.37099c-4.19928,-0.65472 -7.3552,-2.77776 -7.04897,-4.74193c0.30625,-1.96417 3.95869,-3.02572 8.15797,-2.37099z" data-paper-data="{&quot;index&quot;:null}"/></g></g></g></svg>