<svg version="1.1" xmlns="http://www.w3.org/2000/svg" xmlns:xlink="http://www.w3.org/1999/xlink" width="359.6" height="271.4" viewBox="0,0,359.6,271.4"><defs><radialGradient cx="289" cy="197.5" r="179.8" gradientUnits="userSpaceOnUse" id="color-1"><stop offset="0" stop-color="#000000" stop-opacity="0"/><stop offset="1" stop-color="#000000" stop-opacity="0.34902"/></radialGradient><radialGradient cx="289.33333" cy="131.433" r="85.9137" gradientUnits="userSpaceOnUse" id="color-2"><stop offset="0" stop-color="#000000" stop-opacity="0"/><stop offset="1" stop-color="#000000" stop-opacity="0.50196"/></radialGradient><radialGradient cx="289.33333" cy="254.433" r="85.9137" gradientUnits="userSpaceOnUse" id="color-3"><stop offset="0" stop-color="#000000" stop-opacity="0"/><stop offset="1" stop-color="#000000" stop-opacity="0.50196"/></radialGradient></defs><g transform="translate(-109.2,-61.8)"><g data-paper-data="{&quot;isPaintingLayer&quot;:true}" fill-rule="nonzero" stroke="none" stroke-linecap="butt" stroke-linejoin="miter" stroke-miterlimit="10" stroke-dasharray="" stroke-dashoffset="0" style="mix-blend-mode: normal"><path d="M109.2,333.2v-271.4h359.6v271.4z" fill="url(#color-1)" stroke-width="0"/><g><path d="M203.41963,172.68464c0,-23.05559 0,-69.13003 0,-82.09091c0,-6.64651 5.16204,-13.75472 13.64097,-13.75472c34.6915,0 124.90883,0 144.27273,0c7.15266,0 13.9137,7.16213 13.9137,13.84562c0,12.92917 0,58.60982 0,81.72728c0,8.24133 -5.27286,13.61508 -13.9137,13.61508c-34.88915,0 -124.68663,-0.00001 -144,-0.00001c-7.15266,0 -13.9137,-5.25502 -13.9137,-13.34235z" fill="#9966ff" stroke-width="0"/><text transform="translate(272.34248,147.83388) scale(1.36674,1.36674)" font-size="40" xml:space="preserve" fill="#ffffff" fill-rule="nonzero" stroke="none" stroke-width="1" stroke-linecap="butt" stroke-linejoin="miter" stroke-miterlimit="10" stroke-dasharray="" stroke-dashoffset="0" font-family="Sans Serif" font-weight="normal" text-anchor="start" style="mix-blend-mode: normal"><tspan x="0" dy="0">:)</tspan></text><path d="M203.41963,172.68464c0,-23.05559 0,-69.13003 0,-82.09091c0,-6.64651 5.16204,-13.75472 13.64097,-13.75472c34.6915,0 124.90883,0 144.27273,0c7.15266,0 13.9137,7.16213 13.9137,13.84562c0,12.92917 0,58.60982 0,81.72728c0,8.24133 -5.27286,13.61508 -13.9137,13.61508c-34.88915,0 -124.68663,-0.00001 -144,-0.00001c-7.15266,0 -13.9137,-5.25502 -13.9137,-13.34235z" fill="url(#color-2)" stroke-width="0"/><text transform="translate(208.89156,93.78607) scale(0.33586,0.33586)" font-size="40" xml:space="preserve" fill="#ffffff" fill-rule="nonzero" stroke="none" stroke-width="1" stroke-linecap="butt" stroke-linejoin="miter" stroke-miterlimit="10" stroke-dasharray="" stroke-dashoffset="0" font-family="Sans Serif" font-weight="normal" text-anchor="start" style="mix-blend-mode: normal"><tspan x="0" dy="0">Sample Video lmao</tspan></text></g><g><path d="M203.41963,295.68464c0,-23.05559 0,-69.13003 0,-82.09091c0,-6.64651 5.16204,-13.75472 13.64097,-13.75472c34.6915,0 124.90883,0 144.27273,0c7.15266,0 13.9137,7.16213 13.9137,13.84562c0,12.92917 0,58.60982 0,81.72728c0,8.24133 -5.27286,13.61508 -13.9137,13.61508c-34.88915,0 -124.68663,-0.00001 -144,-0.00001c-7.15266,0 -13.9137,-5.25502 -13.9137,-13.34235z" fill="#9966ff" stroke-width="0"/><text transform="translate(272.34248,270.83388) scale(1.36674,1.36674)" font-size="40" xml:space="preserve" fill="#ffffff" fill-rule="nonzero" stroke="none" stroke-width="1" stroke-linecap="butt" stroke-linejoin="miter" stroke-miterlimit="10" stroke-dasharray="" stroke-dashoffset="0" font-family="Sans Serif" font-weight="normal" text-anchor="start" style="mix-blend-mode: normal"><tspan x="0" dy="0">:)</tspan></text><path d="M203.41963,295.68464c0,-23.05559 0,-69.13003 0,-82.09091c0,-6.64651 5.16204,-13.75472 13.64097,-13.75472c34.6915,0 124.90883,0 144.27273,0c7.15266,0 13.9137,7.16213 13.9137,13.84562c0,12.92917 0,58.60982 0,81.72728c0,8.24133 -5.27286,13.61508 -13.9137,13.61508c-34.88915,0 -124.68663,-0.00001 -144,-0.00001c-7.15266,0 -13.9137,-5.25502 -13.9137,-13.34235z" fill="url(#color-3)" stroke-width="0"/><text transform="translate(208.89156,216.78607) scale(0.33586,0.33586)" font-size="40" xml:space="preserve" fill="#ffffff" fill-rule="nonzero" stroke="none" stroke-width="1" stroke-linecap="butt" stroke-linejoin="miter" stroke-miterlimit="10" stroke-dasharray="" stroke-dashoffset="0" font-family="Sans Serif" font-weight="normal" text-anchor="start" style="mix-blend-mode: normal"><tspan x="0" dy="0">Sample Video lmao</tspan></text></g></g></g></svg>