<svg version="1.1" xmlns="http://www.w3.org/2000/svg" xmlns:xlink="http://www.w3.org/1999/xlink" width="484.95198" height="364.96386" viewBox="0,0,484.95198,364.96386"><g transform="translate(2.47597,2.48193)"><g data-paper-data="{&quot;isPaintingLayer&quot;:true}" stroke-miterlimit="10" stroke-dasharray="" stroke-dashoffset="0" style="mix-blend-mode: normal"><path d="M-2.47597,362.48193v-364.96386h484.95198v364.96386z" fill="#ffffff" fill-rule="nonzero" stroke="none" stroke-width="0" stroke-linecap="butt" stroke-linejoin="miter"/><path d="M42.55258,331.65165v-303.3033h394.89489v303.3033z" fill="#4aff73" fill-rule="nonzero" stroke="none" stroke-width="NaN" stroke-linecap="butt" stroke-linejoin="miter"/><g fill-rule="evenodd"><g><path d="M201.70277,260.49092c1.30303,0.65152 4.07197,2.11743 0.16288,7.65532c-3.9091,5.53789 -15.14775,6.67804 -16.45078,6.67804c-5.04925,0.16288 -11.23866,0.16288 -18.07958,-2.11743c-19.87125,-6.51516 -20.03412,-27.85232 -13.68184,-31.27278c6.1894,-3.42046 8.95834,9.77274 17.9167,17.75382c3.9091,3.58334 8.63259,4.88637 12.54169,5.70077c5.53789,0.97727 16.12503,-5.21213 17.59093,-4.39774z" fill="#ffab19" stroke="#001026" stroke-width="1.2" stroke-linecap="round" stroke-linejoin="round"/><path d="M161.30879,247.29773c2.60607,4.39774 7.65532,10.58714 7.65532,10.58714c0,0 -6.02652,-1.46591 -9.44699,1.30303c-2.76895,2.11743 -2.11743,5.70077 -1.79167,6.84092c-2.11743,-2.11743 -4.72349,-5.04925 -6.35229,-10.75002c-1.62879,-5.70077 0,-12.54169 3.25758,-13.51896c3.25758,-0.65152 4.07197,1.79167 6.67804,5.53789z" fill="#ffffff" stroke="none" stroke-width="1" stroke-linecap="butt" stroke-linejoin="miter"/></g><path d="M209.84675,277.43035c-2.93182,1.95455 -13.03033,9.12123 -25.89777,13.19321l-0.65152,0.16288c-0.65152,0.16288 -0.97727,0.97727 -0.65152,1.62879c2.76895,3.9091 7.81819,11.72729 -1.14015,14.49623c-8.63259,2.76895 -24.75762,-20.197 -17.9167,-26.22352c3.0947,-2.2803 5.86364,-1.14015 7.32956,-0.48864c0.8144,0.32575 1.62879,0.32575 2.44319,0.16288c1.95455,-0.65152 5.53789,-1.95455 8.30684,-3.42046c7.0038,-3.58334 8.63259,-5.04925 11.89017,-7.49244c3.25758,-2.44319 10.75002,-8.46971 16.77654,-3.25758c5.21213,4.39774 2.2803,9.28411 -0.48864,11.23866z" fill="#ffab19" stroke="#001026" stroke-width="1.2" stroke-linecap="round" stroke-linejoin="round"/><path d="M235.7445,243.55151c0.8144,0.65152 10.75002,12.37881 14.0076,9.44699c3.9091,-3.42046 9.28411,-10.0985 15.14775,-4.72349c5.86364,5.37501 -5.21213,14.49623 -9.93562,16.93942c-11.23866,5.04925 -20.35988,-4.56062 -22.31443,-7.16668c-1.95455,-2.60607 -5.37501,-7.0038 -5.37501,-11.23866c0.16288,-4.56062 5.70077,-5.70077 8.46971,-3.25758z" fill="#ffab19" stroke="#001026" stroke-width="1.2" stroke-linecap="round" stroke-linejoin="round"/><g><path d="M235.90738,281.50232c3.42046,3.0947 10.91289,9.44699 10.91289,9.44699c0,0 23.2917,-4.07197 23.2917,7.65532c0,7.0038 -11.72729,8.63259 -27.52656,7.16668c-0.97727,-0.16288 -1.95455,-0.48864 -2.76895,-1.14015c-3.58334,-3.0947 -13.84472,-12.21593 -20.35988,-18.56821c-9.60986,-9.44699 -17.59093,-15.63639 -17.59093,-15.63639c-13.84472,-13.51896 -2.60607,-19.21973 1.79167,-27.03792c4.07197,-6.67804 5.86364,-5.37501 15.63639,-3.42046c5.53789,0.8144 8.79547,1.30303 12.37881,1.14015c5.37501,-0.16288 4.39774,7.65532 2.93182,11.72729c0,0 -2.2803,6.02652 -4.39774,9.12123c-2.60607,3.74622 -4.56062,6.1894 -6.51516,7.65532z" fill="#ffab19" stroke="#001026" stroke-width="1.2" stroke-linecap="round" stroke-linejoin="round"/><path d="M222.22553,269.44928c0,0 -2.44319,-1.95455 -5.04925,-4.39774c-3.25758,-2.93182 -6.51516,-5.37501 -3.25758,-10.42426c2.93182,-3.9091 5.70077,-9.12123 13.03033,-4.39774c7.0038,4.39774 3.9091,8.46971 3.9091,8.46971c-3.58334,7.32956 -8.63259,10.75002 -8.63259,10.75002z" fill="#ffffff" stroke="none" stroke-width="1" stroke-linecap="butt" stroke-linejoin="miter"/></g><path d="M197.6308,256.09319c3.58334,4.56062 9.12123,10.26138 2.11743,14.98488c-9.60986,5.37501 -17.59093,-10.91289 -19.21973,-16.61366c-1.46591,-5.04925 2.76895,-8.30684 6.35229,-11.07578c7.0038,-5.04925 12.86744,-9.60986 19.38261,-7.16668c8.14395,2.93182 2.2803,9.44699 -1.79167,12.37881c-2.44319,1.79167 -4.88637,3.74622 -6.67804,4.88637c-0.48864,0.8144 -0.65152,1.79167 -0.16288,2.60607z" fill="#ffab19" stroke="#001026" stroke-width="1.2" stroke-linecap="round" stroke-linejoin="round"/><g><path d="M248.93773,146.31271c0.48864,-0.32575 1.30303,-0.16288 1.46591,0.48864l4.23485,17.42806c0,0 10.42426,7.65532 13.51896,13.03033c5.21213,8.95834 5.37501,16.28791 5.37501,16.28791c0,0 11.56441,3.42046 13.51896,12.70456c1.95455,9.28411 -5.21213,26.87504 -35.83339,32.90157c-30.62126,6.02652 -55.216,-2.2803 -66.78042,-20.84852c-11.56441,-18.56821 6.67804,-40.71976 5.70077,-39.41673l-3.42046,-29.15535c-0.16288,-0.65152 0.65152,-1.14015 1.30303,-0.8144l19.70837,12.86744c0,0 7.32956,-2.76895 14.98488,-3.0947c4.56062,-0.32575 8.46971,0 12.21593,0.65152z" fill="#ffab19" stroke="#001026" stroke-width="1.2" stroke-linecap="butt" stroke-linejoin="miter"/><path d="M273.0438,194.19915c0,0 11.23866,2.93182 13.19321,12.21593c1.95455,9.28411 -5.86364,26.06065 -36.15915,31.92429c-39.41673,8.14395 -58.14783,-15.31063 -47.23492,-32.57581c10.91289,-17.42806 29.64399,-2.60607 43.32583,-3.58334c11.72729,-0.8144 13.03033,-11.07578 26.87504,-7.98107z" fill="#ffffff" stroke="none" stroke-width="1" stroke-linecap="butt" stroke-linejoin="miter"/><path d="M221.7369,211.62721c0,-0.65152 0.65152,-1.14015 1.30303,-0.97727c3.0947,1.14015 11.89017,3.74622 21.66292,4.39774c8.79547,0.48864 14.0076,0 16.45078,-0.48864c0.8144,-0.16288 1.46591,0.65152 1.14015,1.46591c-1.46591,4.39774 -7.65532,16.61366 -24.75762,15.63639c-14.82199,-1.62879 -16.28791,-12.05305 -15.79927,-20.03412z" fill="#ffffff" stroke="#001026" stroke-width="1.2" stroke-linecap="round" stroke-linejoin="round"/><path d="M303.01356,195.99082c-7.65532,6.1894 -19.38261,6.35229 -19.38261,6.35229" fill="none" stroke="#001026" stroke-width="1.2" stroke-linecap="round" stroke-linejoin="round"/><path d="M300.89614,214.23327c-10.26138,0.8144 -16.61366,-2.2803 -16.61366,-2.2803" fill="none" stroke="#001026" stroke-width="1.2" stroke-linecap="round" stroke-linejoin="round"/><path d="M245.51724,197.94537c3.42046,0 7.0038,0.32575 7.16668,1.46591c0.16288,2.2803 -2.2803,6.84092 -4.88637,7.0038c-2.93182,0.32575 -9.77274,-3.74622 -9.77274,-6.35229c-0.16288,-1.95455 4.23485,-2.11743 7.49244,-2.11743z" fill="#001026" stroke="#001026" stroke-width="1.2" stroke-linecap="round" stroke-linejoin="round"/><path d="M172.22167,195.50219c0,0 14.0076,4.56062 19.70837,9.60986" fill="none" stroke="#001026" stroke-width="1.2" stroke-linecap="round" stroke-linejoin="round"/><path d="M192.41866,210.81282c-7.0038,2.76895 -19.05685,0.97727 -19.05685,0.97727" fill="none" stroke="#001026" stroke-width="1.2" stroke-linecap="round" stroke-linejoin="round"/><g><path d="M264.73697,178.88852c4.72349,7.32956 4.88637,15.63639 0.32575,18.56821c-4.56062,2.93182 -12.05305,-0.48864 -16.93942,-7.81819c-4.72349,-7.32956 -4.88637,-15.63639 -0.32575,-18.56821c4.56062,-3.0947 12.21593,0.48864 16.93942,7.81819z" fill="#ffffff" stroke="#001026" stroke-width="1.2" stroke-linecap="round" stroke-linejoin="round"/><path d="M264.08543,188.17263c0,1.79167 -1.30303,3.25758 -2.93182,3.25758c-1.62879,0 -2.93182,-1.46591 -2.93182,-3.25758c0,-1.79167 1.30303,-3.25758 2.93182,-3.25758c1.62879,0 2.93182,1.46591 2.93182,3.25758" fill="#001026" stroke="none" stroke-width="1" stroke-linecap="butt" stroke-linejoin="miter"/></g><g><path d="M224.34299,183.44913c4.88637,7.16668 4.56062,15.96215 0.16288,19.05685c-5.37501,3.0947 -12.54169,0.8144 -17.42806,-6.35229c-5.04925,-7.16668 -5.37501,-16.45078 -0.32575,-20.03412c5.04925,-3.74622 12.70456,0.16288 17.59093,7.32956z" fill="#ffffff" stroke="#001026" stroke-width="1.2" stroke-linecap="round" stroke-linejoin="round"/><path d="M223.36572,192.89611c0,1.79167 -1.30303,3.25758 -2.93182,3.25758c-1.62879,0 -2.93182,-1.46591 -2.93182,-3.25758c0,-1.79167 1.30303,-3.25758 2.93182,-3.25758c1.62879,0.16288 2.93182,1.46591 2.93182,3.25758" fill="#001026" stroke="none" stroke-width="1" stroke-linecap="butt" stroke-linejoin="miter"/></g></g></g><path d="M71.08111,137.91292v-94.54955h309.30931v94.54955z" fill="#ffffff" fill-rule="nonzero" stroke="none" stroke-width="NaN" stroke-linecap="butt" stroke-linejoin="miter"/><path d="M284.78682,168.43544v-34.53454h50.52252z" fill="#ffffff" fill-rule="nonzero" stroke="none" stroke-width="0" stroke-linecap="butt" stroke-linejoin="miter"/><text transform="translate(75.5,65) scale(0.5,0.5)" font-size="40" xml:space="preserve" fill="#000000" fill-rule="nonzero" stroke="none" stroke-width="1" stroke-linecap="butt" stroke-linejoin="miter" stroke-miterlimit="10" stroke-dasharray="" stroke-dashoffset="0" font-family="Sans Serif" font-weight="normal" text-anchor="start" style="mix-blend-mode: normal"><tspan x="0" dy="0">okay so I followed FANJOUA</tspan><tspan x="0" dy="46.150000000000006px">and now I am just going to </tspan><tspan x="0" dy="46.150000000000006px">comment "I want ScratchTube </tspan><tspan x="0" dy="46.150000000000006px">Premium"</tspan></text></g></g></svg>