<svg version="1.1" xmlns="http://www.w3.org/2000/svg" xmlns:xlink="http://www.w3.org/1999/xlink" width="94.98041" height="38.09554" viewBox="0,0,94.98041,38.09554"><g transform="translate(-4.71189,-100.19768)"><g data-paper-data="{&quot;isPaintingLayer&quot;:true}" fill-rule="nonzero" stroke-linejoin="miter" stroke-miterlimit="10" stroke-dasharray="" stroke-dashoffset="0" style="mix-blend-mode: normal"><path d="M4.71189,125.40503c0,-22.27079 0,0.59886 0,-11.92083c0,-6.42027 4.98632,-13.28652 13.17664,-13.28652c33.51063,0 49.65892,0 68.36369,0c6.90919,0 13.44008,6.91833 13.44008,13.37433c0,12.48907 0,-10.76098 0,11.56958c0,7.9608 -5.09337,13.15163 -13.44008,13.15163c-33.70155,0 -49.44428,-0.00001 -68.10024,-0.00001c-6.90919,0 -13.44008,-5.07614 -13.44008,-12.88819z" fill="#333333" stroke="none" stroke-width="0" stroke-linecap="butt"/><text transform="translate(43.66147,124.34166) scale(0.33586,0.33586)" font-size="40" xml:space="preserve" fill="#ffffff" fill-rule="nonzero" stroke="none" stroke-width="1" stroke-linecap="butt" stroke-linejoin="miter" stroke-miterlimit="10" stroke-dasharray="" stroke-dashoffset="0" font-family="Sans Serif" font-weight="normal" text-anchor="start" style="mix-blend-mode: normal"><tspan x="0" dy="0">Forum</tspan></text><g><path d="M19.17888,128.57198v-5.29787h5.29787z" fill="#ffffff" stroke="none" stroke-width="0" stroke-linecap="butt"/><path d="M16.88375,123.49542c0,-2.75545 0,-6.94475 0,-8.49546c0,-1.14831 0.91384,-2.54926 1.84401,-2.54926c2.25452,0 11.82695,0 15.93751,0c1.1623,0 1.88792,1.06353 1.88792,2.54926c0,2.76765 0,7.00039 0,8.55262c0,1.13453 -0.71345,2.51118 -1.85865,2.51118c-4.09422,0 -13.70689,0 -15.96678,0c-0.93017,0 -1.844,-1.07304 -1.844,-2.56833z" fill="#ffffff" stroke="none" stroke-width="0" stroke-linecap="butt"/><path d="M19.63512,118.87626h14.16668" fill="none" stroke="#343434" stroke-width="0.75" stroke-linecap="round"/><path d="M19.63513,115.67617h14.16668" fill="none" stroke="#343434" stroke-width="0.75" stroke-linecap="round"/><path d="M33.80181,122.11444h-14.16668" fill="none" stroke="#343434" stroke-width="0.75" stroke-linecap="round"/></g></g></g></svg>