<svg version="1.1" xmlns="http://www.w3.org/2000/svg" xmlns:xlink="http://www.w3.org/1999/xlink" width="480" height="550.55294" viewBox="0,0,480,550.55294"><g transform="translate(0,190.55294)"><g data-paper-data="{&quot;isPaintingLayer&quot;:true}" fill-rule="nonzero" stroke-linejoin="miter" stroke-miterlimit="10" stroke-dasharray="" stroke-dashoffset="0" style="mix-blend-mode: normal"><path d="M0,360v-360h480v360z" fill="#ffffff" stroke="none" stroke-width="0" stroke-linecap="butt"/><g data-paper-data="{&quot;index&quot;:null}"><path d="M282.39396,-106.36945l0.2223,0.39005" data-paper-data="{&quot;index&quot;:null}" fill="none" stroke="#000000" stroke-width="3.5" stroke-linecap="round"/><g data-paper-data="{&quot;index&quot;:null}" fill="#500190" stroke="#2c0050" stroke-width="2.5" stroke-linecap="butt"><path d="M277.08209,-110.62889c2.80862,-3.30697 6.30884,-4.93806 7.81798,-3.64317c1.50258,1.28926 0.46483,4.99303 -2.31633,8.28923c-0.88112,-0.09275 -1.76138,-0.18041 -2.63748,-0.24323c-1.27205,0.08867 -2.52036,0.31137 -3.73116,0.74574c-0.66265,-0.00199 -1.3253,-0.00382 -1.98793,-0.0055c0.39047,-1.55552 1.38101,-3.40762 2.85493,-5.14307z"/><path d="M278.80127,-108.10458c-0.90082,1.06066 -1.8728,1.94893 -2.8274,2.62354c-1.32466,-0.0039 -2.64929,-0.00718 -3.97387,-0.00987v-0.00909h-1.61927c-0.41838,-1.72282 0.70519,-4.64427 2.95544,-7.29382c2.80862,-3.30697 6.30884,-4.93806 7.81798,-3.64317c1.50914,1.29489 0.45572,5.02543 -2.35288,8.3324z"/><path d="M268.24609,-107.43043c-1.50914,-1.2949 -0.45572,-5.02543 2.35289,-8.3324c2.8086,-3.30696 6.30884,-4.93806 7.81798,-3.64317c1.50914,1.29489 0.45572,5.02543 -2.35288,8.3324c-2.80862,3.30697 -6.30884,4.93805 -7.81799,3.64317z"/><path d="M285.85969,-109.71406c-1.61111,1.2273 -4.97345,-0.55247 -7.50999,-3.97522c-2.53654,-3.42276 -3.28676,-7.19238 -1.67566,-8.41968c1.61111,-1.22729 4.97346,0.55248 7.51,3.97523c2.53656,3.42276 3.28676,7.19238 1.67565,8.41968z" data-paper-data="{&quot;index&quot;:null}"/></g></g><path d="M322.08387,34.42685l0.86413,58.1473" data-paper-data="{&quot;index&quot;:null}" fill="none" stroke="#000000" stroke-width="3.5" stroke-linecap="round"/><g data-paper-data="{&quot;index&quot;:null}" stroke="#2c0050" stroke-width="3.5" stroke-linecap="butt"><path d="M310.85979,126.65799c0,0 -1.06889,-5.1803 -1.24099,-7.94776c-0.15657,-2.51803 7.80474,-2.58714 7.68165,-4.56685c-0.25841,-4.15548 -1.83922,-13.56519 -1.83922,-13.56519l16.07225,-1.7353l0.90003,26.48338z" fill="#500190"/><path d="M314.40094,99.88183c-0.13252,-2.13109 3.63322,-4.9697 8.48671,-5.40361c2.46202,-0.2201 6.47413,-3.71343 8.11413,-3.1398c1.59301,0.55718 0.92239,6.35004 0.98767,7.40009c0.13252,2.13109 -3.69457,4.21041 -8.54806,4.64431c-4.85347,0.43388 -8.89542,-0.94196 -9.02793,-3.07303z" fill="#979025"/></g><path d="M352.44595,78.15344c0,0 -7.67487,-17.84038 -7.53798,-26.38706c0.14035,-8.76306 13.08645,-17.31565 13.08645,-17.31565" data-paper-data="{&quot;index&quot;:null}" fill="none" stroke="#000000" stroke-width="3.5" stroke-linecap="round"/><g data-paper-data="{&quot;index&quot;:null}" stroke="#2c0050" stroke-width="3.5" stroke-linecap="butt"><path d="M353.21287,110.41392c0,0 -2.68474,-3.80223 -3.75234,-6.00185c-0.97136,-2.00138 6.32318,-5.41819 5.55949,-6.99169c-1.60305,-3.30285 -6.14815,-10.36164 -6.14815,-10.36164l14.20179,-8.20805l9.53004,21.36467z" fill="#500190"/><path d="M347.66852,86.93445c-0.8221,-1.69383 1.70619,-5.61384 6.02445,-8.0185c2.19052,-1.2198 4.7301,-5.78136 6.42593,-6.00252c1.64723,-0.21485 2.93448,4.8245 3.33955,5.6591c0.8221,1.69383 -2.01209,5.0163 -6.33036,7.42096c-4.31825,2.40464 -8.48533,2.98089 -9.30744,1.28706z" fill="#979025"/></g><g fill="#500190" stroke="#2c0050" stroke-width="2.5" stroke-linecap="butt"><path d="M388.87212,-107.70437c0.82309,-0.85772 2.36186,-0.71509 4.0901,0.20437c-0.28249,0 -2.11202,0 -4.25878,0c0.05134,-0.07245 0.10754,-0.14065 0.16868,-0.20437z"/><path d="M392.47526,-110.2707c1.42713,-1.48716 5.00577,0.033 7.9931,3.39538c1.11732,1.2576 1.99368,2.5948 2.57834,3.85393c-0.58384,-0.02192 -1.16768,-0.04368 -1.75154,-0.06528c-1.79669,-2.6625 -4.84145,-4.41333 -8.29515,-4.41333c0,0 -0.38056,0 -1.00613,0c-0.23008,-1.18671 -0.0904,-2.17487 0.48137,-2.7707z"/><path d="M395.02777,-113.6333c1.42713,-1.48716 5.00576,0.03299 7.99309,3.39537c2.27661,2.56243 3.5528,5.4553 3.39953,7.34499c-1.70831,-0.06596 -3.41672,-0.13053 -5.12523,-0.19373c-1.20609,-1.7873 -2.97459,-3.16377 -5.05166,-3.87559c-1.783,-2.75917 -2.35082,-5.48819 -1.21573,-6.67105z"/><path d="M395.42605,-107.50769c-0.05407,0.08916 -0.10864,0.17739 -0.16367,0.26469c-0.72697,-0.16813 -1.4843,-0.257 -2.26238,-0.257c0,0 -2.68189,0 -5.50995,0c0.33792,-1.38066 0.96943,-2.90547 1.87096,-4.39196c2.32648,-3.83603 5.57016,-5.96429 7.24498,-4.75362c1.67481,1.21066 1.14655,5.30185 -1.17993,9.13787z" data-paper-data="{&quot;index&quot;:null}"/></g><g stroke="none" stroke-linecap="butt"><path d="M313.45479,34.52999l-0.38146,-29.9448c1.07228,1.15746 3.29811,-0.08519 4.92669,-0.08519c3.33333,0 6.66667,0 10,0c11.78808,0 25.8081,0 38.20978,0l-0.13943,30.13711z" fill="#b78000" stroke-width="0"/><path d="" fill="#09b800" stroke-width="0.5"/><path d="M312.44368,34.89893v-30.39893h0.55633c1.04116,1.30145 3.33333,0 5,0c3.33333,0 6.66667,0 10,0c1.21137,0 2.44632,0 3.70066,0c0.31112,10.17912 0.58261,20.41283 -0.02814,30.51795z" fill="#6900b8" stroke-width="0"/><path d="M347.16745,34.89893c1.22412,-10.19119 1.77678,-20.20354 1.91092,-30.39893c5.87047,0 11.75915,0 17.31794,0c0,12.59248 0,30.39894 0,30.39894z" data-paper-data="{&quot;index&quot;:null}" fill="#6900b8" stroke-width="0"/><path d="" fill="#6900b8" stroke-width="0"/><path d="" data-paper-data="{&quot;index&quot;:null}" fill="#6900b8" stroke-width="0"/><path d="M331.79884,34.52789l-4.43252,-30.02789c0.21123,0 0.42246,0 0.63369,0c1.47859,0 2.99228,0 4.5335,0z" fill="#510191" stroke-width="0"/><path d="M347.35439,34.6469l-0.62113,-30.1469c1.7268,0 3.45921,0 5.18832,0z" data-paper-data="{&quot;index&quot;:null}" fill="#510090" stroke-width="0"/><path d="" fill="#a455b8" stroke-width="0.5"/><path d="" fill="#af5ac4" stroke-width="0.5"/><path d="" fill="#be62d5" stroke-width="0.5"/></g><g stroke="#000000" stroke-width="0.5" stroke-linecap="butt"><path d="M339.75843,-151.72328c22.16025,0 40.12469,19.17631 40.12469,42.83149c0,0.4382 -0.00616,0.87486 -0.01841,1.30989c-3.45542,-0.90592 -7.02235,-0.23916 -10.61125,0.73396c-10.01021,0.43721 -20.00341,0.77346 -30.00534,1.00076c-3.52813,0.07395 -7.05673,0.14287 -10.58663,0.1995c-6.29621,0.09401 -12.59946,0.14382 -18.91616,0.14746c-3.32927,-0.00059 -6.65855,-0.00223 -9.98783,-0.00255c-0.08199,-1.11816 -0.12376,-2.24839 -0.12376,-3.38903c0,-23.65519 17.96443,-42.83149 40.12469,-42.83149z" fill="#e0e0e0"/><path d="M287.53263,-130.25826l0.2,-1.71382l0.45459,0.06087l0.54702,-1.38132c0.3827,0.27327 0.79118,0.51468 1.19914,0.75674l0.34833,-0.37311l1.6,1.71382l-0.02923,0.03131c0.0888,0.0895 0.17441,0.18293 0.25635,0.28089c0.55124,0.65907 0.52511,1.6785 0.75544,2.52828c0.01072,0.03954 0.02147,0.07905 0.03227,0.11854c0.33368,0.01772 0.63867,0.15223 0.88007,0.36616c0.1307,-0.48639 0.26572,-0.98842 0.39072,-1.51395c1.33752,-5.62369 3.76925,-10.47343 5.91255,-15.74787l0.06602,-0.06097l-0.0272,-0.01665l0.78555,-1.47251c0.18925,-0.37049 0.5108,-0.65237 0.8966,-0.77274c0.08333,-0.19668 0.16328,-0.39087 0.23852,-0.58224c1.92605,-4.89901 3.8079,-9.76103 6.22568,-14.41742l0.56367,-1.40881c0.22167,-0.59074 0.76153,-1.00782 1.39234,-1.00782c0.48134,0 0.90972,0.24284 1.18419,0.62038c1.25099,-3.69531 10.55679,-14.8102 10.55679,-14.8102c0,0 1.91899,9.74488 2.265,11.36928c0.32036,-1.31389 0.92297,-2.56206 1.46824,-3.92637c1.79649,-4.49502 7.92578,-15.74691 7.92578,-15.74691c0,0 1.87062,10.03709 1.89799,12.84999c1.58976,-4.36202 8.14583,-15.35832 8.14583,-15.35832l4.61453,22.24848l4.94164,-12.67065l0.43574,7.97522c1.69427,7.10772 -0.08434,6.5571 1.32617,13.82707c0.05779,0.29784 0.59409,1.86955 0.98755,3.44018c0.13151,-1.40609 0.37478,-4.56545 1.51979,-4.78698c4.1641,-0.80561 6.52209,7.45633 7.70891,10.29445c1.57796,4.10488 2.88412,8.33072 4.51495,12.41148c0.43706,1.09365 1.46139,2.70242 2.0089,4.24582c-0.0005,-0.05677 -0.00113,-0.11352 -0.00201,-0.17022c-0.02844,-1.83511 0.08452,-3.67093 0.20621,-5.50166l0.01313,-0.03024l-0.01016,-0.00121l0.198,-1.90878c0.07418,-0.81312 0.71422,-1.44854 1.49283,-1.44854c0.6236,0 1.15833,0.40762 1.38462,0.98768l0.78609,1.89453l-0.38981,0.18557c3.69871,6.98137 4.07762,17.01285 5.48597,24.55279l0.39039,1.88173c0.02793,0.12255 0.04274,0.2506 0.04274,0.38237c0,0.88736 -0.67158,1.6067 -1.5,1.6067c-0.25194,0 -0.48937,-0.06653 -0.69781,-0.18407l-0.90599,-0.48522c-0.25461,0.5475 -0.17559,2.06392 -0.06838,3.21936c-2.84642,-0.34444 -5.75722,0.21869 -8.68381,1.00221c-0.02253,-0.12326 -0.04454,-0.24707 -0.06603,-0.37145c-1.19252,-6.90371 -1.78915,-14.40502 -4.08265,-21.16057c-2.90173,-1.78848 -5.58801,-3.95101 -8.8436,-5.26794c-4.46798,-1.80737 -9.36881,-3.36543 -14.37639,-4.52754c-3.66542,1.05797 -7.50051,1.53096 -11.2896,2.05563c-5.1519,0.71338 -10.27558,1.66867 -15.40643,2.55873c-1.31108,2.48204 -2.90128,4.80041 -4.25469,7.52641c-2.28178,4.59593 -3.23455,9.94417 -3.22462,15.0989v1.71382c0,0.88736 -0.67158,1.6067 -1.5,1.6067c-0.7529,0 -1.37624,-0.59417 -1.48364,-1.36862l-0.39594,-2.54467l0.26865,-0.04795c-0.24572,-0.68505 -0.46382,-1.36682 -0.6626,-2.05374c-0.18046,1.26434 -0.3744,2.42217 -0.43057,3.24181c-0.11279,1.64588 -0.26214,3.29421 -0.41382,4.94341c-3.76772,-0.00108 -7.53543,-0.00155 -11.30314,0.00203c-0.01495,0.00001 -0.0299,0.00001 -0.04486,0c-0.08492,0 -0.16985,0 -0.25477,0c-3.08085,-7.64995 -5.08042,-16.82779 -4.16773,-24.75826zM291.10504,-120.39197c0.00034,0.01999 0.0007,0.03997 0.00108,0.05997c0.00503,-0.00292 0.01008,-0.00582 0.01515,-0.00869c-0.00543,-0.0171 -0.01084,-0.0342 -0.01623,-0.0513z" fill="#00cc24"/><path d="M330.18771,-113.70631c0,3.45688 -1.401,6.41881 -3.8954,8.09192c-3.43001,0.04514 -6.86234,0.07711 -10.29803,0.09557c-2.97801,-1.69675 -4.97324,-4.8084 -4.97324,-8.366c0,-1.77537 0.71965,-10.64064 3.6922,-11.24286c6.02434,-1.22048 15.47447,7.82331 15.47447,11.42137z" fill="#dca922"/><path d="M349.82886,-125.69896c2.97256,0.60221 3.6922,9.46747 3.6922,11.24284c0,3.55789 -1.99555,6.66975 -4.97395,8.36641c-3.09934,0.09115 -6.19874,0.17208 -9.29899,0.24253c-0.1437,0.00301 -0.2874,0.00602 -0.43109,0.00901c-2.84826,-1.58815 -4.46263,-4.72862 -4.46263,-8.43943c0,-3.59807 9.45013,-12.64185 15.47447,-11.42137z" data-paper-data="{&quot;index&quot;:null}" fill="#dca922"/><path d="M298.9675,-136.41939l5.43041,-0.60241l15.43697,11.65049l-9.07347,-13.57367l3.28832,0.15714l14.69153,21.55181z" fill="#000000"/><path d="M335.30084,-117.27174l14.69153,-21.55181l3.28832,-0.15714l-9.07347,13.57368l15.43697,-11.65049l5.43041,0.60241z" data-paper-data="{&quot;index&quot;:null}" fill="#000000"/></g><g fill="#6a5210" stroke="none" stroke-width="0" stroke-linecap="butt"><path d="M322.57633,-111.84695c0,2.78451 -1.07608,5.18725 -2.63099,6.30095c-1.28855,0.0108 -2.57751,0.01971 -3.86695,0.02672c-1.57521,-1.10165 -2.66873,-3.52067 -2.66873,-6.32767c0,-3.84521 2.05203,-6.96238 4.58333,-6.96238c2.5313,0 4.58334,3.11716 4.58334,6.96238z"/><path d="M344.90969,-111.13285c0,2.05982 -0.58885,3.91073 -1.52478,5.18546c-1.37881,0.03546 -2.75772,0.06887 -4.13679,0.10022c-0.62501,0.0131 -1.25004,0.02604 -1.87509,0.03879c-0.9968,-1.27716 -1.63,-3.18848 -1.63,-5.32446c0,-3.84521 2.05203,-6.96238 4.58333,-6.96238c2.5313,0 4.58333,3.11716 4.58333,6.96238z"/></g><path d="" fill="#ffffff" stroke="none" stroke-width="0.5" stroke-linecap="butt"/><path d="" fill="#8a0000" stroke="none" stroke-width="0" stroke-linecap="butt"/><path d="M331.01761,-110.60176c0,0 0.29766,-1.46226 1.48829,-1.0967c1.19063,0.36557 0.89297,1.82783 0.89297,1.82783c-0.18164,0.88989 -0.40514,2.5608 -0.74759,4.15409c-0.85904,0.01579 -1.71814,0.03101 -2.57731,0.04556c0.35369,-1.63416 0.83617,-4.40129 0.94364,-4.93079z" fill="#878787" stroke="none" stroke-width="0.5" stroke-linecap="butt"/><g><path d="M196.65316,167.8264l-46.31455,39.03717" data-paper-data="{&quot;index&quot;:null}" fill="none" stroke="#383838" stroke-width="3.5" stroke-linecap="round"/><g data-paper-data="{&quot;index&quot;:null}" fill="#393839" stroke="#131313" stroke-width="2.5" stroke-linecap="butt"><path d="M196.3626,168.17382c-1.50727,-3.97376 -1.2224,-7.76666 0.63629,-8.47166c1.85869,-0.70501 4.58735,1.94482 6.09463,5.91858c1.50727,3.97376 1.2224,7.76666 -0.63629,8.47166c-1.85869,0.70501 -4.58735,-1.94482 -6.09463,-5.91858z"/><path d="M200.61789,167.39396c-1.50727,-3.97376 -1.2224,-7.76666 0.63629,-8.47166c1.85869,-0.70501 4.58735,1.94482 6.09463,5.91858c1.50727,3.97376 1.22239,7.76665 -0.63629,8.47166c-1.85869,0.70501 -4.58735,-1.94482 -6.09463,-5.91857z"/><path d="M204.2009,165.54162c-1.50727,-3.97376 -1.2224,-7.76666 0.63629,-8.47166c1.85869,-0.70501 4.58736,1.94483 6.09463,5.91858c1.50727,3.97376 1.22239,7.76665 -0.63629,8.47166c-1.85869,0.70501 -4.58735,-1.94482 -6.09463,-5.91858z"/><path d="M194.54192,163.60351c-1.09327,-1.66029 0.89796,-4.901 4.44755,-7.23832c3.54958,-2.33732 7.31335,-2.88618 8.40663,-1.22589c1.09327,1.66029 -0.89798,4.90099 -4.44755,7.23832c-3.54958,2.33732 -7.31335,2.88618 -8.40662,1.22589z" data-paper-data="{&quot;index&quot;:null}"/></g></g><path d="M148.14832,270.2063c0,0 27.65003,-8.91095 29.24137,-1.11511c1.63466,8.00802 -9.17849,26.16562 -9.17849,26.16562" fill="none" stroke="#000000" stroke-width="3.5" stroke-linecap="round"/><path d="M107.32137,271.52241c0,0 6.86299,13.45773 6.82158,21.53413c-0.04133,8.05894 -6.7396,26.21159 -6.7396,26.21159" fill="none" stroke="#000000" stroke-width="3.5" stroke-linecap="round"/><g data-paper-data="{&quot;index&quot;:null}" stroke="#121312" stroke-width="3.5" stroke-linecap="butt"><path d="M98.37268,345.42786l-0.26411,-22.10403l16.12615,0.59905c0,0 -1.16544,7.92009 -1.24102,11.39459c-0.02111,0.97103 3.03739,1.24799 5.28733,1.73607c1.58542,0.34393 2.60312,0.79269 2.58419,1.66299c-0.05034,2.31393 -0.89029,6.68461 -0.89029,6.68461z" fill="#383838"/><path d="M115.26925,323.64417c-0.03876,1.78185 -4.01469,3.14052 -8.88048,3.03468c-4.86581,-0.10583 -8.77889,-1.6361 -8.74014,-3.41796c0.01909,-0.87797 -0.90497,-5.66724 0.66136,-6.21516c1.61254,-0.56409 5.77247,2.1341 8.24074,2.18777c4.86581,0.10583 8.75729,2.62881 8.71854,4.41066z" fill="#979025"/></g><g stroke="#121312" stroke-width="3.5" stroke-linecap="butt"><path d="M165.50086,323.05169l-3.0216,-21.89812l16.07478,-1.4189c0,0 -0.16755,8.00363 0.19125,11.46038c0.17093,1.6468 8.01688,0.29513 8.23429,2.38975c0.23894,2.30211 -0.04877,6.74346 -0.04877,6.74346z" fill="#383838"/><path d="M179.54564,299.32899c0.184,1.77274 -3.59119,3.61715 -8.43214,4.11961c-4.84094,0.50246 -8.91448,-0.5273 -9.09847,-2.30004c-0.09066,-0.87349 -1.60542,-5.50992 -0.11975,-6.24911c1.5295,-0.76099 5.99373,1.39671 8.44938,1.14184c4.84094,-0.50246 9.01698,1.51495 9.20099,3.28768z" fill="#979025"/></g><g stroke="none" stroke-width="0" stroke-linecap="butt"><path d="M99.39379,271.07497v-75.71215h54.11557v75.71215z" fill="#000000"/><path d="M99.31049,262.47486v-7.94357h54.11557v7.94357z" fill="#a17f00"/><g fill="#ca9e00"><path d="M120.94871,262.47291v-13.15654h3.55972v13.15654z"/><path d="M121.68554,262.58367v-7.4471h10.35556v7.4471z"/><path d="M129.20076,259.99054v-11.17064h2.9125v11.17064z"/><path d="M129.56559,258.29812v-2.99056h15.66664l-1.94931,6.42416c0,0 -0.76046,-4.3794 -3.0715,-3.63567c-2.49998,0.80454 -2.79143,2.86034 -4.29254,2.86034c-0.54892,0 -0.41234,-2.12841 -1.26289,-2.47016c-0.8012,-0.32192 -1.08222,2.35813 -1.98558,2.36495c-1.29357,0.00976 -3.10482,-2.55307 -3.10482,-2.55307z"/><path d="M121.09239,260.81155c-0.90336,-0.00682 -1.18438,-2.68686 -1.98558,-2.36495c-0.85055,0.34175 -0.71397,2.47015 -1.26289,2.47015c-1.50111,0 -1.79256,-2.0558 -4.29255,-2.86034c-2.31104,-0.74373 -3.0715,3.63567 -3.0715,3.63567l-1.9493,-6.42416h15.66664v2.99056c0,0 -1.81125,2.56284 -3.10482,2.55307z" data-paper-data="{&quot;index&quot;:null}"/></g><g fill="#ca9e00"><path d="M119.70782,221.22479l0.11076,-21.46363h4.02574l0.11076,21.46363z"/><path d="M120.58696,221.39616v-11.52228h12.35568v11.52228z"/><path d="M129.55372,217.38403v-17.28342h3.47503v17.28342z"/><path d="M129.98899,214.7655v-4.62705h18.69257l-2.3258,9.93957c0,0 -0.90734,-6.77588 -3.66474,-5.62516c-2.98284,1.24479 -3.33059,4.42557 -5.12163,4.42557c-0.65494,0 -0.49198,-3.29312 -1.50681,-3.82187c-0.95594,-0.49807 -1.29124,3.64855 -2.36908,3.6591c-1.54342,0.01511 -3.70451,-3.95015 -3.70451,-3.95015z"/><path d="M119.87925,218.65431c-1.07784,-0.01055 -1.41314,-4.15716 -2.36908,-3.65909c-1.01483,0.52875 -0.85187,3.82187 -1.50681,3.82187c-1.79104,0 -2.13878,-3.18077 -5.12163,-4.42556c-2.7574,-1.15071 -3.66474,5.62516 -3.66474,5.62516l-2.3258,-9.93957h18.69257v4.62704c0,0 -2.16109,3.96526 -3.70451,3.95015z" data-paper-data="{&quot;index&quot;:null}"/></g></g><g stroke="none" stroke-linecap="butt"><path d="M168.56372,153.63151c0,21.62627 -17.96444,39.15784 -40.12469,39.15784c-22.16026,0 -40.12469,-17.53156 -40.12469,-39.15784c0,-21.62627 17.96444,-39.15783 40.12469,-39.15783c22.16026,0 40.12469,17.53155 40.12469,39.15783z" fill="#000000" stroke-width="0"/><path d="M149.54881,146.38006l0.64458,-38.02983l10.31318,-23.52693v61.55676z" fill="#000000" stroke-width="0"/><path d="M95.45046,148.03727v-61.55675l10.31318,23.52693l0.64457,38.02982z" data-paper-data="{&quot;index&quot;:null}" fill="#000000" stroke-width="0"/><path d="M111.519,184.73217l-7.09031,-21.27092h51.24359l-8.37945,20.30406z" fill="#d9b796" stroke-width="0"/><path d="M111.84129,154.27608c0,2.7589 -4.32878,4.99544 -9.6686,4.99544c-5.33982,0 -9.6686,-2.23654 -9.6686,-4.99544c0,-2.7589 4.32878,-4.99544 9.6686,-4.99544c5.33982,0 9.6686,2.23654 9.6686,4.99544z" fill="#ffffff" stroke-width="0"/><path d="M163.13063,155.28873c0,2.7589 -4.32878,4.99544 -9.6686,4.99544c-5.33982,0 -9.6686,-2.23654 -9.6686,-4.99544c0,-2.7589 4.32878,-4.99545 9.6686,-4.99545c5.33982,0 9.6686,2.23654 9.6686,4.99545z" fill="#ffffff" stroke-width="0"/><path d="M143.58871,173.76624c0,1.25 -1.25,1.25 -1.25,1.25h-1.24118c-8.05477,0 -16.04077,0.49648 -24.07895,0.49648c0,0 -1.25,0 -1.25,-1.25c0,-1.25 1.25,-1.25 1.25,-1.25c8.03765,0 16.02432,-0.49648 24.07895,-0.49648h1.24118c0,0 1.25,0 1.25,1.25z" fill="#000000" stroke-width="0.5"/><path d="M143.41222,177.70579c-0.46424,-1.1606 0.69636,-1.62484 0.69636,-1.62484l1.07607,-0.41588c1.73066,-1.40051 3.14702,-3.4221 0.90224,-5.34532c-0.51696,-0.44291 -2.43233,0.08592 -3.00658,0.20396c0,0 -1.22573,0.24515 -1.47087,-0.98058c-0.24515,-1.22573 0.98058,-1.47087 0.98058,-1.47087c1.41538,-0.27663 3.63322,-0.72468 4.93699,0.20396c1.66902,1.18879 2.86113,4.65217 1.89704,6.52577c-0.72393,1.40686 -1.80953,2.0934 -2.9807,3.0231l-1.40629,0.57707c0,0 -1.1606,0.46424 -1.62484,-0.69636z" fill="#000000" stroke-width="0.5"/><path d="M118.51682,178.2345c0,1.25 -1.25,1.25 -1.25,1.25l-1.23809,-0.02427c-6.01717,-1.22719 -7.03908,-9.42784 -0.49648,-10.8915c0,0 1.22573,-0.24515 1.47087,0.98058c0.24514,1.22573 -0.98058,1.47087 -0.98058,1.47087c-4.067,0.66005 -2.77793,5.34918 0.49648,5.9886l0.7478,-0.02427c0,0 1.25,0 1.25,1.25z" fill="#000000" stroke-width="0.5"/><path d="M136.02371,168.44421c-2.48264,2.33632 -5.88291,1.61028 -9.03295,1.09382c0,0 -1.23299,-0.2055 -1.02749,-1.43849c0.2055,-1.23299 1.43849,-1.02749 1.43849,-1.02749c2.02027,0.343 5.35568,1.26555 6.85419,-0.3956l0.56579,-0.77323c-0.49478,-2.21682 -1.52111,-4.2585 -1.90785,-6.57743c0,0 -0.20549,-1.23299 1.0275,-1.43849c1.23299,-0.2055 1.43849,1.02749 1.43849,1.02749c0.40843,2.45227 1.48298,4.52858 1.97863,6.91098l0.02427,0.49338c0,0 0.00001,0.72744 -0.55493,1.07245z" fill="#000000" stroke-width="0.5"/></g><g><path d="M141.67064,241.92233l-40.35655,-45.16952" fill="none" stroke="#383838" stroke-width="3.5" stroke-linecap="round"/><g fill="#393839" stroke="#131313" stroke-width="2.5" stroke-linecap="butt"><path d="M148.29913,236.536c1.7409,0.9597 1.4889,4.75492 -0.56289,8.47687c-2.05179,3.72193 -5.12637,5.96117 -6.86726,5.00147c-1.7409,-0.9597 -1.4889,-4.75492 0.56289,-8.47687c2.05179,-3.72193 5.12637,-5.96117 6.86726,-5.00147z"/><path d="M152.40222,237.90726c1.7409,0.9597 1.4889,4.75493 -0.56289,8.47687c-2.05179,3.72193 -5.12637,5.96118 -6.86727,5.00148c-1.7409,-0.9597 -1.48889,-4.75494 0.56289,-8.47688c2.05179,-3.72193 5.12637,-5.96116 6.86726,-5.00147z"/><path d="M155.68872,240.24565c1.7409,0.9597 1.4889,4.75493 -0.56289,8.47687c-2.05179,3.72193 -5.12637,5.96117 -6.86726,5.00147c-1.7409,-0.9597 -1.4889,-4.75492 0.56289,-8.47687c2.05179,-3.72193 5.12637,-5.96116 6.86726,-5.00147z"/><path d="M147.13606,248.20325c3.18511,2.81384 4.7002,6.30264 3.38405,7.79244c-1.31615,1.4898 -4.96514,0.41647 -8.15026,-2.39737c-3.18511,-2.81384 -4.70019,-6.30263 -3.38405,-7.79244c1.31615,-1.4898 4.96515,-0.41648 8.15026,2.39736z" data-paper-data="{&quot;index&quot;:null}"/></g></g><path d="M109.33179,347.43129c0,-0.69036 0.55965,-1.25 1.25,-1.25c0.69035,0 1.25,0.55964 1.25,1.25c0,0.69036 -0.55965,1.25 -1.25,1.25c-0.69035,0 -1.25,-0.55964 -1.25,-1.25z" fill="#9966ff" stroke="none" stroke-width="0.5" stroke-linecap="butt"/></g></g></svg>