<svg version="1.1" xmlns="http://www.w3.org/2000/svg" xmlns:xlink="http://www.w3.org/1999/xlink" width="489" height="370" viewBox="0,0,489,370"><g transform="translate(5,5.5)"><g data-paper-data="{&quot;isPaintingLayer&quot;:true}" fill-rule="nonzero" stroke-linejoin="miter" stroke-miterlimit="10" stroke-dasharray="" stroke-dashoffset="0" style="mix-blend-mode: normal"><path d="M-5,364.5v-370h489v370z" fill="#ffffff" stroke="none" stroke-width="0" stroke-linecap="butt"/><path d="M203.4806,246.88393c-0.19624,0.68228 -0.54738,1.3584 -1.08029,2.00386c-2.16987,2.62814 -5.3993,2.24141 -7.70116,0.52594c-2.99887,-1.77161 -4.54397,-6.18631 -1.45935,-8.8106c0.91247,-1.11671 2.20128,-1.78772 3.58981,-1.99723c2.28994,-6.33152 4.08863,-12.83243 6.62655,-19.06878c0,0 0.94357,-2.3151 3.25867,-1.37155c2.3151,0.94356 1.37155,3.25866 1.37155,3.25866c-2.4532,6.00969 -4.20355,12.27618 -6.38108,18.3926c0.40567,0.29511 0.78705,0.64169 1.13444,1.04032c0.84491,0.96953 0.77682,2.45192 1.16521,3.67789c0,0 0.36632,1.40057 -0.52435,2.34889z" fill="#000000" stroke="none" stroke-width="0.5" stroke-linecap="butt"/><path d="M252.10797,262.56773c5.30883,-3.20591 8.99818,-3.3249 14.98252,-1.34653c0.58231,1.74649 2.31623,3.4887 1.74695,5.23949c-1.65699,5.096 -10.14749,2.83695 -13.59717,2.71883c-2.01352,-0.06894 -6.75875,1.02662 -8.08325,-0.22654c-1.45582,-1.37741 0.3202,-9.6259 0.55882,-11.42557c0.77996,-5.88236 1.87178,-11.68944 3.04326,-17.48217c1.39682,1.02835 2.83303,1.99941 4.37682,2.77265c-0.70829,3.45421 -1.34434,6.92024 -1.80625,10.41011c0,0 -1.09934,8.29111 -1.17986,8.8984c-0.01932,0.14566 -0.03213,0.29307 -0.04184,0.44133z" fill="#000000" stroke="none" stroke-width="0.5" stroke-linecap="butt"/><path d="M221.14513,262.35101c5.30883,-3.20592 8.99818,-3.32489 14.98252,-1.34653c0.58231,1.74649 2.31622,3.4887 1.74695,5.23949c-1.65699,5.096 -10.14748,2.83695 -13.59716,2.71883c-2.01352,-0.06894 -6.75875,1.02663 -8.08325,-0.22653c-1.45582,-1.37741 0.3202,-9.62591 0.55882,-11.42558c0.77996,-5.88236 1.87178,-11.68944 3.04326,-17.48217c1.39682,1.02835 2.83304,1.99941 4.37682,2.77265c-0.70829,3.45421 -1.34434,6.92024 -1.80625,10.41011c0,0 -1.09934,8.29111 -1.17987,8.89841c-0.01932,0.14566 -0.03213,0.29307 -0.04184,0.44133z" fill="#000000" stroke="none" stroke-width="0.5" stroke-linecap="butt"/><g><path d="M230.9306,134.30156c-1.34592,1.92892 -4.69154,3.32534 -6.18918,4.78518c-4.43702,4.3251 -7.39247,4.9567 -13.72686,6.04163c-5.32624,0.91226 -11.24996,1.80899 -16.49164,-0.13005c-3.68915,-1.36471 -8.50247,-10.18833 -9.07585,-14.2161c-1.33378,-9.36921 14.34211,-12.29317 20.69739,-12.87267c2.58566,-0.23577 4.4212,-0.50018 6.99525,-0.76646c2.72275,-0.28166 5.4274,-0.49094 8.14549,-0.16563c3.06827,0.36722 5.27936,1.44038 7.54844,3.59568c0,0 4.23675,12.47404 2.93495,13.03955z" fill="#3cde00" stroke="#065114" stroke-width="3.5" stroke-linecap="butt"/><path d="M224.46633,137.03457l-3.21906,-11.96904c0,0 -0.53696,-3.12619 -4.97422,-2.60685c-27.59068,3.22923 -29.38463,7.19277 -29.38463,7.19277c0,0 -0.54625,-5.46296 7.07878,-7.85239c24.0246,-7.16529 28.67132,-2.95525 28.67132,-2.95525c0,0 1.09473,-0.41687 3.1326,7.40602c1.34978,5.18145 2.26954,9.19394 2.26954,9.19394z" fill="#30b300" stroke="#000000" stroke-width="0" stroke-linecap="round"/><path d="M237.17674,154.32099c-0.2463,0.28545 -0.61022,0.53326 -1.14209,0.68935c-2.17885,0.63943 -2.81828,-1.53942 -2.81828,-1.53942c-2.77381,-9.46692 -3.99303,-19.28651 -6.64378,-28.82325c-0.4586,-1.64992 -0.91883,-3.30057 -1.4515,-4.92809c-0.41168,-1.25786 -1.69242,-2.5877 -1.15722,-3.79819c0.70556,-1.59585 2.73468,-2.1794 4.21115,-3.10925c3.92745,-2.4734 8.60245,-3.39212 13.13959,-3.71112c2.27991,0.24888 5.07366,-0.91225 6.86024,0.52582c1.2856,1.03482 1.37408,3.04188 1.6446,4.6699c0.59354,3.57214 -1.04163,8.46374 -1.29295,12.07601c-0.45379,6.5222 0.1818,12.83594 -0.53519,19.36745c-0.08238,0.75047 -0.56145,5.73949 -0.92358,6.21646c-2.49567,3.2871 -5.67382,2.03963 -9.00294,2.34863z" fill="#de9400" stroke="#7a3509" stroke-width="3.5" stroke-linecap="butt"/><path d="M235.03779,111.70563l3.87744,39.52229l-5.41265,-1.01912c0,0 -2.81923,-15.58312 -3.77867,-19.42606c-1.54171,-6.17517 -4.16479,-14.02645 -4.16479,-14.02645c0,0 -0.38368,-0.73844 0.8631,-1.46185c6.13615,-3.56036 8.61557,-3.58879 8.61557,-3.58879z" fill="#b37700" stroke="#000000" stroke-width="0" stroke-linecap="round"/><path d="M199.31588,133.70709c0.43675,-1.04301 1.0812,-1.6309 1.87431,-1.99105c1.0263,-0.46603 2.30155,-0.5507 3.69792,-0.74668c2.23596,-0.31383 4.46268,-0.73113 6.64776,-1.29989c2.21841,-0.57744 8.06018,-2.33711 5.71997,2.75102c-0.52291,1.13693 -7.15901,2.41628 -7.72695,2.49908c-1.32044,0.1925 -2.64753,0.33853 -3.96643,0.54135c-0.50343,0.07742 -3.95404,1.09557 -4.39175,0.72886z" fill="#30b300" stroke="none" stroke-width="0.5" stroke-linecap="butt"/></g><g stroke-linecap="butt"><path d="M241.15974,146.08464c29.03664,0 52.57549,23.08618 52.57549,51.56442c0,28.47825 -23.53885,51.56443 -52.57549,51.56443c-29.03664,0 -52.57549,-23.0862 -52.57549,-51.56443c0,-28.47826 23.53885,-51.56442 52.57549,-51.56442z" fill="#ffa900" stroke="none" stroke-width="0"/><path d="M196.71344,225.89405c1.2788,-0.85253 2.20886,0.03864 2.50485,0.391c0.67356,-0.61701 1.66088,-0.41954 1.66088,-0.41954c6.12472,1.22494 12.18365,2.09792 18.39437,2.7675c2.89828,0.31247 5.89401,1.30095 8.83525,0.96441c8.39683,-0.96079 16.47002,-3.52936 23.48786,-8.23064c2.88852,-1.77756 5.66567,-3.8461 8.81082,-5.16339c4.04175,-1.69281 8.20787,-2.77469 12.08669,-4.91984c3.16152,-1.74845 6.35725,-3.91405 9.36163,-5.91508c2.39773,-1.59698 4.99177,-2.86451 7.73635,-3.88794c1.15225,-0.42967 2.38923,-1.52801 3.5306,-1.07024c0.83563,0.33514 1.19839,1.27168 1.51029,2.20189c-0.249,2.10554 -0.78149,6.89228 -0.90422,8.70092c-0.69136,0.81091 -1.21332,1.77062 -1.51118,2.82441c-0.18403,0.65111 -0.28251,1.33812 -0.28251,2.04812c0,0.02938 0.00018,0.05871 0.00051,0.088c-0.06725,0.27247 -0.15542,0.51733 -0.2771,0.72194c-0.96732,1.62674 -2.83965,2.20542 -3.77006,3.75613c-1.51232,2.52053 -2.28691,5.07097 -3.10466,7.87916c-0.29664,1.01869 -1.32388,2.22443 -1.15499,3.31479c0.02627,0.16963 0.06665,0.32818 0.11749,0.4779c-1.07754,0.95909 -2.30224,2.02698 -3.26318,2.9594c-1.17781,0.41402 -2.32857,0.8799 -3.40774,1.47667c-1.98772,1.09917 -3.49097,2.9973 -5.42715,4.2084c-3.42614,2.14309 -7.1124,4.07628 -10.82378,5.66584c-4.37671,1.64049 -8.23352,3.93055 -12.9345,4.62146c-4.83794,0.71105 -9.64445,-0.43231 -14.38812,-1.25784c-6.56258,-1.14209 -13.12742,-2.11843 -19.13341,-4.55929c-2.04441,-5.08818 -9.52898,-9.34382 -13.91897,-10.67735c-0.00521,-0.00158 -0.0104,-0.00316 -0.0156,-0.00475c-0.24006,-0.18792 -0.49184,-0.36153 -0.75405,-0.5196c-1.17028,-1.65996 -2.18238,-3.44619 -3.10364,-5.2878l-0.38378,-0.54951c0,0 -1.04205,-1.56308 0.52103,-2.60513z" fill="#ffbd38" stroke="none" stroke-width="0.5"/><path d="M187.81766,197.8685c0,-28.77714 23.7859,-52.10562 53.12729,-52.10562c29.34139,0 53.12729,23.32847 53.12729,52.10561c0,28.77714 -23.7859,52.10561 -53.12729,52.10561c-29.34139,0 -53.12729,-23.32848 -53.12729,-52.10561z" fill="none" stroke="#d38d00" stroke-width="5"/><path d="M244.08858,161.76032c5.00175,8.30333 -1.22764,21.63731 -13.91373,29.78229c-12.6861,8.14499 -27.02493,8.01663 -32.02667,-0.2867c-5.00175,-8.30333 1.22765,-21.63731 13.91374,-29.78229c12.68609,-8.14498 27.0249,-8.01663 32.02667,0.2867z" fill="#ffb600" stroke="none" stroke-width="0"/></g><path d="M276.3447,175.80706c0,2.8556 -3.47155,4.15278 -5.63978,2.52945c-0.22424,-0.16788 -0.41213,-0.39707 -0.53277,-0.64987c-0.97749,-2.04828 -0.30616,-4.53196 -0.3125,-6.80152c-0.00158,-0.5679 0.48737,-2.54275 1.30384,-2.58811c0.39132,-0.25403 0.85815,-0.40157 1.35944,-0.40157c1.22234,0 2.23978,0.87724 2.45711,2.0365c1.40583,1.40756 1.36467,2.43287 1.36467,5.87512z" fill="#000000" stroke="none" stroke-width="0.5" stroke-linecap="butt"/><path d="M260.99679,174.99068c0,2.8556 -3.47155,4.15278 -5.63978,2.52946c-0.22423,-0.16788 -0.41213,-0.39707 -0.53277,-0.64988c-0.9775,-2.04828 -0.30616,-4.53196 -0.3125,-6.80152c-0.00159,-0.5679 0.48737,-2.54275 1.30384,-2.58811c0.39131,-0.25403 0.85815,-0.40156 1.35943,-0.40156c1.22234,0 2.23978,0.87724 2.45711,2.03649c1.40583,1.40756 1.36467,2.43287 1.36467,5.87512z" fill="#000000" stroke="none" stroke-width="0.5" stroke-linecap="butt"/><g stroke="none" stroke-width="1" stroke-linecap="butt"><g><path d="M264.01997,192.92242c0,0 -1.58218,4.44392 -3.59625,1.40995c-2.20425,-3.39891 -0.70747,-16.61495 3.7767,-8.95944c0,0 31.73317,-2.8624 40.58588,-5.46467c2.99111,-0.909 4.08435,5.76023 3.91495,10.30321c-0.21534,5.46406 -1.73129,6.53243 -3.70227,6.07458c-2.95748,-0.74811 -35.02837,-3.40186 -40.97899,-3.36365z" fill="#cae8de"/><path d="M267.55593,191.57483c0,0 0.55203,-0.00923 1.59474,-0.02668c0.98138,-0.01642 2.39212,-0.04002 4.11055,-0.00743c1.71843,0.03259 3.68223,0.06109 5.83003,0.08651c2.14882,0.08675 4.42032,0.17145 6.69284,0.31748c2.27252,0.14603 4.54606,0.35341 6.69591,0.5015c1.04476,0.10522 2.08954,0.21046 3.07297,0.31671c0.98343,0.10625 1.90553,0.21353 2.76629,0.32184c1.72048,0.15527 3.13533,0.37701 4.1198,0.5446c0.98343,0.10625 1.53751,0.21968 1.53751,0.21968c0,0 -0.55305,-0.0521 -1.53649,-0.15835c-0.98343,-0.10625 -2.39622,-0.20531 -4.11773,-0.42192c-0.85974,-0.04697 -1.78184,-0.15425 -2.76527,-0.2605c-0.98343,-0.10625 -2.02717,-0.15014 -3.07194,-0.25537c-2.14985,-0.14808 -4.4234,-0.35546 -6.63355,-0.44118c-2.27252,-0.14603 -4.54504,-0.29207 -6.69387,-0.37882c-2.14882,-0.08675 -4.11363,-0.17659 -5.83208,-0.20918c-3.49924,-0.12551 -5.7697,-0.14888 -5.7697,-0.14888z" fill="#ffffff"/><path d="M308.6756,188.67809c0,0 -0.00821,-0.4907 -0.14422,-1.28601c-0.13601,-0.79531 -0.27921,-2.01999 -0.60847,-3.36426c-0.19529,-0.67162 -0.39162,-1.40458 -0.77195,-2.13445c-0.19016,-0.36494 -0.38034,-0.72988 -0.63081,-1.03245c-0.25047,-0.30257 -0.6226,-0.54175 -0.99267,-0.65828c-0.36904,-0.05516 -0.79634,0.07467 -1.28499,0.20556c-0.42729,0.12986 -0.91593,0.26074 -1.34427,0.32925c-0.91697,0.1994 -1.83393,0.39881 -2.81222,0.59924c-1.8963,0.33849 -3.79361,0.61565 -5.56826,0.89076c-1.77567,0.21376 -3.42867,0.4255 -4.83735,0.57176c-2.81736,0.29255 -4.77807,0.44807 -4.77807,0.44807c0,0 1.89834,-0.21582 4.71468,-0.56972c1.40765,-0.20762 3.06065,-0.41933 4.83529,-0.69444c1.77465,-0.27511 3.67197,-0.55227 5.50691,-0.88974c0.91697,-0.1994 1.89527,-0.39983 2.75089,-0.59821c0.42833,-0.06852 0.91697,-0.1994 1.34427,-0.32925c0.24433,-0.06544 0.42729,-0.12986 0.67161,-0.1953c0.24433,-0.06544 0.48967,-0.06955 0.73604,-0.01232c0.49274,0.11446 0.8659,0.41497 1.1777,0.71653c0.31283,0.36289 0.50301,0.72783 0.69317,1.09277c0.32002,0.79223 0.51635,1.52519 0.71164,2.19681c0.33029,1.4056 0.41112,2.56995 0.48683,3.42764c0.13601,0.79531 0.14423,1.28602 0.14423,1.28602z" fill="#96b7c4"/></g><path d="M261.05893,184.62791c0.61337,-0.01026 1.25753,1.81956 1.30371,4.5797c0.04618,2.76014 -0.1653,4.78833 -0.77866,4.79859c-0.61337,0.01026 -1.50594,-1.99946 -1.55315,-4.82093c-0.04721,-2.82146 0.41474,-4.5471 1.0281,-4.55736z" fill="#b6cfd1"/><path d="M261.05893,184.62791c0,0 0.06133,-0.00103 0.12268,-0.00205c0.06133,-0.00102 0.18502,0.05826 0.24842,0.1799c0.06338,0.12165 0.18812,0.24227 0.25254,0.42525c0.06441,0.18299 0.12882,0.36596 0.19426,0.61028c0.12986,0.42729 0.20043,0.97831 0.27203,1.59064c0.07159,0.61234 0.08185,1.22571 0.15345,1.83804c0.01025,0.61337 0.02053,1.22672 -0.03054,1.8411c0.01025,0.61337 -0.10421,1.1061 -0.15733,1.59782c0.00719,0.42935 -0.10934,0.79942 -0.2279,1.04682c-0.05928,0.12369 -0.11959,0.18605 -0.24124,0.24945c-0.06031,0.06235 -0.12268,0.00205 -0.12268,0.00205c0,0 0.06133,-0.00103 0.12268,-0.00205c0.06031,-0.06235 0.12061,-0.12472 0.1799,-0.24843c0.11755,-0.30873 0.17271,-0.67777 0.16552,-1.10713c0.05312,-0.49172 0.04389,-1.04374 0.03465,-1.59578c-0.00923,-0.55202 -0.0195,-1.16539 -0.03078,-1.84008c-0.01025,-0.61337 -0.02053,-1.22672 -0.09212,-1.83906c-0.07056,-0.55099 -0.0798,-1.10303 -0.21068,-1.59168c-0.06852,-0.42833 -0.19837,-0.85563 -0.32413,-1.03758c-0.06338,-0.12165 -0.12576,-0.18195 -0.24843,-0.1799z" fill="#96b7c4"/><path d="M263.6091,194.03366c0,0 0.11857,-0.24739 0.23611,-0.55613c0.05516,-0.36904 0.232,-0.80148 0.34646,-1.29422c0.05723,-0.24637 0.11447,-0.49274 0.11139,-0.67675c0.05723,-0.24637 0.05414,-0.43038 0.1124,-0.61542c0.05825,-0.18503 0.0562,-0.3077 0.05415,-0.43037c-0.00205,-0.12267 0.05825,-0.18503 0.05825,-0.18503c0,0 0.06544,0.24432 0.07159,0.61233c0.00308,0.18401 0.00718,0.42936 0.01026,0.61337c0.0041,0.24534 -0.05312,0.49171 -0.11036,0.73809c-0.11446,0.49274 -0.3516,0.98755 -0.53048,1.2973c-0.17888,0.30975 -0.35981,0.49685 -0.35981,0.49685z" fill="#96b7c4"/><path d="M261.64664,183.08424c0,0 0.36802,-0.00616 0.86282,0.23097c0.24739,0.11856 0.55716,0.29745 0.80661,0.53869c0.24945,0.24124 0.49992,0.54382 0.68906,0.84742c0.18914,0.3036 0.31797,0.66956 0.38444,0.97522c0.06441,0.18299 0.06646,0.30566 0.06955,0.48968c0.00308,0.18401 0.00513,0.30668 0.00718,0.42935c0.06544,0.24433 0.00821,0.49069 0.0113,0.6747c0.00308,0.18401 0.0041,0.24534 0.0041,0.24534c0,0 -0.00103,-0.06133 -0.06544,-0.24433c-0.00308,-0.18401 -0.06749,-0.36699 -0.07159,-0.61233c-0.00205,-0.12267 -0.06544,-0.24432 -0.06852,-0.42833c-0.06338,-0.12165 -0.06646,-0.30566 -0.12986,-0.4273c-0.06441,-0.18299 -0.12781,-0.30461 -0.19222,-0.48761c-0.06441,-0.18299 -0.1278,-0.30462 -0.25356,-0.48659c-0.12473,-0.12061 -0.18914,-0.30359 -0.31387,-0.42422c-0.12473,-0.12061 -0.1881,-0.24227 -0.31283,-0.36289c-0.24945,-0.24124 -0.43654,-0.42217 -0.68393,-0.54073c-0.37315,-0.30051 -0.74322,-0.41703 -0.74322,-0.41703z" fill="#96b7c4"/><path d="M261.58808,194.25153c0,0 0.06236,0.06031 0.24638,0.05722c0.06133,-0.00102 0.18401,-0.00308 0.24432,-0.06544c0.12165,-0.06338 0.18092,-0.18708 0.24022,-0.31078c0.12061,-0.12473 0.1799,-0.24843 0.23919,-0.37213c0.05928,-0.12369 0.0562,-0.3077 0.11446,-0.49274c0.05516,-0.36904 0.11036,-0.73808 0.16553,-1.10712c0.05825,-0.18503 0.05517,-0.36905 0.0521,-0.55306c-0.00308,-0.18401 0.05518,-0.36904 0.0521,-0.55304c-0.00615,-0.36802 0.04901,-0.73707 0.04491,-0.98241c0.05107,-0.61439 0.04491,-0.98241 0.04491,-0.98241c0,0 0.06544,0.24432 0.13704,0.85665c0.00513,0.30668 0.0113,0.6747 0.01745,1.04272c0.00308,0.18401 0.00615,0.36802 0.00923,0.55202c-0.05825,0.18503 -0.05415,0.43038 -0.05107,0.6144c-0.05516,0.36904 -0.10934,0.79942 -0.22585,1.16949c-0.05825,0.18503 -0.11651,0.37007 -0.17579,0.49377c-0.05825,0.18503 -0.17888,0.30976 -0.23816,0.43346c-0.12061,0.12473 -0.24124,0.24945 -0.36391,0.2515c-0.12165,0.06338 -0.24433,0.06544 -0.30566,0.06646c-0.18401,0.00308 -0.2474,-0.11857 -0.2474,-0.11857z" fill="#ffffff"/></g><path d="M287.56327,186.98292c0.03194,-0.70923 0.21595,-1.44853 0.58387,-2.20036c1.49809,-3.06124 4.72878,-3.43729 7.36688,-2.30512c3.32902,1.02443 5.85984,4.95787 3.47126,8.22841c-0.62729,1.29852 -1.72437,2.25125 -3.02592,2.77839c-0.75232,6.69074 -0.98745,13.43179 -2.0031,20.08774c0,0 -0.37842,2.47119 -2.84961,2.09279c-2.47119,-0.37841 -2.09279,-2.8496 -2.09279,-2.8496c0.98605,-6.41579 1.22876,-12.91761 1.92185,-19.37299c-0.46324,-0.19251 -0.91486,-0.44073 -1.34553,-0.74749c-1.04748,-0.74609 -1.32652,-2.20357 -1.98976,-3.30536c0,0 -0.68245,-1.27674 -0.03714,-2.40642z" fill="#000000" stroke="none" stroke-width="0.5" stroke-linecap="butt"/><path d="M263.77987,181.36382c0.46002,0.07219 0.93881,0.18822 1.43692,0.35229c1.56064,0.51406 2.34852,2.53639 2.66076,4.14957c0.44992,2.32448 -0.96792,5.84503 -3.20322,8.36201c-0.12648,0.19345 -0.24974,0.3884 -0.36556,0.58679c-1.11189,0.89612 -1.95708,2.31577 -3.33567,2.68835c-2.07423,0.56057 -4.68271,1.18326 -6.44578,-0.04485c-1.37908,-0.96063 -1.01,-3.31894 -0.77165,-4.98263c0.01958,-0.13665 0.04933,-0.28543 0.08873,-0.44458c-0.96821,-4.35216 3.27871,-9.10985 6.2556,-11.43078c0,0 2,-1.5 3.5,0.5c0.06672,0.08896 0.12651,0.17693 0.17987,0.26382z" fill="#000000" stroke="none" stroke-width="0.5" stroke-linecap="butt"/></g></g></svg>