<svg version="1.1" xmlns="http://www.w3.org/2000/svg" xmlns:xlink="http://www.w3.org/1999/xlink" width="94.98042" height="38.09554" viewBox="0,0,94.98042,38.09554"><g transform="translate(-4.71188,-55.28101)"><g data-paper-data="{&quot;isPaintingLayer&quot;:true}" fill-rule="nonzero" stroke="none" stroke-linecap="butt" stroke-linejoin="miter" stroke-miterlimit="10" stroke-dasharray="" stroke-dashoffset="0" style="mix-blend-mode: normal"><g><path d="M4.71189,80.48837c0,-22.2708 0,0.59887 0,-11.92084c0,-6.42027 4.98633,-13.28652 13.17664,-13.28652c33.51063,0 49.65891,0 68.36368,0c6.90919,0 13.44009,6.91834 13.44009,13.37433c0,12.48907 0,-10.76098 0,11.56958c0,7.9608 -5.09338,13.15163 -13.44009,13.15163c-33.70155,0 -49.44428,-0.00001 -68.10024,-0.00001c-6.90919,0 -13.44009,-5.07614 -13.44009,-12.88819z" fill="#333333" stroke-width="0"/><g stroke-width="0"><path d="M14.75673,78.96296c0,-1.54721 -0.07005,-4.91572 1.97249,-6.98275c0.36794,-0.37235 0.07958,1.02211 0.23692,1.82966c0.25289,1.29792 0.82178,2.39235 0.84549,2.05392c0.13465,-1.92261 3.11845,-4.43707 3.67124,-6.82595c0.58595,-2.53218 -2.26817,-5.13864 -1.26145,-4.88604c7.74119,1.94233 3.38487,8.897 3.91514,10.38185c0.39542,1.10726 1.6464,0.99488 2.75614,-1.18697c1.84281,-3.62311 1.65764,4.70299 1.65764,5.6163c0,3.809 -3.08781,6.8968 -6.8968,6.8968c-3.80899,0 -6.8968,-3.08781 -6.8968,-6.8968z" fill="#ffffff"/><path d="M21.65719,85.85976c-1.9045,0 -3.4484,-1.5439 -3.4484,-3.4484c0,-0.45665 -0.09258,-4.6197 0.82882,-2.80814c0.55487,1.09092 1.18037,1.14713 1.37808,0.59349c0.26514,-0.74244 -1.91302,-4.21976 1.95757,-5.19092c0.50336,-0.12631 -0.92369,1.17694 -0.63072,2.44302c0.2764,1.19444 1.7683,2.45167 1.83563,3.41298c0.01185,0.16922 0.29629,-0.37799 0.42274,-1.02696c0.07868,-0.40377 -0.0655,-1.10101 0.11847,-0.91483c1.02126,1.0335 0.98624,2.71775 0.98624,3.49136c0,1.9045 -1.5439,3.44841 -3.4484,3.44841z" data-paper-data="{&quot;index&quot;:null}" fill="#343434"/></g><text transform="translate(32.42609,79.22761) scale(0.33586,0.33586)" font-size="40" xml:space="preserve" fill="#ffffff" fill-rule="nonzero" stroke="none" stroke-width="1" stroke-linecap="butt" stroke-linejoin="miter" stroke-miterlimit="10" stroke-dasharray="" stroke-dashoffset="0" font-family="Sans Serif" font-weight="normal" text-anchor="start" style="mix-blend-mode: normal"><tspan x="0" dy="0">Trending</tspan></text></g></g></g></svg>