<svg version="1.1" xmlns="http://www.w3.org/2000/svg" xmlns:xlink="http://www.w3.org/1999/xlink" width="480" height="360" viewBox="0,0,480,360"><g data-paper-data="{&quot;isPaintingLayer&quot;:true}" fill-rule="nonzero" stroke-linejoin="miter" stroke-miterlimit="10" stroke-dasharray="" stroke-dashoffset="0" style="mix-blend-mode: normal"><path d="M0,360v-360h480v360z" fill="#ffffff" stroke="none" stroke-width="0" stroke-linecap="butt"/><path d="M144.81319,270.8563c0,0 3.66458,18.59791 4.77254,28.33628c-1.28116,10.93113 -2.00577,21.73587 -2.00577,21.73587" fill="none" stroke="#000000" stroke-width="3.5" stroke-linecap="round"/><path d="M102.8278,269.96663c0,0 0.03149,4.41636 2.80628,4.48644c5.16269,0.13038 16.08774,-1.24566 25.01098,-2.62847c0.3438,0.64196 -6.34007,22.90879 -6.34007,22.90879" fill="none" stroke="#000000" stroke-width="3.5" stroke-linecap="round"/><g data-paper-data="{&quot;index&quot;:null}" stroke="#121312" stroke-width="3.5" stroke-linecap="butt"><path d="M112.73504,318.01878l4.77071,-21.58468l15.56715,4.25148c0,0 -2.93643,7.44738 -3.80036,10.81361c-0.24143,0.94077 2.6739,1.90618 4.75384,2.89325c1.46563,0.69553 2.35457,1.36403 2.13818,2.20721c-0.57536,2.24182 -2.38748,6.30687 -2.38748,6.30687z" fill="#383838"/><path d="M134.14371,300.64951c-0.44305,1.72633 -4.62381,2.145 -9.33797,0.93514c-4.71419,-1.20986 -8.1766,-3.5901 -7.73356,-5.31644c0.2183,-0.85062 0.40785,-5.72452 2.05775,-5.9018c1.69858,-0.18251 5.13571,3.3912 7.52708,4.00491c4.71419,1.20986 7.92976,4.55187 7.48672,6.2782z" fill="#979025"/></g><g stroke="#121312" stroke-width="3.5" stroke-linecap="butt"><path d="M139.37774,346.09969l-0.73742,-22.0933l16.13529,0.25356c0,0 -0.99557,7.94322 -0.9967,11.41855c-0.00055,1.65565 7.9432,1.12383 7.9425,3.22971c-0.00077,2.31447 -0.7469,6.70214 -0.7469,6.70214z" fill="#383838"/><path d="M155.80387,323.95914c-0.00059,1.78226 -3.94649,3.22576 -8.81345,3.22416c-4.86695,-0.0016 -8.81194,-1.44771 -8.81134,-3.22997c0.00028,-0.87818 -1.02614,-5.64655 0.5281,-6.2279c1.60009,-0.59849 5.81685,2.00996 8.28569,2.01078c4.86695,0.0016 8.81158,2.44066 8.81101,4.22292z" fill="#979025"/></g><g><path d="M149.22087,201.8098l54.01159,27.77977" data-paper-data="{&quot;index&quot;:null}" fill="none" stroke="#383838" stroke-width="3.5" stroke-linecap="round"/><g data-paper-data="{&quot;index&quot;:null}" fill="#393839" stroke="#131313" stroke-width="2.5" stroke-linecap="butt"><path d="M202.79922,229.4558c3.07095,-2.97688 6.67448,-4.2103 8.0487,-2.75487c1.37422,1.45542 -0.00122,5.04852 -3.07217,8.02543c-3.07095,2.97688 -6.67448,4.2103 -8.0487,2.75487c-1.37422,-1.45542 0.00122,-5.04852 3.07217,-8.02543z"/><path d="M205.17726,233.11758c3.07095,-2.97688 6.67448,-4.2103 8.0487,-2.75487c1.37422,1.45542 -0.00122,5.04852 -3.07217,8.02543c-3.07095,2.97688 -6.67447,4.2103 -8.0487,2.75487c-1.37422,-1.45542 0.00122,-5.04852 3.07216,-8.02542z"/><path d="M208.28059,235.72823c3.07095,-2.97688 6.67448,-4.2103 8.0487,-2.75487c1.37422,1.45542 -0.00123,5.04854 -3.07217,8.02543c-3.07095,2.97688 -6.67447,4.2103 -8.0487,2.75487c-1.37422,-1.45542 0.00122,-5.04852 3.07217,-8.02543z"/><path d="M206.29718,225.95071c1.10227,-1.67623 4.863,-1.09941 8.39984,1.28837c3.53682,2.38776 5.51044,5.68227 4.40817,7.3585c-1.10227,1.67623 -4.863,1.09938 -8.39984,-1.28837c-3.53682,-2.38776 -5.51044,-5.68227 -4.40817,-7.35848z" data-paper-data="{&quot;index&quot;:null}"/></g></g><g stroke="none" stroke-width="0" stroke-linecap="butt"><path d="M99.3938,271.07497v-76.71417h54.11557v76.71417z" fill="#000000"/><path d="M99.31049,262.36104v-8.0487h54.11557v8.0487z" fill="#a17f00"/><g fill="#ca9e00"><path d="M120.94872,262.35906v-13.33066h3.55972v13.33066z"/><path d="M121.68554,262.47129v-7.54566h10.35556v7.54566z"/><path d="M129.20078,259.84384v-11.31848h2.9125v11.31848z"/><path d="M129.5656,258.12902v-3.03014h15.66664l-1.94931,6.50918c0,0 -0.76046,-4.43736 -3.0715,-3.68379c-2.49998,0.81519 -2.79143,2.89819 -4.29254,2.89819c-0.54892,0 -0.41234,-2.15658 -1.26289,-2.50285c-0.8012,-0.32618 -1.08222,2.38934 -1.98558,2.39625c-1.29357,0.00989 -3.10482,-2.58686 -3.10482,-2.58686z"/><path d="M121.0924,260.67572c-0.90336,-0.00691 -1.18438,-2.72242 -1.98558,-2.39625c-0.85055,0.34627 -0.71397,2.50284 -1.26289,2.50284c-1.50111,0 -1.79256,-2.08301 -4.29255,-2.89819c-2.31104,-0.75357 -3.0715,3.68379 -3.0715,3.68379l-1.9493,-6.50918h15.66664v3.03014c0,0 -1.81125,2.59676 -3.10482,2.58686z" data-paper-data="{&quot;index&quot;:null}"/></g><g fill="#ca9e00"><path d="M119.70782,220.56504l0.11076,-21.74769h4.02574l0.11076,21.74769z"/><path d="M120.58697,220.73868v-11.67478h12.35568v11.67478z"/><path d="M129.55373,216.67345v-17.51216h3.47503v17.51216z"/><path d="M129.98901,214.02026v-4.68829h18.69257l-2.3258,10.07111c0,0 -0.90734,-6.86556 -3.66474,-5.6996c-2.98284,1.26126 -3.33059,4.48414 -5.12163,4.48414c-0.65494,0 -0.49198,-3.3367 -1.50681,-3.87245c-0.95594,-0.50466 -1.29124,3.69684 -2.36908,3.70753c-1.54342,0.01531 -3.70451,-4.00243 -3.70451,-4.00243z"/><path d="M119.87925,217.96054c-1.07784,-0.01069 -1.41314,-4.21218 -2.36908,-3.70752c-1.01483,0.53575 -0.85187,3.87245 -1.50681,3.87245c-1.79104,0 -2.13878,-3.22286 -5.12163,-4.48413c-2.7574,-1.16593 -3.66474,5.6996 -3.66474,5.6996l-2.3258,-10.07111h18.69257v4.68828c0,0 -2.16109,4.01774 -3.70451,4.00243z" data-paper-data="{&quot;index&quot;:null}"/></g></g><g stroke="none" stroke-linecap="butt"><path d="M168.56379,152.07719c0,21.91249 -17.96444,39.67608 -40.12469,39.67608c-22.16026,0 -40.12469,-17.76358 -40.12469,-39.67608c0,-21.91249 17.96444,-39.67607 40.12469,-39.67607c22.16026,0 40.12469,17.76357 40.12469,39.67607z" fill="#000000" stroke-width="0"/><path d="M149.54883,144.72976l0.64458,-38.53315l10.31318,-23.8383v62.37144z" fill="#000000" stroke-width="0"/><path d="M95.45048,146.4089v-62.37143l10.31318,23.8383l0.64457,38.53314z" data-paper-data="{&quot;index&quot;:null}" fill="#000000" stroke-width="0"/><path d="M111.51901,183.58945l-7.09031,-21.55243h51.24359l-8.37945,20.57278z" fill="#d9b796" stroke-width="0"/><path d="M111.84129,152.73028c0,2.79541 -4.32878,5.06155 -9.6686,5.06155c-5.33982,0 -9.6686,-2.26614 -9.6686,-5.06155c0,-2.79541 4.32878,-5.06155 9.6686,-5.06155c5.33982,0 9.6686,2.26614 9.6686,5.06155z" fill="#ffffff" stroke-width="0"/><path d="M163.13067,153.75634c0,2.79541 -4.32878,5.06155 -9.6686,5.06155c-5.33982,0 -9.6686,-2.26614 -9.6686,-5.06155c0,-2.79541 4.32878,-5.06156 9.6686,-5.06156c5.33982,0 9.6686,2.26614 9.6686,5.06156z" fill="#ffffff" stroke-width="0"/><path d="M143.58871,172.47839c0,1.26655 -1.25,1.26655 -1.25,1.26655h-1.24118c-8.05477,0 -16.04077,0.50306 -24.07895,0.50306c0,0 -1.25,0 -1.25,-1.26655c0,-1.26655 1.25,-1.26655 1.25,-1.26655c8.03765,0 16.02432,-0.50306 24.07895,-0.50306h1.24118c0,0 1.25,0 1.25,1.26655z" fill="#000000" stroke-width="0.5"/><path d="M143.41223,176.47008c-0.46424,-1.17596 0.69636,-1.64634 0.69636,-1.64634l1.07607,-0.42139c1.73066,-1.41905 3.14702,-3.46739 0.90224,-5.41607c-0.51696,-0.44878 -2.43233,0.08706 -3.00658,0.20666c0,0 -1.22573,0.2484 -1.47087,-0.99356c-0.24515,-1.24195 0.98058,-1.49034 0.98058,-1.49034c1.41538,-0.28029 3.63322,-0.73427 4.93699,0.20666c1.66902,1.20452 2.86113,4.71374 1.89704,6.61214c-0.72393,1.42548 -1.80953,2.1211 -2.9807,3.06311l-1.40629,0.58471c0,0 -1.1606,0.47039 -1.62484,-0.70558z" fill="#000000" stroke-width="0.5"/><path d="M118.51683,177.00578c0,1.26655 -1.25,1.26655 -1.25,1.26655l-1.23809,-0.02459c-6.01717,-1.24343 -7.03908,-9.55261 -0.49648,-11.03565c0,0 1.22573,-0.2484 1.47087,0.99356c0.24514,1.24195 -0.98058,1.49034 -0.98058,1.49034c-4.067,0.66879 -2.77793,5.41998 0.49648,6.06786l0.7478,-0.02459c0,0 1.25,0 1.25,1.26655z" fill="#000000" stroke-width="0.5"/><path d="M136.02372,167.08593c-2.48264,2.36724 -5.88291,1.6316 -9.03295,1.1083c0,0 -1.23299,-0.20822 -1.02749,-1.45752c0.2055,-1.24931 1.43849,-1.04109 1.43849,-1.04109c2.02027,0.34754 5.35568,1.2823 6.85419,-0.40084l0.56579,-0.78346c-0.49478,-2.24616 -1.52111,-4.31486 -1.90785,-6.66448c0,0 -0.20549,-1.24931 1.0275,-1.45752c1.23299,-0.20822 1.43849,1.04109 1.43849,1.04109c0.40843,2.48472 1.48298,4.58852 1.97863,7.00244l0.02427,0.49991c0,0 0.00001,0.73707 -0.55493,1.08665z" fill="#000000" stroke-width="0.5"/></g><g><path d="M101.21994,207.04752l57.26944,-19.98792" fill="none" stroke="#383838" stroke-width="3.5" stroke-linecap="round"/><g fill="#393839" stroke="#131313" stroke-width="2.5" stroke-linecap="butt"><path d="M156.08862,178.75441c1.55875,-1.25005 4.96059,0.47385 7.59821,3.85047c2.63761,3.37661 3.51222,7.12727 1.95347,8.3773c-1.55875,1.25005 -4.96059,-0.47385 -7.59821,-3.85047c-2.63761,-3.37661 -3.51222,-7.12727 -1.95347,-8.3773z"/><path d="M158.94118,175.45889c1.55875,-1.25005 4.96059,0.47385 7.59821,3.85047c2.63761,3.37661 3.51222,7.12728 1.95348,8.37732c-1.55875,1.25005 -4.9606,-0.47387 -7.59822,-3.85048c-2.63761,-3.37661 -3.5122,-7.12727 -1.95347,-8.3773z"/><path d="M162.36942,173.30557c1.55875,-1.25005 4.96059,0.47385 7.59821,3.85047c2.63761,3.37661 3.51222,7.12727 1.95347,8.3773c-1.55875,1.25005 -4.96059,-0.47385 -7.59821,-3.85047c-2.63761,-3.37661 -3.5122,-7.12727 -1.95347,-8.3773z"/><path d="M166.3962,184.41687c3.82737,-1.87213 7.63066,-1.91931 8.49488,-0.1054c0.86422,1.81391 -1.53786,4.80202 -5.36523,6.67417c-3.82737,1.87213 -7.63065,1.9193 -8.49488,0.1054c-0.86422,-1.81391 1.53786,-4.80204 5.36523,-6.67417z" data-paper-data="{&quot;index&quot;:null}"/></g></g></g></svg>