<svg version="1.1" xmlns="http://www.w3.org/2000/svg" xmlns:xlink="http://www.w3.org/1999/xlink" width="60.1" height="60.1" viewBox="0,0,60.1,60.1"><g transform="translate(-23.33626,-167.76959)"><g data-paper-data="{&quot;isPaintingLayer&quot;:true}" fill-rule="nonzero" stroke="none" stroke-width="0" stroke-linecap="butt" stroke-linejoin="miter" stroke-miterlimit="10" stroke-dasharray="" stroke-dashoffset="0" style="mix-blend-mode: normal"><path d="M83.43626,197.81959c0,16.59615 -13.45384,30.05 -30.05,30.05c-16.59616,0 -30.05,-13.45384 -30.05,-30.05c0,-16.59616 13.45384,-30.05 30.05,-30.05c16.59615,0 30.05,13.45384 30.05,30.05z" fill="#333333"/><g fill="#ffffff"><g><path d="M69.89062,201.50029c0,1.57484 -1.27666,2.8515 -2.8515,2.8515c-1.57484,0 -2.85151,-1.27666 -2.85151,-2.8515c0,-1.57484 1.27667,-2.85151 2.85151,-2.85151c1.57484,0 2.8515,1.27666 2.8515,2.8515z"/><path d="M68.1322,201.50029c0,0.9649 0.47124,1.96044 -0.26221,2.47641c-0.46364,0.32616 -1.97935,0.37509 -2.58929,0.37509c-1.57484,0 -2.8515,-1.27666 -2.8515,-2.8515c0,-1.57484 1.27666,-2.85151 2.8515,-2.8515c1.57484,0 2.85151,1.27666 2.8515,2.8515z"/><path d="M69.89062,187.43288c0,1.57484 -1.27666,2.8515 -2.8515,2.8515c-1.57484,0 -2.8515,-1.27666 -2.8515,-2.8515c0,-1.03818 -0.44321,-2.08936 0.3861,-2.58805c0.42868,-0.25778 1.92875,-0.26346 2.4654,-0.26346c1.57484,0 2.8515,1.27666 2.8515,2.8515z"/><path d="M68.1322,187.43288c0,1.57484 -1.27667,2.8515 -2.85151,2.8515c-1.57484,0 -2.8515,-1.27666 -2.8515,-2.8515c0,-1.57484 1.27666,-2.8515 2.8515,-2.8515c1.57484,0 2.8515,1.27666 2.85151,2.8515z"/><path d="M69.8431,187.1002v14.63771h-7.31885v-14.63771z"/></g><path d="M60.62324,185.29425l-0.04752,18.20851c0,0 -0.59196,1.7406 -1.43448,1.78842c-0.21919,0.31647 -1.92103,1.3624 -5.75627,6.76056c-0.8552,1.2037 -4.96077,1.56822 -5.16723,0.6531c-0.38215,-1.34062 0.78367,-2.61889 1.1206,-3.84408c0.69295,-2.51977 1.32679,-4.42391 1.07863,-4.51954c-0.46423,-0.17891 -9.53867,0.02306 -10.84135,-0.13402c-0.36537,-0.04406 -1.94047,-0.203 -2.45821,-0.92817c-0.61106,-0.85589 -0.14143,-2.29509 -0.14143,-2.29509c0,0 1.3883,-9.25259 1.8833,-12.71876c0.2376,-1.66376 2.82168,-3.73133 2.82168,-3.73133c0,0 15.1719,-0.11678 17.94526,-0.03401c0.62078,0.01853 0.99701,0.79442 0.99701,0.79442z"/></g></g></g></svg>