<svg version="1.1" xmlns="http://www.w3.org/2000/svg" xmlns:xlink="http://www.w3.org/1999/xlink" width="488.16667" height="368.16667" viewBox="0,0,488.16667,368.16667"><g transform="translate(4.08333,4.08331)"><g data-paper-data="{&quot;isPaintingLayer&quot;:true}" fill-rule="nonzero" stroke-linecap="butt" stroke-linejoin="miter" stroke-miterlimit="10" stroke-dasharray="" stroke-dashoffset="0" style="mix-blend-mode: normal"><path d="M-0.33333,360.33335v-360.66666h480.66667v360.66667z" fill="#000000" stroke="#ffffff" stroke-width="7.5"/><path d="M193.78341,238.94139c-1.76777,1.76777 -3.53553,0 -3.53553,0l-1,-1c-2.55335,-2.55335 -5.42419,-6.82732 -8.54656,-8.64114c-0.91146,-0.52948 -2.09612,-0.45767 -3,-1c-0.80845,-0.48507 -1.19155,-1.51493 -2,-2c-0.90388,-0.54233 -2.10249,-0.44721 -3,-1c-2.53405,-1.56076 -5.25693,-5.03961 -7.51637,-6.97453c-4.78184,-4.13528 -6.98801,-8.09839 -9.96978,-13.56549c-4.89736,-8.97935 -9.01862,-18.27228 -13.43741,-27.47222c-2.4261,-5.05116 -6.47012,-9.08443 -8.99261,-13.98528c-0.68588,-1.33256 -0.56803,-3.0143 -1.36374,-4.28434c-0.88385,-1.41072 -2.59889,-2.15208 -3.5324,-3.53044c-0.69856,-1.03146 -0.83005,-2.34917 -1.24508,-3.52376c0,0 -0.79057,-2.37171 1.58114,-3.16228c2.37171,-0.79057 3.16228,1.58114 3.16228,1.58114c0.25164,0.82541 0.25368,1.77382 0.75492,2.47624c0.96923,1.35825 2.65579,2.12472 3.53867,3.54062c0.86443,1.38632 0.8234,3.18896 1.5652,4.64459c2.49534,4.8966 6.576,8.9652 9.00739,14.01472c4.40078,9.13956 8.48265,18.38208 13.35111,27.30674c2.71066,4.96907 4.48008,8.46917 8.83426,12.16347c1.9327,1.65803 4.64798,5.21453 6.89107,6.51756c0.91146,0.52948 2.09612,0.45767 3,1c0.80845,0.48507 1.19155,1.51493 2,2c0.90388,0.54233 2.10249,0.44721 3,1c3.48212,2.14469 6.57841,6.48383 9.45344,9.35886l1,1c0,0 1.76777,1.76777 0,3.53553z" fill="#ff0000" stroke="none" stroke-width="0.5"/><text transform="translate(113.01564,50.17362) scale(0.5,0.5)" font-size="40" xml:space="preserve" fill="#ffffff" fill-rule="nonzero" stroke="none" stroke-width="1" stroke-linecap="butt" stroke-linejoin="miter" stroke-miterlimit="10" stroke-dasharray="" stroke-dashoffset="0" font-family="Sans Serif" font-weight="normal" text-anchor="start" style="mix-blend-mode: normal"><tspan x="0" dy="0">No</tspan></text></g></g></svg>