<svg version="1.1" xmlns="http://www.w3.org/2000/svg" xmlns:xlink="http://www.w3.org/1999/xlink" width="489" height="370" viewBox="0,0,489,370"><g transform="translate(5,5.5)"><g data-paper-data="{&quot;isPaintingLayer&quot;:true}" fill-rule="nonzero" stroke-linejoin="miter" stroke-miterlimit="10" stroke-dasharray="" stroke-dashoffset="0" style="mix-blend-mode: normal"><path d="M-5,364.5v-370h489v370z" fill="#ffffff" stroke="none" stroke-width="0" stroke-linecap="butt"/><path d="M202.48877,246.18047c-0.17662,0.68763 -0.50824,1.37352 -1.02244,2.03398c-2.09369,2.68923 -5.33287,2.39517 -7.68293,0.74635c-3.0484,-1.68497 -4.71933,-6.0536 -1.71116,-8.76518c0.88011,-1.14239 2.14916,-1.85005 3.53112,-2.09925c2.10761,-6.39453 3.71932,-12.94429 6.07755,-19.25079c0,0 0.87686,-2.34118 3.21804,-1.46434c2.34118,0.87684 1.46434,3.21803 1.46434,3.21803c-2.28003,6.07751 -3.85013,12.39157 -5.85154,18.56786c0.41396,0.28336 0.80511,0.61888 1.16377,1.00739c0.87234,0.94493 0.84674,2.42866 1.2701,3.643c0,0 0.40629,1.3895 -0.45684,2.36295z" fill="#000000" stroke="none" stroke-width="0.5" stroke-linecap="butt"/><path d="M294.59058,237.64006c0.24028,0.66805 0.35136,1.42176 0.29712,2.25703c-0.22084,3.40099 -3.06556,4.97782 -5.93601,4.9344c-3.46844,0.31907 -7.30537,-2.3558 -6.34061,-6.28912c0.08613,-1.43952 0.73826,-2.73798 1.7414,-3.72064c-1.84963,-6.47386 -4.1967,-12.79749 -5.78956,-19.33936c0,0 -0.59016,-2.42934 1.83918,-3.01951c2.42934,-0.59017 3.01951,1.83917 3.01951,1.83917c1.52887,6.3085 3.77792,12.41378 5.59278,18.64744c0.50165,0.0018 1.01374,0.05955 1.52873,0.1794c1.25256,0.29149 2.06509,1.53322 3.09762,2.29985c0,0 1.11685,0.92112 0.94983,2.21135z" fill="#000000" stroke="none" stroke-width="0.5" stroke-linecap="butt"/><path d="M221.42738,262.1264c-0.08052,-0.60729 -1.17986,-8.8984 -1.17986,-8.8984c-0.46191,-3.48987 -1.09796,-6.9559 -1.80625,-10.41011c1.54379,-0.77324 2.98,-1.7443 4.37682,-2.77265c1.17148,5.79273 2.2633,11.59981 3.04326,17.48217c0.23862,1.79967 2.01464,10.04816 0.55882,11.42557c-1.3245,1.25316 -6.06973,0.1576 -8.08325,0.22654c-3.44968,0.11812 -11.94018,2.37717 -13.59717,-2.71883c-0.56928,-1.75079 1.16464,-3.493 1.74695,-5.23949c5.98434,-1.97837 9.67369,-1.85938 14.98252,1.34653c-0.00971,-0.14826 -0.02252,-0.29567 -0.04184,-0.44133z" data-paper-data="{&quot;index&quot;:null}" fill="#000000" stroke="none" stroke-width="0.5" stroke-linecap="butt"/><path d="M252.43206,262.35102c-0.00971,-0.14826 -0.02252,-0.29567 -0.04184,-0.44133c-0.08053,-0.6073 -1.17987,-8.89841 -1.17987,-8.89841c-0.46191,-3.48987 -1.09796,-6.9559 -1.80625,-10.41011c1.54378,-0.77324 2.98,-1.7443 4.37682,-2.77265c1.17148,5.79273 2.2633,11.59981 3.04326,17.48217c0.23862,1.79967 2.01464,10.04817 0.55882,11.42558c-1.3245,1.25316 -6.06973,0.15759 -8.08325,0.22653c-3.44968,0.11812 -11.94017,2.37717 -13.59716,-2.71883c-0.56927,-1.75079 1.16464,-3.493 1.74695,-5.23949c5.98434,-1.97836 9.67369,-1.85939 14.98252,1.34653z" data-paper-data="{&quot;index&quot;:null}" fill="#000000" stroke="none" stroke-width="0.5" stroke-linecap="butt"/><g><path d="M288.88413,132.1764c0.03536,0.17684 0.05542,0.34346 0.0622,0.50044c0.59945,0.45669 0.98634,1.17809 0.98634,1.98985v0v3h-0.61535l0.27763,1.25482c-1.85717,1.28986 -3.35248,3.2585 -5.46502,4.03342c-2.11123,1.5258 -4.61419,2.78694 -6.0985,3.36484c-4.78422,1.86266 -7.66054,-0.29155 -12.23755,-0.83848c-3.09261,-0.36956 -6.06296,-0.41837 -8.05287,-2.70837c-2.16005,-0.32698 -4.07413,-1.09912 -5.41027,-2.75277c-0.90292,-1.11747 -0.43895,-2.85734 -0.38314,-4.29292c0.154,-3.96122 0.30227,-8.746 5.04998,-10.18906c1.21976,-0.37074 2.434,0.77573 3.68317,1.0304c2.21103,0.45076 4.43777,0.82703 6.63827,1.32672c6.3336,1.43824 12.13082,3.64453 18.62336,2.31995c0,0 2.45145,-0.49029 2.94174,1.96116z" fill="#4adc1b" stroke="none" stroke-width="0.5" stroke-linecap="butt"/><path d="M253.06354,140.51137c0,0 -0.32105,-8.666 0.40754,-9.84295c0.72859,-1.17695 1.4391,-2.73709 3.67954,-3.76777c1.33118,-0.61239 7.51292,0.81072 7.51292,0.81072c0,0 5.35453,0.41742 12.09645,1.87797c6.74191,1.46055 12.10354,1.52203 12.10354,1.52203" fill="none" stroke="#30b303" stroke-width="3" stroke-linecap="round"/><path d="M251.29938,138.17779c0,0 -2.43817,-9.11443 4.35698,-13.30143c1.0648,-0.6561 3.00662,-0.75768 4.53191,-1.14302c1.08073,-0.27303 7.55637,0.11901 12.98604,1.39283c6.93899,1.62791 14.3473,4.27383 14.3473,4.27383" fill="none" stroke="#30b303" stroke-width="5" stroke-linecap="round"/><path d="M254.03632,122.35166c7.02382,-2.01706 11.04882,-2.41711 17.0206,-1.12134c5.97178,1.29577 15.80973,4.35011 18.04218,7.27286c1.08386,1.419 1.41605,6.56805 -0.65824,10.50115c-2.1982,4.16804 -6.8529,6.09354 -7.17307,6.27041c-0.6223,0.34377 -4.39975,1.98228 -10.59916,2.40924c-6.1994,0.42696 -19.88122,-7.41455 -19.88122,-7.41455" fill="none" stroke="#055214" stroke-width="3.5" stroke-linecap="round"/><path d="M262.59702,136.56017c0,0 -2.45177,-0.48874 -1.96303,-2.9405c0.48874,-2.45177 2.9405,-1.96303 2.9405,-1.96303l1.63451,0.32583c4.79461,0.95576 9.73523,1.51395 14.17959,3.58247c0,0 2.26002,1.06879 1.19124,3.32881c-1.06878,2.26003 -3.32881,1.19124 -3.32881,1.19124c-3.99041,-1.92467 -8.68263,-2.33449 -13.01949,-3.199l-1.63451,-0.32583z" data-paper-data="{&quot;index&quot;:null}" fill="#32b104" stroke="none" stroke-width="0.5" stroke-linecap="butt"/></g><g><path d="M246.93894,115.05467c1.82196,-1.40282 3.5213,-0.11997 5.54113,3.51573c0.55552,0.99994 0.09689,2.28593 0.11926,3.42961c0.07485,3.82586 0.00103,7.6622 -0.00483,11.48868c-0.29563,2.36694 -0.59335,5.13807 -1.13404,7.8313c-0.80818,0.11561 -1.5137,0.6756 -1.9298,1.92388c-0.11677,0.3503 0.077,0.87451 0.44673,1.43744c0.04298,0.34351 0.15565,0.66536 0.32342,0.95094c-0.37589,1.0474 -0.81995,2.03238 -1.35081,2.91771c-2.37527,3.9614 -8.77831,5.73242 -11.48979,0.41615c-0.6265,-1.22835 0.97798,-5.62825 1.15405,-7.23888c0.46941,-4.29397 0.51586,-8.71252 1,-13c0.49014,-4.34056 1.31841,-7.96192 1.31841,-12.39387c0,0 0,-2.5 2.5,-2.5c0.24555,0 0.46699,0.02412 0.66667,0.06762c0.19969,-0.0435 0.42112,-0.06762 0.66667,-0.06762c1.23088,0 1.85574,0.60603 2.17294,1.22133z" fill="#b37600" stroke="none" stroke-width="0.5" stroke-linecap="butt"/><path d="M243.25496,118.21134c0.01324,0.22478 -0.00136,0.37077 -0.00136,0.37077c-0.45426,4.36611 -0.17341,8.65247 -0.66919,13.02403c-0.33153,2.9232 -1.34039,5.73016 -1.66741,8.67332c-0.25363,2.2827 0.61159,4.91009 -0.59475,6.86451c-2.86996,4.64971 -8.29403,4.00248 -11.01573,0.25772c0.71318,-1.22975 0.61157,-2.95166 0.79282,-4.40166c0.41586,-3.3269 -0.90947,-14.70783 -1,-17.33333c-0.04611,-1.33716 -0.11803,-2.67948 -0.33333,-4c-0.21398,-1.31238 -0.594,-2.53985 -1.11667,-3.67106c0.43442,-1.98746 1.47533,-3.72735 3.77195,-4.94857c3.14583,-1.67277 11.57339,-1.43309 11.84215,3.83967c0.02519,0.49406 0.02135,0.93363 -0.00848,1.3246z" fill="#de9400" stroke="none" stroke-width="0.5" stroke-linecap="butt"/><path d="M242.84686,115.74472l-2.83333,31.16667" fill="none" stroke="#de9400" stroke-width="4.5" stroke-linecap="round"/><path d="M231.22594,149.47941c0,0 -1.85581,-9.22077 -1.62545,-15.32508c0.08384,-2.22186 -1.93895,-11.01138 -1.90239,-12.15646c0.10075,-3.15559 0.17504,-7.21545 0.17504,-7.21545c0,0 8.13645,-1.55098 11.53166,-1.65629c2.71049,-0.08407 7.13052,1.66609 7.13052,1.66609l5.26856,4.60492c0,0 0.03572,9.39508 -0.67132,13.83939c-0.80537,5.06231 -3.23777,15.5892 -3.23777,15.5892" fill="none" stroke="#79350f" stroke-width="3.5" stroke-linecap="round"/></g><g><path d="M237.59933,246.55086c-26.80554,0 -48.53573,-21.73018 -48.53573,-48.53573c0,-26.80554 21.73018,-48.53573 48.53573,-48.53573c26.80555,0 48.53573,21.73018 48.53573,48.53573c0,26.80555 -21.73018,48.53573 -48.53573,48.53573z" fill="#fea800" stroke="#d38c04" stroke-width="3.5" stroke-linecap="butt"/><path d="M277.61257,224.24589c0.59569,0.77676 1.3139,1.51865 1.56187,2.3944c-0.58393,0.09701 -1.16493,0.26366 -1.74174,0.60974c-2.5843,1.55058 -3.33635,4.80325 -4.98645,6.09345c-2.36054,1.84569 -4.88158,2.92892 -7.18716,4.97601c-0.21275,0.1889 -0.62242,0.58241 -1.15521,1.09613c-3.32099,0.23644 -7.29244,4.4218 -10.29902,5.44528c-6.42554,2.18734 -14.86589,-0.49565 -23.13512,0.41404c-5.01822,-0.53895 -9.95408,-1.81477 -14.63287,-4.01192c-2.95586,-1.38807 -5.60134,-3.50885 -8.47647,-5.0729c-3.55355,-1.98365 -7.00871,-4.53758 -10.05954,-7.53185c-0.14107,-0.88481 -0.33526,-1.77277 -0.6515,-2.65823c-0.45319,-1.26894 -2.06374,-2.56154 -3.46925,-3.85162c-0.41677,-1.30423 -0.84699,-2.62201 -1.33648,-3.95386c-0.25652,-0.69796 -0.49358,-1.40069 -0.74037,-2.09722c0.51385,-3.41581 1.46881,-8.14148 -0.91907,-9.50598l-2.67403,-1.52802c0.03693,-0.34938 0.05587,-0.70414 0.05587,-1.06331c0,-0.53761 -0.04243,-1.06531 -0.12411,-1.57993c0.62785,-1.05559 1.58774,-1.92203 3.0002,-2.45845c1.99652,-0.75823 5.18087,0.97084 7.05546,1.71841c6.94699,2.77039 12.69634,6.62468 18.92587,10.78843c2.40287,1.03422 3.04146,1.10895 5.17662,3.0325c0.57205,0.51535 0.79293,1.38533 1.43534,1.80976c0.91124,0.60204 2.09781,0.65199 3.06334,1.16243c0.74058,0.39152 1.20903,1.25227 2.00398,1.51645c1.00859,0.33518 2.1294,0.05802 3.18175,0.2069c6.69933,0.94777 13.57617,0.12443 20.25367,0.98889c2.36791,0.30655 4.58999,1.44095 6.96733,1.66286c5.15811,0.48147 10.79097,0.33493 15.78754,-0.94029c0,0 2.42535,-0.60633 3.03169,1.81902c0.04579,0.18315 0.07429,0.35594 0.08785,0.51887z" fill="#ffbc35" stroke="none" stroke-width="0.5" stroke-linecap="butt"/><path d="M278.43272,223.33335c0,0 -7.27301,-0.74045 -16.96885,-1.43489c-3.72466,-0.26677 -8.47353,0.79689 -12.63831,0.42862c-7.2535,-0.6414 -14.09084,-2.91522 -20.39284,-4.66039c-4.12041,-1.14104 -7.42226,-7.35524 -11.11657,-9.08427c-6.25726,-2.92855 -12.39454,-1.7111 -16.48421,-4.58768c-4.82892,-3.39654 -10.06588,-3.99472 -10.06588,-3.99472" fill="none" stroke="#ffbc35" stroke-width="4" stroke-linecap="round"/><path d="M237.59933,246.8777c-26.80554,0 -48.53573,-21.73018 -48.53573,-48.53573c0,-26.80554 21.73018,-48.53573 48.53573,-48.53573c26.80555,0 48.53573,21.73018 48.53573,48.53573c0,26.80555 -21.73018,48.53573 -48.53573,48.53573z" fill="none" stroke="#d38c04" stroke-width="3.5" stroke-linecap="butt"/><path d="M255.50315,226.35348c-0.6868,2.40381 -3.09061,1.71701 -3.09061,1.71701l-2.4371,-0.69877c-6.97894,-2.36358 -14.90267,-0.96928 -21.63847,-4.12461c-1.24518,-0.5833 -2.28583,-1.281 -3.21013,-2.05159c-0.21091,0.68846 -0.74309,1.45506 -2.05075,1.61852c-2.48069,0.31008 -2.79078,-2.17061 -2.79078,-2.17061c-0.10386,-3.98358 -4.60448,-2.7944 -7.5003,-4.51679c-0.91773,-0.54586 -1.54274,-1.47562 -2.30808,-2.22135l-2.8921,-2.24941c-0.59896,-0.45673 -0.98549,-1.17783 -0.98549,-1.9892c0,-1.18975 0.8311,-2.18539 1.9444,-2.43804l3.94927,-0.98732l0.0094,0.03761c0.2511,-0.05276 0.50625,-0.08931 0.76622,-0.10652c7.85864,-0.52029 11.23441,9.68453 17.25976,12.5805c2.20725,1.06087 4.77407,1.14342 7.20596,1.43203c4.63615,0.55021 9.38949,0.98575 13.82224,2.44336l2.22957,0.63457c0,0 2.40381,0.6868 1.71701,3.09061z" fill="#ffbc35" stroke="none" stroke-width="0.5" stroke-linecap="butt"/><path d="M241.01228,168.28751c4.85087,-6.25567 16.50803,-5.33684 26.03703,2.05227c9.52898,7.3891 13.32135,18.4504 8.47049,24.70607c-4.85086,6.25567 -16.50803,5.33683 -26.03703,-2.05228c-9.52899,-7.38911 -13.32135,-18.4504 -8.47049,-24.70607z" fill="#ffb602" stroke="none" stroke-width="0" stroke-linecap="butt"/></g><path d="M225.3447,183.80706c0,2.8556 -3.47155,4.15278 -5.63978,2.52945c-0.22424,-0.16788 -0.41213,-0.39707 -0.53277,-0.64987c-0.97749,-2.04828 -0.30616,-4.53196 -0.3125,-6.80152c-0.00158,-0.5679 0.48737,-2.54275 1.30384,-2.58811c0.39132,-0.25403 0.85815,-0.40157 1.35944,-0.40157c1.22234,0 2.23978,0.87724 2.45711,2.0365c1.40583,1.40756 1.36467,2.43287 1.36467,5.87512z" fill="#000000" stroke="none" stroke-width="0.5" stroke-linecap="butt"/><path d="M209.99679,182.99068c0,2.8556 -3.47155,4.15278 -5.63978,2.52946c-0.22423,-0.16788 -0.41213,-0.39707 -0.53277,-0.64988c-0.9775,-2.04828 -0.30616,-4.53196 -0.3125,-6.80152c-0.00159,-0.5679 0.48737,-2.54275 1.30384,-2.58811c0.39131,-0.25403 0.85815,-0.40156 1.35943,-0.40156c1.22234,0 2.23978,0.87724 2.45711,2.03649c1.40583,1.40756 1.36467,2.43287 1.36467,5.87512z" fill="#000000" stroke="none" stroke-width="0.5" stroke-linecap="butt"/><path d="M196.00031,202.78643c0.01219,-3.84572 0.38062,-7.10075 1.34963,-10.85747c6.89636,-6.35562 17.83805,-6.42649 25.75136,-1.32771c4.0905,2.63563 7.3213,6.78373 6.37998,11.90879c-0.29883,1.62701 -0.44377,3.58037 -1.69274,4.66505c-0.75077,0.65202 -5.99336,0.52948 -7.28853,0.52948c-4.92105,0 -10.13446,0.44129 -15.03289,-0.01605c-2.52659,-0.2359 -4.98875,-0.95686 -7.50921,-1.25107c0,0 -2.48288,-0.2921 -2.19077,-2.77498c0.04023,-0.34199 0.12203,-0.63134 0.23318,-0.87605z" fill="#000000" stroke="none" stroke-width="0.5" stroke-linecap="butt"/><path d="M239.37252,172.05368c0.22415,2.48993 -2.26578,2.71408 -2.26578,2.71408l-3.4818,0.24629c-4.91947,-1.83666 -11.70415,-4.12741 -14.865,-8.63561c-0.63906,-0.91147 -0.5206,-2.16465 -0.7809,-3.24697c0,0 -0.47917,-2.45365 1.97448,-2.93282c2.45365,-0.47917 2.93282,1.97448 2.93282,1.97448c0.45897,4.29455 7.86737,6.38238 11.44643,7.89128l2.32567,-0.27651c0,0 2.48993,-0.22415 2.71408,2.26578z" fill="#000000" stroke="none" stroke-width="0.5" stroke-linecap="butt"/></g></g></svg>