<svg version="1.1" xmlns="http://www.w3.org/2000/svg" xmlns:xlink="http://www.w3.org/1999/xlink" width="480" height="360" viewBox="0,0,480,360"><g data-paper-data="{&quot;isPaintingLayer&quot;:true}" fill-rule="nonzero" stroke-linejoin="miter" stroke-miterlimit="10" stroke-dasharray="" stroke-dashoffset="0" style="mix-blend-mode: normal"><path d="M0,360v-360h480v360z" fill="#ffffff" stroke="none" stroke-width="0" stroke-linecap="butt"/><g><path d="M150.3386,206.86357l46.31455,-39.03717" data-paper-data="{&quot;index&quot;:null}" fill="none" stroke="#383838" stroke-width="3.5" stroke-linecap="round"/><g data-paper-data="{&quot;index&quot;:null}" fill="#393839" stroke="#131313" stroke-width="2.5" stroke-linecap="butt"><path d="M196.36259,168.17382c-1.50727,-3.97376 -1.2224,-7.76666 0.63629,-8.47166c1.85869,-0.70501 4.58735,1.94482 6.09463,5.91858c1.50727,3.97376 1.2224,7.76666 -0.63629,8.47166c-1.85869,0.70501 -4.58735,-1.94482 -6.09463,-5.91858z"/><path d="M200.61789,167.39396c-1.50727,-3.97376 -1.2224,-7.76666 0.63629,-8.47166c1.85869,-0.70501 4.58735,1.94482 6.09463,5.91858c1.50727,3.97376 1.22239,7.76665 -0.63629,8.47166c-1.85869,0.70501 -4.58735,-1.94482 -6.09463,-5.91857z"/><path d="M204.2009,165.54162c-1.50727,-3.97376 -1.2224,-7.76666 0.63629,-8.47166c1.85869,-0.70501 4.58736,1.94483 6.09463,5.91858c1.50727,3.97376 1.22239,7.76665 -0.63629,8.47166c-1.85869,0.70501 -4.58735,-1.94482 -6.09463,-5.91858z"/><path d="M194.54191,163.60351c-1.09327,-1.66029 0.89796,-4.901 4.44755,-7.23832c3.54958,-2.33732 7.31335,-2.88618 8.40663,-1.22589c1.09327,1.66029 -0.89798,4.90099 -4.44755,7.23832c-3.54958,2.33732 -7.31335,2.88618 -8.40662,1.22589z" data-paper-data="{&quot;index&quot;:null}"/></g></g><path d="M148.11523,270.8563c0,0 22.81651,13.97503 19.962,21.40196c-2.93219,7.62907 -14.22338,24.04731 -14.22338,24.04731" fill="none" stroke="#000000" stroke-width="3.5" stroke-linecap="round"/><path d="M107.98177,271.52241c0,0 12.80669,9.16506 12.76528,17.24146c-0.04133,8.05894 -12.02289,28.85324 -12.02289,28.85324" fill="none" stroke="#000000" stroke-width="3.5" stroke-linecap="round"/><g data-paper-data="{&quot;index&quot;:null}" stroke="#121312" stroke-width="3.5" stroke-linecap="butt"><path d="M91.93498,339.71004l7.11521,-20.92921l15.00527,5.93745c0,0 -3.73753,7.07933 -4.96637,10.33015c-0.34341,0.90852 2.44808,2.18864 4.40687,3.39843c1.38026,0.85248 2.19031,1.61466 1.88251,2.42894c-0.81838,2.16496 -3.06649,6.0061 -3.06649,6.0061z" fill="#383838"/><path d="M115.12374,324.80017c-0.63019,1.66714 -4.83163,1.62356 -9.38417,-0.09733c-4.55257,-1.72089 -7.73226,-4.46742 -7.10208,-6.13458c0.31051,-0.82145 1.03484,-5.64497 2.69423,-5.63974c1.70835,0.00537 4.73168,3.93535 7.04106,4.80829c4.55257,1.72089 7.38116,5.39622 6.75098,7.06337z" fill="#979025"/></g><g stroke="#121312" stroke-width="3.5" stroke-linecap="butt"><path d="M143.65738,336.97922l3.67106,-21.79865l15.76257,3.45735c0,0 -2.55537,7.58658 -3.24763,10.99226c-0.3298,1.62247 7.56104,2.68107 7.14156,4.74474c-0.46104,2.26809 -2.06486,6.41973 -2.06486,6.41973z" fill="#383838"/><path d="M164.15857,318.54763c-0.35502,1.74655 -4.50918,2.37649 -9.2786,1.40701c-4.76941,-0.96947 -8.34801,-3.17125 -7.99298,-4.91779c0.17493,-0.86058 0.1173,-5.73784 1.75611,-5.99848c1.68715,-0.26832 5.30093,3.12662 7.72029,3.61841c4.76941,0.96947 8.1502,4.1443 7.7952,5.89084z" fill="#979025"/></g><g stroke="none" stroke-width="0" stroke-linecap="butt"><path d="M99.39378,271.07497v-75.71215h54.11557v75.71215z" fill="#000000"/><path d="M99.31048,262.47486v-7.94357h54.11557v7.94357z" fill="#a17f00"/><g fill="#ca9e00"><path d="M120.9487,262.47291v-13.15654h3.55972v13.15654z"/><path d="M121.68553,262.58367v-7.4471h10.35556v7.4471z"/><path d="M129.20076,259.99054v-11.17064h2.9125v11.17064z"/><path d="M129.56559,258.29812v-2.99056h15.66664l-1.94931,6.42416c0,0 -0.76046,-4.3794 -3.0715,-3.63567c-2.49998,0.80454 -2.79143,2.86034 -4.29254,2.86034c-0.54892,0 -0.41234,-2.12841 -1.26289,-2.47016c-0.8012,-0.32192 -1.08222,2.35813 -1.98558,2.36495c-1.29357,0.00976 -3.10482,-2.55307 -3.10482,-2.55307z"/><path d="M121.09238,260.81155c-0.90336,-0.00682 -1.18438,-2.68686 -1.98558,-2.36495c-0.85055,0.34175 -0.71397,2.47015 -1.26289,2.47015c-1.50111,0 -1.79256,-2.0558 -4.29255,-2.86034c-2.31104,-0.74373 -3.0715,3.63567 -3.0715,3.63567l-1.9493,-6.42416h15.66664v2.99056c0,0 -1.81125,2.56284 -3.10482,2.55307z" data-paper-data="{&quot;index&quot;:null}"/></g><g fill="#ca9e00"><path d="M119.70781,221.22479l0.11076,-21.46363h4.02574l0.11076,21.46363z"/><path d="M120.58695,221.39616v-11.52228h12.35568v11.52228z"/><path d="M129.55372,217.38403v-17.28342h3.47503v17.28342z"/><path d="M129.98899,214.7655v-4.62705h18.69257l-2.3258,9.93957c0,0 -0.90734,-6.77588 -3.66474,-5.62516c-2.98284,1.24479 -3.33059,4.42557 -5.12163,4.42557c-0.65494,0 -0.49198,-3.29312 -1.50681,-3.82187c-0.95594,-0.49807 -1.29124,3.64855 -2.36908,3.6591c-1.54342,0.01511 -3.70451,-3.95015 -3.70451,-3.95015z"/><path d="M119.87924,218.65431c-1.07784,-0.01055 -1.41314,-4.15716 -2.36908,-3.65909c-1.01483,0.52875 -0.85187,3.82187 -1.50681,3.82187c-1.79104,0 -2.13878,-3.18077 -5.12163,-4.42556c-2.7574,-1.15071 -3.66474,5.62516 -3.66474,5.62516l-2.3258,-9.93957h18.69257v4.62704c0,0 -2.16109,3.96526 -3.70451,3.95015z" data-paper-data="{&quot;index&quot;:null}"/></g></g><g stroke="none" stroke-linecap="butt"><path d="M168.56372,153.63151c0,21.62627 -17.96444,39.15784 -40.12469,39.15784c-22.16026,0 -40.12469,-17.53156 -40.12469,-39.15784c0,-21.62627 17.96444,-39.15783 40.12469,-39.15783c22.16026,0 40.12469,17.53155 40.12469,39.15783z" fill="#000000" stroke-width="0"/><path d="M149.54881,146.38006l0.64458,-38.02983l10.31318,-23.52693v61.55676z" fill="#000000" stroke-width="0"/><path d="M95.45045,148.03727v-61.55675l10.31318,23.52693l0.64457,38.02982z" data-paper-data="{&quot;index&quot;:null}" fill="#000000" stroke-width="0"/><path d="M111.51899,184.73217l-7.09031,-21.27092h51.24359l-8.37945,20.30406z" fill="#d9b796" stroke-width="0"/><path d="M111.84128,154.27608c0,2.7589 -4.32878,4.99544 -9.6686,4.99544c-5.33982,0 -9.6686,-2.23654 -9.6686,-4.99544c0,-2.7589 4.32878,-4.99544 9.6686,-4.99544c5.33982,0 9.6686,2.23654 9.6686,4.99544z" fill="#ffffff" stroke-width="0"/><path d="M163.13063,155.28873c0,2.7589 -4.32878,4.99544 -9.6686,4.99544c-5.33982,0 -9.6686,-2.23654 -9.6686,-4.99544c0,-2.7589 4.32878,-4.99545 9.6686,-4.99545c5.33982,0 9.6686,2.23654 9.6686,4.99545z" fill="#ffffff" stroke-width="0"/><path d="M143.5887,173.76624c0,1.25 -1.25,1.25 -1.25,1.25h-1.24118c-8.05477,0 -16.04077,0.49648 -24.07895,0.49648c0,0 -1.25,0 -1.25,-1.25c0,-1.25 1.25,-1.25 1.25,-1.25c8.03765,0 16.02432,-0.49648 24.07895,-0.49648h1.24118c0,0 1.25,0 1.25,1.25z" fill="#000000" stroke-width="0.5"/><path d="M143.41222,177.70579c-0.46424,-1.1606 0.69636,-1.62484 0.69636,-1.62484l1.07607,-0.41588c1.73066,-1.40051 3.14702,-3.4221 0.90224,-5.34532c-0.51696,-0.44291 -2.43233,0.08592 -3.00658,0.20396c0,0 -1.22573,0.24515 -1.47087,-0.98058c-0.24515,-1.22573 0.98058,-1.47087 0.98058,-1.47087c1.41538,-0.27663 3.63322,-0.72468 4.93699,0.20396c1.66902,1.18879 2.86113,4.65217 1.89704,6.52577c-0.72393,1.40686 -1.80953,2.0934 -2.9807,3.0231l-1.40629,0.57707c0,0 -1.1606,0.46424 -1.62484,-0.69636z" fill="#000000" stroke-width="0.5"/><path d="M118.51681,178.2345c0,1.25 -1.25,1.25 -1.25,1.25l-1.23809,-0.02427c-6.01717,-1.22719 -7.03908,-9.42784 -0.49648,-10.8915c0,0 1.22573,-0.24515 1.47087,0.98058c0.24514,1.22573 -0.98058,1.47087 -0.98058,1.47087c-4.067,0.66005 -2.77793,5.34918 0.49648,5.9886l0.7478,-0.02427c0,0 1.25,0 1.25,1.25z" fill="#000000" stroke-width="0.5"/><path d="M136.02371,168.44421c-2.48264,2.33632 -5.88291,1.61028 -9.03295,1.09382c0,0 -1.23299,-0.2055 -1.02749,-1.43849c0.2055,-1.23299 1.43849,-1.02749 1.43849,-1.02749c2.02027,0.343 5.35568,1.26555 6.85419,-0.3956l0.56579,-0.77323c-0.49478,-2.21682 -1.52111,-4.2585 -1.90785,-6.57743c0,0 -0.20549,-1.23299 1.0275,-1.43849c1.23299,-0.2055 1.43849,1.02749 1.43849,1.02749c0.40843,2.45227 1.48298,4.52858 1.97863,6.91098l0.02427,0.49338c0,0 0.00001,0.72744 -0.55493,1.07245z" fill="#000000" stroke-width="0.5"/></g><g><path d="M101.31408,196.75281l40.35655,45.16952" fill="none" stroke="#383838" stroke-width="3.5" stroke-linecap="round"/><g fill="#393839" stroke="#131313" stroke-width="2.5" stroke-linecap="butt"><path d="M148.29913,236.536c1.7409,0.9597 1.4889,4.75492 -0.56289,8.47687c-2.05179,3.72193 -5.12637,5.96117 -6.86726,5.00147c-1.7409,-0.9597 -1.4889,-4.75492 0.56289,-8.47687c2.05179,-3.72193 5.12637,-5.96117 6.86726,-5.00147z"/><path d="M152.40222,237.90726c1.7409,0.9597 1.4889,4.75493 -0.56289,8.47687c-2.05179,3.72193 -5.12637,5.96118 -6.86727,5.00148c-1.7409,-0.9597 -1.48889,-4.75494 0.56289,-8.47688c2.05179,-3.72193 5.12637,-5.96116 6.86726,-5.00147z"/><path d="M155.68872,240.24565c1.7409,0.9597 1.4889,4.75493 -0.56289,8.47687c-2.05179,3.72193 -5.12637,5.96117 -6.86726,5.00147c-1.7409,-0.9597 -1.4889,-4.75492 0.56289,-8.47687c2.05179,-3.72193 5.12637,-5.96116 6.86726,-5.00147z"/><path d="M147.13606,248.20325c3.18511,2.81384 4.7002,6.30264 3.38405,7.79244c-1.31615,1.4898 -4.96514,0.41647 -8.15026,-2.39737c-3.18511,-2.81384 -4.70019,-6.30263 -3.38405,-7.79244c1.31615,-1.4898 4.96515,-0.41648 8.15026,2.39736z" data-paper-data="{&quot;index&quot;:null}"/></g></g></g></svg>