<svg version="1.1" xmlns="http://www.w3.org/2000/svg" xmlns:xlink="http://www.w3.org/1999/xlink" width="488.16667" height="368.16667" viewBox="0,0,488.16667,368.16667"><g transform="translate(4.08334,4.08334)"><g data-paper-data="{&quot;isPaintingLayer&quot;:true}" fill-rule="nonzero" stroke-linecap="butt" stroke-linejoin="miter" stroke-miterlimit="10" stroke-dasharray="" stroke-dashoffset="0" style="mix-blend-mode: normal"><path d="M-0.33333,360.33333v-360.66666h480.66667v360.66667z" fill="#ffffff" stroke="#ffffff" stroke-width="7.5"/><path d="M129.01565,360.17362v-107h39v107z" fill="#00fbc1" stroke="none" stroke-width="0"/><g><path d="M225.93732,213.97932c-3.91634,42.62252 -39.12004,74.23196 -78.62968,70.60165c-39.50964,-3.63031 -68.36372,-41.12564 -64.44738,-83.74816c3.91634,-42.62252 39.12006,-74.23195 78.6297,-70.60164c39.50964,3.63031 68.36372,41.12565 64.44738,83.74816z" fill="#000000" stroke="#ffffff" stroke-width="0"/><path d="M231.23985,116.05372c-2.55193,27.77339 -33.60011,47.62541 -69.34803,44.34074c-35.74792,-3.28467 -62.65858,-28.4622 -60.10665,-56.23559c2.55193,-27.77339 33.6001,-47.62541 69.34803,-44.34074c35.74793,3.28467 62.65859,28.4622 60.10665,56.23559z" fill="#ff0000" stroke="#ffffff" stroke-width="0"/><path d="M94.71163,166.02697c-0.53458,-2.44218 1.9076,-2.97675 1.9076,-2.97675l0.4368,0.19156c2.26324,-1.85955 4.8512,-3.52081 7.62196,-4.96218c-0.42624,-8.04481 -0.48964,-16.18441 -0.12328,-24.11949c0.04063,-0.87983 0.96003,-10.61973 1.20023,-11.01506c0.98388,-1.61932 2.89849,-3.50552 4.75314,-3.11764c2.14717,0.44905 2.7663,3.41059 4.27261,5.00527c4.26066,4.51057 8.30842,9.12523 12.30087,13.92561c1.57326,1.89163 2.93781,3.9764 4.7104,5.68265c2.72235,2.62046 5.99353,3.54016 5.09555,8.83712c-0.7573,4.46712 -7.01317,3.85047 -9.55048,3.93499c-5.61595,0.18707 -11.79627,1.50451 -17.38079,3.8656c0.11169,2.35941 0.26267,4.72036 0.46883,7.0862c0.13391,1.53693 0.11069,3.10357 0.46693,4.60462c0.36291,1.52916 1.44325,2.85356 1.67209,4.40845c0.22205,1.50871 -0.23464,3.04087 -0.35195,4.56131c0,0 -0.22874,2.48951 -2.71826,2.26076c-2.48951,-0.22874 -2.26077,-2.71826 -2.26077,-2.71826c0.50608,-4.53437 -1.35689,-8.01782 -1.78789,-12.66861c-0.15583,-1.68151 -0.29658,-3.37328 -0.42158,-5.07242c-1.71133,1.00212 -3.31597,2.11831 -4.77037,3.3453l-2.56485,0.8486c0,0 -2.44218,0.53458 -2.97675,-1.9076z" fill="#000000" stroke="none" stroke-width="0.5"/><path d="M295.98089,154.6393c-1.01067,10.99936 -30.80939,17.25335 -66.55731,13.96868c-35.74792,-3.28467 -63.90803,-14.86417 -62.89736,-25.86352c1.01067,-10.99936 30.80939,-17.25335 66.55731,-13.96868c35.74792,3.28467 63.90803,14.86417 62.89736,25.86352z" fill="#ff0000" stroke="#ffffff" stroke-width="0"/><path d="M212.37437,244.8679c-2.48952,-0.22875 -2.26076,-2.71826 -2.26076,-2.71826l0.18299,-1.99161c0.16173,-1.51637 -0.00636,-3.1055 0.48515,-4.54907c0.48046,-1.41116 1.85864,-2.39549 2.3576,-3.80022c0.40246,-1.13304 0.08832,-2.40847 0.26994,-3.59708c0.76706,-5.01989 2.5638,-9.73254 3.30509,-14.73708c-1.24202,-0.63084 -2.47346,-1.26556 -3.67833,-1.91841c-6.84553,-3.70917 -13.57907,-7.65996 -20.24527,-11.68322c-5.23695,-3.16067 -10.56375,-6.15373 -15.81854,-9.28411c-4.41947,-2.63276 -7.77274,-4.97813 -12.7354,-6.42866c0,0 -2.3963,-0.71255 -1.68377,-3.10884c0.71254,-2.3963 3.10884,-1.68377 3.10884,-1.68377c5.35753,1.61687 9.09914,4.08406 13.86927,6.92573c5.26301,3.13528 10.59817,6.13312 15.84325,9.29891c7.93558,4.78972 15.98546,9.36383 24.13101,13.78224c0.04781,0.00244 0.09652,0.00591 0.14611,0.01047c0.99931,0.09182 1.56063,0.54792 1.87457,1.06105c3.26868,1.69043 6.68805,3.30086 9.73007,5.30156c2.74192,1.80331 5.41534,3.72566 8.28128,5.32453c3.86624,2.1618 7.73247,4.32358 11.5987,6.48538l1.00027,-0.12446c0,0 2.48951,0.22874 2.26077,2.71826c-0.22875,2.48952 -2.71826,2.26076 -2.71826,2.26076l-2.98296,-0.49045c-3.86624,-2.1618 -7.73247,-4.32357 -11.59869,-6.48536c-2.94207,-1.64855 -5.70182,-3.60407 -8.51515,-5.46379c-2.28374,-1.50963 -4.73195,-2.85027 -7.21721,-4.13565c-0.8556,4.43459 -2.30032,8.69187 -3.02281,13.19186c-0.23217,1.44605 0.01578,2.98492 -0.46205,4.36936c-0.48635,1.40913 -1.85163,2.398 -2.35761,3.80022c-0.38765,1.07428 -0.16456,2.27824 -0.24684,3.41737l-0.183,1.99161c0,0 -0.22874,2.48951 -2.71826,2.26076z" fill="#ff0000" stroke="none" stroke-width="0.5"/></g><g><path d="M207.70617,307.09508c0.59417,-0.19295 1.18474,-0.39184 1.77519,-0.5864c-0.33424,-0.43384 -0.49159,-1.02412 -0.58202,-1.66596c-0.0372,-0.0242 -0.07387,-0.04906 -0.11003,-0.07459c-0.03799,0.12164 -0.07836,0.24252 -0.1212,0.36256c-0.24591,0.68915 -0.58521,1.33538 -0.96196,1.9644zM191.21178,304.99685c0.6392,-0.52104 1.13572,-1.26093 1.83947,-1.69969c1.54217,-0.96148 3.59765,-2.04128 5.723,-3.00021c4.71293,-8.14325 7.58507,-17.12682 11.40508,-25.71823c0.62814,-1.4107 1.25628,-2.8214 1.88443,-4.2321l0.06592,-0.07413l-0.02163,-0.0117l1.69677,-3.13733c0.37976,-0.72732 1.10943,-1.25301 1.98721,-1.33419c1.11982,-0.10357 2.13532,0.54824 2.54225,1.53652l1.98807,4.52487c3.58722,6.09769 4.50657,13.41165 5.98933,20.22692c0.25731,-0.11587 0.56376,-0.19815 0.92865,-0.2319c2.48938,-0.23023 2.71961,2.25914 2.71961,2.25914l-1.93407,3.45914c0.76035,1.62093 1.20426,2.93133 -0.91012,5.53379c-1.22254,1.50474 -3.28258,2.214 -5.17084,3.05698c-0.11745,0.38036 -0.27957,0.78129 -0.49099,1.20307c-0.27653,0.55168 -2.4367,1.39762 -4.80026,2.18494c-1.45458,1.00566 -2.95303,1.93277 -4.59476,2.55528c-7.62036,2.88948 -16.52825,3.16506 -24.9,3.63793c-3.26071,0.38141 -6.64848,0.51697 -9.85573,0.8136c-3.31917,0.30698 -6.63307,0.67744 -9.9575,0.92094c-1.64903,0.12079 -3.47075,0.99932 -4.95317,0.26699c-7.73764,-3.82246 -3.14758,-5.67704 0.89582,-7.65992c0.91849,-0.45042 3.00649,-1.1312 5.06976,-1.76055c-5.01323,-2.58347 -9.15296,-6.46178 -14.13921,-9.13522c0,0 -2.199,-1.18929 -1.00971,-3.38829c1.18929,-2.199 3.38829,-1.00971 3.38829,-1.00971c5.00658,2.7282 9.44208,6.90427 14.62125,9.45024c0.27426,-0.13972 0.5791,-0.23079 0.90426,-0.26087c0.68743,-0.06358 1.33554,0.1575 1.82768,0.56633l1.59543,1.3253c0.41071,0.10559 0.82716,0.19832 1.24985,0.27701c2.36837,0.14257 6.23088,-0.25955 7.53209,-0.35203c2.48572,-0.17668 4.68472,-0.38174 6.88378,-0.79294zM212.88958,295.64394c0.19649,-0.20014 0.35415,-0.44759 0.47795,-0.75707c-0.05249,-0.3826 -0.10858,-0.76632 -0.16686,-1.15014c-0.10177,0.46843 -0.19012,0.93917 -0.26198,1.41285c-0.02498,0.16461 -0.04089,0.32941 -0.04911,0.49435zM218.82878,293.79151c-0.06091,0.50209 -0.15648,0.98836 -0.28647,1.45586c0.30651,-0.11937 0.61378,-0.23626 0.92186,-0.35028c-0.2303,-0.35985 -0.44096,-0.72873 -0.63538,-1.10558zM199.87196,308.15456c-0.08197,0.11835 -0.16526,0.23537 -0.25012,0.35092c0.18106,-0.00826 0.36214,-0.01631 0.54316,-0.02459l0.11086,-0.47446c-0.13402,0.05032 -0.26866,0.09968 -0.40389,0.14813zM216.10836,273.70214l-0.0849,0.0373c-0.1864,0.41955 -0.3728,0.83912 -0.5592,1.25867c0.4383,0.10921 0.83444,0.33505 1.14989,0.64552c-0.20579,-0.63118 -0.38062,-1.27236 -0.50579,-1.94148z" fill="#00fbc1" stroke="none" stroke-width="0.5"/><path d="M261.94825,285.12072c1.67845,18.14795 -10.59825,34.12104 -27.42079,35.6769c-16.82253,1.55586 -31.82054,-11.89467 -33.49899,-30.04262c-1.67845,-18.14795 10.59826,-34.12104 27.4208,-35.6769c16.82253,-1.55586 31.82053,11.89468 33.49898,30.04262z" fill="#000000" stroke="#ffffff" stroke-width="0"/></g><text transform="translate(152.01564,38.17362) scale(0.5,0.5)" font-size="40" xml:space="preserve" fill="#000000" fill-rule="nonzero" stroke="none" stroke-width="1" stroke-linecap="butt" stroke-linejoin="miter" stroke-miterlimit="10" stroke-dasharray="" stroke-dashoffset="0" font-family="Sans Serif" font-weight="normal" text-anchor="start" style="mix-blend-mode: normal"><tspan x="0" dy="0">I'm The Real Gabe!</tspan></text></g></g></svg>