<svg version="1.1" xmlns="http://www.w3.org/2000/svg" xmlns:xlink="http://www.w3.org/1999/xlink" width="483" height="365" viewBox="0,0,483,365"><g transform="translate(1.5,2.5)"><g data-paper-data="{&quot;isPaintingLayer&quot;:true}" fill-rule="nonzero" stroke-linejoin="miter" stroke-miterlimit="10" stroke-dasharray="" stroke-dashoffset="0" style="mix-blend-mode: normal"><path d="M-1.5,362.5v-365h483v365z" fill="#59ff00" stroke="none" stroke-width="0" stroke-linecap="butt"/><path d="M173.89464,164.82616l29.46841,-20.10992l18.71853,10.71158l-1.08281,-8.82979l74.52732,-50.90989l22.88402,13.72303l1.60696,11.38924l47.84681,45.27647l9.87755,55.93302l-0.37661,2.11483l-38.32346,25.84789l-5.41178,-1.55365c0,0 -26.05937,17.85422 -25.99073,17.9448c1.24262,1.63947 -19.07508,-9.23684 -19.07508,-9.23684l4.53583,35.76656l-29.08647,20.02441l-73.90759,-42.88006z" fill="#c0c7c8" stroke="#000000" stroke-width="0" stroke-linecap="butt"/><path d="M241.01157,230.41655l21.45978,-9.53768v-22.22894l44.93145,-43.4919l-0.08675,31.5892l-18.32044,10.77473l29.9527,15.27421l-62.5204,30.61161h-14.13845l-81.32841,-40.46964l10.76598,-6.22607z" fill="#87888f" stroke="#000000" stroke-width="0" stroke-linecap="round"/><path d="M167.47877,194.76186l-19.48719,9.22091" fill="none" stroke="#ffffff" stroke-width="1.5" stroke-linecap="round"/><path d="M314.78134,165.13904l53.9291,-7.0002l0.95711,1.86604l-16.2195,42.89724l-63.58652,25.73802l-8.06397,20.99009l-23.37788,1.0772l-1.71663,-2.0596l-58.7935,-64.48374l0.98065,-2.51204l61.12266,65.8199l30.39763,-79.45694z" fill="#87888f" stroke="#ff0000" stroke-width="0" stroke-linecap="round"/><path d="M243.25609,286.3672v-33.97107l77.9221,-38.02983v33.97105z" fill="#87888f" stroke="none" stroke-width="0" stroke-linecap="butt"/><path d="M171.41043,178.73576l-0.12052,-56.15231l58.50161,28.19145l0.1607,56.41779z" fill="#005aff" stroke="#000000" stroke-width="0" stroke-linecap="butt"/><path d="M310.16317,103.75252l1.50215,1.50214v46.2661l-4.20601,3.60514v31.84548l-18.62659,10.51501l32.44636,16.22319v34.84977l-77.51074,37.85408l-95.70791,-46.38211" fill="none" stroke="#000000" stroke-width="1.5" stroke-linecap="round"/><path d="M306.8585,155.42633l-44.46351,43.56222v-69.69957" fill="none" stroke="#000000" stroke-width="1.5" stroke-linecap="round"/><path d="M262.37481,197.18597v23.73389l-21.6309,9.61372l-81.19958,-39.77132" fill="none" stroke="#000000" stroke-width="1.5" stroke-linecap="round"/><path d="M148.07093,239.98563v-35.47399l94.33475,47.1674" fill="none" stroke="#ffffff" stroke-width="1.5" stroke-linecap="round"/><path d="M290.4844,262.72126v-89.35482l80.63084,40.20555" fill="none" stroke="#ffffff" stroke-width="1.5" stroke-linecap="round"/><path d="M159.51343,100.6287l24.13819,-11.12621l78.81186,39.77711" fill="none" stroke="#ffffff" stroke-width="1.5" stroke-linecap="round"/><path d="M193.84413,94.43133l64.9458,-14.15644l51.16358,23.28847" fill="none" stroke="#ffffff" stroke-width="1.5" stroke-linecap="round"/><path d="M230.14794,257.75733l-26.04291,-12.05926z" fill="none" stroke="#ffffff" stroke-width="1.5" stroke-linecap="round"/><path d="M230.10598,256.26745l-26.04291,-12.05926z" fill="none" stroke="#87888f" stroke-width="1.5" stroke-linecap="round"/><path d="M229.91359,150.92418v56.30865l-58.72326,-28.54035" fill="none" stroke="#ffffff" stroke-width="1.5" stroke-linecap="round"/><path d="M171.22038,178.72774v-56.24962l58.69319,28.25156" fill="none" stroke="#87888f" stroke-width="1.5" stroke-linecap="round"/><g stroke="none" stroke-width="0" stroke-linecap="butt"><path d="M219.34399,211.73822v-6.54604l5.17594,2.74021v6.54604z" data-paper-data="{&quot;origPos&quot;:null}" fill="#000000"/><path d="M219.34295,208.85796v-3.67643l5.17595,2.74021v3.67643z" data-paper-data="{&quot;origPos&quot;:null}" fill="#414141"/></g><g fill="#ff0000" stroke="none" stroke-width="0" stroke-linecap="butt"><path d="M157.39093,230.97333v-6.8093l5.3841,2.85041v6.8093z" data-paper-data="{&quot;origPos&quot;:null}"/><path d="M157.3899,227.97724v-3.8243l5.3841,2.85041v3.8243z" data-paper-data="{&quot;origPos&quot;:null}"/></g><path d="M201.80766,249.22511v-7.42203h2.71104v7.42203z" fill="#c0c7c8" stroke="none" stroke-width="0" stroke-linecap="butt"/><path d="M229.54023,259.8915v-5.37764h2.57771v5.37764z" fill="#c0c7c8" stroke="none" stroke-width="0" stroke-linecap="butt"/><path d="M215.11498,152.84588c-1.76777,1.76777 -3.53553,0 -3.53553,0l-1.23223,-1.26777c-1.2475,-2.07433 -3.22794,-1.68593 -5.52414,-2.7194c-2.52842,-1.13799 -5.01148,-2.58052 -7.68823,-3.38424c-5.29137,-1.5888 -11.02693,-2.1304 -16.39397,-3.471c0,0 -2.42536,-0.60634 -1.81902,-3.0317c0.60634,-2.42536 3.0317,-1.81902 3.0317,-1.81902c5.44251,1.36184 11.23751,1.91962 16.60603,3.529c2.89181,0.86691 5.5878,2.36396 8.31177,3.61576c1.68522,0.77444 3.74832,0.66326 5.30879,1.66558c0.95252,0.61182 1.44471,1.74334 2.16707,2.61502l0.76777,0.73223c0,0 1.76777,1.76777 0,3.53553z" fill="#ffffff" stroke="none" stroke-width="0.5" stroke-linecap="butt"/><path d="M191.84721,161.07812c-1.49874,0 -2.099,-0.89849 -2.3394,-1.61819c-3.60525,-2.60708 -7.2468,-4.62982 -11.27864,-6.64574c0,0 -2.23607,-1.11803 -1.11803,-3.3541c1.11803,-2.23607 3.3541,-1.11803 3.3541,-1.11803c4.60579,2.3029 8.7645,4.64797 12.88197,7.73607l1,2.5c0,0 0,2.5 -2.5,2.5z" fill="#ffffff" stroke="none" stroke-width="0.5" stroke-linecap="butt"/><path d="M218.46525,171.81419c-2.23607,1.11803 -3.3541,-1.11803 -3.3541,-1.11803l0.23607,-0.11803c-1.13748,-0.91103 -2.68869,-1.12586 -4.02042,-1.71773c-0.76,-0.33778 -1.21983,-1.19748 -1.99535,-1.49792c-2.62334,-1.01631 -5.55266,-0.91207 -8.33778,-1.30947c0,0 -2.47487,-0.35355 -2.12132,-2.82843c0.35355,-2.47487 2.82843,-2.12132 2.82843,-2.12132c6.05948,0.86665 11.71015,1.92677 16.64645,5.47487l1.23607,1.88197c0,0 1.11803,2.23607 -1.11803,3.3541z" fill="#ffffff" stroke="none" stroke-width="0.5" stroke-linecap="butt"/><path d="M216.61498,176.84588c-1.76777,1.76777 -3.53553,0 -3.53553,0l-0.23223,-0.26777c-3.79988,-3.04339 -12.34463,-4.21977 -17.13825,-4.50383c-1.88126,-0.11148 -3.81359,0.28863 -5.65232,-0.12447c-0.9642,-0.21662 -1.56831,-1.2161 -2.43424,-1.6923c-2.97748,-1.6374 -6.54175,-3.10519 -9.70366,-4.35822c0,0 -2.32119,-0.92848 -1.39272,-3.24967c0.92848,-2.32119 3.24967,-1.39272 3.24967,-1.39272c3.32965,1.34254 7.16546,2.88367 10.29634,4.64178c0.59292,0.33295 0.89897,1.17428 1.56576,1.3077c1.42164,0.28446 2.89936,-0.19046 4.34768,-0.12447c6.01701,0.27415 14.94881,1.96486 19.86175,5.49617l0.76777,0.73223c0,0 1.76777,1.76777 0,3.53553z" fill="#ffffff" stroke="none" stroke-width="0.5" stroke-linecap="butt"/><path d="M213.79867,185.06841c-0.49029,2.45145 -2.94174,1.96116 -2.94174,1.96116l-2.43179,-0.48734c-0.92564,-0.13202 -5.78591,-0.79255 -6.75155,-1.05658c-3.08817,-0.84438 -5.58102,-2.88252 -8.34679,-4.12527c-1.68106,-0.75535 -3.60644,-0.80781 -5.33947,-1.4348c-4.02243,-1.45527 -8.01011,-3.00387 -12.01791,-4.50664c0,0 -2.34082,-0.87781 -1.46301,-3.21863c0.87781,-2.34082 3.21863,-1.46301 3.21863,-1.46301c3.99647,1.49883 7.97593,3.02856 11.98209,4.49336c1.8386,0.67226 3.86914,0.77569 5.66053,1.5652c0.84059,0.37047 1.42489,1.17724 2.23087,1.61795c3.75023,2.05063 7.51386,2.60542 11.67079,3.2002l2.56821,0.51266c0,0 2.45145,0.49029 1.96116,2.94174z" fill="#ffffff" stroke="none" stroke-width="0.5" stroke-linecap="butt"/></g></g></svg>