<svg version="1.1" xmlns="http://www.w3.org/2000/svg" xmlns:xlink="http://www.w3.org/1999/xlink" width="480" height="360" viewBox="0,0,480,360"><g data-paper-data="{&quot;isPaintingLayer&quot;:true}" fill-rule="nonzero" stroke-linejoin="miter" stroke-miterlimit="10" stroke-dasharray="" stroke-dashoffset="0" style="mix-blend-mode: normal"><path d="M0,360v-360h480v360z" fill="#ffffff" stroke="none" stroke-width="0" stroke-linecap="butt"/><path d="M295.92099,283.14953l-0.86413,-60.90559" data-paper-data="{&quot;index&quot;:null}" fill="none" stroke="#000000" stroke-width="3.5" stroke-linecap="round"/><g data-paper-data="{&quot;index&quot;:null}" stroke="#2c0050" stroke-width="3.5" stroke-linecap="butt"><path d="M283.83282,318.85018c0,0 -1.06889,-5.42603 -1.24099,-8.32477c-0.15657,-2.63748 7.80474,-2.70987 7.68165,-4.78348c-0.25841,-4.3526 -1.83922,-14.20867 -1.83922,-14.20867l16.07225,-1.81761l0.90003,27.73964z" fill="#500190"/><path d="M287.37393,290.80386c-0.13252,-2.23218 3.63322,-5.20545 8.48671,-5.65993c2.46202,-0.23054 6.47413,-3.88959 8.11413,-3.28874c1.59301,0.58362 0.92239,6.65126 0.98767,7.75113c0.13252,2.23218 -3.69457,4.41013 -8.54806,4.86462c-4.85347,0.45446 -8.89542,-0.98663 -9.02793,-3.21881z" fill="#979025"/></g><path d="M325.41896,268.04476c0,0 -7.67487,-18.68666 -7.53798,-27.63876c0.14035,-9.17875 13.08645,-18.13704 13.08645,-18.13704" data-paper-data="{&quot;index&quot;:null}" fill="none" stroke="#000000" stroke-width="3.5" stroke-linecap="round"/><g data-paper-data="{&quot;index&quot;:null}" stroke="#2c0050" stroke-width="3.5" stroke-linecap="butt"><path d="M326.18584,301.83555c0,0 -2.68474,-3.98259 -3.75234,-6.28655c-0.97136,-2.09632 6.32318,-5.67521 5.55949,-7.32335c-1.60305,-3.45953 -6.14815,-10.85315 -6.14815,-10.85315l14.20179,-8.59741l9.53004,22.37813z" fill="#500190"/><path d="M320.64149,277.24231c-0.8221,-1.77417 1.70619,-5.88014 6.02445,-8.39887c2.19052,-1.27766 4.7301,-6.05561 6.42593,-6.28725c1.64723,-0.22504 2.93448,5.05335 3.33955,5.92755c0.8221,1.77417 -2.01209,5.25425 -6.33036,7.77298c-4.31825,2.51871 -8.48533,3.12229 -9.30744,1.34812z" fill="#979025"/></g><g data-paper-data="{&quot;index&quot;:null}"><path d="M248.64197,86.64827l40.6477,50.76841" data-paper-data="{&quot;index&quot;:null}" fill="none" stroke="#000000" stroke-width="3.5" stroke-linecap="round"/><g data-paper-data="{&quot;index&quot;:null}" fill="#500190" stroke="#2c0050" stroke-width="2.5" stroke-linecap="butt"><path d="M242.0161,92.93876c-1.74956,-1.06039 -1.51181,-5.40133 0.53105,-9.69578c2.04286,-4.29444 5.11722,-6.91614 6.86678,-5.85574c1.74956,1.06039 1.51181,5.40133 -0.53103,9.69577c-2.04286,4.29444 -5.11722,6.91612 -6.86679,5.85574z"/><path d="M244.76286,85.60128c-2.04286,4.29443 -5.11721,6.91611 -6.86678,5.85573c-1.74956,-1.0604 -1.51181,-5.40132 0.53104,-9.69577c2.04286,-4.29444 5.11722,-6.91614 6.86678,-5.85574c1.74956,1.06039 1.51181,5.40133 -0.53103,9.69577z"/><path d="M234.59118,88.85353c-1.74956,-1.0604 -1.51181,-5.40133 0.53105,-9.69577c2.04284,-4.29443 5.11722,-6.91614 6.86678,-5.85574c1.74956,1.06039 1.51181,5.40133 -0.53104,9.69577c-2.04286,4.29444 -5.11722,6.91611 -6.86679,5.85574z"/><path d="M251.31896,82.15611c-1.31396,1.72919 -4.97742,0.57842 -8.18254,-2.57032c-3.20513,-3.14875 -4.73822,-7.10311 -3.42427,-8.8323c1.31396,-1.72918 4.97742,-0.57842 8.18254,2.57032c3.20514,3.14874 4.73823,7.10311 3.42426,8.8323z" data-paper-data="{&quot;index&quot;:null}"/></g></g><g data-paper-data="{&quot;index&quot;:null}"><path d="M339.0726,139.53511l46.27797,-44.58908" fill="none" stroke="#000000" stroke-width="3.5" stroke-linecap="round"/><g fill="#500190" stroke="#2c0050" stroke-width="2.5" stroke-linecap="butt"><path d="M385.06037,95.34317c-1.51196,-4.55627 -1.23129,-8.90034 0.6269,-9.70277c1.85818,-0.80243 4.59023,2.24065 6.10219,6.79691c1.51196,4.55627 1.23128,8.90034 -0.62691,9.70277c-1.85818,0.80243 -4.59023,-2.24065 -6.10219,-6.79691z"/><path d="M395.41763,101.2586c-1.85818,0.80241 -4.59023,-2.24065 -6.10219,-6.79691c-1.51196,-4.55627 -1.23128,-8.90035 0.6269,-9.70279c1.85818,-0.80243 4.59023,2.24066 6.10219,6.79691c1.51196,4.55625 1.23129,8.90034 -0.6269,9.70278z"/><path d="M392.89694,92.34976c-1.51196,-4.55627 -1.23128,-8.90032 0.6269,-9.70277c1.85818,-0.80243 4.59023,2.24065 6.10219,6.7969c1.51196,4.55625 1.23128,8.90034 -0.62691,9.70277c-1.85818,0.80241 -4.59023,-2.24065 -6.10219,-6.79691z"/><path d="M391.64082,88.72183c-3.54751,2.66758 -7.31126,3.2858 -8.40654,1.38084c-1.09529,-1.90495 0.89261,-5.61172 4.44012,-8.2793c3.54752,-2.66759 7.31125,-3.28582 8.40655,-1.38087c1.0953,1.90493 -0.89261,5.61173 -4.44013,8.27931z" data-paper-data="{&quot;index&quot;:null}"/></g></g><g stroke="none" stroke-linecap="butt"><path d="M286.42778,222.35198l-1.1,-90.44605h54.11557l-0.4,90.55825z" fill="#b78000" stroke-width="0"/><path d="M302.22682,161.85851c-0.56376,-0.68078 0.21225,-1.17535 0.21225,-1.17535l0.10473,-0.06369c3.82966,-2.85438 6.29253,-5.76066 7.54161,-9.67369c-0.81208,0.35031 -1.74867,0.62303 -2.80184,0.81329c-2.39871,0.62714 -8.30139,0.17392 -6.79406,-3.19838c1.46228,-3.27151 6.18147,-5.96234 10.16422,-7.11007c0.02024,-0.07257 0.05298,-0.1494 0.10095,-0.23047c0.44196,-0.74681 1.29324,-0.35909 1.29324,-0.35909l0.33222,0.15411c0.01809,0.00674 0.03616,0.0135 0.0542,0.02026c0.17451,-0.0171 0.68426,-0.02943 0.94619,0.36437c1.76366,0.70119 3.3327,1.46394 4.92482,2.55743c1.28386,1.03859 2.97865,2.02467 3.2099,3.71538c0.29433,2.15184 -2.54225,6.18103 -5.30048,5.40228c1.5159,3.06965 3.14705,6.04787 5.43327,8.83316l0.68685,0.5503c0,0 0.705,0.57056 0.05462,1.18903c-0.65037,0.61847 -1.35537,0.04792 -1.35537,0.04792l-0.81946,-0.66877c-3.38833,-4.06089 -5.39999,-8.54637 -7.61991,-13.13056c0,0 -0.16593,-0.34286 -0.01694,-0.66922c-0.03605,0.04065 -0.07286,0.08091 -0.11043,0.12074c-1.09207,5.29056 -3.9368,9.00711 -8.68038,12.55366l-0.22044,0.14356c0,0 -0.776,0.49457 -1.33976,-0.1862zM310.67666,148.54677c0,0 0.09703,-0.53729 0.62749,-0.67941c0.2994,-0.45516 0.47571,-0.97161 0.53884,-1.55153c-0.19931,-0.84621 -0.65807,-1.84359 -0.2319,-2.31706c-0.01774,-0.06849 -0.03637,-0.13755 -0.05589,-0.20718l0.11354,-0.15551l-0.10272,-0.01428l0.12779,-0.70763c-2.92652,0.71053 -4.68519,2.02531 -7.03479,3.9364c-0.67142,0.54611 -2.65792,1.78535 -2.63863,2.74807c0.01862,0.9291 4.22626,0.69755 4.78099,0.5316c1.7763,-0.31616 3.0444,-0.82586 3.86791,-1.54297c0.00246,-0.01348 0.00491,-0.02696 0.00735,-0.04047zM313.81841,145.80883c0.26386,1.13481 0.56837,2.26412 1.11946,3.3715c0.26526,0.53302 1.32743,2.34826 2.13702,2.4346c0.75862,0.0809 1.03335,-1.02352 1.27032,-1.40426c1.58124,-2.54059 1.10868,-3.03532 -1.28249,-4.97134c-1.15079,-0.79035 -2.28347,-1.38037 -3.5022,-1.90685l-0.07656,0.42398c0.21685,0.72554 0.32682,1.41059 0.33443,2.05236z" fill="#09b800" stroke-width="0.5"/><path d="M285.41666,222.73842v-90.73278h19.6581c-0.3298,8.07691 0.02504,16.15018 -0.4611,24.35433c-1.27895,21.58368 1.3108,44.33873 0.03185,66.50311z" fill="#6900b8" stroke-width="0"/><path d="M320.14045,222.73842c2.49883,-21.7904 2.19968,-42.80018 1.25407,-66.25377c-0.33117,-8.21387 -1.35352,-16.40209 -1.68331,-24.47899h19.6581c0,0 0,39.03692 0,55.43916c0,13.0871 0,35.29362 0,35.29362z" data-paper-data="{&quot;index&quot;:null}" fill="#6900b8" stroke-width="0"/><path d="M320.21628,134.96271l8.88889,-17.70181l7.77778,3.4905c0,0 4.10418,9.03409 3.95115,9.43323c-0.846,2.20651 -20.61782,4.77808 -20.61782,4.77808z" fill="#6900b8" stroke-width="0"/><path d="M283.99821,129.81063c-0.15303,-0.39913 3.95116,-9.43323 3.95116,-9.43323l7.77778,-3.4905l8.88889,17.70179c0,0 -19.77183,-2.57158 -20.61783,-4.77808z" data-paper-data="{&quot;index&quot;:null}" fill="#6900b8" stroke-width="0"/><path d="M292.10515,132.4695l14.77778,-0.49864l-2.11111,90.37892z" fill="#510191" stroke-width="0"/><path d="M320.32737,222.47444l-1.77778,-90.37891l14.77778,0.49864z" data-paper-data="{&quot;index&quot;:null}" fill="#510090" stroke-width="0"/><path d="M292.70709,145.8705c0.0758,-0.37472 0.37449,-0.65445 0.73141,-0.65445c0.00349,0 0.00697,0.00002 0.01045,0.00008l-0.07903,-0.48769c-0.00967,-0.05393 -0.01475,-0.10972 -0.01475,-0.16685c0,-0.46473 0.33578,-0.84146 0.75,-0.84146c0.1178,0 0.22927,0.03047 0.32847,0.08478l0.0372,-0.33389c0.04137,-0.42082 0.35933,-0.74816 0.74544,-0.74816c0.22956,0 0.43505,0.11572 0.57262,0.298l0.66349,0.86848l-0.18901,0.18177c0.14286,0.19552 0.2715,0.39473 0.3895,0.59893l0.03852,-0.43222c0.03359,-0.42985 0.35526,-0.76698 0.7471,-0.76698c0.41422,0 0.75,0.37672 0.75,0.84146v0.39943c0.03366,0.0374 0.06418,0.07835 0.09107,0.12233c0.11169,-0.07409 0.242,-0.11661 0.38116,-0.11661c0.3861,0 0.70407,0.32734 0.74544,0.74815l0.10987,0.98622l-0.28139,0.03947c0.00063,0.01437 0.00117,0.02864 0.00162,0.04286l0.6904,-0.17213c0.05721,-0.01567 0.11698,-0.02398 0.17849,-0.02398c0.41422,0 0.75,0.37672 0.75,0.84146c0,0.02601 -0.00105,0.05173 -0.00311,0.07714l0.84877,0.38092c0.28485,0.11933 0.48768,0.42736 0.48768,0.78855c0,0.42856 -0.28556,0.7823 -0.65485,0.83475l-0.76686,0.12291c-0.27159,0.04352 -0.52943,0.08276 -0.77737,0.11685c0.12688,0.16348 0.23728,0.32403 0.34024,0.5024l0.12945,-0.12103l0.55241,0.74371c0.11042,0.14655 0.17698,0.33603 0.17698,0.54293c0,0.16824 -0.044,0.32492 -0.1198,0.45639c0.51858,1.15748 0.66881,2.35307 -0.0277,2.69755c-0.4326,0.21397 -1.06097,-0.34609 -1.66021,-1.12514c0.04492,0.28157 0.08758,0.56363 0.13362,0.84495l-0.00649,0.03552l0.01019,-0.00115l0.11011,1.23535c0.00312,0.03118 0.00473,0.06287 0.00473,0.09498c0,0.46473 -0.33578,0.84146 -0.75,0.84146c-0.27799,0 -0.52065,-0.16968 -0.65019,-0.42175l-0.65959,-1.23338l0.17168,-0.11557c-0.27084,-0.4142 -0.50878,-0.83668 -0.72625,-1.27755l-0.07662,0.30086c-0.08416,0.36144 -0.37716,0.62817 -0.7257,0.62817c-0.23037,0 -0.43649,-0.11654 -0.57407,-0.29991c-0.91381,1.27141 -2.13227,2.49339 -2.60149,2.97289l-0.0195,0.00781l0.00457,0.00627l-0.66369,0.60937c-0.12995,0.1212 -0.29697,0.1941 -0.47916,0.1941c-0.41422,0 -0.75,-0.37672 -0.75,-0.84146c0,-0.12821 0.02555,-0.24971 0.07126,-0.35846l0.43782,-1.10523l0.04131,0.02059c0.08723,-0.60169 0.18755,-1.19761 0.30427,-1.78862l-1.08909,0.61094c-0.10422,0.06156 -0.22293,0.09641 -0.3489,0.09641c-0.41422,0 -0.75,-0.37672 -0.75,-0.84146c0,-0.18594 0.05375,-0.35779 0.14477,-0.49706l0.55048,-0.86465l0.21885,0.17538c0.45515,-0.74748 1.00886,-1.261 1.65671,-1.81118c-0.12336,-0.14239 -0.24386,-0.29087 -0.3608,-0.4431c-0.17494,0.00311 -0.34854,0.01433 -0.51795,0.04149l-0.05317,-0.02493v0.02704h-0.88889c-0.41422,0 -0.75,-0.37672 -0.75,-0.84146c0,-0.43677 0.29661,-0.79583 0.67617,-0.83743l0.09626,-0.01199l-0.26211,-0.35288c-0.11042,-0.14655 -0.17699,-0.33603 -0.17699,-0.54293c0,-0.13434 0.02806,-0.26132 0.07796,-0.37398c-0.0499,-0.11265 -0.07796,-0.23965 -0.07796,-0.37399c0,-0.46473 0.33578,-0.84146 0.75,-0.84146c0.16573,0 0.31889,0.06031 0.44303,0.16242l0.72087,0.5777c0.0837,0.03959 0.18986,0.08847 0.31336,0.14577c0.05471,-0.04038 0.11442,-0.07293 0.17786,-0.09626zM291.9937,153.51577l-0.00834,0.00182l0.00552,0.0124c0.00094,-0.00474 0.00188,-0.00948 0.00282,-0.01424zM293.7786,153.32673c0.048,-0.0732 0.09563,-0.1466 0.14297,-0.22013c-0.02879,-0.00813 -0.05692,-0.01812 -0.08427,-0.02986c-0.01927,0.08372 -0.03883,0.16712 -0.0587,0.24999z" fill="#a455b8" stroke-width="0.5"/><path d="M291.35515,148.30139c0,-0.84146 0.75,-0.84146 0.75,-0.84146h0.22222c0.27238,0 0.80228,-0.03607 1.35529,-0.03704c0.00401,-0.21251 0.00727,-0.43724 0.0077,-0.6771l0.02643,-0.05602l-0.02078,-0.00334l0.10956,-0.86038c0.04676,-0.41433 0.36204,-0.73471 0.74402,-0.73471c0.3277,0 0.60631,0.23579 0.70839,0.56439l0.00945,0.02827c0.1332,-0.13588 0.31017,-0.21869 0.50438,-0.21869c0.00331,0 0.00662,0.00002 0.00993,0.00006c0.32526,-0.14056 0.71801,-0.05009 1.19504,0.3991c0.11418,0.10751 0.21287,0.21609 0.29731,0.32477c0.13619,-0.21197 0.35814,-0.34995 0.60883,-0.34995c0.41422,0 0.75,0.37672 0.75,0.84146c0,0.03558 -0.00197,0.07065 -0.00579,0.10507l-0.10991,1.10979l-0.06221,-0.00776c-0.00421,0.11577 -0.01708,0.23103 -0.0411,0.34558c0.68698,0.09429 1.2899,0.39477 1.39519,0.89954c0.23785,1.14031 -0.01291,1.63662 -0.40184,1.7753c0.14853,0.05856 0.29669,0.12671 0.44457,0.20537l0.14428,-0.32376l0.87436,0.49048c0.25369,0.13493 0.42912,0.42487 0.42912,0.76078c0,0.46473 -0.33578,0.84146 -0.75,0.84146h-0.77778v-0.04309l-0.09164,0.03678c-0.43764,-0.12523 -1.01374,-0.24047 -1.51053,-0.48627c-0.13502,0.22211 -0.36236,0.36792 -0.62006,0.36792c-0.28758,0 -0.53737,-0.1816 -0.66321,-0.44818c-1.43228,0.23334 -2.75002,0.85308 -4.16769,1.1746l-0.85976,0.24115c-0.06314,0.01937 -0.1296,0.0297 -0.19822,0.0297c-0.41422,0 -0.75,-0.37672 -0.75,-0.84146c0,-0.27879 0.12085,-0.52593 0.30698,-0.67904l0.8819,-0.74209l0.14159,0.21181c0.23368,-0.23069 0.47228,-0.43915 0.71947,-0.63816c-0.10086,-0.14329 -0.16106,-0.3243 -0.16106,-0.52107c0,-0.17681 0.04861,-0.34089 0.13165,-0.47632l0.28483,-0.47934l-0.27519,-0.19297c-0.08375,-0.05661 -0.15682,-0.13104 -0.21506,-0.21864c-0.17518,-0.01772 -0.31929,-0.03515 -0.39845,-0.03515h-0.22222c0,0 -0.75,0 -0.75,-0.84146z" fill="#af5ac4" stroke-width="0.5"/><path d="M298.01676,149.87946c-0.15227,0.39863 -0.40918,0.50375 -0.62242,0.51202c-0.11003,0.18326 -0.28263,0.31529 -0.48346,0.35752c-0.01709,0.21666 -0.03776,0.43294 -0.06149,0.64861c0,0 -0.09303,0.83496 -0.83724,0.73059c-0.56259,-0.0789 -0.64672,-0.5753 -0.65428,-0.81289c-0.20556,-0.10191 -0.36264,-0.30441 -0.42169,-0.55187h-0.60879c-0.41422,0 -0.75,-0.37672 -0.75,-0.84146c0,-0.3186 0.15782,-0.59585 0.39053,-0.7387l0.76514,-0.49053l0.18934,0.37174c0.01298,-0.00726 0.02589,-0.01443 0.03875,-0.02149l0.06525,-0.58559c0.00707,-0.07196 0.02224,-0.14118 0.04444,-0.20652l-0.13364,-0.59976c-0.01726,-0.07084 -0.02648,-0.14541 -0.02648,-0.22239c0,-0.46473 0.33578,-0.84146 0.75,-0.84146c0.20711,0 0.39461,0.09418 0.53033,0.24646l0.66667,0.74796l-0.01899,0.02131l0.06867,0.04022c0.11705,0.34636 0.38175,0.69185 0.51085,1.03812l0.20459,0.0932c0,0 0.68935,0.33146 0.39391,1.10488z" fill="#be62d5" stroke-width="0.5"/></g><g stroke="#000000" stroke-width="0.5" stroke-linecap="butt"><path d="M312.73141,27.26357c22.16025,0 40.12469,20.08597 40.12469,44.86324c0,24.7773 -17.96443,44.86326 -40.12469,44.86326c-22.16025,0 -40.12469,-20.08598 -40.12469,-44.86326c0,-24.7773 17.96443,-44.86324 40.12469,-44.86324z" fill="#e0e0e0"/><path d="M275.62645,88.51069c0.20009,0.4722 0.38824,0.95136 0.56197,1.43889c0.06304,0.17692 1.18343,4.24628 1.10522,4.61937c-0.02526,0.12052 -0.05451,0.23944 -0.08722,0.35695l0.05852,0.01314l-0.39455,2.21331c-0.12592,0.78658 -0.739,1.38345 -1.47632,1.38345c-0.63081,0 -1.17066,-0.43687 -1.39234,-1.05564l-0.58638,-1.53507l0.05547,-0.02667l-0.10924,-0.13709c-0.33486,-1.84537 -0.53478,-3.68993 -0.63684,-5.53469c-1.0511,0.16651 -1.50939,-1.03322 -1.50939,-1.03322c-0.16825,-0.44429 -0.35078,-0.8806 -0.54433,-1.31077c-0.14983,0.05634 -0.31021,0.08686 -0.47695,0.08686c-0.69036,0 -1.27179,-0.52324 -1.44642,-1.23555l-0.59032,-2.20767l0.011,-0.0037l-0.02062,-0.03388c-0.19881,-0.89386 -0.38694,-1.67162 -0.55582,-2.38946c-0.39162,-0.72039 -0.76995,-1.4481 -1.11741,-2.1929c-4.04649,-8.67383 -7.04963,-20.34277 -5.96882,-30.17951l0.2,-1.79512l0.45459,0.06376l0.54702,-1.44685c0.3827,0.28623 0.79118,0.53909 1.19914,0.79263l0.34833,-0.39081l1.6,1.79512l-0.02923,0.0328c0.0888,0.09375 0.17441,0.19161 0.25635,0.29422c0.55124,0.69034 0.52511,1.75812 0.75544,2.64822c0.01072,0.04141 0.02147,0.08279 0.03227,0.12416c0.33368,0.01856 0.63867,0.15945 0.88007,0.38352c0.1307,-0.50947 0.26572,-1.03531 0.39072,-1.58576c1.33752,-5.89046 3.76925,-10.97025 5.91255,-16.49489l0.06602,-0.06386l-0.0272,-0.01743l0.78555,-1.54237c0.18925,-0.38807 0.5108,-0.68332 0.8966,-0.80939c0.08333,-0.20601 0.16328,-0.40941 0.23852,-0.60986c1.92605,-5.1314 3.8079,-10.22405 6.22568,-15.10133l0.56367,-1.47564c0.22167,-0.61876 0.76153,-1.05563 1.39234,-1.05563c0.48134,0 0.90972,0.25436 1.18419,0.64981c0.75418,-2.33344 4.43582,-7.4914 7.24111,-11.22021c1.1044,0.41423 2.70889,-0.29442 4.04798,-0.40715c0.58134,3.07831 1.32917,7.02234 1.5327,8.0232c0.32036,-1.37621 0.92297,-2.68359 1.46824,-4.11263c0.39446,-1.0338 0.99781,-2.40881 1.6993,-3.92535c0.87747,0 1.75494,0 2.63241,0c1.81614,0 3.63228,0 5.44842,0c0.02607,0.34317 0.04135,0.64373 0.04364,0.891c0.09514,-0.27343 0.20807,-0.57175 0.33631,-0.891c2.39054,0 4.78108,0 7.17162,0c1.0663,0 2.33599,-0.12961 3.60433,-0.21506l1.64809,8.32304l3.00528,-8.07123c0.75625,0.14194 1.49532,0.26954 2.22755,0.38188l0.14455,2.7712c1.69427,7.44488 -0.08434,6.86815 1.32617,14.48297c0.05779,0.31197 0.59409,1.95824 0.98755,3.60337c0.13151,-1.47279 0.37478,-4.78202 1.51979,-5.01405c4.1641,-0.84382 6.52209,7.81003 7.70891,10.78278c1.57796,4.2996 2.88412,8.7259 4.51495,13.00024c0.43706,1.14553 1.46139,2.83061 2.0089,4.44722c-0.0005,-0.05946 -0.00113,-0.11891 -0.00201,-0.1783c-0.02844,-1.92217 0.08452,-3.84506 0.20621,-5.76264l0.01313,-0.03167l-0.01016,-0.00127l0.198,-1.99933c0.07418,-0.85169 0.71422,-1.51725 1.49283,-1.51725c0.6236,0 1.15833,0.42695 1.38462,1.03454l0.78609,1.98439l-0.38981,0.19437c3.69871,7.31253 4.07762,17.81988 5.48597,25.71747l0.39039,1.97099c0.02793,0.12836 0.04274,0.26249 0.04274,0.40051c0,0.92945 -0.67158,1.68291 -1.5,1.68291c-0.25194,0 -0.48937,-0.06968 -0.69781,-0.19281l-0.90599,-0.50825c-0.41551,0.93584 0.05752,4.57453 0.09154,4.86197c0.67042,5.66285 1.46949,11.31488 2.18926,16.97257l0.3878,2.17544c0.02305,0.11726 0.0352,0.2391 0.0352,0.36413c0,0.92945 -0.67158,1.68291 -1.5,1.68291c-0.45913,0 -0.87008,-0.23143 -1.14523,-0.596l-0.61753,-0.80831c-0.27038,0.44157 -0.72367,0.73114 -1.23724,0.73114c-0.7529,0 -1.37624,-0.62236 -1.48364,-1.43354l-0.39594,-2.66538l0.00652,-0.00122c-0.00376,-0.01089 -0.00751,-0.02179 -0.01125,-0.03269c-0.62794,-1.8333 -0.22564,-3.84901 -1.19871,-5.65381c-1.95512,-3.62623 -3.23113,-7.27209 -3.939,-11.56444c-1.19252,-7.2312 -1.78915,-15.08834 -4.08265,-22.16434c-2.90173,-1.87333 -5.58801,-4.13843 -8.8436,-5.51783c-4.46798,-1.8931 -9.36881,-3.52507 -14.37639,-4.7423c-3.66542,1.10816 -7.50051,1.60358 -11.2896,2.15314c-5.1519,0.74722 -10.27558,1.74782 -15.40643,2.6801c-1.31108,2.59978 -2.90128,5.02812 -4.25469,7.88344c-2.28178,4.81394 -3.23455,10.41588 -3.22462,15.81513v1.79512c0,0.92945 -0.67158,1.68291 -1.5,1.68291c-0.7529,0 -1.37624,-0.62236 -1.48364,-1.43354l-0.39594,-2.66538l0.26865,-0.05023c-0.24572,-0.71755 -0.46382,-1.43166 -0.6626,-2.15116c-0.18046,1.32431 -0.3744,2.53707 -0.43057,3.39559c-0.39226,5.99577 -1.22681,12.02248 -1.06351,18.01119zM264.07804,60.08112c0.00034,0.02093 0.0007,0.04187 0.00108,0.06282c0.00503,-0.00306 0.01008,-0.00609 0.01515,-0.0091c-0.00543,-0.01791 -0.01084,-0.03582 -0.01623,-0.05373z" fill="#00cc24"/><path d="M351.01946,95.82298c0.01246,-0.03705 0.02437,-0.07417 0.03574,-0.11139c0.00618,0.04152 0.01234,0.08301 0.01847,0.12449c-0.01807,-0.00437 -0.03614,-0.00873 -0.05421,-0.0131z" fill="#00cc24"/><path d="M351.01944,95.82298v0v0.00001z" fill="#00cc24"/><path d="M303.16072,67.08392c0,5.62833 -3.38511,10.00401 -9,10.00401c-5.61489,0 -10.16667,-4.56267 -10.16667,-10.191c0,-1.8596 0.71965,-11.1454 3.6922,-11.77618c6.02434,-1.27838 15.47447,8.19442 15.47447,11.96316z" fill="#dca922"/><path d="M322.80185,54.52238c2.97256,0.63078 3.6922,9.91657 3.6922,11.77617c0,5.62833 -4.55178,10.19101 -10.16667,10.19101c-5.61489,0 -9,-4.37568 -9,-10.00401c0,-3.76875 9.45013,-13.24153 15.47447,-11.96316z" data-paper-data="{&quot;index&quot;:null}" fill="#dca922"/><path d="M271.94052,43.29342l5.43041,-0.63098l15.43697,12.20314l-9.07347,-14.21754l3.28832,0.16459l14.69153,22.57414z" fill="#000000"/><path d="M308.27383,63.34936l14.69153,-22.57414l3.28832,-0.16459l-9.07347,14.21755l15.43697,-12.20314l5.43041,0.63098z" data-paper-data="{&quot;index&quot;:null}" fill="#000000"/></g><g fill="#6a5210" stroke="none" stroke-width="0" stroke-linecap="butt"><path d="M298.54934,65.36482c0,4.02761 -2.05203,7.29264 -4.58334,7.29264c-2.5313,0 -4.58333,-3.26503 -4.58333,-7.29264c0,-4.02761 2.05203,-7.29264 4.58333,-7.29264c2.5313,0 4.58334,3.26503 4.58334,7.29264z"/><path d="M320.88266,66.11279c0,4.02761 -2.05203,7.29264 -4.58333,7.29264c-2.5313,0 -4.58333,-3.26503 -4.58333,-7.29264c0,-4.02761 2.05203,-7.29264 4.58333,-7.29264c2.5313,0 4.58333,3.26503 4.58333,7.29264z"/></g><path d="M286.38451,91.83355c0,0 -2.0429,-1.05786 -1.10002,-3.34989c0.94288,-2.29203 2.98579,-1.23416 2.98579,-1.23416c3.58013,1.85599 7.04126,3.79927 10.63847,5.59538c1.22953,0.61391 2.87309,1.54193 4.41616,1.89943c1.15114,-0.28765 2.48005,-0.35471 3.78706,-0.34666c3.07944,-0.97098 6.02963,-3.02603 9.18835,-3.60809c3.81324,-0.70267 7.86799,-0.23226 10.91051,-3.13461l0.18009,-0.04813l-0.03057,-0.0588l1.96677,-1.28718c0.34024,-0.23201 0.73969,-0.36562 1.16694,-0.36562c1.24264,0 2.25,1.13021 2.25,2.52438c0,0.24507 -0.03112,0.48197 -0.08918,0.70603l-0.65346,2.74927l-0.07432,-0.02224c-0.02609,0.17493 -0.0581,0.34905 -0.09692,0.52217c-0.60671,2.70592 -4.26527,4.72032 -6.1447,6.03979c-0.37021,0.25991 -0.74415,0.51311 -1.12153,0.75993c0.00888,0.09112 0.01344,0.18371 0.01344,0.27748c0,1.29311 -0.8666,2.35912 -1.98374,2.50689l-2.46889,0.36932l-0.00905,-0.07614l-0.1393,0.09275c-0.14216,0.00027 -0.28447,0.00047 -0.42689,0.0006c-0.53331,0.32285 -1.20593,0.41012 -1.83608,0.54743c-2.58351,1.17218 -5.23826,2.17077 -7.89102,3.08569c-1.62907,0.56186 -3.15354,1.76098 -4.85764,1.78984c-2.98334,0.05053 -3.81889,-1.07624 -6.0179,-2.63804c-3.76873,-2.67667 -6.89578,-5.53066 -10.17554,-8.90373l-0.02002,-0.0551l-0.01491,0.01674l-1.66667,-1.86991c-0.40717,-0.45682 -0.65901,-1.08791 -0.65901,-1.78501c0,-0.2238 0.02596,-0.4408 0.07468,-0.64741c-0.0337,-0.01758 -0.06734,-0.03506 -0.1009,-0.05242zM302.54085,101.21846c-0.32306,-0.05951 -0.64546,-0.12213 -0.9671,-0.18798c0.28184,0.22122 0.59661,0.49348 0.93257,0.75494z" fill="#ffffff" stroke="none" stroke-width="0.5" stroke-linecap="butt"/><path d="M280.36073,82.47328l21.83333,9.34954l36.16667,-10.65848c0,0 -5.13849,14.9083 -10.93057,20.55612c-4.47609,4.36461 -20.90276,10.48437 -20.90276,10.48437c0,0 -12.33039,-6.44962 -16.18312,-10.82726c-4.69997,-5.34027 -9.98355,-18.90429 -9.98355,-18.90429zM302.19404,96.96506c-0.45179,0.12671 -15.18587,-9.04777 -15.53001,-8.83254c-1.06852,0.66826 3.09763,6.85328 8.67863,11.70259c3.47753,3.02161 8.93179,5.29584 9.64305,6.09384c3.772,4.23198 31.63095,-14.82904 23.875,-17.00449z" fill="#8a0000" stroke="none" stroke-width="0" stroke-linecap="butt"/><path d="M306.76982,86.01073c0.54885,1.4121 -0.54885,2.11813 -0.54885,2.11813l-0.7239,0.36498c-2.4769,0.39279 -4.88714,0.31235 -7.36775,0.84267c-1.94717,0.1881 -4.22812,0.67061 -5.85887,-1.21388c-2.68751,-3.10567 -3.84927,-9.07812 0.1502,-11.27459c2.32671,-1.2778 5.57761,-1.21266 8.04055,-0.74277c0.7593,0.14486 1.53049,1.0257 2.24442,0.6629c0.2204,-0.11201 1.1321,-5.6435 1.28497,-6.43245c0,0 0.29766,-1.53163 1.48829,-1.14873c1.19063,0.38291 0.89297,1.91453 0.89297,1.91453c-0.37291,1.91362 -0.92226,7.27523 -2.31502,8.30268c-1.28556,0.94835 -2.71784,0.0661 -3.97374,-0.17911c-1.84383,-0.36001 -3.49671,-0.16569 -5.33099,0.20668c-0.58954,0.11968 -2.43014,0.48077 -2.63385,1.64326c-0.14058,0.80222 0.66245,2.503 0.86288,2.93931c1.27936,2.78504 2.49982,2.42694 4.85203,2.18769c2.47517,-0.53225 4.89258,-0.43852 7.35948,-0.84135l-0.06936,-0.05602c0,0 1.0977,-0.70605 1.64655,0.70604z" fill="#878787" stroke="none" stroke-width="0.5" stroke-linecap="butt"/><path d="M144.8132,270.8563c0,0 3.66458,18.59791 4.77254,28.33628c-1.28116,10.93113 -2.00577,21.73587 -2.00577,21.73587" fill="none" stroke="#000000" stroke-width="3.5" stroke-linecap="round"/><path d="M102.82781,269.96663c0,0 0.03149,4.41636 2.80628,4.48644c5.16269,0.13038 16.08774,-1.24566 25.01098,-2.62847c0.3438,0.64196 -6.34007,22.90879 -6.34007,22.90879" fill="none" stroke="#000000" stroke-width="3.5" stroke-linecap="round"/><g data-paper-data="{&quot;index&quot;:null}" stroke="#121312" stroke-width="3.5" stroke-linecap="butt"><path d="M112.73505,318.01878l4.77071,-21.58468l15.56715,4.25148c0,0 -2.93643,7.44738 -3.80036,10.81361c-0.24143,0.94077 2.6739,1.90618 4.75384,2.89325c1.46563,0.69553 2.35457,1.36403 2.13818,2.20721c-0.57536,2.24182 -2.38748,6.30687 -2.38748,6.30687z" fill="#383838"/><path d="M134.14371,300.64951c-0.44305,1.72633 -4.62381,2.145 -9.33797,0.93514c-4.71419,-1.20986 -8.1766,-3.5901 -7.73356,-5.31644c0.2183,-0.85062 0.40785,-5.72452 2.05775,-5.9018c1.69858,-0.18251 5.13571,3.3912 7.52708,4.00491c4.71419,1.20986 7.92976,4.55187 7.48672,6.2782z" fill="#979025"/></g><g stroke="#121312" stroke-width="3.5" stroke-linecap="butt"><path d="M139.37775,346.09969l-0.73742,-22.0933l16.13529,0.25356c0,0 -0.99557,7.94322 -0.9967,11.41855c-0.00055,1.65565 7.9432,1.12383 7.9425,3.22971c-0.00077,2.31447 -0.7469,6.70214 -0.7469,6.70214z" fill="#383838"/><path d="M155.80388,323.95914c-0.00059,1.78226 -3.94649,3.22576 -8.81345,3.22416c-4.86695,-0.0016 -8.81194,-1.44771 -8.81134,-3.22997c0.00028,-0.87818 -1.02614,-5.64655 0.5281,-6.2279c1.60009,-0.59849 5.81685,2.00996 8.28569,2.01078c4.86695,0.0016 8.81158,2.44066 8.81101,4.22292z" fill="#979025"/></g><g><path d="M149.22089,201.8098l54.01159,27.77977" data-paper-data="{&quot;index&quot;:null}" fill="none" stroke="#383838" stroke-width="3.5" stroke-linecap="round"/><g data-paper-data="{&quot;index&quot;:null}" fill="#393839" stroke="#131313" stroke-width="2.5" stroke-linecap="butt"><path d="M202.79922,229.4558c3.07095,-2.97688 6.67448,-4.2103 8.0487,-2.75487c1.37422,1.45542 -0.00122,5.04852 -3.07217,8.02543c-3.07095,2.97688 -6.67448,4.2103 -8.0487,2.75487c-1.37422,-1.45542 0.00122,-5.04852 3.07217,-8.02543z"/><path d="M205.17726,233.11758c3.07095,-2.97688 6.67448,-4.2103 8.0487,-2.75487c1.37422,1.45542 -0.00122,5.04852 -3.07217,8.02543c-3.07095,2.97688 -6.67447,4.2103 -8.0487,2.75487c-1.37422,-1.45542 0.00122,-5.04852 3.07216,-8.02542z"/><path d="M208.2806,235.72823c3.07095,-2.97688 6.67448,-4.2103 8.0487,-2.75487c1.37422,1.45542 -0.00123,5.04854 -3.07217,8.02543c-3.07095,2.97688 -6.67447,4.2103 -8.0487,2.75487c-1.37422,-1.45542 0.00122,-5.04852 3.07217,-8.02543z"/><path d="M206.2972,225.95071c1.10227,-1.67623 4.863,-1.09941 8.39984,1.28837c3.53682,2.38776 5.51044,5.68227 4.40817,7.3585c-1.10227,1.67623 -4.863,1.09938 -8.39984,-1.28837c-3.53682,-2.38776 -5.51044,-5.68227 -4.40817,-7.35848z" data-paper-data="{&quot;index&quot;:null}"/></g></g><g stroke="none" stroke-width="0" stroke-linecap="butt"><path d="M99.39381,271.07497v-76.71417h54.11557v76.71417z" fill="#000000"/><path d="M99.3105,262.36104v-8.0487h54.11557v8.0487z" fill="#a17f00"/><g fill="#ca9e00"><path d="M120.94873,262.35906v-13.33066h3.55972v13.33066z"/><path d="M121.68555,262.47129v-7.54566h10.35556v7.54566z"/><path d="M129.20076,259.84384v-11.31848h2.9125v11.31848z"/><path d="M129.56561,258.12902v-3.03014h15.66664l-1.94931,6.50918c0,0 -0.76046,-4.43736 -3.0715,-3.68379c-2.49998,0.81519 -2.79143,2.89819 -4.29254,2.89819c-0.54892,0 -0.41234,-2.15658 -1.26289,-2.50285c-0.8012,-0.32618 -1.08222,2.38934 -1.98558,2.39625c-1.29357,0.00989 -3.10482,-2.58686 -3.10482,-2.58686z"/><path d="M121.09241,260.67572c-0.90336,-0.00691 -1.18438,-2.72242 -1.98558,-2.39625c-0.85055,0.34627 -0.71397,2.50284 -1.26289,2.50284c-1.50111,0 -1.79256,-2.08301 -4.29255,-2.89819c-2.31104,-0.75357 -3.0715,3.68379 -3.0715,3.68379l-1.9493,-6.50918h15.66664v3.03014c0,0 -1.81125,2.59676 -3.10482,2.58686z" data-paper-data="{&quot;index&quot;:null}"/></g><g fill="#ca9e00"><path d="M119.70783,220.56504l0.11076,-21.74769h4.02574l0.11076,21.74769z"/><path d="M120.58698,220.73868v-11.67478h12.35568v11.67478z"/><path d="M129.55372,216.67345v-17.51216h3.47503v17.51216z"/><path d="M129.98899,214.02026v-4.68829h18.69257l-2.3258,10.07111c0,0 -0.90734,-6.86556 -3.66474,-5.6996c-2.98284,1.26126 -3.33059,4.48414 -5.12163,4.48414c-0.65494,0 -0.49198,-3.3367 -1.50681,-3.87245c-0.95594,-0.50466 -1.29124,3.69684 -2.36908,3.70753c-1.54342,0.01531 -3.70451,-4.00243 -3.70451,-4.00243z"/><path d="M119.87926,217.96054c-1.07784,-0.01069 -1.41314,-4.21218 -2.36908,-3.70752c-1.01483,0.53575 -0.85187,3.87245 -1.50681,3.87245c-1.79104,0 -2.13878,-3.22286 -5.12163,-4.48413c-2.7574,-1.16593 -3.66474,5.6996 -3.66474,5.6996l-2.3258,-10.07111h18.69257v4.68828c0,0 -2.16109,4.01774 -3.70451,4.00243z" data-paper-data="{&quot;index&quot;:null}"/></g></g><g stroke="none" stroke-linecap="butt"><path d="M168.56379,152.07719c0,21.91249 -17.96444,39.67608 -40.12469,39.67608c-22.16026,0 -40.12469,-17.76358 -40.12469,-39.67608c0,-21.91249 17.96444,-39.67607 40.12469,-39.67607c22.16026,0 40.12469,17.76357 40.12469,39.67607z" fill="#000000" stroke-width="0"/><path d="M149.54881,144.72976l0.64458,-38.53315l10.31318,-23.8383v62.37144z" fill="#000000" stroke-width="0"/><path d="M95.45049,146.4089v-62.37143l10.31318,23.8383l0.64457,38.53314z" data-paper-data="{&quot;index&quot;:null}" fill="#000000" stroke-width="0"/><path d="M111.51902,183.58945l-7.09031,-21.55243h51.24359l-8.37945,20.57278z" fill="#d9b796" stroke-width="0"/><path d="M111.8413,152.73028c0,2.79541 -4.32878,5.06155 -9.6686,5.06155c-5.33982,0 -9.6686,-2.26614 -9.6686,-5.06155c0,-2.79541 4.32878,-5.06155 9.6686,-5.06155c5.33982,0 9.6686,2.26614 9.6686,5.06155z" fill="#ffffff" stroke-width="0"/><path d="M163.13065,153.75634c0,2.79541 -4.32878,5.06155 -9.6686,5.06155c-5.33982,0 -9.6686,-2.26614 -9.6686,-5.06155c0,-2.79541 4.32878,-5.06156 9.6686,-5.06156c5.33982,0 9.6686,2.26614 9.6686,5.06156z" fill="#ffffff" stroke-width="0"/><path d="M143.58871,172.47839c0,1.26655 -1.25,1.26655 -1.25,1.26655h-1.24118c-8.05477,0 -16.04077,0.50306 -24.07895,0.50306c0,0 -1.25,0 -1.25,-1.26655c0,-1.26655 1.25,-1.26655 1.25,-1.26655c8.03765,0 16.02432,-0.50306 24.07895,-0.50306h1.24118c0,0 1.25,0 1.25,1.26655z" fill="#000000" stroke-width="0.5"/><path d="M143.41224,176.47008c-0.46424,-1.17596 0.69636,-1.64634 0.69636,-1.64634l1.07607,-0.42139c1.73066,-1.41905 3.14702,-3.46739 0.90224,-5.41607c-0.51696,-0.44878 -2.43233,0.08706 -3.00658,0.20666c0,0 -1.22573,0.2484 -1.47087,-0.99356c-0.24515,-1.24195 0.98058,-1.49034 0.98058,-1.49034c1.41538,-0.28029 3.63322,-0.73427 4.93699,0.20666c1.66902,1.20452 2.86113,4.71374 1.89704,6.61214c-0.72393,1.42548 -1.80953,2.1211 -2.9807,3.06311l-1.40629,0.58471c0,0 -1.1606,0.47039 -1.62484,-0.70558z" fill="#000000" stroke-width="0.5"/><path d="M118.51684,177.00578c0,1.26655 -1.25,1.26655 -1.25,1.26655l-1.23809,-0.02459c-6.01717,-1.24343 -7.03908,-9.55261 -0.49648,-11.03565c0,0 1.22573,-0.2484 1.47087,0.99356c0.24514,1.24195 -0.98058,1.49034 -0.98058,1.49034c-4.067,0.66879 -2.77793,5.41998 0.49648,6.06786l0.7478,-0.02459c0,0 1.25,0 1.25,1.26655z" fill="#000000" stroke-width="0.5"/><path d="M136.02373,167.08593c-2.48264,2.36724 -5.88291,1.6316 -9.03295,1.1083c0,0 -1.23299,-0.20822 -1.02749,-1.45752c0.2055,-1.24931 1.43849,-1.04109 1.43849,-1.04109c2.02027,0.34754 5.35568,1.2823 6.85419,-0.40084l0.56579,-0.78346c-0.49478,-2.24616 -1.52111,-4.31486 -1.90785,-6.66448c0,0 -0.20549,-1.24931 1.0275,-1.45752c1.23299,-0.20822 1.43849,1.04109 1.43849,1.04109c0.40843,2.48472 1.48298,4.58852 1.97863,7.00244l0.02427,0.49991c0,0 0.00001,0.73707 -0.55493,1.08665z" fill="#000000" stroke-width="0.5"/></g><g><path d="M158.4894,187.0596l-57.26944,19.98792" fill="none" stroke="#383838" stroke-width="3.5" stroke-linecap="round"/><g fill="#393839" stroke="#131313" stroke-width="2.5" stroke-linecap="butt"><path d="M156.08862,178.75441c1.55875,-1.25005 4.96059,0.47385 7.59821,3.85047c2.63761,3.37661 3.51222,7.12727 1.95347,8.3773c-1.55875,1.25005 -4.96059,-0.47385 -7.59821,-3.85047c-2.63761,-3.37661 -3.51222,-7.12727 -1.95347,-8.3773z"/><path d="M158.94117,175.45889c1.55875,-1.25005 4.96059,0.47385 7.59821,3.85047c2.63761,3.37661 3.51222,7.12728 1.95348,8.37732c-1.55875,1.25005 -4.9606,-0.47387 -7.59822,-3.85048c-2.63761,-3.37661 -3.5122,-7.12727 -1.95347,-8.3773z"/><path d="M162.36942,173.30557c1.55875,-1.25005 4.96059,0.47385 7.59821,3.85047c2.63761,3.37661 3.51222,7.12727 1.95347,8.3773c-1.55875,1.25005 -4.96059,-0.47385 -7.59821,-3.85047c-2.63761,-3.37661 -3.5122,-7.12727 -1.95347,-8.3773z"/><path d="M166.39621,184.41687c3.82737,-1.87213 7.63066,-1.91931 8.49488,-0.1054c0.86422,1.81391 -1.53786,4.80202 -5.36523,6.67417c-3.82737,1.87213 -7.63065,1.9193 -8.49488,0.1054c-0.86422,-1.81391 1.53786,-4.80204 5.36523,-6.67417z" data-paper-data="{&quot;index&quot;:null}"/></g></g></g></svg>