<svg version="1.1" xmlns="http://www.w3.org/2000/svg" xmlns:xlink="http://www.w3.org/1999/xlink" width="60.1" height="60.1" viewBox="0,0,60.1,60.1"><g transform="translate(-23.33626,-75.01959)"><g data-paper-data="{&quot;isPaintingLayer&quot;:true}" fill-rule="nonzero" stroke="none" stroke-width="0" stroke-linecap="butt" stroke-linejoin="miter" stroke-miterlimit="10" stroke-dasharray="" stroke-dashoffset="0" style="mix-blend-mode: normal"><path d="M23.33626,105.06959c0,-16.59615 13.45384,-30.05 30.05,-30.05c16.59616,0 30.05,13.45385 30.05,30.05c0,16.59616 -13.45384,30.05 -30.05,30.05c-16.59616,0 -30.05,-13.45384 -30.05,-30.05z" fill="#333333"/><g fill="#ffffff"><g><path d="M36.8819,101.38889c0,-1.57484 1.27666,-2.8515 2.8515,-2.8515c1.57484,0 2.8515,1.27666 2.8515,2.8515c0,1.57484 -1.27666,2.85151 -2.8515,2.85151c-1.57484,0 -2.8515,-1.27667 -2.8515,-2.85151z"/><path d="M38.64032,101.38889c0,-0.9649 -0.47124,-1.96044 0.26222,-2.47641c0.46363,-0.32616 1.97935,-0.37509 2.58929,-0.37509c1.57484,0 2.8515,1.27666 2.8515,2.8515c0,1.57484 -1.27666,2.85151 -2.8515,2.85151c-1.57484,0 -2.85151,-1.27667 -2.85151,-2.85151z"/><path d="M36.8819,115.4563c0,-1.57484 1.27666,-2.8515 2.8515,-2.8515c1.57484,0 2.8515,1.27666 2.8515,2.8515c0,1.03818 0.44321,2.08936 -0.3861,2.58805c-0.42869,0.25778 -1.92875,0.26346 -2.4654,0.26346c-1.57484,0 -2.8515,-1.27667 -2.8515,-2.85151z"/><path d="M38.64032,115.4563c0,-1.57484 1.27667,-2.8515 2.85151,-2.8515c1.57484,0 2.8515,1.27666 2.8515,2.8515c0,1.57484 -1.27666,2.8515 -2.8515,2.8515c-1.57484,0 -2.85151,-1.27666 -2.85151,-2.8515z"/><path d="M36.92943,115.78898v-14.63771h7.31885v14.63771z"/></g><path d="M46.14928,117.59493l0.04753,-18.20852c0,0 0.59195,-1.7406 1.43447,-1.78842c0.21919,-0.31647 1.92103,-1.3624 5.75628,-6.76055c0.8552,-1.2037 4.96077,-1.56822 5.16723,-0.6531c0.38215,1.34062 -0.78367,2.61888 -1.1206,3.84408c-0.69295,2.51977 -1.32679,4.42391 -1.07863,4.51954c0.46423,0.17891 9.53867,-0.02306 10.84135,0.13402c0.36536,0.04406 1.94047,0.203 2.45821,0.92817c0.61106,0.8559 0.14143,2.2951 0.14143,2.2951c0,0 -1.38829,9.25258 -1.8833,12.71875c-0.2376,1.66376 -2.82169,3.73134 -2.82169,3.73134c0,0 -15.1719,0.11679 -17.94526,0.03401c-0.62078,-0.01853 -0.99701,-0.79442 -0.99701,-0.79442z"/></g></g></g></svg>