<svg version="1.1" xmlns="http://www.w3.org/2000/svg" xmlns:xlink="http://www.w3.org/1999/xlink" width="480" height="360" viewBox="0,0,480,360"><g data-paper-data="{&quot;isPaintingLayer&quot;:true}" fill-rule="nonzero" stroke-linejoin="miter" stroke-miterlimit="10" stroke-dasharray="" stroke-dashoffset="0" style="mix-blend-mode: normal"><path d="M0,360v-360h480v360z" fill="#ffffff" stroke="none" stroke-width="0" stroke-linecap="butt"/><path d="M294.65088,276.19589c0,0 0.9583,19.58853 -0.14966,29.3269c1.28116,10.93113 -0.30567,21.40566 -0.30567,21.40566" data-paper-data="{&quot;index&quot;:null}" fill="none" stroke="#000000" stroke-width="3.5" stroke-linecap="round"/><path d="M308.97853,290.04018c0,0 2.79816,-23.07934 3.37038,-23.52976c7.62154,4.84238 17.07987,10.48065 21.86225,12.42981c2.57038,1.04761 4.36881,-2.98611 4.36881,-2.98611" data-paper-data="{&quot;index&quot;:null}" fill="none" stroke="#000000" stroke-width="3.5" stroke-linecap="round"/><g><path d="M252.51497,251.37127l41.79015,-51.66151" data-paper-data="{&quot;index&quot;:null}" fill="none" stroke="#000000" stroke-width="3.5" stroke-linecap="round"/><g data-paper-data="{&quot;index&quot;:null}" fill="#500190" stroke="#2c0050" stroke-width="2.5" stroke-linecap="butt"><path d="M255.68057,258.31347c-1.14799,1.20034 -4.57184,0.01413 -7.64737,-2.64952c-3.07555,-2.66366 -4.63817,-5.79601 -3.49016,-6.99635c1.148,-1.20035 4.57182,-0.01412 7.6474,2.64951c3.07555,2.66366 4.63811,5.79601 3.49014,6.99637z"/><path d="M250.2975,254.37542c3.07551,2.66365 4.63812,5.796 3.49015,6.99635c-1.14799,1.20034 -4.57184,0.01414 -7.64736,-2.64951c-3.07555,-2.66366 -4.63814,-5.796 -3.49014,-6.99636c1.14799,-1.20034 4.57184,-0.01413 7.64738,2.6495z"/><path d="M243.49244,260.85275c-3.07553,-2.66361 -4.63814,-5.79601 -3.49013,-6.99636c1.14799,-1.20034 4.57184,-0.01413 7.64738,2.6495c3.07555,2.66366 4.63809,5.79601 3.49012,6.99639c-1.148,1.20035 -4.57182,0.01413 -7.64736,-2.64953z"/><path d="M248.67789,248.1851c1.15369,1.4776 -0.39639,4.23505 -3.46214,6.15889c-3.06579,1.92383 -6.48632,2.28561 -7.64004,0.80799c-1.15368,-1.47761 0.39637,-4.23504 3.46214,-6.15891c3.06578,-1.92388 6.48635,-2.28559 7.64006,-0.80797z" data-paper-data="{&quot;index&quot;:null}"/></g></g><g stroke="none" stroke-linecap="butt"><path d="M290.03283,275.60965l-1.06052,-75.70907h52.17338l-0.38564,75.80298z" fill="#b78000" stroke-width="0"/><path d="M305.26491,224.97278c-0.54353,-0.56986 0.20463,-0.98384 0.20463,-0.98384l0.10097,-0.05331c3.69221,-2.38929 6.06669,-4.82204 7.27094,-8.09749c-0.78293,0.29323 -1.68591,0.52152 -2.70128,0.68077c-2.31262,0.52496 -8.00346,0.14558 -6.55022,-2.67724c1.4098,-2.73846 5.95962,-4.99086 9.79943,-5.95158c0.01951,-0.06075 0.05108,-0.12506 0.09733,-0.19292c0.4261,-0.62513 1.24683,-0.30058 1.24683,-0.30058l0.3203,0.129c0.01744,0.00564 0.03486,0.0113 0.05225,0.01696c0.16825,-0.01432 0.6597,-0.02463 0.91223,0.305c1.70036,0.58694 3.21309,1.22541 4.74807,2.14073c1.23778,0.86937 2.87175,1.69478 3.0947,3.11c0.28377,1.80123 -2.45101,5.17391 -5.11025,4.52205c1.46149,2.56949 3.0341,5.06245 5.23827,7.39391l0.6622,0.46064c0,0 0.6797,0.47759 0.05266,0.99529c-0.62703,0.5177 -1.30673,0.04011 -1.30673,0.04011l-0.79005,-0.5598c-3.26672,-3.39922 -5.20619,-7.15385 -7.34643,-10.99111c0,0 -0.15997,-0.28699 -0.01633,-0.56018c-0.03476,0.03402 -0.07025,0.06773 -0.10647,0.10106c-1.05288,4.42853 -3.79551,7.53952 -8.36884,10.50821l-0.21253,0.12017c0,0 -0.74815,0.41398 -1.29168,-0.15586zM313.41171,213.83002c0,0 0.09355,-0.44974 0.60497,-0.56871c0.28865,-0.381 0.45864,-0.8133 0.5195,-1.29873c-0.19216,-0.70833 -0.63445,-1.5432 -0.22358,-1.93952c-0.0171,-0.05733 -0.03506,-0.11514 -0.05388,-0.17342l0.10947,-0.13017l-0.09903,-0.01195l0.1232,-0.59233c-2.82149,0.59476 -4.51704,1.69531 -6.78231,3.29502c-0.64732,0.45712 -2.56253,1.49445 -2.54393,2.3003c0.01795,0.77771 4.07458,0.58389 4.6094,0.44498c1.71255,-0.26464 2.93514,-0.6913 3.72909,-1.29156c0.00237,-0.01129 0.00473,-0.02257 0.00709,-0.03387zM316.44043,211.53819c0.25439,0.94991 0.54797,1.89521 1.07928,2.82216c0.25574,0.44617 1.27979,1.96564 2.06032,2.03792c0.73139,0.06772 0.99626,-0.85675 1.22473,-1.17546c1.52449,-2.12664 1.06889,-2.54075 -1.23646,-4.16132c-1.10949,-0.66157 -2.20152,-1.15546 -3.37651,-1.59615l-0.07381,0.3549c0.20907,0.60732 0.31509,1.18075 0.32243,1.71795z" fill="#09b800" stroke-width="0.5"/><path d="M289.05809,275.93309v-75.94908h18.95258c-0.31796,6.76089 0.02414,13.51872 -0.44455,20.38611c-1.23305,18.06691 1.26376,37.11432 0.03071,55.66731z" fill="#6900b8" stroke-width="0"/><path d="M322.53581,275.93309c2.40915,-18.23994 2.12073,-35.82646 1.20906,-55.4586c-0.31928,-6.87553 -1.30494,-13.72959 -1.6229,-20.49047h18.95258c0,0 0,32.67637 0,46.40609c0,10.95473 0,29.543 0,29.543z" data-paper-data="{&quot;index&quot;:null}" fill="#6900b8" stroke-width="0"/><path d="M322.60875,202.4593l8.56987,-14.81753l7.49864,2.92177c0,0 3.95688,7.5621 3.80934,7.89621c-0.81564,1.84699 -19.87785,3.99956 -19.87785,3.99956z" fill="#6900b8" stroke-width="0"/><path d="M287.69052,198.14668c-0.14754,-0.33409 3.80935,-7.89621 3.80935,-7.89621l7.49864,-2.92177l8.56987,14.81752c0,0 -19.06223,-2.15257 -19.87786,-3.99956z" data-paper-data="{&quot;index&quot;:null}" fill="#6900b8" stroke-width="0"/><path d="M295.50649,200.37233l14.24741,-0.41739l-2.03534,75.65287z" fill="#510191" stroke-width="0"/><path d="M322.71606,275.71215l-1.71398,-75.65286l14.24741,0.41739z" data-paper-data="{&quot;index&quot;:null}" fill="#510090" stroke-width="0"/><path d="M296.08682,211.58981c0.07308,-0.31366 0.36105,-0.54782 0.70516,-0.54782c0.00336,0 0.00672,0.00002 0.01007,0.00006l-0.07619,-0.40823c-0.00932,-0.04514 -0.01422,-0.09184 -0.01422,-0.13966c0,-0.389 0.32373,-0.70436 0.72308,-0.70436c0.11357,0 0.22104,0.02551 0.31668,0.07096l0.03586,-0.27949c0.03989,-0.35225 0.34643,-0.62625 0.71869,-0.62625c0.22132,0 0.41944,0.09686 0.55207,0.24945l0.63968,0.72698l-0.18223,0.15216c0.13773,0.16366 0.26176,0.33041 0.37552,0.50135l0.03714,-0.3618c0.03238,-0.35982 0.34251,-0.64201 0.72029,-0.64201c0.39935,0 0.72308,0.31533 0.72308,0.70436v0.33434c0.03245,0.03131 0.06188,0.06558 0.0878,0.10239c0.10768,-0.06202 0.23331,-0.09761 0.36748,-0.09761c0.37224,0 0.6788,0.27401 0.71869,0.62625l0.10593,0.82553l-0.27129,0.03304c0.00061,0.01203 0.00113,0.02397 0.00156,0.03587l0.66562,-0.14409c0.05516,-0.01312 0.11278,-0.02007 0.17208,-0.02007c0.39935,0 0.72308,0.31533 0.72308,0.70436c0,0.02177 -0.00101,0.0433 -0.003,0.06457l0.81831,0.31886c0.27463,0.09988 0.47018,0.35772 0.47018,0.66006c0,0.35873 -0.27531,0.65483 -0.63135,0.69873l-0.73934,0.10289c-0.26184,0.03643 -0.51043,0.06927 -0.74947,0.09781c0.12233,0.13684 0.22876,0.27124 0.32803,0.42054l0.1248,-0.10131l0.53258,0.62254c0.10646,0.12267 0.17063,0.28127 0.17063,0.45447c0,0.14082 -0.04242,0.27198 -0.1155,0.38202c0.49997,0.96888 0.64481,1.96967 -0.02671,2.25802c-0.41707,0.1791 -1.02289,-0.2897 -1.60063,-0.94181c0.04331,0.23569 0.08444,0.47179 0.12882,0.70728l-0.00626,0.02973l0.00982,-0.00097l0.10616,1.03407c0.00301,0.0261 0.00456,0.05262 0.00456,0.07951c0,0.389 -0.32373,0.70436 -0.72308,0.70436c-0.26801,0 -0.50196,-0.14203 -0.62685,-0.35303l-0.63592,-1.03242l0.16552,-0.09674c-0.26112,-0.34671 -0.49052,-0.70035 -0.70019,-1.06939l-0.07387,0.25183c-0.08114,0.30254 -0.36362,0.52582 -0.69965,0.52582c-0.2221,0 -0.42082,-0.09755 -0.55347,-0.25104c-0.88101,1.06425 -2.05574,2.08712 -2.50812,2.4885l-0.0188,0.00653l0.00441,0.00525l-0.63987,0.51008c-0.12529,0.10146 -0.28631,0.16247 -0.46196,0.16247c-0.39935,0 -0.72308,-0.31533 -0.72308,-0.70436c0,-0.10732 0.02463,-0.20903 0.0687,-0.30005l0.42211,-0.92515l0.03983,0.01723c0.0841,-0.50365 0.18082,-1.00248 0.29335,-1.49719l-1.05,0.51139c-0.10048,0.05153 -0.21493,0.0807 -0.33638,0.0807c-0.39935,0 -0.72308,-0.31533 -0.72308,-0.70436c0,-0.15564 0.05182,-0.2995 0.13957,-0.41607l0.53072,-0.72377l0.211,0.1468c0.43881,-0.62569 0.97265,-1.05554 1.59725,-1.51608c-0.11893,-0.11919 -0.23511,-0.24348 -0.34785,-0.37091c-0.16866,0.0026 -0.33603,0.01199 -0.49936,0.03473l-0.05126,-0.02087v0.02264h-0.85699c-0.39935,0 -0.72308,-0.31533 -0.72308,-0.70436c0,-0.36561 0.28596,-0.66616 0.6519,-0.70098l0.09281,-0.01004l-0.2527,-0.29539c-0.10646,-0.12267 -0.17064,-0.28127 -0.17064,-0.45447c0,-0.11245 0.02705,-0.21874 0.07516,-0.31305c-0.04811,-0.0943 -0.07516,-0.20061 -0.07516,-0.31306c0,-0.389 0.32373,-0.70436 0.72308,-0.70436c0.15978,0 0.30745,0.05049 0.42713,0.13595l0.695,0.48357c0.0807,0.03314 0.18305,0.07405 0.30211,0.12202c0.05275,-0.0338 0.11031,-0.06105 0.17148,-0.08058zM295.39905,217.98938l-0.00804,0.00152l0.00532,0.01038c0.00091,-0.00397 0.00181,-0.00794 0.00272,-0.01192zM297.11987,217.83114c0.04628,-0.06127 0.0922,-0.12272 0.13784,-0.18426c-0.02776,-0.0068 -0.05488,-0.01517 -0.08125,-0.025c-0.01858,0.07008 -0.03744,0.13989 -0.05659,0.20926z" fill="#a455b8" stroke-width="0.5"/><path d="M294.78346,213.62462c0,-0.70436 0.72308,-0.70436 0.72308,-0.70436h0.21424c0.2626,0 0.77349,-0.03019 1.30665,-0.031c0.00387,-0.17789 0.00701,-0.366 0.00742,-0.56678l0.02548,-0.04689l-0.02003,-0.0028l0.10563,-0.72019c0.04508,-0.34682 0.34905,-0.615 0.71732,-0.615c0.31594,0 0.58455,0.19737 0.68297,0.47243l0.00911,0.02367c0.12842,-0.11374 0.29904,-0.18305 0.48628,-0.18305c0.00319,0 0.00638,0.00002 0.00957,0.00005c0.31359,-0.11766 0.69224,-0.04192 1.15215,0.33408c0.11008,0.08999 0.20523,0.18088 0.28664,0.27185c0.1313,-0.17743 0.34529,-0.29293 0.58698,-0.29293c0.39935,0 0.72308,0.31533 0.72308,0.70436c0,0.02978 -0.0019,0.05914 -0.00558,0.08795l-0.10597,0.92897l-0.05998,-0.0065c-0.00406,0.09691 -0.01647,0.19338 -0.03962,0.28927c0.66232,0.07893 1.24361,0.33045 1.34512,0.75298c0.22931,0.95451 -0.01245,1.36995 -0.38742,1.48604c0.1432,0.04902 0.28604,0.10607 0.42861,0.17191l0.1391,-0.27101l0.84298,0.41056c0.24459,0.11295 0.41372,0.35564 0.41372,0.63682c0,0.389 -0.32373,0.70436 -0.72308,0.70436h-0.74987v-0.03607l-0.08835,0.03079c-0.42193,-0.10483 -0.97736,-0.20129 -1.45632,-0.40704c-0.13017,0.18592 -0.34936,0.30797 -0.59781,0.30797c-0.27726,0 -0.51808,-0.15201 -0.63941,-0.37515c-1.38088,0.19532 -2.65132,0.71408 -4.01811,0.98322l-0.8289,0.20186c-0.06087,0.01621 -0.12495,0.02486 -0.19111,0.02486c-0.39935,0 -0.72308,-0.31533 -0.72308,-0.70436c0,-0.23336 0.11651,-0.44023 0.29596,-0.5684l0.85025,-0.62118l0.13651,0.1773c0.22529,-0.1931 0.45533,-0.3676 0.69365,-0.53418c-0.09724,-0.11994 -0.15528,-0.27146 -0.15528,-0.43617c0,-0.148 0.04687,-0.28535 0.12693,-0.39871l0.27461,-0.40124l-0.26531,-0.16153c-0.08074,-0.04739 -0.15119,-0.10969 -0.20734,-0.18302c-0.16889,-0.01484 -0.30783,-0.02942 -0.38415,-0.02942h-0.21424c0,0 -0.72308,0 -0.72308,-0.70436z" fill="#af5ac4" stroke-width="0.5"/><path d="M301.20592,214.94556c-0.14681,0.33368 -0.39449,0.42167 -0.60008,0.4286c-0.10608,0.1534 -0.27249,0.26392 -0.46611,0.29926c-0.01648,0.18136 -0.0364,0.3624 -0.05928,0.54293c0,0 -0.08969,0.69891 -0.80719,0.61155c-0.5424,-0.06605 -0.62351,-0.48156 -0.6308,-0.68044c-0.19818,-0.08531 -0.34962,-0.25481 -0.40656,-0.46195h-0.58694c-0.39935,0 -0.72308,-0.31533 -0.72308,-0.70436c0,-0.26669 0.15216,-0.49876 0.37651,-0.61833l0.73768,-0.41061l0.18254,0.31117c0.01251,-0.00608 0.02496,-0.01208 0.03736,-0.01799l0.06291,-0.49017c0.00682,-0.06024 0.02144,-0.11818 0.04285,-0.17287l-0.12884,-0.50203c-0.01664,-0.0593 -0.02553,-0.12172 -0.02553,-0.18615c0,-0.389 0.32373,-0.70436 0.72308,-0.70436c0.19968,0 0.38045,0.07884 0.5113,0.2063l0.64274,0.62609l-0.01831,0.01784l0.06621,0.03367c0.11285,0.28993 0.36805,0.57912 0.49252,0.86897l0.19725,0.07801c0,0 0.66461,0.27745 0.37977,0.92486z" fill="#be62d5" stroke-width="0.5"/></g><path d="M315.39252,112.3083c21.36493,0 38.68463,16.81323 38.68463,37.55337c0,20.74016 -17.31969,37.55338 -38.68463,37.55338c-21.36493,0 -38.68463,-16.81324 -38.68463,-37.55338c0,-20.74016 17.31969,-37.55337 38.68463,-37.55337z" fill="#e0e0e0" stroke="#000000" stroke-width="0.5" stroke-linecap="butt"/><path d="M279.61915,163.57602c0.19291,0.39526 0.37431,0.79635 0.5418,1.20444c0.06078,0.14809 1.14096,3.5544 1.06555,3.86671c-0.02435,0.10088 -0.05255,0.20043 -0.08409,0.29879l0.05642,0.011l-0.38039,1.85268c-0.1214,0.65842 -0.71248,1.15804 -1.42334,1.15804c-0.60817,0 -1.12865,-0.36569 -1.34237,-0.88364l-0.56534,-1.28495l0.05348,-0.02233l-0.10532,-0.11475c-0.32284,-1.54469 -0.51559,-3.08871 -0.61398,-4.63288c-1.01338,0.13938 -1.45522,-0.86487 -1.45522,-0.86487c-0.16221,-0.3719 -0.33819,-0.73712 -0.52479,-1.09719c-0.14445,0.04716 -0.29908,0.0727 -0.45983,0.0727c-0.66558,0 -1.22615,-0.43799 -1.39451,-1.03423l-0.56913,-1.84796l0.01061,-0.0031l-0.01988,-0.02836c-0.19167,-0.74822 -0.37305,-1.39925 -0.53587,-2.00013c-0.37756,-0.60302 -0.74232,-1.21215 -1.07731,-1.83559c-3.90126,-7.26054 -6.79662,-17.02819 -5.7546,-25.26216l0.19282,-1.50263l0.43827,0.05337l0.52739,-1.21111c0.36897,0.23959 0.76278,0.45125 1.1561,0.66348l0.33583,-0.32713l1.54258,1.50263l-0.02818,0.02746c0.08561,0.07848 0.16815,0.16039 0.24715,0.24628c0.53146,0.57786 0.50626,1.47166 0.72833,2.21672c0.01034,0.03466 0.0207,0.0693 0.03111,0.10393c0.3217,0.01553 0.61575,0.13347 0.84848,0.32103c0.12601,-0.42646 0.25618,-0.86662 0.3767,-1.32738c1.28952,-4.93069 3.63397,-9.18279 5.70035,-13.80726l0.06365,-0.05345l-0.02622,-0.01459l0.75736,-1.29106c0.18246,-0.32484 0.49247,-0.57199 0.86442,-0.67751c0.08034,-0.17244 0.15742,-0.3427 0.22996,-0.51049c1.85692,-4.2953 3.67124,-8.55817 6.00224,-12.64077l0.54344,-1.2352c0.21371,-0.51794 0.7342,-0.88363 1.34237,-0.88363c0.46406,0 0.87707,0.21291 1.14169,0.54393c1.20609,-3.23994 10.17791,-12.98515 10.17791,-12.98515c0,0 1.85012,8.54403 2.18371,9.96824c0.30886,-1.15197 0.88984,-2.24633 1.41555,-3.44253c1.73201,-3.94109 7.64133,-13.80643 7.64133,-13.80643c0,0 1.80348,8.80022 1.82987,11.26648c1.5327,-3.8245 7.85348,-13.46572 7.85348,-13.46572l4.44892,19.5068l4.76429,-11.10924l0.4201,6.99243c1.63346,6.23183 -0.08131,5.74908 1.27857,12.12317c0.05572,0.26114 0.57277,1.63917 0.95211,3.01625c0.12679,-1.23282 0.36133,-4.00286 1.46525,-4.19707c4.01465,-0.70633 6.28801,6.53749 7.43224,9.02587c1.52133,3.59904 2.78061,7.30413 4.35291,10.88203c0.42137,0.95888 1.40894,2.3694 1.9368,3.7226c-0.00048,-0.04977 -0.00109,-0.09953 -0.00194,-0.14925c-0.02742,-1.60898 0.08149,-3.21856 0.19881,-4.82369l0.01266,-0.02651l-0.0098,-0.00106l0.19089,-1.67357c0.07152,-0.71292 0.68859,-1.27003 1.43925,-1.27003c0.60122,0 1.11676,0.35738 1.33493,0.86598l0.75788,1.66106l-0.37582,0.1627c3.56596,6.12105 3.93128,14.91637 5.28908,21.52715l0.37638,1.64984c0.02693,0.10744 0.04121,0.21972 0.04121,0.33526c0,0.77801 -0.64748,1.4087 -1.44617,1.4087c-0.2429,0 -0.47181,-0.05832 -0.67277,-0.1614l-0.87347,-0.42544c-0.4006,0.78335 0.05546,3.82917 0.08825,4.06978c0.64636,4.74017 1.41675,9.47127 2.11069,14.20712l0.37388,1.82098c0.02222,0.09816 0.03394,0.20014 0.03394,0.3048c0,0.77801 -0.64748,1.4087 -1.44617,1.4087c-0.44265,0 -0.83885,-0.19372 -1.10413,-0.49889l-0.59537,-0.67661c-0.26068,0.36962 -0.6977,0.61201 -1.19284,0.61201c-0.72588,0 -1.32685,-0.52095 -1.43039,-1.19996l-0.38173,-2.23109l0.00629,-0.00102c-0.00363,-0.00912 -0.00724,-0.01824 -0.01085,-0.02737c-0.6054,-1.53459 -0.21754,-3.22186 -1.15569,-4.7326c-1.88495,-3.03539 -3.11517,-6.0872 -3.79763,-9.68017c-1.14972,-6.05297 -1.72494,-12.62989 -3.93613,-18.55295c-2.79759,-1.5681 -5.38746,-3.46413 -8.52621,-4.61877c-4.30763,-1.58464 -9.03257,-2.95071 -13.86043,-3.9696c-3.53387,0.9276 -7.23132,1.3423 -10.88442,1.80231c-4.967,0.62547 -9.90679,1.46303 -14.8535,2.24341c-1.26403,2.17618 -2.79715,4.20885 -4.10199,6.59894c-2.19989,4.02957 -3.11846,8.71875 -3.10889,13.23826v1.50263c0,0.77801 -0.64748,1.4087 -1.44617,1.4087c-0.72588,0 -1.32685,-0.52095 -1.43039,-1.19996l-0.38173,-2.23109l0.25901,-0.04205c-0.2369,-0.60064 -0.44717,-1.19839 -0.63882,-1.80066c-0.17398,1.10853 -0.36096,2.12369 -0.41512,2.84232c-0.37818,5.01884 -1.18278,10.06358 -1.02534,15.07651zM268.48528,139.77865c0.00033,0.01752 0.00067,0.03505 0.00104,0.05259c0.00485,-0.00257 0.00972,-0.00509 0.01461,-0.00761c-0.00524,-0.01499 -0.01045,-0.02998 -0.01565,-0.04497zM352.30671,169.69687c0.01742,0.00366 0.03484,0.00731 0.05226,0.01097c-0.00591,-0.03472 -0.01185,-0.06945 -0.01781,-0.10421c-0.01096,0.03116 -0.02244,0.06224 -0.03446,0.09325z" fill="#00cc24" stroke="#000000" stroke-width="0.5" stroke-linecap="butt"/><path d="M260.21245,148.85596l3.49467,-3.93406l17.86835,-2.56239l-14.49594,-2.83294l2.42603,-2.04552l23.21833,4.31199z" fill="#000000" stroke="#000000" stroke-width="0.5" stroke-linecap="butt"/><path d="M319.69345,142.82566l22.97657,-5.45544l2.52426,1.92298l-14.33803,3.54667l17.97325,1.67522l3.68503,3.75634z" data-paper-data="{&quot;index&quot;:null}" fill="#000000" stroke="#000000" stroke-width="0.5" stroke-linecap="butt"/><path d="M316.31165,161.15006c0.52915,1.18202 -0.52915,1.77301 -0.52915,1.77301l-0.69792,0.30551c-2.38801,0.32879 -4.71174,0.26146 -7.10332,0.70537c-1.87729,0.15745 -4.07637,0.56134 -5.6486,-1.0161c-2.59106,-2.59964 -3.71112,-7.59896 0.14481,-9.43755c2.24321,-1.0696 5.37743,-1.01507 7.75198,-0.62175c0.73205,0.12126 1.47556,0.85858 2.16387,0.55489c0.21249,-0.09376 1.09147,-4.72397 1.23885,-5.38436c0,0 0.28698,-1.28207 1.43488,-0.96156c1.1479,0.32052 0.86092,1.60258 0.86092,1.60258c-0.35953,1.60182 -0.88916,6.08983 -2.23193,6.94986c-1.23942,0.79383 -2.6203,0.05533 -3.83112,-0.14992c-1.77766,-0.30135 -3.37121,-0.13869 -5.13966,0.17301c-0.56838,0.10018 -2.34292,0.40244 -2.53932,1.37551c-0.13553,0.67151 0.63867,2.09517 0.83191,2.46039c1.23344,2.33125 2.4101,2.0315 4.67789,1.83123c2.38634,-0.44552 4.71699,-0.36707 7.09535,-0.70427l-0.06687,-0.04689c0,0 1.0583,-0.591 1.58746,0.591z" fill="#878787" stroke="none" stroke-width="0.5" stroke-linecap="butt"/><path d="M336.17654,174.69611c-0.31623,-0.94868 0.63246,-1.26491 0.63246,-1.26491l-0.01588,0.11658c2.41644,-2.02124 -0.97035,-5.29805 -2.62413,-6.47916c0,0 -0.81373,-0.58124 -0.2325,-1.39497c0.58124,-0.81373 1.39497,-0.2325 1.39497,-0.2325c2.97418,2.12469 5.92611,6.16984 2.87587,9.52084l-0.76588,0.36658c0,0 -0.94868,0.31623 -1.26491,-0.63246z" fill="#878686" stroke="none" stroke-width="0.5" stroke-linecap="butt"/><path d="M298.98645,177.29428c-0.1644,0.98639 -1.15079,0.82199 -1.15079,0.82199l-0.84872,-0.14663c-5.40338,-1.47866 -6.49311,-3.65836 -5.07665,-8.85288c0,0 0.26312,-0.96476 1.22788,-0.70165c0.96476,0.26312 0.70165,1.22788 0.70165,1.22788c-1.14627,4.20233 -0.7674,5.19042 3.67335,6.39712l0.65128,0.10337c0,0 0.98639,0.1644 0.82199,1.15079z" fill="#878686" stroke="none" stroke-width="0.5" stroke-linecap="butt"/><path d="M331.11429,170.30678c0.13962,0.7983 -0.69809,0.93135 -0.69809,0.93135l-0.77657,0.11218c-2.76315,0 -5.57422,0.7731 -8.33671,1.09905c-6.12794,1.45504 -12.99486,0.75987 -19.27679,1.42511c0,0 -0.84407,0.08937 -0.93786,-0.71499c-0.09378,-0.80436 0.75028,-0.89374 0.75028,-0.89374c6.23091,-0.65967 13.0778,0.04469 19.15248,-1.40748c2.86383,-0.34423 5.77937,-1.12656 8.6486,-1.12656l0.49733,-0.09015c0,0 0.83771,-0.13305 0.97733,0.66525z" fill="#8a0000" stroke="#670000" stroke-width="2.5" stroke-linecap="butt"/><path d="M343.0001,152.2757c0,3.58985 -5.07411,6.5 -11.33333,6.5c-6.25923,0 -11.33333,-2.91015 -11.33333,-6.5c0,-3.58985 5.07411,-6.5 11.33333,-6.5c6.25923,0 11.33333,2.91015 11.33333,6.5z" fill="#dca922" stroke="#000000" stroke-width="0.5" stroke-linecap="butt"/><path d="M295.6667,151.60905c0,3.58985 -5.07411,6.5 -11.33333,6.5c-6.25923,0 -11.33333,-2.91015 -11.33333,-6.5c0,-3.58985 5.07411,-6.5 11.33333,-6.5c6.25923,0 11.33333,2.91015 11.33333,6.5z" fill="#dca922" stroke="#000000" stroke-width="0.5" stroke-linecap="butt"/><g><path d="M280.12938,171.40204l56.62105,34.77624" fill="none" stroke="#000000" stroke-width="3.5" stroke-linecap="round"/><g data-paper-data="{&quot;index&quot;:null}" fill="#500190" stroke="#2c0050" stroke-width="2.5" stroke-linecap="butt"><path d="M280.79974,163.80166c1.48244,0.74903 1.05343,4.22312 -0.95831,7.75962c-2.01174,3.53651 -4.84431,5.79619 -6.32679,5.04719c-1.48245,-0.74902 -1.0534,-4.22312 0.95832,-7.75962c2.01172,-3.53652 4.84432,-5.79622 6.32679,-5.04721z"/><path d="M277.03731,169.3089c-2.01174,3.53651 -4.84432,5.79618 -6.32679,5.04719c-1.48245,-0.74902 -1.0534,-4.22312 0.95832,-7.75962c2.01174,-3.53651 4.84432,-5.79621 6.32679,-5.04719c1.48243,0.74904 1.05339,4.22312 -0.95831,7.75962z"/><path d="M274.78909,160.42327c1.48244,0.74906 1.05342,4.22312 -0.95832,7.75964c-2.01172,3.53649 -4.84434,5.79621 -6.32679,5.04719c-1.48245,-0.74902 -1.05341,-4.22316 0.95832,-7.75963c2.01172,-3.53652 4.84434,-5.79621 6.32679,-5.04719z"/><path d="M277.57385,175.68507c-0.59515,1.77768 -3.94066,2.57687 -7.47241,1.78501c-3.53173,-0.79185 -5.91232,-2.87488 -5.31717,-4.65254c0.59517,-1.77768 3.94066,-2.57686 7.47241,-1.78498c3.53173,0.79185 5.91231,2.87489 5.31718,4.65255z" data-paper-data="{&quot;index&quot;:null}"/></g></g><g data-paper-data="{&quot;index&quot;:null}" stroke="#2c0050" stroke-width="3.5" stroke-linecap="butt"><path d="M291.04409,311.84182c0,0 0.49843,-4.63061 1.12853,-6.97969c0.57332,-2.13735 7.85358,0.29502 8.30431,-1.38535c0.94613,-3.52722 2.18053,-11.82567 2.18053,-11.82567l15.15111,3.58698l-6.71088,22.24584z" fill="#500190"/><path d="M301.88851,290.742c0.4852,-1.80888 4.7268,-2.9855 9.2765,-1.82756c2.30793,0.58739 6.96036,-1.05518 8.29289,-0.06657c1.29434,0.96029 -0.9647,5.55496 -1.20382,6.44624c-0.4852,1.80888 -4.56679,2.33657 -9.11651,1.17866c-4.54967,-1.15793 -7.8446,-3.56302 -7.35936,-5.37192z" fill="#979025"/></g><g data-paper-data="{&quot;index&quot;:null}" stroke="#2c0050" stroke-width="3.5" stroke-linecap="butt"><path d="M281.66616,346.67787c0,0 -0.818,-4.58495 -0.87078,-7.0165c-0.04803,-2.21238 7.62208,-1.91562 7.58432,-3.65499c-0.07928,-3.65105 -1.21766,-11.9632 -1.21766,-11.9632l15.54944,-0.79851l-0.21409,23.23505z" fill="#500190"/><path d="M286.16934,323.38569c-0.04065,-1.8724 3.70186,-4.18951 8.39381,-4.35172c2.38006,-0.08227 6.38656,-2.96174 7.94259,-2.38575c1.51144,0.5595 0.62916,5.60289 0.64916,6.52548c0.04065,1.8724 -3.72996,3.52174 -8.42189,3.68396c-4.69191,0.16219 -8.52842,-1.22419 -8.56906,-3.0966z" fill="#979025"/></g><path d="M147.57997,320.92845c0,0 -1.58683,-10.47453 -0.30567,-21.40566c-1.10796,-9.73837 -0.14966,-29.3269 -0.14966,-29.3269" fill="none" stroke="#000000" stroke-width="3.5" stroke-linecap="round"/><path d="M103.19556,269.95412c0,0 1.79843,4.03372 4.36881,2.98611c4.78238,-1.94916 14.24071,-7.58743 21.86225,-12.42981c0.57222,0.45042 3.37038,23.52976 3.37038,23.52976" fill="none" stroke="#000000" stroke-width="3.5" stroke-linecap="round"/><g data-paper-data="{&quot;index&quot;:null}" stroke="#121312" stroke-width="3.5" stroke-linecap="butt"><path d="M131.52657,310.01053l-4.27769,-21.68777l15.96637,-2.34228c0,0 0.29366,7.99999 0.85092,11.43035c0.15575,0.95869 3.21365,0.67508 5.51483,0.74604c1.62152,0.05 2.70384,0.3063 2.84343,1.16554c0.37111,2.28453 0.33963,6.73508 0.33963,6.73508z" fill="#383838"/><path d="M144.18187,285.51838c0.28579,1.75921 -3.37693,3.81798 -8.18089,4.59839c-4.80399,0.78042 -8.93003,-0.01305 -9.21583,-1.77227c-0.14082,-0.86682 -1.92006,-5.40831 -0.47943,-6.23183c1.48314,-0.84782 6.06422,1.04926 8.50114,0.65336c4.80399,-0.78042 9.08924,0.99314 9.37504,2.75235z" fill="#979025"/></g><g stroke="#121312" stroke-width="3.5" stroke-linecap="butt"><path d="M138.95855,345.7835l-0.07921,-22.10546l16.12058,0.73392c0,0 -1.23166,7.91005 -1.33627,11.38381c-0.04985,1.6549 7.90621,1.35986 7.84281,3.46479c-0.06969,2.31342 -0.94614,6.67693 -0.94614,6.67693z" fill="#383838"/><path d="M156.03672,324.1419c-0.05366,1.78145 -4.04079,3.10681 -8.90555,2.96029c-4.86474,-0.14652 -8.76492,-1.70947 -8.71125,-3.49092c0.02643,-0.87778 -0.85754,-5.6746 0.71332,-6.20941c1.6172,-0.55058 5.75442,2.18228 8.22214,2.25662c4.86474,0.14652 8.735,2.70196 8.68135,4.48342z" fill="#979025"/></g><g><path d="M187.72486,246.53848l-36.92848,-49.40834" data-paper-data="{&quot;index&quot;:null}" fill="none" stroke="#383838" stroke-width="3.5" stroke-linecap="round"/><g data-paper-data="{&quot;index&quot;:null}" fill="#393839" stroke="#131313" stroke-width="2.5" stroke-linecap="butt"><path d="M187.39078,246.2238c4.03714,-1.36678 7.81352,-0.89951 8.43476,1.04372c0.62124,1.94322 -2.14787,4.62654 -6.18502,5.99335c-4.03714,1.36678 -7.81352,0.89951 -8.43476,-1.04372c-0.62124,-1.94322 2.14787,-4.62654 6.18502,-5.99335z"/><path d="M187.97969,250.63427c4.03714,-1.36678 7.81352,-0.89951 8.43476,1.04372c0.62124,1.94322 -2.14787,4.62654 -6.18502,5.99335c-4.03714,1.36678 -7.81352,0.89951 -8.43476,-1.04372c-0.62124,-1.94322 2.14787,-4.62654 6.18501,-5.99334z"/><path d="M189.67009,254.40293c4.03714,-1.36678 7.81352,-0.89951 8.43476,1.04372c0.62124,1.94322 -2.14789,4.62655 -6.18502,5.99335c-4.03714,1.36678 -7.81352,0.89951 -8.43476,-1.04372c-0.62124,-1.94322 2.14787,-4.62654 6.18502,-5.99335z"/><path d="M192.03787,244.56223c1.70749,-1.04757 4.85597,1.14852 7.03234,4.90513c2.17636,3.75659 2.55648,7.65113 0.84899,8.69872c-1.70749,1.04757 -4.85596,-1.14854 -7.03234,-4.90513c-2.17636,-3.75659 -2.55648,-7.65113 -0.849,-8.6987z" data-paper-data="{&quot;index&quot;:null}"/></g></g><g stroke="none" stroke-width="0" stroke-linecap="butt"><path d="M99.39382,271.07497v-77.91284h54.11557v77.91284z" fill="#000000"/><path d="M99.31051,262.22488v-8.17446h54.11557v8.17446z" fill="#a17f00"/><g fill="#ca9e00"><path d="M120.94874,262.22287v-13.53896h3.55972v13.53896z"/><path d="M121.68556,262.33685v-7.66356h10.35556v7.66356z"/><path d="M129.2008,259.66835v-11.49533h2.9125v11.49533z"/><path d="M129.56561,257.92674v-3.07749h15.66664l-1.94931,6.61088c0,0 -0.76046,-4.50669 -3.0715,-3.74135c-2.49998,0.82792 -2.79143,2.94348 -4.29254,2.94348c-0.54892,0 -0.41234,-2.19028 -1.26289,-2.54196c-0.8012,-0.33128 -1.08222,2.42668 -1.98558,2.43369c-1.29357,0.01005 -3.10482,-2.62728 -3.10482,-2.62728z"/><path d="M121.09242,260.51322c-0.90336,-0.00702 -1.18438,-2.76496 -1.98558,-2.43369c-0.85055,0.35168 -0.71397,2.54194 -1.26289,2.54194c-1.50111,0 -1.79256,-2.11555 -4.29255,-2.94348c-2.31104,-0.76535 -3.0715,3.74135 -3.0715,3.74135l-1.9493,-6.61088h15.66664v3.07749c0,0 -1.81125,2.63733 -3.10482,2.62728z" data-paper-data="{&quot;index&quot;:null}"/></g><g fill="#ca9e00"><path d="M119.70784,219.77581l0.11076,-22.0875h4.02574l0.11076,22.0875z"/><path d="M120.58699,219.95216v-11.85719h12.35568v11.85719z"/><path d="M129.55374,215.82342v-17.78579h3.47503v17.78579z"/><path d="M129.98903,213.12877v-4.76154h18.69257l-2.3258,10.22848c0,0 -0.90734,-6.97283 -3.66474,-5.78866c-2.98284,1.28097 -3.33059,4.5542 -5.12163,4.5542c-0.65494,0 -0.49198,-3.38884 -1.50681,-3.93296c-0.95594,-0.51255 -1.29124,3.7546 -2.36908,3.76546c-1.54342,0.01555 -3.70451,-4.06497 -3.70451,-4.06497z"/><path d="M119.87927,217.13062c-1.07784,-0.01086 -1.41314,-4.278 -2.36908,-3.76545c-1.01483,0.54412 -0.85187,3.93296 -1.50681,3.93296c-1.79104,0 -2.13878,-3.27322 -5.12163,-4.55419c-2.7574,-1.18416 -3.66474,5.78866 -3.66474,5.78866l-2.3258,-10.22848h18.69257v4.76153c0,0 -2.16109,4.08052 -3.70451,4.06497z" data-paper-data="{&quot;index&quot;:null}"/></g></g><g stroke="none" stroke-linecap="butt"><path d="M168.56381,150.21783c0,22.25487 -17.96444,40.29602 -40.12469,40.29602c-22.16026,0 -40.12469,-18.04114 -40.12469,-40.29602c0,-22.25487 17.96444,-40.29601 40.12469,-40.29601c22.16026,0 40.12469,18.04113 40.12469,40.29601z" fill="#000000" stroke-width="0"/><path d="M149.54885,142.7556l0.64458,-39.13523l10.31318,-24.21077v63.34601z" fill="#000000" stroke-width="0"/><path d="M95.4505,144.46098v-63.346l10.31318,24.21077l0.64457,39.13522z" data-paper-data="{&quot;index&quot;:null}" fill="#000000" stroke-width="0"/><path d="M111.51903,182.22248l-7.09031,-21.88919h51.24359l-8.37945,20.89423z" fill="#d9b796" stroke-width="0"/><path d="M111.84131,150.88113c0,2.83909 -4.32878,5.14064 -9.6686,5.14064c-5.33982,0 -9.6686,-2.30155 -9.6686,-5.14064c0,-2.83909 4.32878,-5.14064 9.6686,-5.14064c5.33982,0 9.6686,2.30155 9.6686,5.14064z" fill="#ffffff" stroke-width="0"/><path d="M163.13069,151.92321c0,2.83909 -4.32878,5.14064 -9.6686,5.14064c-5.33982,0 -9.6686,-2.30155 -9.6686,-5.14064c0,-2.83909 4.32878,-5.14065 9.6686,-5.14065c5.33982,0 9.6686,2.30155 9.6686,5.14065z" fill="#ffffff" stroke-width="0"/><path d="M143.58873,170.93781c0,1.28633 -1.25,1.28633 -1.25,1.28633h-1.24118c-8.05477,0 -16.04077,0.51091 -24.07895,0.51091c0,0 -1.25,0 -1.25,-1.28633c0,-1.28633 1.25,-1.28633 1.25,-1.28633c8.03765,0 16.02432,-0.51091 24.07895,-0.51091h1.24118c0,0 1.25,0 1.25,1.28633z" fill="#000000" stroke-width="0.5"/><path d="M143.41224,174.99186c-0.46424,-1.19433 0.69636,-1.67207 0.69636,-1.67207l1.07607,-0.42797c1.73066,-1.44122 3.14702,-3.52157 0.90224,-5.50069c-0.51696,-0.45579 -2.43233,0.08842 -3.00658,0.20989c0,0 -1.22573,0.25227 -1.47087,-1.00908c-0.24515,-1.26136 0.98058,-1.51362 0.98058,-1.51362c1.41538,-0.28467 3.63322,-0.74574 4.93699,0.20989c1.66902,1.22334 2.86113,4.78739 1.89704,6.71545c-0.72393,1.44775 -1.80953,2.15425 -2.9807,3.11097l-1.40629,0.59384c0,0 -1.1606,0.47773 -1.62484,-0.7166z" fill="#000000" stroke-width="0.5"/><path d="M118.51685,175.53594c0,1.28633 -1.25,1.28633 -1.25,1.28633l-1.23809,-0.02497c-6.01717,-1.26286 -7.03908,-9.70187 -0.49648,-11.20808c0,0 1.22573,-0.25227 1.47087,1.00908c0.24514,1.26136 -0.98058,1.51362 -0.98058,1.51362c-4.067,0.67924 -2.77793,5.50466 0.49648,6.16267l0.7478,-0.02497c0,0 1.25,0 1.25,1.28633z" fill="#000000" stroke-width="0.5"/><path d="M136.02373,165.46108c-2.48264,2.40423 -5.88291,1.65708 -9.03295,1.12561c0,0 -1.23299,-0.21147 -1.02749,-1.4803c0.2055,-1.26882 1.43849,-1.05736 1.43849,-1.05736c2.02027,0.35297 5.35568,1.30234 6.85419,-0.4071l0.56579,-0.7957c-0.49478,-2.28126 -1.52111,-4.38228 -1.90785,-6.76861c0,0 -0.20549,-1.26882 1.0275,-1.4803c1.23299,-0.21147 1.43849,1.05736 1.43849,1.05736c0.40843,2.52354 1.48298,4.66021 1.97863,7.11186l0.02427,0.50772c0,0 0.00001,0.74858 -0.55493,1.10362z" fill="#000000" stroke-width="0.5"/></g><g><path d="M151.74273,166.43427l-50.10321,35.02767" fill="none" stroke="#383838" stroke-width="3.5" stroke-linecap="round"/><g fill="#393839" stroke="#131313" stroke-width="2.5" stroke-linecap="butt"><path d="M147.27888,158.94087c1.18119,-1.64539 4.9099,-0.8726 8.3283,1.72612c3.41839,2.59873 5.23201,6.03925 4.05081,7.68463c-1.18119,1.64539 -4.9099,0.8726 -8.3283,-1.72612c-3.41839,-2.59873 -5.23201,-6.03925 -4.05081,-7.68463z"/><path d="M149.17996,154.94184c1.18119,-1.64539 4.9099,-0.8726 8.3283,1.72612c3.41839,2.59873 5.23201,6.03926 4.05083,7.68465c-1.18119,1.64539 -4.90992,0.87259 -8.32831,-1.72613c-3.41839,-2.59873 -5.23199,-6.03926 -4.05081,-7.68463z"/><path d="M151.93187,151.9072c1.18119,-1.64539 4.9099,-0.8726 8.3283,1.72612c3.41839,2.59873 5.23201,6.03925 4.05081,7.68463c-1.18119,1.64539 -4.9099,0.8726 -8.3283,-1.72612c-3.41839,-2.59873 -5.23199,-6.03926 -4.05081,-7.68463z"/><path d="M158.69036,161.71278c3.20981,-2.86661 6.86812,-3.93798 8.17107,-2.39298c1.30295,1.545 -0.24284,5.1213 -3.45265,7.98792c-3.20981,2.86661 -6.86812,3.93797 -8.17107,2.39298c-1.30295,-1.545 0.24284,-5.12132 3.45265,-7.98792z" data-paper-data="{&quot;index&quot;:null}"/></g></g></g></svg>