<svg version="1.1" xmlns="http://www.w3.org/2000/svg" xmlns:xlink="http://www.w3.org/1999/xlink" width="489" height="370" viewBox="0,0,489,370"><g transform="translate(5,5.5)"><g data-paper-data="{&quot;isPaintingLayer&quot;:true}" fill-rule="nonzero" stroke-linejoin="miter" stroke-miterlimit="10" stroke-dasharray="" stroke-dashoffset="0" style="mix-blend-mode: normal"><path d="M-5,364.5v-370h489v370z" fill="#ffffff" stroke="none" stroke-width="0" stroke-linecap="butt"/><g stroke="none" stroke-width="1" stroke-linecap="butt"><path d="M314.51292,182.66245c0,0 -4.41683,-1.65631 -1.34959,-3.61934c3.43531,-2.14707 16.62445,-0.42941 8.895,3.92607c0,0 2.3311,31.77662 4.7849,40.67162c0.85883,3.0059 -5.82776,3.98741 -10.36727,3.74203c-5.45969,-0.30672 -6.50255,-1.84034 -6.01179,-3.80338c0.79748,-2.94455 3.98741,-34.96655 4.04876,-40.91699z" fill="#cae8de"/><path d="M311.81374,224.25424c1.96303,-13.80258 1.53362,-26.56231 2.76052,-28.95475c0.79748,-1.59497 6.19583,-1.2269 7.42272,0.30672c0.98152,1.16555 1.53362,20.85724 3.37397,28.40265c0.61345,2.69917 -13.98662,3.31262 -13.55721,0.24538z" fill="#6136ab"/><path d="M314.45157,195.48352c0.12269,-1.65631 6.68659,-1.53362 7.54541,0.12269c-0.06134,1.04286 -7.6681,0.61345 -7.54541,-0.12269z" fill="#8440cc"/><path d="M325.37095,224.0702c0.42941,2.63783 -12.63703,3.12859 -13.55721,0.5521c-0.18403,-0.30672 -0.24538,-1.2269 6.19583,-1.65631c7.48407,-0.49076 7.36138,1.10421 7.36138,1.10421z" fill="#3d2087"/><path d="M322.85581,179.84059c0,0.61345 -1.84034,1.2269 -4.60086,1.2269c-2.76052,0 -4.7849,-0.24538 -4.7849,-0.85883c0,-0.61345 2.02438,-1.47228 4.84624,-1.47228c2.82186,0 4.53952,0.49076 4.53952,1.10421z" fill="#b6cfd1"/><path d="M322.85581,179.84059c0,0 0,0.06134 0,0.12269c0,0.06134 -0.06134,0.18403 -0.18403,0.24538c-0.12269,0.06134 -0.24538,0.18403 -0.42941,0.24538c-0.18403,0.06134 -0.36807,0.12269 -0.61345,0.18403c-0.42941,0.12269 -0.98152,0.18403 -1.59497,0.24538c-0.61345,0.06134 -1.2269,0.06134 -1.84034,0.12269c-0.61345,0 -1.2269,0 -1.84034,-0.06134c-0.61345,0 -1.10421,-0.12269 -1.59497,-0.18403c-0.42941,0 -0.79748,-0.12269 -1.04286,-0.24538c-0.12269,-0.06134 -0.18403,-0.12269 -0.24538,-0.24538c-0.06134,-0.06134 0,-0.12269 0,-0.12269c0,0 0,0.06134 0,0.12269c0.06134,0.06134 0.12269,0.12269 0.24538,0.18403c0.30672,0.12269 0.67479,0.18403 1.10421,0.18403c0.49076,0.06134 1.04286,0.06134 1.59497,0.06134c0.5521,0 1.16555,0 1.84034,0c0.61345,0 1.2269,0 1.84034,-0.06134c0.5521,-0.06134 1.10421,-0.06134 1.59497,-0.18403c0.42941,-0.06134 0.85883,-0.18403 1.04286,-0.30672c0.12269,-0.06134 0.18403,-0.12269 0.18403,-0.24538z" fill="#96b7c4"/><path d="M313.40871,182.23304c0,0 0.24538,0.12269 0.5521,0.24538c0.36807,0.06134 0.79748,0.24538 1.28824,0.36807c0.24538,0.06134 0.49076,0.12269 0.67479,0.12269c0.24538,0.06134 0.42941,0.06134 0.61345,0.12269c0.18403,0.06134 0.30672,0.06134 0.42941,0.06134c0.12269,0 0.18403,0.06134 0.18403,0.06134c0,0 -0.24538,0.06134 -0.61345,0.06134c-0.18403,0 -0.42941,0 -0.61345,0c-0.24538,0 -0.49076,-0.06134 -0.73614,-0.12269c-0.49076,-0.12269 -0.98152,-0.36807 -1.28824,-0.5521c-0.30672,-0.18403 -0.49076,-0.36807 -0.49076,-0.36807z" fill="#96b7c4"/><path d="M324.38943,180.45404c0,0 0,0.36807 -0.24538,0.85883c-0.12269,0.24538 -0.30672,0.5521 -0.5521,0.79748c-0.24538,0.24538 -0.5521,0.49076 -0.85883,0.67479c-0.30672,0.18403 -0.67479,0.30672 -0.98152,0.36807c-0.18403,0.06134 -0.30672,0.06134 -0.49076,0.06134c-0.18403,0 -0.30672,0 -0.42941,0c-0.24538,0.06134 -0.49076,0 -0.67479,0c-0.18403,0 -0.24538,0 -0.24538,0c0,0 0.06134,0 0.24538,-0.06134c0.18403,0 0.36807,-0.06134 0.61345,-0.06134c0.12269,0 0.24538,-0.06134 0.42941,-0.06134c0.12269,-0.06134 0.30672,-0.06134 0.42941,-0.12269c0.18403,-0.06134 0.30672,-0.12269 0.49076,-0.18403c0.18403,-0.06134 0.30672,-0.12269 0.49076,-0.24538c0.12269,-0.12269 0.30672,-0.18403 0.42941,-0.30672c0.12269,-0.12269 0.24538,-0.18403 0.36807,-0.30672c0.24538,-0.24538 0.42941,-0.42941 0.5521,-0.67479c0.30672,-0.36807 0.42941,-0.73614 0.42941,-0.73614z" fill="#96b7c4"/><path d="M313.22468,180.20866c0,0 -0.06134,0.06134 -0.06134,0.24538c0,0.06134 0,0.18403 0.06134,0.24538c0.06134,0.12269 0.18403,0.18403 0.30672,0.24538c0.12269,0.12269 0.24538,0.18403 0.36807,0.24538c0.12269,0.06134 0.30672,0.06134 0.49076,0.12269c0.36807,0.06134 0.73614,0.12269 1.10421,0.18403c0.18403,0.06134 0.36807,0.06134 0.5521,0.06134c0.18403,0 0.36807,0.06134 0.5521,0.06134c0.36807,0 0.73614,0.06134 0.98152,0.06134c0.61345,0.06134 0.98152,0.06134 0.98152,0.06134c0,0 -0.24538,0.06134 -0.85883,0.12269c-0.30672,0 -0.67479,0 -1.04286,0c-0.18403,0 -0.36807,0 -0.5521,0c-0.18403,-0.06134 -0.42941,-0.06134 -0.61345,-0.06134c-0.36807,-0.06134 -0.79748,-0.12269 -1.16555,-0.24538c-0.18403,-0.06134 -0.36807,-0.12269 -0.49076,-0.18403c-0.18403,-0.06134 -0.30672,-0.18403 -0.42941,-0.24538c-0.12269,-0.12269 -0.24538,-0.24538 -0.24538,-0.36807c-0.06134,-0.12269 -0.06134,-0.24538 -0.06134,-0.30672c0,-0.18403 0.12269,-0.24538 0.12269,-0.24538z" fill="#ffffff"/><path d="M315.49443,219.16262c0,0 0.06134,0 0.18403,0c0.12269,0 0.30672,0.06134 0.42941,0.18403c0.06134,0.06134 0.12269,0.18403 0.12269,0.30672v0.12269v0.06134c0,0.06134 -0.06134,0.12269 -0.06134,0.18403c-0.12269,0.24538 -0.36807,0.36807 -0.61345,0.42941c-0.12269,0 -0.30672,0 -0.42941,-0.06134c-0.12269,-0.06134 -0.24538,-0.18403 -0.30672,-0.30672c-0.06134,-0.12269 -0.12269,-0.30672 -0.06134,-0.36807c0,-0.12269 0.06134,-0.24538 0.12269,-0.36807c0.18403,-0.12269 0.36807,-0.18403 0.42941,-0.18403c0.12269,0 0.18403,0 0.18403,0zM315.49443,219.16262c0,0 -0.06134,0 -0.18403,0.06134c-0.12269,0.06134 -0.18403,0.18403 -0.24538,0.30672c0,0.06134 -0.06134,0.12269 -0.06134,0.18403c0,0.12269 0,0.18403 0.06134,0.24538c0,0.06134 0.06134,0.12269 0.18403,0.18403c0.06134,0.06134 0.18403,0.12269 0.30672,0.12269c0.12269,0 0.24538,0 0.30672,-0.06134c0.06134,-0.06134 0.12269,-0.18403 0.18403,-0.24538c0,-0.06134 0,-0.18403 0,-0.24538c0,-0.06134 -0.06134,-0.12269 -0.06134,-0.24538c-0.12269,-0.12269 -0.24538,-0.24538 -0.30672,-0.24538c-0.12269,-0.06134 -0.18403,-0.06134 -0.18403,-0.06134z" fill="#ad9cff"/><path d="M323.10119,217.38362c0,0 0,0.12269 -0.12269,0.30672c-0.06134,0.06134 -0.06134,0.06134 -0.12269,0.06134c-0.06134,0 -0.12269,0 -0.18403,0c-0.18403,0 -0.30672,-0.18403 -0.30672,-0.36807c0,-0.06134 0.06134,-0.18403 0.06134,-0.24538c0.06134,-0.06134 0.12269,-0.12269 0.18403,-0.12269c0.12269,-0.06134 0.30672,0 0.36807,0.12269c0.18403,0.12269 0.12269,0.24538 0.12269,0.24538zM323.10119,217.38362c0,-0.12269 -0.06134,-0.18403 -0.12269,-0.18403c-0.06134,0 -0.18403,0 -0.24538,0.06134l-0.06134,0.06134c0,0.06134 0,0.06134 0,0.12269c0,0.06134 0,0.12269 0.06134,0.18403c0,0 0.06134,0.06134 0.12269,0.06134c0.06134,0 0.06134,0 0.12269,0c0.06134,0 0.12269,-0.12269 0.12269,-0.12269c0,-0.12269 0,-0.18403 0,-0.18403z" fill="#ad9cff"/><path d="M321.75161,217.87438c0,0 -0.12269,0.06134 -0.36807,0.18403c-0.24538,0.12269 -0.61345,0.24538 -1.04286,0.06134c-0.24538,-0.06134 -0.42941,-0.18403 -0.61345,-0.42941c-0.06134,-0.06134 -0.06134,-0.12269 -0.12269,-0.18403c0,-0.06134 -0.06134,-0.12269 -0.06134,-0.18403c-0.06134,-0.12269 -0.12269,-0.24538 -0.12269,-0.42941c-0.06134,-0.5521 0.12269,-1.16555 0.61345,-1.53362c0.24538,-0.18403 0.5521,-0.30672 0.85883,-0.36807c0.30672,0 0.61345,0.06134 0.85883,0.18403c0.24538,0.12269 0.49076,0.36807 0.61345,0.61345c0.12269,0.24538 0.18403,0.49076 0.18403,0.73614c0,0.49076 -0.24538,0.79748 -0.42941,0.98152c-0.24538,0.24538 -0.36807,0.36807 -0.36807,0.36807zM321.69026,217.81303c0,0 0,0 0.06134,-0.06134c0.06134,-0.06134 0.12269,-0.12269 0.18403,-0.18403c0.12269,-0.18403 0.24538,-0.5521 0.18403,-0.92017c0,-0.18403 -0.06134,-0.36807 -0.18403,-0.5521c-0.12269,-0.18403 -0.24538,-0.36807 -0.49076,-0.49076c-0.42941,-0.24538 -0.98152,-0.24538 -1.41093,0c-0.24538,0.12269 -0.42941,0.36807 -0.49076,0.61345c-0.12269,0.24538 -0.12269,0.5521 0,0.79748c0.06134,0.24538 0.24538,0.42941 0.36807,0.61345c0.18403,0.18403 0.30672,0.24538 0.49076,0.36807c0.36807,0.18403 0.73614,0.18403 0.98152,0.06134c0.12269,-0.06134 0.18403,-0.06134 0.24538,-0.12269c0.06134,-0.12269 0.06134,-0.12269 0.06134,-0.12269z" fill="#ad9cff"/><path d="M319.4205,213.94831c0,0 -0.06134,0.06134 -0.18403,0.06134c-0.12269,0.06134 -0.30672,0.12269 -0.5521,0.06134c-0.12269,-0.06134 -0.24538,-0.12269 -0.30672,-0.24538c0,-0.06134 -0.06134,-0.06134 -0.06134,-0.12269c0,0 0,-0.06134 -0.06134,-0.12269c0,-0.06134 0,-0.12269 0,-0.24538c0,-0.30672 0.12269,-0.5521 0.42941,-0.79748c0.12269,-0.12269 0.30672,-0.18403 0.42941,-0.18403c0.18403,0 0.30672,0.06134 0.49076,0.12269c0.12269,0.06134 0.24538,0.24538 0.30672,0.36807c0.06134,0.12269 0.06134,0.30672 0.06134,0.42941c-0.06134,0.24538 -0.24538,0.36807 -0.30672,0.49076c-0.18403,0.18403 -0.24538,0.18403 -0.24538,0.18403zM319.4205,213.94831c0,0 0.06134,-0.06134 0.12269,-0.12269c0.06134,-0.12269 0.12269,-0.24538 0.12269,-0.42941c0,-0.06134 -0.06134,-0.18403 -0.06134,-0.24538c-0.06134,-0.12269 -0.12269,-0.18403 -0.18403,-0.24538c-0.06134,-0.06134 -0.18403,-0.12269 -0.30672,-0.12269c-0.12269,0 -0.24538,0 -0.36807,0.06134c-0.12269,0.06134 -0.24538,0.12269 -0.30672,0.24538c-0.06134,0.12269 -0.06134,0.24538 -0.06134,0.36807c0,0.12269 0.12269,0.18403 0.18403,0.30672c0.06134,0.06134 0.12269,0.12269 0.18403,0.18403c0.12269,0.12269 0.30672,0.18403 0.42941,0.12269c0.18403,-0.06134 0.24538,-0.12269 0.24538,-0.12269z" fill="#ad9cff"/><path d="M317.58016,207.87517c0,0 0,0.18403 -0.18403,0.36807c-0.06134,0.06134 -0.12269,0.06134 -0.18403,0.12269c-0.06134,0 -0.18403,0 -0.24538,0c-0.18403,-0.06134 -0.36807,-0.24538 -0.36807,-0.49076c0,-0.12269 0.06134,-0.24538 0.12269,-0.30672c0.06134,-0.06134 0.18403,-0.12269 0.24538,-0.18403c0.18403,-0.06134 0.36807,0 0.42941,0.12269c0.18403,0.18403 0.18403,0.36807 0.18403,0.36807zM317.58016,207.87517c0,0 0,-0.06134 0,-0.12269c0,-0.06134 -0.06134,-0.18403 -0.18403,-0.18403c-0.12269,-0.06134 -0.24538,-0.06134 -0.30672,0.06134c-0.06134,0.06134 -0.06134,0.06134 -0.12269,0.12269c0,0.06134 -0.06134,0.06134 -0.06134,0.12269c0,0.12269 0.06134,0.18403 0.12269,0.30672c0.06134,0 0.12269,0 0.18403,0c0.06134,0 0.12269,0 0.18403,0c0.12269,-0.06134 0.18403,-0.12269 0.18403,-0.18403c0,-0.06134 0,-0.12269 0,-0.12269z" fill="#ad9cff"/><path d="M315.98519,218.11976c0,0 -0.18403,-0.06134 -0.24538,-0.30672c0,-0.06134 0,-0.12269 0,-0.24538c0,-0.06134 0.06134,-0.18403 0.12269,-0.24538c0.12269,-0.18403 0.36807,-0.18403 0.5521,-0.12269c0.06134,0.06134 0.18403,0.12269 0.24538,0.24538c0.06134,0.12269 0.06134,0.18403 0.06134,0.30672c-0.06134,0.18403 -0.18403,0.30672 -0.30672,0.36807c-0.24538,0.06134 -0.42941,-0.06134 -0.42941,0zM315.98519,218.11976c0,0 0.06134,0 0.12269,0c0.06134,0 0.18403,0 0.24538,-0.06134c0.12269,-0.06134 0.12269,-0.18403 0.12269,-0.30672c0,-0.06134 -0.06134,-0.12269 -0.06134,-0.12269c-0.06134,-0.06134 -0.06134,-0.06134 -0.12269,-0.12269c-0.06134,-0.06134 -0.18403,-0.06134 -0.30672,0c-0.06134,0 -0.12269,0.06134 -0.12269,0.12269c0,0.06134 -0.06134,0.12269 -0.06134,0.18403c0,0.12269 0.06134,0.18403 0.12269,0.24538c0.06134,0 0.06134,0.06134 0.06134,0.06134z" fill="#ad9cff"/><path d="M315.80116,186.22045c0,0 0,0.5521 0,1.59497c0,0.98152 0,2.39245 -0.06134,4.1101c-0.06134,1.71765 -0.12269,3.68069 -0.18403,5.82776c-0.12269,2.14707 -0.24538,4.41683 -0.42941,6.68659c-0.18403,2.26976 -0.42941,4.53952 -0.61345,6.68659c-0.12269,1.04286 -0.24538,2.08572 -0.36807,3.06724c-0.12269,0.98152 -0.24538,1.90169 -0.36807,2.76052c-0.18403,1.71765 -0.42941,3.12859 -0.61345,4.1101c-0.12269,0.98152 -0.24538,1.53362 -0.24538,1.53362c0,0 0.06134,-0.5521 0.18403,-1.53362c0.12269,-0.98152 0.24538,-2.39245 0.49076,-4.1101c0.06134,-0.85883 0.18403,-1.779 0.30672,-2.76052c0.12269,-0.98152 0.18403,-2.02438 0.30672,-3.06724c0.18403,-2.14707 0.42941,-4.41683 0.5521,-6.62524c0.18403,-2.26976 0.36807,-4.53952 0.49076,-6.68659c0.12269,-2.14707 0.24538,-4.1101 0.30672,-5.82776c0.18403,-3.49665 0.24538,-5.76641 0.24538,-5.76641z" fill="#ffffff"/><path d="M318.00957,227.38283c0,0 0.49076,0 1.28824,-0.12269c0.79748,-0.12269 2.02438,-0.24538 3.37397,-0.5521c0.67479,-0.18403 1.41093,-0.36807 2.14707,-0.73614c0.36807,-0.18403 0.73614,-0.36807 1.04286,-0.61345c0.30672,-0.24538 0.5521,-0.61345 0.67479,-0.98152c0.06134,-0.36807 -0.06134,-0.79748 -0.18403,-1.28824c-0.12269,-0.42941 -0.24538,-0.92017 -0.30672,-1.34959c-0.18403,-0.92017 -0.36807,-1.84034 -0.5521,-2.82186c-0.30672,-1.90169 -0.5521,-3.80338 -0.79748,-5.58238c-0.18403,-1.779 -0.36807,-3.43531 -0.49076,-4.84624c-0.24538,-2.82186 -0.36807,-4.7849 -0.36807,-4.7849c0,0 0.18403,1.90169 0.49076,4.72355c0.18403,1.41093 0.36807,3.06724 0.61345,4.84624c0.24538,1.779 0.49076,3.68069 0.79748,5.52103c0.18403,0.92017 0.36807,1.90169 0.5521,2.76052c0.06134,0.42941 0.18403,0.92017 0.30672,1.34959c0.06134,0.24538 0.12269,0.42941 0.18403,0.67479c0.06134,0.24538 0.06134,0.49076 0,0.73614c-0.12269,0.49076 -0.42941,0.85883 -0.73614,1.16555c-0.36807,0.30672 -0.73614,0.49076 -1.10421,0.67479c-0.79748,0.30672 -1.53362,0.49076 -2.20841,0.67479c-1.41093,0.30672 -2.57648,0.36807 -3.43531,0.42941c-0.79748,0.12269 -1.28824,0.12269 -1.28824,0.12269z" fill="#96b7c4"/><path d="M318.3163,226.21727c0,0 0.36807,0 1.04286,-0.06134c0.67479,-0.06134 1.59497,-0.18403 2.69917,-0.36807c0.5521,-0.12269 1.10421,-0.24538 1.71765,-0.49076c0.30672,-0.12269 0.61345,-0.24538 0.85883,-0.42941c0.24538,-0.18403 0.42941,-0.42941 0.42941,-0.73614c-0.12269,-0.67479 -0.24538,-1.41093 -0.36807,-2.08572c-0.12269,-0.73614 -0.18403,-1.47228 -0.30672,-2.20841c-0.42941,-2.94455 -0.73614,-5.95045 -0.92017,-8.15886c-0.18403,-2.20841 -0.24538,-3.74203 -0.24538,-3.74203c0,0 0.12269,1.47228 0.42941,3.74203c0.24538,2.20841 0.61345,5.21431 1.04286,8.15886c0.12269,0.73614 0.24538,1.47228 0.30672,2.20841c0.06134,0.36807 0.12269,0.73614 0.18403,1.10421c0.06134,0.36807 0.12269,0.67479 0.18403,1.10421c0,0.42941 -0.30672,0.73614 -0.5521,0.98152c-0.30672,0.18403 -0.61345,0.36807 -0.92017,0.49076c-0.61345,0.24538 -1.2269,0.36807 -1.779,0.42941c-1.10421,0.18403 -2.02438,0.24538 -2.69917,0.24538c-0.73614,-0.18403 -1.10421,-0.18403 -1.10421,-0.18403z" fill="#1a1d3d"/><path d="M325.37095,224.0702c0,0 0,-0.06134 -0.06134,-0.12269c-0.06134,-0.06134 -0.12269,-0.12269 -0.24538,-0.18403c-0.12269,-0.06134 -0.30672,-0.12269 -0.49076,-0.18403c-0.18403,-0.06134 -0.42941,-0.12269 -0.67479,-0.18403c-0.49076,-0.12269 -1.04286,-0.18403 -1.71765,-0.18403c-0.61345,-0.06134 -1.28824,-0.06134 -1.96303,-0.06134c-0.67479,0 -1.34959,0 -1.96303,0c-0.61345,0 -1.2269,0.06134 -1.71765,0.06134c-0.98152,0.06134 -1.65631,0.06134 -1.65631,0.06134c0,0 0.67479,-0.12269 1.65631,-0.24538c0.5521,-0.06134 1.10421,-0.12269 1.779,-0.12269c0.61345,0 1.28824,-0.06134 1.96303,-0.06134c0.67479,0 1.34959,0 1.96303,0.06134c0.61345,0.06134 1.2269,0.18403 1.71765,0.30672c0.24538,0.06134 0.49076,0.12269 0.67479,0.24538c0.18403,0.06134 0.36807,0.18403 0.49076,0.24538c0.12269,0.06134 0.18403,0.18403 0.24538,0.24538c0,0.06134 0,0.12269 0,0.12269z" fill="#1a1d3d"/><path d="M317.6415,223.33407c0,0 -0.06134,0.06134 -0.18403,0.12269c-0.12269,0.06134 -0.36807,0.18403 -0.67479,0.12269c-0.12269,0 -0.30672,-0.12269 -0.42941,-0.24538c-0.06134,-0.06134 -0.06134,-0.06134 -0.06134,-0.12269c0,-0.06134 -0.06134,-0.06134 -0.06134,-0.12269c-0.06134,-0.06134 -0.06134,-0.18403 -0.06134,-0.24538c-0.06134,-0.36807 0.06134,-0.73614 0.30672,-1.04286c0.12269,-0.12269 0.30672,-0.24538 0.5521,-0.30672c0.18403,-0.06134 0.42941,0 0.61345,0.06134c0.18403,0.06134 0.36807,0.24538 0.42941,0.36807c0.12269,0.18403 0.12269,0.30672 0.12269,0.49076c0,0.30672 -0.18403,0.5521 -0.24538,0.67479c-0.24538,0.24538 -0.30672,0.24538 -0.30672,0.24538zM317.6415,223.33407c0,0 0.06134,-0.06134 0.12269,-0.18403c0.06134,-0.12269 0.12269,-0.36807 0.06134,-0.61345c-0.06134,-0.12269 -0.06134,-0.24538 -0.12269,-0.30672c-0.06134,-0.12269 -0.18403,-0.18403 -0.30672,-0.24538c-0.12269,-0.06134 -0.24538,-0.12269 -0.42941,-0.12269c-0.18403,0 -0.30672,0.06134 -0.42941,0.12269c-0.12269,0.06134 -0.24538,0.24538 -0.30672,0.36807c-0.06134,0.18403 -0.06134,0.36807 0.06134,0.49076c0.06134,0.12269 0.18403,0.24538 0.24538,0.36807c0.12269,0.06134 0.18403,0.12269 0.30672,0.18403c0.24538,0.12269 0.42941,0.12269 0.61345,0.06134c0.12269,-0.06134 0.18403,-0.12269 0.18403,-0.12269z" fill="#ad9cff"/><path d="M323.16254,224.25424c0,0 -0.12269,0.06134 -0.36807,0.18403c-0.24538,0.12269 -0.61345,0.24538 -1.04286,0.06134c-0.24538,-0.06134 -0.42941,-0.18403 -0.61345,-0.42941c-0.06134,-0.06134 -0.06134,-0.12269 -0.12269,-0.18403c0,-0.06134 -0.06134,-0.12269 -0.06134,-0.18403c-0.06134,-0.12269 -0.12269,-0.24538 -0.12269,-0.42941c-0.06134,-0.5521 0.12269,-1.16555 0.61345,-1.53362c0.24538,-0.18403 0.5521,-0.30672 0.85883,-0.36807c0.30672,0 0.61345,0.06134 0.85883,0.18403c0.24538,0.12269 0.49076,0.36807 0.61345,0.61345c0.12269,0.24538 0.18403,0.49076 0.18403,0.73614c0,0.49076 -0.24538,0.79748 -0.42941,0.98152c-0.24538,0.30672 -0.36807,0.36807 -0.36807,0.36807zM323.10119,224.25424c0,0 0,0 0.06134,-0.06134c0.06134,-0.06134 0.12269,-0.12269 0.18403,-0.18403c0.12269,-0.18403 0.24538,-0.5521 0.18403,-0.92017c0,-0.18403 -0.06134,-0.36807 -0.18403,-0.5521c-0.12269,-0.18403 -0.24538,-0.36807 -0.49076,-0.49076c-0.42941,-0.24538 -0.98152,-0.24538 -1.41093,0c-0.24538,0.12269 -0.42941,0.36807 -0.49076,0.61345c-0.12269,0.24538 -0.12269,0.5521 0,0.79748c0.06134,0.24538 0.24538,0.42941 0.36807,0.61345c0.18403,0.18403 0.30672,0.24538 0.49076,0.36807c0.36807,0.18403 0.73614,0.18403 0.98152,0.06134c0.12269,-0.06134 0.18403,-0.06134 0.24538,-0.12269c0.06134,-0.12269 0.06134,-0.12269 0.06134,-0.12269z" fill="#ad9cff"/></g><path d="M319.67076,205.95026c0.70932,0.02977 1.44918,0.21152 2.20213,0.57714c3.06581,1.48872 3.45173,4.71825 2.32763,7.3598c-1.01425,3.33214 -4.93993,5.87497 -8.21776,3.4964c-1.30043,-0.62332 -2.25651,-1.71748 -2.78763,-3.01741c-6.69301,-0.73186 -13.43475,-0.94638 -20.09377,-1.94168c0,0 -2.47234,-0.37086 -2.10149,-2.8432c0.37085,-2.47234 2.84319,-2.10149 2.84319,-2.10149c6.41877,0.96643 12.92131,1.18926 19.37877,1.86262c0.19109,-0.46383 0.43793,-0.9162 0.74337,-1.34781c0.74288,-1.04976 2.1995,-1.33325 3.29926,-1.99986c0,0 1.27465,-0.68635 2.4063,-0.0445z" fill="#000000" stroke="none" stroke-width="0.5" stroke-linecap="butt"/><path d="M199.39274,247.32998c-2.96529,3.92111 -7.73553,2.04038 -10.23527,-1.19964c-1.96435,-2.54607 0.29136,-5.41897 1.37233,-7.3868c0,0 0.16304,-0.27951 0.47237,-0.57875c0.13084,-6.16189 0.71993,-11.88721 2.84205,-17.92189c0,0 0.83205,-2.35747 3.18953,-1.52542c2.35747,0.83205 1.52543,3.18953 1.52543,3.18953c-1.94335,5.48444 -2.44603,10.67371 -2.55956,16.25736c3.72942,0.94686 5.68793,6.1311 3.39312,9.1656z" fill="#000000" stroke="none" stroke-width="0.5" stroke-linecap="butt"/><path d="M252.10797,262.56773c5.30883,-3.20591 8.99818,-3.3249 14.98252,-1.34653c0.58231,1.74649 2.31623,3.4887 1.74695,5.23949c-1.65699,5.096 -10.14749,2.83695 -13.59717,2.71883c-2.01352,-0.06894 -6.75875,1.02662 -8.08325,-0.22654c-1.45582,-1.37741 0.3202,-9.6259 0.55882,-11.42557c0.77996,-5.88236 1.87178,-11.68944 3.04326,-17.48217c1.39682,1.02835 2.83303,1.99941 4.37682,2.77265c-0.70829,3.45421 -1.34434,6.92024 -1.80625,10.41011c0,0 -1.09934,8.29111 -1.17986,8.8984c-0.01932,0.14566 -0.03213,0.29307 -0.04184,0.44133z" fill="#000000" stroke="none" stroke-width="0.5" stroke-linecap="butt"/><path d="M221.14513,262.35101c5.30883,-3.20592 8.99818,-3.32489 14.98252,-1.34653c0.58231,1.74649 2.31622,3.4887 1.74695,5.23949c-1.65699,5.096 -10.14748,2.83695 -13.59716,2.71883c-2.01352,-0.06894 -6.75875,1.02663 -8.08325,-0.22653c-1.45582,-1.37741 0.3202,-9.62591 0.55882,-11.42558c0.77996,-5.88236 1.87178,-11.68944 3.04326,-17.48217c1.39682,1.02835 2.83304,1.99941 4.37682,2.77265c-0.70829,3.45421 -1.34434,6.92024 -1.80625,10.41011c0,0 -1.09934,8.29111 -1.17987,8.89841c-0.01932,0.14566 -0.03213,0.29307 -0.04184,0.44133z" fill="#000000" stroke="none" stroke-width="0.5" stroke-linecap="butt"/><g><path d="M230.9306,134.30156c-1.34592,1.92892 -4.69154,3.32534 -6.18918,4.78518c-4.43702,4.3251 -7.39247,4.9567 -13.72686,6.04163c-5.32624,0.91226 -11.24996,1.80899 -16.49164,-0.13005c-3.68915,-1.36471 -8.50247,-10.18833 -9.07585,-14.2161c-1.33378,-9.36921 14.34211,-12.29317 20.69739,-12.87267c2.58566,-0.23577 4.4212,-0.50018 6.99525,-0.76646c2.72275,-0.28166 5.4274,-0.49094 8.14549,-0.16563c3.06827,0.36722 5.27936,1.44038 7.54844,3.59568c0,0 4.23675,12.47404 2.93495,13.03955z" fill="#3cde00" stroke="#065114" stroke-width="3.5" stroke-linecap="butt"/><path d="M224.46633,137.03457l-3.21906,-11.96904c0,0 -0.53696,-3.12619 -4.97422,-2.60685c-27.59068,3.22923 -29.38463,7.19277 -29.38463,7.19277c0,0 -0.54625,-5.46296 7.07878,-7.85239c24.0246,-7.16529 28.67132,-2.95525 28.67132,-2.95525c0,0 1.09473,-0.41687 3.1326,7.40602c1.34978,5.18145 2.26954,9.19394 2.26954,9.19394z" fill="#30b300" stroke="#000000" stroke-width="0" stroke-linecap="round"/><path d="M237.17674,154.32099c-0.2463,0.28545 -0.61022,0.53326 -1.14209,0.68935c-2.17885,0.63943 -2.81828,-1.53942 -2.81828,-1.53942c-2.77381,-9.46692 -3.99303,-19.28651 -6.64378,-28.82325c-0.4586,-1.64992 -0.91883,-3.30057 -1.4515,-4.92809c-0.41168,-1.25786 -1.69242,-2.5877 -1.15722,-3.79819c0.70556,-1.59585 2.73468,-2.1794 4.21115,-3.10925c3.92745,-2.4734 8.60245,-3.39212 13.13959,-3.71112c2.27991,0.24888 5.07366,-0.91225 6.86024,0.52582c1.2856,1.03482 1.37408,3.04188 1.6446,4.6699c0.59354,3.57214 -1.04163,8.46374 -1.29295,12.07601c-0.45379,6.5222 0.1818,12.83594 -0.53519,19.36745c-0.08238,0.75047 -0.56145,5.73949 -0.92358,6.21646c-2.49567,3.2871 -5.67382,2.03963 -9.00294,2.34863z" fill="#de9400" stroke="#7a3509" stroke-width="3.5" stroke-linecap="butt"/><path d="M235.03779,111.70563l3.87744,39.52229l-5.41265,-1.01912c0,0 -2.81923,-15.58312 -3.77867,-19.42606c-1.54171,-6.17517 -4.16479,-14.02645 -4.16479,-14.02645c0,0 -0.38368,-0.73844 0.8631,-1.46185c6.13615,-3.56036 8.61557,-3.58879 8.61557,-3.58879z" fill="#b37700" stroke="#000000" stroke-width="0" stroke-linecap="round"/><path d="M199.31588,133.70709c0.43675,-1.04301 1.0812,-1.6309 1.87431,-1.99105c1.0263,-0.46603 2.30155,-0.5507 3.69792,-0.74668c2.23596,-0.31383 4.46268,-0.73113 6.64776,-1.29989c2.21841,-0.57744 8.06018,-2.33711 5.71997,2.75102c-0.52291,1.13693 -7.15901,2.41628 -7.72695,2.49908c-1.32044,0.1925 -2.64753,0.33853 -3.96643,0.54135c-0.50343,0.07742 -3.95404,1.09557 -4.39175,0.72886z" fill="#30b300" stroke="none" stroke-width="0.5" stroke-linecap="butt"/></g><g stroke-linecap="butt"><path d="M241.15974,146.08464c29.03664,0 52.57549,23.08618 52.57549,51.56442c0,28.47825 -23.53885,51.56443 -52.57549,51.56443c-29.03664,0 -52.57549,-23.0862 -52.57549,-51.56443c0,-28.47826 23.53885,-51.56442 52.57549,-51.56442z" fill="#ffa900" stroke="none" stroke-width="0"/><path d="M196.71344,225.89405c1.2788,-0.85253 2.20886,0.03864 2.50485,0.391c0.67356,-0.61701 1.66088,-0.41954 1.66088,-0.41954c6.12472,1.22494 12.18365,2.09792 18.39437,2.7675c2.89828,0.31247 5.89401,1.30095 8.83525,0.96441c8.39683,-0.96079 16.47002,-3.52936 23.48786,-8.23064c2.88852,-1.77756 5.66567,-3.8461 8.81082,-5.16339c4.04175,-1.69281 8.20787,-2.77469 12.08669,-4.91984c3.16152,-1.74845 6.35725,-3.91405 9.36163,-5.91508c2.39773,-1.59698 4.99177,-2.86451 7.73635,-3.88794c1.15225,-0.42967 2.38923,-1.52801 3.5306,-1.07024c0.83563,0.33514 1.19839,1.27168 1.51029,2.20189c-0.249,2.10554 -0.78149,6.89228 -0.90422,8.70092c-0.69136,0.81091 -1.21332,1.77062 -1.51118,2.82441c-0.18403,0.65111 -0.28251,1.33812 -0.28251,2.04812c0,0.02938 0.00018,0.05871 0.00051,0.088c-0.06725,0.27247 -0.15542,0.51733 -0.2771,0.72194c-0.96732,1.62674 -2.83965,2.20542 -3.77006,3.75613c-1.51232,2.52053 -2.28691,5.07097 -3.10466,7.87916c-0.29664,1.01869 -1.32388,2.22443 -1.15499,3.31479c0.02627,0.16963 0.06665,0.32818 0.11749,0.4779c-1.07754,0.95909 -2.30224,2.02698 -3.26318,2.9594c-1.17781,0.41402 -2.32857,0.8799 -3.40774,1.47667c-1.98772,1.09917 -3.49097,2.9973 -5.42715,4.2084c-3.42614,2.14309 -7.1124,4.07628 -10.82378,5.66584c-4.37671,1.64049 -8.23352,3.93055 -12.9345,4.62146c-4.83794,0.71105 -9.64445,-0.43231 -14.38812,-1.25784c-6.56258,-1.14209 -13.12742,-2.11843 -19.13341,-4.55929c-2.04441,-5.08818 -9.52898,-9.34382 -13.91897,-10.67735c-0.00521,-0.00158 -0.0104,-0.00316 -0.0156,-0.00475c-0.24006,-0.18792 -0.49184,-0.36153 -0.75405,-0.5196c-1.17028,-1.65996 -2.18238,-3.44619 -3.10364,-5.2878l-0.38378,-0.54951c0,0 -1.04205,-1.56308 0.52103,-2.60513z" fill="#ffbd38" stroke="none" stroke-width="0.5"/><path d="M187.81766,197.8685c0,-28.77714 23.7859,-52.10562 53.12729,-52.10562c29.34139,0 53.12729,23.32847 53.12729,52.10561c0,28.77714 -23.7859,52.10561 -53.12729,52.10561c-29.34139,0 -53.12729,-23.32848 -53.12729,-52.10561z" fill="none" stroke="#d38d00" stroke-width="5"/><path d="M244.08858,161.76032c5.00175,8.30333 -1.22764,21.63731 -13.91373,29.78229c-12.6861,8.14499 -27.02493,8.01663 -32.02667,-0.2867c-5.00175,-8.30333 1.22765,-21.63731 13.91374,-29.78229c12.68609,-8.14498 27.0249,-8.01663 32.02667,0.2867z" fill="#ffb600" stroke="none" stroke-width="0"/></g><path d="M276.3447,175.80706c0,2.8556 -3.47155,4.15278 -5.63978,2.52945c-0.22424,-0.16788 -0.41213,-0.39707 -0.53277,-0.64987c-0.97749,-2.04828 -0.30616,-4.53196 -0.3125,-6.80152c-0.00158,-0.5679 0.48737,-2.54275 1.30384,-2.58811c0.39132,-0.25403 0.85815,-0.40157 1.35944,-0.40157c1.22234,0 2.23978,0.87724 2.45711,2.0365c1.40583,1.40756 1.36467,2.43287 1.36467,5.87512z" fill="#000000" stroke="none" stroke-width="0.5" stroke-linecap="butt"/><path d="M260.99679,174.99068c0,2.8556 -3.47155,4.15278 -5.63978,2.52946c-0.22423,-0.16788 -0.41213,-0.39707 -0.53277,-0.64988c-0.9775,-2.04828 -0.30616,-4.53196 -0.3125,-6.80152c-0.00159,-0.5679 0.48737,-2.54275 1.30384,-2.58811c0.39131,-0.25403 0.85815,-0.40156 1.35943,-0.40156c1.22234,0 2.23978,0.87724 2.45711,2.03649c1.40583,1.40756 1.36467,2.43287 1.36467,5.87512z" fill="#000000" stroke="none" stroke-width="0.5" stroke-linecap="butt"/><path d="M276.4924,194.39696c-0.06347,4.77826 -2.61905,8.77133 -5.6634,12.23989c-2.77895,3.16618 -6.37907,6.02762 -10.5738,6.87007c-7.82254,1.57105 -19.56641,3.76629 -24.30222,-4.52139c-1.61004,-2.81756 -0.82059,-14.28163 -0.67699,-17.16086c0.03178,-0.63708 -0.03205,-4.76638 0.93447,-6.24893c0.58393,-0.89569 3.12015,-5.48342 4.48299,-5.90891c0.03701,-0.03486 0.07763,-0.06521 0.12204,-0.09059c0.43488,-0.73685 1.23699,-1.23116 2.15454,-1.23116c1.27294,0 2.32368,0.95137 2.47995,2.18187c0.9101,1.2042 1.54915,2.46315 3.97765,3.8381c4.18891,2.37165 9.47097,2.86719 14.15932,3.29359c1.74232,0.15846 3.71961,0.96331 5.24737,0.11082c1.46904,-0.81974 5.29111,-3.96696 6.78102,-3.96696c2.35703,0 3.09359,0.73657 3.09359,3.09359c0,0.96048 -1.24086,1.64577 -2.10225,2.10773c0.30194,1.71713 -0.09748,4.12779 -0.11429,5.39313z" fill="#000000" stroke="none" stroke-width="0.5" stroke-linecap="butt"/></g></g></svg>