<svg version="1.1" xmlns="http://www.w3.org/2000/svg" xmlns:xlink="http://www.w3.org/1999/xlink" width="480" height="360" viewBox="0,0,480,360"><g data-paper-data="{&quot;isPaintingLayer&quot;:true}" fill-rule="nonzero" stroke-linejoin="miter" stroke-miterlimit="10" stroke-dasharray="" stroke-dashoffset="0" style="mix-blend-mode: normal"><path d="M0,360v-360h480v360z" fill="#ffffff" stroke="none" stroke-width="0" stroke-linecap="butt"/><path d="M147.57997,320.92845c0,0 -1.58683,-10.47453 -0.30567,-21.40566c-1.10796,-9.73837 -0.14966,-29.3269 -0.14966,-29.3269" fill="none" stroke="#000000" stroke-width="3.5" stroke-linecap="round"/><path d="M103.19555,269.95412c0,0 1.79843,4.03372 4.36881,2.98611c4.78238,-1.94916 14.24071,-7.58743 21.86225,-12.42981c0.57222,0.45042 3.37038,23.52976 3.37038,23.52976" fill="none" stroke="#000000" stroke-width="3.5" stroke-linecap="round"/><g data-paper-data="{&quot;index&quot;:null}" stroke="#121312" stroke-width="3.5" stroke-linecap="butt"><path d="M131.52656,310.01053l-4.27769,-21.68777l15.96637,-2.34228c0,0 0.29366,7.99999 0.85092,11.43035c0.15575,0.95869 3.21365,0.67508 5.51483,0.74604c1.62152,0.05 2.70384,0.3063 2.84343,1.16554c0.37111,2.28453 0.33963,6.73508 0.33963,6.73508z" fill="#383838"/><path d="M144.18187,285.51838c0.28579,1.75921 -3.37693,3.81798 -8.18089,4.59839c-4.80399,0.78042 -8.93003,-0.01305 -9.21583,-1.77227c-0.14082,-0.86682 -1.92006,-5.40831 -0.47943,-6.23183c1.48314,-0.84782 6.06422,1.04926 8.50114,0.65336c4.80399,-0.78042 9.08924,0.99314 9.37504,2.75235z" fill="#979025"/></g><g stroke="#121312" stroke-width="3.5" stroke-linecap="butt"><path d="M138.95855,345.7835l-0.07921,-22.10546l16.12058,0.73392c0,0 -1.23166,7.91005 -1.33627,11.38381c-0.04985,1.6549 7.90621,1.35986 7.84281,3.46479c-0.06969,2.31342 -0.94614,6.67693 -0.94614,6.67693z" fill="#383838"/><path d="M156.03671,324.1419c-0.05366,1.78145 -4.04079,3.10681 -8.90555,2.96029c-4.86474,-0.14652 -8.76492,-1.70947 -8.71125,-3.49092c0.02643,-0.87778 -0.85754,-5.6746 0.71332,-6.20941c1.6172,-0.55058 5.75442,2.18228 8.22214,2.25662c4.86474,0.14652 8.735,2.70196 8.68135,4.48342z" fill="#979025"/></g><g><path d="M187.72485,246.53848l-36.92848,-49.40834" data-paper-data="{&quot;index&quot;:null}" fill="none" stroke="#383838" stroke-width="3.5" stroke-linecap="round"/><g data-paper-data="{&quot;index&quot;:null}" fill="#393839" stroke="#131313" stroke-width="2.5" stroke-linecap="butt"><path d="M187.39077,246.2238c4.03714,-1.36678 7.81352,-0.89951 8.43476,1.04372c0.62124,1.94322 -2.14787,4.62654 -6.18502,5.99335c-4.03714,1.36678 -7.81352,0.89951 -8.43476,-1.04372c-0.62124,-1.94322 2.14787,-4.62654 6.18502,-5.99335z"/><path d="M187.97968,250.63427c4.03714,-1.36678 7.81352,-0.89951 8.43476,1.04372c0.62124,1.94322 -2.14787,4.62654 -6.18502,5.99335c-4.03714,1.36678 -7.81352,0.89951 -8.43476,-1.04372c-0.62124,-1.94322 2.14787,-4.62654 6.18501,-5.99334z"/><path d="M189.67008,254.40293c4.03714,-1.36678 7.81352,-0.89951 8.43476,1.04372c0.62124,1.94322 -2.14789,4.62655 -6.18502,5.99335c-4.03714,1.36678 -7.81352,0.89951 -8.43476,-1.04372c-0.62124,-1.94322 2.14787,-4.62654 6.18502,-5.99335z"/><path d="M192.03786,244.56223c1.70749,-1.04757 4.85597,1.14852 7.03234,4.90513c2.17636,3.75659 2.55648,7.65113 0.84899,8.69872c-1.70749,1.04757 -4.85596,-1.14854 -7.03234,-4.90513c-2.17636,-3.75659 -2.55648,-7.65113 -0.849,-8.6987z" data-paper-data="{&quot;index&quot;:null}"/></g></g><g stroke="none" stroke-width="0" stroke-linecap="butt"><path d="M99.39381,271.07497v-77.91284h54.11557v77.91284z" fill="#000000"/><path d="M99.3105,262.22488v-8.17446h54.11557v8.17446z" fill="#a17f00"/><g fill="#ca9e00"><path d="M120.94873,262.22287v-13.53896h3.55972v13.53896z"/><path d="M121.68555,262.33685v-7.66356h10.35556v7.66356z"/><path d="M129.20079,259.66835v-11.49533h2.9125v11.49533z"/><path d="M129.56561,257.92674v-3.07749h15.66664l-1.94931,6.61088c0,0 -0.76046,-4.50669 -3.0715,-3.74135c-2.49998,0.82792 -2.79143,2.94348 -4.29254,2.94348c-0.54892,0 -0.41234,-2.19028 -1.26289,-2.54196c-0.8012,-0.33128 -1.08222,2.42668 -1.98558,2.43369c-1.29357,0.01005 -3.10482,-2.62728 -3.10482,-2.62728z"/><path d="M121.09241,260.51322c-0.90336,-0.00702 -1.18438,-2.76496 -1.98558,-2.43369c-0.85055,0.35168 -0.71397,2.54194 -1.26289,2.54194c-1.50111,0 -1.79256,-2.11555 -4.29255,-2.94348c-2.31104,-0.76535 -3.0715,3.74135 -3.0715,3.74135l-1.9493,-6.61088h15.66664v3.07749c0,0 -1.81125,2.63733 -3.10482,2.62728z" data-paper-data="{&quot;index&quot;:null}"/></g><g fill="#ca9e00"><path d="M119.70783,219.77581l0.11076,-22.0875h4.02574l0.11076,22.0875z"/><path d="M120.58698,219.95216v-11.85719h12.35568v11.85719z"/><path d="M129.55374,215.82342v-17.78579h3.47503v17.78579z"/><path d="M129.98902,213.12877v-4.76154h18.69257l-2.3258,10.22848c0,0 -0.90734,-6.97283 -3.66474,-5.78866c-2.98284,1.28097 -3.33059,4.5542 -5.12163,4.5542c-0.65494,0 -0.49198,-3.38884 -1.50681,-3.93296c-0.95594,-0.51255 -1.29124,3.7546 -2.36908,3.76546c-1.54342,0.01555 -3.70451,-4.06497 -3.70451,-4.06497z"/><path d="M119.87926,217.13062c-1.07784,-0.01086 -1.41314,-4.278 -2.36908,-3.76545c-1.01483,0.54412 -0.85187,3.93296 -1.50681,3.93296c-1.79104,0 -2.13878,-3.27322 -5.12163,-4.55419c-2.7574,-1.18416 -3.66474,5.78866 -3.66474,5.78866l-2.3258,-10.22848h18.69257v4.76153c0,0 -2.16109,4.08052 -3.70451,4.06497z" data-paper-data="{&quot;index&quot;:null}"/></g></g><g stroke="none" stroke-linecap="butt"><path d="M168.5638,150.21783c0,22.25487 -17.96444,40.29602 -40.12469,40.29602c-22.16026,0 -40.12469,-18.04114 -40.12469,-40.29602c0,-22.25487 17.96444,-40.29601 40.12469,-40.29601c22.16026,0 40.12469,18.04113 40.12469,40.29601z" fill="#000000" stroke-width="0"/><path d="M149.54884,142.7556l0.64458,-39.13523l10.31318,-24.21077v63.34601z" fill="#000000" stroke-width="0"/><path d="M95.45049,144.46098v-63.346l10.31318,24.21077l0.64457,39.13522z" data-paper-data="{&quot;index&quot;:null}" fill="#000000" stroke-width="0"/><path d="M111.51902,182.22248l-7.09031,-21.88919h51.24359l-8.37945,20.89423z" fill="#d9b796" stroke-width="0"/><path d="M111.8413,150.88113c0,2.83909 -4.32878,5.14064 -9.6686,5.14064c-5.33982,0 -9.6686,-2.30155 -9.6686,-5.14064c0,-2.83909 4.32878,-5.14064 9.6686,-5.14064c5.33982,0 9.6686,2.30155 9.6686,5.14064z" fill="#ffffff" stroke-width="0"/><path d="M163.13068,151.92321c0,2.83909 -4.32878,5.14064 -9.6686,5.14064c-5.33982,0 -9.6686,-2.30155 -9.6686,-5.14064c0,-2.83909 4.32878,-5.14065 9.6686,-5.14065c5.33982,0 9.6686,2.30155 9.6686,5.14065z" fill="#ffffff" stroke-width="0"/><path d="M143.58872,170.93781c0,1.28633 -1.25,1.28633 -1.25,1.28633h-1.24118c-8.05477,0 -16.04077,0.51091 -24.07895,0.51091c0,0 -1.25,0 -1.25,-1.28633c0,-1.28633 1.25,-1.28633 1.25,-1.28633c8.03765,0 16.02432,-0.51091 24.07895,-0.51091h1.24118c0,0 1.25,0 1.25,1.28633z" fill="#000000" stroke-width="0.5"/><path d="M143.41224,174.99186c-0.46424,-1.19433 0.69636,-1.67207 0.69636,-1.67207l1.07607,-0.42797c1.73066,-1.44122 3.14702,-3.52157 0.90224,-5.50069c-0.51696,-0.45579 -2.43233,0.08842 -3.00658,0.20989c0,0 -1.22573,0.25227 -1.47087,-1.00908c-0.24515,-1.26136 0.98058,-1.51362 0.98058,-1.51362c1.41538,-0.28467 3.63322,-0.74574 4.93699,0.20989c1.66902,1.22334 2.86113,4.78739 1.89704,6.71545c-0.72393,1.44775 -1.80953,2.15425 -2.9807,3.11097l-1.40629,0.59384c0,0 -1.1606,0.47773 -1.62484,-0.7166z" fill="#000000" stroke-width="0.5"/><path d="M118.51684,175.53594c0,1.28633 -1.25,1.28633 -1.25,1.28633l-1.23809,-0.02497c-6.01717,-1.26286 -7.03908,-9.70187 -0.49648,-11.20808c0,0 1.22573,-0.25227 1.47087,1.00908c0.24514,1.26136 -0.98058,1.51362 -0.98058,1.51362c-4.067,0.67924 -2.77793,5.50466 0.49648,6.16267l0.7478,-0.02497c0,0 1.25,0 1.25,1.28633z" fill="#000000" stroke-width="0.5"/><path d="M136.02373,165.46108c-2.48264,2.40423 -5.88291,1.65708 -9.03295,1.12561c0,0 -1.23299,-0.21147 -1.02749,-1.4803c0.2055,-1.26882 1.43849,-1.05736 1.43849,-1.05736c2.02027,0.35297 5.35568,1.30234 6.85419,-0.4071l0.56579,-0.7957c-0.49478,-2.28126 -1.52111,-4.38228 -1.90785,-6.76861c0,0 -0.20549,-1.26882 1.0275,-1.4803c1.23299,-0.21147 1.43849,1.05736 1.43849,1.05736c0.40843,2.52354 1.48298,4.66021 1.97863,7.11186l0.02427,0.50772c0,0 0.00001,0.74858 -0.55493,1.10362z" fill="#000000" stroke-width="0.5"/></g><g><path d="M151.74272,166.43427l-50.10321,35.02767" fill="none" stroke="#383838" stroke-width="3.5" stroke-linecap="round"/><g fill="#393839" stroke="#131313" stroke-width="2.5" stroke-linecap="butt"><path d="M147.27887,158.94087c1.18119,-1.64539 4.9099,-0.8726 8.3283,1.72612c3.41839,2.59873 5.23201,6.03925 4.05081,7.68463c-1.18119,1.64539 -4.9099,0.8726 -8.3283,-1.72612c-3.41839,-2.59873 -5.23201,-6.03925 -4.05081,-7.68463z"/><path d="M149.17996,154.94184c1.18119,-1.64539 4.9099,-0.8726 8.3283,1.72612c3.41839,2.59873 5.23201,6.03926 4.05083,7.68465c-1.18119,1.64539 -4.90992,0.87259 -8.32831,-1.72613c-3.41839,-2.59873 -5.23199,-6.03926 -4.05081,-7.68463z"/><path d="M151.93186,151.9072c1.18119,-1.64539 4.9099,-0.8726 8.3283,1.72612c3.41839,2.59873 5.23201,6.03925 4.05081,7.68463c-1.18119,1.64539 -4.9099,0.8726 -8.3283,-1.72612c-3.41839,-2.59873 -5.23199,-6.03926 -4.05081,-7.68463z"/><path d="M158.69035,161.71278c3.20981,-2.86661 6.86812,-3.93798 8.17107,-2.39298c1.30295,1.545 -0.24284,5.1213 -3.45265,7.98792c-3.20981,2.86661 -6.86812,3.93797 -8.17107,2.39298c-1.30295,-1.545 0.24284,-5.12132 3.45265,-7.98792z" data-paper-data="{&quot;index&quot;:null}"/></g></g></g></svg>