<svg version="1.1" xmlns="http://www.w3.org/2000/svg" xmlns:xlink="http://www.w3.org/1999/xlink" width="480" height="360" viewBox="0,0,480,360"><g data-paper-data="{&quot;isPaintingLayer&quot;:true}" fill-rule="nonzero" stroke-linejoin="miter" stroke-miterlimit="10" stroke-dasharray="" stroke-dashoffset="0" style="mix-blend-mode: normal"><path d="M0,360v-360h480v360z" fill="#ffffff" stroke="none" stroke-width="0" stroke-linecap="butt"/><path d="M303.42852,319.9476l-0.86413,-57.04399" data-paper-data="{&quot;index&quot;:null}" fill="none" stroke="#000000" stroke-width="3.5" stroke-linecap="round"/><g data-paper-data="{&quot;index&quot;:null}" stroke="#2c0050" stroke-width="3.5" stroke-linecap="butt"><path d="M287.96608,350.75528c0,0 -0.33224,-5.18255 -0.11488,-7.89426c0.19778,-2.4673 8.08719,-1.39755 8.24269,-3.33735c0.32637,-4.07175 0.07996,-13.43406 0.07996,-13.43406l16.15063,0.61016l-2.81921,25.84313z" fill="#500190"/><path d="M295.22198,325.26205c0.16738,-2.08815 4.29219,-4.30663 9.15672,-4.03486c2.46762,0.13786 6.92799,-2.68115 8.47082,-1.88997c1.49863,0.7685 0.02337,6.29742 -0.05912,7.32632c-0.16738,2.08815 -4.24654,3.5606 -9.11107,3.28885c-4.86451,-0.27178 -8.6723,-2.18485 -8.50491,-4.27301z" fill="#979025"/></g><g data-paper-data="{&quot;index&quot;:null}"><path d="M295.57032,183.60154l-56.99285,-25.78778" data-paper-data="{&quot;index&quot;:null}" fill="none" stroke="#000000" stroke-width="3.5" stroke-linecap="round"/><g data-paper-data="{&quot;index&quot;:null}" fill="#500190" stroke="#2c0050" stroke-width="2.5" stroke-linecap="butt"><path d="M235.08064,165.96153c-2.00572,-0.1562 -3.51701,-3.93806 -3.37555,-8.44707c0.14147,-4.50899 1.88211,-8.03763 3.88784,-7.88142c2.00572,0.1562 3.51701,3.93806 3.37556,8.44705c-0.14147,4.50899 -1.88212,8.03761 -3.88785,7.88142z"/><path d="M234.64909,158.57326c-0.14147,4.50899 -1.88212,8.03759 -3.88784,7.88141c-2.00573,-0.15621 -3.51701,-3.93806 -3.37555,-8.44706c0.14147,-4.50899 1.88211,-8.03763 3.88784,-7.88142c2.00572,0.1562 3.51701,3.93806 3.37556,8.44705z"/><path d="M226.73365,165.6505c-2.00573,-0.15621 -3.51701,-3.93806 -3.37555,-8.44706c0.14145,-4.50898 1.88211,-8.03763 3.88784,-7.88142c2.00572,0.1562 3.51701,3.93806 3.37555,8.44706c-0.14147,4.50899 -1.88212,8.0376 -3.88785,7.88142z"/><path d="M239.21441,152.86783c-0.50184,2.02425 -4.27627,2.60418 -8.43039,1.29528c-4.15414,-1.3089 -7.11491,-4.01097 -6.61308,-6.03522c0.50185,-2.02424 4.27627,-2.60418 8.43039,-1.29528c4.15414,1.30889 7.11492,4.01096 6.61307,6.03523z" data-paper-data="{&quot;index&quot;:null}"/></g></g><g data-paper-data="{&quot;index&quot;:null}"><path d="M343.21813,183.7501l58.6134,-21.21755" fill="none" stroke="#000000" stroke-width="3.5" stroke-linecap="round"/><g fill="#500190" stroke="#2c0050" stroke-width="2.5" stroke-linecap="butt"><path d="M401.42248,162.76755c0.20966,-4.52246 2.0045,-8.18458 4.00892,-8.1796c2.0044,0.00499 3.45935,3.67521 3.2497,8.19767c-0.20966,4.52246 -2.00451,8.18458 -4.00893,8.1796c-2.0044,-0.00499 -3.45935,-3.67521 -3.2497,-8.19767z"/><path d="M408.92429,171.80587c-2.0044,-0.00501 -3.45935,-3.67521 -3.2497,-8.19767c0.20966,-4.52246 2.00452,-8.18459 4.00893,-8.17961c2.0044,0.00499 3.45935,3.67522 3.2497,8.19767c-0.20965,4.52245 -2.0045,8.18458 -4.00892,8.1796z"/><path d="M409.73765,163.12748c0.20966,-4.52246 2.00451,-8.18456 4.00892,-8.1796c2.0044,0.00499 3.45935,3.67521 3.2497,8.19766c-0.20965,4.52245 -2.00451,8.18458 -4.00893,8.1796c-2.0044,-0.00501 -3.45935,-3.67521 -3.2497,-8.19767z"/><path d="M409.85625,159.50677c-4.22794,0.97552 -7.93202,0.09186 -8.27327,-1.97369c-0.34127,-2.06554 2.80948,-4.53081 7.03742,-5.50633c4.22795,-0.97553 7.93202,-0.09188 8.2733,1.97366c0.34129,2.06553 -2.80948,4.53082 -7.03743,5.50634z" data-paper-data="{&quot;index&quot;:null}"/></g></g><g stroke="none" stroke-linecap="butt"><path d="M293.93528,263.0048l-1.1,-84.7115h54.11557l-0.4,84.81658z" fill="#b78000" stroke-width="0"/><path d="M309.73434,206.34679c-0.56376,-0.63762 0.21225,-1.10083 0.21225,-1.10083l0.10473,-0.05965c3.82966,-2.6734 6.29253,-5.39542 7.54161,-9.06035c-0.81208,0.3281 -1.74867,0.58353 -2.80184,0.76172c-2.39871,0.58738 -8.30139,0.16289 -6.79406,-2.99559c1.46228,-3.06409 6.18147,-5.58431 10.16422,-6.65927c0.02024,-0.06797 0.05298,-0.13993 0.10095,-0.21586c0.44196,-0.69946 1.29324,-0.33632 1.29324,-0.33632l0.33222,0.14434c0.01809,0.00631 0.03616,0.01264 0.0542,0.01898c0.17451,-0.01602 0.68426,-0.02756 0.94619,0.34127c1.76366,0.65673 3.3327,1.37112 4.92482,2.39528c1.28386,0.97274 2.97865,1.8963 3.2099,3.47981c0.29433,2.01541 -2.54225,5.78913 -5.30048,5.05976c1.5159,2.87502 3.14705,5.66442 5.43327,8.27311l0.68685,0.51541c0,0 0.705,0.53438 0.05462,1.11364c-0.65037,0.57926 -1.35537,0.04488 -1.35537,0.04488l-0.81946,-0.62637c-3.38833,-3.80342 -5.39999,-8.0045 -7.61991,-12.29804c0,0 -0.16593,-0.32112 -0.01694,-0.62679c-0.03605,0.03807 -0.07286,0.07578 -0.11043,0.11308c-1.09207,4.95512 -3.9368,8.43603 -8.68038,11.75772l-0.22044,0.13446c0,0 -0.776,0.46321 -1.33976,-0.17439zM318.18415,193.87906c0,0 0.09703,-0.50322 0.62749,-0.63633c0.2994,-0.4263 0.47571,-0.91001 0.53884,-1.45316c-0.19931,-0.79256 -0.65807,-1.7267 -0.2319,-2.17015c-0.01774,-0.06415 -0.03637,-0.12883 -0.05589,-0.19404l0.11354,-0.14565l-0.10272,-0.01337l0.12779,-0.66276c-2.92652,0.66548 -4.68519,1.8969 -7.03479,3.68682c-0.67142,0.51148 -2.65792,1.67215 -2.63863,2.57383c0.01862,0.87019 4.22626,0.65332 4.78099,0.49789c1.7763,-0.29611 3.0444,-0.7735 3.86791,-1.44514c0.00246,-0.01263 0.00491,-0.02525 0.00735,-0.0379zM321.3259,191.31471c0.26386,1.06286 0.56837,2.12057 1.11946,3.15774c0.26526,0.49922 1.32743,2.19937 2.13702,2.28024c0.75862,0.07577 1.03335,-0.95863 1.27032,-1.31523c1.58124,-2.37951 1.10868,-2.84287 -1.28249,-4.65614c-1.15079,-0.74024 -2.28347,-1.29285 -3.5022,-1.78595l-0.07656,0.3971c0.21685,0.67954 0.32682,1.32115 0.33443,1.92223z" fill="#09b800" stroke-width="0.5"/><path d="M292.92418,263.36673v-84.98005h19.6581c-0.3298,7.56481 0.02504,15.12621 -0.4611,22.81019c-1.27895,20.21521 1.3108,41.52752 0.03185,62.28661z" fill="#6900b8" stroke-width="0"/><path d="M327.64795,263.36673c2.49883,-20.40882 2.19968,-40.08652 1.25407,-62.05308c-0.33117,-7.69309 -1.35352,-15.36215 -1.68331,-22.92695h19.6581c0,0 0,36.56186 0,51.92415c0,12.25734 0,33.0559 0,33.0559z" data-paper-data="{&quot;index&quot;:null}" fill="#6900b8" stroke-width="0"/><path d="M327.72378,181.15627l8.88889,-16.57946l7.77778,3.26919c0,0 4.10418,8.4613 3.95115,8.83513c-0.846,2.06661 -20.61782,4.47514 -20.61782,4.47514z" fill="#6900b8" stroke-width="0"/><path d="M291.50575,176.33085c-0.15303,-0.37382 3.95116,-8.83513 3.95116,-8.83513l7.77778,-3.26919l8.88889,16.57944c0,0 -19.77183,-2.40853 -20.61783,-4.47514z" data-paper-data="{&quot;index&quot;:null}" fill="#6900b8" stroke-width="0"/><path d="M299.61267,178.82114l14.77778,-0.46702l-2.11111,84.64862z" fill="#510191" stroke-width="0"/><path d="M327.83489,263.11949l-1.77778,-84.64861l14.77778,0.46702z" data-paper-data="{&quot;index&quot;:null}" fill="#510090" stroke-width="0"/><path d="M300.21459,191.37247c0.0758,-0.35096 0.37449,-0.61296 0.73141,-0.61296c0.00349,0 0.00697,0.00002 0.01045,0.00007l-0.07903,-0.45677c-0.00967,-0.05051 -0.01475,-0.10276 -0.01475,-0.15627c0,-0.43526 0.33578,-0.78811 0.75,-0.78811c0.1178,0 0.22927,0.02854 0.32847,0.0794l0.0372,-0.31272c0.04137,-0.39414 0.35933,-0.70072 0.74544,-0.70072c0.22956,0 0.43505,0.10838 0.57262,0.27911l0.66349,0.81342l-0.18901,0.17025c0.14286,0.18312 0.2715,0.3697 0.3895,0.56096l0.03852,-0.40482c0.03359,-0.4026 0.35526,-0.71835 0.7471,-0.71835c0.41422,0 0.75,0.35283 0.75,0.78811v0.3741c0.03366,0.03503 0.06418,0.07338 0.09107,0.11457c0.11169,-0.06939 0.242,-0.10922 0.38116,-0.10922c0.3861,0 0.70407,0.30659 0.74544,0.70072l0.10987,0.92369l-0.28139,0.03697c0.00063,0.01346 0.00117,0.02682 0.00162,0.04014l0.6904,-0.16122c0.05721,-0.01468 0.11698,-0.02246 0.17849,-0.02246c0.41422,0 0.75,0.35283 0.75,0.78811c0,0.02436 -0.00105,0.04845 -0.00311,0.07225l0.84877,0.35677c0.28485,0.11176 0.48768,0.40026 0.48768,0.73855c0,0.40139 -0.28556,0.7327 -0.65485,0.78182l-0.76686,0.11512c-0.27159,0.04076 -0.52943,0.07751 -0.77737,0.10944c0.12688,0.15311 0.23728,0.30349 0.34024,0.47055l0.12945,-0.11336l0.55241,0.69656c0.11042,0.13726 0.17698,0.31472 0.17698,0.50851c0,0.15757 -0.044,0.30432 -0.1198,0.42745c0.51858,1.08409 0.66881,2.20388 -0.0277,2.52652c-0.4326,0.2004 -1.06097,-0.32415 -1.66021,-1.0538c0.04492,0.26372 0.08758,0.52789 0.13362,0.79138l-0.00649,0.03327l0.01019,-0.00108l0.11011,1.15703c0.00312,0.0292 0.00473,0.05888 0.00473,0.08896c0,0.43526 -0.33578,0.78811 -0.75,0.78811c-0.27799,0 -0.52065,-0.15892 -0.65019,-0.39501l-0.65959,-1.15518l0.17168,-0.10824c-0.27084,-0.38794 -0.50878,-0.78363 -0.72625,-1.19655l-0.07662,0.28178c-0.08416,0.33852 -0.37716,0.58834 -0.7257,0.58834c-0.23037,0 -0.43649,-0.10915 -0.57407,-0.28089c-0.91381,1.1908 -2.13227,2.3353 -2.60149,2.7844l-0.0195,0.00731l0.00457,0.00587l-0.66369,0.57073c-0.12995,0.11352 -0.29697,0.18179 -0.47916,0.18179c-0.41422,0 -0.75,-0.35283 -0.75,-0.78811c0,-0.12008 0.02555,-0.23388 0.07126,-0.33573l0.43782,-1.03516l0.04131,0.01928c0.08723,-0.56354 0.18755,-1.12168 0.30427,-1.67522l-1.08909,0.5722c-0.10422,0.05766 -0.22293,0.0903 -0.3489,0.0903c-0.41422,0 -0.75,-0.35283 -0.75,-0.78811c0,-0.17415 0.05375,-0.33511 0.14477,-0.46554l0.55048,-0.80983l0.21885,0.16426c0.45515,-0.70009 1.00886,-1.18105 1.65671,-1.69635c-0.12336,-0.13336 -0.24386,-0.27243 -0.3608,-0.41501c-0.17494,0.00291 -0.34854,0.01342 -0.51795,0.03886l-0.05317,-0.02335v0.02533h-0.88889c-0.41422,0 -0.75,-0.35283 -0.75,-0.78811c0,-0.40908 0.29661,-0.74537 0.67617,-0.78433l0.09626,-0.01123l-0.26211,-0.33051c-0.11042,-0.13726 -0.17699,-0.31472 -0.17699,-0.50851c0,-0.12582 0.02806,-0.24475 0.07796,-0.35027c-0.0499,-0.10551 -0.07796,-0.22446 -0.07796,-0.35028c0,-0.43526 0.33578,-0.78811 0.75,-0.78811c0.16573,0 0.31889,0.05649 0.44303,0.15212l0.72087,0.54107c0.0837,0.03708 0.18986,0.08286 0.31336,0.13653c0.05471,-0.03782 0.11442,-0.06831 0.17786,-0.09016zM299.5012,198.53301l-0.00834,0.0017l0.00552,0.01161c0.00094,-0.00444 0.00188,-0.00888 0.00282,-0.01334zM301.28612,198.35595c0.048,-0.06856 0.09563,-0.13731 0.14297,-0.20617c-0.02879,-0.00761 -0.05692,-0.01697 -0.08427,-0.02797c-0.01927,0.07841 -0.03883,0.15652 -0.0587,0.23414z" fill="#a455b8" stroke-width="0.5"/><path d="M298.86267,193.64924c0,-0.78811 0.75,-0.78811 0.75,-0.78811h0.22222c0.27238,0 0.80228,-0.03378 1.35529,-0.03469c0.00401,-0.19904 0.00727,-0.40952 0.0077,-0.63417l0.02643,-0.05247l-0.02078,-0.00313l0.10956,-0.80583c0.04676,-0.38806 0.36204,-0.68813 0.74402,-0.68813c0.3277,0 0.60631,0.22084 0.70839,0.52861l0.00945,0.02648c0.1332,-0.12726 0.31017,-0.20482 0.50438,-0.20482c0.00331,0 0.00662,0.00002 0.00993,0.00006c0.32526,-0.13165 0.71801,-0.04691 1.19504,0.3738c0.11418,0.10069 0.21287,0.20239 0.29731,0.30418c0.13619,-0.19853 0.35814,-0.32776 0.60883,-0.32776c0.41422,0 0.75,0.35283 0.75,0.78811c0,0.03332 -0.00197,0.06617 -0.00579,0.09841l-0.10991,1.03943l-0.06221,-0.00727c-0.00421,0.10843 -0.01708,0.21638 -0.0411,0.32367c0.68698,0.08831 1.2899,0.36974 1.39519,0.84251c0.23785,1.06801 -0.01291,1.53285 -0.40184,1.66274c0.14853,0.05485 0.29669,0.11868 0.44457,0.19235l0.14428,-0.30323l0.87436,0.45938c0.25369,0.12638 0.42912,0.39793 0.42912,0.71254c0,0.43526 -0.33578,0.78811 -0.75,0.78811h-0.77778v-0.04036l-0.09164,0.03445c-0.43764,-0.11729 -1.01374,-0.22522 -1.51053,-0.45544c-0.13502,0.20803 -0.36236,0.34459 -0.62006,0.34459c-0.28758,0 -0.53737,-0.17009 -0.66321,-0.41976c-1.43228,0.21855 -2.75002,0.79899 -4.16769,1.10013l-0.85976,0.22586c-0.06314,0.01814 -0.1296,0.02782 -0.19822,0.02782c-0.41422,0 -0.75,-0.35283 -0.75,-0.78811c0,-0.26111 0.12085,-0.49258 0.30698,-0.63599l0.8819,-0.69504l0.14159,0.19838c0.23368,-0.21606 0.47228,-0.41131 0.71947,-0.5977c-0.10086,-0.1342 -0.16106,-0.30374 -0.16106,-0.48803c0,-0.1656 0.04861,-0.31928 0.13165,-0.44612l0.28483,-0.44895l-0.27519,-0.18074c-0.08375,-0.05302 -0.15682,-0.12273 -0.21506,-0.20478c-0.17518,-0.0166 -0.31929,-0.03292 -0.39845,-0.03292h-0.22222c0,0 -0.75,0 -0.75,-0.78811z" fill="#af5ac4" stroke-width="0.5"/><path d="M305.52428,195.12725c-0.15227,0.37336 -0.40918,0.47181 -0.62242,0.47956c-0.11003,0.17164 -0.28263,0.2953 -0.48346,0.33485c-0.01709,0.20292 -0.03776,0.40549 -0.06149,0.60749c0,0 -0.09303,0.78202 -0.83724,0.68427c-0.56259,-0.0739 -0.64672,-0.53882 -0.65428,-0.76135c-0.20556,-0.09545 -0.36264,-0.28511 -0.42169,-0.51688h-0.60879c-0.41422,0 -0.75,-0.35283 -0.75,-0.78811c0,-0.2984 0.15782,-0.55807 0.39053,-0.69186l0.76514,-0.45943l0.18934,0.34817c0.01298,-0.0068 0.02589,-0.01352 0.03875,-0.02013l0.06525,-0.54846c0.00707,-0.0674 0.02224,-0.13223 0.04444,-0.19343l-0.13364,-0.56173c-0.01726,-0.06635 -0.02648,-0.13619 -0.02648,-0.20829c0,-0.43526 0.33578,-0.78811 0.75,-0.78811c0.20711,0 0.39461,0.08821 0.53033,0.23083l0.66667,0.70054l-0.01899,0.01996l0.06867,0.03767c0.11705,0.3244 0.38175,0.64798 0.51085,0.9723l0.20459,0.08729c0,0 0.68935,0.31044 0.39391,1.03483z" fill="#be62d5" stroke-width="0.5"/></g><g stroke="#000000" stroke-width="0.5" stroke-linecap="butt"><path d="M320.23893,80.28558c22.16025,0 40.12469,18.81246 40.12469,42.01877c0,23.20634 -17.96443,42.01879 -40.12469,42.01879c-22.16025,0 -40.12469,-18.81247 -40.12469,-42.01879c0,-23.20634 17.96443,-42.01877 40.12469,-42.01877z" fill="#e0e0e0"/><path d="M283.13397,137.64945c0.20009,0.44226 0.38824,0.89104 0.56197,1.34766c0.06304,0.1657 1.18343,3.97705 1.10522,4.32649c-0.02526,0.11288 -0.05451,0.22426 -0.08722,0.33432l0.05852,0.01231l-0.39455,2.07298c-0.12592,0.73671 -0.739,1.29574 -1.47632,1.29574c-0.63081,0 -1.17066,-0.40917 -1.39234,-0.98871l-0.58638,-1.43774l0.05547,-0.02498l-0.10924,-0.1284c-0.33486,-1.72837 -0.53478,-3.45598 -0.63684,-5.18377c-1.0511,0.15595 -1.50939,-0.96771 -1.50939,-0.96771c-0.16825,-0.41612 -0.35078,-0.82477 -0.54433,-1.22766c-0.14983,0.05277 -0.31021,0.08135 -0.47695,0.08135c-0.69036,0 -1.27179,-0.49007 -1.44642,-1.15721l-0.59032,-2.0677l0.011,-0.00347l-0.02062,-0.03173c-0.19881,-0.83719 -0.38694,-1.56563 -0.55582,-2.23796c-0.39162,-0.67472 -0.76995,-1.35629 -1.11741,-2.05386c-4.04649,-8.12388 -7.04963,-19.05298 -5.96882,-28.26604l0.2,-1.6813l0.45459,0.05972l0.54702,-1.35512c0.3827,0.26808 0.79118,0.50491 1.19914,0.74237l0.34833,-0.36603l1.6,1.6813l-0.02923,0.03072c0.0888,0.08781 0.17441,0.17946 0.25635,0.27557c0.55124,0.64657 0.52511,1.64665 0.75544,2.48031c0.01072,0.03878 0.02147,0.07754 0.03227,0.11629c0.33368,0.01738 0.63867,0.14934 0.88007,0.3592c0.1307,-0.47717 0.26572,-0.96967 0.39072,-1.48522c1.33752,-5.51699 3.76925,-10.2747 5.91255,-15.44906l0.06602,-0.05981l-0.0272,-0.01632l0.78555,-1.44458c0.18925,-0.36347 0.5108,-0.64 0.8966,-0.75807c0.08333,-0.19295 0.16328,-0.38345 0.23852,-0.57119c1.92605,-4.80605 3.8079,-9.57581 6.22568,-14.14386l0.56367,-1.38208c0.22167,-0.57953 0.76153,-0.9887 1.39234,-0.9887c0.48134,0 0.90972,0.23823 1.18419,0.60861c1.25099,-3.62519 10.55679,-14.52919 10.55679,-14.52919c0,0 1.91899,9.55998 2.265,11.15355c0.32036,-1.28895 0.92297,-2.51344 1.46824,-3.85188c1.79649,-4.40972 7.92578,-15.44813 7.92578,-15.44813c0,0 1.87062,9.84664 1.89799,12.60616c1.58976,-4.27926 8.14583,-15.0669 8.14583,-15.0669l4.61453,21.82632l4.94164,-12.43022l0.43574,7.82389c1.69427,6.97285 -0.08434,6.43269 1.32617,13.56471c0.05779,0.29219 0.59409,1.83408 0.98755,3.37491c0.13151,-1.37941 0.37478,-4.47883 1.51979,-4.69614c4.1641,-0.79032 6.52209,7.31485 7.70891,10.09912c1.57796,4.02699 2.88412,8.17265 4.51495,12.17599c0.43706,1.0729 1.46139,2.65114 2.0089,4.16525c-0.0005,-0.05569 -0.00113,-0.11137 -0.00201,-0.167c-0.02844,-1.8003 0.08452,-3.60127 0.20621,-5.39727l0.01313,-0.02966l-0.01016,-0.00119l0.198,-1.87257c0.07418,-0.79769 0.71422,-1.42105 1.49283,-1.42105c0.6236,0 1.15833,0.39988 1.38462,0.96895l0.78609,1.85857l-0.38981,0.18205c3.69871,6.84889 4.07762,16.69005 5.48597,24.0869l0.39039,1.84602c0.02793,0.12022 0.04274,0.24585 0.04274,0.37512c0,0.87052 -0.67158,1.57621 -1.5,1.57621c-0.25194,0 -0.48937,-0.06526 -0.69781,-0.18059l-0.90599,-0.47603c-0.41551,0.8765 0.05752,4.28449 0.09154,4.55371c0.67042,5.30381 1.46949,10.59748 2.18926,15.89646l0.3878,2.03751c0.02305,0.10983 0.0352,0.22394 0.0352,0.34104c0,0.87052 -0.67158,1.57621 -1.5,1.57621c-0.45913,0 -0.87008,-0.21676 -1.14523,-0.55821l-0.61753,-0.75706c-0.27038,0.41357 -0.72367,0.68478 -1.23724,0.68478c-0.7529,0 -1.37624,-0.5829 -1.48364,-1.34265l-0.39594,-2.49639l0.00652,-0.00114c-0.00376,-0.0102 -0.00751,-0.02041 -0.01125,-0.03062c-0.62794,-1.71706 -0.22564,-3.60497 -1.19871,-5.29534c-1.95512,-3.39632 -3.23113,-6.81102 -3.939,-10.83122c-1.19252,-6.77272 -1.78915,-14.13169 -4.08265,-20.75905c-2.90173,-1.75456 -5.58801,-3.87604 -8.8436,-5.16798c-4.46798,-1.77307 -9.36881,-3.30157 -14.37639,-4.44162c-3.66542,1.0379 -7.50051,1.50191 -11.2896,2.01662c-5.1519,0.69984 -10.27558,1.637 -15.40643,2.51017c-1.31108,2.43495 -2.90128,4.70932 -4.25469,7.38361c-2.28178,4.50872 -3.23455,9.75548 -3.22462,14.8124v1.6813c0,0.87052 -0.67158,1.57621 -1.5,1.57621c-0.7529,0 -1.37624,-0.5829 -1.48364,-1.34265l-0.39594,-2.49639l0.26865,-0.04705c-0.24572,-0.67206 -0.46382,-1.34089 -0.6626,-2.01477c-0.18046,1.24034 -0.3744,2.37621 -0.43057,3.1803c-0.39226,5.61562 -1.22681,11.26022 -1.06351,16.86923zM271.58556,111.0224c0.00034,0.0196 0.0007,0.03922 0.00108,0.05884c0.00503,-0.00287 0.01008,-0.0057 0.01515,-0.00852c-0.00543,-0.01677 -0.01084,-0.03355 -0.01623,-0.05032zM358.52696,144.49812c0.01807,0.00409 0.03614,0.00818 0.05421,0.01227c-0.00613,-0.03885 -0.01229,-0.07771 -0.01847,-0.1166c-0.01137,0.03486 -0.02328,0.06964 -0.03574,0.10434z" fill="#00cc24"/><path d="M310.66826,117.5812c0,5.27148 -3.38511,9.36973 -9,9.36973c-5.61489,0 -10.16667,-4.27338 -10.16667,-9.54486c0,-1.7417 0.71965,-10.43875 3.6922,-11.02953c6.02434,-1.19733 15.47447,7.67487 15.47447,11.20466z" fill="#dca922"/><path d="M330.30938,105.8161c2.97256,0.59079 3.6922,9.28783 3.6922,11.02953c0,5.27148 -4.55178,9.54487 -10.16667,9.54487c-5.61489,0 -9,-4.09825 -9,-9.36973c0,-3.5298 9.45013,-12.40198 15.47447,-11.20466z" data-paper-data="{&quot;index&quot;:null}" fill="#dca922"/><path d="M279.44802,95.29909l5.43041,-0.59097l15.43697,11.42942l-9.07347,-13.3161l3.28832,0.15415l14.69153,21.14287z" fill="#000000"/><path d="M315.78135,114.08342l14.69153,-21.14287l3.28832,-0.15415l-9.07347,13.31611l15.43697,-11.42942l5.43041,0.59097z" data-paper-data="{&quot;index&quot;:null}" fill="#000000"/></g><g fill="#6a5210" stroke="none" stroke-width="0" stroke-linecap="butt"><path d="M305.72353,118.07195c0,3.77225 -2.05203,6.83026 -4.58334,6.83026c-2.5313,0 -4.58333,-3.05802 -4.58333,-6.83026c0,-3.77225 2.05203,-6.83026 4.58333,-6.83026c2.5313,0 4.58334,3.05802 4.58334,6.83026z"/><path d="M328.05686,118.77249c0,3.77225 -2.05203,6.83026 -4.58333,6.83026c-2.5313,0 -4.58333,-3.05802 -4.58333,-6.83026c0,-3.77225 2.05203,-6.83026 4.58333,-6.83026c2.5313,0 4.58333,3.05802 4.58333,6.83026z"/></g><path d="M293.89203,140.76163c0,0 -2.0429,-0.99079 -1.10002,-3.1375c0.94288,-2.14671 2.98579,-1.15591 2.98579,-1.15591c3.58013,1.73831 7.04126,3.55838 10.63847,5.24062c1.22953,0.57499 2.87309,1.44417 4.41616,1.779c1.15114,-0.26941 2.48005,-0.33222 3.78706,-0.32468c3.07944,-0.90942 6.02963,-2.83417 9.18835,-3.37933c3.81324,-0.65812 7.86799,-0.21753 10.91051,-2.93587l0.18009,-0.04508l-0.03057,-0.05507l1.96677,-1.20557c0.34024,-0.2173 0.73969,-0.34244 1.16694,-0.34244c1.24264,0 2.25,1.05855 2.25,2.36433c0,0.22953 -0.03112,0.45141 -0.08918,0.66127l-0.65346,2.57496l-0.07432,-0.02083c-0.02609,0.16384 -0.0581,0.32692 -0.09692,0.48906c-0.60671,2.53436 -4.26527,4.42104 -6.1447,5.65685c-0.37021,0.24343 -0.74415,0.48058 -1.12153,0.71175c0.00888,0.08534 0.01344,0.17206 0.01344,0.25989c0,1.21112 -0.8666,2.20954 -1.98374,2.34795l-2.46889,0.3459l-0.00905,-0.07131l-0.1393,0.08687c-0.14216,0.00025 -0.28447,0.00044 -0.42689,0.00056c-0.53331,0.30238 -1.20593,0.38412 -1.83608,0.51272c-2.58351,1.09786 -5.23826,2.03314 -7.89102,2.89005c-1.62907,0.52624 -3.15354,1.64933 -4.85764,1.67636c-2.98334,0.04733 -3.81889,-1.008 -6.0179,-2.47078c-3.76873,-2.50696 -6.89578,-5.18 -10.17554,-8.33921l-0.02002,-0.05161l-0.01491,0.01568l-1.66667,-1.75135c-0.40717,-0.42786 -0.65901,-1.01893 -0.65901,-1.67183c0,-0.20961 0.02596,-0.41285 0.07468,-0.60636c-0.0337,-0.01647 -0.06734,-0.03284 -0.1009,-0.0491zM310.04837,149.55151c-0.32306,-0.05574 -0.64546,-0.11439 -0.9671,-0.17606c0.28184,0.20719 0.59661,0.46219 0.93257,0.70707z" fill="#ffffff" stroke="none" stroke-width="0.5" stroke-linecap="butt"/><path d="M287.86823,131.99483l21.83333,8.75675l36.16667,-9.9827c0,0 -5.13849,13.96307 -10.93057,19.2528c-4.47609,4.08788 -20.90276,9.81963 -20.90276,9.81963c0,0 -12.33039,-6.04069 -16.18312,-10.14078c-4.69997,-5.00168 -9.98355,-17.7057 -9.98355,-17.7057zM309.70156,145.56778c-0.45179,0.11868 -15.18587,-8.47411 -15.53001,-8.27253c-1.06852,0.62589 3.09763,6.41876 8.67863,10.96061c3.47753,2.83003 8.93179,4.96007 9.64305,5.70747c3.772,3.96366 31.63095,-13.88883 23.875,-15.92635z" fill="#8a0000" stroke="none" stroke-width="0" stroke-linecap="butt"/><path d="M314.27734,135.30799c0.54885,1.32257 -0.54885,1.98383 -0.54885,1.98383l-0.7239,0.34184c-2.4769,0.36789 -4.88714,0.29255 -7.36775,0.78924c-1.94717,0.17617 -4.22812,0.62809 -5.85887,-1.13692c-2.68751,-2.90876 -3.84927,-8.50254 0.1502,-10.55975c2.32671,-1.19678 5.57761,-1.13577 8.04055,-0.69568c0.7593,0.13568 1.53049,0.96067 2.24442,0.62087c0.2204,-0.10491 1.1321,-5.28569 1.28497,-6.02461c0,0 0.29766,-1.43452 1.48829,-1.0759c1.19063,0.35863 0.89297,1.79314 0.89297,1.79314c-0.37291,1.79229 -0.92226,6.81396 -2.31502,7.77626c-1.28556,0.88822 -2.71784,0.06191 -3.97374,-0.16775c-1.84383,-0.33718 -3.49671,-0.15518 -5.33099,0.19358c-0.58954,0.11209 -2.43014,0.45029 -2.63385,1.53907c-0.14058,0.75136 0.66245,2.3443 0.86288,2.75295c1.27936,2.60846 2.49982,2.27306 4.85203,2.04898c2.47517,-0.4985 4.89258,-0.41072 7.35948,-0.78801l-0.06936,-0.05247c0,0 1.0977,-0.66128 1.64655,0.66127z" fill="#878787" stroke="none" stroke-width="0.5" stroke-linecap="butt"/><path d="M339.42855,313.9476c0,0 -10.25383,-10.75651 -10.39022,-19.75989c-0.15031,-9.92192 7.52609,-32.2841 7.52609,-32.2841" data-paper-data="{&quot;index&quot;:null}" fill="none" stroke="#000000" stroke-width="3.5" stroke-linecap="round"/><g data-paper-data="{&quot;index&quot;:null}" stroke="#2c0050" stroke-width="3.5" stroke-linecap="butt"><path d="M330.08615,346.33688c0,0 -1.58164,-4.94649 -2.02974,-7.62972c-0.4077,-2.44141 7.50518,-3.32084 7.18465,-5.24029c-0.67284,-4.02901 -3.18691,-13.05082 -3.18691,-13.05082l15.81481,-3.33272l3.54515,25.75358z" fill="#500190"/><path d="M330.92969,319.84459c-0.34506,-2.06623 3.11703,-5.22054 7.90179,-6.13899c2.42716,-0.4659 6.06882,-4.28429 7.75766,-3.89173c1.64045,0.38129 1.55294,6.10299 1.72294,7.12109c0.34506,2.06623 -3.25403,4.48578 -8.03879,5.40426c-4.78475,0.91844 -8.94328,-0.012 -9.28833,-2.07824z" fill="#979025"/></g><path d="M147.57997,320.92845c0,0 -1.58683,-10.47453 -0.30567,-21.40566c-1.10796,-9.73837 -0.14966,-29.3269 -0.14966,-29.3269" fill="none" stroke="#000000" stroke-width="3.5" stroke-linecap="round"/><path d="M103.19555,269.95412c0,0 1.79843,4.03372 4.36881,2.98611c4.78238,-1.94916 14.24071,-7.58743 21.86225,-12.42981c0.57222,0.45042 3.37038,23.52976 3.37038,23.52976" fill="none" stroke="#000000" stroke-width="3.5" stroke-linecap="round"/><g data-paper-data="{&quot;index&quot;:null}" stroke="#121312" stroke-width="3.5" stroke-linecap="butt"><path d="M131.52657,310.01053l-4.27769,-21.68777l15.96637,-2.34228c0,0 0.29366,7.99999 0.85092,11.43035c0.15575,0.95869 3.21365,0.67508 5.51483,0.74604c1.62152,0.05 2.70384,0.3063 2.84343,1.16554c0.37111,2.28453 0.33963,6.73508 0.33963,6.73508z" fill="#383838"/><path d="M144.18188,285.51838c0.28579,1.75921 -3.37693,3.81798 -8.18089,4.59839c-4.80399,0.78042 -8.93003,-0.01305 -9.21583,-1.77227c-0.14082,-0.86682 -1.92006,-5.40831 -0.47943,-6.23183c1.48314,-0.84782 6.06422,1.04926 8.50114,0.65336c4.80399,-0.78042 9.08924,0.99314 9.37504,2.75235z" fill="#979025"/></g><g stroke="#121312" stroke-width="3.5" stroke-linecap="butt"><path d="M138.95855,345.7835l-0.07921,-22.10546l16.12058,0.73392c0,0 -1.23166,7.91005 -1.33627,11.38381c-0.04985,1.6549 7.90621,1.35986 7.84281,3.46479c-0.06969,2.31342 -0.94614,6.67693 -0.94614,6.67693z" fill="#383838"/><path d="M156.03672,324.1419c-0.05366,1.78145 -4.04079,3.10681 -8.90555,2.96029c-4.86474,-0.14652 -8.76492,-1.70947 -8.71125,-3.49092c0.02643,-0.87778 -0.85754,-5.6746 0.71332,-6.20941c1.6172,-0.55058 5.75442,2.18228 8.22214,2.25662c4.86474,0.14652 8.735,2.70196 8.68135,4.48342z" fill="#979025"/></g><g><path d="M187.72486,246.53848l-36.92848,-49.40834" data-paper-data="{&quot;index&quot;:null}" fill="none" stroke="#383838" stroke-width="3.5" stroke-linecap="round"/><g data-paper-data="{&quot;index&quot;:null}" fill="#393839" stroke="#131313" stroke-width="2.5" stroke-linecap="butt"><path d="M187.39079,246.2238c4.03714,-1.36678 7.81352,-0.89951 8.43476,1.04372c0.62124,1.94322 -2.14787,4.62654 -6.18502,5.99335c-4.03714,1.36678 -7.81352,0.89951 -8.43476,-1.04372c-0.62124,-1.94322 2.14787,-4.62654 6.18502,-5.99335z"/><path d="M187.9797,250.63427c4.03714,-1.36678 7.81352,-0.89951 8.43476,1.04372c0.62124,1.94322 -2.14787,4.62654 -6.18502,5.99335c-4.03714,1.36678 -7.81352,0.89951 -8.43476,-1.04372c-0.62124,-1.94322 2.14787,-4.62654 6.18501,-5.99334z"/><path d="M189.67009,254.40293c4.03714,-1.36678 7.81352,-0.89951 8.43476,1.04372c0.62124,1.94322 -2.14789,4.62655 -6.18502,5.99335c-4.03714,1.36678 -7.81352,0.89951 -8.43476,-1.04372c-0.62124,-1.94322 2.14787,-4.62654 6.18502,-5.99335z"/><path d="M192.03788,244.56223c1.70749,-1.04757 4.85597,1.14852 7.03234,4.90513c2.17636,3.75659 2.55648,7.65113 0.84899,8.69872c-1.70749,1.04757 -4.85596,-1.14854 -7.03234,-4.90513c-2.17636,-3.75659 -2.55648,-7.65113 -0.849,-8.6987z" data-paper-data="{&quot;index&quot;:null}"/></g></g><g stroke="none" stroke-width="0" stroke-linecap="butt"><path d="M99.39382,271.07497v-77.91284h54.11557v77.91284z" fill="#000000"/><path d="M99.31052,262.22488v-8.17446h54.11557v8.17446z" fill="#a17f00"/><g fill="#ca9e00"><path d="M120.94873,262.22287v-13.53896h3.55972v13.53896z"/><path d="M121.68557,262.33685v-7.66356h10.35556v7.66356z"/><path d="M129.2008,259.66835v-11.49533h2.9125v11.49533z"/><path d="M129.56561,257.92674v-3.07749h15.66664l-1.94931,6.61088c0,0 -0.76046,-4.50669 -3.0715,-3.74135c-2.49998,0.82792 -2.79143,2.94348 -4.29254,2.94348c-0.54892,0 -0.41234,-2.19028 -1.26289,-2.54196c-0.8012,-0.33128 -1.08222,2.42668 -1.98558,2.43369c-1.29357,0.01005 -3.10482,-2.62728 -3.10482,-2.62728z"/><path d="M121.09242,260.51322c-0.90336,-0.00702 -1.18438,-2.76496 -1.98558,-2.43369c-0.85055,0.35168 -0.71397,2.54194 -1.26289,2.54194c-1.50111,0 -1.79256,-2.11555 -4.29255,-2.94348c-2.31104,-0.76535 -3.0715,3.74135 -3.0715,3.74135l-1.9493,-6.61088h15.66664v3.07749c0,0 -1.81125,2.63733 -3.10482,2.62728z" data-paper-data="{&quot;index&quot;:null}"/></g><g fill="#ca9e00"><path d="M119.70784,219.77581l0.11076,-22.0875h4.02574l0.11076,22.0875z"/><path d="M120.58698,219.95216v-11.85719h12.35568v11.85719z"/><path d="M129.55375,215.82342v-17.78579h3.47503v17.78579z"/><path d="M129.98904,213.12877v-4.76154h18.69257l-2.3258,10.22848c0,0 -0.90734,-6.97283 -3.66474,-5.78866c-2.98284,1.28097 -3.33059,4.5542 -5.12163,4.5542c-0.65494,0 -0.49198,-3.38884 -1.50681,-3.93296c-0.95594,-0.51255 -1.29124,3.7546 -2.36908,3.76546c-1.54342,0.01555 -3.70451,-4.06497 -3.70451,-4.06497z"/><path d="M119.87927,217.13062c-1.07784,-0.01086 -1.41314,-4.278 -2.36908,-3.76545c-1.01483,0.54412 -0.85187,3.93296 -1.50681,3.93296c-1.79104,0 -2.13878,-3.27322 -5.12163,-4.55419c-2.7574,-1.18416 -3.66474,5.78866 -3.66474,5.78866l-2.3258,-10.22848h18.69257v4.76153c0,0 -2.16109,4.08052 -3.70451,4.06497z" data-paper-data="{&quot;index&quot;:null}"/></g></g><g stroke="none" stroke-linecap="butt"><path d="M168.56381,150.21783c0,22.25487 -17.96444,40.29602 -40.12469,40.29602c-22.16026,0 -40.12469,-18.04114 -40.12469,-40.29602c0,-22.25487 17.96444,-40.29601 40.12469,-40.29601c22.16026,0 40.12469,18.04113 40.12469,40.29601z" fill="#000000" stroke-width="0"/><path d="M149.54885,142.7556l0.64458,-39.13523l10.31318,-24.21077v63.34601z" fill="#000000" stroke-width="0"/><path d="M95.4505,144.46098v-63.346l10.31318,24.21077l0.64457,39.13522z" data-paper-data="{&quot;index&quot;:null}" fill="#000000" stroke-width="0"/><path d="M111.51902,182.22248l-7.09031,-21.88919h51.24359l-8.37945,20.89423z" fill="#d9b796" stroke-width="0"/><path d="M111.84132,150.88113c0,2.83909 -4.32878,5.14064 -9.6686,5.14064c-5.33982,0 -9.6686,-2.30155 -9.6686,-5.14064c0,-2.83909 4.32878,-5.14064 9.6686,-5.14064c5.33982,0 9.6686,2.30155 9.6686,5.14064z" fill="#ffffff" stroke-width="0"/><path d="M163.13069,151.92321c0,2.83909 -4.32878,5.14064 -9.6686,5.14064c-5.33982,0 -9.6686,-2.30155 -9.6686,-5.14064c0,-2.83909 4.32878,-5.14065 9.6686,-5.14065c5.33982,0 9.6686,2.30155 9.6686,5.14065z" fill="#ffffff" stroke-width="0"/><path d="M143.58873,170.93781c0,1.28633 -1.25,1.28633 -1.25,1.28633h-1.24118c-8.05477,0 -16.04077,0.51091 -24.07895,0.51091c0,0 -1.25,0 -1.25,-1.28633c0,-1.28633 1.25,-1.28633 1.25,-1.28633c8.03765,0 16.02432,-0.51091 24.07895,-0.51091h1.24118c0,0 1.25,0 1.25,1.28633z" fill="#000000" stroke-width="0.5"/><path d="M143.41224,174.99186c-0.46424,-1.19433 0.69636,-1.67207 0.69636,-1.67207l1.07607,-0.42797c1.73066,-1.44122 3.14702,-3.52157 0.90224,-5.50069c-0.51696,-0.45579 -2.43233,0.08842 -3.00658,0.20989c0,0 -1.22573,0.25227 -1.47087,-1.00908c-0.24515,-1.26136 0.98058,-1.51362 0.98058,-1.51362c1.41538,-0.28467 3.63322,-0.74574 4.93699,0.20989c1.66902,1.22334 2.86113,4.78739 1.89704,6.71545c-0.72393,1.44775 -1.80953,2.15425 -2.9807,3.11097l-1.40629,0.59384c0,0 -1.1606,0.47773 -1.62484,-0.7166z" fill="#000000" stroke-width="0.5"/><path d="M118.51685,175.53594c0,1.28633 -1.25,1.28633 -1.25,1.28633l-1.23809,-0.02497c-6.01717,-1.26286 -7.03908,-9.70187 -0.49648,-11.20808c0,0 1.22573,-0.25227 1.47087,1.00908c0.24514,1.26136 -0.98058,1.51362 -0.98058,1.51362c-4.067,0.67924 -2.77793,5.50466 0.49648,6.16267l0.7478,-0.02497c0,0 1.25,0 1.25,1.28633z" fill="#000000" stroke-width="0.5"/><path d="M136.02373,165.46108c-2.48264,2.40423 -5.88291,1.65708 -9.03295,1.12561c0,0 -1.23299,-0.21147 -1.02749,-1.4803c0.2055,-1.26882 1.43849,-1.05736 1.43849,-1.05736c2.02027,0.35297 5.35568,1.30234 6.85419,-0.4071l0.56579,-0.7957c-0.49478,-2.28126 -1.52111,-4.38228 -1.90785,-6.76861c0,0 -0.20549,-1.26882 1.0275,-1.4803c1.23299,-0.21147 1.43849,1.05736 1.43849,1.05736c0.40843,2.52354 1.48298,4.66021 1.97863,7.11186l0.02427,0.50772c0,0 0.00001,0.74858 -0.55493,1.10362z" fill="#000000" stroke-width="0.5"/></g><g><path d="M151.74273,166.43427l-50.10321,35.02767" fill="none" stroke="#383838" stroke-width="3.5" stroke-linecap="round"/><g fill="#393839" stroke="#131313" stroke-width="2.5" stroke-linecap="butt"><path d="M147.27888,158.94087c1.18119,-1.64539 4.9099,-0.8726 8.3283,1.72612c3.41839,2.59873 5.23201,6.03925 4.05081,7.68463c-1.18119,1.64539 -4.9099,0.8726 -8.3283,-1.72612c-3.41839,-2.59873 -5.23201,-6.03925 -4.05081,-7.68463z"/><path d="M149.17996,154.94184c1.18119,-1.64539 4.9099,-0.8726 8.3283,1.72612c3.41839,2.59873 5.23201,6.03926 4.05083,7.68465c-1.18119,1.64539 -4.90992,0.87259 -8.32831,-1.72613c-3.41839,-2.59873 -5.23199,-6.03926 -4.05081,-7.68463z"/><path d="M151.93188,151.9072c1.18119,-1.64539 4.9099,-0.8726 8.3283,1.72612c3.41839,2.59873 5.23201,6.03925 4.05081,7.68463c-1.18119,1.64539 -4.9099,0.8726 -8.3283,-1.72612c-3.41839,-2.59873 -5.23199,-6.03926 -4.05081,-7.68463z"/><path d="M158.69036,161.71278c3.20981,-2.86661 6.86812,-3.93798 8.17107,-2.39298c1.30295,1.545 -0.24284,5.1213 -3.45265,7.98792c-3.20981,2.86661 -6.86812,3.93797 -8.17107,2.39298c-1.30295,-1.545 0.24284,-5.12132 3.45265,-7.98792z" data-paper-data="{&quot;index&quot;:null}"/></g></g></g></svg>