<svg version="1.1" xmlns="http://www.w3.org/2000/svg" xmlns:xlink="http://www.w3.org/1999/xlink" width="488.16667" height="368.16667" viewBox="0,0,488.16667,368.16667"><g transform="translate(4.08333,4.08332)"><g data-paper-data="{&quot;isPaintingLayer&quot;:true}" stroke-linecap="butt" stroke-linejoin="miter" stroke-miterlimit="10" stroke-dasharray="" stroke-dashoffset="0" style="mix-blend-mode: normal"><path d="M-0.33333,360.33334v-360.66666h480.66667v360.66667z" fill="#ffffff" fill-rule="nonzero" stroke="#ffffff" stroke-width="7.5"/><g fill-rule="evenodd" stroke="none" stroke-width="1"><g><path d="M101.30876,245.70172c15.2554,-53.42561 52.14628,-83.70938 90.84144,-90.66747c47.53712,-8.42935 124.51435,26.66342 114.9004,81.22718c4.56771,1.70624 23.32284,9.8793 35.53104,16.93482l2.07893,19.51567c-12.25398,6.71225 -35.24173,3.52744 -49.15127,-18.43323c-4.40111,5.53531 -18.42298,10.20534 -30.63108,3.14949c-22.85894,-13.33154 -42.11734,-27.65192 -71.65408,-24.16504c-23.66286,2.89906 -42.51041,26.15622 -65.18585,36.54997c-27.60233,12.77096 -32.31379,-3.06123 -26.72954,-24.1114z" fill="#272525"/><path d="M342.1999,264.16421c-4.96961,4.46178 -14.57005,8.39581 -20.69557,5.90997c-1.22052,-1.87363 -25.00345,-23.87927 -28.899,-19.98548c-9.64423,9.91285 -49.95028,-21.67548 -81.25364,-24.1257c-43.28141,-3.44287 -63.09983,28.80323 -90.38461,35.68002c-14.94806,3.78549 -13.93348,-11.182 -12.66926,-15.28688c20.73144,-63.42359 63.04971,-78.25395 87.59712,-82.07921c32.12624,-5.08588 63.99363,14.01624 87.46141,34.12692c4.71429,4.1486 12.90108,13.56073 15.6575,19.20336c3.82896,8.96912 3.8707,10.77952 1.82611,20.33659c-0.14788,1.45255 41.35995,26.22041 41.35995,26.22041z" fill="#fff63b"/><path d="M290.8408,236.36234c1.74678,1.13727 0.08304,3.62104 -1.3902,2.56801c-50.41015,-33.80141 -104.86896,-42.78374 -143.94872,-13.17409c-8.19083,6.16606 -19.92041,19.93055 -22.38435,23.06665c-2.54796,3.41004 -3.81001,-0.27463 -1.62002,-3.49475c2.10617,-2.94682 4.04341,-5.34634 7.74957,-9.59758c31.25039,-35.31692 72.24464,-60.442 161.59374,0.63177z" fill="#272525"/></g><g><path d="M286.51499,245.3948c-5.7901,4.20874 -20.9266,3.74177 -30.05985,-7.46027c-16.96258,-20.80355 -30.19866,-41.05909 -58.80628,-48.37157c-22.77635,-5.81605 -48.14782,9.43989 -72.73687,11.4544c-30.02049,2.1393 -29.04758,-14.63891 -16.32761,-32.59263c31.84204,-45.02163 76.22346,-60.71435 114.51466,-53.71515c47.02767,8.79107 106.92521,69.1832 79.96616,117.80571c5.64057,5.03282 36.49451,35.20819 33.90372,40.70208c-7.07743,15.19763 -46.82235,11.94514 -50.45395,-27.82258z" fill="#272525"/><path d="M326.69624,271.55167c-4.59071,5.17743 -11.95944,7.70174 -21.32523,-1.774c-5.93513,-6.02231 -15.40141,-31.70812 -20.3284,-29.33058c-12.35904,6.08094 -39.46212,-38.21919 -67.66785,-51.69969c-39.27775,-18.38856 -68.3566,5.01319 -95.87033,1.93255c-15.07285,-1.64597 -9.32198,-15.45459 -6.7738,-18.86422c40.18064,-52.6399 84.57881,-51.84958 108.78699,-46.79082c31.7652,6.78722 54.89351,35.78149 70.38037,63.32148c3.11429,5.45303 7.82694,17.39066 8.24628,23.81162c0.86058,9.85249 6.4177,11.26448 1.17377,19.53638c-0.96879,1.19973 23.37821,39.85729 23.37821,39.85729z" fill="#fff63b"/><path d="M287.72003,226.89051c1.22042,1.87396 -1.09563,3.55753 -2.12686,2.04167c-35.83804,-49.98646 -83.38714,-77.5137 -129.89391,-63.67382c-9.89532,2.94442 -25.181,11.71911 -28.29728,14.05501c-3.39023,2.25187 -5.51493,-3.49603 -2.4829,-5.5584c3.03194,-2.06204 7.30628,-5.23988 11.95943,-7.70174c41.33054,-22.32518 87.9199,-28.64955 150.84152,60.83729z" fill="#272525"/></g><g><path d="M315.28402,228.01112c-7.15762,-0.10701 -18.56563,-7.81488 -21.31998,-21.24677c-5.78223,-26.94803 -10.80776,-48.56947 -32.6541,-69.07955c-17.49004,-16.17263 -43.34123,-17.84246 -65.67426,-28.01622c-27.27987,-12.59606 -13.44354,-33.20215 5.80036,-43.15466c48.15219,-25.01796 88.58911,-11.3656 118.60239,13.75678c36.93772,30.85079 61.9464,114.05391 16.36135,144.35673c2.60854,7.09518 16.07074,48.99175 11.27003,52.90625c-12.99175,10.08014 -45.95274,-13.25373 -32.3858,-49.52256z" fill="#272525"/><path d="M339.27173,270.75244c-6.44165,-0.48581 -15.42953,-5.35095 -17.84878,-12.08835c-2.04014,-6.02134 -3.7407,-24.82082 -1.61176,-34.65173c-13.59927,-0.59283 -20.00593,-54.69761 -38.44057,-80.44876c-25.63182,-35.45815 -61.80062,-28.9206 -84.3638,-45.15722c-12.24984,-8.86625 -1.23732,-18.35771 2.88949,-20.08291c58.78386,-27.43612 97.4291,-5.04795 116.09751,11.18812c24.58294,21.3529 31.60465,58.86907 32.60668,90.63634c0.14581,6.33671 -1.18404,19.40955 -3.58553,25.26121c-3.77076,9.32526 -5.37087,10.63002 -13.4138,15.34354c-1.51618,1.03114 13.20728,50.5067 7.67056,49.99976z" fill="#fff63b"/><path d="M325.68794,211.74092c0.23102,2.16818 -2.5692,2.50439 -2.69485,0.96761c-8.48885,-61.93661 -37.4015,-110.08968 -84.36521,-120.05965c-9.83059,-2.12885 -27.03029,-1.73316 -31.09346,-1.18697c-4.06284,0.54629 -2.25156,-3.39011 1.3695,-3.47316c3.70508,-0.357 6.50519,-0.69288 11.85208,-0.54423c45.91425,-0.2405 90.70868,13.85475 104.93193,124.29641z" fill="#272525"/></g></g></g></g></svg>