<svg version="1.1" xmlns="http://www.w3.org/2000/svg" xmlns:xlink="http://www.w3.org/1999/xlink" width="182.33334" height="127.81198" viewBox="0,0,182.33334,127.81198"><defs><radialGradient cx="182.83333" cy="197.5" r="34.33334" gradientUnits="userSpaceOnUse" id="color-1"><stop offset="0" stop-color="#1f1f1f"/><stop offset="1" stop-color="#1f1f1f" stop-opacity="0"/></radialGradient><radialGradient cx="296.5" cy="197.5" r="34.33333" gradientUnits="userSpaceOnUse" id="color-2"><stop offset="0" stop-color="#1f1f1f"/><stop offset="1" stop-color="#1f1f1f" stop-opacity="0"/></radialGradient><radialGradient cx="213.83334" cy="197.5" r="34.33333" gradientUnits="userSpaceOnUse" id="color-3"><stop offset="0" stop-color="#1f1f1f"/><stop offset="1" stop-color="#1f1f1f" stop-opacity="0"/></radialGradient><radialGradient cx="267.5" cy="197.5" r="34.33334" gradientUnits="userSpaceOnUse" id="color-4"><stop offset="0" stop-color="#1f1f1f"/><stop offset="1" stop-color="#1f1f1f" stop-opacity="0"/></radialGradient><radialGradient cx="239.5" cy="197.5" r="34.33334" gradientUnits="userSpaceOnUse" id="color-5"><stop offset="0" stop-color="#1f1f1f"/><stop offset="1" stop-color="#1f1f1f" stop-opacity="0"/></radialGradient></defs><g transform="translate(-148.5,-108.33901)"><g data-paper-data="{&quot;isPaintingLayer&quot;:true}" stroke-miterlimit="10" stroke-dasharray="" stroke-dashoffset="0" style="mix-blend-mode: normal"><g fill-rule="nonzero" stroke="none" stroke-width="0" stroke-linecap="butt" stroke-linejoin="miter"><path d="M148.5,197.5c0,-18.96177 15.37156,-34.33334 34.33334,-34.33334c18.96177,0 34.33334,15.37156 34.33334,34.33334c0,18.96177 -15.37156,34.33334 -34.33334,34.33334c-18.96177,0 -34.33334,-15.37156 -34.33334,-34.33334z" fill="url(#color-1)"/><path d="M262.16667,197.5c0,-18.96177 15.37156,-34.33334 34.33334,-34.33334c18.96177,0 34.33333,15.37156 34.33333,34.33334c0,18.96177 -15.37156,34.33334 -34.33333,34.33334c-18.96177,0 -34.33334,-15.37156 -34.33334,-34.33334z" fill="url(#color-2)"/><path d="M179.5,197.5c0,-18.96177 15.37156,-34.33334 34.33334,-34.33334c18.96177,0 34.33333,15.37156 34.33333,34.33334c0,18.96177 -15.37156,34.33334 -34.33333,34.33334c-18.96177,0 -34.33334,-15.37156 -34.33334,-34.33334z" fill="url(#color-3)"/><path d="M233.16667,197.5c0,-18.96177 15.37156,-34.33334 34.33334,-34.33334c18.96177,0 34.33334,15.37156 34.33334,34.33334c0,18.96177 -15.37156,34.33334 -34.33334,34.33334c-18.96178,0 -34.33334,-15.37156 -34.33334,-34.33334z" fill="url(#color-4)"/><path d="M205.16667,197.5c0,-18.96177 15.37156,-34.33334 34.33334,-34.33334c18.96178,0 34.33334,15.37156 34.33334,34.33334c0,18.96177 -15.37156,34.33334 -34.33334,34.33334c-18.96177,0 -34.33334,-15.37156 -34.33334,-34.33334z" fill="url(#color-5)"/></g><path d="M154.0863,204.18464c0,-23.05559 0,-69.13003 0,-82.09091c0,-6.64651 5.16204,-13.75472 13.64097,-13.75472c34.6915,0 124.90883,0 144.27273,0c7.15266,0 13.9137,7.16213 13.9137,13.84562c0,12.92917 0,58.60982 0,81.72728c0,8.24133 -5.27286,13.61508 -13.9137,13.61508c-34.88915,0 -124.68663,-0.00001 -144,-0.00001c-7.15266,0 -13.9137,-5.25502 -13.9137,-13.34235z" fill="#ff6666" fill-rule="nonzero" stroke="none" stroke-width="0" stroke-linecap="butt" stroke-linejoin="miter"/><text transform="translate(154.39156,231.95274) scale(0.33586,0.33586)" font-size="40" xml:space="preserve" fill="#ffffff" fill-rule="nonzero" stroke="none" stroke-width="1" stroke-linecap="butt" stroke-linejoin="miter" stroke-miterlimit="10" stroke-dasharray="" stroke-dashoffset="0" font-family="Sans Serif" font-weight="normal" text-anchor="start" style="mix-blend-mode: normal"><tspan x="0" dy="0">not getting premium</tspan></text><g><g fill-rule="evenodd"><g><path d="M220.16045,189.92351c0.58165,0.29082 1.81765,0.94518 0.07271,3.41719c-1.74495,2.47201 -6.76167,2.98095 -7.34332,2.98095c-2.25389,0.07271 -5.01673,0.07271 -8.07039,-0.94518c-8.87016,-2.90825 -8.94286,-12.43276 -6.10732,-13.95959c2.76284,-1.52683 3.99884,4.36237 7.99768,7.92497c1.74495,1.59954 3.85343,2.18119 5.59838,2.54472c2.47201,0.43624 7.19791,-2.3266 7.85227,-1.96307z" fill="#ffab19" stroke="#001026" stroke-width="1.2" stroke-linecap="round" stroke-linejoin="round"/><path d="M202.12931,184.03432c1.1633,1.96307 3.41719,4.7259 3.41719,4.7259c0,0 -2.69013,-0.65436 -4.21696,0.58165c-1.23601,0.94518 -0.94518,2.54472 -0.79977,3.05366c-0.94518,-0.94518 -2.10848,-2.25389 -2.83554,-4.79861c-0.72706,-2.54472 0,-5.59838 1.45412,-6.03461c1.45412,-0.29082 1.81765,0.79977 2.98095,2.47201z" fill="#ffffff" stroke="none" stroke-width="1" stroke-linecap="butt" stroke-linejoin="miter"/></g><path d="M223.79575,197.48496c-1.30871,0.87247 -5.8165,4.07155 -11.56028,5.8892l-0.29082,0.07271c-0.29082,0.07271 -0.43624,0.43624 -0.29082,0.72706c1.23601,1.74495 3.4899,5.23485 -0.50894,6.47085c-3.85343,1.23601 -11.05134,-9.01557 -7.99768,-11.70569c1.38142,-1.01789 2.61742,-0.50894 3.27178,-0.21812c0.36353,0.14541 0.72706,0.14541 1.09059,0.07271c0.87247,-0.29082 2.47201,-0.87247 3.70802,-1.52683c3.12637,-1.59954 3.85343,-2.25389 5.30755,-3.34448c1.45412,-1.09059 4.79861,-3.78072 7.48874,-1.45412c2.3266,1.96307 1.01789,4.14425 -0.21812,5.01673z" fill="#ffab19" stroke="#001026" stroke-width="1.2" stroke-linecap="round" stroke-linejoin="round"/><path d="M235.35604,182.36207c0.36353,0.29082 4.79861,5.52567 6.25273,4.21696c1.74495,-1.52683 4.14425,-4.50778 6.76167,-2.10848c2.61742,2.3993 -2.3266,6.47085 -4.43508,7.56144c-5.01673,2.25389 -9.08827,-2.03577 -9.96075,-3.19907c-0.87247,-1.1633 -2.3993,-3.12637 -2.3993,-5.01673c0.07271,-2.03577 2.54472,-2.54472 3.78072,-1.45412z" fill="#ffab19" stroke="#001026" stroke-width="1.2" stroke-linecap="round" stroke-linejoin="round"/><g><path d="M235.42875,199.30261c1.52683,1.38142 4.87131,4.21696 4.87131,4.21696c0,0 10.39698,-1.81765 10.39698,3.41719c0,3.12637 -5.23485,3.85343 -12.28734,3.19907c-0.43624,-0.07271 -0.87247,-0.21812 -1.23601,-0.50894c-1.59954,-1.38142 -6.18003,-5.45296 -9.08827,-8.28851c-4.28966,-4.21696 -7.85227,-6.97979 -7.85227,-6.97979c-6.18003,-6.03461 -1.1633,-8.57933 0.79977,-12.06923c1.81765,-2.98095 2.61742,-2.3993 6.97979,-1.52683c2.47201,0.36353 3.92613,0.58165 5.52567,0.50894c2.3993,-0.07271 1.96307,3.41719 1.30871,5.23485c0,0 -1.01789,2.69013 -1.96307,4.07155c-1.1633,1.67224 -2.03577,2.76284 -2.90825,3.41719z" fill="#ffab19" stroke="#001026" stroke-width="1.2" stroke-linecap="round" stroke-linejoin="round"/><path d="M229.32143,193.92236c0,0 -1.09059,-0.87247 -2.25389,-1.96307c-1.45412,-1.30871 -2.90825,-2.3993 -1.45412,-4.6532c1.30871,-1.74495 2.54472,-4.07155 5.8165,-1.96307c3.12637,1.96307 1.74495,3.78072 1.74495,3.78072c-1.59954,3.27178 -3.85343,4.79861 -3.85343,4.79861z" fill="#ffffff" stroke="none" stroke-width="1" stroke-linecap="butt" stroke-linejoin="miter"/></g><path d="M218.3428,187.96045c1.59954,2.03577 4.07155,4.58049 0.94518,6.68897c-4.28966,2.3993 -7.85227,-4.87131 -8.57933,-7.41603c-0.65436,-2.25389 1.23601,-3.70802 2.83554,-4.94402c3.12637,-2.25389 5.74379,-4.28966 8.65204,-3.19907c3.63531,1.30871 1.01789,4.21696 -0.79977,5.52567c-1.09059,0.79977 -2.18119,1.67224 -2.98095,2.18119c-0.21812,0.36353 -0.29082,0.79977 -0.07271,1.1633z" fill="#ffab19" stroke="#001026" stroke-width="1.2" stroke-linecap="round" stroke-linejoin="round"/><g><path d="M241.24524,138.95648c0.21812,-0.14541 0.58165,-0.07271 0.65436,0.21812l1.89036,7.77956c0,0 4.6532,3.41719 6.03461,5.8165c2.3266,3.99884 2.3993,7.27062 2.3993,7.27062c0,0 5.16214,1.52683 6.03461,5.67108c0.87247,4.14425 -2.3266,11.99652 -15.99536,14.68665c-13.66876,2.69013 -24.64739,-1.01789 -29.80954,-9.30639c-5.16214,-8.28851 2.98095,-18.17655 2.54472,-17.5949l-1.52683,-13.01441c-0.07271,-0.29082 0.29082,-0.50894 0.58165,-0.36353l8.79745,5.74379c0,0 3.27178,-1.23601 6.68897,-1.38142c2.03577,-0.14541 3.78072,0 5.45296,0.29082z" fill="#ffab19" stroke="#001026" stroke-width="1.2" stroke-linecap="butt" stroke-linejoin="miter"/><path d="M252.00574,160.3321c0,0 5.01673,1.30871 5.8892,5.45296c0.87247,4.14425 -2.61742,11.63299 -16.14077,14.25041c-17.5949,3.63531 -25.95611,-6.83438 -21.08479,-14.54124c4.87131,-7.77956 13.23253,-1.1633 19.33985,-1.59954c5.23485,-0.36353 5.8165,-4.94402 11.99652,-3.5626z" fill="#ffffff" stroke="none" stroke-width="1" stroke-linecap="butt" stroke-linejoin="miter"/><path d="M229.10331,168.11166c0,-0.29082 0.29082,-0.50894 0.58165,-0.43624c1.38142,0.50894 5.30755,1.67224 9.66992,1.96307c3.92613,0.21812 6.25273,0 7.34332,-0.21812c0.36353,-0.07271 0.65436,0.29082 0.50894,0.65436c-0.65436,1.96307 -3.41719,7.41603 -11.05134,6.97979c-6.61626,-0.72706 -7.27062,-5.38026 -7.0525,-8.94286z" fill="#ffffff" stroke="#001026" stroke-width="1.2" stroke-linecap="round" stroke-linejoin="round"/><path d="M265.38369,161.13187c-3.41719,2.76284 -8.65204,2.83554 -8.65204,2.83554" fill="none" stroke="#001026" stroke-width="1.2" stroke-linecap="round" stroke-linejoin="round"/><path d="M264.43851,169.27496c-4.58049,0.36353 -7.41603,-1.01789 -7.41603,-1.01789" fill="none" stroke="#001026" stroke-width="1.2" stroke-linecap="round" stroke-linejoin="round"/><path d="M239.71841,162.00434c1.52683,0 3.12637,0.14541 3.19907,0.65436c0.07271,1.01789 -1.01789,3.05366 -2.18119,3.12637c-1.30871,0.14541 -4.36237,-1.67224 -4.36237,-2.83554c-0.07271,-0.87247 1.89036,-0.94518 3.34448,-0.94518z" fill="#001026" stroke="#001026" stroke-width="1.2" stroke-linecap="round" stroke-linejoin="round"/><path d="M207.00062,160.91375c0,0 6.25273,2.03577 8.79745,4.28966" fill="none" stroke="#001026" stroke-width="1.2" stroke-linecap="round" stroke-linejoin="round"/><path d="M216.0162,167.74813c-3.12637,1.23601 -8.50662,0.43624 -8.50662,0.43624" fill="none" stroke="#001026" stroke-width="1.2" stroke-linecap="round" stroke-linejoin="round"/><g><path d="M248.29773,153.49772c2.10848,3.27178 2.18119,6.97979 0.14541,8.28851c-2.03577,1.30871 -5.38026,-0.21812 -7.56144,-3.4899c-2.10848,-3.27178 -2.18119,-6.97979 -0.14541,-8.28851c2.03577,-1.38142 5.45296,0.21812 7.56144,3.4899z" fill="#ffffff" stroke="#001026" stroke-width="1.2" stroke-linecap="round" stroke-linejoin="round"/><path d="M248.0069,157.64197c0,0.79977 -0.58165,1.45412 -1.30871,1.45412c-0.72706,0 -1.30871,-0.65436 -1.30871,-1.45412c0,-0.79977 0.58165,-1.45412 1.30871,-1.45412c0.72706,0 1.30871,0.65436 1.30871,1.45412" fill="#001026" stroke="none" stroke-width="1" stroke-linecap="butt" stroke-linejoin="miter"/></g><g><path d="M230.26661,155.53349c2.18119,3.19907 2.03577,7.12521 0.07271,8.50662c-2.3993,1.38142 -5.59838,0.36353 -7.77956,-2.83554c-2.25389,-3.19907 -2.3993,-7.34332 -0.14541,-8.94286c2.25389,-1.67224 5.67108,0.07271 7.85227,3.27178z" fill="#ffffff" stroke="#001026" stroke-width="1.2" stroke-linecap="round" stroke-linejoin="round"/><path d="M229.83037,159.75045c0,0.79977 -0.58165,1.45412 -1.30871,1.45412c-0.72706,0 -1.30871,-0.65436 -1.30871,-1.45412c0,-0.79977 0.58165,-1.45412 1.30871,-1.45412c0.72706,0.07271 1.30871,0.65436 1.30871,1.45412" fill="#001026" stroke="none" stroke-width="1" stroke-linecap="butt" stroke-linejoin="miter"/></g></g></g><path d="M177.74779,133.68371v-18.09809h112.97598v18.09809z" fill="#ff0000" fill-rule="nonzero" stroke="none" stroke-width="NaN" stroke-linecap="butt" stroke-linejoin="miter"/><path d="M248.49927,144.83213v-12.61382h18.45347z" fill="#ff0000" fill-rule="nonzero" stroke="none" stroke-width="0" stroke-linecap="butt" stroke-linejoin="miter"/><text transform="translate(180.09231,128.96723) scale(0.32502,0.18263)" font-size="40" xml:space="preserve" fill="#000000" fill-rule="nonzero" stroke="none" stroke-width="1" stroke-linecap="butt" stroke-linejoin="miter" stroke-miterlimit="10" stroke-dasharray="" stroke-dashoffset="0" font-family="Sans Serif" font-weight="normal" text-anchor="start" style="mix-blend-mode: normal"><tspan x="0" dy="0">GIVE ME IT NOW!!</tspan></text></g></g></g></svg>