<svg version="1.1" xmlns="http://www.w3.org/2000/svg" xmlns:xlink="http://www.w3.org/1999/xlink" width="488.16667" height="368.16667" viewBox="0,0,488.16667,368.16667"><g transform="translate(4.08333,4.08332)"><g data-paper-data="{&quot;isPaintingLayer&quot;:true}" fill-rule="nonzero" stroke-linejoin="miter" stroke-miterlimit="10" stroke-dasharray="" stroke-dashoffset="0" style="mix-blend-mode: normal"><path d="M-0.33333,360.33334v-360.66666h480.66667v360.66667z" fill="#ffffff" stroke="#ffffff" stroke-width="7.5" stroke-linecap="butt"/><g><path d="M156.09346,335.34028l-6.39689,-180.17899" fill="none" stroke="#000000" stroke-width="50" stroke-linecap="round"/><path d="M211.53314,173.81888c0,28.85204 -21.83788,52.24125 -48.77626,52.24125c-26.93839,0 -48.77626,-23.3892 -48.77626,-52.24125c0,-28.85204 21.83788,-52.24125 48.77626,-52.24125c26.93839,0 48.77626,23.3892 48.77626,52.24125z" fill="#000000" stroke="#000000" stroke-width="50" stroke-linecap="butt"/><path d="M159.29189,259.11071l149.79377,-64.50195" fill="none" stroke="#000000" stroke-width="50" stroke-linecap="round"/><path d="M145.96505,260.17686l-103.94942,-83.69261" fill="none" stroke="#000000" stroke-width="50" stroke-linecap="round"/><path d="M218.99618,107.18463c0,25.31914 -25.41786,45.84436 -56.77237,45.84436c-31.35452,0 -56.77237,-20.52522 -56.77237,-45.84436c0,-25.31914 25.41786,-45.84436 56.77237,-45.84436c31.35452,0 56.77237,20.52522 56.77237,45.84436z" fill="#ff0000" stroke="#000000" stroke-width="0" stroke-linecap="butt"/><path d="M285.09735,130.37335c0,8.39064 -23.98587,15.19261 -53.57393,15.19261c-29.58806,0 -53.57393,-6.80196 -53.57393,-15.19261c0,-8.39064 23.98587,-15.19261 53.57393,-15.19261c29.58806,0 53.57393,6.80196 53.57393,15.19261z" fill="#ff0000" stroke="none" stroke-width="0" stroke-linecap="butt"/><path d="M114.40564,154.1687c-0.18738,1.00983 -0.43002,2.01466 -0.75994,3.01323c0,0 -0.42143,1.2643 -1.68573,0.84286c-1.2643,-0.42143 -0.84286,-1.68573 -0.84286,-1.68573c0.60921,-1.80937 0.89209,-3.64982 1.08437,-5.50329c-0.14922,-1.05133 0.01868,-2.1344 0.28642,-3.20405c0.04957,-0.55607 0.10313,-1.11236 0.16697,-1.66841c0.3037,-2.6454 1.10099,-5.35566 1.64077,-7.96457c0.90523,-4.37527 1.76288,-8.64846 3.23164,-12.8768c0.76008,-2.18814 1.27085,-5.22492 2.8548,-7.01535c0.56324,-0.63666 1.14672,-1.56181 1.9964,-1.58668c1.01319,-0.02966 1.78193,0.96666 2.67289,1.45c3.6763,5.38338 8.53275,9.60927 12.83929,14.44083c0.92218,1.03461 1.71367,2.1832 2.66159,3.19428c1.68142,1.79347 3.27804,3.52801 4.84657,5.38741c0.03258,0.03862 3.15185,3.10667 3.2991,3.33982c0.67438,1.06777 0.57749,2.21994 1.12967,3.31356c0.28877,0.57191 0.80064,1.01615 1.06615,1.59922c0.91562,2.01073 0.97809,3.99044 1.66635,6.0279c0.1886,0.77561 0.79387,1.5619 0.56581,2.32684c-0.80039,2.68464 -3.01918,2.05774 -5.02855,2.09264c-1.77664,0.03086 -3.55383,0 -5.33074,0c-2.98669,0 -6.25108,0.39366 -9.20767,-0.00796c-4.2768,-0.58094 -8.65502,-2.16528 -12.6776,-3.64012c-1.93191,-0.70831 -4.59485,-0.77109 -6.4757,-1.87563z" fill="#000000" stroke="none" stroke-width="0.5" stroke-linecap="butt"/><path d="M171.5526,200.73911c-1.33268,0 -1.33268,-1.33268 -1.33268,-1.33268v-1.06615c0.00098,-4.99116 -0.5323,-9.95796 -0.53287,-14.94945c0.54111,-15.45862 1.59902,-30.88913 1.59902,-46.35406c0,0 0,-1.33268 1.33268,-1.33268c1.33268,0 1.33268,1.33268 1.33268,1.33268c0,15.48056 -1.05485,30.9268 -1.59943,46.40081c-0.00059,4.97555 0.53234,9.92691 0.53328,14.90269v1.06615c0,0 0,1.33268 -1.33268,1.33268z" fill="#ff0000" stroke="none" stroke-width="0.5" stroke-linecap="butt"/><path d="M167.94693,211.73005c-0.596,1.19199 -1.78799,0.596 -1.78799,0.596l-0.47015,-0.39238c-0.70221,0 -4.92486,0.01332 -5.18386,-0.05718c-1.6074,-0.43753 -2.69724,-2.02875 -3.68872,-3.18217c-3.2858,-3.82246 -5.67747,-8.51323 -8.04414,-12.95557c-1.12322,-2.10833 -1.49594,-4.06712 -3.54626,-5.35186c0,0 -1.10886,-0.73924 -0.36962,-1.8481c0.73924,-1.10886 1.8481,-0.36962 1.8481,-0.36962c0.61969,0.43101 1.38094,0.70893 1.85907,1.29303c0.21196,0.25895 2.31585,4.56302 2.56108,5.02332c1.65907,3.11415 3.47744,6.16168 5.26738,9.20181c0.69116,1.1739 1.56321,2.23667 2.4481,3.27239c0.3186,0.3729 1.63304,2.19186 2.43741,2.36576c1.43741,0.31076 2.94086,-0.05718 4.41147,-0.05718l1.66214,0.67377c0,0 1.19199,0.59599 0.596,1.78798z" fill="#ff0000" stroke="none" stroke-width="0.5" stroke-linecap="butt"/><path d="M197.67322,181.54845c-1.33268,0 -1.33268,-1.33268 -1.33268,-1.33268v-1.06615c0.00354,-3.50506 0.78265,-6.77254 1.07069,-10.23832c0.33325,-4.00984 0.12289,-8.18081 0.29824,-12.2137c0.27869,-6.40986 0.77827,-13.09312 -0.28465,-19.44172c0,0 -0.21909,-1.31455 1.09546,-1.53365c1.31455,-0.21909 1.53364,1.09546 1.53364,1.09546c1.08527,6.53984 0.60545,13.39336 0.3184,19.99568c-0.17689,4.06854 0.02877,8.2715 -0.30481,12.31776c-0.27969,3.39263 -1.0653,6.59023 -1.06161,10.01848v1.06615c0,0 0,1.33268 -1.33268,1.33268z" fill="#ff0000" stroke="none" stroke-width="0.5" stroke-linecap="butt"/><path d="M211.14987,187.61551c-0.23177,-0.1955 -0.41634,-0.50689 -0.41634,-1.00286c0,-1.33268 1.33268,-1.33268 1.33268,-1.33268l1.85549,1.49778c-0.39654,3.17625 -0.37747,6.66474 -1.10002,9.77036c-0.3652,1.56971 -1.09666,3.05765 -1.95329,4.42277c-1.70145,2.71143 -4.91015,6.42262 -8.36199,6.68184c-2.58156,0.19386 -5.68448,-0.54673 -8.25024,-0.87675c-0.55193,-0.07099 -5.12178,-0.63932 -5.5421,-0.77739c-0.78571,-0.2581 -1.37568,-0.95726 -2.15908,-1.22228c-0.76356,-0.25831 -1.59805,-0.21271 -2.39708,-0.31907c0,0 -1.31929,-0.18847 -1.13082,-1.50776c0.18847,-1.31929 1.50776,-1.13082 1.50776,-1.13082c0.96003,0.14494 1.95776,0.13152 2.88008,0.43482c0.78563,0.25835 1.37578,0.95697 2.15909,1.22228c2.22974,0.75522 5.30975,0.72685 7.64736,0.99448c1.81822,0.20816 4.54238,1.04652 6.27672,0.12941c1.97628,-1.04505 3.93054,-3.16167 5.11264,-5.04546c0.7144,-1.13848 1.3375,-2.37534 1.63387,-3.68632c0.59267,-2.62165 0.64564,-5.51774 0.90528,-8.25234z" fill="#ff0000" stroke="none" stroke-width="0.5" stroke-linecap="butt"/></g><text transform="translate(361.01564,108.34028) scale(0.5,0.5)" font-size="40" xml:space="preserve" fill="#000000" fill-rule="nonzero" stroke="none" stroke-width="1" stroke-linecap="butt" stroke-linejoin="miter" stroke-miterlimit="10" stroke-dasharray="" stroke-dashoffset="0" font-family="Sans Serif" font-weight="normal" text-anchor="start" style="mix-blend-mode: normal"><tspan x="0" dy="0">B</tspan></text></g></g></svg>