<svg version="1.1" xmlns="http://www.w3.org/2000/svg" xmlns:xlink="http://www.w3.org/1999/xlink" width="488.16667" height="368.16667" viewBox="0,0,488.16667,368.16667"><g transform="translate(4.08334,4.08333)"><g data-paper-data="{&quot;isPaintingLayer&quot;:true}" fill-rule="nonzero" stroke-linecap="butt" stroke-linejoin="miter" stroke-miterlimit="10" stroke-dasharray="" stroke-dashoffset="0" style="mix-blend-mode: normal"><path d="M-0.33333,360.33334v-360.66666h480.66667v360.66667z" fill="#ffffff" stroke="#ffffff" stroke-width="7.5"/><path d="M129.01567,360.17365v-107h39v107z" fill="#00fbc1" stroke="none" stroke-width="0"/><g><path d="M219.29216,185.75385c-0.31662,42.8009 -32.73621,77.25995 -72.4112,76.96646c-39.67498,-0.2935 -71.58125,-35.22839 -71.26463,-78.0293c0.31663,-42.8009 32.73625,-77.25996 72.41123,-76.96646c39.67498,0.2935 71.58125,35.22841 71.26462,78.02932z" fill="#000000" stroke="#ffffff" stroke-width="0"/><path d="M216.33741,87.72931c-0.2063,27.88962 -29.47425,50.28335 -65.37178,50.01779c-35.89752,-0.26556 -64.83097,-23.08983 -64.62467,-50.97945c0.20631,-27.88962 29.47426,-50.28333 65.37179,-50.01778c35.89754,0.26555 64.83097,23.08982 64.62465,50.97944z" fill="#ff0000" stroke="#ffffff" stroke-width="0"/><path d="M84.49748,149.01151c-0.73814,-2.38854 1.6504,-3.12669 1.6504,-3.12669l0.45137,0.15413c2.09878,-2.04337 4.5378,-3.91647 7.17747,-5.58583c-1.10155,-7.98043 -1.84949,-16.08583 -2.15202,-24.02361c-0.03354,-0.88012 0.06319,-10.66286 0.26927,-11.07699c0.84416,-1.69636 2.59329,-3.73693 4.474,-3.50647c2.17734,0.26681 3.04342,3.16576 4.67856,4.62806c4.62503,4.13613 9.04668,8.3939 13.42883,12.84136c1.72682,1.75257 3.26193,3.71516 5.17178,5.26623c2.93316,2.38213 6.27012,3.02337 5.82095,8.3771c-0.3788,4.51501 -6.66435,4.42684 -9.18557,4.72452c-5.5803,0.65887 -11.62788,2.49159 -16.99397,5.31413c0.30978,2.34165 0.65887,4.68152 1.06333,7.02164c0.26274,1.52021 0.3714,3.08326 0.85266,4.54901c0.49026,1.4932 1.6782,2.72204 2.03704,4.25216c0.34819,1.48468 0.02202,3.04984 0.03305,4.57475c0,0 -0.01848,2.49992 -2.51842,2.48142c-2.49993,-0.01849 -2.48145,-2.51842 -2.48145,-2.51842c0.12282,-4.56086 -2.02661,-7.87524 -2.84736,-12.47329c-0.29674,-1.66244 -0.57931,-3.33636 -0.84683,-5.01896c-1.62096,1.14255 -3.126,2.38977 -4.47201,3.73477l-2.48437,1.06137c0,0 -2.38854,0.73814 -3.12668,-1.6504z" fill="#000000" stroke="none" stroke-width="0.5"/><path d="M284.09514,120.73143c-0.08171,11.04538 -29.24864,19.78419 -65.14616,19.51863c-35.89752,-0.26556 -64.93199,-9.4349 -64.85027,-20.48028c0.08171,-11.04538 29.24864,-19.78418 65.14616,-19.51863c35.89753,0.26556 64.93199,9.43489 64.85028,20.48028z" fill="#ff0000" stroke="#ffffff" stroke-width="0"/><path d="M208.37597,217.67398c-2.49993,-0.0185 -2.48143,-2.51843 -2.48143,-2.51843l0.01479,-1.99993c0.03358,-1.52461 -0.26761,-3.09395 0.10072,-4.57376c0.36003,-1.44658 1.65052,-2.54336 2.02954,-3.98508c0.3057,-1.16288 -0.11462,-2.40736 -0.03364,-3.60704c0.34201,-5.06663 1.73592,-9.91374 2.05354,-14.9629c-1.29069,-0.52412 -2.57116,-1.05299 -3.82668,-1.60215c-7.13332,-3.12011 -14.17535,-6.4904 -21.1564,-9.93857c-5.48428,-2.70888 -11.04403,-5.24319 -16.54354,-7.92039c-4.6253,-2.25161 -8.16399,-4.30656 -13.2311,-5.33444c0,0 -2.44776,-0.50842 -1.93934,-2.95617c0.50842,-2.44776 2.95617,-1.93935 2.95617,-1.93935c5.47456,1.1604 9.41046,3.30408 14.40275,5.73436c5.50813,2.6814 11.07658,5.21975 16.5694,7.93305c8.31041,4.10512 16.71657,7.98577 25.20496,11.70324c0.04784,-0.00159 0.09668,-0.00224 0.14648,-0.00187c1.00349,0.00742 1.60119,0.41468 1.95719,0.89959c3.3993,1.40945 6.94204,2.72648 10.14159,4.46417c2.8839,1.56624 5.70957,3.25686 8.69986,4.60896c4.03441,1.82888 8.0688,3.65771 12.10321,5.48658l0.98625,-0.20817c0,0 2.49993,0.0185 2.48145,2.51843c-0.0185,2.49993 -2.51843,2.48144 -2.51843,2.48144l-3.01364,-0.23776c-4.03441,-1.82888 -8.0688,-3.6577 -12.10319,-5.48657c-3.07033,-1.39518 -5.98481,-3.11159 -8.94463,-4.72804c-2.40265,-1.31215 -4.95497,-2.44207 -7.53955,-3.5138c-0.47949,4.49085 -1.56091,8.85458 -1.90226,13.39941c-0.10969,1.46046 0.26684,2.97302 -0.09282,4.39275c-0.36607,1.44505 -1.64332,2.54528 -2.02954,3.9851c-0.2959,1.10308 0.02769,2.284 0.04153,3.42603l-0.01479,1.99994c0,0 -0.01848,2.49993 -2.51842,2.48144z" fill="#ff0000" stroke="none" stroke-width="0.5"/></g><g><path d="M199.23971,280.12406c0.34553,-0.52045 0.68455,-1.04333 1.02618,-1.56273c-0.53148,-0.13212 -1.02164,-0.49673 -1.4914,-0.94332c-0.04418,0.00417 -0.08836,0.00748 -0.13256,0.00996c0.04585,0.1189 0.08936,0.23869 0.1304,0.35935c0.2357,0.69271 0.37156,1.40984 0.46739,2.13676zM185.01424,288.73242c0.17688,-0.80546 0.10597,-1.6937 0.38456,-2.47482c0.61049,-1.71173 1.54956,-3.8352 2.61849,-5.90742c-1.36942,-9.30854 -4.70318,-18.13123 -7.05064,-27.23585c-0.38475,-1.49552 -0.7695,-2.99106 -1.15424,-4.48659l0.00556,-0.09904l-0.02421,0.00428l-0.62079,-3.51233c-0.15457,-0.8058 0.0903,-1.67114 0.72746,-2.28032c0.81287,-0.77716 2.01351,-0.89773 2.94656,-0.37646l4.36983,2.309c6.60015,2.54715 11.86632,7.70531 17.2639,12.12262c0.12955,-0.25071 0.31847,-0.50563 0.58334,-0.75887c1.80703,-1.72763 3.53464,0.07939 3.53464,0.07939l0.63491,3.91192c1.60313,0.79721 2.76535,1.54783 2.72655,4.90073c-0.02244,1.93864 -1.19539,3.77467 -2.15066,5.60868c0.14441,0.37096 0.2666,0.78582 0.36313,1.24763c0.12627,0.60405 -1.04017,2.60939 -2.40236,4.69523c-0.51441,1.6919 -1.11203,3.34953 -2.0112,4.85761c-4.17367,6.99997 -10.9806,12.75252 -17.24492,18.3264c-2.31729,2.32548 -4.88693,4.53733 -7.21505,6.76317c-2.40936,2.3035 -4.77513,4.65346 -7.22806,6.9105c-1.21673,1.11957 -2.09778,2.94008 -3.71425,3.28779c-8.43732,1.81489 -5.99429,-2.49089 -4.05924,-6.55739c0.43957,-0.92373 1.65212,-2.75483 2.87726,-4.53028c-5.53299,1.09214 -11.18651,0.627 -16.75429,1.63189c0,0 -2.46183,0.43512 -2.89697,-2.02672c-0.43513,-2.46184 2.02672,-2.89697 2.02672,-2.89697c5.61773,-0.97462 11.68802,-0.46007 17.32771,-1.68471c0.128,-0.27992 0.31022,-0.54073 0.54624,-0.7664c0.49899,-0.47707 1.14412,-0.70672 1.78375,-0.69234l2.07356,0.04657c0.38737,-0.17256 0.77125,-0.35876 1.15127,-0.55984c1.94394,-1.36037 4.7198,-4.07612 5.68165,-4.95733c1.83744,-1.68341 3.43263,-3.21083 4.89973,-4.89977zM196.18284,267.93178c0.02953,-0.27891 -0.00076,-0.57075 -0.09614,-0.89014c-0.27892,-0.2671 -0.56137,-0.53282 -0.84559,-0.79728c0.21142,0.43022 0.4348,0.85389 0.67292,1.26962c0.08275,0.14448 0.17271,0.28347 0.26878,0.41779zM199.68408,262.78913c0.26436,0.43119 0.49173,0.87151 0.68048,1.31854c0.16592,-0.28402 0.33397,-0.56657 0.50445,-0.84738c-0.40407,-0.13875 -0.79838,-0.29678 -1.18492,-0.47116zM193.7611,285.82338c0.00934,0.14366 0.01683,0.2871 0.02217,0.43037c0.1367,-0.11901 0.27354,-0.23785 0.41021,-0.35686l-0.20805,-0.44058c-0.07372,0.12271 -0.14851,0.24506 -0.22433,0.36708zM185.06648,248.74247l-0.04333,0.08198c0.11475,0.44452 0.22952,0.88906 0.34427,1.33358c0.41124,-0.18687 0.86194,-0.25617 1.30202,-0.20902c-0.55352,-0.36653 -1.089,-0.76015 -1.60295,-1.20654z" fill="#00fbc1" stroke="none" stroke-width="0.5"/><path d="M228.07356,229.19583c12.59467,13.17344 12.90543,33.31693 0.6941,44.99176c-12.21132,11.67483 -32.32056,10.45998 -44.91524,-2.71345c-12.59467,-13.17344 -12.90542,-33.31693 -0.69409,-44.99177c12.21132,-11.67483 32.32056,-10.45996 44.91523,2.71346z" fill="#000000" stroke="#ffffff" stroke-width="0"/></g><text transform="translate(152.01567,38.17363) scale(0.5,0.5)" font-size="40" xml:space="preserve" fill="#000000" fill-rule="nonzero" stroke="none" stroke-width="1" stroke-linecap="butt" stroke-linejoin="miter" stroke-miterlimit="10" stroke-dasharray="" stroke-dashoffset="0" font-family="Sans Serif" font-weight="normal" text-anchor="start" style="mix-blend-mode: normal"><tspan x="0" dy="0">I'm The Real Gabe!</tspan></text></g></g></svg>