<svg version="1.1" xmlns="http://www.w3.org/2000/svg" xmlns:xlink="http://www.w3.org/1999/xlink" width="488.16667" height="368.16667" viewBox="0,0,488.16667,368.16667"><g transform="translate(4.08333,4.08333)"><g data-paper-data="{&quot;isPaintingLayer&quot;:true}" fill-rule="nonzero" stroke-linecap="butt" stroke-linejoin="miter" stroke-miterlimit="10" stroke-dasharray="" stroke-dashoffset="0" style="mix-blend-mode: normal"><path d="M-0.33332,360.33334v-360.66666h480.66667v360.66667z" fill="#ffffff" stroke="#ffffff" stroke-width="7.5"/><path d="M129.01566,360.17363v-107h39v107z" fill="#00fbc1" stroke="none" stroke-width="0"/><g><path d="M221.70654,199.37748c-0.99731,42.79045 -33.96085,76.72952 -73.62616,75.80506c-39.6653,-0.92447 -71.01191,-36.3624 -70.0146,-79.15286c0.99731,-42.79045 33.96088,-76.72953 73.62618,-75.80506c39.6653,0.92447 71.01191,36.36242 70.0146,79.15287z" fill="#000000" stroke="#ffffff" stroke-width="0"/><path d="M220.31119,101.31834c-0.64985,27.88281 -30.27026,49.80821 -66.15902,48.97176c-35.88876,-0.83645 -64.45554,-24.11801 -63.80569,-52.00082c0.64985,-27.88281 30.27026,-49.8082 66.15903,-48.97176c35.88877,0.83644 64.45554,24.11801 63.80568,52.00082z" fill="#ff0000" stroke="#ffffff" stroke-width="0"/><path d="M87.51327,160.49595c-0.70006,-2.39998 1.69992,-3.10004 1.69992,-3.10004l0.44886,0.16129c2.13101,-2.00973 4.59951,-3.8438 7.2654,-5.47097c-0.97448,-7.99694 -1.59342,-16.11322 -1.76966,-24.0548c-0.01954,-0.88054 0.23277,-10.6605 0.44541,-11.0713c0.87103,-1.68272 2.6524,-3.69522 4.52921,-3.43487c2.17282,0.30141 2.99269,3.21377 4.60436,4.70189c4.55866,4.20917 8.91203,8.53672 13.22289,13.05332c1.69873,1.77981 3.20243,3.76656 5.08737,5.34781c2.8949,2.42848 6.22124,3.12271 5.68698,8.46862c-0.45056,4.50841 -6.73392,4.32029 -9.25955,4.57783c-5.59007,0.57004 -11.66603,2.30634 -17.07633,5.04318c0.2725,2.34628 0.58433,4.69141 0.95152,7.03766c0.23853,1.52419 0.32231,3.08877 0.7802,4.562c0.46645,1.50081 1.6347,2.74838 1.96916,4.28402c0.32453,1.49003 -0.02649,3.0498 -0.03972,4.57469c0,0 -0.05824,2.49932 -2.55757,2.44106c-2.49932,-0.05825 -2.44108,-2.55757 -2.44108,-2.55757c0.19534,-4.55833 -1.90111,-7.90647 -2.64862,-12.51699c-0.27026,-1.66695 -0.52618,-3.34516 -0.7669,-5.0318c-1.63893,1.11662 -3.16361,2.33975 -4.53084,3.66317l-2.50094,1.02173c0,0 -2.39998,0.70006 -3.10004,-1.69992z" fill="#000000" stroke="none" stroke-width="0.5"/><path d="M287.53547,135.39394c-0.25737,11.04269 -29.5596,19.3165 -65.44836,18.48004c-35.88876,-0.83645 -64.77372,-10.46641 -64.51634,-21.50909c0.25737,-11.04269 29.5596,-19.3165 65.44835,-18.48005c35.88876,0.83645 64.77372,10.46641 64.51635,21.5091z" fill="#ff0000" stroke="#ffffff" stroke-width="0"/><path d="M210.28405,231.11995c-2.49932,-0.05826 -2.44106,-2.55757 -2.44106,-2.55757l0.04659,-1.99945c0.05783,-1.52388 -0.21837,-3.09781 0.17345,-4.57158c0.38299,-1.44067 1.69076,-2.51679 2.09266,-3.9523c0.32416,-1.15787 -0.07632,-2.40888 0.02373,-3.60712c0.42255,-5.06055 1.89337,-9.88487 2.29126,-14.92834c-1.28219,-0.54458 -2.55409,-1.09375 -3.80072,-1.66281c-7.08279,-3.23317 -14.07033,-6.71503 -20.99566,-10.27379c-5.44051,-2.79576 -10.95924,-5.41817 -16.41548,-8.1825c-4.58891,-2.32489 -8.09447,-4.43586 -13.14458,-5.5442c0,0 -2.43936,-0.54729 -1.89208,-2.98664c0.54728,-2.43936 2.98664,-1.89209 2.98664,-1.89209c5.45541,1.24733 9.35673,3.45333 14.30973,5.9627c5.46478,2.76866 10.99216,5.39526 16.44113,8.19558c8.24407,4.23678 16.58745,8.25063 25.01564,12.10263c0.04786,-0.00083 0.0967,-0.0007 0.14649,0.00046c1.00324,0.02338 1.59439,0.4401 1.94263,0.9306c3.37646,1.46333 6.8978,2.83655 10.06931,4.6249c2.85863,1.61191 5.65705,3.34725 8.62546,4.74674c4.00481,1.89281 8.00961,3.78558 12.01441,5.67839l0.98944,-0.19246c0,0 2.49932,0.05825 2.44108,2.55757c-0.05826,2.49932 -2.55757,2.44107 -2.55757,2.44107l-3.00948,-0.28566c-4.00481,-1.89281 -8.0096,-3.78557 -12.0144,-5.67837c-3.04775,-1.44384 -5.93457,-3.20639 -8.86831,-4.8697c-2.38147,-1.3502 -4.9155,-2.52057 -7.48271,-3.63327c-0.55085,4.48265 -1.70154,8.82864 -2.11513,13.36746c-0.1329,1.45853 0.21952,2.97689 -0.16267,4.39072c-0.38901,1.43905 -1.68359,2.51882 -2.09266,3.95231c-0.3134,1.09824 -0.00864,2.28415 -0.01296,3.42625l-0.0466,1.99946c0,0 -0.05824,2.49932 -2.55757,2.44107z" fill="#ff0000" stroke="none" stroke-width="0.5"/></g><g><path d="M198.4526,311.29243c0.511,-0.35936 1.01681,-0.72336 1.52379,-1.08316c-0.44717,-0.31617 -0.77138,-0.83394 -1.04681,-1.42068c-0.04268,-0.01217 -0.08504,-0.02513 -0.12712,-0.03888c-0.00048,0.12743 -0.00346,0.25485 -0.00906,0.38217c-0.03206,0.73101 -0.16601,1.4485 -0.34081,2.16057zM182.07174,314.14464c0.45741,-0.68617 0.71403,-1.53948 1.25736,-2.16602c1.19063,-1.37299 2.83698,-3.01022 4.58569,-4.55252c2.10585,-9.17004 2.20507,-18.60105 3.32562,-27.93642c0.18485,-1.53312 0.3697,-3.06625 0.55456,-4.59937l0.04116,-0.09025l-0.02411,-0.00481l0.69762,-3.49788c0.14873,-0.8069 0.69124,-1.52416 1.50618,-1.86024c1.03967,-0.42875 2.20208,-0.1049 2.882,0.71972l3.23243,3.73876c5.22385,4.77089 8.25629,11.48978 11.68032,17.56617c0.21178,-0.18651 0.48041,-0.35539 0.81918,-0.4951c2.31119,-0.95311 3.26429,1.35807 3.26429,1.35807l-0.82963,3.8753c1.20398,1.32514 2.0141,2.4467 0.75987,5.55642c-0.7252,1.79803 -2.48502,3.0825 -4.0413,4.44416c-0.00023,0.39808 -0.03709,0.82898 -0.11493,1.29431c-0.1018,0.60865 -1.91707,2.05322 -3.94396,3.50167c-1.09392,1.38942 -2.2529,2.71669 -3.63851,3.79507c-6.43153,5.00545 -14.86323,7.89207 -22.72449,10.80935c-3.00379,1.32474 -6.20141,2.45194 -9.17909,3.67992c-3.08158,1.27082 -6.13943,2.60076 -9.24473,3.81246c-1.54033,0.60105 -3.02255,1.9771 -4.6549,1.7138c-8.52018,-1.37431 -4.67982,-4.49837 -1.39966,-7.58405c0.74512,-0.70093 2.54005,-1.96641 4.32648,-3.17547c-5.55172,-0.99257 -10.64999,-3.4798 -16.20242,-4.56629c0,0 -2.45171,-0.48897 -1.96275,-2.94069c0.48897,-2.45172 2.94069,-1.96275 2.94069,-1.96275c5.58798,1.13284 11.05659,3.81752 16.75585,4.72539c0.22095,-0.21429 0.48546,-0.39109 0.78734,-0.5156c0.63822,-0.2632 1.3227,-0.24278 1.9134,0.00299l1.91496,0.79669c0.42359,-0.02004 0.84889,-0.05406 1.276,-0.10334c2.30533,-0.56121 5.87814,-2.08296 7.09441,-2.55453c2.32347,-0.90086 4.36456,-1.74441 6.345,-2.78497zM200.03393,298.82264c0.12884,-0.24913 0.20663,-0.53203 0.23381,-0.86425c-0.16283,-0.35018 -0.32944,-0.70036 -0.49817,-1.05c0.04068,0.47763 0.09488,0.95351 0.1657,1.42734c0.02461,0.16467 0.05793,0.32685 0.09864,0.48689zM205.16423,295.30333c0.08965,0.49777 0.14152,0.99061 0.15497,1.47566c0.25777,-0.20434 0.51698,-0.40653 0.77783,-0.60622c-0.32606,-0.27607 -0.63601,-0.56655 -0.93279,-0.86944zM191.2778,314.61202c-0.04349,0.13724 -0.08862,0.2736 -0.13569,0.40902c0.1706,-0.06122 0.34127,-0.12223 0.51183,-0.18346l-0.03378,-0.48606c-0.11326,0.08755 -0.22739,0.17437 -0.34236,0.2605zM196.64838,276.90595l-0.07015,0.06064c-0.05458,0.45584 -0.10915,0.9117 -0.16373,1.36753c0.45103,-0.0247 0.89611,0.07446 1.28899,0.27827c-0.38254,-0.54258 -0.73844,-1.10384 -1.05511,-1.70644z" fill="#00fbc1" stroke="none" stroke-width="0.5"/><path d="M243.81815,274.31889c6.94836,16.8489 -0.08005,35.729 -15.69841,42.1699c-15.61835,6.4409 -33.9123,-1.99644 -40.86067,-18.84534c-6.94836,-16.8489 0.08006,-35.729 15.69842,-42.1699c15.61835,-6.4409 33.91229,1.99646 40.86066,18.84535z" fill="#000000" stroke="#ffffff" stroke-width="0"/></g><text transform="translate(152.01565,38.17363) scale(0.5,0.5)" font-size="40" xml:space="preserve" fill="#000000" fill-rule="nonzero" stroke="none" stroke-width="1" stroke-linecap="butt" stroke-linejoin="miter" stroke-miterlimit="10" stroke-dasharray="" stroke-dashoffset="0" font-family="Sans Serif" font-weight="normal" text-anchor="start" style="mix-blend-mode: normal"><tspan x="0" dy="0">I'm The Real Gabe!</tspan></text></g></g></svg>