<svg version="1.1" xmlns="http://www.w3.org/2000/svg" xmlns:xlink="http://www.w3.org/1999/xlink" width="171.8274" height="109.18798" viewBox="0,0,171.8274,109.18798"><defs><linearGradient x1="197.90289" y1="161.46327" x2="197.90289" y2="174.52544" gradientTransform="translate(-647.72083,-629.33484) scale(3.67471,3.67471)" gradientUnits="userSpaceOnUse" id="color-1"><stop offset="0" stop-color="#ca9e00"/><stop offset="1" stop-color="#383838"/></linearGradient><linearGradient x1="197.90263" y1="170.01131" x2="197.90263" y2="190.00173" gradientTransform="translate(-423.23401,-444.22283) scale(2.40113,2.40113)" gradientUnits="userSpaceOnUse" id="color-2"><stop offset="0" stop-color="#00cc24"/><stop offset="1" stop-color="#6900b8"/></linearGradient><radialGradient cx="240" cy="180" r="85.9137" gradientUnits="userSpaceOnUse" id="color-3"><stop offset="0" stop-color="#000000" stop-opacity="0"/><stop offset="1" stop-color="#000000" stop-opacity="0.50196"/></radialGradient></defs><g transform="translate(-154.0863,-125.40601)"><g data-paper-data="{&quot;isPaintingLayer&quot;:true}" fill-rule="nonzero" stroke-linejoin="miter" stroke-miterlimit="10" stroke-dasharray="" stroke-dashoffset="0" style="mix-blend-mode: normal"><path d="M154.0863,221.25164c0,-23.05559 0,-69.13003 0,-82.09091c0,-6.64651 5.16204,-13.75472 13.64097,-13.75472c34.6915,0 124.90883,0 144.27273,0c7.15266,0 13.9137,7.16213 13.9137,13.84562c0,12.92917 0,58.60982 0,81.72728c0,8.24133 -5.27286,13.61508 -13.9137,13.61508c-34.88915,0 -124.68663,-0.00001 -144,-0.00001c-7.15266,0 -13.9137,-5.25502 -13.9137,-13.34235z" fill="#ffffff" stroke="none" stroke-width="0" stroke-linecap="butt"/><g><path d="M283.31846,208.38641c0,0 -1.89123,-3.35883 -1.87095,-5.61854c0.02184,-2.43325 5.48937,-5.00721 5.48937,-5.00721" data-paper-data="{&quot;index&quot;:null}" fill="none" stroke="#000000" stroke-width="3.5" stroke-linecap="round"/><path d="M295.72102,210.90559c0,0 -0.08698,-3.05734 0.24774,-5.6329c0.34958,-2.68984 1.7152,-8.24855 1.7152,-8.24855" data-paper-data="{&quot;index&quot;:null}" fill="none" stroke="#000000" stroke-width="3.5" stroke-linecap="round"/><g><path d="M286.09588,176.53326l-16.00533,9.25916" data-paper-data="{&quot;index&quot;:null}" fill="none" stroke="#000000" stroke-width="3.5" stroke-linecap="round"/><g data-paper-data="{&quot;index&quot;:null}" fill="#500190" stroke="#2c0050" stroke-width="2.5" stroke-linecap="butt"><path d="M270.22138,187.91157c-0.41787,0.1975 -1.18928,-0.45184 -1.72299,-1.45035c-0.53371,-0.99851 -0.62763,-1.96806 -0.20975,-2.16556c0.41787,-0.1975 1.18927,0.45184 1.72299,1.45035c0.53371,0.99851 0.62761,1.96805 0.20974,2.16556z"/><path d="M269.21509,186.35204c0.5337,0.9985 0.62761,1.96805 0.20975,2.16556c-0.41787,0.1975 -1.18928,-0.45184 -1.72298,-1.45034c-0.53371,-0.99851 -0.62762,-1.96806 -0.20974,-2.16556c0.41787,-0.1975 1.18928,0.45184 1.72299,1.45034z"/><path d="M266.80161,187.35699c-0.53371,-0.9985 -0.62762,-1.96806 -0.20974,-2.16556c0.41787,-0.1975 1.18928,0.45184 1.72299,1.45034c0.53371,0.99851 0.6276,1.96805 0.20974,2.16556c-0.41787,0.1975 -1.18928,-0.45184 -1.72298,-1.45035z"/><path d="M269.41104,184.58228c0.15254,0.49886 -0.52495,1.06087 -1.51318,1.25528c-0.98824,0.1944 -1.91303,-0.0524 -2.06557,-0.55127c-0.15253,-0.49886 0.52494,-1.06087 1.51318,-1.25529c0.98825,-0.19441 1.91303,0.05241 2.06557,0.55128z" data-paper-data="{&quot;index&quot;:null}"/></g></g><g stroke="none" stroke-linecap="butt"><path d="M284.18044,197.83376l-0.29511,-21.06773h14.5184l-0.10731,21.09386z" fill="#b78000" stroke-width="0"/><path d="M288.4191,183.74293c-0.15125,-0.15858 0.05694,-0.27378 0.05694,-0.27378l0.0281,-0.01483c1.02744,-0.66487 1.68819,-1.34184 2.0233,-2.25331c-0.21787,0.0816 -0.46914,0.14512 -0.75169,0.18944c-0.64354,0.14608 -2.22714,0.04051 -1.82274,-0.745c0.39231,-0.76204 1.6584,-1.38882 2.72691,-1.65616c0.00543,-0.01691 0.01421,-0.0348 0.02708,-0.05368c0.11857,-0.17396 0.34696,-0.08364 0.34696,-0.08364l0.08913,0.0359c0.00485,0.00157 0.0097,0.00314 0.01454,0.00472c0.04682,-0.00398 0.18358,-0.00685 0.25385,0.08487c0.47316,0.16333 0.89411,0.341 1.32126,0.59571c0.34444,0.24192 0.79913,0.47161 0.86117,0.86543c0.07897,0.50123 -0.68205,1.43976 -1.42204,1.25836c0.40669,0.71502 0.84431,1.40874 1.45766,2.05752l0.18427,0.12818c0,0 0.18914,0.1329 0.01465,0.27696c-0.17448,0.14406 -0.36363,0.01116 -0.36363,0.01116l-0.21985,-0.15578c-0.90904,-0.94591 -1.44874,-1.99072 -2.04431,-3.05852c0,0 -0.04452,-0.07986 -0.00454,-0.15588c-0.00967,0.00947 -0.01955,0.01885 -0.02963,0.02812c-0.29299,1.23234 -1.05618,2.09804 -2.32882,2.92414l-0.05914,0.03344c0,0 -0.20819,0.1152 -0.35944,-0.04337zM290.68613,180.64221c0,0 0.02603,-0.12515 0.16835,-0.15826c0.08032,-0.10602 0.12763,-0.22632 0.14456,-0.3614c-0.05347,-0.19711 -0.17655,-0.42943 -0.06222,-0.53971c-0.00476,-0.01595 -0.00976,-0.03204 -0.01499,-0.04826l0.03046,-0.03622l-0.02756,-0.00333l0.03428,-0.16483c-0.78514,0.16551 -1.25697,0.47176 -1.88733,0.91691c-0.18013,0.1272 -0.71308,0.41586 -0.7079,0.64011c0.00499,0.21642 1.13384,0.16248 1.28267,0.12383c0.47655,-0.07364 0.81677,-0.19237 1.0377,-0.35941c0.00066,-0.00314 0.00132,-0.00628 0.00197,-0.00943zM291.52893,180.00446c0.07079,0.26433 0.15248,0.52738 0.30033,0.78533c0.07117,0.12416 0.35613,0.54698 0.57333,0.5671c0.20353,0.01884 0.27723,-0.23841 0.34081,-0.3271c0.42422,-0.59178 0.29744,-0.70702 -0.34407,-1.15798c-0.30874,-0.1841 -0.61262,-0.32153 -0.93959,-0.44416l-0.02054,0.09876c0.05818,0.169 0.08768,0.32857 0.08972,0.47806z" fill="#09b800" stroke-width="0.5"/><path d="M283.90919,197.92376v-21.13451h5.27398c-0.08848,1.88137 0.00672,3.76188 -0.12371,5.67289c-0.34312,5.02752 0.35167,10.32788 0.00855,15.49066z" fill="#6900b8" stroke-width="0"/><path d="M293.22511,197.92376c0.6704,-5.07567 0.59014,-9.96951 0.33645,-15.43258c-0.08885,-1.91327 -0.36313,-3.82056 -0.45161,-5.70193h5.27398c0,0 0,9.09292 0,12.91352c0,3.0484 0,8.22099 0,8.22099z" data-paper-data="{&quot;index&quot;:null}" fill="#6900b8" stroke-width="0"/><path d="M293.24541,177.47806l2.38476,-4.12331l2.08666,0.81305c0,0 1.10109,2.10432 1.06003,2.1973c-0.22697,0.51397 -5.53145,1.11297 -5.53145,1.11297z" fill="#6900b8" stroke-width="0"/><path d="M283.52864,176.27798c-0.04106,-0.09297 1.06004,-2.1973 1.06004,-2.1973l2.08666,-0.81305l2.38476,4.1233c0,0 -5.30449,-0.599 -5.53145,-1.11297z" data-paper-data="{&quot;index&quot;:null}" fill="#6900b8" stroke-width="0"/><path d="M285.7036,176.89731l3.96466,-0.11615l-0.56638,21.05209z" fill="#510191" stroke-width="0"/><path d="M293.27527,197.86229l-0.47695,-21.05208l3.96466,0.11615z" data-paper-data="{&quot;index&quot;:null}" fill="#510090" stroke-width="0"/><path d="M285.86509,180.01883c0.02034,-0.08728 0.10047,-0.15244 0.19623,-0.15244c0.00093,0 0.00187,0.00001 0.0028,0.00002l-0.0212,-0.1136c-0.00259,-0.01256 -0.00396,-0.02556 -0.00396,-0.03886c0,-0.10825 0.09009,-0.196 0.20121,-0.196c0.0316,0 0.06151,0.0071 0.08812,0.01975l0.00998,-0.07777c0.0111,-0.09802 0.0964,-0.17427 0.19999,-0.17427c0.06159,0 0.11672,0.02695 0.15363,0.06941l0.17801,0.2023l-0.05071,0.04234c0.03833,0.04554 0.07284,0.09194 0.1045,0.13951l0.01034,-0.10068c0.00901,-0.10013 0.09531,-0.17865 0.20044,-0.17865c0.11113,0 0.20121,0.08775 0.20121,0.196v0.09304c0.00903,0.00871 0.01722,0.01825 0.02443,0.02849c0.02996,-0.01726 0.06492,-0.02716 0.10226,-0.02716c0.10358,0 0.18889,0.07625 0.19999,0.17427l0.02948,0.22972l-0.07549,0.00919c0.00017,0.00335 0.00031,0.00667 0.00043,0.00998l0.18522,-0.0401c0.01535,-0.00365 0.03138,-0.00558 0.04789,-0.00558c0.11113,0 0.20121,0.08775 0.20121,0.196c0,0.00606 -0.00028,0.01205 -0.00083,0.01797l0.22771,0.08873c0.07642,0.02779 0.13084,0.09954 0.13084,0.18368c0,0.09982 -0.07661,0.18222 -0.17569,0.19444l-0.20574,0.02863c-0.07286,0.01014 -0.14204,0.01928 -0.20856,0.02722c0.03404,0.03808 0.06366,0.07548 0.09128,0.11702l0.03473,-0.02819l0.1482,0.17324c0.02962,0.03414 0.04748,0.07827 0.04748,0.12647c0,0.03919 -0.0118,0.07568 -0.03214,0.10631c0.13913,0.26961 0.17943,0.5481 -0.00743,0.62834c-0.11606,0.04984 -0.28464,-0.08062 -0.44541,-0.26208c0.01205,0.06559 0.0235,0.13129 0.03585,0.19682l-0.00174,0.00827l0.00273,-0.00027l0.02954,0.28775c0.00084,0.00726 0.00127,0.01464 0.00127,0.02213c0,0.10825 -0.09009,0.196 -0.20121,0.196c-0.07458,0 -0.13968,-0.03952 -0.17443,-0.09824l-0.17696,-0.28729l0.04606,-0.02692c-0.07266,-0.09648 -0.1365,-0.19489 -0.19484,-0.29758l-0.02056,0.07008c-0.02258,0.08419 -0.10119,0.14632 -0.19469,0.14632c-0.0618,0 -0.1171,-0.02715 -0.15402,-0.06986c-0.24516,0.29615 -0.57206,0.58079 -0.69794,0.69248l-0.00523,0.00182l0.00123,0.00146l-0.17806,0.14194c-0.03486,0.02823 -0.07967,0.04521 -0.12855,0.04521c-0.11113,0 -0.20121,-0.08775 -0.20121,-0.196c0,-0.02986 0.00685,-0.05817 0.01912,-0.0835l0.11746,-0.25744l0.01108,0.00479c0.0234,-0.14015 0.05032,-0.27896 0.08163,-0.41663l-0.29219,0.14231c-0.02796,0.01434 -0.05981,0.02246 -0.09361,0.02246c-0.11113,0 -0.20121,-0.08775 -0.20121,-0.196c0,-0.04331 0.01442,-0.08334 0.03884,-0.11578l0.14768,-0.20141l0.05872,0.04085c0.12211,-0.17411 0.27066,-0.29373 0.44447,-0.42188c-0.03309,-0.03317 -0.06542,-0.06775 -0.0968,-0.10321c-0.04693,0.00072 -0.09351,0.00334 -0.13896,0.00966l-0.01426,-0.00581v0.0063h-0.23848c-0.11113,0 -0.20121,-0.08775 -0.20121,-0.196c0,-0.10174 0.07957,-0.18537 0.18141,-0.19506l0.02583,-0.00279l-0.07032,-0.0822c-0.02962,-0.03414 -0.04748,-0.07827 -0.04748,-0.12647c0,-0.03129 0.00753,-0.06087 0.02091,-0.08711c-0.01339,-0.02624 -0.02091,-0.05582 -0.02091,-0.08712c0,-0.10825 0.09009,-0.196 0.20121,-0.196c0.04446,0 0.08555,0.01405 0.11886,0.03783l0.1934,0.13456c0.02246,0.00922 0.05094,0.02061 0.08407,0.03395c0.01468,-0.00941 0.0307,-0.01699 0.04772,-0.02242zM285.6737,181.79965l-0.00224,0.00042l0.00148,0.00289c0.00025,-0.0011 0.0005,-0.00221 0.00076,-0.00332zM286.15256,181.75561c0.01288,-0.01705 0.02566,-0.03415 0.03836,-0.05127c-0.00772,-0.00189 -0.01527,-0.00422 -0.02261,-0.00696c-0.00517,0.0195 -0.01042,0.03893 -0.01575,0.05823z" fill="#a455b8" stroke-width="0.5"/><path d="M285.5024,180.58506c0,-0.196 0.20121,-0.196 0.20121,-0.196h0.05962c0.07307,0 0.21524,-0.0084 0.3636,-0.00863c0.00108,-0.0495 0.00195,-0.10185 0.00206,-0.15772l0.00709,-0.01305l-0.00557,-0.00078l0.02939,-0.20041c0.01254,-0.09651 0.09713,-0.17114 0.19961,-0.17114c0.08792,0 0.16266,0.05492 0.19005,0.13146l0.00254,0.00659c0.03574,-0.03165 0.08321,-0.05094 0.13532,-0.05094c0.00089,0 0.00178,0.00001 0.00266,0.00001c0.08726,-0.03274 0.19263,-0.01167 0.32061,0.09297c0.03063,0.02504 0.05711,0.05033 0.07976,0.07565c0.03654,-0.04937 0.09608,-0.08151 0.16334,-0.08151c0.11113,0 0.20121,0.08775 0.20121,0.196c0,0.00829 -0.00053,0.01646 -0.00155,0.02447l-0.02949,0.25851l-0.01669,-0.00181c-0.00113,0.02697 -0.00458,0.05381 -0.01103,0.0805c0.18431,0.02196 0.34606,0.09196 0.37431,0.20953c0.06381,0.26561 -0.00346,0.38122 -0.10781,0.41352c0.03985,0.01364 0.0796,0.02952 0.11927,0.04784l0.03871,-0.07541l0.23458,0.11425c0.06806,0.03143 0.11513,0.09896 0.11513,0.17721c0,0.10825 -0.09009,0.196 -0.20121,0.196h-0.20867v-0.01004l-0.02459,0.00857c-0.11741,-0.02917 -0.27197,-0.05601 -0.40525,-0.11327c-0.03622,0.05174 -0.09722,0.0857 -0.16635,0.0857c-0.07715,0 -0.14417,-0.0423 -0.17793,-0.10439c-0.38426,0.05435 -0.73779,0.19871 -1.11813,0.2736l-0.23066,0.05617c-0.01694,0.00451 -0.03477,0.00692 -0.05318,0.00692c-0.11113,0 -0.20121,-0.08775 -0.20121,-0.196c0,-0.06494 0.03242,-0.1225 0.08236,-0.15817l0.2366,-0.17286l0.03799,0.04934c0.06269,-0.05373 0.12671,-0.10229 0.19302,-0.14865c-0.02706,-0.03338 -0.04321,-0.07554 -0.04321,-0.12137c0,-0.04118 0.01304,-0.0794 0.03532,-0.11095l0.07642,-0.11165l-0.07383,-0.04495c-0.02247,-0.01319 -0.04207,-0.03052 -0.0577,-0.05093c-0.047,-0.00413 -0.08566,-0.00819 -0.1069,-0.00819h-0.05962c0,0 -0.20121,0 -0.20121,-0.196z" fill="#af5ac4" stroke-width="0.5"/><path d="M287.2896,180.95264c-0.04085,0.09285 -0.10978,0.11734 -0.16699,0.11927c-0.02952,0.04269 -0.07583,0.07344 -0.12971,0.08328c-0.00459,0.05047 -0.01013,0.10085 -0.0165,0.15108c0,0 -0.02496,0.19449 -0.22462,0.17018c-0.15093,-0.01838 -0.17351,-0.134 -0.17553,-0.18935c-0.05515,-0.02374 -0.09729,-0.07091 -0.11313,-0.12855h-0.16333c-0.11113,0 -0.20121,-0.08775 -0.20121,-0.196c0,-0.07421 0.04234,-0.13879 0.10477,-0.17206l0.20528,-0.11426l0.0508,0.08659c0.00348,-0.00169 0.00695,-0.00336 0.0104,-0.00501l0.01751,-0.1364c0.0019,-0.01676 0.00597,-0.03289 0.01192,-0.0481l-0.03585,-0.1397c-0.00463,-0.0165 -0.0071,-0.03387 -0.0071,-0.0518c0,-0.10825 0.09009,-0.196 0.20121,-0.196c0.05557,0 0.10587,0.02194 0.14228,0.05741l0.17886,0.17422l-0.0051,0.00496l0.01842,0.00937c0.0314,0.08068 0.10242,0.16115 0.13705,0.24181l0.05489,0.02171c0,0 0.18494,0.07721 0.10568,0.25736z" fill="#be62d5" stroke-width="0.5"/></g><path d="M291.23733,152.39155c5.94526,0 10.76485,4.67865 10.76485,10.45006c0,5.77141 -4.81959,10.45006 -10.76485,10.45006c-5.94526,0 -10.76485,-4.67866 -10.76485,-10.45006c0,-5.77141 4.81959,-10.45006 10.76485,-10.45006z" fill="#e0e0e0" stroke="#000000" stroke-width="0.5" stroke-linecap="butt"/><path d="M281.2826,166.65792c0.05368,0.10999 0.10416,0.2216 0.15077,0.33516c0.01691,0.04121 0.3175,0.98909 0.29651,1.076c-0.00678,0.02807 -0.01462,0.05577 -0.0234,0.08314l0.0157,0.00306l-0.10585,0.51555c-0.03378,0.18322 -0.19826,0.32225 -0.39608,0.32225c-0.16924,0 -0.31407,-0.10176 -0.37354,-0.24589l-0.15732,-0.35757l0.01488,-0.00621l-0.02931,-0.03193c-0.08984,-0.42984 -0.14347,-0.8595 -0.17085,-1.2892c-0.282,0.03879 -0.40495,-0.24067 -0.40495,-0.24067c-0.04514,-0.10349 -0.09411,-0.20512 -0.14603,-0.30532c-0.0402,0.01312 -0.08323,0.02023 -0.12796,0.02023c-0.18521,0 -0.3412,-0.12188 -0.38805,-0.2878l-0.15837,-0.51424l0.00295,-0.00086l-0.00553,-0.00789c-0.05334,-0.20821 -0.10381,-0.38937 -0.14912,-0.55658c-0.10506,-0.1678 -0.20657,-0.33731 -0.29979,-0.51079c-1.08561,-2.02041 -1.89131,-4.73847 -1.60134,-7.02976l0.05366,-0.41814l0.12196,0.01485l0.14676,-0.33702c0.10267,0.06667 0.21226,0.12557 0.32171,0.18463l0.09345,-0.09103l0.42926,0.41814l-0.00784,0.00764c0.02382,0.02184 0.04679,0.04463 0.06877,0.06853c0.14789,0.1608 0.14088,0.40952 0.20267,0.61685c0.00288,0.00964 0.00576,0.01928 0.00866,0.02892c0.08952,0.00432 0.17135,0.03714 0.23611,0.08933c0.03507,-0.11867 0.07129,-0.24116 0.10483,-0.36937c0.35884,-1.37207 1.01123,-2.55531 1.58625,-3.84218l0.01771,-0.01487l-0.0073,-0.00406l0.21075,-0.35927c0.05077,-0.09039 0.13704,-0.15917 0.24054,-0.18853c0.02236,-0.04799 0.04381,-0.09536 0.06399,-0.14206c0.51673,-1.19526 1.0216,-2.3815 1.67026,-3.51757l0.15122,-0.34372c0.05947,-0.14413 0.20431,-0.24589 0.37354,-0.24589c0.12913,0 0.24406,0.05925 0.3177,0.15136c0.33562,-0.90159 2.83223,-3.61341 2.83223,-3.61341c0,0 0.51484,2.37757 0.60767,2.77388c0.08595,-0.32056 0.24762,-0.62509 0.39391,-0.95796c0.48197,-1.0967 2.12637,-3.84194 2.12637,-3.84194c0,0 0.50186,2.44886 0.5092,3.13515c0.42651,-1.06425 2.1854,-3.74713 2.1854,-3.74713l1.23801,5.4282l1.32577,-3.09139l0.1169,1.9458c0.45455,1.73414 -0.02263,1.59981 0.35579,3.37354c0.01551,0.07267 0.15939,0.45614 0.26495,0.83934c0.03528,-0.34306 0.10055,-1.11388 0.40774,-1.16793c1.11717,-0.19655 1.74978,1.8192 2.06819,2.51165c0.42334,1.00151 0.77377,2.03254 1.21129,3.02817c0.11726,0.26683 0.39207,0.65934 0.53896,1.0359c-0.00013,-0.01385 -0.0003,-0.0277 -0.00054,-0.04153c-0.00763,-0.44773 0.02268,-0.89564 0.05532,-1.3423l0.00352,-0.00738l-0.00273,-0.00029l0.05312,-0.46571c0.0199,-0.19839 0.19162,-0.35341 0.4005,-0.35341c0.1673,0 0.31076,0.09945 0.37147,0.24098l0.2109,0.46223l-0.10458,0.04527c0.99231,1.70332 1.09397,4.15081 1.4718,5.99041l0.10474,0.4591c0.00749,0.0299 0.01147,0.06114 0.01147,0.09329c0,0.2165 -0.18018,0.392 -0.40243,0.392c-0.06759,0 -0.13129,-0.01623 -0.18721,-0.04491l-0.24306,-0.11839c-0.11148,0.21798 0.01543,1.06555 0.02456,1.13251c0.17986,1.31906 0.39424,2.63559 0.58735,3.95345l0.10404,0.50673c0.00618,0.02732 0.00944,0.05569 0.00944,0.08482c0,0.2165 -0.18018,0.392 -0.40243,0.392c-0.12318,0 -0.23343,-0.05391 -0.30725,-0.13883l-0.16567,-0.18828c-0.07254,0.10285 -0.19415,0.17031 -0.33193,0.17031c-0.20199,0 -0.36923,-0.14497 -0.39804,-0.33392l-0.10622,-0.62085l0.00175,-0.00028c-0.00101,-0.00254 -0.00201,-0.00508 -0.00302,-0.00762c-0.16847,-0.42703 -0.06054,-0.89655 -0.3216,-1.31695c-0.52453,-0.84466 -0.86687,-1.6939 -1.05677,-2.69372c-0.31994,-1.68437 -0.48,-3.51455 -1.09532,-5.16277c-0.77849,-0.43636 -1.49918,-0.96397 -2.37261,-1.28528c-1.19869,-0.44096 -2.51351,-0.8211 -3.85697,-1.10463c-0.98338,0.25813 -2.01227,0.37352 -3.02883,0.50153c-1.38218,0.17405 -2.75678,0.40712 -4.13332,0.62428c-0.35174,0.60557 -0.77837,1.17121 -1.14147,1.8363c-0.61217,1.12132 -0.86778,2.42619 -0.86512,3.68384v0.41814c0,0.2165 -0.18018,0.392 -0.40243,0.392c-0.20199,0 -0.36923,-0.14497 -0.39804,-0.33392l-0.10622,-0.62085l0.07208,-0.0117c-0.06592,-0.16714 -0.12443,-0.33348 -0.17777,-0.50107c-0.04841,0.30847 -0.10045,0.59096 -0.11552,0.79094c-0.10524,1.3966 -0.32913,2.80041 -0.28532,4.19537zM278.18435,160.03578c0.00009,0.00488 0.00019,0.00975 0.00029,0.01463c0.00135,-0.00072 0.0027,-0.00142 0.00407,-0.00212c-0.00146,-0.00417 -0.00291,-0.00834 -0.00435,-0.01251zM301.50953,168.36119c0.00485,0.00102 0.0097,0.00203 0.01454,0.00305c-0.00164,-0.00966 -0.0033,-0.01933 -0.00496,-0.029c-0.00305,0.00867 -0.00624,0.01732 -0.00959,0.02595z" fill="#00cc24" stroke="#000000" stroke-width="0.5" stroke-linecap="butt"/><path d="M275.88225,162.56174l0.97247,-1.09474l4.97226,-0.71304l-4.03382,-0.78833l0.6751,-0.56921l6.46101,1.19991z" fill="#000000" stroke="#000000" stroke-width="0.5" stroke-linecap="butt"/><path d="M292.43416,160.88368l6.39374,-1.5181l0.70243,0.53511l-3.98987,0.98694l5.00145,0.46617l1.02544,1.04528z" data-paper-data="{&quot;index&quot;:null}" fill="#000000" stroke="#000000" stroke-width="0.5" stroke-linecap="butt"/><path d="M291.4931,165.98285c0.14725,0.32892 -0.14725,0.49338 -0.14725,0.49338l-0.19421,0.08501c-0.66452,0.09149 -1.31115,0.07276 -1.97666,0.19628c-0.5224,0.04381 -1.13434,0.15621 -1.57185,-0.28275c-0.72102,-0.72341 -1.0327,-2.11458 0.0403,-2.62621c0.62422,-0.29764 1.49639,-0.28247 2.15716,-0.17302c0.20371,0.03374 0.41061,0.23892 0.60214,0.15441c0.05913,-0.02609 0.30373,-1.31455 0.34474,-1.49832c0,0 0.07986,-0.35676 0.39929,-0.26758c0.31943,0.08919 0.23957,0.44595 0.23957,0.44595c-0.10005,0.44574 -0.24743,1.69463 -0.62108,1.93395c-0.3449,0.2209 -0.72916,0.0154 -1.06609,-0.04172c-0.49467,-0.08386 -0.93811,-0.03859 -1.43022,0.04814c-0.15816,0.02788 -0.65197,0.11199 -0.70662,0.38277c-0.03771,0.18686 0.17772,0.58303 0.2315,0.68466c0.34323,0.64872 0.67066,0.56531 1.30173,0.50958c0.66405,-0.12398 1.31261,-0.10215 1.97444,-0.19598l-0.01861,-0.01305c0,0 0.2945,-0.16446 0.44175,0.16446z" fill="#878787" stroke="none" stroke-width="0.5" stroke-linecap="butt"/><path d="M297.02095,169.75234c-0.088,-0.26399 0.176,-0.35199 0.176,-0.35199l-0.00442,0.03244c0.67243,-0.56245 -0.27002,-1.4743 -0.73022,-1.80297c0,0 -0.22644,-0.16174 -0.0647,-0.38818c0.16174,-0.22644 0.38818,-0.0647 0.38818,-0.0647c0.82763,0.59124 1.64907,1.71689 0.80027,2.64938l-0.21312,0.10201c0,0 -0.26399,0.088 -0.35199,-0.176z" fill="#878686" stroke="none" stroke-width="0.5" stroke-linecap="butt"/><path d="M286.67198,170.47533c-0.04575,0.27448 -0.32023,0.22874 -0.32023,0.22874l-0.23618,-0.0408c-1.50361,-0.41147 -1.80685,-1.01802 -1.41269,-2.46351c0,0 0.07322,-0.26847 0.34168,-0.19525c0.26847,0.07322 0.19525,0.34168 0.19525,0.34168c-0.31898,1.16939 -0.21355,1.44435 1.02219,1.78014l0.18123,0.02876c0,0 0.27448,0.04575 0.22874,0.32023z" fill="#878686" stroke="none" stroke-width="0.5" stroke-linecap="butt"/><path d="M295.61227,168.53091c0.03885,0.22214 -0.19426,0.25917 -0.19426,0.25917l-0.2161,0.03122c-0.76891,0 -1.55115,0.21513 -2.31987,0.30583c-1.70523,0.4049 -3.61611,0.21145 -5.36419,0.39657c0,0 -0.23488,0.02487 -0.26098,-0.19896c-0.0261,-0.22383 0.20878,-0.2487 0.20878,-0.2487c1.73389,-0.18357 3.63919,0.01244 5.3296,-0.39166c0.79692,-0.09579 1.60824,-0.31349 2.40666,-0.31349l0.13839,-0.02509c0,0 0.23311,-0.03702 0.27196,0.18512z" fill="#8a0000" stroke="#670000" stroke-width="2.5" stroke-linecap="butt"/><path d="M298.91976,163.51336c0,0.99896 -1.41198,1.80877 -3.15375,1.80877c-1.74177,0 -3.15375,-0.80981 -3.15375,-1.80877c0,-0.99896 1.41198,-1.80877 3.15375,-1.80877c1.74177,0 3.15375,0.80981 3.15375,1.80877z" fill="#dca922" stroke="#000000" stroke-width="0.5" stroke-linecap="butt"/><path d="M285.74818,163.32785c0,0.99896 -1.41198,1.80877 -3.15375,1.80877c-1.74177,0 -3.15375,-0.80981 -3.15375,-1.80877c0,-0.99896 1.41198,-1.80877 3.15375,-1.80877c1.74177,0 3.15375,0.80981 3.15375,1.80877z" fill="#dca922" stroke="#000000" stroke-width="0.5" stroke-linecap="butt"/><g><path d="M297.4218,177.80099l-17.58177,-5.72574" fill="none" stroke="#000000" stroke-width="3.5" stroke-linecap="round"/><g data-paper-data="{&quot;index&quot;:null}" fill="#500190" stroke="#2c0050" stroke-width="2.5" stroke-linecap="butt"><path d="M279.52698,169.97527c0.44982,0.10622 0.55974,1.07409 0.24551,2.1618c-0.31424,1.08771 -0.93363,1.88336 -1.38345,1.77715c-0.44982,-0.10622 -0.55974,-1.07409 -0.2455,-2.1618c0.31423,-1.08771 0.93363,-1.88337 1.38345,-1.77716z"/><path d="M278.86727,171.71007c-0.31424,1.08771 -0.93363,1.88336 -1.38345,1.77715c-0.44982,-0.10622 -0.55974,-1.07409 -0.2455,-2.1618c0.31424,-1.08771 0.93363,-1.88337 1.38345,-1.77715c0.44982,0.10622 0.55973,1.07409 0.24551,2.1618z"/><path d="M277.68096,169.45222c0.44982,0.10623 0.55974,1.07409 0.2455,2.1618c-0.31424,1.08771 -0.93363,1.88337 -1.38345,1.77715c-0.44982,-0.10622 -0.55974,-1.0741 -0.2455,-2.1618c0.31423,-1.08771 0.93363,-1.88337 1.38345,-1.77715z"/><path d="M279.42722,173.40031c-0.04538,0.51969 -0.89856,0.95355 -1.90563,0.96906c-1.00706,0.01551 -1.78667,-0.39322 -1.74128,-0.9129c0.04539,-0.51969 0.89856,-0.95355 1.90563,-0.96905c1.00706,-0.01551 1.78666,0.39322 1.74129,0.9129z" data-paper-data="{&quot;index&quot;:null}"/></g></g><g data-paper-data="{&quot;index&quot;:null}" stroke="#2c0050" stroke-width="3.5" stroke-linecap="butt"><path d="M282.25535,217.16048c0,0 -0.70529,-1.0873 -0.98162,-1.7051c-0.25143,-0.56212 1.74747,-1.315 1.54979,-1.75694c-0.41493,-0.92766 -1.6052,-2.93608 -1.6052,-2.93608l3.90098,-1.88531l2.45632,5.98121z" fill="#500190"/><path d="M280.89269,210.70106c-0.21279,-0.47573 0.49646,-1.47439 1.68207,-2.02308c0.60142,-0.27833 1.31758,-1.44972 1.77884,-1.4702c0.44804,-0.01989 0.76689,1.36873 0.87172,1.60314c0.21279,0.47573 -0.57583,1.3062 -1.76144,1.8549c-1.1856,0.54869 -2.31922,0.60783 -2.53201,0.13208z" fill="#979025"/></g><g data-paper-data="{&quot;index&quot;:null}" stroke="#2c0050" stroke-width="3.5" stroke-linecap="butt"><path d="M292.62724,217.88359c0,0 -0.36222,-1.24436 -0.44889,-1.91558c-0.07886,-0.61072 2.05217,-0.75593 1.99017,-1.23608c-0.13014,-1.00786 -0.69147,-3.274 -0.69147,-3.274l4.2787,-0.68179l0.6294,6.43524z" fill="#500190"/><path d="M293.1829,211.30542c-0.06674,-0.51687 0.9001,-1.26891 2.19351,-1.45285c0.6561,-0.0933 1.67931,-1.00876 2.12692,-0.89551c0.43478,0.11001 0.34014,1.53161 0.37302,1.78629c0.06674,0.51687 -0.92766,1.08497 -2.22106,1.26892c-1.2934,0.18394 -2.396,-0.08596 -2.46274,-0.60283z" fill="#979025"/></g><g><path d="M260.98787,184.67114l-15.43004,-6.78377" data-paper-data="{&quot;index&quot;:null}" fill="none" stroke="#383838" stroke-width="3.5" stroke-linecap="round"/><g data-paper-data="{&quot;index&quot;:null}" fill="#393839" stroke="#131313" stroke-width="2.5" stroke-linecap="butt"><path d="M260.86547,184.64115c0.80789,-0.86371 1.79031,-1.25756 2.1943,-0.87968c0.404,0.37788 0.07658,1.3844 -0.7313,2.24812c-0.80789,0.86371 -1.79031,1.25756 -2.1943,0.87968c-0.404,-0.37788 -0.07658,-1.3844 0.7313,-2.24812z"/><path d="M261.58198,185.60855c0.80789,-0.86371 1.79031,-1.25756 2.1943,-0.87968c0.404,0.37788 0.07658,1.3844 -0.7313,2.24812c-0.80789,0.86371 -1.79031,1.25756 -2.1943,0.87968c-0.404,-0.37788 -0.07658,-1.3844 0.7313,-2.24811z"/><path d="M262.484,186.27652c0.80789,-0.86371 1.79031,-1.25756 2.1943,-0.87968c0.404,0.37788 0.07658,1.3844 -0.7313,2.24812c-0.80789,0.86371 -1.79031,1.25756 -2.1943,0.87968c-0.404,-0.37788 -0.07658,-1.3844 0.7313,-2.24812z"/><path d="M261.78394,183.626c0.28072,-0.47666 1.3344,-0.37655 2.35347,0.22361c1.01906,0.60016 1.61762,1.47309 1.3369,1.94976c-0.28072,0.47666 -1.3344,0.37654 -2.35347,-0.22361c-1.01906,-0.60016 -1.61762,-1.47309 -1.3369,-1.94975z" data-paper-data="{&quot;index&quot;:null}"/></g></g><path d="M243.21854,196.7867c0,0 5.46753,2.57396 5.48937,5.00721c0.02028,2.25971 -1.87095,5.61854 -1.87095,5.61854" fill="none" stroke="#000000" stroke-width="3.5" stroke-linecap="round"/><path d="M232.47145,196.05018c0,0 1.36563,5.55871 1.7152,8.24855c0.33472,2.57556 0.24774,5.6329 0.24774,5.6329" fill="none" stroke="#000000" stroke-width="3.5" stroke-linecap="round"/><g data-paper-data="{&quot;index&quot;:null}" stroke="#121312" stroke-width="3.5" stroke-linecap="butt"><path d="M230.86207,216.26246l1.48138,-5.97034l4.30009,1.29393c0,0 -0.87008,2.05073 -1.13447,2.98097c-0.07389,0.25998 0.7302,0.54937 1.30175,0.83882c0.40274,0.20396 0.64525,0.39627 0.57902,0.62928c-0.17608,0.61952 -0.70922,1.73738 -0.70922,1.73738z" fill="#383838"/><path d="M236.94168,211.58367c-0.13559,0.47706 -1.30158,0.56365 -2.60432,0.1934c-1.30275,-0.37025 -2.24891,-1.05713 -2.11333,-1.5342c0.06681,-0.23506 0.15437,-1.58953 0.6146,-1.62706c0.47382,-0.03863 1.40442,0.98007 2.06526,1.16788c1.30275,0.37025 2.17337,1.32291 2.03779,1.79998z" fill="#979025"/></g><g stroke="#121312" stroke-width="3.5" stroke-linecap="butt"><path d="M240.14397,212.22544l3.68869,-4.9227l3.45718,2.86583c0,0 -1.59977,1.55024 -2.20542,2.3042c-0.28854,0.35918 1.52789,1.6276 1.16089,2.08445c-0.40336,0.5021 -1.32961,1.32425 -1.32961,1.32425z" fill="#383838"/><path d="M247.56538,210.28243c-0.3106,0.38665 -1.41832,0.0125 -2.47417,-0.83568c-1.05585,-0.84818 -1.65999,-1.84922 -1.34939,-2.23586c0.15304,-0.19052 0.76097,-1.40405 1.19951,-1.25945c0.45148,0.14887 0.91211,1.44947 1.44771,1.87973c1.05585,0.84818 1.48694,2.06462 1.17634,2.45127z" fill="#979025"/></g><g stroke="none" stroke-width="0" stroke-linecap="butt"><path d="M231.13091,196.57189v-21.06858h15.05886v21.06858z" fill="#000000"/><path d="M231.10773,194.17872v-2.21047h15.05886v2.21047z" fill="#a17f00"/><g fill="#ca9e00"><path d="M237.12905,194.17817v-3.6611h0.99057v3.6611z"/><path d="M237.33408,194.209v-2.07232h2.88166v2.07232z"/><path d="M239.42536,193.4874v-3.10848h0.81047v3.10848z"/><path d="M239.52688,193.01645v-0.83219h4.35959l-0.54244,1.78766c0,0 -0.21161,-1.21867 -0.85471,-1.01171c-0.69567,0.22388 -0.77678,0.79595 -1.19449,0.79595c-0.15275,0 -0.11474,-0.59228 -0.35143,-0.68738c-0.22295,-0.08958 -0.30115,0.6562 -0.55253,0.6581c-0.35996,0.00272 -0.86398,-0.71045 -0.86398,-0.71045z"/><path d="M237.16903,193.71586c-0.25138,-0.0019 -0.32958,-0.74768 -0.55253,-0.6581c-0.23668,0.0951 -0.19868,0.68737 -0.35143,0.68737c-0.41772,0 -0.49882,-0.57207 -1.1945,-0.79595c-0.6431,-0.20696 -0.85471,1.01171 -0.85471,1.01171l-0.54244,-1.78766h4.35959v0.83219c0,0 -0.50402,0.71317 -0.86398,0.71045z" data-paper-data="{&quot;index&quot;:null}"/></g><g fill="#ca9e00"><path d="M236.78374,182.69997l0.03082,-5.97273h1.12025l0.03082,5.97273z"/><path d="M237.02838,182.74766v-3.20633h3.43824v3.20633z"/><path d="M239.52358,181.6312v-4.80949h0.967v4.80949z"/><path d="M239.64471,180.90253v-1.28758h5.20162l-0.64721,2.76591c0,0 -0.25249,-1.88554 -1.0198,-1.56533c-0.83004,0.34639 -0.92681,1.23151 -1.42521,1.23151c-0.18225,0 -0.1369,-0.91638 -0.4193,-1.06352c-0.26601,-0.1386 -0.35932,1.01529 -0.65925,1.01823c-0.42949,0.0042 -1.03086,-1.09922 -1.03086,-1.09922z"/><path d="M236.83144,181.98468c-0.29993,-0.00294 -0.39324,-1.15682 -0.65925,-1.01822c-0.2824,0.14714 -0.23705,1.06352 -0.4193,1.06352c-0.4984,0 -0.59516,-0.88512 -1.42521,-1.23151c-0.76731,-0.32021 -1.0198,1.56533 -1.0198,1.56533l-0.64721,-2.76591h5.20162v1.28758c0,0 -0.60137,1.10342 -1.03086,1.09922z" data-paper-data="{&quot;index&quot;:null}"/></g></g><g stroke="none" stroke-linecap="butt"><path d="M250.37899,163.89065c0,6.01799 -4.999,10.89654 -11.16558,10.89654c-6.16658,0 -11.16558,-4.87854 -11.16558,-10.89654c0,-6.01799 4.999,-10.89653 11.16558,-10.89653c6.16658,0 11.16558,4.87854 11.16558,10.89653z" fill="#000000" stroke-width="0"/><path d="M245.08766,161.87277l0.17937,-10.58264l2.86987,-6.54689v17.12953z" fill="#000000" stroke-width="0"/><path d="M230.0336,162.33392v-17.12953l2.86987,6.54689l0.17937,10.58264z" data-paper-data="{&quot;index&quot;:null}" fill="#000000" stroke-width="0"/><path d="M234.50502,172.54509l-1.97304,-5.9191h14.25966l-2.33177,5.65005z" fill="#d9b796" stroke-width="0"/><path d="M234.5947,164.07001c0,0.76773 -1.20458,1.39009 -2.6905,1.39009c-1.48592,0 -2.6905,-0.62237 -2.6905,-1.39009c0,-0.76773 1.20458,-1.39009 2.6905,-1.39009c1.48592,0 2.6905,0.62237 2.6905,1.39009z" fill="#ffffff" stroke-width="0"/><path d="M248.86711,164.3518c0,0.76773 -1.20458,1.39009 -2.6905,1.39009c-1.48592,0 -2.6905,-0.62237 -2.6905,-1.39009c0,-0.76773 1.20458,-1.39009 2.6905,-1.39009c1.48592,0 2.6905,0.62237 2.6905,1.39009z" fill="#ffffff" stroke-width="0"/><path d="M243.42912,169.49358c0,0.34784 -0.34784,0.34784 -0.34784,0.34784h-0.34539c-2.24142,0 -4.4637,0.13816 -6.7005,0.13816c0,0 -0.34784,0 -0.34784,-0.34784c0,-0.34784 0.34784,-0.34784 0.34784,-0.34784c2.23665,0 4.45912,-0.13816 6.7005,-0.13816h0.34539c0,0 0.34784,0 0.34784,0.34784z" fill="#000000" stroke-width="0.5"/><path d="M243.38002,170.58985c-0.12919,-0.32296 0.19378,-0.45215 0.19378,-0.45215l0.29944,-0.11573c0.48159,-0.38972 0.87573,-0.95228 0.25107,-1.48745c-0.14386,-0.12325 -0.67685,0.02391 -0.83665,0.05676c0,0 -0.34109,0.06822 -0.4093,-0.27287c-0.06822,-0.34109 0.27287,-0.4093 0.27287,-0.4093c0.39386,-0.07698 1.01102,-0.20166 1.37383,0.05676c0.46444,0.33081 0.79617,1.29457 0.52789,1.81594c-0.20145,0.39149 -0.50354,0.58253 -0.82945,0.84124l-0.39133,0.16058c0,0 -0.32296,0.12919 -0.45215,-0.19378z" fill="#000000" stroke-width="0.5"/><path d="M236.45232,170.73697c0,0.34784 -0.34784,0.34784 -0.34784,0.34784l-0.34453,-0.00675c-1.67441,-0.34149 -1.95878,-2.62351 -0.13816,-3.0308c0,0 0.34109,-0.06822 0.4093,0.27287c0.06822,0.34109 -0.27287,0.4093 -0.27287,0.4093c-1.13173,0.18367 -0.77302,1.48853 0.13816,1.66646l0.20809,-0.00675c0,0 0.34784,0 0.34784,0.34784z" fill="#000000" stroke-width="0.5"/><path d="M241.32399,168.01261c-0.69085,0.65013 -1.63705,0.4481 -2.51362,0.30438c0,0 -0.34311,-0.05718 -0.28592,-0.40029c0.05718,-0.34311 0.40029,-0.28592 0.40029,-0.28592c0.56218,0.09545 1.49034,0.35217 1.90733,-0.11008l0.15744,-0.21517c-0.13768,-0.61688 -0.42328,-1.18502 -0.5309,-1.83032c0,0 -0.05718,-0.34311 0.28592,-0.40029c0.34311,-0.05718 0.40029,0.28592 0.40029,0.28592c0.11365,0.6824 0.41267,1.26018 0.5506,1.92313l0.00675,0.13729c0,0 0,0.20243 -0.15442,0.29843z" fill="#000000" stroke-width="0.5"/></g><g><path d="M231.76186,177.52664l16.40538,-3.869" fill="none" stroke="#383838" stroke-width="3.5" stroke-linecap="round"/><g fill="#393839" stroke="#131313" stroke-width="2.5" stroke-linecap="butt"><path d="M247.73051,171.32137c0.4659,-0.29824 1.36047,0.26746 1.99808,1.26353c0.6376,0.99607 0.77681,2.0453 0.3109,2.34353c-0.4659,0.29824 -1.36047,-0.26746 -1.99808,-1.26353c-0.6376,-0.99607 -0.77681,-2.0453 -0.3109,-2.34353z"/><path d="M248.61079,170.50018c0.4659,-0.29824 1.36047,0.26746 1.99808,1.26353c0.6376,0.99607 0.7768,2.04531 0.31091,2.34354c-0.4659,0.29824 -1.36048,-0.26747 -1.99808,-1.26353c-0.6376,-0.99607 -0.7768,-2.0453 -0.3109,-2.34353z"/><path d="M249.61911,170.00711c0.4659,-0.29824 1.36047,0.26746 1.99808,1.26353c0.6376,0.99607 0.77681,2.0453 0.3109,2.34353c-0.4659,0.29824 -1.36047,-0.26746 -1.99808,-1.26353c-0.6376,-0.99607 -0.7768,-2.0453 -0.3109,-2.34353z"/><path d="M250.42902,173.15541c1.11111,-0.40512 2.16545,-0.31223 2.35494,0.20748c0.18949,0.51971 -0.55762,1.26944 -1.66873,1.67456c-1.11111,0.40512 -2.16545,0.31223 -2.35494,-0.20748c-0.18949,-0.51971 0.55762,-1.26944 1.66873,-1.67456z" data-paper-data="{&quot;index&quot;:null}"/></g></g></g><g stroke="none" stroke-width="1" stroke-linecap="butt" font-family="Sans Serif" font-weight="normal" font-size="40" text-anchor="start"><text transform="translate(176.26427,171.26089) scale(0.27213,0.27213)" font-size="40" xml:space="preserve" fill="url(#color-1)" fill-rule="nonzero" stroke="none" stroke-width="1" stroke-linecap="butt" stroke-linejoin="miter" stroke-miterlimit="10" stroke-dasharray="" stroke-dashoffset="0" font-family="Sans Serif" font-weight="normal" text-anchor="start" style="mix-blend-mode: normal"><tspan x="0" dy="0">BaTmAn</tspan></text><text transform="translate(176.26427,185.00548) scale(0.41647,0.41647)" font-size="40" xml:space="preserve" fill="url(#color-2)" fill-rule="nonzero" stroke="none" stroke-width="1" stroke-linecap="butt" stroke-linejoin="miter" stroke-miterlimit="10" stroke-dasharray="" stroke-dashoffset="0" font-family="Sans Serif" font-weight="normal" text-anchor="start" style="mix-blend-mode: normal"><tspan x="0" dy="0">jOkEr</tspan></text></g><path d="M154.0863,221.25164c0,-23.05559 0,-69.13003 0,-82.09091c0,-6.64651 5.16204,-13.75472 13.64097,-13.75472c34.6915,0 124.90883,0 144.27273,0c7.15266,0 13.9137,7.16213 13.9137,13.84562c0,12.92917 0,58.60982 0,81.72728c0,8.24133 -5.27286,13.61508 -13.9137,13.61508c-34.88915,0 -124.68663,-0.00001 -144,-0.00001c-7.15266,0 -13.9137,-5.25502 -13.9137,-13.34235z" fill="url(#color-3)" stroke="none" stroke-width="0" stroke-linecap="butt"/><text transform="translate(159.55823,142.35307) scale(0.33586,0.33586)" font-size="40" xml:space="preserve" fill="#ffffff" fill-rule="nonzero" stroke="none" stroke-width="1" stroke-linecap="butt" stroke-linejoin="miter" stroke-miterlimit="10" stroke-dasharray="" stroke-dashoffset="0" font-family="Sans Serif" font-weight="normal" text-anchor="start" style="mix-blend-mode: normal"><tspan x="0" dy="0">Batman &amp; Joker Dance</tspan></text></g></g></svg>