<svg version="1.1" xmlns="http://www.w3.org/2000/svg" xmlns:xlink="http://www.w3.org/1999/xlink" width="488.16667" height="368.16667" viewBox="0,0,488.16667,368.16667"><g transform="translate(4.08334,4.08333)"><g data-paper-data="{&quot;isPaintingLayer&quot;:true}" fill-rule="nonzero" stroke-linejoin="miter" stroke-miterlimit="10" stroke-dasharray="" stroke-dashoffset="0" style="mix-blend-mode: normal"><path d="M-0.33334,360.33333v-360.66666h480.66667v360.66667l-256.87138,-0.00001c-3.92999,-0.62875 -7.80867,-1.46615 -11.54064,-2.71014l-1.51635,-0.3424c-7.29684,-2.23373 -14.40186,-2.67902 -20.86257,-0.88565c-2.38489,-0.30949 -4.85845,-0.28487 -7.46783,0.23984c-4.05104,0.81461 -6.91725,2.04356 -9.08544,3.69835z" fill="#ffffff" stroke="#ffffff" stroke-width="7.5" stroke-linecap="butt"/><text transform="translate(275.01563,38.17362) scale(0.5,0.5)" font-size="40" xml:space="preserve" fill="#000000" fill-rule="nonzero" stroke="none" stroke-width="1" stroke-linecap="butt" stroke-linejoin="miter" stroke-miterlimit="10" stroke-dasharray="" stroke-dashoffset="0" font-family="Sans Serif" font-weight="normal" text-anchor="start" style="mix-blend-mode: normal"><tspan x="0" dy="0">IM THE REAL GABE!</tspan></text><path d="M234.6971,334.40822l-4.68142,-180.2346" fill="none" stroke="#000000" stroke-width="50" stroke-linecap="round"/><path d="M214.25078,270.69722c0,0 -47.08243,42.51868 -67.97026,40.41641c-19.6027,-1.97292 -53.74634,-52.66664 -53.74634,-52.66664" fill="none" stroke="#000000" stroke-width="50" stroke-linecap="round"/><path d="M230.01568,256.17362c0,0 81.24755,-13.12648 100.06777,-1.76945c19.797,11.94647 15.93223,71.76945 15.93223,71.76945" fill="none" stroke="#000000" stroke-width="50" stroke-linecap="round"/><text transform="translate(275.01563,38.17362) scale(0.5,0.5)" font-size="40" xml:space="preserve" fill="#000000" fill-rule="nonzero" stroke="none" stroke-width="1" stroke-linecap="butt" stroke-linejoin="miter" stroke-miterlimit="10" stroke-dasharray="" stroke-dashoffset="0" font-family="Sans Serif" font-weight="normal" text-anchor="start" style="mix-blend-mode: normal"><tspan x="0" dy="0">IM THE REAL GABE!</tspan></text><g stroke-linecap="butt"><path d="M282.01563,160.17361c0,43.07821 -32.90707,78 -73.5,78c-40.59293,0 -73.5,-34.92179 -73.5,-78c0,-43.07821 32.90707,-78 73.5,-78c40.59293,0 73.5,34.92179 73.5,78z" fill="#000000" stroke="none" stroke-width="0"/><path d="M242.36896,103.49486c0.07813,-0.08248 0.15646,-0.15766 0.2348,-0.22604c-2.04761,0.58846 -4.0886,1.38877 -6.14414,2.49339c0,0 -2.20497,1.17818 -3.38315,-1.02678c-1.17818,-2.20497 1.02678,-3.38315 1.02678,-3.38315c8.6743,-4.61165 17.00957,-4.52768 26.53074,-5.09423c10.25963,-0.61049 20.48018,-0.76478 30.71977,-1.14972c4.07255,-0.1531 9.11495,-1.80662 13.1749,-0.7002c1.73602,0.4731 4.0879,0.98281 4.68576,2.67991c0.75824,2.15235 -0.9196,4.47041 -1.3794,6.70561c-6.20227,13.96048 -16.4296,25.44152 -27.203,36.15893c-1.75617,1.74705 -3.68429,3.31652 -5.42538,5.07859c-1.51125,1.52947 -2.38131,4.12356 -4.46455,4.65577c-4.62264,1.18096 -5.80717,-4.0195 -7.39449,-6.33005c-4.93108,-7.17783 -9.02625,-13.6156 -12.42205,-21.7217c-0.10725,-0.16757 -4.86821,-7.58559 -5.01467,-7.89403c-0.89401,-1.88282 -1.31758,-3.97746 -2.3085,-5.81112l-1.13766,-0.90092c0,0 -1.815,-1.71924 -0.09576,-3.53424z" fill="#000000" stroke="none" stroke-width="0.5"/><path d="M273.11787,79.17359c0,28.16652 -27.33351,51 -61.05109,51c-33.71759,0 -61.05109,-22.83348 -61.05109,-51c0,-28.16652 27.33351,-51 61.05109,-51c33.71759,0 61.05109,22.83348 61.05109,51z" fill="#ff0000" stroke="#ffffff" stroke-width="0"/><path d="M221.01567,114.67361c0,10.21727 -29.32535,18.5 -65.5,18.5c-36.17465,0 -65.5,-8.28273 -65.5,-18.5c0,-10.21727 29.32535,-18.5 65.5,-18.5c36.17465,0 65.5,8.28273 65.5,18.5z" fill="#ff0000" stroke="none" stroke-width="0"/><path d="M189.01568,211.67362c-2.5,0 -2.5,-2.5 -2.5,-2.5v-1c0,-13.14292 -0.83706,-26.23128 -0.97951,-39.34142c-6.60397,2.20689 -13.22123,4.47952 -19.40246,7.57749c0,0 -2.23607,1.11803 -3.3541,-1.11803c-1.11803,-2.23607 1.11803,-3.3541 1.11803,-3.3541c7.12176,-3.55293 14.77341,-6.06677 22.352,-8.60898c0.37036,-0.37377 0.9276,-0.65495 1.76603,-0.65495c0.05764,0 0.11396,0.00133 0.16898,0.00393c1.19336,-0.40318 2.38362,-0.80934 3.56841,-1.22266c7.14787,-2.49358 14.26685,-5.56744 21.53258,-7.6723c6.74786,-1.95484 14.39401,-2.88573 20.39931,-6.72537l2.33072,-0.38359c0,0 2.5,0 2.5,2.5c0,2.5 -2.5,2.5 -2.5,2.5l0.33072,-0.38359c-6.51291,4.04039 -14.33506,5.17753 -21.60069,7.27463c-7.20188,2.07869 -14.26203,5.14002 -21.34571,7.61121c-0.95571,0.3334 -1.91554,0.66172 -2.8781,0.98733c0.08418,13.66775 0.99377,27.31023 0.99377,41.01043v1c0,0 0,2.5 -2.5,2.5z" fill="#ff0000" stroke="none" stroke-width="0.5"/></g></g></g></svg>