<svg version="1.1" xmlns="http://www.w3.org/2000/svg" xmlns:xlink="http://www.w3.org/1999/xlink" width="488.16667" height="368.16667" viewBox="0,0,488.16667,368.16667"><g transform="translate(4.08333,4.08333)"><g data-paper-data="{&quot;isPaintingLayer&quot;:true}" fill-rule="nonzero" stroke-linecap="butt" stroke-linejoin="miter" stroke-miterlimit="10" stroke-dasharray="" stroke-dashoffset="0" style="mix-blend-mode: normal"><path d="M-0.33333,360.33333v-360.66666h480.66667v360.66667z" fill="#000000" stroke="#ffffff" stroke-width="7.5"/><path d="M184.2517,234.29166c-1.11803,2.23607 -3.3541,1.11803 -3.3541,1.11803l-1.33034,-0.7766c-4.68102,-0.94932 -7.83936,-3.9804 -11.77813,-6.60584c-2.50395,-1.66904 -5.35835,-2.91499 -7.49154,-5.03749c-3.13628,-3.12057 -5.7526,-7.50335 -8.1873,-11.20412c-4.59467,-6.98393 -8.9368,-14.15673 -13.23839,-21.32578c0,0 -1.28624,-2.14373 0.85749,-3.42997c2.14373,-1.28624 3.42997,0.85749 3.42997,0.85749c4.2659,7.11012 8.57257,14.22343 13.12824,21.15051c2.2311,3.39248 4.58595,7.44188 7.44607,10.31959c1.92296,1.93478 4.55936,2.99621 6.82896,4.50951c3.11703,2.07834 6.16476,5.28197 9.90137,5.84716l2.66966,1.2234c0,0 2.23607,1.11803 1.11803,3.3541z" fill="#ff0000" stroke="none" stroke-width="0.5"/><text transform="translate(113.01564,50.17362) scale(0.5,0.5)" font-size="40" xml:space="preserve" fill="#ffffff" fill-rule="nonzero" stroke="none" stroke-width="1" stroke-linecap="butt" stroke-linejoin="miter" stroke-miterlimit="10" stroke-dasharray="" stroke-dashoffset="0" font-family="Sans Serif" font-weight="normal" text-anchor="start" style="mix-blend-mode: normal"><tspan x="0" dy="0">No</tspan></text></g></g></svg>