<svg version="1.1" xmlns="http://www.w3.org/2000/svg" xmlns:xlink="http://www.w3.org/1999/xlink" width="488.16667" height="368.16667" viewBox="0,0,488.16667,368.16667"><g transform="translate(4.08332,4.08332)"><g data-paper-data="{&quot;isPaintingLayer&quot;:true}" fill-rule="nonzero" stroke-linecap="butt" stroke-linejoin="miter" stroke-miterlimit="10" stroke-dasharray="" stroke-dashoffset="0" style="mix-blend-mode: normal"><path d="M-0.33331,360.33335v-360.66666h480.66667v360.66667z" fill="#ffffff" stroke="#ffffff" stroke-width="7.5"/><path d="M129.01567,360.17364v-107h39v107z" fill="#00fbc1" stroke="none" stroke-width="0"/><g><path d="M222.29215,188.75384c-0.31662,42.8009 -32.73621,77.25994 -72.41121,76.96646c-39.67499,-0.2935 -71.58125,-35.22839 -71.26463,-78.0293c0.31662,-42.8009 32.73624,-77.25995 72.41123,-76.96646c39.67499,0.2935 71.58125,35.22841 71.26463,78.02931z" fill="#000000" stroke="#ffffff" stroke-width="0"/><path d="M219.3374,90.7293c-0.20631,27.88962 -29.47426,50.28334 -65.37178,50.01779c-35.89752,-0.26555 -64.83097,-23.08983 -64.62466,-50.97945c0.20631,-27.88962 29.47426,-50.28333 65.37179,-50.01779c35.89753,0.26554 64.83097,23.08983 64.62465,50.97945z" fill="#ff0000" stroke="#ffffff" stroke-width="0"/><path d="M87.49747,152.0115c-0.73814,-2.38854 1.6504,-3.12668 1.6504,-3.12668l0.45137,0.15413c2.09878,-2.04337 4.53779,-3.91647 7.17747,-5.58583c-1.10154,-7.98043 -1.84949,-16.08584 -2.15201,-24.02361c-0.03354,-0.88012 0.06319,-10.66285 0.26927,-11.07698c0.84416,-1.69636 2.59329,-3.73694 4.47401,-3.50647c2.17734,0.26681 3.04342,3.16577 4.67856,4.62807c4.62503,4.13613 9.04667,8.3939 13.42882,12.84137c1.72682,1.75257 3.26193,3.71515 5.17178,5.26622c2.93316,2.38213 6.27012,3.02337 5.82095,8.3771c-0.3788,4.51501 -6.66436,4.42684 -9.18557,4.72452c-5.5803,0.65887 -11.62787,2.49159 -16.99396,5.31413c0.30978,2.34165 0.65887,4.68152 1.06333,7.02164c0.26274,1.5202 0.37139,3.08325 0.85266,4.54901c0.49026,1.4932 1.6782,2.72203 2.03705,4.25216c0.34819,1.48468 0.02202,3.04984 0.03304,4.57474c0,0 -0.01848,2.49993 -2.51842,2.48143c-2.49993,-0.01849 -2.48145,-2.51842 -2.48145,-2.51842c0.12282,-4.56086 -2.02662,-7.87523 -2.84736,-12.47328c-0.29674,-1.66244 -0.57932,-3.33637 -0.84683,-5.01897c-1.62096,1.14255 -3.126,2.38977 -4.47201,3.73477l-2.48437,1.06138c0,0 -2.38854,0.73814 -3.12668,-1.6504z" fill="#000000" stroke="none" stroke-width="0.5"/><path d="M287.09513,123.73142c-0.08171,11.04539 -29.24864,19.78419 -65.14617,19.51862c-35.89752,-0.26555 -64.93199,-9.4349 -64.85027,-20.48027c0.08171,-11.04539 29.24864,-19.78419 65.14616,-19.51863c35.89752,0.26555 64.93199,9.4349 64.85028,20.48028z" fill="#ff0000" stroke="#ffffff" stroke-width="0"/><path d="M211.37595,220.67396c-2.49993,-0.0185 -2.48143,-2.51842 -2.48143,-2.51842l0.01478,-1.99994c0.03359,-1.52461 -0.26761,-3.09395 0.10072,-4.57376c0.36003,-1.44658 1.65052,-2.54336 2.02954,-3.98508c0.3057,-1.16288 -0.11462,-2.40736 -0.03364,-3.60704c0.34201,-5.06663 1.73592,-9.91373 2.05354,-14.96289c-1.29069,-0.52412 -2.57116,-1.05299 -3.82669,-1.60215c-7.13332,-3.12011 -14.17535,-6.4904 -21.1564,-9.93857c-5.48429,-2.70888 -11.04403,-5.24318 -16.54354,-7.92039c-4.62531,-2.25161 -8.164,-4.30656 -13.23109,-5.33444c0,0 -2.44776,-0.50842 -1.93934,-2.95617c0.50841,-2.44776 2.95617,-1.93935 2.95617,-1.93935c5.47456,1.16041 9.41047,3.30408 14.40275,5.73436c5.50812,2.6814 11.07658,5.21975 16.5694,7.93306c8.31041,4.10513 16.71657,7.98577 25.20496,11.70324c0.04784,-0.00159 0.09668,-0.00224 0.14648,-0.00187c1.00348,0.00742 1.60119,0.41469 1.95718,0.89959c3.39931,1.40944 6.94204,2.72649 10.14159,4.46417c2.8839,1.56624 5.70957,3.25685 8.69986,4.60896c4.03441,1.82888 8.0688,3.65771 12.1032,5.48659l0.98625,-0.20817c0,0 2.49993,0.01849 2.48145,2.51842c-0.0185,2.49993 -2.51842,2.48144 -2.51842,2.48144l-3.01364,-0.23776c-4.03441,-1.82888 -8.06879,-3.6577 -12.10319,-5.48657c-3.07033,-1.39518 -5.98482,-3.1116 -8.94464,-4.72804c-2.40264,-1.31215 -4.95497,-2.44207 -7.53955,-3.5138c-0.47949,4.49084 -1.56091,8.85459 -1.90226,13.39941c-0.10969,1.46046 0.26684,2.97302 -0.09282,4.39275c-0.36607,1.44505 -1.64332,2.54528 -2.02954,3.98509c-0.29589,1.10309 0.02769,2.284 0.04153,3.42602l-0.01479,1.99995c0,0 -0.01848,2.49993 -2.51842,2.48144z" fill="#ff0000" stroke="none" stroke-width="0.5"/></g><g><path d="M202.82329,283.20078c0.42874,-0.45436 0.85146,-0.91223 1.27617,-1.36623c-0.5014,-0.22027 -0.92268,-0.66268 -1.30997,-1.18242c-0.04425,-0.00338 -0.08835,-0.0076 -0.13233,-0.01265c0.02503,0.12495 0.04762,0.25039 0.06761,0.37625c0.1149,0.72264 0.12726,1.45242 0.09852,2.18506zM187.34474,289.27386c0.31082,-0.76384 0.39146,-1.65124 0.7984,-2.37385c0.89174,-1.58351 2.17709,-3.51712 3.58173,-5.37822c0.22788,-9.40597 -1.56249,-18.66601 -2.33306,-28.03676c-0.12574,-1.5391 -0.25148,-3.0782 -0.37721,-4.6173l0.02226,-0.09666l-0.02458,0.00011l-0.01659,-3.56673c-0.01578,-0.82034 0.3722,-1.63167 1.10338,-2.12406c0.93282,-0.62816 2.13653,-0.54352 2.96774,0.12833l3.91533,3.01615c6.07303,3.62882 10.38888,9.60482 14.9598,14.87295c0.17017,-0.22512 0.39956,-0.44435 0.70351,-0.64904c2.07366,-1.3964 3.47005,0.67725 3.47005,0.67725l-0.03721,3.96293c1.44484,1.05735 2.46305,1.99408 1.8566,5.2919c-0.35066,1.9068 -1.81778,3.5175 -3.07004,5.16309c0.07945,0.39007 0.12958,0.81963 0.14645,1.29112c0.02208,0.61671 -1.46733,2.39537 -3.16331,4.22019c-0.7937,1.58025 -1.66358,3.11263 -2.80532,4.44652c-5.29957,6.19142 -12.98291,10.70721 -20.10122,15.13887c-2.67787,1.89913 -5.58518,3.64352 -8.25683,5.44263c-2.76488,1.86188 -5.49467,3.77692 -8.29462,5.58562c-1.38886,0.89718 -2.56568,2.54205 -4.2177,2.61079c-8.62285,0.35879 -5.48546,-3.4707 -2.88926,-7.15046c0.58975,-0.83588 2.09508,-2.435 3.60338,-3.97715c-5.63805,0.13867 -11.13097,-1.27783 -16.78851,-1.23103c0,0 -2.49997,0.01163 -2.51161,-2.48835c-0.01163,-2.49998 2.48835,-2.51161 2.48835,-2.51161c5.70165,-0.0085 11.59693,1.52733 17.36258,1.27614c0.17359,-0.25418 0.39736,-0.48034 0.66821,-0.66275c0.57263,-0.38561 1.24734,-0.5026 1.87528,-0.38003l2.03567,0.3973c0.41101,-0.10441 0.82089,-0.22287 1.2295,-0.35664c2.14636,-1.01126 5.3423,-3.21731 6.43958,-3.92277c2.09615,-1.34767 3.92711,-2.58267 5.65921,-3.99855zM201.87683,270.66681c0.07637,-0.26988 0.09596,-0.56262 0.0561,-0.89356c-0.22962,-0.3105 -0.46295,-0.62025 -0.69824,-0.92905c0.13545,0.45982 0.2838,0.91523 0.44803,1.36529c0.05707,0.15641 0.12218,0.30864 0.19409,0.4573zM206.19894,266.19189c0.18746,0.46975 0.33692,0.94224 0.44718,1.41478c0.21166,-0.2518 0.42515,-0.50178 0.64076,-0.74963c-0.37472,-0.20522 -0.73653,-0.42779 -1.08793,-0.66515zM196.45807,287.88922c-0.01514,0.14317 -0.03207,0.2858 -0.05108,0.4279c0.1549,-0.09413 0.3099,-0.18806 0.46475,-0.28219l-0.13038,-0.46946c-0.09345,0.10845 -0.18789,0.21635 -0.28329,0.32375zM194.17322,249.87119l-0.05659,0.07345c0.03776,0.45754 0.07553,0.9151 0.11329,1.37263c0.43696,-0.11447 0.89288,-0.1064 1.3186,0.01465c-0.4834,-0.45504 -0.94443,-0.93371 -1.3753,-1.46073z" fill="#00fbc1" stroke="none" stroke-width="0.5"/><path d="M239.87076,237.89558c10.18002,15.11728 7.07262,35.02208 -6.94058,44.45862c-14.0132,9.43654 -33.6257,4.8314 -43.80573,-10.28588c-10.18002,-15.11728 -7.07261,-35.02208 6.94059,-44.45862c14.0132,-9.43654 33.62569,-4.83138 43.80572,10.28589z" fill="#000000" stroke="#ffffff" stroke-width="0"/></g><text transform="translate(152.01566,38.17363) scale(0.5,0.5)" font-size="40" xml:space="preserve" fill="#000000" fill-rule="nonzero" stroke="none" stroke-width="1" stroke-linecap="butt" stroke-linejoin="miter" stroke-miterlimit="10" stroke-dasharray="" stroke-dashoffset="0" font-family="Sans Serif" font-weight="normal" text-anchor="start" style="mix-blend-mode: normal"><tspan x="0" dy="0">I'm The Real Gabe!</tspan></text></g></g></svg>