<svg version="1.1" xmlns="http://www.w3.org/2000/svg" xmlns:xlink="http://www.w3.org/1999/xlink" width="488.16667" height="368.16667" viewBox="0,0,488.16667,368.16667"><g transform="translate(4.08333,4.08333)"><g data-paper-data="{&quot;isPaintingLayer&quot;:true}" stroke-linecap="butt" stroke-linejoin="miter" stroke-miterlimit="10" stroke-dasharray="" stroke-dashoffset="0" style="mix-blend-mode: normal"><path d="M-0.33332,360.33334v-360.66666h480.66667v360.66667z" fill="#ffffff" fill-rule="nonzero" stroke="#ffffff" stroke-width="7.5"/><g fill-rule="evenodd" stroke="none" stroke-width="1"><g><path d="M368.38699,252.86249c-48.87721,26.42046 -96.31897,21.19321 -128.33596,-1.62437c-39.24808,-28.11441 -67.93585,-107.70089 -22.18664,-138.95218c-1.97133,-4.45972 -9.23073,-23.58704 -12.71464,-37.25025l12.50741,-15.12442c13.36441,4.07521 27.14974,22.74454 21.16042,48.04028c7.035,-0.71976 20.17392,6.04715 23.65752,19.7105c6.43708,25.66759 9.65079,49.4506 32.78495,68.14252c18.60908,14.90093 48.41604,12.13136 71.69629,21.08876c28.4236,10.8206 20.39065,25.25418 1.43064,35.96917z" fill="#272525"/><path d="M213.2622,67.64448c6.66434,0.43708 16.18714,4.55552 18.68938,10.67435c-0.48738,2.18234 0.39052,34.57224 5.89803,34.63792c13.83022,-0.02816 19.39948,50.87747 39.52114,74.98189c27.78168,33.36633 64.69714,25.00988 88.68256,39.7221c13.15338,8.04755 1.73772,17.78088 -2.08205,19.74498c-59.85565,29.48974 -100.03571,9.58148 -119.92543,-5.30498c-26.08747,-19.42692 -34.69166,-55.57092 -36.70486,-86.41121c-0.32666,-6.27126 0.68529,-18.70459 2.79548,-24.61934c3.74025,-9.00647 5.00613,-10.30142 13.27131,-15.51721c1.14239,-0.90924 -10.14555,-47.90849 -10.14555,-47.90849z" fill="#fff63b"/><path d="M229.26376,123.81077c-0.4071,-2.04424 2.53221,-2.58974 2.80843,-0.80004c11.04678,59.67988 42.67656,104.91263 91.16564,112.17673c10.13442,1.55038 28.17704,0.32247 32.14216,-0.10647c4.21979,-0.56026 2.46594,2.91732 -1.36785,3.60093c-3.5797,0.55259 -6.64988,0.84359 -12.28074,1.16317c-47.10061,2.32466 -93.71958,-9.4427 -112.46765,-116.03433z" fill="#272525"/></g><g><path d="M238.74776,120.59339c7.05669,1.20082 17.29984,12.35473 15.66887,26.71585c-3.02817,26.67109 -8.26838,50.29356 6.49143,75.86731c11.75542,20.35678 40.39769,27.84511 59.02124,44.02667c22.50823,19.97964 9.82641,31.00808 -11.90497,34.45493c-54.45611,8.68295 -96.69474,-12.09854 -118.44539,-44.38033c-26.5738,-39.78338 -25.2291,-124.83111 28.39066,-139.52326c-0.34142,-7.55174 -0.31641,-50.70864 5.42395,-52.69443c15.81693,-5.55721 41.26356,25.14633 15.35423,55.53328z" fill="#272525"/><path d="M229.38043,73.57247c6.91149,-0.33405 13.86639,3.17306 13.63279,16.49422c-0.16055,8.45389 -11.91946,33.1743 -6.77583,35.03734c12.98621,4.59151 0.23628,54.9355 10.30306,84.5319c14.29288,40.94623 51.35278,45.39438 68.37533,67.22849c9.3553,11.93225 -4.54106,17.46776 -8.7607,18.02757c-65.73261,8.04165 -96.19212,-24.26997 -109.48979,-45.1218c-17.342,-27.46542 -12.76329,-64.2706 -3.88511,-94.5934c1.72449,-6.03825 6.97071,-17.7512 11.27078,-22.53805c6.44642,-7.50039 3.57322,-12.46225 13.15474,-14.4914c1.53518,-0.14535 12.17474,-44.57488 12.17474,-44.57488z" fill="#fff63b"/><path d="M224.66903,132.66194c0.48768,-2.1825 3.31041,-1.70222 2.94668,0.09472c-10.71367,60.56591 2.82196,113.81488 45.22035,137.41144c9.02094,5.0209 25.97918,9.82356 29.82774,10.42043c3.97988,0.85155 1.35294,6.38798 -2.24107,5.66023c-3.59372,-0.7279 -8.85378,-1.56485 -13.86638,-3.17306c-44.85111,-13.96444 -81.93115,-42.87182 -61.88732,-150.41376z" fill="#272525"/></g><g><path d="M206.20927,112.16153c4.9251,5.19484 7.38319,18.74149 -0.30033,30.09779c-15.23619,22.96714 -27.19088,41.67082 -26.59643,71.63033c0.65304,23.81237 17.52303,43.47136 25.85146,66.55613c10.05247,28.31607 -14.35633,32.81779 -34.92304,26.00673c-51.54421,-16.96249 -70.03505,-55.42832 -73.03715,-94.45291c-3.7431,-47.98078 38.29887,-124.01148 91.8296,-112.57834c3.25259,-6.82399 23.81525,-45.73068 29.97008,-45.03198c16.2891,2.24952 22.63037,42.1329 -12.7942,57.77225z" fill="#272525"/><path d="M220.02112,65.13532c4.15384,4.94738 6.95426,14.77638 3.82534,21.21495c-2.88163,5.66701 -15.14113,20.02029 -23.66114,25.36711c9.07893,10.14222 -25.14696,52.53281 -30.68565,83.71423c-7.45311,43.11289 22.49769,64.41717 26.65,91.90322c2.21774,14.9583 -12.2672,13.71322 -16.38504,11.96673c-60.70326,-22.87786 -71.69312,-66.16652 -73.12421,-90.86614c-1.90386,-32.50604 20.0259,-63.74468 42.04977,-86.66002c4.43095,-4.53231 14.71162,-12.71617 20.57562,-15.08737c9.3056,-3.81902 11.35706,-3.58617 20.34908,-1.12656c1.79709,0.36401 26.89988,-44.74098 30.40624,-40.42616z" fill="#fff63b"/><path d="M187.30059,116.08869c1.38954,-1.68035 3.58678,0.08779 2.57528,1.25156c-38.37323,49.35281 -52.61478,103.68362 -26.92898,144.24506c5.34666,8.51973 17.64864,20.54668 20.87863,23.07152c3.22983,2.52453 -0.85169,3.97957 -3.44144,1.44736c-2.84444,-2.40088 -5.04137,-4.16918 -8.67138,-8.09785c-32.25631,-32.67578 -53.47531,-74.56816 15.5879,-161.91765z" fill="#272525"/></g></g></g></g></svg>