<svg version="1.1" xmlns="http://www.w3.org/2000/svg" xmlns:xlink="http://www.w3.org/1999/xlink" width="489" height="370" viewBox="0,0,489,370"><g transform="translate(5,5.5)"><g data-paper-data="{&quot;isPaintingLayer&quot;:true}" fill-rule="nonzero" stroke-linejoin="miter" stroke-miterlimit="10" stroke-dasharray="" stroke-dashoffset="0" style="mix-blend-mode: normal"><path d="M-5,364.5v-370h489v370z" fill="#ffffff" stroke="none" stroke-width="0" stroke-linecap="butt"/><g stroke="none" stroke-width="1" stroke-linecap="butt"><g><path d="M315.61696,187.66527c0,0 -4.39323,-1.71791 -1.29884,-3.63785c3.465,-2.09883 16.62884,-0.19687 8.83923,4.05007c0,0 1.88649,31.80611 4.21565,40.73456c0.81671,3.01762 -5.88295,3.90552 -10.41858,3.59668c-5.45487,-0.38305 -6.47618,-1.93109 -5.95801,-3.88708c0.83858,-2.93311 4.47602,-34.90737 4.62057,-40.85636z" fill="#cae8de"/><path d="M316.85532,191.24095c0,0 -0.00773,0.55205 -0.02231,1.59481c-0.01373,0.98142 -0.03346,2.39222 -0.11881,4.10884c-0.08535,1.71662 -0.17415,3.67862 -0.26552,5.82462c-0.1527,2.14514 -0.30712,4.41297 -0.52287,6.67993c-0.21575,2.26696 -0.49286,4.53306 -0.7069,6.67735c-0.13726,1.04104 -0.27453,2.08209 -0.41093,3.06179c-0.1364,0.9797 -0.27195,1.89807 -0.40664,2.7551c-0.20803,1.7149 -0.47312,3.12227 -0.67087,4.10113c-0.1364,0.9797 -0.2668,1.53004 -0.2668,1.53004c0,0 0.06906,-0.55119 0.20546,-1.5309c0.1364,-0.9797 0.2788,-2.38878 0.54818,-4.10283c0.07335,-0.85789 0.2089,-1.77626 0.3453,-2.75597c0.1364,-0.9797 0.21233,-2.0216 0.34959,-3.06265c0.21403,-2.14429 0.49114,-4.4104 0.6447,-6.61687c0.21575,-2.26696 0.43152,-4.53393 0.58422,-6.67908c0.1527,-2.14514 0.30284,-4.10627 0.38819,-5.8229c0.23292,-3.49373 0.326,-5.76241 0.326,-5.76241z" fill="#ffffff"/><path d="M318.48786,232.43018c0,0 0.49072,0.00686 1.28983,-0.10466c0.79911,-0.11152 2.02761,-0.21704 3.38136,-0.50486c0.6773,-0.17457 1.41594,-0.3483 2.15715,-0.70603c0.37061,-0.17886 0.74122,-0.35775 1.05134,-0.5988c0.31012,-0.24106 0.56062,-0.60567 0.68846,-0.97199c0.06647,-0.36717 -0.05018,-0.79826 -0.166,-1.2907c-0.11668,-0.43108 -0.23249,-0.92351 -0.28781,-1.35375c-0.17114,-0.92266 -0.3423,-1.84531 -0.51259,-2.8293c-0.28009,-1.9058 -0.49885,-3.81073 -0.71933,-5.59299c-0.15913,-1.7814 -0.32,-3.44012 -0.42293,-4.85263c-0.20589,-2.82502 -0.30112,-4.78958 -0.30112,-4.78958c0,0 0.15742,1.90407 0.42466,4.72995c0.16429,1.41336 0.32514,3.07208 0.54562,4.85434c0.22048,1.78226 0.43924,3.6872 0.7202,5.53164c0.17114,0.92266 0.34144,1.90666 0.51344,2.76796c0.05533,0.43023 0.17114,0.92266 0.28781,1.35375c0.05791,0.24622 0.11668,0.43108 0.17458,0.67729c0.05791,0.24622 0.05448,0.49157 -0.01029,0.73607c-0.12954,0.48899 -0.44137,0.85275 -0.75236,1.15514c-0.37233,0.30154 -0.74293,0.48042 -1.11354,0.65928c-0.80168,0.29554 -1.54033,0.46927 -2.21763,0.64384c-1.41508,0.28697 -2.58136,0.332 -3.44097,0.38133c-0.79911,0.11152 -1.28984,0.10467 -1.28984,0.10467z" fill="#96b7c4"/></g><path d="M323.99849,184.96036c-0.00858,0.6134 -1.85732,1.20106 -4.61758,1.16245c-2.76026,-0.03861 -4.78099,-0.31228 -4.77241,-0.92566c0.00858,-0.6134 2.04477,-1.44382 4.86635,-1.40436c2.82158,0.03946 4.53222,0.55419 4.52364,1.16758z" fill="#b6cfd1"/><path d="M323.99849,184.96036c0,0 -0.00085,0.06133 -0.00172,0.12269c-0.00086,0.06133 -0.06391,0.18314 -0.18744,0.24278c-0.12354,0.05961 -0.24793,0.18059 -0.43281,0.23936c-0.18488,0.05876 -0.36974,0.11752 -0.61596,0.17543c-0.43108,0.11668 -0.984,0.17029 -1.59824,0.22305c-0.61425,0.05275 -1.22765,0.04417 -1.84189,0.09693c-0.6134,-0.00859 -1.22677,-0.01715 -1.83929,-0.08707c-0.6134,-0.00859 -1.10238,-0.13813 -1.59223,-0.20633c-0.42937,-0.006 -0.79568,-0.13384 -1.03933,-0.25994c-0.12181,-0.06305 -0.18229,-0.12525 -0.24192,-0.24879c-0.06047,-0.0622 0.00172,-0.12269 0.00172,-0.12269c0,0 -0.00085,0.06133 -0.00172,0.12269c0.06047,0.0622 0.12096,0.12438 0.24279,0.18744c0.30497,0.12698 0.67215,0.19344 1.10152,0.19944c0.48986,0.0682 1.0419,0.07592 1.59396,0.08364c0.55204,0.00773 1.16544,0.0163 1.84016,0.02575c0.6134,0.00859 1.22677,0.01715 1.84102,-0.0356c0.5529,-0.05361 1.10496,-0.04589 1.5974,-0.1617c0.43023,-0.05533 0.86132,-0.172 1.04704,-0.29211c0.12354,-0.05961 0.18573,-0.12011 0.18744,-0.24279z" fill="#96b7c4"/><path d="M314.51886,187.22047c0,0 0.24363,0.12611 0.54862,0.25308c0.36717,0.06647 0.79398,0.2565 1.28297,0.38604c0.2445,0.06477 0.48899,0.12955 0.67301,0.13212c0.2445,0.06477 0.42851,0.06733 0.61168,0.13125c0.18315,0.06391 0.30583,0.06562 0.4285,0.06734c0.12268,0.00172 0.18315,0.06391 0.18315,0.06391c0,0 -0.24621,0.05791 -0.61424,0.05275c-0.18402,-0.00257 -0.42938,-0.00601 -0.6134,-0.00858c-0.24535,-0.00344 -0.48985,-0.0682 -0.73435,-0.13298c-0.48899,-0.12954 -0.97629,-0.38176 -1.2804,-0.57007c-0.30411,-0.18831 -0.48557,-0.3749 -0.48557,-0.3749z" fill="#96b7c4"/><path d="M325.52339,185.5952c0,0 -0.00515,0.36804 -0.25736,0.85532c-0.1261,0.24363 -0.31442,0.54776 -0.56321,0.78969c-0.24879,0.24192 -0.55892,0.48298 -0.86818,0.66271c-0.30927,0.17973 -0.67901,0.29726 -0.98657,0.35431c-0.18488,0.05876 -0.30756,0.05704 -0.49158,0.05448c-0.18402,-0.00257 -0.30669,-0.00429 -0.42937,-0.00601c-0.24622,0.05791 -0.49071,-0.00686 -0.67473,-0.00943c-0.18402,-0.00257 -0.24535,-0.00344 -0.24535,-0.00344c0,0 0.06133,0.00085 0.24622,-0.05791c0.18402,0.00257 0.36889,-0.05619 0.61424,-0.05275c0.12268,0.00172 0.24621,-0.05791 0.43023,-0.05533c0.12354,-0.05961 0.30756,-0.05704 0.43109,-0.11668c0.18488,-0.05876 0.30839,-0.11839 0.49328,-0.17715c0.18488,-0.05876 0.3084,-0.11838 0.49415,-0.2385c0.12438,-0.12097 0.30926,-0.17973 0.43366,-0.30069c0.12438,-0.12097 0.24793,-0.18057 0.37233,-0.30154c0.24879,-0.24192 0.43538,-0.42337 0.56148,-0.667c0.31183,-0.36374 0.43966,-0.73006 0.43966,-0.73006z" fill="#96b7c4"/><path d="M314.36316,185.19371c0,0 -0.0622,0.06048 -0.06476,0.24451c-0.00086,0.06133 -0.00257,0.18402 0.05791,0.24621c0.05961,0.12354 0.18144,0.18658 0.30326,0.24965c0.12097,0.12438 0.24279,0.18744 0.36461,0.25051c0.12181,0.06305 0.30583,0.06562 0.48899,0.12954c0.36717,0.06647 0.73434,0.13298 1.10151,0.19945c0.18315,0.06391 0.36718,0.06648 0.5512,0.06906c0.18402,0.00257 0.36717,0.06649 0.55118,0.06906c0.36804,0.00516 0.73522,0.07162 0.98057,0.07506c0.61253,0.06991 0.98057,0.07506 0.98057,0.07506c0,0 -0.24621,0.05791 -0.86045,0.11067c-0.30669,-0.00429 -0.67473,-0.00943 -1.04276,-0.01458c-0.18402,-0.00257 -0.36804,-0.00516 -0.55204,-0.00773c-0.18315,-0.06391 -0.42851,-0.06734 -0.61254,-0.06991c-0.36717,-0.06647 -0.79568,-0.13384 -1.162,-0.26166c-0.18315,-0.06391 -0.36632,-0.12782 -0.48814,-0.19087c-0.18315,-0.06391 -0.30412,-0.18831 -0.42594,-0.25136c-0.12097,-0.12438 -0.24192,-0.24879 -0.24021,-0.37146c-0.05961,-0.12354 -0.05791,-0.24622 -0.05704,-0.30756c0.00257,-0.18402 0.12611,-0.24364 0.12611,-0.24364z" fill="#ffffff"/></g><path d="M203.4806,246.88393c-0.19624,0.68228 -0.54738,1.3584 -1.08029,2.00386c-2.16987,2.62814 -5.3993,2.24141 -7.70116,0.52594c-2.99887,-1.77161 -4.54397,-6.18631 -1.45935,-8.8106c0.91247,-1.11671 2.20128,-1.78772 3.58981,-1.99723c2.28994,-6.33152 4.08863,-12.83243 6.62655,-19.06878c0,0 0.94357,-2.3151 3.25867,-1.37155c2.3151,0.94356 1.37155,3.25866 1.37155,3.25866c-2.4532,6.00969 -4.20355,12.27618 -6.38108,18.3926c0.40567,0.29511 0.78705,0.64169 1.13444,1.04032c0.84491,0.96953 0.77682,2.45192 1.16521,3.67789c0,0 0.36632,1.40057 -0.52435,2.34889z" fill="#000000" stroke="none" stroke-width="0.5" stroke-linecap="butt"/><path d="M319.67076,205.95026c0.70932,0.02977 1.44918,0.21152 2.20213,0.57714c3.06581,1.48872 3.45173,4.71825 2.32763,7.3598c-1.01425,3.33214 -4.93993,5.87497 -8.21776,3.4964c-1.30043,-0.62332 -2.25651,-1.71748 -2.78763,-3.01741c-6.69301,-0.73186 -13.43475,-0.94638 -20.09377,-1.94168c0,0 -2.47234,-0.37086 -2.10149,-2.8432c0.37085,-2.47234 2.84319,-2.10149 2.84319,-2.10149c6.41877,0.96643 12.92131,1.18926 19.37877,1.86262c0.19109,-0.46383 0.43793,-0.9162 0.74337,-1.34781c0.74288,-1.04976 2.1995,-1.33325 3.29926,-1.99986c0,0 1.27465,-0.68635 2.4063,-0.0445z" fill="#000000" stroke="none" stroke-width="0.5" stroke-linecap="butt"/><path d="M252.10797,262.56773c5.30883,-3.20591 8.99818,-3.3249 14.98252,-1.34653c0.58231,1.74649 2.31623,3.4887 1.74695,5.23949c-1.65699,5.096 -10.14749,2.83695 -13.59717,2.71883c-2.01352,-0.06894 -6.75875,1.02662 -8.08325,-0.22654c-1.45582,-1.37741 0.3202,-9.6259 0.55882,-11.42557c0.77996,-5.88236 1.87178,-11.68944 3.04326,-17.48217c1.39682,1.02835 2.83303,1.99941 4.37682,2.77265c-0.70829,3.45421 -1.34434,6.92024 -1.80625,10.41011c0,0 -1.09934,8.29111 -1.17986,8.8984c-0.01932,0.14566 -0.03213,0.29307 -0.04184,0.44133z" fill="#000000" stroke="none" stroke-width="0.5" stroke-linecap="butt"/><path d="M221.14513,262.35101c5.30883,-3.20592 8.99818,-3.32489 14.98252,-1.34653c0.58231,1.74649 2.31622,3.4887 1.74695,5.23949c-1.65699,5.096 -10.14748,2.83695 -13.59716,2.71883c-2.01352,-0.06894 -6.75875,1.02663 -8.08325,-0.22653c-1.45582,-1.37741 0.3202,-9.62591 0.55882,-11.42558c0.77996,-5.88236 1.87178,-11.68944 3.04326,-17.48217c1.39682,1.02835 2.83304,1.99941 4.37682,2.77265c-0.70829,3.45421 -1.34434,6.92024 -1.80625,10.41011c0,0 -1.09934,8.29111 -1.17987,8.89841c-0.01932,0.14566 -0.03213,0.29307 -0.04184,0.44133z" fill="#000000" stroke="none" stroke-width="0.5" stroke-linecap="butt"/><g><path d="M230.9306,134.30156c-1.34592,1.92892 -4.69154,3.32534 -6.18918,4.78518c-4.43702,4.3251 -7.39247,4.9567 -13.72686,6.04163c-5.32624,0.91226 -11.24996,1.80899 -16.49164,-0.13005c-3.68915,-1.36471 -8.50247,-10.18833 -9.07585,-14.2161c-1.33378,-9.36921 14.34211,-12.29317 20.69739,-12.87267c2.58566,-0.23577 4.4212,-0.50018 6.99525,-0.76646c2.72275,-0.28166 5.4274,-0.49094 8.14549,-0.16563c3.06827,0.36722 5.27936,1.44038 7.54844,3.59568c0,0 4.23675,12.47404 2.93495,13.03955z" fill="#3cde00" stroke="#065114" stroke-width="3.5" stroke-linecap="butt"/><path d="M224.46633,137.03456l-3.21906,-11.96904c0,0 -0.53696,-3.12619 -4.97422,-2.60685c-27.59068,3.22923 -29.38463,7.19277 -29.38463,7.19277c0,0 -0.54625,-5.46296 7.07878,-7.85239c24.0246,-7.16529 28.67132,-2.95525 28.67132,-2.95525c0,0 1.09473,-0.41687 3.1326,7.40602c1.34978,5.18145 2.26954,9.19394 2.26954,9.19394z" fill="#30b300" stroke="#000000" stroke-width="0" stroke-linecap="round"/><path d="M237.17674,154.32099c-0.2463,0.28545 -0.61022,0.53326 -1.14209,0.68935c-2.17885,0.63943 -2.81828,-1.53942 -2.81828,-1.53942c-2.77381,-9.46692 -3.99303,-19.28651 -6.64378,-28.82325c-0.4586,-1.64992 -0.91883,-3.30057 -1.4515,-4.92809c-0.41168,-1.25786 -1.69242,-2.5877 -1.15722,-3.79819c0.70556,-1.59585 2.73468,-2.1794 4.21115,-3.10925c3.92745,-2.4734 8.60245,-3.39212 13.13959,-3.71112c2.27991,0.24888 5.07366,-0.91225 6.86024,0.52582c1.2856,1.03482 1.37408,3.04188 1.6446,4.6699c0.59354,3.57214 -1.04163,8.46374 -1.29295,12.07601c-0.45379,6.5222 0.1818,12.83594 -0.53519,19.36745c-0.08238,0.75047 -0.56145,5.73949 -0.92358,6.21646c-2.49567,3.2871 -5.67382,2.03963 -9.00294,2.34863z" fill="#de9400" stroke="#7a3509" stroke-width="3.5" stroke-linecap="butt"/><path d="M235.03779,111.70563l3.87744,39.52229l-5.41265,-1.01912c0,0 -2.81923,-15.58312 -3.77867,-19.42606c-1.54171,-6.17517 -4.16479,-14.02645 -4.16479,-14.02645c0,0 -0.38368,-0.73844 0.8631,-1.46185c6.13615,-3.56036 8.61557,-3.58879 8.61557,-3.58879z" fill="#b37700" stroke="#000000" stroke-width="0" stroke-linecap="round"/><path d="M199.31588,133.70709c0.43675,-1.04301 1.0812,-1.6309 1.87431,-1.99105c1.0263,-0.46603 2.30155,-0.5507 3.69792,-0.74668c2.23596,-0.31383 4.46268,-0.73113 6.64776,-1.29989c2.21841,-0.57744 8.06018,-2.33711 5.71997,2.75102c-0.52291,1.13693 -7.15901,2.41628 -7.72695,2.49908c-1.32044,0.1925 -2.64753,0.33853 -3.96643,0.54135c-0.50343,0.07742 -3.95404,1.09557 -4.39175,0.72886z" fill="#30b300" stroke="none" stroke-width="0.5" stroke-linecap="butt"/></g><g stroke-linecap="butt"><path d="M241.15974,146.08464c29.03664,0 52.57549,23.08618 52.57549,51.56442c0,28.47825 -23.53885,51.56443 -52.57549,51.56443c-29.03664,0 -52.57549,-23.0862 -52.57549,-51.56443c0,-28.47826 23.53885,-51.56442 52.57549,-51.56442z" fill="#ffa900" stroke="none" stroke-width="0"/><path d="M196.71344,225.89405c1.2788,-0.85253 2.20886,0.03864 2.50485,0.391c0.67356,-0.61701 1.66088,-0.41954 1.66088,-0.41954c6.12472,1.22494 12.18365,2.09792 18.39437,2.7675c2.89828,0.31247 5.89401,1.30095 8.83525,0.96441c8.39683,-0.96079 16.47002,-3.52936 23.48786,-8.23064c2.88852,-1.77756 5.66567,-3.8461 8.81082,-5.16339c4.04175,-1.69281 8.20787,-2.77469 12.08669,-4.91984c3.16152,-1.74845 6.35725,-3.91405 9.36163,-5.91508c2.39773,-1.59698 4.99177,-2.86451 7.73635,-3.88794c1.15225,-0.42967 2.38923,-1.52801 3.5306,-1.07024c0.83563,0.33514 1.19839,1.27168 1.51029,2.20189c-0.249,2.10554 -0.78149,6.89228 -0.90422,8.70092c-0.69136,0.81091 -1.21332,1.77062 -1.51118,2.82441c-0.18403,0.65111 -0.28251,1.33812 -0.28251,2.04812c0,0.02938 0.00018,0.05871 0.00051,0.088c-0.06725,0.27247 -0.15542,0.51733 -0.2771,0.72194c-0.96732,1.62674 -2.83965,2.20542 -3.77006,3.75613c-1.51232,2.52053 -2.28691,5.07097 -3.10466,7.87916c-0.29664,1.01869 -1.32388,2.22443 -1.15499,3.31479c0.02627,0.16963 0.06665,0.32818 0.11749,0.4779c-1.07754,0.95909 -2.30224,2.02698 -3.26318,2.9594c-1.17781,0.41402 -2.32857,0.8799 -3.40774,1.47667c-1.98772,1.09917 -3.49097,2.9973 -5.42715,4.2084c-3.42614,2.14309 -7.1124,4.07628 -10.82378,5.66584c-4.37671,1.64049 -8.23352,3.93055 -12.9345,4.62146c-4.83794,0.71105 -9.64445,-0.43231 -14.38812,-1.25784c-6.56258,-1.14209 -13.12742,-2.11843 -19.13341,-4.55929c-2.04441,-5.08818 -9.52898,-9.34382 -13.91897,-10.67735c-0.00521,-0.00158 -0.0104,-0.00316 -0.0156,-0.00475c-0.24006,-0.18792 -0.49184,-0.36153 -0.75405,-0.5196c-1.17028,-1.65996 -2.18238,-3.44619 -3.10364,-5.2878l-0.38378,-0.54951c0,0 -1.04205,-1.56308 0.52103,-2.60513z" fill="#ffbd38" stroke="none" stroke-width="0.5"/><path d="M187.81766,197.8685c0,-28.77714 23.7859,-52.10562 53.12729,-52.10562c29.34139,0 53.12729,23.32847 53.12729,52.10561c0,28.77714 -23.7859,52.10561 -53.12729,52.10561c-29.34139,0 -53.12729,-23.32848 -53.12729,-52.10561z" fill="none" stroke="#d38d00" stroke-width="5"/><path d="M244.08858,161.76032c5.00175,8.30333 -1.22764,21.63731 -13.91373,29.78229c-12.6861,8.14499 -27.02493,8.01663 -32.02667,-0.2867c-5.00175,-8.30333 1.22765,-21.63731 13.91374,-29.78229c12.68609,-8.14498 27.0249,-8.01663 32.02667,0.2867z" fill="#ffb600" stroke="none" stroke-width="0"/></g><path d="M276.3447,175.80706c0,2.8556 -3.47155,4.15278 -5.63978,2.52945c-0.22424,-0.16788 -0.41213,-0.39707 -0.53277,-0.64987c-0.97749,-2.04828 -0.30616,-4.53196 -0.3125,-6.80152c-0.00158,-0.5679 0.48737,-2.54275 1.30384,-2.58811c0.39132,-0.25403 0.85815,-0.40157 1.35944,-0.40157c1.22234,0 2.23978,0.87724 2.45711,2.0365c1.40583,1.40756 1.36467,2.43287 1.36467,5.87512z" fill="#000000" stroke="none" stroke-width="0.5" stroke-linecap="butt"/><path d="M260.99679,174.99068c0,2.8556 -3.47155,4.15278 -5.63978,2.52946c-0.22423,-0.16788 -0.41213,-0.39707 -0.53277,-0.64988c-0.9775,-2.04828 -0.30616,-4.53196 -0.3125,-6.80152c-0.00159,-0.5679 0.48737,-2.54275 1.30384,-2.58811c0.39131,-0.25403 0.85815,-0.40156 1.35943,-0.40156c1.22234,0 2.23978,0.87724 2.45711,2.03649c1.40583,1.40756 1.36467,2.43287 1.36467,5.87512z" fill="#000000" stroke="none" stroke-width="0.5" stroke-linecap="butt"/><path d="M277.29786,189.58795l-1.16631,2.65486c-0.50166,0.56305 -1.21142,0.99453 -1.50497,1.68916c-0.332,0.78562 0.04396,1.7554 -0.2835,2.54292c-0.8757,2.10604 -2.42393,3.87309 -3.4381,5.91606c-0.77211,1.71476 -1.1537,3.66616 -2.31633,5.14428c-1.72064,2.18754 -4.55255,2.91532 -6.98949,3.77993c-7.95248,2.82148 -17.29237,7.80197 -24.91225,1.50264c-9.59297,-7.93049 -5.08125,-26.76059 1.74828,-34.84162c0,0 1.62698,-1.89814 3.52512,-0.27116c0.21026,0.18023 0.37727,0.36378 0.50803,0.54771c0.39227,0.21487 0.63275,0.45536 0.63275,0.45536c5.00772,5.04779 12.48917,8.08514 19.53562,8.95291c3.33973,0.41129 7.95176,1.56763 10.10939,-1.45227l-0.11782,-0.19011c0,0 0.79057,-2.37171 3.16228,-1.58114l0.00001,-0.00001c2.37171,0.79057 1.58114,3.16228 1.58114,3.16228l-0.0121,0.02792c0.36592,0.96241 -0.06175,1.96029 -0.06175,1.96029z" fill="#000000" stroke="none" stroke-width="0.5" stroke-linecap="butt"/></g></g></svg>