<svg version="1.1" xmlns="http://www.w3.org/2000/svg" xmlns:xlink="http://www.w3.org/1999/xlink" width="488.16667" height="368.16667" viewBox="0,0,488.16667,368.16667"><g transform="translate(4.08333,4.08333)"><g data-paper-data="{&quot;isPaintingLayer&quot;:true}" stroke-linecap="butt" stroke-linejoin="miter" stroke-miterlimit="10" stroke-dasharray="" stroke-dashoffset="0" style="mix-blend-mode: normal"><path d="M-0.33332,360.33334v-360.66666h480.66667v360.66667z" fill="#ffffff" fill-rule="nonzero" stroke="#ffffff" stroke-width="7.5"/><g fill-rule="evenodd" stroke="none" stroke-width="1"><g><path d="M101.74006,88.46057c54.5059,-10.7764 98.27705,8.25332 122.10962,39.52214c29.17275,38.46794 33.02904,122.97904 -19.91817,139.29545c0.56359,4.84331 1.83882,25.26211 1.12424,39.34437l-16.42227,10.74674c-11.56034,-7.84685 -19.20484,-29.75898 -5.99947,-52.15014c-6.93299,-1.3939 -17.48155,-11.74523 -16.76665,-25.82755c1.44534,-26.42295 5.41213,-50.09199 -11.15594,-74.79172c-13.36723,-19.73963 -42.65912,-25.91297 -62.24688,-41.35722c-23.94957,-18.74577 -12.00584,-30.15646 9.27553,-34.78207z" fill="#272525"/><path d="M195.11967,311.28259c-6.23666,-2.38927 -14.11459,-9.14081 -14.69443,-15.72603c1.11124,-1.94044 9.85578,-33.13994 4.61428,-34.83217c-13.21936,-4.06502 -3.47793,-54.33931 -15.567,-83.3179c-16.66584,-40.09218 -54.40096,-43.03197 -72.95965,-64.18202c-10.18348,-11.57891 3.60087,-17.49894 7.83074,-18.24496c65.90092,-10.46009 98.39185,20.44485 112.98666,40.54955c19.17171,26.2756 16.69683,63.3471 9.49525,93.40227c-1.54343,6.08714 -6.1887,17.66441 -9.9544,22.69001c-6.23752,7.49663 -7.82985,8.35906 -17.26818,10.89593c-1.36026,0.53054 -4.48327,48.76532 -4.48327,48.76532z" fill="#fff63b"/><path d="M196.45232,252.89659c-0.21595,2.07316 -3.18506,1.72459 -2.9194,-0.06671c7.10515,-60.27633 -9.7256,-112.84219 -53.89456,-134.12743c-9.22198,-4.47942 -26.82012,-8.64471 -30.73462,-9.40812c-4.19662,-0.71332 -1.49239,-3.51631 2.37201,-3.03501c3.58293,0.53127 6.60175,1.16167 12.07506,2.52239c45.67965,11.71498 86.72986,36.74855 73.10151,144.1149z" fill="#272525"/></g><g><path d="M186.44101,253.16391c-6.38546,-3.2349 -12.86994,-16.92006 -7.063,-30.15567c10.78372,-24.58105 22.77844,-45.59551 16.24591,-74.39125c-5.2062,-22.92343 -30.35057,-38.55083 -43.35271,-59.51804c-15.58918,-25.74459 -0.21218,-32.52714 21.56608,-29.39005c54.58706,7.81761 88.78604,40.16575 100.01174,77.43756c13.61343,45.86457 -12.83394,126.70677 -68.40003,124.87677c-1.90818,7.31466 -14.70082,48.53197 -20.7717,48.73047c-16.75299,0.62868 -31.97615,-36.22906 1.7637,-57.58981z" fill="#272525"/><path d="M181.47696,300.85115c-6.70089,-1.7258 -12.30676,-7.13362 -8.14232,-19.78926c2.6546,-8.02789 21.20103,-28.16247 16.83889,-31.46393c-11.04632,-8.22815 16.02795,-52.54588 15.1685,-83.79566c-1.5383,-43.34183 -35.62292,-58.55566 -45.42334,-84.44865c-5.40608,-14.16596 9.50589,-15.34216 13.70225,-14.62845c65.16895,11.76655 84.70479,51.64353 91.23772,75.49615c8.43945,31.36671 -6.82374,65.16938 -24.27597,91.50783c-3.43381,5.25769 -11.91063,14.89406 -17.43446,18.19434c-8.37693,5.2573 -7.10042,10.84709 -16.85333,9.95053c-1.50945,-0.31537 -24.81794,38.9771 -24.81794,38.9771z" fill="#fff63b"/><path d="M203.46012,245.80113c-1.11158,1.9405 -3.66583,0.64656 -2.78674,-0.96231c28.15351,-54.68447 30.97856,-109.55418 -2.54015,-144.63862c-7.13154,-7.46511 -21.90959,-17.07016 -25.40924,-18.77897c-3.54975,-1.99095 0.59763,-6.50227 3.81541,-4.74375c3.21746,1.75858 7.9944,4.11433 12.30676,7.13362c38.71144,26.60923 65.57861,65.1932 14.61395,161.99004z" fill="#272525"/></g><g><path d="M215.02799,270.84536c-3.16761,-6.41944 -1.50763,-20.08686 9.19185,-28.66141c21.34929,-17.43097 38.30257,-31.76026 46.59879,-60.55434c6.42151,-22.93948 -3.87673,-46.7096 -5.00225,-71.22496c-1.22459,-30.02253 23.42331,-27.10093 41.05405,-14.50978c44.21787,31.45334 50.50005,73.66785 41.82161,111.83349c-10.62045,46.94009 -73.27519,107.12794 -121.0266,80.36865c-5.12596,5.55614 -36.27925,36.63709 -41.9518,34.14866c-14.89425,-6.96822 -9.15141,-46.94216 29.31434,-51.40033z" fill="#272525"/><path d="M187.92097,311.67967c-2.50409,-5.95487 -2.27106,-16.17236 2.62275,-21.39693c4.4293,-4.56071 20.38661,-14.64419 30.10712,-17.23082c-5.6717,-12.37431 39.56387,-42.74068 54.08017,-70.88735c19.87514,-38.97755 -2.43147,-68.18948 1.73437,-95.67349c2.30724,-14.94476 15.77528,-9.4698 19.19203,-6.58316c51.21669,39.81374 48.90679,84.41586 42.96598,108.43307c-7.79887,31.61399 -37.98932,54.96573 -65.80707,70.33897c-5.57354,3.01842 -17.81527,7.79415 -24.1183,8.32423c-10.0189,0.89482 -11.90962,0.06543 -19.77134,-4.94451c-1.60893,-0.87942 -38.93296,34.77906 -41.00572,29.62z" fill="#fff63b"/><path d="M234.25203,272.6885c-1.82449,1.194 -3.40023,-1.14507 -2.08969,-1.95746c51.25712,-35.78983 80.93581,-83.47457 68.40082,-129.81963c-2.58657,-9.72019 -10.77938,-24.84845 -13.11774,-28.21589c-2.3383,-3.36711 1.99099,-3.54941 3.71559,-0.36435c2.00674,3.13497 3.58214,5.47411 5.88727,10.30088c21.14444,40.75646 29.01883,87.05128 -62.79625,150.05646z" fill="#272525"/></g></g></g></g></svg>