<svg version="1.1" xmlns="http://www.w3.org/2000/svg" xmlns:xlink="http://www.w3.org/1999/xlink" width="480" height="360" viewBox="0,0,480,360"><g data-paper-data="{&quot;isPaintingLayer&quot;:true}" fill-rule="nonzero" stroke-linejoin="miter" stroke-miterlimit="10" stroke-dasharray="" stroke-dashoffset="0" style="mix-blend-mode: normal"><path d="M0,360v-360h480v360z" fill="#ffffff" stroke="none" stroke-width="0" stroke-linecap="butt"/><path d="M294.95425,322.14517c0,0 -4.81512,-12.73071 -4.74223,-20.85123c0.07848,-8.74414 5.85798,-24.59804 5.85798,-24.59804" data-paper-data="{&quot;index&quot;:null}" fill="none" stroke="#000000" stroke-width="3.5" stroke-linecap="round"/><path d="M327.63674,317.98989c0,0 -7.96706,-24.13734 -7.71273,-24.81971c5.06568,-6.10386 19.05944,-17.47 19.05944,-17.47" data-paper-data="{&quot;index&quot;:null}" fill="none" stroke="#000000" stroke-width="3.5" stroke-linecap="round"/><g><path d="M296.91619,199.06407l-57.51682,33.27377" data-paper-data="{&quot;index&quot;:null}" fill="none" stroke="#000000" stroke-width="3.5" stroke-linecap="round"/><g data-paper-data="{&quot;index&quot;:null}" fill="#500190" stroke="#2c0050" stroke-width="2.5" stroke-linecap="butt"><path d="M239.86948,239.95323c-1.50166,0.70973 -4.2738,-1.62373 -6.19173,-5.21197c-1.91794,-3.58826 -2.25544,-7.07244 -0.75376,-7.78216c1.50167,-0.70973 4.27378,1.62374 6.19176,5.21198c1.91794,3.58826 2.25539,7.07241 0.75374,7.78216z"/><path d="M236.25329,234.34887c1.91791,3.58823 2.2554,7.07241 0.75375,7.78215c-1.50166,0.70973 -4.27381,-1.62372 -6.19172,-5.21196c-1.91794,-3.58826 -2.25541,-7.07242 -0.75374,-7.78216c1.50166,-0.70973 4.2738,1.62374 6.19174,5.21196z"/><path d="M227.5802,237.96026c-1.91794,-3.5882 -2.25541,-7.07243 -0.75373,-7.78216c1.50166,-0.70973 4.27381,1.62374 6.19175,5.21196c1.91794,3.58826 2.25536,7.07241 0.75371,7.78218c-1.50167,0.70973 -4.27379,-1.62373 -6.19172,-5.21198z"/><path d="M236.95747,227.98905c0.54816,1.79271 -1.88645,3.81235 -5.43778,4.51098c-3.55136,0.6986 -6.87466,-0.18831 -7.42283,-1.98106c-0.54815,-1.79272 1.88643,-3.81235 5.43778,-4.511c3.55137,-0.69864 6.87467,0.18834 7.42284,1.98109z" data-paper-data="{&quot;index&quot;:null}"/></g></g><g stroke="none" stroke-linecap="butt"><path d="M290.03283,275.60965l-1.06052,-75.70907h52.17338l-0.38564,75.80298z" fill="#b78000" stroke-width="0"/><path d="M305.26491,224.97278c-0.54353,-0.56986 0.20463,-0.98384 0.20463,-0.98384l0.10097,-0.05331c3.69221,-2.38929 6.06669,-4.82204 7.27094,-8.09749c-0.78293,0.29323 -1.68591,0.52152 -2.70128,0.68077c-2.31262,0.52496 -8.00346,0.14558 -6.55022,-2.67724c1.4098,-2.73846 5.95962,-4.99086 9.79943,-5.95158c0.01951,-0.06075 0.05108,-0.12506 0.09733,-0.19292c0.4261,-0.62513 1.24683,-0.30058 1.24683,-0.30058l0.3203,0.129c0.01744,0.00564 0.03486,0.0113 0.05225,0.01696c0.16825,-0.01432 0.6597,-0.02463 0.91223,0.305c1.70036,0.58694 3.21309,1.22541 4.74807,2.14073c1.23778,0.86937 2.87175,1.69478 3.0947,3.11c0.28377,1.80123 -2.45101,5.17391 -5.11025,4.52205c1.46149,2.56949 3.0341,5.06245 5.23827,7.39391l0.6622,0.46064c0,0 0.6797,0.47759 0.05266,0.99529c-0.62703,0.5177 -1.30673,0.04011 -1.30673,0.04011l-0.79005,-0.5598c-3.26672,-3.39922 -5.20619,-7.15385 -7.34643,-10.99111c0,0 -0.15997,-0.28699 -0.01633,-0.56018c-0.03476,0.03402 -0.07025,0.06773 -0.10647,0.10106c-1.05288,4.42853 -3.79551,7.53952 -8.36884,10.50821l-0.21253,0.12017c0,0 -0.74815,0.41398 -1.29168,-0.15586zM313.41172,213.83002c0,0 0.09355,-0.44974 0.60497,-0.56871c0.28865,-0.381 0.45864,-0.8133 0.5195,-1.29873c-0.19216,-0.70833 -0.63445,-1.5432 -0.22358,-1.93952c-0.0171,-0.05733 -0.03506,-0.11514 -0.05388,-0.17342l0.10947,-0.13017l-0.09903,-0.01195l0.1232,-0.59233c-2.82149,0.59476 -4.51704,1.69531 -6.78231,3.29502c-0.64732,0.45712 -2.56253,1.49445 -2.54393,2.3003c0.01795,0.77771 4.07458,0.58389 4.6094,0.44498c1.71255,-0.26464 2.93514,-0.6913 3.72909,-1.29156c0.00237,-0.01129 0.00473,-0.02257 0.00709,-0.03387zM316.44043,211.53819c0.25439,0.94991 0.54797,1.89521 1.07928,2.82216c0.25574,0.44617 1.27979,1.96564 2.06032,2.03792c0.73139,0.06772 0.99626,-0.85675 1.22473,-1.17546c1.52449,-2.12664 1.06889,-2.54075 -1.23646,-4.16132c-1.10949,-0.66157 -2.20152,-1.15546 -3.37651,-1.59615l-0.07381,0.3549c0.20907,0.60732 0.31509,1.18075 0.32243,1.71795z" fill="#09b800" stroke-width="0.5"/><path d="M289.05809,275.93309v-75.94908h18.95258c-0.31796,6.76089 0.02414,13.51872 -0.44455,20.38611c-1.23305,18.06691 1.26376,37.11432 0.03071,55.66731z" fill="#6900b8" stroke-width="0"/><path d="M322.53582,275.93309c2.40915,-18.23994 2.12073,-35.82646 1.20906,-55.4586c-0.31928,-6.87553 -1.30494,-13.72959 -1.6229,-20.49047h18.95258c0,0 0,32.67637 0,46.40609c0,10.95473 0,29.543 0,29.543z" data-paper-data="{&quot;index&quot;:null}" fill="#6900b8" stroke-width="0"/><path d="M322.60875,202.4593l8.56987,-14.81753l7.49864,2.92177c0,0 3.95688,7.5621 3.80934,7.89621c-0.81564,1.84699 -19.87785,3.99956 -19.87785,3.99956z" fill="#6900b8" stroke-width="0"/><path d="M287.69052,198.14668c-0.14754,-0.33409 3.80935,-7.89621 3.80935,-7.89621l7.49864,-2.92177l8.56987,14.81752c0,0 -19.06223,-2.15257 -19.87786,-3.99956z" data-paper-data="{&quot;index&quot;:null}" fill="#6900b8" stroke-width="0"/><path d="M295.50649,200.37233l14.24741,-0.41739l-2.03534,75.65287z" fill="#510191" stroke-width="0"/><path d="M322.71607,275.71215l-1.71398,-75.65286l14.24741,0.41739z" data-paper-data="{&quot;index&quot;:null}" fill="#510090" stroke-width="0"/><path d="M296.08682,211.58981c0.07308,-0.31366 0.36105,-0.54782 0.70516,-0.54782c0.00336,0 0.00672,0.00002 0.01007,0.00006l-0.07619,-0.40823c-0.00932,-0.04514 -0.01422,-0.09184 -0.01422,-0.13966c0,-0.389 0.32373,-0.70436 0.72308,-0.70436c0.11357,0 0.22104,0.02551 0.31668,0.07096l0.03586,-0.27949c0.03989,-0.35225 0.34643,-0.62625 0.71869,-0.62625c0.22132,0 0.41944,0.09686 0.55207,0.24945l0.63968,0.72698l-0.18223,0.15216c0.13773,0.16366 0.26176,0.33041 0.37552,0.50135l0.03714,-0.3618c0.03238,-0.35982 0.34251,-0.64201 0.72029,-0.64201c0.39935,0 0.72308,0.31533 0.72308,0.70436v0.33434c0.03245,0.03131 0.06188,0.06558 0.0878,0.10239c0.10768,-0.06202 0.23331,-0.09761 0.36748,-0.09761c0.37224,0 0.6788,0.27401 0.71869,0.62625l0.10593,0.82553l-0.27129,0.03304c0.00061,0.01203 0.00113,0.02397 0.00156,0.03587l0.66562,-0.14409c0.05516,-0.01312 0.11278,-0.02007 0.17208,-0.02007c0.39935,0 0.72308,0.31533 0.72308,0.70436c0,0.02177 -0.00101,0.0433 -0.003,0.06457l0.81831,0.31886c0.27463,0.09988 0.47018,0.35772 0.47018,0.66006c0,0.35873 -0.27531,0.65483 -0.63135,0.69873l-0.73934,0.10289c-0.26184,0.03643 -0.51043,0.06927 -0.74947,0.09781c0.12233,0.13684 0.22876,0.27124 0.32803,0.42054l0.1248,-0.10131l0.53258,0.62254c0.10646,0.12267 0.17063,0.28127 0.17063,0.45447c0,0.14082 -0.04242,0.27198 -0.1155,0.38202c0.49997,0.96888 0.64481,1.96967 -0.02671,2.25802c-0.41707,0.1791 -1.02289,-0.2897 -1.60063,-0.94181c0.04331,0.23569 0.08444,0.47179 0.12882,0.70728l-0.00626,0.02973l0.00982,-0.00097l0.10616,1.03407c0.00301,0.0261 0.00456,0.05262 0.00456,0.07951c0,0.389 -0.32373,0.70436 -0.72308,0.70436c-0.26801,0 -0.50196,-0.14203 -0.62685,-0.35303l-0.63592,-1.03242l0.16552,-0.09674c-0.26112,-0.34671 -0.49052,-0.70035 -0.70019,-1.06939l-0.07387,0.25183c-0.08114,0.30254 -0.36362,0.52582 -0.69965,0.52582c-0.2221,0 -0.42082,-0.09755 -0.55347,-0.25104c-0.88101,1.06425 -2.05574,2.08712 -2.50812,2.4885l-0.0188,0.00653l0.00441,0.00525l-0.63987,0.51008c-0.12529,0.10146 -0.28631,0.16247 -0.46196,0.16247c-0.39935,0 -0.72308,-0.31533 -0.72308,-0.70436c0,-0.10732 0.02463,-0.20903 0.0687,-0.30005l0.42211,-0.92515l0.03983,0.01723c0.0841,-0.50365 0.18082,-1.00248 0.29335,-1.49719l-1.05,0.51139c-0.10048,0.05153 -0.21493,0.0807 -0.33638,0.0807c-0.39935,0 -0.72308,-0.31533 -0.72308,-0.70436c0,-0.15564 0.05182,-0.2995 0.13957,-0.41607l0.53072,-0.72377l0.211,0.1468c0.43881,-0.62569 0.97265,-1.05554 1.59725,-1.51608c-0.11893,-0.11919 -0.23511,-0.24348 -0.34785,-0.37091c-0.16866,0.0026 -0.33603,0.01199 -0.49936,0.03473l-0.05126,-0.02087v0.02264h-0.85699c-0.39935,0 -0.72308,-0.31533 -0.72308,-0.70436c0,-0.36561 0.28596,-0.66616 0.6519,-0.70098l0.09281,-0.01004l-0.2527,-0.29539c-0.10646,-0.12267 -0.17064,-0.28127 -0.17064,-0.45447c0,-0.11245 0.02705,-0.21874 0.07516,-0.31305c-0.04811,-0.0943 -0.07516,-0.20061 -0.07516,-0.31306c0,-0.389 0.32373,-0.70436 0.72308,-0.70436c0.15978,0 0.30745,0.05049 0.42713,0.13595l0.695,0.48357c0.0807,0.03314 0.18305,0.07405 0.30211,0.12202c0.05275,-0.0338 0.11031,-0.06105 0.17148,-0.08058zM295.39905,217.98938l-0.00804,0.00152l0.00532,0.01038c0.00091,-0.00397 0.00181,-0.00794 0.00272,-0.01192zM297.11987,217.83114c0.04628,-0.06127 0.0922,-0.12272 0.13784,-0.18426c-0.02776,-0.0068 -0.05488,-0.01517 -0.08125,-0.025c-0.01858,0.07008 -0.03744,0.13989 -0.05659,0.20926z" fill="#a455b8" stroke-width="0.5"/><path d="M294.78346,213.62462c0,-0.70436 0.72308,-0.70436 0.72308,-0.70436h0.21424c0.2626,0 0.77349,-0.03019 1.30665,-0.031c0.00387,-0.17789 0.00701,-0.366 0.00742,-0.56678l0.02548,-0.04689l-0.02003,-0.0028l0.10563,-0.72019c0.04508,-0.34682 0.34905,-0.615 0.71732,-0.615c0.31594,0 0.58455,0.19737 0.68297,0.47243l0.00911,0.02367c0.12842,-0.11374 0.29904,-0.18305 0.48628,-0.18305c0.00319,0 0.00638,0.00002 0.00957,0.00005c0.31359,-0.11766 0.69224,-0.04192 1.15215,0.33408c0.11008,0.08999 0.20523,0.18088 0.28664,0.27185c0.1313,-0.17743 0.34529,-0.29293 0.58698,-0.29293c0.39935,0 0.72308,0.31533 0.72308,0.70436c0,0.02978 -0.0019,0.05914 -0.00558,0.08795l-0.10597,0.92897l-0.05998,-0.0065c-0.00406,0.09691 -0.01647,0.19338 -0.03962,0.28927c0.66232,0.07893 1.24361,0.33045 1.34512,0.75298c0.22931,0.95451 -0.01245,1.36995 -0.38742,1.48604c0.1432,0.04902 0.28604,0.10607 0.42861,0.17191l0.1391,-0.27101l0.84298,0.41056c0.24459,0.11295 0.41372,0.35564 0.41372,0.63682c0,0.389 -0.32373,0.70436 -0.72308,0.70436h-0.74987v-0.03607l-0.08835,0.03079c-0.42193,-0.10483 -0.97736,-0.20129 -1.45632,-0.40704c-0.13017,0.18592 -0.34936,0.30797 -0.59781,0.30797c-0.27726,0 -0.51808,-0.15201 -0.63941,-0.37515c-1.38088,0.19532 -2.65132,0.71408 -4.01811,0.98322l-0.8289,0.20186c-0.06087,0.01621 -0.12495,0.02486 -0.19111,0.02486c-0.39935,0 -0.72308,-0.31533 -0.72308,-0.70436c0,-0.23336 0.11651,-0.44023 0.29596,-0.5684l0.85025,-0.62118l0.13651,0.1773c0.22529,-0.1931 0.45533,-0.3676 0.69365,-0.53418c-0.09724,-0.11994 -0.15528,-0.27146 -0.15528,-0.43617c0,-0.148 0.04687,-0.28535 0.12693,-0.39871l0.27461,-0.40124l-0.26531,-0.16153c-0.08074,-0.04739 -0.15119,-0.10969 -0.20734,-0.18302c-0.16889,-0.01484 -0.30783,-0.02942 -0.38415,-0.02942h-0.21424c0,0 -0.72308,0 -0.72308,-0.70436z" fill="#af5ac4" stroke-width="0.5"/><path d="M301.20592,214.94556c-0.14681,0.33368 -0.39449,0.42167 -0.60008,0.4286c-0.10608,0.1534 -0.27249,0.26392 -0.46611,0.29926c-0.01648,0.18136 -0.0364,0.3624 -0.05928,0.54293c0,0 -0.08969,0.69891 -0.80719,0.61155c-0.5424,-0.06605 -0.62351,-0.48156 -0.6308,-0.68044c-0.19818,-0.08531 -0.34962,-0.25481 -0.40656,-0.46195h-0.58694c-0.39935,0 -0.72308,-0.31533 -0.72308,-0.70436c0,-0.26669 0.15216,-0.49876 0.37651,-0.61833l0.73768,-0.41061l0.18254,0.31117c0.01251,-0.00608 0.02496,-0.01208 0.03736,-0.01799l0.06291,-0.49017c0.00682,-0.06024 0.02144,-0.11818 0.04285,-0.17287l-0.12884,-0.50203c-0.01664,-0.0593 -0.02553,-0.12172 -0.02553,-0.18615c0,-0.389 0.32373,-0.70436 0.72308,-0.70436c0.19968,0 0.38045,0.07884 0.5113,0.2063l0.64274,0.62609l-0.01831,0.01784l0.06621,0.03367c0.11285,0.28993 0.36805,0.57912 0.49252,0.86897l0.19725,0.07801c0,0 0.66461,0.27745 0.37977,0.92486z" fill="#be62d5" stroke-width="0.5"/></g><path d="M315.39252,112.3083c21.36493,0 38.68463,16.81323 38.68463,37.55337c0,20.74016 -17.31969,37.55338 -38.68463,37.55338c-21.36493,0 -38.68463,-16.81324 -38.68463,-37.55338c0,-20.74016 17.31969,-37.55337 38.68463,-37.55337z" fill="#e0e0e0" stroke="#000000" stroke-width="0.5" stroke-linecap="butt"/><path d="M279.61915,163.57602c0.19291,0.39526 0.37431,0.79635 0.5418,1.20444c0.06078,0.14809 1.14096,3.5544 1.06555,3.86671c-0.02435,0.10088 -0.05255,0.20043 -0.08409,0.29879l0.05642,0.011l-0.38039,1.85268c-0.1214,0.65842 -0.71248,1.15804 -1.42334,1.15804c-0.60817,0 -1.12865,-0.36569 -1.34237,-0.88364l-0.56534,-1.28495l0.05348,-0.02233l-0.10532,-0.11475c-0.32284,-1.54469 -0.51559,-3.08871 -0.61398,-4.63288c-1.01338,0.13938 -1.45522,-0.86487 -1.45522,-0.86487c-0.16221,-0.3719 -0.33819,-0.73712 -0.52479,-1.09719c-0.14445,0.04716 -0.29908,0.0727 -0.45983,0.0727c-0.66558,0 -1.22615,-0.43799 -1.39451,-1.03423l-0.56913,-1.84796l0.01061,-0.0031l-0.01988,-0.02836c-0.19167,-0.74822 -0.37305,-1.39925 -0.53587,-2.00013c-0.37756,-0.60302 -0.74232,-1.21215 -1.07731,-1.83559c-3.90126,-7.26054 -6.79662,-17.02819 -5.7546,-25.26216l0.19282,-1.50263l0.43827,0.05337l0.52739,-1.21111c0.36897,0.23959 0.76278,0.45125 1.1561,0.66348l0.33583,-0.32713l1.54258,1.50263l-0.02818,0.02746c0.08561,0.07848 0.16815,0.16039 0.24715,0.24628c0.53146,0.57786 0.50626,1.47166 0.72833,2.21672c0.01034,0.03466 0.0207,0.0693 0.03111,0.10393c0.3217,0.01553 0.61575,0.13347 0.84848,0.32103c0.12601,-0.42646 0.25618,-0.86662 0.3767,-1.32738c1.28952,-4.93069 3.63397,-9.18279 5.70035,-13.80726l0.06365,-0.05345l-0.02622,-0.01459l0.75736,-1.29106c0.18246,-0.32484 0.49247,-0.57199 0.86442,-0.67751c0.08034,-0.17244 0.15742,-0.3427 0.22996,-0.51049c1.85692,-4.2953 3.67124,-8.55817 6.00224,-12.64077l0.54344,-1.2352c0.21371,-0.51794 0.7342,-0.88363 1.34237,-0.88363c0.46406,0 0.87707,0.21291 1.14169,0.54393c1.20609,-3.23994 10.17791,-12.98515 10.17791,-12.98515c0,0 1.85012,8.54403 2.18371,9.96824c0.30886,-1.15197 0.88984,-2.24633 1.41555,-3.44253c1.73201,-3.94109 7.64133,-13.80643 7.64133,-13.80643c0,0 1.80348,8.80022 1.82987,11.26648c1.5327,-3.8245 7.85348,-13.46572 7.85348,-13.46572l4.44892,19.5068l4.76429,-11.10924l0.4201,6.99243c1.63346,6.23183 -0.08131,5.74908 1.27857,12.12317c0.05572,0.26114 0.57277,1.63917 0.95211,3.01625c0.12679,-1.23282 0.36133,-4.00286 1.46525,-4.19707c4.01465,-0.70633 6.28801,6.53749 7.43224,9.02587c1.52133,3.59904 2.78061,7.30413 4.35291,10.88203c0.42137,0.95888 1.40894,2.3694 1.9368,3.7226c-0.00048,-0.04977 -0.00109,-0.09953 -0.00194,-0.14925c-0.02742,-1.60898 0.08149,-3.21856 0.19881,-4.82369l0.01266,-0.02651l-0.0098,-0.00106l0.19089,-1.67357c0.07152,-0.71292 0.68859,-1.27003 1.43925,-1.27003c0.60122,0 1.11676,0.35738 1.33493,0.86598l0.75788,1.66106l-0.37582,0.1627c3.56596,6.12105 3.93128,14.91637 5.28908,21.52715l0.37638,1.64984c0.02693,0.10744 0.04121,0.21972 0.04121,0.33526c0,0.77801 -0.64748,1.4087 -1.44617,1.4087c-0.2429,0 -0.47181,-0.05832 -0.67277,-0.1614l-0.87347,-0.42544c-0.4006,0.78335 0.05546,3.82917 0.08825,4.06978c0.64636,4.74017 1.41675,9.47127 2.11069,14.20712l0.37388,1.82098c0.02222,0.09816 0.03394,0.20014 0.03394,0.3048c0,0.77801 -0.64748,1.4087 -1.44617,1.4087c-0.44265,0 -0.83885,-0.19372 -1.10413,-0.49889l-0.59537,-0.67661c-0.26068,0.36962 -0.6977,0.61201 -1.19284,0.61201c-0.72588,0 -1.32685,-0.52095 -1.43039,-1.19996l-0.38173,-2.23109l0.00629,-0.00102c-0.00363,-0.00912 -0.00724,-0.01824 -0.01085,-0.02737c-0.6054,-1.53459 -0.21754,-3.22186 -1.15569,-4.7326c-1.88495,-3.03539 -3.11517,-6.0872 -3.79763,-9.68017c-1.14972,-6.05297 -1.72494,-12.62989 -3.93613,-18.55295c-2.79759,-1.5681 -5.38746,-3.46413 -8.52621,-4.61877c-4.30763,-1.58464 -9.03257,-2.95071 -13.86043,-3.9696c-3.53387,0.9276 -7.23132,1.3423 -10.88442,1.80231c-4.967,0.62547 -9.90679,1.46303 -14.8535,2.24341c-1.26403,2.17618 -2.79715,4.20885 -4.10199,6.59894c-2.19989,4.02957 -3.11846,8.71875 -3.10889,13.23826v1.50263c0,0.77801 -0.64748,1.4087 -1.44617,1.4087c-0.72588,0 -1.32685,-0.52095 -1.43039,-1.19996l-0.38173,-2.23109l0.25901,-0.04205c-0.2369,-0.60064 -0.44717,-1.19839 -0.63882,-1.80066c-0.17398,1.10853 -0.36096,2.12369 -0.41512,2.84232c-0.37818,5.01884 -1.18278,10.06358 -1.02534,15.07651zM268.48528,139.77865c0.00033,0.01752 0.00067,0.03505 0.00104,0.05259c0.00485,-0.00257 0.00972,-0.00509 0.01461,-0.00761c-0.00524,-0.01499 -0.01045,-0.02998 -0.01565,-0.04497zM352.30672,169.69687c0.01742,0.00366 0.03484,0.00731 0.05226,0.01097c-0.00591,-0.03472 -0.01185,-0.06945 -0.01781,-0.10421c-0.01096,0.03116 -0.02244,0.06224 -0.03446,0.09325z" fill="#00cc24" stroke="#000000" stroke-width="0.5" stroke-linecap="butt"/><path d="M260.21245,148.85596l3.49467,-3.93406l17.86835,-2.56239l-14.49594,-2.83294l2.42603,-2.04552l23.21833,4.31199z" fill="#000000" stroke="#000000" stroke-width="0.5" stroke-linecap="butt"/><path d="M319.69345,142.82566l22.97657,-5.45544l2.52426,1.92298l-14.33803,3.54667l17.97325,1.67522l3.68503,3.75634z" data-paper-data="{&quot;index&quot;:null}" fill="#000000" stroke="#000000" stroke-width="0.5" stroke-linecap="butt"/><path d="M316.31165,161.15006c0.52915,1.18202 -0.52915,1.77301 -0.52915,1.77301l-0.69792,0.30551c-2.38801,0.32879 -4.71174,0.26146 -7.10332,0.70537c-1.87729,0.15745 -4.07637,0.56134 -5.6486,-1.0161c-2.59106,-2.59964 -3.71112,-7.59896 0.14481,-9.43755c2.24321,-1.0696 5.37743,-1.01507 7.75198,-0.62175c0.73205,0.12126 1.47556,0.85858 2.16387,0.55489c0.21249,-0.09376 1.09147,-4.72397 1.23885,-5.38436c0,0 0.28698,-1.28207 1.43488,-0.96156c1.1479,0.32052 0.86092,1.60258 0.86092,1.60258c-0.35953,1.60182 -0.88916,6.08983 -2.23193,6.94986c-1.23942,0.79383 -2.6203,0.05533 -3.83112,-0.14992c-1.77766,-0.30135 -3.37121,-0.13869 -5.13966,0.17301c-0.56838,0.10018 -2.34292,0.40244 -2.53932,1.37551c-0.13553,0.67151 0.63867,2.09517 0.83191,2.46039c1.23344,2.33125 2.4101,2.0315 4.67789,1.83123c2.38634,-0.44552 4.71699,-0.36707 7.09535,-0.70427l-0.06687,-0.04689c0,0 1.0583,-0.591 1.58746,0.591z" fill="#878787" stroke="none" stroke-width="0.5" stroke-linecap="butt"/><path d="M336.17655,174.69611c-0.31623,-0.94868 0.63246,-1.26491 0.63246,-1.26491l-0.01588,0.11658c2.41644,-2.02124 -0.97035,-5.29805 -2.62413,-6.47916c0,0 -0.81373,-0.58124 -0.2325,-1.39497c0.58124,-0.81373 1.39497,-0.2325 1.39497,-0.2325c2.97418,2.12469 5.92611,6.16984 2.87587,9.52084l-0.76588,0.36658c0,0 -0.94868,0.31623 -1.26491,-0.63246z" fill="#878686" stroke="none" stroke-width="0.5" stroke-linecap="butt"/><path d="M298.98645,177.29428c-0.1644,0.98639 -1.15079,0.82199 -1.15079,0.82199l-0.84872,-0.14663c-5.40338,-1.47866 -6.49311,-3.65836 -5.07665,-8.85288c0,0 0.26312,-0.96476 1.22788,-0.70165c0.96476,0.26312 0.70165,1.22788 0.70165,1.22788c-1.14627,4.20233 -0.7674,5.19042 3.67335,6.39712l0.65128,0.10337c0,0 0.98639,0.1644 0.82199,1.15079z" fill="#878686" stroke="none" stroke-width="0.5" stroke-linecap="butt"/><path d="M331.11431,170.30678c0.13962,0.7983 -0.69809,0.93135 -0.69809,0.93135l-0.77657,0.11218c-2.76315,0 -5.57422,0.7731 -8.33671,1.09905c-6.12794,1.45504 -12.99486,0.75987 -19.27679,1.42511c0,0 -0.84407,0.08937 -0.93786,-0.71499c-0.09378,-0.80436 0.75028,-0.89374 0.75028,-0.89374c6.23091,-0.65967 13.0778,0.04469 19.15248,-1.40748c2.86383,-0.34423 5.77937,-1.12656 8.6486,-1.12656l0.49733,-0.09015c0,0 0.83771,-0.13305 0.97733,0.66525z" fill="#8a0000" stroke="#670000" stroke-width="2.5" stroke-linecap="butt"/><path d="M343.00012,152.2757c0,3.58985 -5.07411,6.5 -11.33333,6.5c-6.25923,0 -11.33333,-2.91015 -11.33333,-6.5c0,-3.58985 5.07411,-6.5 11.33333,-6.5c6.25923,0 11.33333,2.91015 11.33333,6.5z" fill="#dca922" stroke="#000000" stroke-width="0.5" stroke-linecap="butt"/><path d="M295.6667,151.60905c0,3.58985 -5.07411,6.5 -11.33333,6.5c-6.25923,0 -11.33333,-2.91015 -11.33333,-6.5c0,-3.58985 5.07411,-6.5 11.33333,-6.5c6.25923,0 11.33333,2.91015 11.33333,6.5z" fill="#dca922" stroke="#000000" stroke-width="0.5" stroke-linecap="butt"/><g><path d="M337.61705,203.61979l-63.18193,-20.57606" fill="none" stroke="#000000" stroke-width="3.5" stroke-linecap="round"/><g data-paper-data="{&quot;index&quot;:null}" fill="#500190" stroke="#2c0050" stroke-width="2.5" stroke-linecap="butt"><path d="M273.31012,175.49724c1.61647,0.38172 2.0115,3.85984 0.88225,7.76864c-1.12925,3.90881 -3.35508,6.76806 -4.97158,6.38638c-1.61647,-0.38171 -2.01147,-3.85984 -0.88224,-7.76864c1.12923,-3.90881 3.35508,-6.76809 4.97157,-6.3864z"/><path d="M270.9394,181.73144c-1.12925,3.90881 -3.35509,6.76805 -4.97158,6.38638c-1.61647,-0.38171 -2.01147,-3.85984 -0.88224,-7.76864c1.12925,-3.90881 3.35508,-6.76808 4.97158,-6.38638c1.61646,0.38173 2.01146,3.85985 0.88225,7.76864z"/><path d="M266.67625,173.6176c1.61647,0.38175 2.01149,3.85984 0.88224,7.76866c-1.12924,3.90879 -3.3551,6.76809 -4.97158,6.38638c-1.61647,-0.38171 -2.01149,-3.85988 -0.88224,-7.76865c1.12923,-3.90881 3.3551,-6.76809 4.97158,-6.38638z"/><path d="M272.95167,187.8055c-0.16308,1.86755 -3.22906,3.42669 -6.84807,3.48241c-3.61898,0.05572 -6.42057,-1.41307 -6.25748,-3.2806c0.1631,-1.86756 3.22906,-3.42668 6.84807,-3.48238c3.61898,-0.05572 6.42056,1.41308 6.25749,3.28061z" data-paper-data="{&quot;index&quot;:null}"/></g></g><g data-paper-data="{&quot;index&quot;:null}" stroke="#2c0050" stroke-width="3.5" stroke-linecap="butt"><path d="M322.60546,343.21066c0,0 -2.07799,-4.16808 -2.81448,-6.48601c-0.6701,-2.10901 6.7723,-3.98771 6.24546,-5.6458c-1.10585,-3.48045 -4.54251,-11.13404 -4.54251,-11.13404l14.69287,-5.15189l6.34822,22.35204z" fill="#500190"/><path d="M320.35607,319.59406c-0.56712,-1.78489 2.36989,-5.06355 6.82557,-6.54255c2.26024,-0.75025 5.29187,-4.64287 6.94718,-4.52915c1.60788,0.11046 2.18395,5.19794 2.46335,6.07743c0.56712,1.78489 -2.58518,4.43081 -7.04086,5.90985c-4.45565,1.479 -8.52745,1.23102 -9.09455,-0.55391z" fill="#979025"/></g><g data-paper-data="{&quot;index&quot;:null}" stroke="#2c0050" stroke-width="3.5" stroke-linecap="butt"><path d="M287.50841,349.06432c0,0 -2.11933,-4.14721 -2.8788,-6.45771c-0.69103,-2.10224 6.73232,-4.05482 6.18903,-5.7076c-1.1404,-3.46929 -4.65297,-11.08831 -4.65297,-11.08831l14.64094,-5.29771l6.57008,22.28783z" fill="#500190"/><path d="M285.02439,325.47123c-0.58483,-1.77918 2.31943,-5.08685 6.7602,-6.61009c2.25265,-0.77267 5.24546,-4.69523 6.90182,-4.59798c1.6089,0.09449 2.23551,5.17597 2.52365,6.05264c0.58483,1.77918 -2.54102,4.45629 -6.98176,5.97953c-4.44074,1.52321 -8.51478,1.31572 -9.09961,-0.46348z" fill="#979025"/></g><path d="M147.12464,270.1959c0,0 5.7795,15.8539 5.85798,24.59804c0.07289,8.12052 -4.74223,20.85123 -4.74223,20.85123" fill="none" stroke="#000000" stroke-width="3.5" stroke-linecap="round"/><path d="M104.2112,269.20018c0,0 13.99376,11.36614 19.05944,17.47c0.25433,0.68237 -7.71273,24.81971 -7.71273,24.81971" fill="none" stroke="#000000" stroke-width="3.5" stroke-linecap="round"/><g data-paper-data="{&quot;index&quot;:null}" stroke="#121312" stroke-width="3.5" stroke-linecap="butt"><path d="M99.31011,333.3377l7.63057,-20.74686l14.85386,6.30668c0,0 -3.91145,6.98475 -5.22029,10.20419c-0.36578,0.89975 2.39321,2.24851 4.32149,3.50637c1.35876,0.88634 2.14971,1.66833 1.82187,2.47474c-0.87167,2.14406 -3.21408,5.92843 -3.21408,5.92843z" fill="#383838"/><path d="M122.86046,319.00579c-0.67122,1.65105 -4.8703,1.50359 -9.3789,-0.32934c-4.50862,-1.83294 -7.61942,-4.65726 -6.94821,-6.30832c0.33073,-0.81353 1.17411,-5.61764 2.83286,-5.5714c1.7077,0.04761 4.63291,4.05115 6.92001,4.98094c4.50862,1.83294 7.24546,5.57708 6.57426,7.22814z" fill="#979025"/></g><g stroke="#121312" stroke-width="3.5" stroke-linecap="butt"><path d="M130.78873,339.51481l7.5395,-20.78012l14.88139,6.24148c0,0 -3.88078,7.00181 -5.17547,10.22699c-0.6168,1.53647 6.95405,3.99982 6.16952,5.95411c-0.86225,2.14786 -3.18801,5.94249 -3.18801,5.94249z" fill="#383838"/><path d="M154.27598,325.07973c-0.66397,1.65396 -4.86363,1.52492 -9.38025,-0.28822c-4.5166,-1.81313 -7.6398,-4.6238 -6.97582,-6.27776c0.32715,-0.81497 1.14946,-5.62274 2.8084,-5.58377c1.70788,0.04013 4.65066,4.03076 6.94178,4.95052c4.5166,1.81313 7.26986,5.54526 6.6059,7.19923z" fill="#979025"/></g><g><path d="M206.68794,227.17639l-55.44946,-25.02346" data-paper-data="{&quot;index&quot;:null}" fill="none" stroke="#383838" stroke-width="3.5" stroke-linecap="round"/><g data-paper-data="{&quot;index&quot;:null}" fill="#393839" stroke="#131313" stroke-width="2.5" stroke-linecap="butt"><path d="M206.24804,227.06577c2.90322,-3.18601 6.43366,-4.63881 7.88546,-3.24491c1.4518,1.3939 0.27521,5.10665 -2.62801,8.29268c-2.90322,3.18601 -6.43366,4.63881 -7.88546,3.24491c-1.4518,-1.3939 -0.27521,-5.10665 2.62801,-8.29268z"/><path d="M208.82292,230.63424c2.90322,-3.18601 6.43366,-4.63881 7.88546,-3.24491c1.4518,1.3939 0.27521,5.10665 -2.62801,8.29268c-2.90322,3.18601 -6.43366,4.63881 -7.88546,3.24491c-1.4518,-1.3939 -0.27521,-5.10665 2.62801,-8.29267z"/><path d="M212.06442,233.09819c2.90322,-3.18601 6.43366,-4.63881 7.88546,-3.24491c1.4518,1.3939 0.2752,5.10667 -2.62801,8.29268c-2.90322,3.18601 -6.43366,4.63881 -7.88546,3.24491c-1.4518,-1.3939 -0.27521,-5.10665 2.62801,-8.29268z"/><path d="M209.5487,223.32116c1.0088,-1.75827 4.79531,-1.38899 8.45744,0.82484c3.66211,2.21382 5.81308,5.43382 4.80429,7.19211c-1.0088,1.75827 -4.79531,1.38897 -8.45744,-0.82484c-3.66211,-2.21382 -5.81308,-5.43382 -4.80429,-7.19208z" data-paper-data="{&quot;index&quot;:null}"/></g></g><g stroke="none" stroke-width="0" stroke-linecap="butt"><path d="M99.39383,271.07498v-77.7162h54.11557v77.7162z" fill="#000000"/><path d="M99.31052,262.24723v-8.15383h54.11557v8.15383z" fill="#a17f00"/><g fill="#ca9e00"><path d="M120.94875,262.24523v-13.50478h3.55972v13.50478z"/><path d="M121.68557,262.35892v-7.64422h10.35556v7.64422z"/><path d="M129.20081,259.69714v-11.46632h2.9125v11.46632z"/><path d="M129.56563,257.95993v-3.06972h15.66664l-1.94931,6.5942c0,0 -0.76046,-4.49532 -3.0715,-3.7319c-2.49998,0.82584 -2.79143,2.93605 -4.29254,2.93605c-0.54892,0 -0.41234,-2.18475 -1.26289,-2.53554c-0.8012,-0.33044 -1.08222,2.42055 -1.98558,2.42755c-1.29357,0.01002 -3.10482,-2.62065 -3.10482,-2.62065z"/><path d="M121.09243,260.53989c-0.90336,-0.007 -1.18438,-2.75798 -1.98558,-2.42755c-0.85055,0.3508 -0.71397,2.53553 -1.26289,2.53553c-1.50111,0 -1.79256,-2.11022 -4.29255,-2.93605c-2.31104,-0.76342 -3.0715,3.7319 -3.0715,3.7319l-1.9493,-6.5942h15.66664v3.06972c0,0 -1.81125,2.63068 -3.10482,2.62065z" data-paper-data="{&quot;index&quot;:null}"/></g><g fill="#ca9e00"><path d="M119.70785,219.9053l0.11076,-22.03176h4.02574l0.11076,22.03176z"/><path d="M120.587,220.08121v-11.82727h12.35568v11.82727z"/><path d="M129.55376,215.96288v-17.7409h3.47503v17.7409z"/><path d="M129.98904,213.27504v-4.74952h18.69257l-2.3258,10.20266c0,0 -0.90734,-6.95523 -3.66474,-5.77405c-2.98284,1.27774 -3.33059,4.54271 -5.12163,4.54271c-0.65494,0 -0.49198,-3.38029 -1.50681,-3.92303c-0.95594,-0.51125 -1.29124,3.74512 -2.36908,3.75595c-1.54342,0.01551 -3.70451,-4.05471 -3.70451,-4.05471z"/><path d="M119.87928,217.26678c-1.07784,-0.01083 -1.41314,-4.2672 -2.36908,-3.75594c-1.01483,0.54275 -0.85187,3.92303 -1.50681,3.92303c-1.79104,0 -2.13878,-3.26496 -5.12163,-4.5427c-2.7574,-1.18117 -3.66474,5.77405 -3.66474,5.77405l-2.3258,-10.20266h18.69257v4.74951c0,0 -2.16109,4.07022 -3.70451,4.05471z" data-paper-data="{&quot;index&quot;:null}"/></g></g><g stroke="none" stroke-linecap="butt"><path d="M168.56381,150.52287c0,22.1987 -17.96444,40.19432 -40.12469,40.19432c-22.16026,0 -40.12469,-17.99561 -40.12469,-40.19432c0,-22.1987 17.96444,-40.19431 40.12469,-40.19431c22.16026,0 40.12469,17.9956 40.12469,40.19431z" fill="#000000" stroke-width="0"/><path d="M149.54886,143.07948l0.64458,-39.03645l10.31318,-24.14967v63.18613z" fill="#000000" stroke-width="0"/><path d="M95.45051,144.78056v-63.18612l10.31318,24.14967l0.64457,39.03644z" data-paper-data="{&quot;index&quot;:null}" fill="#000000" stroke-width="0"/><path d="M111.51904,182.44674l-7.09031,-21.83395h51.24359l-8.37945,20.84149z" fill="#d9b796" stroke-width="0"/><path d="M111.84132,151.1845c0,2.83193 -4.32878,5.12767 -9.6686,5.12767c-5.33982,0 -9.6686,-2.29574 -9.6686,-5.12767c0,-2.83193 4.32878,-5.12767 9.6686,-5.12767c5.33982,0 9.6686,2.29574 9.6686,5.12767z" fill="#ffffff" stroke-width="0"/><path d="M163.1307,152.22395c0,2.83193 -4.32878,5.12767 -9.6686,5.12767c-5.33982,0 -9.6686,-2.29574 -9.6686,-5.12767c0,-2.83193 4.32878,-5.12768 9.6686,-5.12768c5.33982,0 9.6686,2.29574 9.6686,5.12768z" fill="#ffffff" stroke-width="0"/><path d="M143.58873,171.19055c0,1.28309 -1.25,1.28309 -1.25,1.28309h-1.24118c-8.05477,0 -16.04077,0.50962 -24.07895,0.50962c0,0 -1.25,0 -1.25,-1.28309c0,-1.28309 1.25,-1.28309 1.25,-1.28309c8.03765,0 16.02432,-0.50962 24.07895,-0.50962h1.24118c0,0 1.25,0 1.25,1.28309z" fill="#000000" stroke-width="0.5"/><path d="M143.41226,175.23438c-0.46424,-1.19132 0.69636,-1.66785 0.69636,-1.66785l1.07607,-0.42689c1.73066,-1.43758 3.14702,-3.51268 0.90224,-5.48681c-0.51696,-0.45463 -2.43233,0.08819 -3.00658,0.20936c0,0 -1.22573,0.25164 -1.47087,-1.00654c-0.24515,-1.25817 0.98058,-1.5098 0.98058,-1.5098c1.41538,-0.28395 3.63322,-0.74386 4.93699,0.20936c1.66902,1.22026 2.86113,4.77531 1.89704,6.6985c-0.72393,1.4441 -1.80953,2.14881 -2.9807,3.10312l-1.40629,0.59234c0,0 -1.1606,0.47653 -1.62484,-0.71479z" fill="#000000" stroke-width="0.5"/><path d="M118.51686,175.77709c0,1.28309 -1.25,1.28309 -1.25,1.28309l-1.23809,-0.02491c-6.01717,-1.25967 -7.03908,-9.67739 -0.49648,-11.17979c0,0 1.22573,-0.25164 1.47087,1.00654c0.24514,1.25817 -0.98058,1.5098 -0.98058,1.5098c-4.067,0.67752 -2.77793,5.49077 0.49648,6.14711l0.7478,-0.02491c0,0 1.25,0 1.25,1.28309z" fill="#000000" stroke-width="0.5"/><path d="M136.02373,165.72765c-2.48264,2.39816 -5.88291,1.6529 -9.03295,1.12277c0,0 -1.23299,-0.21094 -1.02749,-1.47657c0.2055,-1.26563 1.43849,-1.05469 1.43849,-1.05469c2.02027,0.35208 5.35568,1.29905 6.85419,-0.40607l0.56579,-0.7937c-0.49478,-2.2755 -1.52111,-4.37122 -1.90785,-6.75153c0,0 -0.20549,-1.26563 1.0275,-1.47657c1.23299,-0.21094 1.43849,1.05469 1.43849,1.05469c0.40843,2.51718 1.48298,4.64845 1.97863,7.09391l0.02427,0.50644c0,0 0.00001,0.74669 -0.55493,1.10084z" fill="#000000" stroke-width="0.5"/></g><g><path d="M160.61566,186.55065l-58.95444,14.27166" fill="none" stroke="#383838" stroke-width="3.5" stroke-linecap="round"/><g fill="#393839" stroke="#131313" stroke-width="2.5" stroke-linecap="butt"><path d="M159.0462,177.93278c1.67426,-1.10011 4.889,0.9866 7.18031,4.66081c2.2913,3.67422 2.79153,7.54456 1.11726,8.64465c-1.67426,1.10011 -4.889,-0.9866 -7.18031,-4.66081c-2.2913,-3.67422 -2.79153,-7.54456 -1.11726,-8.64465z"/><path d="M162.20961,174.90361c1.67426,-1.10011 4.889,0.9866 7.18031,4.66081c2.2913,3.67422 2.79152,7.54457 1.11728,8.64468c-1.67426,1.10011 -4.88901,-0.98662 -7.18032,-4.66082c-2.2913,-3.67422 -2.7915,-7.54456 -1.11726,-8.64465z"/><path d="M165.8331,173.08483c1.67426,-1.10011 4.889,0.9866 7.18031,4.66081c2.2913,3.67422 2.79153,7.54456 1.11726,8.64465c-1.67426,1.10011 -4.889,-0.9866 -7.18031,-4.66081c-2.2913,-3.67422 -2.7915,-7.54456 -1.11726,-8.64465z"/><path d="M168.74361,184.69805c3.99289,-1.49439 7.78178,-1.15173 8.46274,0.76535c0.68095,1.91708 -2.00388,4.6826 -5.99677,6.17699c-3.99289,1.49439 -7.78178,1.15172 -8.46274,-0.76535c-0.68095,-1.91708 2.00388,-4.68262 5.99677,-6.17699z" data-paper-data="{&quot;index&quot;:null}"/></g></g></g></svg>