<svg version="1.1" xmlns="http://www.w3.org/2000/svg" xmlns:xlink="http://www.w3.org/1999/xlink" width="484.95198" height="364.96386" viewBox="0,0,484.95198,364.96386"><g transform="translate(2.47597,2.48193)"><g data-paper-data="{&quot;isPaintingLayer&quot;:true}" stroke-miterlimit="10" stroke-dasharray="" stroke-dashoffset="0" style="mix-blend-mode: normal"><path d="M-2.47597,362.48193v-364.96386h484.95198v364.96386z" fill="#ffffff" fill-rule="nonzero" stroke="none" stroke-width="0" stroke-linecap="butt" stroke-linejoin="miter"/><path d="M42.55261,331.65165v-303.3033h394.89489v303.3033z" fill="#ff6666" fill-rule="nonzero" stroke="none" stroke-width="NaN" stroke-linecap="butt" stroke-linejoin="miter"/><g fill-rule="evenodd"><g><path d="M187.19989,246.88809c1.59246,0.79623 4.97643,2.58775 0.19906,9.3557c-4.77738,6.76795 -18.51233,8.16135 -20.10479,8.16135c-6.17078,0.19906 -13.73496,0.19906 -22.09537,-2.58775c-24.285,-7.96229 -24.48405,-34.03881 -16.72082,-38.21901c7.56418,-4.1802 10.94815,11.94344 21.89631,21.69725c4.77738,4.37926 10.55004,5.97172 15.32742,6.96701c6.76795,1.19434 19.70668,-6.36984 21.49819,-5.37455z" fill="#ffab19" stroke="#001026" stroke-width="1.2" stroke-linecap="round" stroke-linejoin="round"/><path d="M137.83364,230.76445c3.18492,5.37455 9.3557,12.93873 9.3557,12.93873c0,0 -7.36512,-1.79152 -11.54533,1.59246c-3.38398,2.58775 -2.58775,6.96701 -2.18963,8.36041c-2.58775,-2.58775 -5.77266,-6.17078 -7.76324,-13.13779c-1.99057,-6.96701 0,-15.32742 3.98115,-16.52176c3.98115,-0.79623 4.97643,2.18963 8.16135,6.76795z" fill="#ffffff" stroke="none" stroke-width="1" stroke-linecap="butt" stroke-linejoin="miter"/></g><path d="M197.15273,267.59006c-3.58303,2.38869 -15.92459,11.14721 -31.65012,16.12365l-0.79623,0.19906c-0.79623,0.19906 -1.19434,1.19434 -0.79623,1.99057c3.38398,4.77738 9.55475,14.33213 -1.3934,17.7161c-10.55004,3.38398 -30.25672,-24.68311 -21.89631,-32.04823c3.78209,-2.7868 7.16606,-1.3934 8.95758,-0.59717c0.99529,0.39811 1.99057,0.39811 2.98586,0.19906c2.38869,-0.79623 6.76795,-2.38869 10.15193,-4.1802c8.55947,-4.37926 10.55004,-6.17078 14.53119,-9.15664c3.98115,-2.98586 13.13779,-10.35098 20.50291,-3.98115c6.36984,5.37455 2.7868,11.34627 -0.59717,13.73496z" fill="#ffab19" stroke="#001026" stroke-width="1.2" stroke-linecap="round" stroke-linejoin="round"/><path d="M228.80288,226.18613c0.99529,0.79623 13.13779,15.12836 17.11893,11.54533c4.77738,-4.1802 11.34627,-12.34156 18.51233,-5.77266c7.16606,6.56889 -6.36984,17.7161 -12.1425,20.70196c-13.73496,6.17078 -24.88217,-5.57361 -27.27086,-8.75852c-2.38869,-3.18492 -6.56889,-8.55947 -6.56889,-13.73496c0.19906,-5.57361 6.96701,-6.96701 10.35098,-3.98115z" fill="#ffab19" stroke="#001026" stroke-width="1.2" stroke-linecap="round" stroke-linejoin="round"/><g><path d="M229.00193,272.56649c4.1802,3.78209 13.33684,11.54533 13.33684,11.54533c0,0 28.4652,-4.97643 28.4652,9.3557c0,8.55947 -14.33213,10.55004 -33.64069,8.75852c-1.19434,-0.19906 -2.38869,-0.59717 -3.38398,-1.3934c-4.37926,-3.78209 -16.91988,-14.9293 -24.88217,-22.69254c-11.74438,-11.54533 -21.49819,-19.10951 -21.49819,-19.10951c-16.91988,-16.52176 -3.18492,-23.48877 2.18963,-33.04352c4.97643,-8.16135 7.16606,-6.56889 19.10951,-4.1802c6.76795,0.99529 10.7491,1.59246 15.12836,1.3934c6.56889,-0.19906 5.37455,9.3557 3.58303,14.33213c0,0 -2.7868,7.36512 -5.37455,11.14721c-3.18492,4.57832 -5.57361,7.56418 -7.96229,9.3557z" fill="#ffab19" stroke="#001026" stroke-width="1.2" stroke-linecap="round" stroke-linejoin="round"/><path d="M212.28112,257.83625c0,0 -2.98586,-2.38869 -6.17078,-5.37455c-3.98115,-3.58303 -7.96229,-6.56889 -3.98115,-12.73967c3.58303,-4.77738 6.96701,-11.14721 15.92459,-5.37455c8.55947,5.37455 4.77738,10.35098 4.77738,10.35098c-4.37926,8.95758 -10.55004,13.13779 -10.55004,13.13779z" fill="#ffffff" stroke="none" stroke-width="1" stroke-linecap="butt" stroke-linejoin="miter"/></g><path d="M182.22346,241.51354c4.37926,5.57361 11.14721,12.54061 2.58775,18.31328c-11.74438,6.56889 -21.49819,-13.33684 -23.48877,-20.30385c-1.79152,-6.17078 3.38398,-10.15193 7.76324,-13.5359c8.55947,-6.17078 15.72553,-11.74438 23.68783,-8.75852c9.95287,3.58303 2.7868,11.54533 -2.18963,15.12836c-2.98586,2.18963 -5.97172,4.57832 -8.16135,5.97172c-0.59717,0.99529 -0.79623,2.18963 -0.19906,3.18492z" fill="#ffab19" stroke="#001026" stroke-width="1.2" stroke-linecap="round" stroke-linejoin="round"/><g><path d="M244.92653,107.34889c0.59717,-0.39811 1.59246,-0.19906 1.79152,0.59717l5.17549,21.29914c0,0 12.73967,9.3557 16.52176,15.92459c6.36984,10.94815 6.56889,19.90574 6.56889,19.90574c0,0 14.13307,4.1802 16.52176,15.52647c2.38869,11.34627 -6.36984,32.84446 -43.79262,40.20959c-37.42278,7.36512 -67.48044,-2.7868 -81.61352,-25.47934c-14.13307,-22.69254 8.16135,-49.76434 6.96701,-48.17188l-4.1802,-35.63127c-0.19906,-0.79623 0.79623,-1.3934 1.59246,-0.99529l24.08594,15.72553c0,0 8.95758,-3.38398 18.31328,-3.78209c5.57361,-0.39811 10.35098,0 14.9293,0.79623z" fill="#ffab19" stroke="#001026" stroke-width="1.2" stroke-linecap="butt" stroke-linejoin="miter"/><path d="M274.38697,165.87175c0,0 13.73496,3.58303 16.12365,14.9293c2.38869,11.34627 -7.16606,31.84918 -44.19073,39.01524c-48.17188,9.95287 -71.06348,-18.71139 -57.72663,-39.81147c13.33684,-21.29914 36.22844,-3.18492 52.94926,-4.37926c14.33213,-0.99529 15.92459,-13.5359 32.84446,-9.75381z" fill="#ffffff" stroke="none" stroke-width="1" stroke-linecap="butt" stroke-linejoin="miter"/><path d="M211.68395,187.17089c0,-0.79623 0.79623,-1.3934 1.59246,-1.19434c3.78209,1.3934 14.53119,4.57832 26.47463,5.37455c10.7491,0.59717 17.11893,0 20.10479,-0.59717c0.99529,-0.19906 1.79152,0.79623 1.3934,1.79152c-1.79152,5.37455 -9.3557,20.30385 -30.25672,19.10951c-18.11422,-1.99057 -19.90574,-14.73024 -19.30856,-24.48405z" fill="#ffffff" stroke="#001026" stroke-width="1.2" stroke-linecap="round" stroke-linejoin="round"/><path d="M311.01356,168.06138c-9.3557,7.56418 -23.68783,7.76324 -23.68783,7.76324" fill="none" stroke="#001026" stroke-width="1.2" stroke-linecap="round" stroke-linejoin="round"/><path d="M308.4258,190.3558c-12.54061,0.99529 -20.30385,-2.7868 -20.30385,-2.7868" fill="none" stroke="#001026" stroke-width="1.2" stroke-linecap="round" stroke-linejoin="round"/><path d="M240.7463,170.45007c4.1802,0 8.55947,0.39811 8.75852,1.79152c0.19906,2.7868 -2.7868,8.36041 -5.97172,8.55947c-3.58303,0.39811 -11.94344,-4.57832 -11.94344,-7.76324c-0.19906,-2.38869 5.17549,-2.58775 9.15664,-2.58775z" fill="#001026" stroke="#001026" stroke-width="1.2" stroke-linecap="round" stroke-linejoin="round"/><path d="M151.17048,167.46421c0,0 17.11893,5.57361 24.08594,11.74438" fill="none" stroke="#001026" stroke-width="1.2" stroke-linecap="round" stroke-linejoin="round"/><path d="M175.85362,186.1756c-8.55947,3.38398 -23.28971,1.19434 -23.28971,1.19434" fill="none" stroke="#001026" stroke-width="1.2" stroke-linecap="round" stroke-linejoin="round"/><g><path d="M264.23506,147.16036c5.77266,8.95758 5.97172,19.10951 0.39811,22.69254c-5.57361,3.58303 -14.73024,-0.59717 -20.70196,-9.55475c-5.77266,-8.95758 -5.97172,-19.10951 -0.39811,-22.69254c5.57361,-3.78209 14.9293,0.59717 20.70196,9.55475z" fill="#ffffff" stroke="#001026" stroke-width="1.2" stroke-linecap="round" stroke-linejoin="round"/><path d="M263.43881,158.50663c0,2.18963 -1.59246,3.98115 -3.58303,3.98115c-1.99057,0 -3.58303,-1.79152 -3.58303,-3.98115c0,-2.18963 1.59246,-3.98115 3.58303,-3.98115c1.99057,0 3.58303,1.79152 3.58303,3.98115" fill="#001026" stroke="none" stroke-width="1" stroke-linecap="butt" stroke-linejoin="miter"/></g><g><path d="M214.86887,152.73396c5.97172,8.75852 5.57361,19.50762 0.19906,23.28971c-6.56889,3.78209 -15.32742,0.99529 -21.29914,-7.76324c-6.17078,-8.75852 -6.56889,-20.10479 -0.39811,-24.48405c6.17078,-4.57832 15.52647,0.19906 21.49819,8.95758z" fill="#ffffff" stroke="#001026" stroke-width="1.2" stroke-linecap="round" stroke-linejoin="round"/><path d="M213.6745,164.27928c0,2.18963 -1.59246,3.98115 -3.58303,3.98115c-1.99057,0 -3.58303,-1.79152 -3.58303,-3.98115c0,-2.18963 1.59246,-3.98115 3.58303,-3.98115c1.99057,0.19906 3.58303,1.79152 3.58303,3.98115" fill="#001026" stroke="none" stroke-width="1" stroke-linecap="butt" stroke-linejoin="miter"/></g></g></g><path d="M71.08112,92.91292v-49.54955h309.30931v49.54955z" fill="#ff0000" fill-rule="nonzero" stroke="none" stroke-width="NaN" stroke-linecap="butt" stroke-linejoin="miter"/><path d="M264.78683,123.43544v-34.53454h50.52252z" fill="#ff0000" fill-rule="nonzero" stroke="none" stroke-width="0" stroke-linecap="butt" stroke-linejoin="miter"/><text transform="translate(77.50003,80) scale(0.88984,0.5)" font-size="40" xml:space="preserve" fill="#000000" fill-rule="nonzero" stroke="none" stroke-width="1" stroke-linecap="butt" stroke-linejoin="miter" stroke-miterlimit="10" stroke-dasharray="" stroke-dashoffset="0" font-family="Sans Serif" font-weight="normal" text-anchor="start" style="mix-blend-mode: normal"><tspan x="0" dy="0">GIVE ME IT NOW!!</tspan></text></g></g></svg>