<svg version="1.1" xmlns="http://www.w3.org/2000/svg" xmlns:xlink="http://www.w3.org/1999/xlink" width="171.8274" height="109.18798" viewBox="0,0,171.8274,109.18798"><defs><linearGradient x1="209.24352" y1="164.62718" x2="209.24352" y2="180.93412" gradientTransform="translate(-525.01584,-520.58611) scale(2.94351,2.94351)" gradientUnits="userSpaceOnUse" id="color-1"><stop offset="0" stop-color="#c0c7c8"/><stop offset="1" stop-color="#87888f"/></linearGradient><linearGradient x1="211.5948" y1="175.30072" x2="211.5948" y2="195.87129" gradientTransform="translate(-418.90447,-445.0546) scale(2.33345,2.33345)" gradientUnits="userSpaceOnUse" id="color-2"><stop offset="0" stop-color="#c0c7c8"/><stop offset="1" stop-color="#87888f"/></linearGradient><linearGradient x1="209.07713" y1="164.29412" x2="209.07713" y2="180.60107" gradientTransform="translate(-524.52524,-519.60498) scale(2.94351,2.94351)" gradientUnits="userSpaceOnUse" id="color-3"><stop offset="0" stop-color="#c0c7c8"/><stop offset="1" stop-color="#87888f"/></linearGradient><linearGradient x1="211.42813" y1="174.96741" x2="211.42813" y2="195.53798" gradientTransform="translate(-418.51555,-444.27682) scale(2.33345,2.33345)" gradientUnits="userSpaceOnUse" id="color-4"><stop offset="0" stop-color="#c0c7c8"/><stop offset="1" stop-color="#87888f"/></linearGradient><linearGradient x1="208.74387" y1="164.1275" x2="208.74387" y2="180.43442" gradientTransform="translate(-523.54596,-519.11624) scale(2.94351,2.94351)" gradientUnits="userSpaceOnUse" id="color-5"><stop offset="0" stop-color="#c0c7c8"/><stop offset="1" stop-color="#87888f"/></linearGradient><linearGradient x1="211.09565" y1="174.80195" x2="211.09565" y2="195.37243" gradientTransform="translate(-417.73924,-443.88939) scale(2.33345,2.33345)" gradientUnits="userSpaceOnUse" id="color-6"><stop offset="0" stop-color="#c0c7c8"/><stop offset="1" stop-color="#87888f"/></linearGradient><radialGradient cx="240" cy="180" r="85.9137" gradientUnits="userSpaceOnUse" id="color-7"><stop offset="0" stop-color="#000000" stop-opacity="0"/><stop offset="1" stop-color="#000000" stop-opacity="0.50196"/></radialGradient></defs><g transform="translate(-154.0863,-125.40601)"><g data-paper-data="{&quot;isPaintingLayer&quot;:true}" fill-rule="nonzero" stroke-linejoin="miter" stroke-miterlimit="10" stroke-dasharray="" stroke-dashoffset="0" style="mix-blend-mode: normal"><path d="M154.0863,221.25164c0,-23.05559 0,-69.13003 0,-82.09091c0,-6.64651 5.16204,-13.75472 13.64097,-13.75472c34.6915,0 124.90883,0 144.27273,0c7.15266,0 13.9137,7.16213 13.9137,13.84562c0,12.92917 0,58.60982 0,81.72728c0,8.24133 -5.27286,13.61508 -13.9137,13.61508c-34.88915,0 -124.68663,-0.00001 -144,-0.00001c-7.15266,0 -13.9137,-5.25502 -13.9137,-13.34235z" fill="#59ff00" stroke="none" stroke-width="0" stroke-linecap="butt"/><g><g><path d="M246.3238,197.24158v-10.98058l5.97068,-2.90041l-2.43264,-1.25661l-0.0129,-27.77933l7.45895,-3.43693l3.17426,1.5674l19.81153,-4.30893l15.9334,7.19273l0.47231,0.46265l-0.07752,14.22727l-1.33388,1.10628c0,0 0.01797,9.72256 0.05291,9.72083c0.63238,-0.03148 -5.65762,3.24691 -5.65762,3.24691l9.87978,5.05204l0.04452,10.86865l-23.72361,11.35007z" fill="#c0c7c8" stroke="#000000" stroke-width="0" stroke-linecap="butt"/><path d="M274.93841,194.25899l6.60498,-2.93554v-6.84171l13.82918,-13.38611l-0.0267,9.72265l-5.63874,3.31629l9.21896,4.70116l-19.24277,9.42176h-4.35159l-25.03158,-12.4559l3.3136,-1.91628z" fill="#87888f" stroke="#000000" stroke-width="0" stroke-linecap="round"/><path d="M246.30835,186.1231l5.99784,-2.83805" fill="none" stroke="#ffffff" stroke-width="1.5" stroke-linecap="round"/><path d="M281.429,163.38687l14.67857,-8.04314l0.48327,0.42789l0.15103,14.11452l-15.3502,14.49641l0.03732,6.92067l-6.58213,2.92546l-0.7227,-0.39837l-24.07421,-11.90765v-0.82999l24.89156,12.03005l-0.17801,-26.18351z" fill="#87888f" stroke="#ff0000" stroke-width="0" stroke-linecap="round"/><path d="M275.62923,211.4797v-10.45575l23.98317,-11.70497v10.45574z" fill="#87888f" stroke="none" stroke-width="0" stroke-linecap="butt"/><path d="M253.51629,178.35246l-0.03709,-17.28278l18.00586,8.67688l0.04946,17.36449z" fill="#530000" stroke="#000000" stroke-width="0" stroke-linecap="butt"/><path d="M296.22216,155.27383l0.46234,0.46233v14.23996l-1.29454,1.1096v9.80153l-5.73297,3.23635l9.98647,4.99324v10.7262l-23.85656,11.65088l-29.45736,-14.27567" fill="none" stroke="#000000" stroke-width="1.5" stroke-linecap="round"/><path d="M295.20503,171.1782l-13.68515,13.40775v-21.45241" fill="none" stroke="#000000" stroke-width="1.5" stroke-linecap="round"/><path d="M281.51367,184.03115v7.30491l-6.65764,2.95895l-24.99193,-12.24097" fill="none" stroke="#000000" stroke-width="1.5" stroke-linecap="round"/><path d="M246.33277,197.2042v-10.91832l29.03472,14.51737" fill="none" stroke="#ffffff" stroke-width="1.5" stroke-linecap="round"/><path d="M249.84565,182.04142v-27.50198l24.81688,12.37462" fill="none" stroke="#ffffff" stroke-width="1.5" stroke-linecap="round"/><path d="M249.85459,154.31238l7.42935,-3.42447l24.25702,12.24276" fill="none" stroke="#ffffff" stroke-width="1.5" stroke-linecap="round"/><path d="M260.42103,152.40491l19.98927,-4.35712l15.74733,7.16782" fill="none" stroke="#ffffff" stroke-width="1.5" stroke-linecap="round"/><path d="M271.59475,202.67404l-8.01559,-3.71165z" fill="none" stroke="#ffffff" stroke-width="1.5" stroke-linecap="round"/><path d="M271.58184,202.21548l-8.01559,-3.71165z" fill="none" stroke="#87888f" stroke-width="1.5" stroke-linecap="round"/><path d="M271.52263,169.79252v17.3309l-18.07408,-8.78426" fill="none" stroke="#ffffff" stroke-width="1.5" stroke-linecap="round"/><path d="M253.4578,178.35v-17.31273l18.06482,8.69538" fill="none" stroke="#87888f" stroke-width="1.5" stroke-linecap="round"/><g stroke="none" stroke-width="0" stroke-linecap="butt"><path d="M268.26947,188.5101v-2.01477l1.59307,0.84339v2.01477z" data-paper-data="{&quot;origPos&quot;:null}" fill="#000000"/><path d="M268.26915,187.6236v-1.13155l1.59307,0.84339v1.13155z" data-paper-data="{&quot;origPos&quot;:null}" fill="#414141"/></g><g fill="#ff0000" stroke="none" stroke-width="0" stroke-linecap="butt"><path d="M249.20132,194.43036v-2.09579l1.65714,0.87731v2.09579z" data-paper-data="{&quot;origPos&quot;:null}"/><path d="M249.201,193.50821v-1.17706l1.65714,0.87731v1.17706z" data-paper-data="{&quot;origPos&quot;:null}"/></g><path d="M262.87207,200.04796v-2.28438h0.83441v2.28438z" fill="#c0c7c8" stroke="none" stroke-width="0" stroke-linecap="butt"/><path d="M271.40771,203.33091v-1.65515h0.79338v1.65515z" fill="#c0c7c8" stroke="none" stroke-width="0" stroke-linecap="butt"/><g fill="#ffffff"><g><path d="M260.8247,175.34735v-6.29614l5.83384,2.70778v6.25212z" data-paper-data="{&quot;origPos&quot;:null}" stroke="none" stroke-width="0" stroke-linecap="butt"/><path d="M260.89786,175.37912v-6.38955l5.74312,2.77889" data-paper-data="{&quot;origPos&quot;:null}" stroke="#000000" stroke-width="1.5" stroke-linecap="round"/><path d="M266.64456,171.77855v6.27022l-5.74433,-2.6699" data-paper-data="{&quot;origPos&quot;:null}" stroke="#000000" stroke-width="1.5" stroke-linecap="round"/></g><path d="M257.57007,176.6273v-6.29614l5.83384,2.70778v6.25211z" data-paper-data="{&quot;origPos&quot;:null}" stroke="none" stroke-width="0" stroke-linecap="butt"/><path d="M257.59608,171.78725v-1.49682l5.83421,2.74551v1.43962z" data-paper-data="{&quot;origPos&quot;:null}" stroke="none" stroke-width="0" stroke-linecap="butt"/><path d="M257.64323,176.65907v-6.38956l5.74311,2.77889" data-paper-data="{&quot;origPos&quot;:null}" stroke="#000000" stroke-width="1.5" stroke-linecap="round"/><path d="M263.38993,173.05849v6.27022l-5.74433,-2.6699" data-paper-data="{&quot;origPos&quot;:null}" stroke="#000000" stroke-width="1.5" stroke-linecap="round"/><path d="M258.69933,175.23736v-0.61661h0.61661v0.61661z" data-paper-data="{&quot;origPos&quot;:null}" stroke="none" stroke-width="0" stroke-linecap="butt"/><path d="M259.31436,175.87533v-1.25548h0.64545v1.25548z" data-paper-data="{&quot;origPos&quot;:null}" stroke="none" stroke-width="0" stroke-linecap="butt"/><path d="M261.22262,176.50105v-1.25548h0.64546v1.25548z" data-paper-data="{&quot;origPos&quot;:null}" stroke="none" stroke-width="0" stroke-linecap="butt"/></g></g><g stroke="#000000" stroke-width="2" stroke-linecap="butt" font-family="Sans Serif" font-weight="normal" font-size="40" text-anchor="start"><text transform="translate(178.36363,176.85872) scale(0.33973,0.33973)" font-size="40" xml:space="preserve" fill="url(#color-1)" fill-rule="nonzero" stroke="#000000" stroke-width="2" stroke-linecap="butt" stroke-linejoin="miter" stroke-miterlimit="10" stroke-dasharray="" stroke-dashoffset="0" font-family="Sans Serif" font-weight="normal" text-anchor="start" style="mix-blend-mode: normal"><tspan x="0" dy="0">DoIKnow</tspan></text><text transform="translate(179.52151,190.72815) scale(0.42855,0.42855)" font-size="40" xml:space="preserve" fill="url(#color-2)" fill-rule="nonzero" stroke="#000000" stroke-width="2" stroke-linecap="butt" stroke-linejoin="miter" stroke-miterlimit="10" stroke-dasharray="" stroke-dashoffset="0" font-family="Sans Serif" font-weight="normal" text-anchor="start" style="mix-blend-mode: normal"><tspan x="0" dy="0">yOu?!?!</tspan></text></g><g data-paper-data="{&quot;index&quot;:null}" stroke="#ffffff" stroke-width="1" stroke-linecap="butt" font-family="Sans Serif" font-weight="normal" font-size="40" text-anchor="start"><text transform="translate(178.19696,176.5254) scale(0.33973,0.33973)" font-size="40" xml:space="preserve" fill="url(#color-3)" fill-rule="nonzero" stroke="#ffffff" stroke-width="1" stroke-linecap="butt" stroke-linejoin="miter" stroke-miterlimit="10" stroke-dasharray="" stroke-dashoffset="0" font-family="Sans Serif" font-weight="normal" text-anchor="start" style="mix-blend-mode: normal"><tspan x="0" dy="0">DoIKnow</tspan></text><text transform="translate(179.35484,190.39483) scale(0.42855,0.42855)" font-size="40" xml:space="preserve" fill="url(#color-4)" fill-rule="nonzero" stroke="#ffffff" stroke-width="1" stroke-linecap="butt" stroke-linejoin="miter" stroke-miterlimit="10" stroke-dasharray="" stroke-dashoffset="0" font-family="Sans Serif" font-weight="normal" text-anchor="start" style="mix-blend-mode: normal"><tspan x="0" dy="0">yOu?!?!</tspan></text></g><g stroke="#ffffff" stroke-width="0" stroke-linecap="butt" font-family="Sans Serif" font-weight="normal" font-size="40" text-anchor="start"><text transform="translate(177.86427,176.35936) scale(0.33973,0.33973)" font-size="40" xml:space="preserve" fill="url(#color-5)" fill-rule="nonzero" stroke="#ffffff" stroke-width="0" stroke-linecap="butt" stroke-linejoin="miter" stroke-miterlimit="10" stroke-dasharray="" stroke-dashoffset="0" font-family="Sans Serif" font-weight="normal" text-anchor="start" style="mix-blend-mode: normal"><tspan x="0" dy="0">DoIKnow</tspan></text><text transform="translate(179.02215,190.2288) scale(0.42855,0.42855)" font-size="40" xml:space="preserve" fill="url(#color-6)" fill-rule="nonzero" stroke="#ffffff" stroke-width="0" stroke-linecap="butt" stroke-linejoin="miter" stroke-miterlimit="10" stroke-dasharray="" stroke-dashoffset="0" font-family="Sans Serif" font-weight="normal" text-anchor="start" style="mix-blend-mode: normal"><tspan x="0" dy="0">yOu?!?!</tspan></text></g></g><path d="M154.0863,221.25164c0,-23.05559 0,-69.13003 0,-82.09091c0,-6.64651 5.16204,-13.75472 13.64097,-13.75472c34.6915,0 124.90883,0 144.27273,0c7.15266,0 13.9137,7.16213 13.9137,13.84562c0,12.92917 0,58.60982 0,81.72728c0,8.24133 -5.27286,13.61508 -13.9137,13.61508c-34.88915,0 -124.68663,-0.00001 -144,-0.00001c-7.15266,0 -13.9137,-5.25502 -13.9137,-13.34235z" fill="url(#color-7)" stroke="none" stroke-width="0" stroke-linecap="butt"/><text transform="translate(159.55823,142.35307) scale(0.33586,0.33586)" font-size="40" xml:space="preserve" fill="#ffffff" fill-rule="nonzero" stroke="none" stroke-width="1" stroke-linecap="butt" stroke-linejoin="miter" stroke-miterlimit="10" stroke-dasharray="" stroke-dashoffset="0" font-family="Sans Serif" font-weight="normal" text-anchor="start" style="mix-blend-mode: normal"><tspan x="0" dy="0">Do I know you?</tspan></text></g></g></svg>