<svg version="1.1" xmlns="http://www.w3.org/2000/svg" xmlns:xlink="http://www.w3.org/1999/xlink" width="480" height="360" viewBox="0,0,480,360"><g transform=""><g data-paper-data="{&quot;isPaintingLayer&quot;:true}" fill-rule="nonzero" stroke-linejoin="miter" stroke-miterlimit="10" stroke-dasharray="" stroke-dashoffset="0" style="mix-blend-mode: normal"><path d="M0,360v-360h480v360z" fill="#ffffff" stroke="none" stroke-width="0" stroke-linecap="butt"/><path d="M145.7307,267.16491c0,0 20.93185,-2.02801 20.97265,5.92849c0.04191,8.17305 -13.7738,29.81756 -13.7738,29.81756" fill="none" stroke="#000000" stroke-width="3.5" stroke-linecap="round"/><path d="M106.9083,267.87895c0,0 0.62539,18.49373 0.58143,27.06784c-0.04388,8.55558 -0.84496,24.32134 -0.84496,24.32134" fill="none" stroke="#000000" stroke-width="3.5" stroke-linecap="round"/><g data-paper-data="{&quot;index&quot;:null}" stroke="#121312" stroke-width="3.5" stroke-linecap="butt"><path d="M97.45638,345.25603l-0.62737,-22.0967l16.13382,0.33391c0,0 -1.03511,7.93819 -1.05357,11.41345c-0.00879,1.65563 7.9375,1.16338 7.92632,3.26922c-0.01229,2.31445 -0.78029,6.69834 -0.78029,6.69834z" fill="#383838"/><path d="M113.99263,323.19758c-0.00947,1.78224 -3.96252,3.20608 -8.8294,3.18024c-4.86689,-0.02584 -8.8046,-1.49159 -8.79514,-3.27383c0.00466,-0.87817 -0.998,-5.6516 0.55911,-6.22519c1.60305,-0.59052 5.80677,2.03892 8.27558,2.05203c4.86689,0.02584 8.79931,2.48451 8.78985,4.26676z" fill="#979025"/></g><g stroke="#121312" stroke-width="3.5" stroke-linecap="butt"><path d="M142.45648,329.0825l1.61757,-22.04634l16.01671,1.96897c0,0 -1.8351,7.79222 -2.20602,11.24768c-0.17671,1.64619 7.77853,1.96264 7.55376,4.05648c-0.24703,2.30126 -1.45581,6.58462 -1.45581,6.58462z" fill="#383838"/><path d="M161.14524,308.81546c-0.19022,1.77208 -4.26733,2.78753 -9.10649,2.26807c-4.83915,-0.51946 -8.60786,-2.37712 -8.41763,-4.1492c0.09373,-0.87316 -0.4195,-5.72369 1.18778,-6.13635c1.65469,-0.42484 5.56995,2.61748 8.0247,2.88099c4.83915,0.51946 8.50188,3.3644 8.31165,5.13648z" fill="#979025"/></g><g><path d="M142.88748,204.16559l60.16486,-6.87244" data-paper-data="{&quot;index&quot;:null}" fill="none" stroke="#383838" stroke-width="3.5" stroke-linecap="round"/><g data-paper-data="{&quot;index&quot;:null}" fill="#393839" stroke="#131313" stroke-width="2.5" stroke-linecap="butt"><path d="M202.61833,197.4201c0.93504,-4.06503 3.26507,-7.01276 5.20427,-6.58393c1.9392,0.42883 2.75324,4.07181 1.8182,8.13685c-0.93504,4.06503 -3.26507,7.01276 -5.20427,6.58393c-1.9392,-0.42883 -2.75324,-4.07181 -1.8182,-8.13685z"/><path d="M206.59775,199.08407c0.93504,-4.06503 3.26507,-7.01276 5.20427,-6.58393c1.9392,0.42883 2.75324,4.07181 1.8182,8.13685c-0.93504,4.06503 -3.26507,7.01275 -5.20427,6.58393c-1.9392,-0.42883 -2.75324,-4.07181 -1.81821,-8.13684z"/><path d="M210.60809,199.50733c0.93504,-4.06503 3.26507,-7.01276 5.20427,-6.58393c1.9392,0.42883 2.75324,4.07182 1.8182,8.13685c-0.93504,4.06503 -3.26507,7.01275 -5.20427,6.58393c-1.9392,-0.42883 -2.75324,-4.07181 -1.8182,-8.13685z"/><path d="M203.62108,192.69769c0.00408,-1.94913 3.45269,-3.5223 7.7027,-3.51375c4.25,0.00855 7.69201,1.59556 7.68794,3.54471c-0.00408,1.94913 -3.4527,3.52229 -7.7027,3.51375c-4.25,-0.00855 -7.69201,-1.59556 -7.68793,-3.5447z" data-paper-data="{&quot;index&quot;:null}"/></g></g><g stroke="none" stroke-width="0" stroke-linecap="butt"><path d="M99.39375,268.15786v-74.23562h54.11557v74.23562z" fill="#000000"/><path d="M99.31045,259.72547v-7.78866h54.11557v7.78866z" fill="#a17f00"/><g fill="#ca9e00"><path d="M120.94867,259.72356v-12.89996h3.55972v12.89996z"/><path d="M121.6855,259.83216v-7.30187h10.35556v7.30187z"/><path d="M129.20075,257.2896v-10.95279h2.9125v10.95279z"/><path d="M129.56556,255.63018v-2.93224h15.66664l-1.94931,6.29888c0,0 -0.76046,-4.29399 -3.0715,-3.56477c-2.49998,0.78885 -2.79143,2.80456 -4.29254,2.80456c-0.54892,0 -0.41234,-2.0869 -1.26289,-2.42199c-0.8012,-0.31564 -1.08222,2.31214 -1.98558,2.31883c-1.29357,0.00957 -3.10482,-2.50328 -3.10482,-2.50328z"/><path d="M121.09235,258.0946c-0.90336,-0.00669 -1.18438,-2.63446 -1.98558,-2.31883c-0.85055,0.33509 -0.71397,2.42198 -1.26289,2.42198c-1.50111,0 -1.79256,-2.01571 -4.29255,-2.80456c-2.31104,-0.72923 -3.0715,3.56477 -3.0715,3.56477l-1.9493,-6.29888h15.66664v2.93224c0,0 -1.81125,2.51286 -3.10482,2.50328z" data-paper-data="{&quot;index&quot;:null}"/></g><g fill="#ca9e00"><path d="M119.70778,219.27985l0.11076,-21.04505h4.02574l0.11076,21.04505z"/><path d="M120.58692,219.44788v-11.29757h12.35568v11.29757z"/><path d="M129.55371,215.514v-16.94636h3.47503v16.94636z"/><path d="M129.98897,212.94653v-4.53681h18.69257l-2.3258,9.74573c0,0 -0.90734,-6.64374 -3.66474,-5.51546c-2.98284,1.22051 -3.33059,4.33926 -5.12163,4.33926c-0.65494,0 -0.49198,-3.2289 -1.50681,-3.74734c-0.95594,-0.48836 -1.29124,3.5774 -2.36908,3.58774c-1.54342,0.01482 -3.70451,-3.87311 -3.70451,-3.87311z"/><path d="M119.87921,216.7595c-1.07784,-0.01034 -1.41314,-4.07609 -2.36908,-3.58773c-1.01483,0.51844 -0.85187,3.74734 -1.50681,3.74734c-1.79104,0 -2.13878,-3.11874 -5.12163,-4.33925c-2.7574,-1.12827 -3.66474,5.51546 -3.66474,5.51546l-2.3258,-9.74573h18.69257v4.5368c0,0 -2.16109,3.88793 -3.70451,3.87311z" data-paper-data="{&quot;index&quot;:null}"/></g></g><g stroke="none" stroke-linecap="butt"><path d="M168.56371,153.00477c0,21.20452 -17.96444,38.39419 -40.12469,38.39419c-22.16026,0 -40.12469,-17.18966 -40.12469,-38.39419c0,-21.20452 17.96444,-38.39418 40.12469,-38.39418c22.16026,0 40.12469,17.18965 40.12469,38.39418z" fill="#000000" stroke-width="0"/><path d="M149.54879,145.89474l0.64458,-37.28818l10.31318,-23.06811v60.35629z" fill="#000000" stroke-width="0"/><path d="M95.45042,147.51963v-60.35628l10.31318,23.06811l0.64457,37.28817z" data-paper-data="{&quot;index&quot;:null}" fill="#000000" stroke-width="0"/><path d="M111.51896,183.49891l-7.09031,-20.8561h51.24359l-8.37945,19.90809z" fill="#d9b796" stroke-width="0"/><path d="M111.84125,153.63677c0,2.7051 -4.32878,4.89802 -9.6686,4.89802c-5.33982,0 -9.6686,-2.19292 -9.6686,-4.89802c0,-2.7051 4.32878,-4.89802 9.6686,-4.89802c5.33982,0 9.6686,2.19292 9.6686,4.89802z" fill="#ffffff" stroke-width="0"/><path d="M163.13062,154.62967c0,2.7051 -4.32878,4.89802 -9.6686,4.89802c-5.33982,0 -9.6686,-2.19292 -9.6686,-4.89802c0,-2.7051 4.32878,-4.89803 9.6686,-4.89803c5.33982,0 9.6686,2.19292 9.6686,4.89803z" fill="#ffffff" stroke-width="0"/><path d="M143.58867,172.74684c0,1.22562 -1.25,1.22562 -1.25,1.22562h-1.24118c-8.05477,0 -16.04077,0.4868 -24.07895,0.4868c0,0 -1.25,0 -1.25,-1.22562c0,-1.22562 1.25,-1.22562 1.25,-1.22562c8.03765,0 16.02432,-0.4868 24.07895,-0.4868h1.24118c0,0 1.25,0 1.25,1.22562z" fill="#000000" stroke-width="0.5"/><path d="M143.4122,176.60956c-0.46424,-1.13797 0.69636,-1.59315 0.69636,-1.59315l1.07607,-0.40777c1.73066,-1.3732 3.14702,-3.35536 0.90224,-5.24108c-0.51696,-0.43427 -2.43233,0.08424 -3.00658,0.19998c0,0 -1.22573,0.24037 -1.47087,-0.96146c-0.24515,-1.20183 0.98058,-1.44219 0.98058,-1.44219c1.41538,-0.27124 3.63322,-0.71055 4.93699,0.19998c1.66902,1.16561 2.86113,4.56144 1.89704,6.39851c-0.72393,1.37942 -1.80953,2.05257 -2.9807,2.96414l-1.40629,0.56582c0,0 -1.1606,0.45519 -1.62484,-0.68278z" fill="#000000" stroke-width="0.5"/><path d="M118.51678,177.12796c0,1.22562 -1.25,1.22562 -1.25,1.22562l-1.23809,-0.0238c-6.01717,-1.20326 -7.03908,-9.24398 -0.49648,-10.6791c0,0 1.22573,-0.24037 1.47087,0.96146c0.24514,1.20183 -0.98058,1.44219 -0.98058,1.44219c-4.067,0.64718 -2.77793,5.24486 0.49648,5.87181l0.7478,-0.0238c0,0 1.25,0 1.25,1.22562z" fill="#000000" stroke-width="0.5"/><path d="M136.02369,167.5286c-2.48264,2.29076 -5.88291,1.57888 -9.03295,1.07249c0,0 -1.23299,-0.20149 -1.02749,-1.41044c0.2055,-1.20894 1.43849,-1.00745 1.43849,-1.00745c2.02027,0.33631 5.35568,1.24087 6.85419,-0.38789l0.56579,-0.75815c-0.49478,-2.17359 -1.52111,-4.17545 -1.90785,-6.44916c0,0 -0.20549,-1.20894 1.0275,-1.41044c1.23299,-0.20149 1.43849,1.00745 1.43849,1.00745c0.40843,2.40445 1.48298,4.44026 1.97863,6.7762l0.02427,0.48376c0,0 0.00001,0.71325 -0.55493,1.05154z" fill="#000000" stroke-width="0.5"/></g><g><path d="M99.18604,200.16777l55.71812,23.29437" fill="none" stroke="#383838" stroke-width="3.5" stroke-linecap="round"/><g fill="#393839" stroke="#131313" stroke-width="2.5" stroke-linecap="butt"><path d="M158.61811,215.92081c1.98368,0.12709 3.36712,3.60106 3.09001,7.75932c-0.27711,4.15826 -2.10985,7.42617 -4.09353,7.29908c-1.98368,-0.12709 -3.36712,-3.60106 -3.09001,-7.75932c0.27711,-4.15826 2.10985,-7.42617 4.09353,-7.29908z"/><path d="M162.9152,215.42972c1.98368,0.12709 3.36713,3.60106 3.09001,7.75932c-0.27711,4.15826 -2.10985,7.42618 -4.09353,7.29909c-1.98368,-0.12709 -3.36713,-3.60107 -3.09001,-7.75933c0.27711,-4.15826 2.10985,-7.42617 4.09353,-7.29908z"/><path d="M166.88365,216.13715c1.98368,0.12709 3.36713,3.60106 3.09001,7.75932c-0.27711,4.15826 -2.10985,7.42617 -4.09353,7.29908c-1.98368,-0.12709 -3.36712,-3.60106 -3.09001,-7.75932c0.27711,-4.15826 2.10985,-7.42617 4.09353,-7.29908z"/><path d="M162.51951,226.76215c4.07855,1.17171 6.93175,3.63791 6.37279,5.50841c-0.55896,1.87051 -4.3184,2.43699 -8.39695,1.26528c-4.07855,-1.17171 -6.93174,-3.6379 -6.37279,-5.50841c0.55896,-1.87051 4.3184,-2.437 8.39695,-1.26529z" data-paper-data="{&quot;index&quot;:null}"/></g></g></g></g></svg>