<svg version="1.1" xmlns="http://www.w3.org/2000/svg" xmlns:xlink="http://www.w3.org/1999/xlink" width="182.33334" height="128.14531" viewBox="0,0,182.33334,128.14531"><defs><radialGradient cx="182.83333" cy="197.5" r="34.33334" gradientUnits="userSpaceOnUse" id="color-1"><stop offset="0" stop-color="#1f1f1f"/><stop offset="1" stop-color="#1f1f1f" stop-opacity="0"/></radialGradient><radialGradient cx="296.5" cy="197.5" r="34.33333" gradientUnits="userSpaceOnUse" id="color-2"><stop offset="0" stop-color="#1f1f1f"/><stop offset="1" stop-color="#1f1f1f" stop-opacity="0"/></radialGradient><radialGradient cx="213.83334" cy="197.5" r="34.33333" gradientUnits="userSpaceOnUse" id="color-3"><stop offset="0" stop-color="#1f1f1f"/><stop offset="1" stop-color="#1f1f1f" stop-opacity="0"/></radialGradient><radialGradient cx="267.5" cy="197.5" r="34.33334" gradientUnits="userSpaceOnUse" id="color-4"><stop offset="0" stop-color="#1f1f1f"/><stop offset="1" stop-color="#1f1f1f" stop-opacity="0"/></radialGradient><radialGradient cx="239.5" cy="197.5" r="34.33334" gradientUnits="userSpaceOnUse" id="color-5"><stop offset="0" stop-color="#1f1f1f"/><stop offset="1" stop-color="#1f1f1f" stop-opacity="0"/></radialGradient></defs><g transform="translate(-148.5,-108.33901)"><g data-paper-data="{&quot;isPaintingLayer&quot;:true}" fill-rule="nonzero" stroke="none" stroke-linecap="butt" stroke-linejoin="miter" stroke-miterlimit="10" stroke-dasharray="" stroke-dashoffset="0" style="mix-blend-mode: normal"><g stroke-width="0"><path d="M148.5,197.5c0,-18.96177 15.37156,-34.33334 34.33334,-34.33334c18.96177,0 34.33334,15.37156 34.33334,34.33334c0,18.96177 -15.37156,34.33334 -34.33334,34.33334c-18.96177,0 -34.33334,-15.37156 -34.33334,-34.33334z" fill="url(#color-1)"/><path d="M262.16667,197.5c0,-18.96177 15.37156,-34.33334 34.33334,-34.33334c18.96177,0 34.33333,15.37156 34.33333,34.33334c0,18.96177 -15.37156,34.33334 -34.33333,34.33334c-18.96177,0 -34.33334,-15.37156 -34.33334,-34.33334z" fill="url(#color-2)"/><path d="M179.5,197.5c0,-18.96177 15.37156,-34.33334 34.33334,-34.33334c18.96177,0 34.33333,15.37156 34.33333,34.33334c0,18.96177 -15.37156,34.33334 -34.33333,34.33334c-18.96177,0 -34.33334,-15.37156 -34.33334,-34.33334z" fill="url(#color-3)"/><path d="M233.16667,197.5c0,-18.96177 15.37156,-34.33334 34.33334,-34.33334c18.96177,0 34.33334,15.37156 34.33334,34.33334c0,18.96177 -15.37156,34.33334 -34.33334,34.33334c-18.96178,0 -34.33334,-15.37156 -34.33334,-34.33334z" fill="url(#color-4)"/><path d="M205.16667,197.5c0,-18.96177 15.37156,-34.33334 34.33334,-34.33334c18.96178,0 34.33334,15.37156 34.33334,34.33334c0,18.96177 -15.37156,34.33334 -34.33334,34.33334c-18.96177,0 -34.33334,-15.37156 -34.33334,-34.33334z" fill="url(#color-5)"/></g><path d="M154.0863,204.18464c0,-23.05559 0,-69.13003 0,-82.09091c0,-6.64651 5.16204,-13.75472 13.64097,-13.75472c34.6915,0 124.90883,0 144.27273,0c7.15266,0 13.9137,7.16213 13.9137,13.84562c0,12.92917 0,58.60982 0,81.72728c0,8.24133 -5.27286,13.61508 -13.9137,13.61508c-34.88915,0 -124.68663,-0.00001 -144,-0.00001c-7.15266,0 -13.9137,-5.25502 -13.9137,-13.34235z" fill="#9966ff" stroke-width="0"/><text transform="translate(157.05823,232.28607) scale(0.33586,0.33586)" font-size="40" xml:space="preserve" fill="#ffffff" fill-rule="nonzero" stroke="none" stroke-width="1" stroke-linecap="butt" stroke-linejoin="miter" stroke-miterlimit="10" stroke-dasharray="" stroke-dashoffset="0" font-family="Sans Serif" font-weight="normal" text-anchor="start" style="mix-blend-mode: normal"><tspan x="0" dy="0">Sample Video lmao</tspan></text><text transform="translate(223.00915,179.33388) scale(1.36674,1.36674)" font-size="40" xml:space="preserve" fill="#ffffff" fill-rule="nonzero" stroke="none" stroke-width="1" stroke-linecap="butt" stroke-linejoin="miter" stroke-miterlimit="10" stroke-dasharray="" stroke-dashoffset="0" font-family="Sans Serif" font-weight="normal" text-anchor="start" style="mix-blend-mode: normal"><tspan x="0" dy="0">:)</tspan></text></g></g></svg>