<svg version="1.1" xmlns="http://www.w3.org/2000/svg" xmlns:xlink="http://www.w3.org/1999/xlink" width="488.16667" height="368.16667" viewBox="0,0,488.16667,368.16667"><g transform="translate(4.08334,4.08334)"><g data-paper-data="{&quot;isPaintingLayer&quot;:true}" fill-rule="nonzero" stroke-linecap="butt" stroke-linejoin="miter" stroke-miterlimit="10" stroke-dasharray="" stroke-dashoffset="0" style="mix-blend-mode: normal"><path d="M-0.33333,360.33333v-360.66666h480.66667v360.66667z" fill="#ffffff" stroke="#ffffff" stroke-width="7.5"/><path d="M129.01565,360.17362v-107h39v107z" fill="#00fbc1" stroke="none" stroke-width="0"/><g><path d="M223.70653,195.37747c-0.99731,42.79045 -33.96085,76.72952 -73.62616,75.80506c-39.6653,-0.92447 -71.01191,-36.3624 -70.0146,-79.15286c0.99731,-42.79045 33.96088,-76.72953 73.62618,-75.80506c39.6653,0.92447 71.01191,36.36242 70.0146,79.15287z" fill="#000000" stroke="#ffffff" stroke-width="0"/><path d="M222.31118,97.31833c-0.64985,27.88281 -30.27026,49.80821 -66.15902,48.97176c-35.88876,-0.83645 -64.45554,-24.11801 -63.80569,-52.00082c0.64985,-27.88281 30.27026,-49.8082 66.15903,-48.97176c35.88877,0.83644 64.45554,24.11801 63.80568,52.00082z" fill="#ff0000" stroke="#ffffff" stroke-width="0"/><path d="M89.51326,156.49594c-0.70006,-2.39998 1.69992,-3.10004 1.69992,-3.10004l0.44886,0.16129c2.13101,-2.00973 4.59951,-3.8438 7.2654,-5.47097c-0.97448,-7.99694 -1.59342,-16.11322 -1.76966,-24.0548c-0.01954,-0.88054 0.23277,-10.6605 0.44541,-11.0713c0.87103,-1.68272 2.6524,-3.69522 4.52921,-3.43487c2.17282,0.30141 2.99269,3.21377 4.60436,4.70189c4.55866,4.20917 8.91203,8.53672 13.22289,13.05332c1.69873,1.77981 3.20243,3.76656 5.08737,5.34781c2.8949,2.42848 6.22124,3.12271 5.68698,8.46862c-0.45056,4.50841 -6.73392,4.32029 -9.25955,4.57783c-5.59007,0.57004 -11.66603,2.30634 -17.07633,5.04318c0.2725,2.34628 0.58433,4.69141 0.95152,7.03766c0.23853,1.52419 0.32231,3.08877 0.7802,4.562c0.46645,1.50081 1.6347,2.74838 1.96916,4.28402c0.32453,1.49003 -0.02649,3.0498 -0.03972,4.57469c0,0 -0.05824,2.49932 -2.55757,2.44106c-2.49932,-0.05825 -2.44108,-2.55757 -2.44108,-2.55757c0.19534,-4.55833 -1.90111,-7.90647 -2.64862,-12.51699c-0.27026,-1.66695 -0.52618,-3.34516 -0.7669,-5.0318c-1.63893,1.11662 -3.16361,2.33975 -4.53084,3.66317l-2.50094,1.02173c0,0 -2.39998,0.70006 -3.10004,-1.69992z" fill="#000000" stroke="none" stroke-width="0.5"/><path d="M289.53546,131.39393c-0.25737,11.04269 -29.5596,19.3165 -65.44836,18.48004c-35.88876,-0.83645 -64.77372,-10.46641 -64.51634,-21.50909c0.25737,-11.04269 29.5596,-19.3165 65.44835,-18.48005c35.88876,0.83645 64.77372,10.46641 64.51635,21.5091z" fill="#ff0000" stroke="#ffffff" stroke-width="0"/><path d="M212.28404,227.11994c-2.49932,-0.05826 -2.44106,-2.55757 -2.44106,-2.55757l0.04659,-1.99945c0.05783,-1.52388 -0.21837,-3.09781 0.17345,-4.57158c0.38299,-1.44067 1.69076,-2.51679 2.09266,-3.9523c0.32416,-1.15787 -0.07632,-2.40888 0.02373,-3.60712c0.42255,-5.06055 1.89337,-9.88487 2.29126,-14.92834c-1.28219,-0.54458 -2.55409,-1.09375 -3.80072,-1.66281c-7.08279,-3.23317 -14.07033,-6.71503 -20.99566,-10.27379c-5.44051,-2.79576 -10.95924,-5.41817 -16.41548,-8.1825c-4.58891,-2.32489 -8.09447,-4.43586 -13.14458,-5.5442c0,0 -2.43936,-0.54729 -1.89208,-2.98664c0.54728,-2.43936 2.98664,-1.89209 2.98664,-1.89209c5.45541,1.24733 9.35673,3.45333 14.30973,5.9627c5.46478,2.76866 10.99216,5.39526 16.44113,8.19558c8.24407,4.23678 16.58745,8.25063 25.01564,12.10263c0.04786,-0.00083 0.0967,-0.0007 0.14649,0.00046c1.00324,0.02338 1.59439,0.4401 1.94263,0.9306c3.37646,1.46333 6.8978,2.83655 10.06931,4.6249c2.85863,1.61191 5.65705,3.34725 8.62546,4.74674c4.00481,1.89281 8.00961,3.78558 12.01441,5.67839l0.98944,-0.19246c0,0 2.49932,0.05825 2.44108,2.55757c-0.05826,2.49932 -2.55757,2.44107 -2.55757,2.44107l-3.00948,-0.28566c-4.00481,-1.89281 -8.0096,-3.78557 -12.0144,-5.67837c-3.04775,-1.44384 -5.93457,-3.20639 -8.86831,-4.8697c-2.38147,-1.3502 -4.9155,-2.52057 -7.48271,-3.63327c-0.55085,4.48265 -1.70154,8.82864 -2.11513,13.36746c-0.1329,1.45853 0.21952,2.97689 -0.16267,4.39072c-0.38901,1.43905 -1.68359,2.51882 -2.09266,3.95231c-0.3134,1.09824 -0.00864,2.28415 -0.01296,3.42625l-0.0466,1.99946c0,0 -0.05824,2.49932 -2.55757,2.44107z" fill="#ff0000" stroke="none" stroke-width="0.5"/></g><g><path d="M204.81397,296.96048c0.56965,-0.25644 1.13508,-0.51841 1.70086,-0.77604c-0.37945,-0.3949 -0.60009,-0.96456 -0.75981,-1.59275c-0.03961,-0.02001 -0.07877,-0.04073 -0.11749,-0.06218c-0.02453,0.12505 -0.05151,0.24961 -0.08104,0.37359c-0.16948,0.71181 -0.43646,1.39112 -0.74254,2.05739zM188.18921,296.66918c0.57872,-0.58749 0.9918,-1.37701 1.64364,-1.88972c1.42841,-1.12355 3.35422,-2.42056 5.36263,-3.60502c3.79903,-8.60765 5.67677,-17.85037 8.53942,-26.80637c0.47094,-1.47066 0.94187,-2.94133 1.41282,-4.41199l0.05746,-0.08086l-0.02277,-0.00928l1.34538,-3.3033c0.29838,-0.76432 0.96653,-1.36627 1.83026,-1.54247c1.10191,-0.22478 2.18229,0.31268 2.69432,1.25082l2.46854,4.28173c4.22932,5.67123 5.93891,12.84176 8.15433,19.45526c0.24318,-0.14318 0.53886,-0.25831 0.89791,-0.33156c2.44956,-0.49969 2.94924,1.94986 2.94924,1.94986l-1.54626,3.64902c0.93219,1.52859 1.51602,2.78291 -0.30268,5.59996c-1.05158,1.62881 -3.02223,2.55798 -4.80757,3.60138c-0.07537,0.39088 -0.19291,0.80707 -0.35719,1.24934c-0.21487,0.57849 -2.27019,1.65442 -4.53407,2.69421c-1.33654,1.15794 -2.72523,2.24256 -4.28949,3.03999c-7.26078,3.70137 -16.0858,4.94443 -24.35642,6.32528c-3.19986,0.73389 -6.55277,1.23721 -9.70872,1.88101c-3.26607,0.66626 -6.52,1.39505 -9.7982,1.99878c-1.6261,0.29947 -3.34143,1.37098 -4.89473,0.80428c-8.10757,-2.95797 -3.74652,-5.30091 0.05716,-7.71191c0.86404,-0.54767 2.86558,-1.45157 4.84813,-2.30166c-5.26454,-2.02273 -9.80163,-5.42765 -15.04913,-7.54275c0,0 -2.31533,-0.94299 -1.37234,-3.25833c0.94299,-2.31534 3.25833,-1.37234 3.25833,-1.37234c5.27367,2.16732 10.13717,5.83605 15.56258,7.80346c0.25743,-0.16873 0.55056,-0.29242 0.87051,-0.3577c0.67643,-0.13799 1.34475,0.01127 1.87844,0.36413l1.73014,1.14386c0.41976,0.06028 0.84383,0.10716 1.27257,0.13939c2.36982,-0.11594 6.16566,-0.93589 7.44908,-1.16938c2.45175,-0.44606 4.61538,-0.88914 6.75665,-1.53714zM208.72081,285.0134c0.17355,-0.22033 0.30335,-0.48346 0.39275,-0.80458c-0.0938,-0.37462 -0.19131,-0.74996 -0.291,-1.12516c-0.05021,0.47672 -0.08682,0.95428 -0.10672,1.43296c-0.00692,0.16635 -0.00481,0.33191 0.00496,0.49676zM214.42322,282.52582c-0.00593,0.50574 -0.04802,0.99952 -0.12638,1.47838c0.29171,-0.15201 0.58443,-0.30163 0.87828,-0.44849c-0.26808,-0.33266 -0.51763,-0.67643 -0.75189,-1.02989zM197.14152,298.86599c-0.06861,0.12656 -0.13867,0.25195 -0.21046,0.37605c0.17909,-0.02791 0.35821,-0.05561 0.53726,-0.08354l0.05858,-0.4837c-0.12775,0.0646 -0.25622,0.12831 -0.38538,0.19119zM209.53337,262.85165l-0.08034,0.04631c-0.13965,0.43734 -0.27929,0.8747 -0.41894,1.31204c0.44758,0.06088 0.86594,0.24228 1.21329,0.51659c-0.27324,-0.60504 -0.51679,-1.22339 -0.71401,-1.87493z" fill="#00fbc1" stroke="none" stroke-width="0.5"/><path d="M256.34344,269.21541c3.64285,17.85763 -6.82322,35.07152 -23.37664,38.44832c-16.55341,3.3768 -32.92572,-8.36222 -36.56858,-26.21985c-3.64285,-17.85763 6.82323,-35.07152 23.37665,-38.44832c16.55341,-3.3768 32.92571,8.36223 36.56857,26.21985z" fill="#000000" stroke="#ffffff" stroke-width="0"/></g><text transform="translate(152.01564,38.17362) scale(0.5,0.5)" font-size="40" xml:space="preserve" fill="#000000" fill-rule="nonzero" stroke="none" stroke-width="1" stroke-linecap="butt" stroke-linejoin="miter" stroke-miterlimit="10" stroke-dasharray="" stroke-dashoffset="0" font-family="Sans Serif" font-weight="normal" text-anchor="start" style="mix-blend-mode: normal"><tspan x="0" dy="0">I'm The Real Gabe!</tspan></text></g></g></svg>