<svg version="1.1" xmlns="http://www.w3.org/2000/svg" xmlns:xlink="http://www.w3.org/1999/xlink" width="182.33334" height="127.81198" viewBox="0,0,182.33334,127.81198"><defs><radialGradient cx="182.83333" cy="197.5" r="34.33334" gradientUnits="userSpaceOnUse" id="color-1"><stop offset="0" stop-color="#1f1f1f"/><stop offset="1" stop-color="#1f1f1f" stop-opacity="0"/></radialGradient><radialGradient cx="296.5" cy="197.5" r="34.33333" gradientUnits="userSpaceOnUse" id="color-2"><stop offset="0" stop-color="#1f1f1f"/><stop offset="1" stop-color="#1f1f1f" stop-opacity="0"/></radialGradient><radialGradient cx="213.83334" cy="197.5" r="34.33333" gradientUnits="userSpaceOnUse" id="color-3"><stop offset="0" stop-color="#1f1f1f"/><stop offset="1" stop-color="#1f1f1f" stop-opacity="0"/></radialGradient><radialGradient cx="267.5" cy="197.5" r="34.33334" gradientUnits="userSpaceOnUse" id="color-4"><stop offset="0" stop-color="#1f1f1f"/><stop offset="1" stop-color="#1f1f1f" stop-opacity="0"/></radialGradient><radialGradient cx="239.5" cy="197.5" r="34.33334" gradientUnits="userSpaceOnUse" id="color-5"><stop offset="0" stop-color="#1f1f1f"/><stop offset="1" stop-color="#1f1f1f" stop-opacity="0"/></radialGradient></defs><g transform="translate(-148.5,-108.33901)"><g data-paper-data="{&quot;isPaintingLayer&quot;:true}" fill-rule="nonzero" stroke-linejoin="miter" stroke-miterlimit="10" stroke-dasharray="" stroke-dashoffset="0" style="mix-blend-mode: normal"><g stroke="none" stroke-width="0" stroke-linecap="butt"><path d="M148.5,197.5c0,-18.96177 15.37156,-34.33334 34.33334,-34.33334c18.96177,0 34.33334,15.37156 34.33334,34.33334c0,18.96177 -15.37156,34.33334 -34.33334,34.33334c-18.96177,0 -34.33334,-15.37156 -34.33334,-34.33334z" fill="url(#color-1)"/><path d="M262.16667,197.5c0,-18.96177 15.37156,-34.33334 34.33334,-34.33334c18.96177,0 34.33333,15.37156 34.33333,34.33334c0,18.96177 -15.37156,34.33334 -34.33333,34.33334c-18.96177,0 -34.33334,-15.37156 -34.33334,-34.33334z" fill="url(#color-2)"/><path d="M179.5,197.5c0,-18.96177 15.37156,-34.33334 34.33334,-34.33334c18.96177,0 34.33333,15.37156 34.33333,34.33334c0,18.96177 -15.37156,34.33334 -34.33333,34.33334c-18.96177,0 -34.33334,-15.37156 -34.33334,-34.33334z" fill="url(#color-3)"/><path d="M233.16667,197.5c0,-18.96177 15.37156,-34.33334 34.33334,-34.33334c18.96177,0 34.33334,15.37156 34.33334,34.33334c0,18.96177 -15.37156,34.33334 -34.33334,34.33334c-18.96178,0 -34.33334,-15.37156 -34.33334,-34.33334z" fill="url(#color-4)"/><path d="M205.16667,197.5c0,-18.96177 15.37156,-34.33334 34.33334,-34.33334c18.96178,0 34.33334,15.37156 34.33334,34.33334c0,18.96177 -15.37156,34.33334 -34.33334,34.33334c-18.96177,0 -34.33334,-15.37156 -34.33334,-34.33334z" fill="url(#color-5)"/></g><path d="M154.0863,204.18464c0,-23.05559 0,-69.13003 0,-82.09091c0,-6.64651 5.16204,-13.75472 13.64097,-13.75472c34.6915,0 124.90883,0 144.27273,0c7.15266,0 13.9137,7.16213 13.9137,13.84562c0,12.92917 0,58.60982 0,81.72728c0,8.24133 -5.27286,13.61508 -13.9137,13.61508c-34.88915,0 -124.68663,-0.00001 -144,-0.00001c-7.15266,0 -13.9137,-5.25502 -13.9137,-13.34235z" fill="#ffffff" stroke="none" stroke-width="0" stroke-linecap="butt"/><text transform="translate(154.39156,231.95274) scale(0.33586,0.33586)" font-size="40" xml:space="preserve" fill="#ffffff" fill-rule="nonzero" stroke="none" stroke-width="1" stroke-linecap="butt" stroke-linejoin="miter" stroke-miterlimit="10" stroke-dasharray="" stroke-dashoffset="0" font-family="Sans Serif" font-weight="normal" text-anchor="start" style="mix-blend-mode: normal"><tspan x="0" dy="0">Orange's Potion</tspan></text><g><g stroke="none" stroke-width="1" stroke-linecap="butt"><path d="M267.77389,159.75769c0,0 -2.10163,-0.78811 -0.64217,-1.72217c1.6346,-1.02163 7.9103,-0.20432 4.23245,1.86811c0,0 1.10919,15.12005 2.27677,19.35249c0.40865,1.43028 -2.77298,1.8973 -4.93299,1.78054c-2.59785,-0.14594 -3.09406,-0.87568 -2.86055,-1.80974c0.37946,-1.40108 1.8973,-16.63789 1.92649,-19.46924z" fill="#cae8de"/><path d="M266.48956,179.54802c0.93405,-6.56758 0.72973,-12.63896 1.31352,-13.77734c0.37946,-0.75892 2.94812,-0.58379 3.5319,0.14594c0.46703,0.5546 0.72973,9.92435 1.60541,13.51463c0.29189,1.28433 -6.65516,1.57622 -6.45083,0.11676z" fill="#6136ab"/><path d="M267.7447,165.85825c0.05838,-0.78811 3.18163,-0.72973 3.59028,0.05838c-0.02919,0.49622 -3.64866,0.29189 -3.59028,-0.05838z" fill="#8440cc"/><path d="M272.94039,179.46045c0.20432,1.25514 -6.01299,1.48866 -6.45083,0.2627c-0.08757,-0.14594 -0.11676,-0.58379 2.94812,-0.78811c3.56109,-0.23351 3.50271,0.52541 3.50271,0.52541z" fill="#3d2087"/><path d="M271.74363,158.41499c0,0.29189 -0.87568,0.58379 -2.18919,0.58379c-1.31352,0 -2.27677,-0.11676 -2.27677,-0.40865c0,-0.29189 0.96325,-0.70054 2.30595,-0.70054c1.34271,0 2.16001,0.23351 2.16001,0.52541z" fill="#b6cfd1"/><path d="M271.74363,158.41499c0,0 0,0.02919 0,0.05838c0,0.02919 -0.02919,0.08757 -0.08757,0.11676c-0.05838,0.02919 -0.11676,0.08757 -0.20432,0.11676c-0.08757,0.02919 -0.17514,0.05838 -0.29189,0.08757c-0.20432,0.05838 -0.46703,0.08757 -0.75892,0.11676c-0.29189,0.02919 -0.58379,0.02919 -0.87568,0.05838c-0.29189,0 -0.58379,0 -0.87568,-0.02919c-0.29189,0 -0.52541,-0.05838 -0.75892,-0.08757c-0.20432,0 -0.37946,-0.05838 -0.49622,-0.11676c-0.05838,-0.02919 -0.08757,-0.05838 -0.11676,-0.11676c-0.02919,-0.02919 0,-0.05838 0,-0.05838c0,0 0,0.02919 0,0.05838c0.02919,0.02919 0.05838,0.05838 0.11676,0.08757c0.14594,0.05838 0.32108,0.08757 0.52541,0.08757c0.23351,0.02919 0.49622,0.02919 0.75892,0.02919c0.2627,0 0.5546,0 0.87568,0c0.29189,0 0.58379,0 0.87568,-0.02919c0.2627,-0.02919 0.52541,-0.02919 0.75892,-0.08757c0.20432,-0.02919 0.40865,-0.08757 0.49622,-0.14594c0.05838,-0.02919 0.08757,-0.05838 0.08757,-0.11676z" fill="#96b7c4"/><path d="M267.24848,159.55337c0,0 0.11676,0.05838 0.2627,0.11676c0.17514,0.02919 0.37946,0.11676 0.61297,0.17514c0.11676,0.02919 0.23351,0.05838 0.32108,0.05838c0.11676,0.02919 0.20432,0.02919 0.29189,0.05838c0.08757,0.02919 0.14594,0.02919 0.20432,0.02919c0.05838,0 0.08757,0.02919 0.08757,0.02919c0,0 -0.11676,0.02919 -0.29189,0.02919c-0.08757,0 -0.20432,0 -0.29189,0c-0.11676,0 -0.23351,-0.02919 -0.35027,-0.05838c-0.23351,-0.05838 -0.46703,-0.17514 -0.61297,-0.2627c-0.14594,-0.08757 -0.23351,-0.17514 -0.23351,-0.17514z" fill="#96b7c4"/><path d="M272.47336,158.70688c0,0 0,0.17514 -0.11676,0.40865c-0.05838,0.11676 -0.14594,0.2627 -0.2627,0.37946c-0.11676,0.11676 -0.2627,0.23351 -0.40865,0.32108c-0.14594,0.08757 -0.32108,0.14594 -0.46703,0.17514c-0.08757,0.02919 -0.14594,0.02919 -0.23351,0.02919c-0.08757,0 -0.14594,0 -0.20432,0c-0.11676,0.02919 -0.23351,0 -0.32108,0c-0.08757,0 -0.11676,0 -0.11676,0c0,0 0.02919,0 0.11676,-0.02919c0.08757,0 0.17514,-0.02919 0.29189,-0.02919c0.05838,0 0.11676,-0.02919 0.20432,-0.02919c0.05838,-0.02919 0.14594,-0.02919 0.20432,-0.05838c0.08757,-0.02919 0.14594,-0.05838 0.23351,-0.08757c0.08757,-0.02919 0.14594,-0.05838 0.23351,-0.11676c0.05838,-0.05838 0.14594,-0.08757 0.20432,-0.14594c0.05838,-0.05838 0.11676,-0.08757 0.17514,-0.14594c0.11676,-0.11676 0.20432,-0.20432 0.2627,-0.32108c0.14594,-0.17514 0.20432,-0.35027 0.20432,-0.35027z" fill="#96b7c4"/><path d="M267.16092,158.59012c0,0 -0.02919,0.02919 -0.02919,0.11676c0,0.02919 0,0.08757 0.02919,0.11676c0.02919,0.05838 0.08757,0.08757 0.14594,0.11676c0.05838,0.05838 0.11676,0.08757 0.17514,0.11676c0.05838,0.02919 0.14594,0.02919 0.23351,0.05838c0.17514,0.02919 0.35027,0.05838 0.52541,0.08757c0.08757,0.02919 0.17514,0.02919 0.2627,0.02919c0.08757,0 0.17514,0.02919 0.2627,0.02919c0.17514,0 0.35027,0.02919 0.46703,0.02919c0.29189,0.02919 0.46703,0.02919 0.46703,0.02919c0,0 -0.11676,0.02919 -0.40865,0.05838c-0.14594,0 -0.32108,0 -0.49622,0c-0.08757,0 -0.17514,0 -0.2627,0c-0.08757,-0.02919 -0.20432,-0.02919 -0.29189,-0.02919c-0.17514,-0.02919 -0.37946,-0.05838 -0.5546,-0.11676c-0.08757,-0.02919 -0.17514,-0.05838 -0.23351,-0.08757c-0.08757,-0.02919 -0.14594,-0.08757 -0.20432,-0.11676c-0.05838,-0.05838 -0.11676,-0.11676 -0.11676,-0.17514c-0.02919,-0.05838 -0.02919,-0.11676 -0.02919,-0.14594c0,-0.08757 0.05838,-0.11676 0.05838,-0.11676z" fill="#ffffff"/><path d="M268.24092,177.12531c0,0 0.02919,0 0.08757,0c0.05838,0 0.14594,0.02919 0.20432,0.08757c0.02919,0.02919 0.05838,0.08757 0.05838,0.14594v0.05838v0.02919c0,0.02919 -0.02919,0.05838 -0.02919,0.08757c-0.05838,0.11676 -0.17514,0.17514 -0.29189,0.20432c-0.05838,0 -0.14594,0 -0.20432,-0.02919c-0.05838,-0.02919 -0.11676,-0.08757 -0.14594,-0.14594c-0.02919,-0.05838 -0.05838,-0.14594 -0.02919,-0.17514c0,-0.05838 0.02919,-0.11676 0.05838,-0.17514c0.08757,-0.05838 0.17514,-0.08757 0.20432,-0.08757c0.05838,0 0.08757,0 0.08757,0zM268.24092,177.12531c0,0 -0.02919,0 -0.08757,0.02919c-0.05838,0.02919 -0.08757,0.08757 -0.11676,0.14594c0,0.02919 -0.02919,0.05838 -0.02919,0.08757c0,0.05838 0,0.08757 0.02919,0.11676c0,0.02919 0.02919,0.05838 0.08757,0.08757c0.02919,0.02919 0.08757,0.05838 0.14594,0.05838c0.05838,0 0.11676,0 0.14594,-0.02919c0.02919,-0.02919 0.05838,-0.08757 0.08757,-0.11676c0,-0.02919 0,-0.08757 0,-0.11676c0,-0.02919 -0.02919,-0.05838 -0.02919,-0.11676c-0.05838,-0.05838 -0.11676,-0.11676 -0.14594,-0.11676c-0.05838,-0.02919 -0.08757,-0.02919 -0.08757,-0.02919z" fill="#ad9cff"/><path d="M271.86039,176.27882c0,0 0,0.05838 -0.05838,0.14594c-0.02919,0.02919 -0.02919,0.02919 -0.05838,0.02919c-0.02919,0 -0.05838,0 -0.08757,0c-0.08757,0 -0.14594,-0.08757 -0.14594,-0.17514c0,-0.02919 0.02919,-0.08757 0.02919,-0.11676c0.02919,-0.02919 0.05838,-0.05838 0.08757,-0.05838c0.05838,-0.02919 0.14594,0 0.17514,0.05838c0.08757,0.05838 0.05838,0.11676 0.05838,0.11676zM271.86039,176.27882c0,-0.05838 -0.02919,-0.08757 -0.05838,-0.08757c-0.02919,0 -0.08757,0 -0.11676,0.02919l-0.02919,0.02919c0,0.02919 0,0.02919 0,0.05838c0,0.02919 0,0.05838 0.02919,0.08757c0,0 0.02919,0.02919 0.05838,0.02919c0.02919,0 0.02919,0 0.05838,0c0.02919,0 0.05838,-0.05838 0.05838,-0.05838c0,-0.05838 0,-0.08757 0,-0.08757z" fill="#ad9cff"/><path d="M271.21823,176.51234c0,0 -0.05838,0.02919 -0.17514,0.08757c-0.11676,0.05838 -0.29189,0.11676 -0.49622,0.02919c-0.11676,-0.02919 -0.20432,-0.08757 -0.29189,-0.20432c-0.02919,-0.02919 -0.02919,-0.05838 -0.05838,-0.08757c0,-0.02919 -0.02919,-0.05838 -0.02919,-0.08757c-0.02919,-0.05838 -0.05838,-0.11676 -0.05838,-0.20432c-0.02919,-0.2627 0.05838,-0.5546 0.29189,-0.72973c0.11676,-0.08757 0.2627,-0.14594 0.40865,-0.17514c0.14594,0 0.29189,0.02919 0.40865,0.08757c0.11676,0.05838 0.23351,0.17514 0.29189,0.29189c0.05838,0.11676 0.08757,0.23351 0.08757,0.35027c0,0.23351 -0.11676,0.37946 -0.20432,0.46703c-0.11676,0.11676 -0.17514,0.17514 -0.17514,0.17514zM271.18903,176.48315c0,0 0,0 0.02919,-0.02919c0.02919,-0.02919 0.05838,-0.05838 0.08757,-0.08757c0.05838,-0.08757 0.11676,-0.2627 0.08757,-0.43784c0,-0.08757 -0.02919,-0.17514 -0.08757,-0.2627c-0.05838,-0.08757 -0.11676,-0.17514 -0.23351,-0.23351c-0.20432,-0.11676 -0.46703,-0.11676 -0.67135,0c-0.11676,0.05838 -0.20432,0.17514 -0.23351,0.29189c-0.05838,0.11676 -0.05838,0.2627 0,0.37946c0.02919,0.11676 0.11676,0.20432 0.17514,0.29189c0.08757,0.08757 0.14594,0.11676 0.23351,0.17514c0.17514,0.08757 0.35027,0.08757 0.46703,0.02919c0.05838,-0.02919 0.08757,-0.02919 0.11676,-0.05838c0.02919,-0.05838 0.02919,-0.05838 0.02919,-0.05838z" fill="#ad9cff"/><path d="M270.10903,174.64422c0,0 -0.02919,0.02919 -0.08757,0.02919c-0.05838,0.02919 -0.14594,0.05838 -0.2627,0.02919c-0.05838,-0.02919 -0.11676,-0.05838 -0.14594,-0.11676c0,-0.02919 -0.02919,-0.02919 -0.02919,-0.05838c0,0 0,-0.02919 -0.02919,-0.05838c0,-0.02919 0,-0.05838 0,-0.11676c0,-0.14594 0.05838,-0.2627 0.20432,-0.37946c0.05838,-0.05838 0.14594,-0.08757 0.20432,-0.08757c0.08757,0 0.14594,0.02919 0.23351,0.05838c0.05838,0.02919 0.11676,0.11676 0.14594,0.17514c0.02919,0.05838 0.02919,0.14594 0.02919,0.20432c-0.02919,0.11676 -0.11676,0.17514 -0.14594,0.23351c-0.08757,0.08757 -0.11676,0.08757 -0.11676,0.08757zM270.10903,174.64422c0,0 0.02919,-0.02919 0.05838,-0.05838c0.02919,-0.05838 0.05838,-0.11676 0.05838,-0.20432c0,-0.02919 -0.02919,-0.08757 -0.02919,-0.11676c-0.02919,-0.05838 -0.05838,-0.08757 -0.08757,-0.11676c-0.02919,-0.02919 -0.08757,-0.05838 -0.14594,-0.05838c-0.05838,0 -0.11676,0 -0.17514,0.02919c-0.05838,0.02919 -0.11676,0.05838 -0.14594,0.11676c-0.02919,0.05838 -0.02919,0.11676 -0.02919,0.17514c0,0.05838 0.05838,0.08757 0.08757,0.14594c0.02919,0.02919 0.05838,0.05838 0.08757,0.08757c0.05838,0.05838 0.14594,0.08757 0.20432,0.05838c0.08757,-0.02919 0.11676,-0.05838 0.11676,-0.05838z" fill="#ad9cff"/><path d="M269.23335,171.75448c0,0 0,0.08757 -0.08757,0.17514c-0.02919,0.02919 -0.05838,0.02919 -0.08757,0.05838c-0.02919,0 -0.08757,0 -0.11676,0c-0.08757,-0.02919 -0.17514,-0.11676 -0.17514,-0.23351c0,-0.05838 0.02919,-0.11676 0.05838,-0.14594c0.02919,-0.02919 0.08757,-0.05838 0.11676,-0.08757c0.08757,-0.02919 0.17514,0 0.20432,0.05838c0.08757,0.08757 0.08757,0.17514 0.08757,0.17514zM269.23335,171.75448c0,0 0,-0.02919 0,-0.05838c0,-0.02919 -0.02919,-0.08757 -0.08757,-0.08757c-0.05838,-0.02919 -0.11676,-0.02919 -0.14594,0.02919c-0.02919,0.02919 -0.02919,0.02919 -0.05838,0.05838c0,0.02919 -0.02919,0.02919 -0.02919,0.05838c0,0.05838 0.02919,0.08757 0.05838,0.14594c0.02919,0 0.05838,0 0.08757,0c0.02919,0 0.05838,0 0.08757,0c0.05838,-0.02919 0.08757,-0.05838 0.08757,-0.08757c0,-0.02919 0,-0.05838 0,-0.05838z" fill="#ad9cff"/><path d="M268.47443,176.6291c0,0 -0.08757,-0.02919 -0.11676,-0.14594c0,-0.02919 0,-0.05838 0,-0.11676c0,-0.02919 0.02919,-0.08757 0.05838,-0.11676c0.05838,-0.08757 0.17514,-0.08757 0.2627,-0.05838c0.02919,0.02919 0.08757,0.05838 0.11676,0.11676c0.02919,0.05838 0.02919,0.08757 0.02919,0.14594c-0.02919,0.08757 -0.08757,0.14594 -0.14594,0.17514c-0.11676,0.02919 -0.20432,-0.02919 -0.20432,0zM268.47443,176.6291c0,0 0.02919,0 0.05838,0c0.02919,0 0.08757,0 0.11676,-0.02919c0.05838,-0.02919 0.05838,-0.08757 0.05838,-0.14594c0,-0.02919 -0.02919,-0.05838 -0.02919,-0.05838c-0.02919,-0.02919 -0.02919,-0.02919 -0.05838,-0.05838c-0.02919,-0.02919 -0.08757,-0.02919 -0.14594,0c-0.02919,0 -0.05838,0.02919 -0.05838,0.05838c0,0.02919 -0.02919,0.05838 -0.02919,0.08757c0,0.05838 0.02919,0.08757 0.05838,0.11676c0.02919,0 0.02919,0.02919 0.02919,0.02919z" fill="#ad9cff"/><path d="M268.38687,161.45067c0,0 0,0.2627 0,0.75892c0,0.46703 0,1.13838 -0.02919,1.95568c-0.02919,0.8173 -0.05838,1.75136 -0.08757,2.77298c-0.05838,1.02163 -0.11676,2.10163 -0.20432,3.18163c-0.08757,1.08 -0.20432,2.16001 -0.29189,3.18163c-0.05838,0.49622 -0.11676,0.99243 -0.17514,1.45946c-0.05838,0.46703 -0.11676,0.90487 -0.17514,1.31352c-0.08757,0.8173 -0.20432,1.48866 -0.29189,1.95568c-0.05838,0.46703 -0.11676,0.72973 -0.11676,0.72973c0,0 0.02919,-0.2627 0.08757,-0.72973c0.05838,-0.46703 0.11676,-1.13838 0.23351,-1.95568c0.02919,-0.40865 0.08757,-0.84649 0.14594,-1.31352c0.05838,-0.46703 0.08757,-0.96325 0.14594,-1.45946c0.08757,-1.02163 0.20432,-2.10163 0.2627,-3.15244c0.08757,-1.08 0.17514,-2.16001 0.23351,-3.18163c0.05838,-1.02163 0.11676,-1.95568 0.14594,-2.77298c0.08757,-1.66379 0.11676,-2.74379 0.11676,-2.74379z" fill="#ffffff"/><path d="M269.43768,181.03668c0,0 0.23351,0 0.61297,-0.05838c0.37946,-0.05838 0.96325,-0.11676 1.60541,-0.2627c0.32108,-0.08757 0.67135,-0.17514 1.02163,-0.35027c0.17514,-0.08757 0.35027,-0.17514 0.49622,-0.29189c0.14594,-0.11676 0.2627,-0.29189 0.32108,-0.46703c0.02919,-0.17514 -0.02919,-0.37946 -0.08757,-0.61297c-0.05838,-0.20432 -0.11676,-0.43784 -0.14594,-0.64217c-0.08757,-0.43784 -0.17514,-0.87568 -0.2627,-1.34271c-0.14594,-0.90487 -0.2627,-1.80974 -0.37946,-2.65622c-0.08757,-0.84649 -0.17514,-1.6346 -0.23351,-2.30595c-0.11676,-1.34271 -0.17514,-2.27677 -0.17514,-2.27677c0,0 0.08757,0.90487 0.23351,2.24757c0.08757,0.67135 0.17514,1.45946 0.29189,2.30595c0.11676,0.84649 0.23351,1.75136 0.37946,2.62703c0.08757,0.43784 0.17514,0.90487 0.2627,1.31352c0.02919,0.20432 0.08757,0.43784 0.14594,0.64217c0.02919,0.11676 0.05838,0.20432 0.08757,0.32108c0.02919,0.11676 0.02919,0.23351 0,0.35027c-0.05838,0.23351 -0.20432,0.40865 -0.35027,0.5546c-0.17514,0.14594 -0.35027,0.23351 -0.52541,0.32108c-0.37946,0.14594 -0.72973,0.23351 -1.05081,0.32108c-0.67135,0.14594 -1.22595,0.17514 -1.6346,0.20432c-0.37946,0.05838 -0.61297,0.05838 -0.61297,0.05838z" fill="#96b7c4"/><path d="M269.58363,180.48208c0,0 0.17514,0 0.49622,-0.02919c0.32108,-0.02919 0.75892,-0.08757 1.28433,-0.17514c0.2627,-0.05838 0.52541,-0.11676 0.8173,-0.23351c0.14594,-0.05838 0.29189,-0.11676 0.40865,-0.20432c0.11676,-0.08757 0.20432,-0.20432 0.20432,-0.35027c-0.05838,-0.32108 -0.11676,-0.67135 -0.17514,-0.99243c-0.05838,-0.35027 -0.08757,-0.70054 -0.14594,-1.05081c-0.20432,-1.40108 -0.35027,-2.83136 -0.43784,-3.88217c-0.08757,-1.05081 -0.11676,-1.78054 -0.11676,-1.78054c0,0 0.05838,0.70054 0.20432,1.78054c0.11676,1.05081 0.29189,2.48109 0.49622,3.88217c0.05838,0.35027 0.11676,0.70054 0.14594,1.05081c0.02919,0.17514 0.05838,0.35027 0.08757,0.52541c0.02919,0.17514 0.05838,0.32108 0.08757,0.52541c0,0.20432 -0.14594,0.35027 -0.2627,0.46703c-0.14594,0.08757 -0.29189,0.17514 -0.43784,0.23351c-0.29189,0.11676 -0.58379,0.17514 -0.84649,0.20432c-0.52541,0.08757 -0.96325,0.11676 -1.28433,0.11676c-0.35027,-0.08757 -0.52541,-0.08757 -0.52541,-0.08757z" fill="#1a1d3d"/><path d="M272.94039,179.46045c0,0 0,-0.02919 -0.02919,-0.05838c-0.02919,-0.02919 -0.05838,-0.05838 -0.11676,-0.08757c-0.05838,-0.02919 -0.14594,-0.05838 -0.23351,-0.08757c-0.08757,-0.02919 -0.20432,-0.05838 -0.32108,-0.08757c-0.23351,-0.05838 -0.49622,-0.08757 -0.8173,-0.08757c-0.29189,-0.02919 -0.61297,-0.02919 -0.93405,-0.02919c-0.32108,0 -0.64217,0 -0.93405,0c-0.29189,0 -0.58379,0.02919 -0.8173,0.02919c-0.46703,0.02919 -0.78811,0.02919 -0.78811,0.02919c0,0 0.32108,-0.05838 0.78811,-0.11676c0.2627,-0.02919 0.52541,-0.05838 0.84649,-0.05838c0.29189,0 0.61297,-0.02919 0.93405,-0.02919c0.32108,0 0.64217,0 0.93405,0.02919c0.29189,0.02919 0.58379,0.08757 0.8173,0.14594c0.11676,0.02919 0.23351,0.05838 0.32108,0.11676c0.08757,0.02919 0.17514,0.08757 0.23351,0.11676c0.05838,0.02919 0.08757,0.08757 0.11676,0.11676c0,0.02919 0,0.05838 0,0.05838z" fill="#1a1d3d"/><path d="M269.26254,179.11018c0,0 -0.02919,0.02919 -0.08757,0.05838c-0.05838,0.02919 -0.17514,0.08757 -0.32108,0.05838c-0.05838,0 -0.14594,-0.05838 -0.20432,-0.11676c-0.02919,-0.02919 -0.02919,-0.02919 -0.02919,-0.05838c0,-0.02919 -0.02919,-0.02919 -0.02919,-0.05838c-0.02919,-0.02919 -0.02919,-0.08757 -0.02919,-0.11676c-0.02919,-0.17514 0.02919,-0.35027 0.14594,-0.49622c0.05838,-0.05838 0.14594,-0.11676 0.2627,-0.14594c0.08757,-0.02919 0.20432,0 0.29189,0.02919c0.08757,0.02919 0.17514,0.11676 0.20432,0.17514c0.05838,0.08757 0.05838,0.14594 0.05838,0.23351c0,0.14594 -0.08757,0.2627 -0.11676,0.32108c-0.11676,0.11676 -0.14594,0.11676 -0.14594,0.11676zM269.26254,179.11018c0,0 0.02919,-0.02919 0.05838,-0.08757c0.02919,-0.05838 0.05838,-0.17514 0.02919,-0.29189c-0.02919,-0.05838 -0.02919,-0.11676 -0.05838,-0.14594c-0.02919,-0.05838 -0.08757,-0.08757 -0.14594,-0.11676c-0.05838,-0.02919 -0.11676,-0.05838 -0.20432,-0.05838c-0.08757,0 -0.14594,0.02919 -0.20432,0.05838c-0.05838,0.02919 -0.11676,0.11676 -0.14594,0.17514c-0.02919,0.08757 -0.02919,0.17514 0.02919,0.23351c0.02919,0.05838 0.08757,0.11676 0.11676,0.17514c0.05838,0.02919 0.08757,0.05838 0.14594,0.08757c0.11676,0.05838 0.20432,0.05838 0.29189,0.02919c0.05838,-0.02919 0.08757,-0.05838 0.08757,-0.05838z" fill="#ad9cff"/><path d="M271.88958,179.54802c0,0 -0.05838,0.02919 -0.17514,0.08757c-0.11676,0.05838 -0.29189,0.11676 -0.49622,0.02919c-0.11676,-0.02919 -0.20432,-0.08757 -0.29189,-0.20432c-0.02919,-0.02919 -0.02919,-0.05838 -0.05838,-0.08757c0,-0.02919 -0.02919,-0.05838 -0.02919,-0.08757c-0.02919,-0.05838 -0.05838,-0.11676 -0.05838,-0.20432c-0.02919,-0.2627 0.05838,-0.5546 0.29189,-0.72973c0.11676,-0.08757 0.2627,-0.14594 0.40865,-0.17514c0.14594,0 0.29189,0.02919 0.40865,0.08757c0.11676,0.05838 0.23351,0.17514 0.29189,0.29189c0.05838,0.11676 0.08757,0.23351 0.08757,0.35027c0,0.23351 -0.11676,0.37946 -0.20432,0.46703c-0.11676,0.14594 -0.17514,0.17514 -0.17514,0.17514zM271.86039,179.54802c0,0 0,0 0.02919,-0.02919c0.02919,-0.02919 0.05838,-0.05838 0.08757,-0.08757c0.05838,-0.08757 0.11676,-0.2627 0.08757,-0.43784c0,-0.08757 -0.02919,-0.17514 -0.08757,-0.2627c-0.05838,-0.08757 -0.11676,-0.17514 -0.23351,-0.23351c-0.20432,-0.11676 -0.46703,-0.11676 -0.67135,0c-0.11676,0.05838 -0.20432,0.17514 -0.23351,0.29189c-0.05838,0.11676 -0.05838,0.2627 0,0.37946c0.02919,0.11676 0.11676,0.20432 0.17514,0.29189c0.08757,0.08757 0.14594,0.11676 0.23351,0.17514c0.17514,0.08757 0.35027,0.08757 0.46703,0.02919c0.05838,-0.02919 0.08757,-0.02919 0.11676,-0.05838c0.02919,-0.05838 0.02919,-0.05838 0.02919,-0.05838z" fill="#ad9cff"/></g><path d="M270.22811,170.83857c0.33751,0.01417 0.68955,0.10065 1.04782,0.27462c1.45878,0.70837 1.64241,2.24505 1.10754,3.50196c-0.4826,1.58551 -2.35053,2.79545 -3.9102,1.66367c-0.61877,-0.29659 -1.0737,-0.81722 -1.32642,-1.43575c-3.18469,-0.34824 -6.39256,-0.45031 -9.56108,-0.9239c0,0 -1.1764,-0.17646 -0.99994,-1.35286c0.17646,-1.1764 1.35286,-0.99994 1.35286,-0.99994c3.0542,0.45985 6.14826,0.56588 9.22086,0.88628c0.09093,-0.2207 0.20838,-0.43595 0.35371,-0.64132c0.35348,-0.4995 1.04657,-0.63439 1.56986,-0.95158c0,0 0.60651,-0.32658 1.14497,-0.02117z" fill="#000000" stroke="none" stroke-width="0.5" stroke-linecap="butt"/><path d="M212.99706,190.52799c-1.41095,1.86575 -3.68074,0.97086 -4.87018,-0.57082c-0.93468,-1.21148 0.13864,-2.57847 0.65299,-3.51481c0,0 0.07758,-0.133 0.22476,-0.27538c0.06226,-2.93197 0.34256,-5.65621 1.35231,-8.52765c0,0 0.39591,-1.12174 1.51765,-0.72583c1.12174,0.39591 0.72583,1.51765 0.72583,1.51765c-0.92469,2.60962 -1.16388,5.0788 -1.2179,7.73563c1.77454,0.45054 2.70645,2.91732 1.61452,4.3612z" fill="#000000" stroke="none" stroke-width="0.5" stroke-linecap="butt"/><path d="M238.08018,197.77846c2.52606,-1.52545 4.28154,-1.58206 7.12903,-0.64071c0.27708,0.83102 1.10212,1.66 0.83124,2.49307c-0.78843,2.42479 -4.82841,1.34989 -6.46985,1.29368c-0.95808,-0.0328 -3.21597,0.48849 -3.8462,-0.10779c-0.69271,-0.6554 0.15236,-4.58022 0.2659,-5.43655c0.37112,-2.79896 0.89064,-5.5621 1.44805,-8.31842c0.66464,0.48931 1.34802,0.95137 2.08259,1.31929c-0.33702,1.64359 -0.63967,3.29281 -0.85946,4.95337c0,0 -0.52309,3.9451 -0.5614,4.23406c-0.00919,0.06931 -0.01529,0.13945 -0.01991,0.20999z" fill="#000000" stroke="none" stroke-width="0.5" stroke-linecap="butt"/><path d="M223.34735,197.67534c2.52606,-1.52545 4.28154,-1.58206 7.12903,-0.64071c0.27708,0.83102 1.10211,1.66 0.83124,2.49307c-0.78843,2.42479 -4.8284,1.34989 -6.46984,1.29368c-0.95808,-0.0328 -3.21597,0.48849 -3.8462,-0.10779c-0.69271,-0.6554 0.15236,-4.58023 0.2659,-5.43655c0.37112,-2.79896 0.89064,-5.5621 1.44805,-8.31842c0.66464,0.48931 1.34803,0.95137 2.08259,1.31929c-0.33702,1.64359 -0.63967,3.29281 -0.85946,4.95337c0,0 -0.52309,3.9451 -0.56141,4.23407c-0.00919,0.06931 -0.01529,0.13945 -0.01991,0.20999z" fill="#000000" stroke="none" stroke-width="0.5" stroke-linecap="butt"/><g><path d="M228.0035,136.74647c-0.64042,0.91782 -2.23234,1.58227 -2.94495,2.2769c-2.11124,2.05798 -3.51751,2.35851 -6.53156,2.87475c-2.53435,0.43407 -5.35299,0.86076 -7.8471,-0.06188c-1.75538,-0.64936 -4.04567,-4.84784 -4.3185,-6.76435c-0.63464,-4.45809 6.82431,-5.84937 9.84829,-6.12511c1.23032,-0.11218 2.10371,-0.238 3.3285,-0.3647c1.29555,-0.13402 2.58248,-0.2336 3.87581,-0.07881c1.45995,0.17473 2.51204,0.68537 3.59172,1.71091c0,0 2.01594,5.93543 1.39652,6.20452z" fill="#3cde00" stroke="#065114" stroke-width="3.5" stroke-linecap="butt"/><path d="M224.92765,138.0469l-1.5317,-5.69514c0,0 -0.2555,-1.48751 -2.36685,-1.2404c-13.12828,1.53654 -13.98188,3.42249 -13.98188,3.42249c0,0 -0.25992,-2.5994 3.36825,-3.73635c11.43146,-3.40941 13.64247,-1.40618 13.64247,-1.40618c0,0 0.5209,-0.19836 1.49056,3.52395c0.64226,2.46545 1.0799,4.37469 1.0799,4.37469z" fill="#30b300" stroke="#000000" stroke-width="0" stroke-linecap="round"/><path d="M230.97556,146.27217c-0.1172,0.13582 -0.29036,0.25374 -0.54343,0.32801c-1.03675,0.30426 -1.341,-0.73249 -1.341,-0.73249c-1.31984,-4.50458 -1.89998,-9.17696 -3.16126,-13.71476c-0.21821,-0.78507 -0.4372,-1.57049 -0.69066,-2.3449c-0.19589,-0.59852 -0.80529,-1.23129 -0.55063,-1.80727c0.33572,-0.75934 1.30122,-1.03701 2.00376,-1.47945c1.86877,-1.1769 4.09324,-1.61405 6.25212,-1.76584c1.08483,0.11842 2.41416,-0.43407 3.26426,0.2502c0.61172,0.49239 0.65382,1.4474 0.78254,2.22205c0.28242,1.69971 -0.49563,4.02724 -0.61522,5.74604c-0.21592,3.10341 0.0865,6.10764 -0.25466,9.21548c-0.0392,0.35709 -0.26715,2.73098 -0.43946,2.95793c-1.1875,1.56408 -2.69973,0.9705 -4.28381,1.11753z" fill="#de9400" stroke="#7a3509" stroke-width="3.5" stroke-linecap="butt"/><path d="M229.9578,125.99481l1.84498,18.80561l-2.57546,-0.48492c0,0 -1.34145,-7.41481 -1.79798,-9.24337c-0.73358,-2.93829 -1.9817,-6.67411 -1.9817,-6.67411c0,0 -0.18256,-0.35137 0.41068,-0.69558c2.91972,-1.6941 4.09949,-1.70763 4.09949,-1.70763z" fill="#b37700" stroke="#000000" stroke-width="0" stroke-linecap="round"/><path d="M212.96049,136.46361c0.20782,-0.49629 0.51446,-0.77602 0.89184,-0.94739c0.48834,-0.22175 1.09513,-0.26204 1.75956,-0.35529c1.06392,-0.14933 2.12345,-0.34789 3.16316,-0.61852c1.05557,-0.27476 3.83522,-1.11205 2.72169,1.309c-0.24881,0.54098 -3.40642,1.14972 -3.67666,1.18912c-0.6283,0.0916 -1.25976,0.16108 -1.88732,0.25759c-0.23954,0.03684 -1.88142,0.5213 -2.0897,0.34681z" fill="#30b300" stroke="none" stroke-width="0.5" stroke-linecap="butt"/></g><g stroke-linecap="butt"><path d="M232.87076,142.35313c13.8163,0 25.01663,10.98494 25.01663,24.53554c0,13.55061 -11.20033,24.53554 -25.01663,24.53554c-13.8163,0 -25.01663,-10.98494 -25.01663,-24.53554c0,-13.55061 11.20033,-24.53554 25.01663,-24.53554z" fill="#ffa900" stroke="none" stroke-width="0"/><path d="M211.72219,180.32828c0.60848,-0.40565 1.05103,0.01839 1.19187,0.18605c0.3205,-0.29359 0.79028,-0.19963 0.79028,-0.19963c2.91428,0.58285 5.79726,0.99824 8.75246,1.31684c1.37907,0.14868 2.80451,0.61902 4.20402,0.45889c3.9954,-0.45717 7.83681,-1.67935 11.17606,-3.91633c1.37442,-0.8458 2.69586,-1.83006 4.19239,-2.45686c1.92316,-0.80548 3.90549,-1.32026 5.75112,-2.34097c1.50432,-0.83195 3.02493,-1.86239 4.45448,-2.81453c1.1409,-0.75988 2.3752,-1.363 3.68113,-1.84997c0.54827,-0.20445 1.13685,-0.72706 1.67994,-0.50924c0.39761,0.15947 0.57022,0.60509 0.71863,1.04771c-0.11848,1.00186 -0.37185,3.27951 -0.43025,4.1401c-0.32896,0.38585 -0.57733,0.8425 -0.71905,1.34392c-0.08757,0.30981 -0.13442,0.63671 -0.13442,0.97454c0,0.01398 0.00009,0.02794 0.00024,0.04187c-0.032,0.12965 -0.07395,0.24616 -0.13185,0.34352c-0.46027,0.77404 -1.35117,1.04939 -1.79388,1.78725c-0.7196,1.19933 -1.08816,2.41288 -1.47727,3.74909c-0.14115,0.48472 -0.62993,1.05843 -0.54957,1.57725c0.0125,0.08071 0.03171,0.15616 0.0559,0.2274c-0.51272,0.45636 -1.09546,0.96448 -1.5527,1.40815c-0.56043,0.197 -1.10799,0.41868 -1.62148,0.70263c-0.9458,0.52301 -1.66108,1.42618 -2.58236,2.00245c-1.63024,1.01973 -3.38424,1.93959 -5.1502,2.69594c-2.08254,0.78058 -3.9177,1.87025 -6.15453,2.199c-2.302,0.33833 -4.58905,-0.2057 -6.8462,-0.59851c-3.12263,-0.54343 -6.24633,-1.008 -9.10412,-2.16941c-0.97278,-2.42107 -4.53411,-4.446 -6.62297,-5.08053c-0.00248,-0.00075 -0.00495,-0.0015 -0.00742,-0.00226c-0.11423,-0.08942 -0.23403,-0.17202 -0.35879,-0.24724c-0.55685,-0.78985 -1.03843,-1.63978 -1.47678,-2.51606l-0.18261,-0.26147c0,0 -0.49583,-0.74375 0.24792,-1.23958z" fill="#ffbd38" stroke="none" stroke-width="0.5"/><path d="M207.48937,166.99308c0,-13.69282 11.31788,-24.79305 25.27919,-24.79305c13.96131,0 25.27919,11.10022 25.27919,24.79305c0,13.69282 -11.31788,24.79305 -25.27919,24.79305c-13.96131,0 -25.27919,-11.10023 -25.27919,-24.79305z" fill="none" stroke="#d38d00" stroke-width="5"/><path d="M234.26437,149.81198c2.37995,3.95092 -0.58414,10.29553 -6.62047,14.1711c-6.03634,3.87557 -12.85908,3.8145 -15.23903,-0.13642c-2.37995,-3.95092 0.58414,-10.29553 6.62048,-14.1711c6.03633,-3.87557 12.85907,-3.8145 15.23903,0.13642z" fill="#ffb600" stroke="none" stroke-width="0"/></g><path d="M249.61258,156.49574c0,1.35876 -1.65184,1.97599 -2.68354,1.20357c-0.1067,-0.07988 -0.1961,-0.18894 -0.2535,-0.30922c-0.46511,-0.97462 -0.14568,-2.15641 -0.14869,-3.23632c-0.00075,-0.27022 0.2319,-1.2099 0.6204,-1.23148c0.1862,-0.12087 0.40833,-0.19108 0.64685,-0.19108c0.58162,0 1.06574,0.41741 1.16915,0.96901c0.66893,0.66975 0.64934,1.15762 0.64934,2.79552z" fill="#000000" stroke="none" stroke-width="0.5" stroke-linecap="butt"/><path d="M242.30969,156.10729c0,1.35876 -1.65184,1.97599 -2.68354,1.20358c-0.10669,-0.07988 -0.1961,-0.18894 -0.2535,-0.30923c-0.46512,-0.97462 -0.14568,-2.15641 -0.14869,-3.23632c-0.00076,-0.27022 0.2319,-1.2099 0.6204,-1.23148c0.18619,-0.12087 0.40833,-0.19107 0.64685,-0.19107c0.58162,0 1.06574,0.41741 1.16915,0.96901c0.66893,0.66975 0.64934,1.15762 0.64934,2.79552z" fill="#000000" stroke="none" stroke-width="0.5" stroke-linecap="butt"/><path d="M249.68285,165.34124c-0.0302,2.27361 -1.2462,4.1736 -2.69478,5.82402c-1.32229,1.50654 -3.03531,2.86808 -5.03126,3.26894c-3.72214,0.74754 -9.31015,1.79209 -11.56355,-2.15138c-0.76609,-1.34066 -0.39046,-6.79553 -0.32213,-8.16553c0.01512,-0.30314 -0.01525,-2.26795 0.44464,-2.97338c0.27785,-0.42619 1.48464,-2.60914 2.13311,-2.8116c0.01761,-0.01659 0.03694,-0.03103 0.05807,-0.0431c0.20693,-0.35061 0.58859,-0.58581 1.02518,-0.58581c0.60569,0 1.10566,0.45268 1.18002,1.03818c0.43305,0.57299 0.73712,1.17202 1.89266,1.82626c1.99318,1.12849 4.50651,1.36427 6.73733,1.56717c0.82904,0.0754 1.76988,0.45837 2.49682,0.05273c0.699,-0.39005 2.51763,-1.88757 3.22657,-1.88757c1.12153,0 1.472,0.35048 1.472,1.472c0,0.45702 -0.59043,0.7831 -1.0003,1.00291c0.14367,0.81705 -0.04638,1.9641 -0.05438,2.56618z" fill="#000000" stroke="none" stroke-width="0.5" stroke-linecap="butt"/></g></g></g></svg>